<svg xmlns="http://www.w3.org/2000/svg" width="840" height="258" viewBox="0 0 840 258">
  <defs>
    <style>
      .cls-1 {
        fill: #fff;
        fill-rule: evenodd;
      }
    </style>
  </defs>
  <path id="车水马龙" class="cls-1" d="M127.907,160.8l7.4-36.6,53.6-10.2q3.2-.6,4.4-2-2.8-2.2-6-4.5t-6.3-4.4q-3.1-2.1-5.7-3.7a34.372,34.372,0,0,1-3.8-2.6l-18.4,21.6-17,3.2,6.4-32.6a29.486,29.486,0,0,0,5.3-2.2,5.662,5.662,0,0,0,2.3-2.2l-34.8,3.4-8,39.2-31,5.8q8-12.4,17.3-27.6t18.3-30.2l99.4-19q3.2-.6,4.4-2-3.2-2.2-6.8-4.4t-7-4.4q-3.4-2.2-6.3-3.7a24.223,24.223,0,0,1-4.1-2.5l-20,22.2-57.8,11,16-26.4a14.021,14.021,0,0,0,5.4-1.2,12.232,12.232,0,0,0,3.2-2.2l-34-2.8q-3.2,6.6-8.9,16.5t-12.7,22.1l-48.6,9.4,0.4,2.4,46.4-8.8q-8.8,15-17.3,28.4t-15.7,23.8a44.261,44.261,0,0,0-7.8,5.2l22.8,10.8,13.4-14,30.4-5.8-7.2,36.6-89.2,17,0.2,2.6,88.4-16.8L88.107,223l4.2-.8a62.967,62.967,0,0,0,10.8-3.1,72.2,72.2,0,0,0,7.9-3.6q3.1-1.7,4.9-2.9t2-1.4l9.4-47.8,71.8-13.8a10.038,10.038,0,0,0,4.8-2q-3.2-2-7-4.4t-7.3-4.4q-3.5-2-6.2-3.7t-4.1-2.5l-20.2,22.2Zm135.9,41.9a15.592,15.592,0,0,1,6.1,4.3,12.2,12.2,0,0,1,3,7.5,56.5,56.5,0,0,1-.4,11.3,121.869,121.869,0,0,0,20-7.4,46.66,46.66,0,0,0,12.2-8.4,30.071,30.071,0,0,0,6.8-10.1,71.643,71.643,0,0,0,3.6-12.5l22-110.6,3-.8a316.285,316.285,0,0,0-.5,40.9,138.119,138.119,0,0,0,5,30.6,80.261,80.261,0,0,0,10.4,22.6,82.511,82.511,0,0,0,15.7,17.1,80.359,80.359,0,0,1,13.2-18,49.855,49.855,0,0,1,17.4-11.8,120.984,120.984,0,0,1-15.4-5.5,76.81,76.81,0,0,1-14.4-8.2,72.346,72.346,0,0,1-12.7-11.8,78.8,78.8,0,0,1-10.5-16.1q17.6-11.2,33.4-22.9t27.8-21.5a14.894,14.894,0,0,0,4.3-.8,10.323,10.323,0,0,0,2.3-1.2l-27-13.2q-3.4,5.4-7.9,12.3t-9.9,14.3q-5.4,7.4-11.4,15.4t-12.2,15.6a119.253,119.253,0,0,1-6.3-22.9,137.53,137.53,0,0,1-1.7-27.1l5-24.8a34.289,34.289,0,0,0,5-2.1,5.185,5.185,0,0,0,2.2-2.1l-33.6,3.2-13.2,64.8-19.2-14.6-17,16.6-41.8,8.2,0.4,2.4,43.8-8.2q-5.2,15.2-12.2,30.5a302.777,302.777,0,0,1-15.7,29.8,270.447,270.447,0,0,1-19.4,28.1,217.209,217.209,0,0,1-23.5,25.4,228.918,228.918,0,0,0,34.3-25.1,236.775,236.775,0,0,0,26.9-28.2,225.43,225.43,0,0,0,20.6-30.3,327.714,327.714,0,0,0,15.6-31.4q2.2-.6,3.6-1a27,27,0,0,0,3.6-1.4l-17.4,87q-1,5-7.4,6.4-1.6.2-5.1,0.8t-7.8,1.2q-4.3.6-8.4,1.2t-6.7,1Q260.107,201.2,263.807,202.7Zm269.3-4.3a9.412,9.412,0,0,1,3.2,6.5,36.262,36.262,0,0,1-.6,9.7,107.9,107.9,0,0,0,19.3-5.4,54.264,54.264,0,0,0,13.5-8,42.677,42.677,0,0,0,9-10.2,91.214,91.214,0,0,0,8.1-16.2q3.9-9.8,8-23.7t8.7-32.5a47.679,47.679,0,0,0,5.2-1.9,13.934,13.934,0,0,0,3.2-1.9l-20-15-18.2,16.8-7.8,1.6q3-8.8,6.1-18.9t6.1-20.1q3-10,5.7-19.4t4.5-16.4a38.569,38.569,0,0,0,4.9-2.3,22.245,22.245,0,0,0,3.1-2.1l-23.8-14-14.2,16.4-102.8,19.8,0.4,2.4,104.6-20q-2.2,8.6-4.9,18.4t-5.6,20.2q-2.9,10.4-6.2,21t-6.5,20.4l-54.6,10.6q2.6-6.8,5.6-14.8t5.8-16q2.8-8,5.4-15.5t4.6-13.3a34.91,34.91,0,0,0,5-1.9,7.7,7.7,0,0,0,2.6-1.9l-33.2.2q-1.4,5.4-4.2,13.8t-6.1,17.9q-3.3,9.5-6.8,18.8t-6.5,16.5q-1.8,1.4-3.1,2.5t-2.7,2.3l22.4,7.8,12-14,92.8-18q-6.8,27.8-12.6,44.9t-11.2,21.7a14.727,14.727,0,0,1-3.8,2.3,29.562,29.562,0,0,1-4.8,1.3q-1.6.2-4.5,0.7t-6.6,1.1q-3.7.6-7.9,1.2l-8.4,1.2q12.6,1,17.8,5.4h0ZM411.707,184l0.4,2.4,139.8-26.8a9.634,9.634,0,0,0,4.4-2q-3-2.2-6.4-4.4t-6.5-4.3q-3.1-2.1-5.7-3.7a34.246,34.246,0,0,1-3.8-2.6l-18.8,21.4Zm264.5,21.9q14.7-8.5,30.3-19.7l-1.2,6.4a35.613,35.613,0,0,0-1,10.5,7.629,7.629,0,0,0,3.1,5.8q2.7,1.9,8.1,1.8a93.208,93.208,0,0,0,14.2-1.7l19.8-3.8q14.2-2.8,23.2-5.4a93.987,93.987,0,0,0,14.2-5.1,21.122,21.122,0,0,0,7.5-5.4,13.934,13.934,0,0,0,2.9-6.3,6.644,6.644,0,0,0-.7-5.1q-1.3-1.9-6.9-3.3l5.2-30.8,1.2,1-1,.2q-5.2,10.4-9.8,18.5a105.889,105.889,0,0,1-7.4,11.7,12.7,12.7,0,0,1-3.9,3.6,14.121,14.121,0,0,1-4.1,1.4,41.721,41.721,0,0,1-5.7,1.4q-3.3.6-6.9,1.2l-16.4,3.2q-4.8,1-6.6.1t-1-4.7l4-20a375.49,375.49,0,0,0,28.1-28.3q13.5-15.1,27.5-33.5a23.057,23.057,0,0,0,5-1,13.7,13.7,0,0,0,2.8-1.4l-30.6-9.4q-5.4,9.2-11.4,18.5t-14.6,21.3l7.8-39.8,1-4.2,58-11.2a9.812,9.812,0,0,0,4.6-2q-3-2.2-6.4-4.6t-6.7-4.6q-3.3-2.2-6.1-3.8a29.49,29.49,0,0,1-4-2.6l-19.2,22.4-57,11q3.4-11.6,5.7-22.7t5.1-22.9a30.829,30.829,0,0,0,5.1-2.2,7.519,7.519,0,0,0,2.5-2.2l-36.2,3.8q-2.6,13-5.2,25.7t-6,25.9l-58.2,11.2,0.4,2.6,57.4-11q-4.8,18.6-11.4,36.6a225.15,225.15,0,0,1-16.9,35.7,247.882,247.882,0,0,1-25.2,35.3,289.194,289.194,0,0,1-36.1,35.2l0.2,0.6q29.6-17.2,49.7-34.9a217.191,217.191,0,0,0,33.4-36.3,193.718,193.718,0,0,0,21.4-38,329.9,329.9,0,0,0,13.7-39.8l10.4-2-15.8,79a383.724,383.724,0,0,1-31.3,29.2q-15.9,13.2-32.7,25.2Q661.5,214.4,676.207,205.9Zm75.1-154.3a44.27,44.27,0,0,1,4.8,15.4,16.938,16.938,0,0,0,8.5.6,20.12,20.12,0,0,0,7.6-3.2,25.79,25.79,0,0,0,6-5.7,15.622,15.622,0,0,0,3.1-6.7,10.59,10.59,0,0,0-.6-6.7q-1.4-3.3-5.8-5.5t-12.2-2.5q-7.8-.3-19.8,2.1A57.808,57.808,0,0,1,751.307,51.6Z"/>
</svg>
