<svg xmlns="http://www.w3.org/2000/svg" width="2468" height="200" viewBox="0 0 2468 200">
  <defs>
    <style>
      .cls-1 {
        fill: #fff;
        fill-rule: evenodd;
      }
    </style>
  </defs>
  <path id="匆匆而行的路口_一去无返地借过" data-name="匆匆而行的路口,一去无返地借过" class="cls-1" d="M100.5,150.5q1.832,2,1.833,6a54.163,54.163,0,0,1-1,9.5,61.824,61.824,0,0,0,15.75-5.166,54.486,54.486,0,0,0,12.75-9.167,45.117,45.117,0,0,0,9.25-12.5,153.719,153.719,0,0,0,8.833-21.25q4.583-13.25,9.584-32.75T169,38a42.521,42.521,0,0,0,4.833-2.167,17.617,17.617,0,0,0,3-2L160.668,20.665,145,35.832,70.168,50.165q3.832-5.332,6.667-9.75T82.668,31a14.855,14.855,0,0,0,4-1,8.164,8.164,0,0,0,2.5-1.667L59,24.665Q54.166,36.5,48.418,48.248t-12.25,23q-6.5,11.25-13.25,21.417T9.668,111q7-4.832,13.75-10.25T37,88.832a87.1,87.1,0,0,1,9.667,2.75,89.127,89.127,0,0,1,9,3.75,347.906,347.906,0,0,1-24.75,36,264.574,264.574,0,0,1-30.25,32.5A256.669,256.669,0,0,0,37.5,135.165,282.082,282.082,0,0,0,68,101.5q4.5,2.836,7.833,5.167t6.667,5.167a272.116,272.116,0,0,1-22.417,33.416,243.3,243.3,0,0,1-28.417,30.417,229.242,229.242,0,0,0,33-24.917,240.122,240.122,0,0,0,27.167-29.416q1.664,2,2.667,3.416a14.606,14.606,0,0,1,1.5,2.584,14.861,14.861,0,0,0,11.333-.834A20.728,20.728,0,0,0,116,118.832a17.447,17.447,0,0,0,2.083-11.167q-0.75-6.332-8.583-12a266.893,266.893,0,0,0,14.25-27.583A295.871,295.871,0,0,0,134.5,40l13-2.5Q137.334,82,129.752,107t-14.584,31a16.078,16.078,0,0,1-8,4q-3,.5-8.833,1.417T86.835,145q10,1,13.667,5.5h0ZM49.085,88.332q-5.418.5-13.083,1.5,9.832-9.5,17.583-18.25T68.668,52.665L76,51.165q-3.336,9.5-7.25,18.25t-8.917,18.25Q54.5,87.833,49.085,88.332Zm37.167,0.083Q82.666,88,78,87.665q7.164-10.832,12.667-20.75a223.656,223.656,0,0,0,10-20.417L110,44.665q-3.168,11.5-7,22.333T93.835,89.665Q89.835,88.833,86.252,88.415ZM267.168,150.5q1.833,2,1.834,6a54.26,54.26,0,0,1-1,9.5,61.824,61.824,0,0,0,15.75-5.166,54.486,54.486,0,0,0,12.75-9.167,45.136,45.136,0,0,0,9.25-12.5,153.719,153.719,0,0,0,8.833-21.25q4.583-13.25,9.583-32.75T335.668,38a42.548,42.548,0,0,0,4.834-2.167,17.617,17.617,0,0,0,3-2L327.335,20.665,311.668,35.832,236.835,50.165q3.832-5.332,6.667-9.75T249.335,31a14.851,14.851,0,0,0,4-1,8.167,8.167,0,0,0,2.5-1.667l-30.167-3.667Q220.832,36.5,215.085,48.248t-12.25,23q-6.5,11.25-13.25,21.417T176.335,111q7-4.832,13.75-10.25t13.583-11.916a87.091,87.091,0,0,1,9.667,2.75,89.127,89.127,0,0,1,9,3.75,347.781,347.781,0,0,1-24.75,36,264.577,264.577,0,0,1-30.25,32.5,256.652,256.652,0,0,0,36.833-28.667,282.031,282.031,0,0,0,30.5-33.667q4.5,2.836,7.834,5.167t6.666,5.167a272.076,272.076,0,0,1-22.416,33.416,243.3,243.3,0,0,1-28.417,30.417,229.275,229.275,0,0,0,33-24.917A240.18,240.18,0,0,0,258.5,121.332q1.663,2,2.666,3.416a14.569,14.569,0,0,1,1.5,2.584A14.862,14.862,0,0,0,274,126.5a20.732,20.732,0,0,0,8.666-7.666,17.447,17.447,0,0,0,2.084-11.167q-0.75-6.332-8.584-12a266.5,266.5,0,0,0,14.25-27.583A295.6,295.6,0,0,0,301.168,40l13-2.5Q304,82,296.418,107t-14.583,31a16.078,16.078,0,0,1-8,4q-3,.5-8.833,1.417T253.5,145q10,1,13.666,5.5h0ZM215.752,88.332q-5.418.5-13.084,1.5,9.833-9.5,17.584-18.25t15.083-18.917l7.333-1.5q-3.336,9.5-7.25,18.25T226.5,87.665Q221.165,87.833,215.752,88.332Zm37.166,0.083q-3.585-.414-8.25-0.75,7.164-10.832,12.667-20.75a223.632,223.632,0,0,0,10-20.417l9.333-1.833q-3.168,11.5-7,22.333T260.5,89.665Q256.5,88.833,252.918,88.415Zm195.584,54a10.638,10.638,0,0,1,2.166,4.25,18.958,18.958,0,0,1,.25,6.583q-0.417,4.086-1.25,9.584a64.645,64.645,0,0,0,13.417-5.25A29.306,29.306,0,0,0,471.418,151a27.356,27.356,0,0,0,4.75-8.166A70.27,70.27,0,0,0,479,132.665l14.5-72.833a27.665,27.665,0,0,0,4.083-1.667,14.723,14.723,0,0,0,2.583-1.667L483,45.332,470.335,58.5,410.835,70q10.332-8.664,19.083-17.417t16.417-17.25L510.168,23a7.052,7.052,0,0,0,3.667-1.667q-2.5-1.832-5.583-3.75t-5.834-3.75q-2.75-1.832-5.083-3.25t-3.5-2.083L477.168,27.165,354,51l0.333,2L416.5,41.165q-1.836,7.5-3.917,15.167t-3.75,14l-26,5-23-4.167L337.168,184.332l2.667-.5a42.233,42.233,0,0,0,7.333-2.417,59.829,59.829,0,0,0,6.5-3.25q2.832-1.668,4.667-3t1.833-1.833l19-95.167,17-3.333L376.168,175l2.834-.333a44.689,44.689,0,0,0,12.916-4.167q4.914-2.667,5.417-3.5L416.5,71l17.333-3.333-19.5,97.667,2.833-.5a50.215,50.215,0,0,0,13.167-4q5-2.5,5.167-3.334l18.833-93.833,18.167-3.5L457.668,134a6.357,6.357,0,0,1-1.416,3.084,6.067,6.067,0,0,1-3.417,1.75q-1.668.336-4.583,0.833t-4.75.667Q447,140.668,448.5,142.415Zm138.083,5.333a16.123,16.123,0,0,1,5.583,2.917,8.954,8.954,0,0,1,3.167,6.083,41.23,41.23,0,0,1,0,9.084,86.972,86.972,0,0,0,17.167-6,41.077,41.077,0,0,0,10.75-7.417,27.713,27.713,0,0,0,6.083-8.833,48.911,48.911,0,0,0,3-10.25L646.168,64l24.5-4.667a6.279,6.279,0,0,0,3.667-1.667q-2.168-1.664-4.667-3.583t-4.916-3.667q-2.418-1.75-4.417-3a28.452,28.452,0,0,1-3-2.083L642.5,62.665,576,75.332l0.166,2.167,47-9L609.5,137q-1,4.337-6.334,5.5-1.335.168-4.666,0.667t-7.417,1.083Q587,144.835,583,145.5t-6.834,1A40.327,40.327,0,0,1,586.585,147.748Zm-84.25-18.25,0.5,0.5h-1.5q7.337-4.663,14.75-9.916T532.5,108l-15,74.5,3.333-.5A40.558,40.558,0,0,0,528,180a62.2,62.2,0,0,0,6.25-2.75q2.75-1.417,4.583-2.5A16.141,16.141,0,0,0,541,173.332L557,93.5a12.413,12.413,0,0,0,3.083-1.417q1.082-.75,1.917-1.25L554.168,89.5q6.5-5.832,11.417-10.75L575,69.332a12.4,12.4,0,0,0,3.583-.667c0.833-.333,1.471-0.609,1.917-0.833L557,58q-4.336,7.336-10.5,16.333T533.085,92.915q-7.25,9.586-15.167,19T502.335,129.5h0Zm31.5-60.583q8.5-5.082,16.333-10.583t14.917-10.917Q572.167,42,578,36.832a10.349,10.349,0,0,0,3.333-.417,6.994,6.994,0,0,0,1.833-.917L561.5,25.332q-3.669,5.5-8.667,12.25T541.918,51.415Q536,58.5,529.585,65.5T517,78.5Q525.333,74,533.835,68.915ZM672.418,16.582q-2.418-1.75-4.75-3.417t-4.25-2.917Q661.5,9,660.5,8.332l-14.167,16.5L593.5,35l0.333,2,79.5-15.333a5.408,5.408,0,0,0,3.5-1.5A49.725,49.725,0,0,0,672.418,16.582Zm95,79.25a55.215,55.215,0,0,1-.083,16.833,9.459,9.459,0,0,0,6.417,2.167,16.553,16.553,0,0,0,6.5-1.667,17.869,17.869,0,0,0,5.583-4.333,19,19,0,0,0,3.667-6,15.363,15.363,0,0,0,.75-6.917A11.8,11.8,0,0,0,787,89.248a21.391,21.391,0,0,0-8.584-5.167,54.316,54.316,0,0,0-15.25-2.583A49.933,49.933,0,0,1,767.418,95.832Zm7.417,53.333a8.3,8.3,0,0,1,2.083,5.917,45.966,45.966,0,0,1-.916,9.25,66.753,66.753,0,0,0,15.5-5.167,45.536,45.536,0,0,0,11.833-8.667,43.341,43.341,0,0,0,8.167-11.75,128.4,128.4,0,0,0,7.666-20.333q3.832-12.75,8.417-31.667T838,40.832a37.912,37.912,0,0,0,4.833-1.917A10.852,10.852,0,0,0,845.668,37L829.835,24.332l-15,14.5L790.5,43.665q4.664-6.5,8.333-12.333t7.333-12q4.5-1,6.167-2.5l-27.667-2.5a360.2,360.2,0,0,1-16.25,38.75q-9.75,20.086-20.916,38.75l7-34.667a28.557,28.557,0,0,0,6.666-3.833L744.835,42.5l-12.5,13-15,2.833q7.332-7.5,14.167-14.583T743.668,31q4.833-1,6.667-3.167l-29.167-1.167q-1.836,7.168-4,15.833t-4.5,16.833l-20-4.5-24.833,124,2.333-.167a42.6,42.6,0,0,0,7.25-2.25,38.09,38.09,0,0,0,6-3.083,43.082,43.082,0,0,0,4.084-2.917,5.992,5.992,0,0,0,1.666-1.75l2.5-12.667,23.834-4.5L713,164.665l2.333-.5a39.617,39.617,0,0,0,6.5-2q3.332-1.336,6.167-2.75t4.666-2.5a21.65,21.65,0,0,0,2-1.25L748.5,86l2.166,1a211.208,211.208,0,0,0,19.5-18.583A270.408,270.408,0,0,0,788.668,46L817.5,40.5q-9.5,43.336-16,67.417T789,137.332a13.124,13.124,0,0,1-3.584,2.416,22.2,22.2,0,0,1-4.083,1.25q-1.5.336-3.833,0.667t-5.167.75q-2.837.418-6,.833t-6.167.917q10.665,0.668,14.667,5h0ZM725.668,101l-24,4.5L710.5,61.665l24-4.5Zm-24.333,6.667,23.833-4.5L716,149.332l-24,4.5ZM987.085,73a92.407,92.407,0,0,1-17.417-3.667,214.989,214.989,0,0,0,15.917-18A222.4,222.4,0,0,0,998.5,33q5.157-1.664,6.5-2.833l-15.5-12-14,13.167L959.168,34.5q3.165-4.164,5.334-7.583t4.333-7.25a15.187,15.187,0,0,0,4.167-1A6.292,6.292,0,0,0,975.335,17L949.5,14a231.527,231.527,0,0,1-17.667,36.417A211.349,211.349,0,0,1,910,81a192.2,192.2,0,0,0,16.083-11.5A191.755,191.755,0,0,0,942.168,55q1.665,5.5,3.334,9.75t3.833,8.583A231.1,231.1,0,0,1,933,90a265.62,265.62,0,0,1-20.667,17l1.833-3.5q-1.335-1.664-3.083-3.5t-3.333-3.583a43.308,43.308,0,0,0-3.167-3.167Q903,91.834,902.168,91L888,110.332l5.666-28.667Q896.5,81,899.5,80t5.666-2.083q2.664-1.082,4.417-2a6.526,6.526,0,0,0,2.083-1.417L919,37a23.962,23.962,0,0,0,6-3.167l-15.167-9.5L898.5,35.665,883.835,38.5l-20.5-3.667L852,91.665l2.5-.5a37.3,37.3,0,0,0,12.166-3.833q4.833-2.664,5-3.5l0.5-2.5,3.667-.833-14.5,72.834-8.333,3L864,101.5a11.28,11.28,0,0,0,2.666-1l-17.5,1.834-12,59.666q-3,1-5.166,1.75t-3.834,1.417l4.667,19.5a12.725,12.725,0,0,0,3.833-4.5q23.664-13.836,40.75-24.667t30.25-19.833L900.335,173l2.833-.666a65.969,65.969,0,0,0,13.417-3.917q5.082-2.25,5.25-3.25l1.833-9,27-5.167-2.333,12,3-.5a67.475,67.475,0,0,0,14.333-4q5.332-2.331,5.5-3.166L980.835,107a36.928,36.928,0,0,0,4.083-1.75q1.414-.75,2.417-1.416l-8-4.834,1.833-2.5a23.314,23.314,0,0,0,5.5,1.333,52.189,52.189,0,0,1,7.584-14.083,37.84,37.84,0,0,1,12.418-10.083A137.565,137.565,0,0,1,987.085,73ZM950,58.915a39.859,39.859,0,0,1-5.5-6.25q3.663-4.164,6.75-7.75T957.5,37l19.333-3.833a170.1,170.1,0,0,1-9,15.917q-4.668,7.25-10.667,15.25A52.207,52.207,0,0,1,950,58.915ZM880.168,41.332l20.5-4-7.5,37.833-20.666,4Zm23.917,72.75q3.913-1.75,8.75-4.25l-5.167,26q-7,2.667-13.416,5.083T880.835,146l7.333-36.5,22.5-4.333L916,104q-6.5,5-11,7.917t-8.667,5.583Q900.168,115.834,904.085,114.082ZM932,114.665l27-5.167-7.834,39.334L924,154Zm3.333-2.833L915.5,108.5q12.5-6.663,22-12.916A205.578,205.578,0,0,0,955.835,82a45.879,45.879,0,0,0,6.917,6.25,43.338,43.338,0,0,0,8.916,4.917L957.835,107.5ZM1135.17,35.5l-71.34,13.667-25.5-4.833L1011.5,178.165l3-.5a38.24,38.24,0,0,0,8.42-2.667,76.056,76.056,0,0,0,7.33-3.75,40.043,40.043,0,0,0,5.25-3.583,7.094,7.094,0,0,0,2.17-2.333l3-15.334,77.5-15-3.84,19.334,2.5-.5a36.664,36.664,0,0,0,7.84-2.334c2.66-1.109,5.11-2.192,7.33-3.25s4.08-2.026,5.58-2.916,2.42-1.443,2.75-1.667l21-105a38.837,38.837,0,0,0,5.92-2.917A28.325,28.325,0,0,0,1171,33l-20.5-14ZM1060.33,52l77.5-15-19.16,95.834-77.5,15Zm100.01,142.334,0.5,2.5a106.916,106.916,0,0,0,13.75-8.75,92.212,92.212,0,0,0,13.16-11.917,83.461,83.461,0,0,0,10.59-14.417,52.122,52.122,0,0,0,6.16-16.25,33.549,33.549,0,0,0,.84-6.666,33.892,33.892,0,0,0-.67-6.167,10.1,10.1,0,0,0-5-2.167,20.128,20.128,0,0,0-6.17.334,21.325,21.325,0,0,0-11,5.833,19.921,19.921,0,0,0-6,10.5,9.672,9.672,0,0,0,.75,6.25q1.41,2.918,6.09,4.75l8.66,3a69.682,69.682,0,0,1-12.66,18.167,107.315,107.315,0,0,1-19,15h0Zm107-87.667L1424,76.5q3.165-.5,4.17-1.667-2.67-2.332-6-5.167c-2.23-1.888-4.36-3.667-6.42-5.333s-3.94-3.167-5.66-4.5-3.03-2.333-3.92-3l-19.83,24.333L1267,104Zm275.33,26.5q-26.01,6.168-48.34,11.25t-42.5,9.75q10.335-6.332,20.25-13.167T1491,127.332q9-6.832,16.58-13.334T1521,101.5a9.125,9.125,0,0,0,5.33-2.166l-29.83-5.167,93.33-17.833a7.305,7.305,0,0,0,3.84-1.833q-2.67-1.832-5.84-3.917t-6.08-4q-2.91-1.914-5.33-3.5c-1.61-1.055-2.81-1.8-3.59-2.25l-17.33,20L1525,86.665l7.17-35.5,55-10.667a8.392,8.392,0,0,0,4-1.667q-2.67-1.832-5.67-3.917t-5.92-4q-2.91-1.914-5.16-3.417T1571,25.165l-17.17,19.667L1532.5,49l6.17-30.5a20.275,20.275,0,0,0,4.41-1.917,8.751,8.751,0,0,0,2.09-1.75l-30.34,3.5-7.16,35.5-52.84,10L1455.17,66l52.16-10-7.16,35.333-64.84,12.5,0.34,2,62.16-11.667q-4.665,7.336-11.5,16.167T1472,127.5q-7.5,8.337-15.08,15.25a111.8,111.8,0,0,1-13.42,10.75,37.116,37.116,0,0,1-3.67,1.75q-2.16.918-3.66,1.584l6,24.5c0.33-.334.75-0.724,1.25-1.167s1.08-1,1.75-1.667q31.995-13,56.5-23.5t42-19q1.995,5.668,3.25,10.834a61.066,61.066,0,0,1,1.58,10.666,14.676,14.676,0,0,0,8.75,1.834,16.28,16.28,0,0,0,8-3.167,24.365,24.365,0,0,0,9.25-15.667,23.486,23.486,0,0,0-1.58-10,22.653,22.653,0,0,0-7.09-9.25q-5.16-4.249-14.41-7.083T1528.33,111q8.01,8.5,14.34,22.167h0Zm204.5-26.5c-1.34,2.557-2.61,4.945-3.84,7.167s-2.44,4.224-3.66,6q-1.665,3-3.09,5.166a30.916,30.916,0,0,1-2.58,3.5,10.763,10.763,0,0,1-3,2.667,14.34,14.34,0,0,1-3.5,1.333q-1.83.5-4.5,1l-5.33,1-12.84,2.5q-3.495.669-4.83,0c-0.89-.442-1.17-1.609-0.83-3.5L1710,79.165l0.83-3.667,46.34-9a6.253,6.253,0,0,0,3.66-1.667,54.765,54.765,0,0,0-5.33-4q-3-2-5.67-3.833-2.655-1.832-4.91-3.333a35.956,35.956,0,0,0-3.59-2.167l-16.5,19.167-42.16,8.167q3.66-11.332,6.25-22.083t5.41-23.083l61.84-11.833a6.252,6.252,0,0,0,3.66-1.667q-2.49-1.832-5.33-3.833t-5.5-3.917q-2.67-1.914-4.92-3.25A26.722,26.722,0,0,1,1740.83,7l-16.16,18.833L1624.83,45l0.34,2,45.16-8.5q-2.835,12-5,22.833t-5.5,21.833l-55,10.5,0.17,2.167L1659.33,85.5a219.754,219.754,0,0,1-9.91,25.667A155.541,155.541,0,0,1,1634.92,136,196.828,196.828,0,0,1,1614,160.582a253.7,253.7,0,0,1-29.33,24.916l0.16,0.334a280.927,280.927,0,0,0,39-24.584,185.341,185.341,0,0,0,27.42-25.416,140.931,140.931,0,0,0,18.42-26.667A218.809,218.809,0,0,0,1682,81l5.83-1.167-12.83,64.5a40.278,40.278,0,0,0-1,9.333,6.278,6.278,0,0,0,2.33,5.083c1.45,1.055,3.61,1.584,6.5,1.584a59.052,59.052,0,0,0,11.5-1.5l16-3a177.8,177.8,0,0,0,18.42-4.417,58.164,58.164,0,0,0,11.58-4.75,22,22,0,0,0,6.42-5.167,12.473,12.473,0,0,0,2.58-5.833q0.675-3.163-.41-4.917c-0.73-1.166-2.64-2.138-5.75-2.916l3.83-22.167,1,0.833Zm141.92,32.583q-11.76,2.418-25.09,4.917-13.5,2.668-23.91,4a134.827,134.827,0,0,1-18.34,1.25,53.839,53.839,0,0,1-13.66-1.667,27.082,27.082,0,0,1-9.92-4.916l10.5-53q3.825-1.5,5.75-2.5c1.27-.667,2.36-1.276,3.25-1.833l-18.33-12.333-13.5,15.667-18.17,3.5,0.17,2.167,21-4-11.34,57.334q-6,4.335-11.91,8.583t-10.92,7.917L1765.17,183a3.1,3.1,0,0,0,.5-2.333q2.5-4.336,5.42-8.917t5.66-9q2.76-4.417,5.09-8.25T1786,148a13,13,0,0,1,3.5-4l2-.5a4.474,4.474,0,0,1,2.84,2.667,42.519,42.519,0,0,0,7.5,11.667,26.791,26.791,0,0,0,10.91,7,47.6,47.6,0,0,0,16.17,2.25,133.813,133.813,0,0,0,23.42-2.75L1895.5,156a42.512,42.512,0,0,1,7.09-13,35.394,35.394,0,0,1,11.41-9.5Q1900.83,136.834,1889.09,139.248Zm-92.67-91a54.522,54.522,0,0,1,3.08,17.25,11.65,11.65,0,0,0,6.67,1.333,15.022,15.022,0,0,0,6.5-2.167,19.313,19.313,0,0,0,5.25-4.75,16.9,16.9,0,0,0,3.08-6.25,13.627,13.627,0,0,0-.16-7,13.194,13.194,0,0,0-4.5-6.417,28.082,28.082,0,0,0-10-4.833,60.41,60.41,0,0,0-16.67-1.917A85.139,85.139,0,0,1,1796.42,48.248Zm28.42,77.167a111.693,111.693,0,0,0,13.5-15.583,108.784,108.784,0,0,0,9.5-16.084,171.606,171.606,0,0,0,6.66-16.083q4.665,4.668,8.92,8.917T1872,95.5a173.578,173.578,0,0,1-20.91,23.834A168.554,168.554,0,0,1,1825,139.5a222.789,222.789,0,0,0,30-15.666,168.958,168.958,0,0,0,25-19.167q4.335,5.335,7.5,10a73.03,73.03,0,0,1,5.34,9.167,11.329,11.329,0,0,0,5.83.75,14.572,14.572,0,0,0,5.17-1.75,15.542,15.542,0,0,0,4.16-3.5,13.872,13.872,0,0,0,2.67-4.834,18.491,18.491,0,0,0,.75-5.916,15.617,15.617,0,0,0-1.83-6.667A30.334,30.334,0,0,0,1904.5,95a38.859,38.859,0,0,0-8.83-6.667q6.495-8.5,11.67-16.667T1917,54.5a32.062,32.062,0,0,0,4.09-1.417,10.353,10.353,0,0,0,2.25-1.417l-16.67-12.333-14.5,14-33.33,6.5L1863,39.5q7.005-1.5,14.5-3.417t15.17-4q7.665-2.082,15.17-4.5T1922,22.665a10.234,10.234,0,0,0,3.42.083,8.961,8.961,0,0,0,2.42-.75l-14-16.167q-13.17,8-27,15.917t-26.17,14.417l-16.67-2.5-6.33,31.5q-1.665,8.336-4,17.583a193.45,193.45,0,0,1-5.83,18.834A152.791,152.791,0,0,1,1819.09,121a123.345,123.345,0,0,1-12.59,19A130.1,130.1,0,0,0,1824.84,125.415Zm43.75-45.667a133.36,133.36,0,0,0-14.42-1.583q1.665-4.664,2.58-8.333T1858.5,62l35.5-6.833q-3,7.5-6,13.917T1880.84,82.5Q1874.84,80.834,1868.59,79.748Zm106.49,44.584q-4.9,2.335-10.58,5l10-50.5,20.67-4a6.567,6.567,0,0,0,.91-0.083,11.752,11.752,0,0,0,2.42-.917l-1.67,7.667-18.33,9.333,1.33,1.333,16.67-8.333-13,64.666q-1.335,6.5-.58,10.25a7.208,7.208,0,0,0,3.83,5.334c2.06,1.054,4.97,1.5,8.75,1.333a102.765,102.765,0,0,0,14.33-1.917l22.67-4.5q15-2.832,24.5-5.416a84.252,84.252,0,0,0,15.17-5.417q5.655-2.832,8.08-5.75a14.024,14.024,0,0,0,3.08-6.417,4.534,4.534,0,0,0-1-4.166q-1.5-1.665-7.16-2.834l4-23.166,1,1-0.84.166q-4.83,8.5-8.66,14.584a89.45,89.45,0,0,1-6.34,9.083,21.145,21.145,0,0,1-4.16,2.833,18.2,18.2,0,0,1-4.34,1.5,66.511,66.511,0,0,1-7.41,1.917c-2.95.612-6.14,1.25-9.59,1.917L2016.5,143q-6,1.168-8.67.25c-1.77-.609-2.33-2.416-1.66-5.416l13-65.334,14.5-7.333-13.5,67.333,2.83-.666a36.8,36.8,0,0,0,6.83-2,53.2,53.2,0,0,0,5.92-2.75A46.294,46.294,0,0,0,2040,124.5a7.045,7.045,0,0,0,1.67-1.333L2046.5,99a15.656,15.656,0,0,1,3.92,2.667,7.582,7.582,0,0,1,1.58,2.5,11.635,11.635,0,0,1,.33,5.75q-0.495,3.586-1.5,8.25a42.916,42.916,0,0,0,19-8.833,34.259,34.259,0,0,0,5.59-6.417,46.2,46.2,0,0,0,4.75-10.25q2.325-6.664,4.91-17.583T2091.5,47a31.158,31.158,0,0,0,4-1.583,12.966,12.966,0,0,0,2.5-1.583l-15.33-11-10.34,9.5,5-1-9.83,4.833L2056,52l7.5-37.333a21.616,21.616,0,0,0,4.33-1.833A4.861,4.861,0,0,0,2069.67,11L2044,13.665l-10,49.167-14.33,7.333L2026.5,35.5a20.9,20.9,0,0,0,4.25-1.917,8.672,8.672,0,0,0,2.08-1.75l-26.5,2.5-8,38.833Q1995,68.5,1992,64.832t-4.5-5.333l-12.67,18.333,8.84-44.667a19.989,19.989,0,0,0,4.58-1.917,5.312,5.312,0,0,0,1.92-1.917l-26.34,2.833-9.83,48.5-15.83,3.167,0.16,2L1953.67,83l-11.17,56.5q-6.495,2.837-11.5,4.834c-3.33,1.333-6.17,2.5-8.5,3.5l5.83,22A12.424,12.424,0,0,0,1932,165q18.33-14.331,31.17-25.666Q1976,128,1984.67,119.5,1980.005,122,1975.08,124.332Zm77.42-26.167-6,1.167,9-45,16.17-8.167q-2.67,12.5-4.59,21.25-1.9,8.75-3.58,14.583a83.045,83.045,0,0,1-3,9,12.553,12.553,0,0,1-2.83,4.5,9.259,9.259,0,0,1-5.17,2.667h0ZM2235.34,68.5l25.33-4.833A5.322,5.322,0,0,0,2264,62q-1.665-1.664-3.75-3.583t-4-3.583c-1.28-1.109-2.44-2.167-3.5-3.167a21.318,21.318,0,0,0-2.58-2.167Zm0,0-0.67.833L2241.17,37l23.5-4.5c1.77-.333,2.89-0.833,3.33-1.5-1-1.109-2.16-2.3-3.5-3.583s-2.61-2.471-3.83-3.583-2.39-2.167-3.5-3.167a25.124,25.124,0,0,0-2.67-2.167l-13.16,17,5-24.333a23.127,23.127,0,0,0,3.83-1.583A3.585,3.585,0,0,0,2251.84,8l-26.34,3-5.83,28.167-17.5,3.333L2207,18.832a23.12,23.12,0,0,0,3.67-1.75,6.7,6.7,0,0,0,1.67-1.417l-26,3-5.84,28L2163,50l0.34,2,16.83-3-5.83,29.167-23.34,4.5,0.34,2ZM2219.5,41.165l-6,29.333L2195.84,74l6-29.333ZM2186,95.5l-22.33-4.333L2147,173.832l2.34-.167a46.514,46.514,0,0,0,7.75-2.333,53.435,53.435,0,0,0,6.66-3.167,51.641,51.641,0,0,0,4.84-3.083c1.27-.946,1.91-1.529,1.91-1.75l1-5.167,38.17-7.333-1.83,9.5,2.66-.334a44.763,44.763,0,0,0,6.67-2q3.495-1.332,6.58-2.75c2.06-.942,3.75-1.8,5.09-2.583a20.106,20.106,0,0,1,2.5-1.333l11.83-60.667a38.737,38.737,0,0,0,4.17-1.917A16.931,16.931,0,0,0,2250,87l-17.5-11.167-13,13.333Zm30.34,21.834-38,7.333,5.16-26.5,38.17-7.333Zm-38.5,9.5L2216,119.5l-5.83,29.167L2172,156Zm-7.34-96.667A8.085,8.085,0,0,0,2173,28.5l-28.66-2.667q-4.68,12.336-10.59,24.833T2121.34,75q-6.51,11.836-13.34,22.667T2094.5,117.5q5.67-4.332,11.42-9.333t13.08-12l-17.5,87,3.34-.5a36.585,36.585,0,0,0,7.16-2.083,69.617,69.617,0,0,0,6.34-2.917,50.553,50.553,0,0,0,4.66-2.75,24.2,24.2,0,0,0,2.17-1.583l19.67-98.5a16.782,16.782,0,0,0,3.25-1.417,10.051,10.051,0,0,0,1.75-1.25l-8.84-1.5q7.335-9.664,13.5-19.083t12.17-20.417A14.629,14.629,0,0,0,2170.5,30.165ZM2352.42,120.5a16.156,16.156,0,0,1,4.92,3,9.422,9.422,0,0,1,2.58,5.75,39.78,39.78,0,0,1-.08,8.417A88.129,88.129,0,0,0,2375.5,132a38.206,38.206,0,0,0,9.67-6.583,22.181,22.181,0,0,0,5.33-7.917,65.436,65.436,0,0,0,2.84-9.833l12.83-63.833,26.67-5.167a4.837,4.837,0,0,0,3.33-1.833q-1.5-1.832-3.33-4.167-1.845-2.332-3.67-4.417c-1.23-1.388-2.39-2.667-3.5-3.833s-2-2.083-2.67-2.75l-14,19.5-2.5.5L2412.67,11a21.587,21.587,0,0,0,4.17-1.583,5.818,5.818,0,0,0,2-1.75L2392,10.5l-7.33,35.333-57,11,0.33,2,56.34-10.667-12.5,62.5c-0.56,2.779-2.5,4.5-5.84,5.167-0.78.112-2.11,0.333-4,.666s-3.97.667-6.25,1-4.56.641-6.83,0.917-4.14.529-5.58,0.75Q2349.49,119.333,2352.42,120.5Zm-14.83-43.583a57.234,57.234,0,0,1,1.5,8.583,76.543,76.543,0,0,1,.33,8.5q-0.09,4.168-.42,7.667a7.422,7.422,0,0,0,5.42,3,13.4,13.4,0,0,0,6.25-1.25,18.684,18.684,0,0,0,5.92-4.333,21.919,21.919,0,0,0,4.25-6.417A17.229,17.229,0,0,0,2362,85.5a12.276,12.276,0,0,0-2.91-7.25q-2.76-3.414-8.67-5.833Q2344.5,70,2334.5,69.332A28.244,28.244,0,0,1,2337.59,76.915Zm53,61.25q-11.6,2.5-24.42,5-13.845,2.668-24.33,3.917a115.012,115.012,0,0,1-18.25.916,45.488,45.488,0,0,1-13.34-2.333,27.127,27.127,0,0,1-9.75-6L2310.67,89a46.066,46.066,0,0,0,5.75-2.333,24.3,24.3,0,0,0,3.25-2l-18.5-12.333L2287.5,88l-18.83,3.667V94l21.83-4.167-11.33,56.833q-6.675,4.5-13.5,9.083-6.84,4.583-12.83,8.25L2263,183.332a4.2,4.2,0,0,0,1-2.667q3.33-4.5,7-9.583t7.25-9.75q3.585-4.668,6.59-8.584c2-2.609,3.6-4.8,4.83-6.583q2.505-3.332,4.75-4.167c1.5-.554,2.8.279,3.92,2.5a43.148,43.148,0,0,0,7.16,11.917,26.709,26.709,0,0,0,10.59,7.25,43.24,43.24,0,0,0,15.66,2.5,121.01,121.01,0,0,0,22.75-2.667l42.17-8.333a40.574,40.574,0,0,1,6.92-13.083,34.366,34.366,0,0,1,11.58-9.584Q2402.165,135.666,2390.59,138.165ZM2295.42,48a50.163,50.163,0,0,1,3.08,17.5,11.817,11.817,0,0,0,6.75,1.333,15.123,15.123,0,0,0,6.67-2.25,19.006,19.006,0,0,0,8.25-11.25,13.008,13.008,0,0,0-4.67-13.5q-3.495-3-10.08-4.75a67.563,67.563,0,0,0-16.92-1.75A85.958,85.958,0,0,1,2295.42,48Z"/>
</svg>
