<svg xmlns="http://www.w3.org/2000/svg" width="258" height="60" viewBox="0 0 258 60">
  <defs>
    <style>
      .cls-1 {
        fill: #fff;
        fill-rule: evenodd;
      }
    </style>
  </defs>
  <path id="_24_08_22" data-name="24/08/22" class="cls-1" d="M27.673,29.642q3.385-2.9,5.715-5.308a31.6,31.6,0,0,0,3.683-4.469,11.976,11.976,0,0,0,1.788-4.171,11.286,11.286,0,0,0,.081-4.171,5.047,5.047,0,0,0-1.625-2.952,6.807,6.807,0,0,0-3.467-1.463,16.812,16.812,0,0,0-5.5.244A25.936,25.936,0,0,0,22.96,9,23.32,23.32,0,0,0,18.3,11.659a19.059,19.059,0,0,0-3.629,3.494,11.478,11.478,0,0,0-2.14,4.171,1.79,1.79,0,0,0,1.029,1.083,3.369,3.369,0,0,0,1.842.162,5.4,5.4,0,0,0,2.3-1.219,9.7,9.7,0,0,0,2.356-3.711l2.383-5.85a16.135,16.135,0,0,1,2.546-.758q3.575-.7,5.01,1.435t0.623,6.256A19.57,19.57,0,0,1,29.19,21a28.018,28.018,0,0,1-2.41,4.09A48.157,48.157,0,0,1,23.2,29.534q-2.113,2.356-4.875,5.281-2.547,2.709-5.308,5.606T7.279,46.3L6.467,50.577l27.354-5.254,1.192-5.85L10.638,44.24q3.033-2.816,5.308-4.713t3.846-3.25Q24.287,32.54,27.673,29.642Zm36.969,1.706L69.571,6.486,63.938,7.569,40.863,36.711,40.05,40.719l16.467-3.087L54.458,47.706l7.15-1.408,2-10.075,6.229-1.246,0.975-4.821ZM61.663,11.9L57.492,32.756,42.921,35.519ZM72.333,59.027l27.3-55.683L95.679,4.1l-27.3,55.683ZM97.738,40.1a12.564,12.564,0,0,0,1.842,5.85,6.932,6.932,0,0,0,3.792,2.844,10.665,10.665,0,0,0,5.146.162,17.5,17.5,0,0,0,5.579-2.221,22.175,22.175,0,0,0,5.335-4.577,30.183,30.183,0,0,0,4.469-7.069,43.749,43.749,0,0,0,3.088-9.7,30.894,30.894,0,0,0,.677-9.127,12.48,12.48,0,0,0-1.9-5.8,7.065,7.065,0,0,0-3.846-2.844,10.583,10.583,0,0,0-5.119-.162,17.445,17.445,0,0,0-5.633,2.221,21.313,21.313,0,0,0-5.281,4.577,30.988,30.988,0,0,0-4.388,7.015,43.688,43.688,0,0,0-3.06,9.588A32.276,32.276,0,0,0,97.738,40.1ZM119.025,9a4.461,4.461,0,0,1,1.463,2.844,22.618,22.618,0,0,1,.189,5.769,71.89,71.89,0,0,1-1.381,9.235,91.3,91.3,0,0,1-2.384,9.533,37.232,37.232,0,0,1-2.572,6.338,12.807,12.807,0,0,1-2.763,3.656,6.3,6.3,0,0,1-2.844,1.49,3.127,3.127,0,0,1-2.464-.433,4.219,4.219,0,0,1-1.382-2.817,24.546,24.546,0,0,1-.108-5.823,78.936,78.936,0,0,1,1.409-9.4,92.716,92.716,0,0,1,2.356-9.479,37.989,37.989,0,0,1,2.518-6.283,12.6,12.6,0,0,1,2.682-3.629,6.075,6.075,0,0,1,2.844-1.462A3.045,3.045,0,0,1,119.025,9Zm41.41,1.76a4.545,4.545,0,0,0-1.679-2.437,7.006,7.006,0,0,0-3.439-1.246,17.518,17.518,0,0,0-5.309.325,22.319,22.319,0,0,0-5.443,1.76,20.752,20.752,0,0,0-4.632,2.979,17.934,17.934,0,0,0-3.439,3.9,13.119,13.119,0,0,0-1.869,4.577,8.63,8.63,0,0,0,.785,6.175q1.489,2.547,5.932,3.954a31.96,31.96,0,0,0-8.4,5.661,12.157,12.157,0,0,0-3.521,6.2,7.219,7.219,0,0,0,.054,3.412,4.192,4.192,0,0,0,1.788,2.41,7.954,7.954,0,0,0,3.656,1.11,20.488,20.488,0,0,0,5.66-.433,24.48,24.48,0,0,0,11.673-5.2,15.744,15.744,0,0,0,5.39-8.829,7.416,7.416,0,0,0-1.138-6.121q-1.842-2.437-6.933-3.9a43.138,43.138,0,0,0,4.74-3.006,26.205,26.205,0,0,0,3.223-2.79,12.183,12.183,0,0,0,2-2.681,10.107,10.107,0,0,0,.975-2.573A7.233,7.233,0,0,0,160.435,10.765Zm-7.8,9.317a27.834,27.834,0,0,1-3.114,4.929,20.379,20.379,0,0,1-4.361-1.679,7.7,7.7,0,0,1-2.464-2,4.693,4.693,0,0,1-.948-2.356,8.628,8.628,0,0,1,.135-2.627,9.508,9.508,0,0,1,1.084-2.817,11.528,11.528,0,0,1,1.814-2.356,10.01,10.01,0,0,1,2.3-1.733,8.117,8.117,0,0,1,2.546-.894q2.979-.6,4.144,1.273a7.091,7.091,0,0,1,.515,5.173A21.353,21.353,0,0,1,152.635,20.081Zm-5.66,25.052a9.8,9.8,0,0,1-5.362,2.735q-3.522.7-4.93-1.165T136.2,40.34a17.541,17.541,0,0,1,1.76-4.956,23.053,23.053,0,0,1,3.657-4.794l0.216,0.271a20.732,20.732,0,0,1,4.306,1.517,7.817,7.817,0,0,1,2.6,1.977,5.176,5.176,0,0,1,1.111,2.438,8.294,8.294,0,0,1-.108,2.952A10.37,10.37,0,0,1,146.975,45.134Zm14.246,13.894,27.3-55.683-3.954.758-27.3,55.683Zm44.227-29.385q3.384-2.9,5.715-5.308a31.613,31.613,0,0,0,3.683-4.469,11.972,11.972,0,0,0,1.787-4.171,11.287,11.287,0,0,0,.082-4.171,5.051,5.051,0,0,0-1.625-2.952,6.81,6.81,0,0,0-3.467-1.463,16.812,16.812,0,0,0-5.5.244A25.947,25.947,0,0,0,200.735,9a23.34,23.34,0,0,0-4.658,2.654,19.07,19.07,0,0,0-3.629,3.494,11.48,11.48,0,0,0-2.14,4.171,1.791,1.791,0,0,0,1.03,1.083,3.366,3.366,0,0,0,1.841.162,5.4,5.4,0,0,0,2.3-1.219,9.7,9.7,0,0,0,2.357-3.711l2.383-5.85a16.108,16.108,0,0,1,2.546-.758q3.575-.7,5.01,1.435t0.623,6.256A19.59,19.59,0,0,1,206.965,21a28.1,28.1,0,0,1-2.411,4.09,48.04,48.04,0,0,1-3.575,4.442q-2.112,2.356-4.875,5.281-2.547,2.709-5.308,5.606T185.054,46.3l-0.812,4.279L211.6,45.323l1.192-5.85L188.413,44.24q3.031-2.816,5.308-4.713t3.846-3.25Q202.063,32.54,205.448,29.642Zm32.933,0q3.386-2.9,5.715-5.308a31.613,31.613,0,0,0,3.683-4.469,11.994,11.994,0,0,0,1.788-4.171,11.307,11.307,0,0,0,.081-4.171,5.046,5.046,0,0,0-1.625-2.952,6.807,6.807,0,0,0-3.467-1.463,16.814,16.814,0,0,0-5.5.244A25.919,25.919,0,0,0,233.669,9a23.32,23.32,0,0,0-4.659,2.654,19.07,19.07,0,0,0-3.629,3.494,11.478,11.478,0,0,0-2.139,4.171,1.79,1.79,0,0,0,1.029,1.083,3.37,3.37,0,0,0,1.842.162,5.408,5.408,0,0,0,2.3-1.219,9.7,9.7,0,0,0,2.356-3.711l2.383-5.85a16.17,16.17,0,0,1,2.546-.758q3.575-.7,5.01,1.435t0.623,6.256A19.59,19.59,0,0,1,239.9,21a28,28,0,0,1-2.41,4.09,48.207,48.207,0,0,1-3.575,4.442q-2.114,2.356-4.875,5.281-2.547,2.709-5.309,5.606T217.988,46.3l-0.813,4.279,27.354-5.254,1.192-5.85L221.346,44.24q3.033-2.816,5.308-4.713t3.846-3.25Q235,32.54,238.381,29.642Z"/>
</svg>
