<svg xmlns="http://www.w3.org/2000/svg" width="228" height="60" viewBox="0 0 228 60">
  <defs>
    <style>
      .cls-1 {
        fill: #fff;
        fill-rule: evenodd;
      }
    </style>
  </defs>
  <path id="个影像" class="cls-1" d="M82.85,30.841a85.985,85.985,0,0,0,8.225-6.9,85.662,85.662,0,0,0,6.9-7.375,66.677,66.677,0,0,0,5.3-7.3q2.6,14.15,13.8,18.1a27.01,27.01,0,0,1,2.675-4.4,12.867,12.867,0,0,1,4.125-3.6l0.05-.2a35.776,35.776,0,0,1-12.375-2.875,18.333,18.333,0,0,1-8.275-6.925,20.392,20.392,0,0,0,2.125-.8,3.327,3.327,0,0,0,.875-0.55l-9.55-.8a80.514,80.514,0,0,1-4,7.375,85.963,85.963,0,0,1-5.325,7.75,93.728,93.728,0,0,1-6.475,7.55,74.4,74.4,0,0,1-7.3,6.725A69.249,69.249,0,0,0,82.85,30.841Zm6.625,22.725,1.05-.2a13.86,13.86,0,0,0,2.325-.625q1.174-.425,2.175-0.875a12.313,12.313,0,0,0,1.65-.875,1.755,1.755,0,0,0,.7-0.625l5.6-27.95a5.023,5.023,0,0,0,1.325-.525,1.793,1.793,0,0,0,.575-0.525l-9.15.95Zm67.05-8.7a82,82,0,0,0,13.15-12,6.841,6.841,0,0,0,1.15-.15,1.679,1.679,0,0,0,.65-0.3l-7.3-2.55a85.1,85.1,0,0,1-10.2,13.2,78.167,78.167,0,0,1-11.95,10.2A86.587,86.587,0,0,0,156.525,44.866Zm-15.125.15a9.743,9.743,0,0,1,.125,3.75,3.009,3.009,0,0,0,1.675.4,3.861,3.861,0,0,0,1.65-.475,5.18,5.18,0,0,0,2.225-2.425,3.16,3.16,0,0,0,.2-1.575,2.305,2.305,0,0,0-.85-1.475,5.438,5.438,0,0,0-2.225-1.025,14.162,14.162,0,0,0-3.925-.275A12.75,12.75,0,0,1,141.4,45.016Zm-11.475,5.8a2.311,2.311,0,0,1,.6.8,4.1,4.1,0,0,1,.125,1.575,20.474,20.474,0,0,1-.275,2.075,17.437,17.437,0,0,0,3.5-1.325,7.615,7.615,0,0,0,2.175-1.675,6.77,6.77,0,0,0,1.25-2.1,18.719,18.719,0,0,0,.725-2.55l1.75-8.75,2.7-.5-0.3,1.7,0.7-.1q0.6-.15,1.425-0.4t1.55-.525q0.725-.274,1.3-0.55a1.355,1.355,0,0,0,.625-0.425l1.2-6.2a4.655,4.655,0,0,0,1-.45c0.266-.166.5-0.316,0.7-0.45l-4.35-2.6-3.15,3.1-10.4,2-5.55-1.05-2.4,11.8,0.45-.05a1.46,1.46,0,0,0,.35-0.05,6.5,6.5,0,0,0,.85-0.35,55.942,55.942,0,0,1-2.875,6.225,32.747,32.747,0,0,1-3.675,5.525l0.05,0.1a37.45,37.45,0,0,0,6.225-4.775,47.679,47.679,0,0,0,5.025-5.525,4.825,4.825,0,0,0,1.025-.25,5.7,5.7,0,0,0,.975-0.55l-0.8,4.1a1.885,1.885,0,0,1-.425.875,1.609,1.609,0,0,1-1.025.475,8.638,8.638,0,0,1-1.1.2q-0.75.1-1.35,0.2A2.546,2.546,0,0,1,129.925,50.816Zm12.75-13.15-11.75,2.3,1.1-5.7,11.75-2.3Zm-15.2,5.85q1.6-.75,2.3-1.1a1.507,1.507,0,0,0,.75-0.55l0.25-1.25,3.4-.65-1,4.9Zm26.2-17.5a1.768,1.768,0,0,0,1-.5q-0.551-.4-1.175-0.875t-1.25-.875q-0.625-.4-1.125-0.725t-0.8-.525l-3.7,4.2-7.35,1.45a16.331,16.331,0,0,0,3.425-2.15,2.167,2.167,0,0,0,.825-1.35,0.9,0.9,0,0,0-.25-0.55,2.106,2.106,0,0,0-1-.525,12.806,12.806,0,0,0-2.225-.375q-1.476-.15-3.925-0.15l10.15-1.95-0.4,2,0.65-.1q0.7-.15,1.525-0.4t1.55-.55q0.725-.3,1.275-0.575a1.978,1.978,0,0,0,.65-0.425l2.05-10.4a7.6,7.6,0,0,0,2.1-1.05l-4.7-2.85-3.25,3.35-10.35,2-5.7-1.1-3.3,16.6,0.5-.15a17.147,17.147,0,0,0,1.85-.525q0.95-.325,1.725-0.675a6.947,6.947,0,0,0,1.25-.7,1.353,1.353,0,0,0,.525-0.55l0.35-1.65,2.85-.55a4.343,4.343,0,0,1,.075,1.925,9.977,9.977,0,0,1-.625,2.175,1.828,1.828,0,0,0,.925.525q0.624,0.176,2.325.525l-15.4,3,0.05,0.6Zm-6.2-10.85-11.7,2.25,0.9-4.55,11.7-2.25Zm-0.15.65-0.95,4.65-11.7,2.25,0.95-4.65Zm25.75,3.55-6.85-3.15q-3.7,5.3-7.65,9.975a77.57,77.57,0,0,1-8.45,8.575,111.929,111.929,0,0,0,10.85-6.725,113.118,113.118,0,0,0,10.5-8.325,3.123,3.123,0,0,0,1.6-.35h0Zm1.55-12.425a1.964,1.964,0,0,0,.6-0.225l-6.55-3.05q-3.551,4.9-7.375,9.35a79.364,79.364,0,0,1-8.075,8.15l-0.05.05a97.38,97.38,0,0,0,10.425-6.35,113.964,113.964,0,0,0,10.025-7.85A5.08,5.08,0,0,0,174.625,6.941Zm18.15,39.725-0.1.4a11.989,11.989,0,0,1,2.125.425,3.212,3.212,0,0,1,1.325.725q0.849,1.15.4,3.7a26.978,26.978,0,0,0,4.85-1.325,7.326,7.326,0,0,0,3.05-2.125,10.659,10.659,0,0,0,1.675-2.8,17.821,17.821,0,0,0,1.4-7.675,14.457,14.457,0,0,0-.775-4.175q1.05-.45,1.8-0.725a14.191,14.191,0,0,0,1.7-.775,36.3,36.3,0,0,0,0,4.675,17.221,17.221,0,0,0,.625,3.625,11.644,11.644,0,0,0,1.25,2.85,10.468,10.468,0,0,0,1.875,2.25,16.484,16.484,0,0,1,2.625-3.85,10.949,10.949,0,0,1,3.475-2.55,17.386,17.386,0,0,1-5.8-2.05,8.752,8.752,0,0,1-3.8-5.05q3.05-1.3,5.4-2.5t3.85-2.15a3.073,3.073,0,0,0,1.4-.1l-4.95-2.95q1.8-.7,2.875-1.175a6.351,6.351,0,0,0,1.225-.625l1.5-7.95a4.294,4.294,0,0,0,.95-0.425,6.362,6.362,0,0,1,.55-0.325l-4.55-2.9-3.45,3.4-7.55,1.45q3.249-1.9,5.325-3.325t3.675-2.625a8.614,8.614,0,0,0,1.65-.65l-4.65-3.55-4,3.95-5.25,1q0.95-1.05,1.55-1.75a17.766,17.766,0,0,0,1.15-1.5,8.654,8.654,0,0,0,1.6-.35l-8.1-.6q-1.05,2.15-2.4,4.525t-2.875,4.7q-1.525,2.325-3.2,4.5t-3.275,3.925q0.9-.55,1.925-1.275t2.325-1.725l-1.7,8.55,0.8-.15a11.738,11.738,0,0,0,2.2-.575,15.6,15.6,0,0,0,1.675-.725,7.508,7.508,0,0,0,1.1-.675,1.491,1.491,0,0,0,.475-0.475l0.15-.75,2.15-.4a49.051,49.051,0,0,1-5.925,6.325,48.668,48.668,0,0,1-6.975,5.125l0.05,0.05a64.5,64.5,0,0,0,14.8-8.95l0.3,1a43.575,43.575,0,0,1-3.45,3.75q-1.95,1.9-4.1,3.75a54.851,54.851,0,0,1-4.45,3.45q-2.3,1.6-4.5,2.9a84.889,84.889,0,0,0,8.575-3.95,99.3,99.3,0,0,0,9.425-5.7,93.793,93.793,0,0,1-10.075,9.8,64.563,64.563,0,0,1-10.375,7.1,54.94,54.94,0,0,0,9.45-4h0Zm21.6-24.05-7.85,1.55a48.758,48.758,0,0,0,3.225-4.225,48.83,48.83,0,0,0,2.525-4.225l3.6-.7Zm-7.35-6.5-6.35,1.2-2.3-.35q1.65-1.549,2.9-2.8t2.5-2.6l6.35-1.25q-0.75,1.55-1.525,3.025t-1.575,2.775h0Zm-7.5,2.05,5.8-1.1q-1.1,2.4-2.225,4.325t-2.525,3.875l-2.6.5Zm-5.15,27.55q1.4-.8,2.625-1.575t2.35-1.5q1.125-.724,2.275-1.575a28.16,28.16,0,0,1-.825,2.75,10.744,10.744,0,0,1-.725,1.6,1.746,1.746,0,0,1-.75.65,6.992,6.992,0,0,1-1,.35q-0.75.1-2.55,0.375t-4.45.625Q192.975,46.516,194.375,45.716Zm19.5-20.7,1.55-.25q-2,2.25-4.225,4.425t-4.525,4.275a13.1,13.1,0,0,0-1.775-2.9,12.031,12.031,0,0,0-2.575-2.3q1.1-.949,1.9-1.725t1.65-1.625l8.3-1.6Zm-19.2-14.65a3.224,3.224,0,0,0,.7-0.4l-8.45-.8q-1.4,3.7-3.1,7.45t-3.55,7.375q-1.851,3.626-3.75,6.95t-3.65,6.025q1.4-1.249,2.9-2.65t3.5-3.5l-5.15,25.65,0.95-.1a10.079,10.079,0,0,0,2.05-.625q1-.425,1.825-0.875a14.6,14.6,0,0,0,1.325-.8q0.5-.35.55-0.4l6.15-30.9a5.077,5.077,0,0,0,1.5-.75l-1.85-.35q1.9-2.7,3.55-5.35t3.3-5.6A5.848,5.848,0,0,0,194.675,10.366Z"/>
  <path id="_56" data-name="56" class="cls-1" d="M38.856,13.145l1.192-5.9L17.893,11.52,12.964,29.991l1.029,0.7a24.854,24.854,0,0,1,6.175-2.058q4.116-.813,5.985,1.435T27.047,37.2a17.25,17.25,0,0,1-4.062,8.558,12.91,12.91,0,0,1-7.042,4.117q-0.975.162-1.733,0.217a6.913,6.913,0,0,1-1.679-.108l0.325-5.417q0.108-2.275-.569-2.979a2.249,2.249,0,0,0-2.194-.379,4.661,4.661,0,0,0-2,.867A6.374,6.374,0,0,0,6.41,43.912q-0.488,4.172,2.3,6.013t8.585,0.7A29.54,29.54,0,0,0,23.933,48.6a24.614,24.614,0,0,0,5.606-3.413,20.094,20.094,0,0,0,4.144-4.55,15.462,15.462,0,0,0,2.248-5.552q1.191-5.85-2.167-8.206t-10.4-1a37.468,37.468,0,0,0-3.954,1,35.039,35.039,0,0,0-4.333,1.706l3.088-11.375Zm1.11,30.171a9.178,9.178,0,0,0,2,4.658,7.374,7.374,0,0,0,4.144,2.356,15.32,15.32,0,0,0,6.067-.081,22.8,22.8,0,0,0,6.067-2.112,21.814,21.814,0,0,0,5.01-3.548,19.451,19.451,0,0,0,5.66-10.156,13.935,13.935,0,0,0,.162-4.685,6.76,6.76,0,0,0-1.408-3.331,5.423,5.423,0,0,0-3.006-1.76,10.9,10.9,0,0,0-4.523.027,19.09,19.09,0,0,0-5.092,1.869,27.742,27.742,0,0,0-5.417,3.981,37.22,37.22,0,0,1,8.4-14.056A40.269,40.269,0,0,1,71.9,7.187l-0.054-.542A51.289,51.289,0,0,0,60.5,11.439a48.26,48.26,0,0,0-9.479,7.042,42.322,42.322,0,0,0-6.933,8.585,29.427,29.427,0,0,0-3.765,9.371A19.579,19.579,0,0,0,39.966,43.316Zm9.208-10.887q0.135-.6.352-1.354a14.749,14.749,0,0,1,3.413-2.3,12.877,12.877,0,0,1,3.25-1.056q3.3-.65,4.333,1.787t0,7.475a22.377,22.377,0,0,1-3.277,8.694A8.041,8.041,0,0,1,52.4,49.166q-3.25.65-4.225-3.169t0.7-12.377Q49.039,33.025,49.175,32.429Z"/>
</svg>
