<svg xmlns="http://www.w3.org/2000/svg" width="1088" height="68" viewBox="0 0 1088 68">
  <defs>
    <style>
      .cls-1 {
        fill: #fff;
        fill-rule: evenodd;
      }
    </style>
  </defs>
  <path id="因为关不上的门而突然落泪_只有自己知道为什么" data-name="因为关不上的门而突然落泪 只有自己知道为什么" class="cls-1" d="M29.88,27.669H17.771l1.758,1.758a17.765,17.765,0,0,1,4.688-.586H29.88q-0.394,7.425-3.516,12.012a24.119,24.119,0,0,1-8.4,7.52l0.391,0.586a24.045,24.045,0,0,0,9.18-6.055,19.552,19.552,0,0,0,4.492-8.4q5.859,6.056,7.422,9.766Q40.622,47.2,41.4,47.2a1.873,1.873,0,0,0,1.074-.879,3.789,3.789,0,0,0,.488-2.734q-0.2-1.854-2.637-4.2a52.127,52.127,0,0,0-8.105-5.859q0.192-2.147.391-4.687H45.7L41.99,25.13l-2.539,2.539H32.615V21.224l1.758-1.562-4.687-2.149q0.192,3.127.2,5.469v4.688ZM12.888,20.443V48.958q0,3.516-.2,7.422l2.93-1.172V52.864H47.654v3.32l2.93-1.367c-0.131-2.216-.2-4.23-0.2-6.055V16.341l1.367-1.172-2.93-2.539-1.562,1.953H15.622l-2.93-1.758q0.192,4.687.2,7.617h0Zm34.766-4.687V51.693H15.622V15.755H47.654Zm18.359-1.172A28.051,28.051,0,0,1,70.9,21.81q0.586,1.955,1.367,1.953a2.183,2.183,0,0,0,1.172-.976,3.314,3.314,0,0,0,.391-2.832Q73.432,18.1,66.6,14ZM79.49,26.3H61.326l1.758,1.758a17.765,17.765,0,0,1,4.687-.586H79.294a39.775,39.775,0,0,1-7.227,16.7,49.324,49.324,0,0,1-12.7,12.012l0.391,0.586A41.387,41.387,0,0,0,73.24,46.81q6.637-7.031,9.18-19.336H99.607q-1.758,20.508-2.734,22.461a3.458,3.458,0,0,1-3.125,2.051,58,58,0,0,1-8.789-.879v0.977q6.834,1.364,8.008,4.688a11.666,11.666,0,0,0,4.883-2.539,9.159,9.159,0,0,0,2.637-5.176q0.681-3.415,2.05-21l1.758-1.562-3.515-2.734L99.216,26.3h-16.6q0.778-5.662,1.367-11.328l1.953-1.367-5.273-2.539A90.551,90.551,0,0,1,79.49,26.3h0Zm3.125,7.813q6.248,5.081,8.2,8.2,1.364,2.152,1.953,2.148a1.255,1.255,0,0,0,.781-0.977,5.233,5.233,0,0,0,.391-1.953,4.91,4.91,0,0,0-.977-2.637q-0.979-1.465-9.961-5.566Zm42.773-14.648q0.975,2.737,1.758,2.734a2.927,2.927,0,0,0,.879-1.172,4.345,4.345,0,0,0,.683-2.149q0-1.561-1.953-3.32a32.409,32.409,0,0,0-5.859-3.906l-0.391.586a21.591,21.591,0,0,1,4.883,7.227h0Zm26.953,5.273-3.906-3.906L145.7,23.568H135.544q2.537-3.122,5.86-8.2l2.343-.977-4.687-3.125a56.525,56.525,0,0,1-1.953,5.957,44.823,44.823,0,0,1-2.93,6.348h-22.07l1.758,1.758a17.757,17.757,0,0,1,4.687-.586h11.524q0,6.253-.391,10.547H109.568l1.758,1.758a17.757,17.757,0,0,1,4.687-.586H129.49a27.49,27.49,0,0,1-5.664,10.254q-4.3,5.177-14.258,9.473l0.2,0.781A40.343,40.343,0,0,0,124.9,48.861a24,24,0,0,0,7.519-12.4h1.563q2.147,8.011,6.543,12.6a36.91,36.91,0,0,0,9.668,7.324,4.717,4.717,0,0,1,4.3-2.539V53.255q-8.6-2.344-13.086-7.031a26.946,26.946,0,0,1-6.25-9.766H154.49l-4.1-4.1-2.93,2.93H132.615q0.388-5.466.586-10.547h19.14Zm32.617,1.172-3.32-1.953q2.146-4.491,3.906-7.812H204.1l-4.1-4.1-2.929,2.93h-37.11l1.758,1.758a17.765,17.765,0,0,1,4.688-.586h15.234a59.169,59.169,0,0,1-9.668,16.7,69.859,69.859,0,0,1-12.4,11.816l0.39,0.781A59.605,59.605,0,0,0,180.271,26.3V43.489q0,5.47-.195,12.891l3.32-1.367q-0.2-3.126-.195-8.984V27.279Zm14.063,14.453q1.56,3.127,2.344,3.125a1.724,1.724,0,0,0,.976-1.074,4.014,4.014,0,0,0,.586-1.855,6.377,6.377,0,0,0-1.269-3.125q-1.273-1.95-13.77-10.156l-0.586.586q9.375,8.4,11.719,12.5h0Zm29.3-21.289V51.888H209.177l1.758,1.758a17.759,17.759,0,0,1,4.687-.586h39.063l-4.3-4.3-3.125,3.125H231.247V29.818H249.8l-4.1-4.1-2.93,2.93H231.247V15.56L233.4,14l-5.274-2.344q0.193,3.909.2,7.422h0Zm47.461,3.516v12.5H265.622v-12.5h10.157Zm0,13.672V49.935H265.622V36.263h10.157ZM280.271,22.4l-2.93-2.93-1.953,1.953h-6.445q3.318-6.834,5.273-7.812l-4.3-2.344a49.154,49.154,0,0,1-2.148,10.156h-1.953l-2.93-1.758q0.192,8.986.2,18.066t-0.2,18.262l2.734-1.562v-3.32h10.157v4.1l2.734-1.562q-0.2-7.031-.195-29.883Zm4.687-1.172A64.726,64.726,0,0,1,278.9,32.357l0.586,0.391a52.878,52.878,0,0,0,7.421-9.57H298.24q-0.395,21.877-.879,25.2t-2.637,3.32a40.743,40.743,0,0,1-7.031-.977v0.977q5.466,1.561,6.445,4.688a11.906,11.906,0,0,0,4-2.148,8.16,8.16,0,0,0,1.953-4.2q0.683-3.026,1.074-25.879l1.758-1.367L300,19.857l-2.148,2.148H287.3q3.319-7.031,4.883-8.008l-4.3-2.539A55.943,55.943,0,0,1,284.958,21.224Zm-0.976,9.961A19.2,19.2,0,0,1,287.5,38.8q0.39,2.737,1.172,2.734a2.182,2.182,0,0,0,1.172-.977,3.642,3.642,0,0,0,.781-2.344,6.712,6.712,0,0,0-.781-2.441q-0.783-1.657-5.469-5.176Zm33.984-19.141q3.516,4.3,4.3,7.227,0.389,1.955,1.172,1.953a2.3,2.3,0,0,0,1.172-1.172,4.214,4.214,0,0,0,.781-2.344,4.61,4.61,0,0,0-.586-1.953q-0.587-1.172-6.445-4.1Zm-0.195,42.773q-0.2-2.344-.195-5.664V23.568l1.562-1.367-4.687-2.344q0.192,5.081.195,19.043t-0.195,17.285Zm13.476-36.133a17.771,17.771,0,0,1,4.688-.586h10.742V48.958q0,2.541-2.148,2.344t-6.055-.586V51.5q6.249,1.364,6.445,4.688,5.077-1.566,4.688-6.25V18.88l1.562-1.367-3.515-2.539-1.368,1.953h-16.8ZM389.06,52.279q4.688,1.561,5.664,4.1a9.641,9.641,0,0,0,3.32-2.148,5.422,5.422,0,0,0,.782-3.32V28.255l2.148-1.367-3.516-2.93L395.9,25.911H378.122a93.615,93.615,0,0,1,5.664-8.984h20.508l-3.906-3.906-3.125,2.734H358.982l1.758,1.758a17.757,17.757,0,0,1,4.687-.586h14.258l-2.539,8.984H367.38l-2.929-1.758q0.192,3.516.195,13.477t-0.195,18.164l2.929-1.953V27.083H375V53.646l2.539-1.172V27.083h7.618V53.255l2.539-.977v-25.2h8.4V49.935a1.993,1.993,0,0,1-.781,1.953q-0.783.389-6.25-.391v0.781Zm57.812-27.344q3.516-4.491,6.446-4.687L449.8,16.732l-1.562,1.953H433.005a3.812,3.812,0,0,0,1.367-2.539,3.135,3.135,0,0,0-.879-1.66q-0.877-1.071-5.175-2.637l-0.391.586a9.356,9.356,0,0,1,3.32,6.25h-15.82l-0.195-2.148h-0.781a15.928,15.928,0,0,1-1.465,4.688,19.22,19.22,0,0,1-1.66,2.539,1.121,1.121,0,0,0-.391.781c0,0.262.519,0.488,1.562,0.684a2.185,2.185,0,0,0,2.442-1.172,6.427,6.427,0,0,0,.488-4.2h33.008l-2.149,4.688Zm-27.246,1.172a44.86,44.86,0,0,1-7.519,4.492l0.195,0.586a45.148,45.148,0,0,0,9.961-4.492q4.688-2.733,6.25-2.93l-3.32-3.125A26.219,26.219,0,0,1,419.626,26.107Zm15.332-4.3a62.874,62.874,0,0,1,6.836,3.711,29.364,29.364,0,0,1,4.883,3.906,2.66,2.66,0,0,0,1.563.977q0.585,0,.878-1.66t-1.953-3.125q-2.247-1.465-12.011-4.59ZM413.279,37.825a14.4,14.4,0,0,1,3.711-.586h11.523a22.169,22.169,0,0,1-5.176,9.863q-3.808,4.2-12.793,8.5l0.391,0.586q8.788-2.541,13.574-6.738t6.934-12.207h0.976a23.966,23.966,0,0,0,6.446,11.231,48.954,48.954,0,0,0,9.765,7.52q0.975-2.344,4.3-2.539V52.669a33.382,33.382,0,0,1-8.887-3.711,29.128,29.128,0,0,1-6.445-5.273,24.358,24.358,0,0,1-4.2-6.445h19.531l-3.711-3.906-2.734,2.734H431.638q0.389-3.122.586-7.227l1.562-1.172-4.492-2.148a65.75,65.75,0,0,1-.586,10.547H411.521Zm23.047-8.789a15.778,15.778,0,0,1,4.687,4.687c0.519,1.044.977,1.563,1.367,1.563a2.2,2.2,0,0,0,.781-0.977,3.331,3.331,0,0,0,.586-1.562,2.885,2.885,0,0,0-.781-1.562q-0.783-.975-6.25-2.734Zm59.96-8.4c0.391,1.434.846,2.149,1.368,2.149a2.05,2.05,0,0,0,1.074-1.172,4.334,4.334,0,0,0,.683-2.148,3.149,3.149,0,0,0-.976-2.051,27.912,27.912,0,0,0-5.469-3.613l-0.39.586a17.682,17.682,0,0,1,3.71,6.25h0Zm-30.664,1.953a40.871,40.871,0,0,1-6.64,10.938l0.586,0.391a28.031,28.031,0,0,0,5.078-5.273,16.689,16.689,0,0,1,2.93,5.273c0.259,1.044.585,1.563,0.976,1.563a1.9,1.9,0,0,0,1.074-.977,3.388,3.388,0,0,0,.684-1.953,2.6,2.6,0,0,0-.781-1.66,23.9,23.9,0,0,0-4.3-3.027q0.975-1.561,2.148-3.516a21.923,21.923,0,0,1,4.3,4.688,1.807,1.807,0,0,0,.977,1.172,1.349,1.349,0,0,0,.781-1.074,5.4,5.4,0,0,0,.391-1.465,2.457,2.457,0,0,0-1.075-1.855,19.58,19.58,0,0,0-4.98-2.246,15.973,15.973,0,0,1,1.367-2.344h8.4q-2.151,9.769-6.347,15.332a36.2,36.2,0,0,1-11.621,9.668l0.195,0.586q8.789-3.516,13.379-8.984t7.324-16.016l1.563-1.367L478.708,17.9l-1.367,2.148h-7.617a56.794,56.794,0,0,1,2.539-5.469l1.367-.977-4.3-2.344A59.9,59.9,0,0,1,465.622,22.591Zm14.454,2.734,1.757,1.758a17.766,17.766,0,0,1,4.688-.586h0.39Q486.13,33.922,483.3,37.63a27.261,27.261,0,0,1-8.3,6.836l0.391,0.586q7.224-3.122,10.352-7.031T489.646,26.5h0.781A30.569,30.569,0,0,0,499.8,44.075q0.975-1.758,4.492-2.148V41.146Q495.309,38.8,491.4,26.5h11.523l-3.516-3.711-2.539,2.539h-7.031q0-5.273.195-10.547l1.368-1.367-4.3-1.953q0.192,4.884,0,13.867h-7.031Zm-15.137,25.1A18.528,18.528,0,0,1,462.5,53.45q-1.368,1.172-.781,1.953c0.391,0.519,1.2.684,2.442,0.488s2.179-1.141,2.832-2.832a18.061,18.061,0,0,0,.781-7.031l-0.781-.2A20.78,20.78,0,0,1,464.939,50.423Zm21.972,3.418c0.129,1.3.455,1.953,0.977,1.953a2.909,2.909,0,0,0,1.367-1.074,3.323,3.323,0,0,0,.977-2.246,5.228,5.228,0,0,0-.977-2.344,20.546,20.546,0,0,0-4.492-4.3l-0.586.391a23.684,23.684,0,0,1,2.734,7.617h0Zm11.524-.391q0.587,2.344,1.367,2.344a2.2,2.2,0,0,0,1.172-.977,3.653,3.653,0,0,0,.781-2.344,4.58,4.58,0,0,0-.879-2.344q-0.879-1.364-6.152-4.687l-0.391.586a21.4,21.4,0,0,1,4.1,7.422h0Zm-22.656,0c0.128,1.691.454,2.539,0.976,2.539a3.029,3.029,0,0,0,1.367-.781,2.827,2.827,0,0,0,.977-2.344,8.4,8.4,0,0,0-.391-2.148q-0.393-1.364-4.3-5.078l-0.585.391a21.053,21.053,0,0,1,1.953,7.422h0Zm33.4-36.133,1.758,1.758a16.248,16.248,0,0,1,4.3-.586h7.812v4.492l2.539-1.367V18.489h10.743V22.4l2.539-1.172V18.489H554.49l-4.1-4.1-3.516,2.93h-8.007v-2.93l1.562-1.367-4.3-1.758q0.192,3.127.2,6.055H525.583V14.779l1.758-1.172-4.492-2.148q0.192,2.93.195,5.859H509.177Zm5.566,30.469a19.081,19.081,0,0,1-.683,3.906q-0.586,2.147.781,2.93a5.324,5.324,0,0,0,1.758.781q1.171,0,.977-2.148a46.23,46.23,0,0,1,0-6.055q0.192-2.733,7.031-21.289l-0.781-.2q-6.057,14.063-7.422,16.309t-2.637,2.246a31.289,31.289,0,0,1-4-.391v0.586Q514.839,46.032,514.743,47.786ZM509.177,30.4a27.985,27.985,0,0,1,4.1,5.273q0.585,1.369,1.172,1.367a1.916,1.916,0,0,0,.683-0.977,3.8,3.8,0,0,0,.488-1.562,2.8,2.8,0,0,0-1.171-2.148,18.856,18.856,0,0,0-4.883-2.344Zm3.906-8.2a18.972,18.972,0,0,1,3.907,5.078c0.259,0.912.586,1.367,0.976,1.367a1.649,1.649,0,0,0,.977-0.977,3.343,3.343,0,0,0,.586-1.562,3.544,3.544,0,0,0-.684-1.66q-0.687-1.071-5.371-2.832Zm30.274,22.07v8.2h-12.3v-8.2h12.3Zm3.906-.391-2.93-2.344L542.966,43.1H531.443l-1.563-.977a47.932,47.932,0,0,0,8.008-5.664,43.4,43.4,0,0,0,13.281,7.813q0.39-1.95,3.321-2.734V40.95a28.148,28.148,0,0,1-15.039-5.859,90.183,90.183,0,0,0,5.664-7.031l1.757-.976-2.929-2.93-1.563,1.953h-9.765q0.585-.975,1.367-2.344l1.758-.781-3.711-2.539a47.023,47.023,0,0,1-3.516,8.887,51.725,51.725,0,0,1-4.687,7.129l0.39,0.391a36.265,36.265,0,0,0,7.813-9.57,29.444,29.444,0,0,0,4.1,7.617A36.365,36.365,0,0,1,520.7,44.661l0.195,0.586a54.643,54.643,0,0,0,7.617-2.344q0,9.375-.2,13.867l2.734-.977V53.646h12.3V56.38l2.734-.977q-0.2-2.738-.2-10.547Zm-4.883-16.6a30.6,30.6,0,0,1-4.687,6.445,22.788,22.788,0,0,1-4.883-6.445h9.57ZM598.435,39V49.935H580.271V39h18.164Zm2.734-21.484,1.367-1.367-3.125-2.539-1.367,2.148H580.466L577.341,14q0.192,2.93.195,8.984V46.81q0,4.688-.195,8.789l2.93-.977V51.107h18.164v3.906l2.93-1.172q-0.2-2.344-.2-8.984V17.513Zm-2.734-.586V26.3H580.271V16.927h18.164Zm0,10.547V37.825H580.271V27.474h18.164Zm-23.633-8.2q-6.838,19.144-7.715,20.8a3.151,3.151,0,0,1-1.855,1.856,23.65,23.65,0,0,1-4.492,0v0.781a11.224,11.224,0,0,1,3.906,1.465,2.348,2.348,0,0,1,.781,1.855,11.509,11.509,0,0,1-.586,3.125,9.867,9.867,0,0,0-.39,2.734,1.97,1.97,0,0,0,1.269,2.051,6,6,0,0,0,1.856.488c0.518,0,.781-0.391.781-1.172V48.568a23.986,23.986,0,0,1,.293-5.957q0.484-2.44,6.933-22.949Zm-15.234,4.492a24.868,24.868,0,0,1,4.3,6.445q0.585,1.758,1.171,1.758a2.175,2.175,0,0,0,1.172-.879,3.735,3.735,0,0,0,.684-2.734q-0.1-1.854-6.934-5.176Zm5.273-10.742a24.039,24.039,0,0,1,4.1,6.25q0.585,1.758.976,1.758a2.044,2.044,0,0,0,1.074-1.172,4.136,4.136,0,0,0,.684-1.953,4.49,4.49,0,0,0-.586-1.758q-0.585-1.172-5.859-3.711Zm80.86,33.3a57.478,57.478,0,0,1-8.985,9.473l0.391,0.586q6.248-3.126,16.015-14.844l1.954-.781-4.1-3.125A49.1,49.1,0,0,1,645.7,46.321ZM667.966,47.2a48.372,48.372,0,0,1,3.906,6.641q0.587,1.561,1.172,1.563,0.39,0,.977-1.562a7.663,7.663,0,0,0,.586-2.539q0-2.733-3.906-6.152a80.472,80.472,0,0,0-9.375-6.934l-0.391.586A68.77,68.77,0,0,1,667.966,47.2Zm-0.2-31.445V33.529h-20.9V15.755h20.9Zm2.734,0.586,1.563-1.563-3.321-2.344-1.367,2.149H647.068l-3.125-1.953q0.192,5.47.2,12.891T643.747,38.8l3.125-1.172V34.7h20.9v3.125l2.93-1.172q-0.2-3.9-.2-6.836V16.341Zm46.68,12.109v6.836H699.216V28.45h17.969Zm0,8.008V42.9H699.216V36.458h17.969Zm-6.836,16.6q5.466,1.561,5.273,3.906,4.295-1.566,4.3-4.687V29.232l1.758-1.367-3.32-2.539-1.563,1.953H700a59.441,59.441,0,0,0,4.493-7.031h24.8L724.8,15.755l-3.32,3.32h-16.6q0.975-1.758,2.344-4.492l1.953-.781-4.883-2.734a38.759,38.759,0,0,1-2.734,8.008H683.982l1.758,1.758a17.753,17.753,0,0,1,4.687-.586h10.742a60.989,60.989,0,0,1-7.715,11.621,69.4,69.4,0,0,1-9.472,8.887l0.586,0.586a55.965,55.965,0,0,0,11.914-9.766q0,22.073-.2,25.391l2.93-1.758V44.075h17.969v6.836a1.554,1.554,0,0,1-1.758,1.758,31.642,31.642,0,0,1-5.078-.586V53.06Zm61.133-30.469,1.953-1.562-3.711-2.734-1.563,2.344h-15.82a38.319,38.319,0,0,1,2.637-3.809,12.416,12.416,0,0,1,3.613-3.418L753.9,11.263a40.732,40.732,0,0,1-2.93,9.375h-5.859L741.99,18.88q0.192,3.127.195,18.945T741.99,56.966l3.125-.977V52.864h23.437v4.1l3.125-1.172a39.042,39.042,0,0,1-.2-3.906v-29.3Zm-2.93-.781V30.4H745.115V21.81h23.437Zm0,9.766v9.766H745.115V31.575h23.437Zm0,10.938v9.18H745.115v-9.18h23.437ZM795.115,53.45h27.929a21.716,21.716,0,0,0,2.93-.293q1.95-.293,3.32-3.223-3.126-.975-3.32-9.766H825a50.063,50.063,0,0,1-.488,8.5q-0.489,2.444-2.441,2.246H796.677q-3.126,0-3.125-2.93V31.38h25v3.125l3.125-1.367q-0.393-3.122-.391-14.844l1.758-1.367-3.32-2.734-1.758,2.149h-29.1l1.757,1.758a17.77,17.77,0,0,1,4.688-.586h23.242v12.7h-25l-2.93-1.758q0.193,4.3.2,19.141-0.395,6.056,4.3,5.859h0Zm82.812-31.445L875,19.466l-1.562,2.148h-9.766l-2.734-1.953q0.192,3.323.2,17.187t-0.2,17.383l2.734-1.172V47.982h10.157v6.055l2.734-1.172q-0.2-5.273-.195-29.492Zm-4.1.781V46.81H863.669V22.786h10.157Zm-33.106-1.66a47.977,47.977,0,0,1-4.59,10.254l0.586,0.391a36.351,36.351,0,0,0,5.664-8.594h3.906V34.114H834.763l1.758,1.758a17.763,17.763,0,0,1,4.687-.586h5.078a26.773,26.773,0,0,1-3.418,11.621,28.468,28.468,0,0,1-8.105,9.082l0.391,0.586a25.951,25.951,0,0,0,7.714-5.957A26.855,26.855,0,0,0,848.24,40.56a30.933,30.933,0,0,1,4.98,5.762,41.6,41.6,0,0,1,2.637,4.785c0.259,0.781.586,1.172,0.976,1.172a2.576,2.576,0,0,0,.782-1.172,4.863,4.863,0,0,0,.586-2.148,5.389,5.389,0,0,0-.977-2.734q-0.98-1.561-8.789-6.641a26.451,26.451,0,0,0,.391-4.3h10.937l-3.32-3.906-2.735,2.734h-4.687V23.177h8.984l-3.32-3.711-2.734,2.539h-9.18q1.172-2.93,2.734-7.226L847.068,14l-4.1-2.148A50.285,50.285,0,0,1,840.72,21.126ZM906.443,17.9q0.389,1.955,1.172,1.953a2.89,2.89,0,0,0,.976-0.586,2.424,2.424,0,0,0,.879-1.856q0.1-1.268-1.562-2.734a19.379,19.379,0,0,0-4.59-2.832l-0.391.586a14.821,14.821,0,0,1,3.516,5.469h0Zm13.672,9.766v4.688H905.466V27.669h14.649Zm0,5.859V38.8H905.466V33.529h14.649Zm0,6.445v4.883H905.466V39.974h14.649ZM905.661,26.5l-2.929-1.562q0.192,6.056.2,11.816t-0.2,12.6l2.734-1.172V46.029h14.649v2.734l2.734-1.172q-0.2-4.687-.2-10.156V28.646l1.953-1.367-2.735-2.734L919.919,26.5h-8.984l2.539-4.687H929.1L925.583,18.1l-2.539,2.539h-7.422a38.107,38.107,0,0,1,4-4.687,10.919,10.919,0,0,1,3.028-2.148l-3.907-2.734a53.282,53.282,0,0,1-4.492,9.57H897.068l1.758,1.758a17.753,17.753,0,0,1,4.687-.586h6.836L909.763,26.5h-4.1Zm-14.257-8.2q0.585,2.344,1.562,2.344a2.384,2.384,0,0,0,1.074-.391,2.3,2.3,0,0,0,.782-1.953,3.932,3.932,0,0,0-1.368-3.027,19.855,19.855,0,0,0-4.98-3.223l-0.391.586a15.335,15.335,0,0,1,3.321,5.664h0Zm2.734,11.523,1.953-1.367-2.734-2.734-2.149,2.148h-7.617l1.758,1.758a17.763,17.763,0,0,1,4.687-.586H891.6V45.247q-4.1,2.541-7.422,4.492l2.539,2.734a18.289,18.289,0,0,1,2.93-3.613q2.343-2.44,3.027-2.539t3.223,2.637a14.019,14.019,0,0,0,5.566,4,36,36,0,0,0,9.278,1.855,133.992,133.992,0,0,0,15.234.391q0.388-2.344,3.516-2.93V51.5q-9.573.783-15.235,0.781-2.929,0-7.715-.488a17.514,17.514,0,0,1-7.812-2.441,18.975,18.975,0,0,1-4.59-3.906V29.818Zm46.875-15.234A28.045,28.045,0,0,1,945.9,21.81q0.585,1.955,1.367,1.953a2.185,2.185,0,0,0,1.172-.976,3.315,3.315,0,0,0,.391-2.832Q948.431,18.1,941.6,14ZM954.49,26.3H936.326l1.757,1.758a17.771,17.771,0,0,1,4.688-.586h11.523a39.773,39.773,0,0,1-7.226,16.7,49.325,49.325,0,0,1-12.7,12.012l0.391,0.586A41.4,41.4,0,0,0,948.24,46.81q6.637-7.031,9.179-19.336h17.188q-1.758,20.508-2.735,22.461a3.457,3.457,0,0,1-3.125,2.051,58,58,0,0,1-8.789-.879v0.977q6.836,1.364,8.008,4.688a11.667,11.667,0,0,0,4.883-2.539,9.159,9.159,0,0,0,2.637-5.176q0.681-3.415,2.05-21l1.758-1.562-3.515-2.734L974.216,26.3h-16.6q0.777-5.662,1.367-11.328l1.953-1.367-5.274-2.539A90.577,90.577,0,0,1,954.49,26.3h0Zm3.125,7.813q6.247,5.081,8.2,8.2,1.363,2.152,1.953,2.148a1.255,1.255,0,0,0,.781-0.977,5.241,5.241,0,0,0,.391-1.953,4.912,4.912,0,0,0-.977-2.637q-0.98-1.465-9.961-5.566Zm54.295-5.469H997.458l1.758,1.758a17.768,17.768,0,0,1,4.684-.586h8.01V48.763c0,1.434-.07,4.166-0.19,8.2l3.12-1.172c-0.13-1.825-.19-3.452-0.19-4.883V29.818h15.03l-3.9-3.906-2.74,2.734h-8.39V14.974l1.75-1.367-4.68-2.344c0.12,2.084.19,4.169,0.19,6.25V28.646ZM995.7,27.864l1.562-1.172-2.93-1.758q1.365-2.93,4.688-9.961l1.559-1.172-4.489-2.734a93.958,93.958,0,0,1-5.762,16.309,69.266,69.266,0,0,1-6.543,11.231l0.586,0.586a56.736,56.736,0,0,0,8.594-11.719V51.693q0,1.95-.2,5.469L995.9,55.6q-0.2-4.5-.195-7.617V27.864Zm64.839-12.3-4.29-3.711a53.558,53.558,0,0,1-7.82,13.184,75.625,75.625,0,0,1-13.67,13.184L1035.15,39a67.1,67.1,0,0,0,22.86-22.461Zm-6.44,25.879a119.512,119.512,0,0,0,11.13-13.574l2.15-.977-4.1-3.32a56.847,56.847,0,0,1-11.72,17.871q-7.23,7.324-9.77,7.324l2.74,4.688q2.145-2.536,25.58-4.883,1.185,2.737,1.96,4.883c0.39,0.91.71,1.367,0.97,1.367a2.526,2.526,0,0,0,1.27-1.074,4.011,4.011,0,0,0,.88-2.637,10.3,10.3,0,0,0-.58-2.832q-0.585-1.854-11.14-10.645l-0.58.586a63.815,63.815,0,0,1,6.64,9.375q-17.775.979-23.44,1.172A73.592,73.592,0,0,0,1054.1,41.439Z"/>
</svg>
