<svg xmlns="http://www.w3.org/2000/svg" width="1288" height="68" viewBox="0 0 1288 68">
  <defs>
    <style>
      .cls-1 {
        fill: #fff;
        fill-rule: evenodd;
      }
    </style>
  </defs>
  <path id="_如果看到这个那就说明站长上班又偷懒_在写了在写了_" data-name="[如果看到这个那就说明站长上班又偷懒(在写了在写了)]" class="cls-1" d="M51.243,55.523H45.456V15.875h5.786V12.481H41.257V58.892h9.985V55.523Zm28.345-.513H83.4v-4.2H95.017V54.62h3.809V14.581H79.587V55.01ZM69.407,43Q73.655,35.845,75.1,22.54V18.926H64.3q0.928-4.541,1.758-9.521l-4.1-.586Q61.2,14,60.227,18.926H53.464v3.711H59.47q-1.563,7.349-3.613,14.111,4.028,3.2,8.374,6.934A39.125,39.125,0,0,1,53.269,53.3q1.367,1.9,2.344,3.467A44.136,44.136,0,0,0,67.161,46.246q3.564,3.149,7.3,6.616l3.027-3.223Q73.24,46.1,69.407,43h0Zm25.61,4.3H83.4v-29.1H95.017V47.3ZM66.355,40.533q-3.3-2.661-6.25-5Q61.936,29.62,63.5,22.637h7.739q-1.025,11.182-4.883,17.9h0Zm66.406-.073h18.311V36.944H129.49V31.671h12.939v1.9h3.711V11.114H109.128V33.575h3.711v-1.9h12.94v5.273H104.294V40.46h17.652A54.356,54.356,0,0,1,103.22,51.885a31.186,31.186,0,0,1,2.93,3.125q12.768-6.055,19.629-13.989V56.866h3.711V41.07a40.253,40.253,0,0,0,19.58,13.306,42.559,42.559,0,0,1,3.076-3.662Q139.89,48,132.761,40.46h0Zm-3.271-17.48h12.939V28.35H129.49V22.979Zm12.939-3.174H129.49V14.434h12.939v5.371Zm-29.59,3.174h12.94V28.35h-12.94V22.979Zm0-8.545h12.94v5.371h-12.94V14.434ZM154.1,28.5h12.817a59.938,59.938,0,0,1-13.7,13.574q1.367,1.807,2.344,3.32a83.277,83.277,0,0,0,8.545-7.861V56.671h3.515v-1.9h24.463v1.9H195.6V32.159H168.65q1.391-1.806,2.612-3.662h30.4V25.372H173.215q1.124-1.977,2.1-4h22.632V18.243H176.706q0.806-2,1.465-4.028,9.717-.366,19.971-0.854l-0.586-3.32q-17.774,1.123-41.064,1.465,0.39,1.758.683,3.32,8.227-.171,16.895-0.464-0.636,1.978-1.441,3.882H157.322v3.125h13.891a43.883,43.883,0,0,1-2.221,4H154.1V28.5Zm13.525,19.678h24.463v3.467H167.624V48.174ZM192.087,38.7H167.624V35.284h24.463V38.7Zm-24.463,3.027h24.463v3.418H167.624V41.729Zm54-21.973q1.758,2.661,3.369,5.469-7.2.757-14.16,1.27a129.247,129.247,0,0,0,7.373-11.231h14.307V11.651H204.49v3.613H213.6a66.365,66.365,0,0,1-3.686,6.348,13.074,13.074,0,0,1-4.883,4.834l1.758,4.053q9.447-.976,19.97-2,0.9,1.758,1.758,3.565,1.9-1.074,3.76-1.953-3.418-6.25-7.324-12.012Zm-16.8,20.606h11.475V49.42q-6.714.806-12.939,1.44l1.123,4.1q13.964-2.051,27.783-3.76-0.2-2.1-.2-3.809-6.1.83-11.865,1.563V40.362h11.182V36.749H220.212V30.694h-3.906v6.055H204.831v3.613Zm40.918,8.545q0,3.223-3.076,3.174-2.343,0-6.64-.391,0.44,2.392.732,4.395,5.127,0.049,7.129.049,5.909,0,5.908-6.1V8.721h-4.053V48.907ZM235.154,45.1h3.955v-31.1h-3.955V45.1ZM263.23,46.88V26.055h-9.57v3.613h5.81V46.1q-1.929,1.807-6.25,5.981l2,4.053a73.348,73.348,0,0,1,5.859-6.543q3.466,5.517,11.67,5.664l11.963,0.2h15.772q0.829-2.247,1.367-3.858l-15.918.488-12.744-.293q-6.958-.122-9.961-4.907h0Zm18.677-10.913a47.687,47.687,0,0,1-15.21,9.814q1.464,1.856,2.392,3.272A49.337,49.337,0,0,0,284.812,38.58q5,4.468,11.279,10.181l3.027-3.272q-6.348-5.42-11.621-9.863a54.469,54.469,0,0,0,8.252-13.379l-3.711-1.758a44.486,44.486,0,0,1-7.5,12.671q-6.933-5.81-11.792-9.692l-2.343,2.539q4.32,3.589,11.5,9.961h0ZM267.673,19.805h33.008V16.387H267.673v3.418ZM256.2,11.749q2.538,3.369,6.494,9.57l3.467-2.441q-4.347-6.2-6.836-9.229Zm26.709,4.492,3.515-1.807q-2.051-3.711-3.564-6.006l-3.369,1.66q1.562,2.54,3.418,6.152h0Zm42.48,40.625h4.443V26.641h-4.443V56.866Zm0.537-47.022q-7.422,12.549-22.656,21,1.416,2.1,2.49,3.857,14.7-8.789,21.924-20.068,7.373,11.865,21.728,19.385,1.074-2,2.588-4.395a44.289,44.289,0,0,1-21.972-18.652l0.732-1.123h-4.834ZM354.05,38.7h6.641q-1.441,9.814-7.276,15.039a36.089,36.089,0,0,1,2.539,3.272q7.008-6.519,8.5-18.311h9.155q-0.1,4.907-.269,8.691-0.195,4.1-3.467,4.15a57.628,57.628,0,0,1-6.933-.537,32.277,32.277,0,0,1,.83,4q3.662,0.2,6.738.2,6.251-.049,6.543-7.275,0.44-10.449.586-35.937H354.2V15.46h7.251q-0.025,4.541-.1,8.057h-6.958v3.467H361.3q-0.147,6.738-.244,8.252H354.05V38.7ZM394.822,28.5Q396.97,24,400.388,15.753v-4H383.3V57.012h3.711V15.264h9.326q-2.343,6.152-5.908,14.111,6.885,5.664,6.934,11.231,0,5.078-4.077,5.322a21.4,21.4,0,0,1-5.64-.83q0.537,2.735.732,4.492a34.541,34.541,0,0,0,5.078.366q7.911-.244,7.911-9.3,0-6.445-6.543-12.158h0Zm-21.143,6.738h-8.936q0.171-5.029.22-8.252H373.8q-0.05,4.444-.122,8.252h0Zm0.147-11.719h-8.814q0.073-3.564.1-8.057h8.764q-0.024,4.248-.048,8.057h0Zm53.759,2.734h4.956q-0.219,17.285-10.327,28.027,1.514,1.465,2.783,2.832,10.743-11.523,11.06-30.859h2.173V50.323q0,5.127,4.2,5.127H445.7q4.736,0,5.468-5.225,0.39-2.832.83-7.178-0.195-.1-3.662-1.465a58.126,58.126,0,0,1-.635,7.471q-0.39,2.88-2.49,2.881H443.6q-1.808,0-1.807-2.295V26.251h8.692V22.686H436.2q0.123-4.638.22-13.867h-3.564q-0.1,9.986-.171,13.867h-5.1v3.564ZM406.931,37.676h3.418V36.5h4.541V50.225a1.921,1.921,0,0,1-2.148,2.2,29.2,29.2,0,0,1-4.493-.342,18.867,18.867,0,0,1,.782,3.76q2.1,0.1,4.3.1,4.982,0,4.981-4.98V36.5h4.541v1.172h3.418v-14.7H406.931v14.7ZM404,18.633h25v-3.32H416.306l3.125-1.514a49.077,49.077,0,0,0-3.174-5.42l-3.271,1.563a52.112,52.112,0,0,1,3.076,5.371H404v3.32Zm18.848,14.648h-12.5V26.2h12.5v7.08Zm-19.287,16.6a17.05,17.05,0,0,1,3.125,1.709,61.247,61.247,0,0,0,5.469-10.937l-3.174-1.27a56.059,56.059,0,0,1-5.42,10.5h0Zm42.724-30.127,2.54-2.832q-3.614-2.978-7.471-5.713l-2.3,2.539q4.98,3.858,7.226,6.006h0ZM424.265,47.393l3.027-2.051a77.107,77.107,0,0,0-4.638-6.641L419.87,40.46a67.123,67.123,0,0,1,4.395,6.934h0Zm64.844-28.906q2.49-3.125,5.713-7.568l-3.76-2.246q-3.2,5.566-6.152,9.814H469.675v20.02h3.662V36.7h3.491q-0.145,7.154-2.27,10.254-2.49,3.955-9.326,6.543,1.269,1.66,2.344,3.32,7.713-3.467,10.4-8.105,2.367-4.028,2.49-12.012h5.127V50.03q0,5.615,5.518,5.615H495.8q4.542,0,5.225-4.15,0.537-3.223.83-6.543-2.3-.781-3.955-1.465a53.451,53.451,0,0,1-.488,6.445q-0.344,2.295-2.393,2.295H491.7q-2.394,0-2.393-2.783V36.7h4.541v1.807h3.662V18.487h-8.4Zm4.736,14.795H473.337V21.9h20.508V33.282Zm-31.2,13.428V25.03h-9.326v3.564h5.566V46.026a6.2,6.2,0,0,1-1.514,4.492l2.784,3.076a17.623,17.623,0,0,1,2.148-2.246q3.711-3.027,7.568-6.055a37.583,37.583,0,0,1-.537-4.1q-3.419,2.93-6.689,5.518h0ZM456.052,11.5a101.6,101.6,0,0,1,7.129,8.4l3.32-2.783q-3.858-4.3-7.617-8.008Zm21.289,6.543,3.272-2.295a90.538,90.538,0,0,0-6.055-7.129l-2.832,2.148q3.077,3.711,5.615,7.275h0Zm53.223,22.217h14.551v9.473q0,2.88-2.979,2.881t-7.812-.293q0.44,2.051.732,4,4.834,0.146,8.3.146,5.615,0,5.615-5.81V11.114H527.536V28.3q0,10.5-1.855,15.332-1.905,5.127-7.861,10.5a28.805,28.805,0,0,1,3.173,2.979q8.2-7.715,9.571-16.846h0Zm-24.219,9.18h3.662V45.879h11.621v-33.2H506.345V49.444Zm25.049-21.973h13.721v9.277H531.028a87.438,87.438,0,0,0,.366-9.277h0Zm13.721-3.516H531.394v-9.18h13.721v9.18ZM510.007,42.315V30.84h7.959V42.315h-7.959Zm7.959-14.941h-7.959V16.241h7.959V27.374Zm57.227,29.346H578.9V53.838h16.6v2.881h3.711V33.331h-10.84V22.54h13.575V18.829H588.376V8.77H584.47V33.331h-9.277V56.719Zm20.312-6.3H578.9V36.749h16.6V50.421Zm-41.211,1.514q9.13-2,19.58-4.1a29.193,29.193,0,0,1-.341-3.565q-2.979.635-5.86,1.2,2.711-9.888,4.981-19.36l-3.955-.928A187.278,187.278,0,0,1,563.84,46.2q-5.346,1.025-10.473,1.88ZM554.05,22.54h20.117V19.122H554.05V22.54Zm5.42,20.02,3.613-.977q-1.856-8.252-4-15.771l-3.369.879q2.148,7.813,3.76,15.869h0ZM563.327,18l3.663-1.66q-2.1-4.492-4.053-8.057L559.47,9.8a78.715,78.715,0,0,1,3.857,8.2h0Zm40.625,14.5h8.594V49.493a4.311,4.311,0,0,1-1.66,3.565l2.93,3.76a25.691,25.691,0,0,1,3.613-2.392q5.322-2.637,11.133-5.029-0.2-2.1-.2-4.395-6.25,2.93-11.817,5.176V32.5h8.936q6.03,15.723,23.584,22.412,1.318-1.807,2.978-4Q635.738,45.88,629.636,32.5h21.387V28.692H616.55V8.77h-4V28.692h-8.594V32.5Zm17.432-6.152A93.616,93.616,0,0,0,645.31,13.555l-2.539-3.174A83.488,83.488,0,0,1,619.48,22.735q1.122,1.954,1.9,3.613h0Zm32.52,27.49h47.509V49.932H677.488V28.2h20.068V24.3H677.488V9.6h-4.444V49.932H653.9v3.906ZM731.15,54.18h20.605V50.665h-8.5V33.575H750.1V30.059h-6.836V16.094h7.129V12.579H732.663v3.516h6.983V30.059h-6.641v3.516h6.641v17.09h-8.5V54.18Zm-27.2-2.49q9.277-1.514,16.7-2.637,0.048-1.758.244-3.711-3.492.562-6.885,1.05V31.475h5.859V27.862h-5.859V16.387h6.69V12.774h-17.09v3.613h6.836V27.862H704.1v3.613h6.348V46.88q-3.541.464-6.983,0.855Zm23.389-20.264q-0.147,15.381-8.056,23a20.072,20.072,0,0,1,3.125,2.588q8.251-8.692,8.447-25.342Q731,21.759,731,9.942h-3.515q0,14.844-.147,21.484h0Zm-6.836,6.738q1.563,0,3.272.049,0.682-10.107.732-19.873h-3.271q-0.1,11.231-.733,19.824h0Zm60.23,4.541q9.886-10.376,13.208-26.562V12.432H757.712v3.613h4.444Q765.549,33.38,774.631,42.8q-7.177,5.884-21.069,9.912,1.561,2.051,2.685,3.857,14.844-5.518,21.436-10.937,7.446,6.152,20.8,10.742,1.561-2.1,3.369-4.395-13.72-3.564-21.118-9.277h0Zm-14.5-26.66H789.6q-2.711,14.429-11.914,23.9-8.448-8.691-11.45-23.9h0Zm55.4,29.883h7.666v5.127q0,2.051-2.246,2.051-1.563,0-3.808-.2,0.39,1.514.732,3.174,2.539,0.1,4.2.049,4.542-.049,4.541-4.59V27.52h-14.5v29.1h3.418V45.928ZM831.687,9.112q-5.859,8.74-17.236,15.381a29.076,29.076,0,0,1,2.343,3.174A68.389,68.389,0,0,0,824.607,22v1.807h16.6V21.465a47.384,47.384,0,0,0,8.2,5.615q1.271-1.9,2.588-3.516-10.937-5.224-16.5-13.184l0.928-1.27h-4.736Zm-26.9,27.49q2.391-3.516,4.541-7.471V56.866h3.466V21.856q2.344-5.615,4.3-12.012l-3.662-.928A80.1,80.1,0,0,1,803.269,32.6a29.648,29.648,0,0,1,1.514,4h0Zm39.16,13.623a2.219,2.219,0,0,1-2.539,2.539,49.5,49.5,0,0,1-5.664-.391,22.869,22.869,0,0,1,.732,3.662q3.319,0.1,5.664.1,5.322,0.049,5.322-5.322V27.276h-3.515V50.225Zm-7.373-2.441h3.418V28.936H836.57V47.784Zm3.857-27H825.974a60.165,60.165,0,0,0,7.373-7.861,45.13,45.13,0,0,0,7.08,7.861h0Zm-18.8,17.432h7.666V43h-7.666V38.213Zm7.666-2.93h-7.666V30.547h7.666v4.736Zm35.889,17.578a52.739,52.739,0,0,0,7.275-11.035V56.915h3.028V41.973a52.356,52.356,0,0,1,4.834,6.152l2.734-1.953q-2.637-3.369-5.713-6.592L875.486,40.8V36.944h3.271v1.172h3.028V24.1h-6.3V18.34h6.543V15.313h-6.543V9.258h-3.028v6.055h-6.787V18.34h6.787V24.1h-6.3V38.555h3.027V36.944h2.783a43.271,43.271,0,0,1-8.35,12.207,21.192,21.192,0,0,1,1.563,3.711h0Zm18.408-28.076q0.44-.635.928-1.318V44.805h3.125V26.3h9.082V44.805h3.125V23.272h-5.225l3.272-6.445V13.555h-7.91q0.78-1.708,1.562-3.613l-3.174-1.123a51.052,51.052,0,0,1-6.884,13.135,17.629,17.629,0,0,1,2.1,2.832h0ZM859.372,56.915H862.5V19.659q1.514,2.2,2.784,4.346l2.392-1.611q-1.66-2.392-3.613-4.98L862.5,18.438V9.258h-3.125V56.915Zm31.25-20.8q0,6.738-2.1,10.547-2.1,3.858-7.862,7.52a22.2,22.2,0,0,1,2.54,2.93,26.121,26.121,0,0,0,8.447-9.326,96.577,96.577,0,0,1,7.568,9.082L902,54.473q-4-4.834-9.179-10.059a35.811,35.811,0,0,0,.927-8.545V28.5h-3.125v7.617Zm0.489-12.842h-6.494a61.409,61.409,0,0,0,3.906-6.689h5.957Zm-37.793,8.936a27.634,27.634,0,0,1,3.076.684q1.024-6.055,1.709-12.207l-3.027-.391q-0.684,6.641-1.758,11.914h0Zm25.439,1.9h-3.271V26.934h3.271v7.178Zm-9.57-7.178h3.271v7.178h-3.271V26.934Zm49.585,31.958a35.039,35.039,0,0,1-8.2-23.071,35.9,35.9,0,0,1,8.252-23.34H914.6a35.055,35.055,0,0,0-8.228,23.389q0,13.648,8.228,23.022h4.175Zm2.514-40.552h12.769A75.539,75.539,0,0,1,919.919,38.6q1.318,1.807,2.344,3.516a79.148,79.148,0,0,0,5.615-6.3V56.475h3.809V30.621a80.781,80.781,0,0,0,6.787-12.28h29.883V14.727H940.012q0.977-2.466,1.831-5.029L937.79,8.672q-0.951,3.1-2.148,6.055H921.286V18.34ZM933.4,52.862h34.961V49.444H952.683v-14.6h12.891V31.329H952.683V21.514h-4v9.815H935.984v3.516h12.695v14.6H933.4v3.418Zm76.614-17.041q-0.345,7.666-.83,12.353c-0.43,2.6-2.1,3.906-5.03,3.906a95.425,95.425,0,0,1-10.549-.586q0.44,2.295.684,4.248,5.957,0.244,10.6.244,7.425-.049,8.25-7.031,0.645-6.592,1.13-16.8H982.37l1.246-6.055h29.374V22.491H984.348l1.2-5.811h-4.1l-3.321,15.625v3.516h31.888Zm-37.8-15.088h4V15.215H1012.5v5.518h4v-9.18H972.214v9.18Zm-2,24.8h36.038V41.924H970.212v3.613Zm72.848,1.318c0,2.995-1.49,4.476-4.49,4.443q-3.51-.049-8.4-0.586,0.495,2.295.78,4.736,5.28,0.146,7.96.146,4.89-.049,6.69-2,1.86-1.856,1.86-6.689V28.936q9.135-5.713,17.87-11.719V12.383h-43.41v4.053h36.67q-7.17,5.371-15.53,10.5V46.856Zm28.23-28.516h12.77A75.691,75.691,0,0,1,1069.92,38.6q1.32,1.807,2.34,3.516a78.82,78.82,0,0,0,5.62-6.3V56.475h3.81V30.621a80.834,80.834,0,0,0,6.78-12.28h29.89V14.727h-28.35q0.975-2.466,1.83-5.029l-4.05-1.025q-0.945,3.1-2.15,6.055h-14.35V18.34Zm12.11,34.522h34.96V49.444h-15.68v-14.6h12.89V31.329h-12.89V21.514h-4v9.815h-12.7v3.516h12.7v14.6H1083.4v3.418Zm76.61-17.041q-0.345,7.666-.83,12.353c-0.43,2.6-2.1,3.906-5.03,3.906a95.5,95.5,0,0,1-10.55-.586c0.29,1.53.52,2.946,0.68,4.248q5.97,0.244,10.6.244,7.425-.049,8.25-7.031,0.645-6.592,1.13-16.8h-31.89l1.25-6.055h29.37V22.491h-28.64l1.19-5.811h-4.1l-3.32,15.625v3.516h31.89Zm-37.8-15.088h4.01V15.215h36.28v5.518h4v-9.18h-44.29v9.18Zm-2,24.8h36.04V41.924h-36.04v3.613Zm72.85,1.318c0,2.995-1.49,4.476-4.49,4.443q-3.51-.049-8.4-0.586,0.495,2.295.78,4.736,5.28,0.146,7.96.146,4.89-.049,6.69-2,1.86-1.856,1.86-6.689V28.936q9.135-5.713,17.87-11.719V12.383h-43.41v4.053h36.67q-7.17,5.371-15.53,10.5V46.856Zm31.08,12.036q8.25-9.3,8.25-23.022t-8.25-23.389h-4.25a35.763,35.763,0,0,1,8.28,23.34,34.893,34.893,0,0,1-8.23,23.071h4.2Zm23.34-46.411h-10.01v3.394h5.81V55.523h-5.81v3.369h10.01V12.481Z"/>
</svg>
