<svg xmlns="http://www.w3.org/2000/svg" width="400" height="68" viewBox="0 0 400 68">
  <defs>
    <style>
      .cls-1 {
        fill: #fff;
        fill-rule: evenodd;
      }
    </style>
  </defs>
  <path id="_在做了在做了_" data-name="(在做了在做了)" class="cls-1" d="M49.772,58.892a35.041,35.041,0,0,1-8.2-23.071,35.9,35.9,0,0,1,8.252-23.34H45.6A35.054,35.054,0,0,0,37.37,35.87q0,13.648,8.228,23.022h4.175ZM52.287,18.34H65.055A75.561,75.561,0,0,1,50.919,38.6q1.318,1.807,2.344,3.516a79.211,79.211,0,0,0,5.615-6.3V56.475h3.808V30.621a80.808,80.808,0,0,0,6.787-12.28H99.357V14.727H71.012q0.976-2.466,1.831-5.029L68.79,8.672q-0.952,3.1-2.148,6.055H52.287V18.34ZM64.4,52.862H99.357V49.444H83.683v-14.6H96.574V31.329H83.683V21.514h-4v9.815h-12.7v3.516h12.7v14.6H64.4v3.418ZM129.142,30.45a34.079,34.079,0,0,1,2.148,3.125,53,53,0,0,0,2.491-4.688,46.646,46.646,0,0,0,4,15.186,41.493,41.493,0,0,1-9.034,10.205,33.21,33.21,0,0,1,2.442,3.076,49.29,49.29,0,0,0,8.593-9.668,33.843,33.843,0,0,0,7.715,8.691q1.026-1.807,2.295-3.613a25.612,25.612,0,0,1-7.959-8.594q4.248-8.691,4.932-22.705h2.49V18.292H137.687q1.122-4.052,2-8.691l-3.565-.586a62.44,62.44,0,0,1-6.982,21.436h0ZM114.591,53.155h3.516V49.786H129.63V31.866h-5.859V22.149h7.764v-3.32h-7.764V9.356h-3.613v9.473h-7.764v3.32h7.764v9.717h-5.567V53.155Zm-12.4-16.943a68.389,68.389,0,0,0,4.687-7.959V56.915H110.2V20.635q1.854-4.98,3.418-10.693L110,9.014a75.123,75.123,0,0,1-9.375,23.1q0.879,2.149,1.563,4.1h0Zm23.926,10.352h-8.008V35.088h8.008V46.563Zm13.72-6.543a54.868,54.868,0,0,1-3.515-17.432q0.195-.537.39-1.123h6.446q-0.44,11.475-3.321,18.555h0Zm34.229,6.836q0,4.492-4.492,4.443-3.516-.049-8.4-0.586,0.489,2.295.781,4.736,5.274,0.146,7.959.146,4.882-.049,6.69-2,1.856-1.856,1.855-6.689V28.936q9.13-5.713,17.871-11.719V12.383H152.921v4.053h36.67q-7.178,5.371-15.527,10.5V46.856ZM202.286,18.34h12.769A75.539,75.539,0,0,1,200.919,38.6q1.319,1.807,2.344,3.516a79.148,79.148,0,0,0,5.615-6.3V56.475h3.809V30.621a80.781,80.781,0,0,0,6.787-12.28h29.883V14.727H221.012q0.977-2.466,1.831-5.029L218.79,8.672q-0.951,3.1-2.148,6.055H202.286V18.34ZM214.4,52.862h34.961V49.444H233.683v-14.6h12.891V31.329H233.683V21.514h-4v9.815H216.984v3.516h12.695v14.6H214.4v3.418ZM279.142,30.45a34.079,34.079,0,0,1,2.148,3.125,53,53,0,0,0,2.491-4.688,46.646,46.646,0,0,0,4,15.186,41.493,41.493,0,0,1-9.034,10.205,33.21,33.21,0,0,1,2.442,3.076,49.29,49.29,0,0,0,8.593-9.668,33.843,33.843,0,0,0,7.715,8.691q1.026-1.807,2.3-3.613a25.612,25.612,0,0,1-7.959-8.594q4.248-8.691,4.932-22.705h2.49V18.292H287.687q1.122-4.052,2-8.691l-3.565-.586a62.44,62.44,0,0,1-6.982,21.436h0ZM264.591,53.155h3.516V49.786H279.63V31.866h-5.859V22.149h7.764v-3.32h-7.764V9.356h-3.613v9.473h-7.764v3.32h7.764v9.717h-5.567V53.155Zm-12.4-16.943a68.389,68.389,0,0,0,4.687-7.959V56.915H260.2V20.635q1.854-4.98,3.418-10.693L260,9.014a75.123,75.123,0,0,1-9.375,23.1q0.879,2.149,1.563,4.1h0Zm23.926,10.352h-8.008V35.088h8.008V46.563Zm13.72-6.543a54.868,54.868,0,0,1-3.515-17.432q0.195-.537.39-1.123h6.446q-0.44,11.475-3.321,18.555h0Zm34.229,6.836q0,4.492-4.492,4.443-3.516-.049-8.4-0.586,0.489,2.295.781,4.736,5.274,0.146,7.959.146,4.882-.049,6.69-2,1.855-1.856,1.855-6.689V28.936q9.13-5.713,17.871-11.719V12.383H302.921v4.053h36.67q-7.178,5.371-15.527,10.5V46.856Zm31.079,12.036q8.252-9.3,8.252-23.022t-8.252-23.389H350.9a35.775,35.775,0,0,1,8.276,23.34,34.921,34.921,0,0,1-8.227,23.071h4.2Z"/>
</svg>
