<svg xmlns="http://www.w3.org/2000/svg" width="888" height="200" viewBox="0 0 888 200">
  <defs>
    <style>
      .cls-1 {
        fill: #fff;
        fill-rule: evenodd;
      }
    </style>
  </defs>
  <path id="_放假见吧_" data-name="“放假见吧!”" class="cls-1" d="M74.168,18.831q-26,14.836-26,38.5a16.075,16.075,0,0,0,4.25,11.5,14.347,14.347,0,0,0,10.917,4.5q13.332,0,13.333-11.333,0-5.664-1.917-8.333T67.668,51q-2.5,0-2.5-2.667a29.175,29.175,0,0,1,3-11.667A26.64,26.64,0,0,1,78.335,25.331Zm-36,0q-26,14.836-26,38.5a15.964,15.964,0,0,0,4.417,11.25,14.125,14.125,0,0,0,10.75,4.75q13.332,0,13.333-11.333,0-5.164-2.583-8.083A7.6,7.6,0,0,0,32.335,51q-3.168,0-3.167-2.667a30.017,30.017,0,0,1,2.667-11.75q2.664-6.25,10.5-11.25ZM201,39.081q1.162-4.582,4-5.917,3.663-1.664,3.666-2.667T206.5,28.665q-2.169-.832-19-6.167Q183,54,178.168,72.581a235.105,235.105,0,0,1-14,38.584l2.834,2a136.81,136.81,0,0,0,12.166-17.834q3,26.836,12.5,43-12.168,20.5-44.333,39.834l1.5,2.833q32.832-12.667,49.667-32.833,5,6.332,15.916,15.416t12.75,9.084a2.868,2.868,0,0,0,2.167-1.167q5.832-6.5,16-6.5,1.832,0,4,.167L250,161.831q-32.5-13.668-43.834-24.666Q217,119.5,224.335,84.5A23.258,23.258,0,0,1,226,79.081a6.9,6.9,0,0,1,2.916-2.167q2.25-1.082,2.25-2.083t-2.833-2q-2.837-1-13.167-3.833h27.5q3.664,0,3.667-1.417t-4.5-5.75l-8-7.5q-3.336-3.164-4.75-3.167t-2.917,2.167l-7.166,10H193.335Q199.835,43.667,201,39.081Zm-3.667,87.75Q188.335,113.667,183,88a201.007,201.007,0,0,0,8.333-19H210q-3,35.836-12.667,57.833h0Zm-82.5-100.166q8.5,8.668,12.667,26.5,0.663,3,1.5,3.75a3.362,3.362,0,0,0,2.333.75q4.332,0,7.333-4.417t3-7.75q0-10-24.833-22Zm-3.083,106.5A101.322,101.322,0,0,1,90.5,171.5l2.167,2.667Q113.332,155.328,121,138.331t9.666-47h18.667q0.163,14-.833,28.75T146.335,140.5q-1.168,5.668-3.417,7.5t-7,1.833a71.239,71.239,0,0,1-13.916-2l-0.834,3.5a35.177,35.177,0,0,1,10.334,4.334q3.663,2.5,6.166,10,0.833,2.5,2.167,2.5T146.752,165a26.452,26.452,0,0,0,8.833-7.833,21.8,21.8,0,0,0,3.917-9.417q0.663-4.75,1.833-21.25t1.833-32.333q6.163-3,6.167-4.167T167,87q-2.337-1.832-7-5t-5.667-3.167q-1,0-2.333,2l-3.5,5.333H131q0.663-12.5.833-21.167H173.5q3.5,0,3.5-1.5t-3.667-5l-7.167-7q-3.5-3.332-4.666-3.333a3.144,3.144,0,0,0-2.334,1.5L151.835,59.5H103.168a36.273,36.273,0,0,1-8.333-.833L98.335,66q2.164-1,7-1H118Q118,112,111.752,133.165ZM282,146q0,8.668-.334,16.667l-0.333,13c0,1.109.276,1.666,0.833,1.666a17.039,17.039,0,0,0,3.917-1.083,34.789,34.789,0,0,0,5.583-2.5,18.335,18.335,0,0,0,3.084-2,3.551,3.551,0,0,0,.583-2.417V78.5q4-1.832,4-2.75a1.905,1.905,0,0,0-1.25-1.583q-1.249-.664-8.917-3.5a215.314,215.314,0,0,0,12-30.333,7.726,7.726,0,0,1,5.667-5.667Q309,34,309,33q0-2-17.834-8.333a263.138,263.138,0,0,1-13.583,46.75q-9.25,23.75-20.75,40.916l2,2A143.133,143.133,0,0,0,282,84v62Zm84.5-75.167A36.282,36.282,0,0,1,358.168,70l3,6.5a16.972,16.972,0,0,1,7-1.167h16.167v6q0,2.836,1,2.833A12.9,12.9,0,0,0,389.168,83a30.443,30.443,0,0,0,5.334-2.833,11.124,11.124,0,0,0,3-2.5,3.816,3.816,0,0,0,.5-2l-0.334-5Q397.5,67.833,397.5,63V44.5q5.331-2.164,5.333-3.833,0-.832-3.167-3.083T392.918,33q-3.585-2.332-4.666-2.333T386,32.331L381.668,38.5H366.835q-4,0-8-.333l4.333,6.5a14.006,14.006,0,0,1,5.667-1.167h15.5V70.831H366.5ZM341.668,74v7q0,2.5,1.334,2.5a14.7,14.7,0,0,0,5-1.25A23.335,23.335,0,0,0,352.585,80,2.85,2.85,0,0,0,354,77.665l-0.334-4.333q-0.168-2.5-.166-5.667V43.331q5-1.5,5-2.667t-6.084-5.333q-6.086-4.164-7.166-4.167a2.362,2.362,0,0,0-1.917,1.167L338.668,38.5h-14.5a62.947,62.947,0,0,0-14-7.333q0.333,7.168.334,17.333V153.165q0,9-.167,13.666L310,175.165c0,1.109.388,1.666,1.166,1.666s2.443-.612,5-1.833a20.3,20.3,0,0,0,5.25-3.25,4.479,4.479,0,0,0,1.417-3.25V131.165h31.333q2.832,0,2.834-.667t-2.5-3.5q-2.5-2.832-5.834-6t-4.333-3.167q-1.168,0-2.5,1.834l-5.167,6.666H322.835V103.665h26.833q3,0,3-1.667t-5.416-6.5q-5.418-4.832-6.5-4.833a3.11,3.11,0,0,0-2.25,1.5L334.335,98h-11.5V74h18.833Zm0-30.667V69.5H322.835V43.331h18.833Zm44.584,121q9.081,9.833,10.916,9.834a1.815,1.815,0,0,0,1.334-.834,17.376,17.376,0,0,1,6.25-5.5,15.13,15.13,0,0,1,6.666-1.666q3.25,0,5.25.166l0.5-2.833Q393.168,153.33,381,140q8.163-12.664,14.166-33a18.523,18.523,0,0,1,2.167-5.167,8.1,8.1,0,0,1,3.833-2.333Q404,98.5,404,97.331t-3.667-4l-6.333-5q-2.837-2.164-4-2.167a3.124,3.124,0,0,0-2.334,1.667l-5,5.667H358.835a64.194,64.194,0,0,1-8.167-.667l2.667,6a9.051,9.051,0,0,1,3.5-.833q3.332,26.336,11.167,41.5-11.5,17.668-42.834,34.667L326.835,177Q359.667,166.162,374,149.5,377.165,154.5,386.252,164.331Zm-24.584-66.5h22q-3.668,19-10.166,32.5-8.169-13-11.834-32.5h0Zm90.667-65.667q0.5,7,.5,14.333v60q0,8.5-.334,13.833l-0.333,8.834a1.03,1.03,0,0,0,1.167,1.166q1.164,0,5.75-2.083a39.291,39.291,0,0,0,6.166-3.25,3.433,3.433,0,0,0,1.584-2.833v-76.5h61.833v77.666q0,1.668,1,1.667,1.665,0,6.833-1.833a30.467,30.467,0,0,0,6.5-2.834,3.33,3.33,0,0,0,1.334-2.833L544,105.5V49.331q7.166-3.664,7.167-5.333t-7.5-6.833Q536.168,32,534.5,32q-1,0-2.166,1.833l-4.5,6.667h-60a91.171,91.171,0,0,0-15.5-8.333h0Zm47.833,85.666v36.5q0,8.165.917,11.417a6.507,6.507,0,0,0,4,4.5q3.083,1.25,12.25,2T536.918,173q10.414,0,19.917-.917t12.416-2.416q2.914-1.5,6.084-5.917t3.166-5.917q0-1.5-3.166-3.666a13.879,13.879,0,0,1-4.584-4.834q-1.417-2.664-2-9.083T568,120h-3.666q-0.836,11-1.75,18.083a83.2,83.2,0,0,1-2.084,11.25,18.035,18.035,0,0,1-2.666,6.084A7.6,7.6,0,0,1,554.5,158a40.565,40.565,0,0,1-7.916,1.25q-6.086.582-16.667,0.583t-13.167-1.5q-2.584-1.5-2.583-7.5V115.665q5.5-2.664,5.5-4a2.069,2.069,0,0,0-1.167-1.25,47.5,47.5,0,0,0-5.916-2.667,108.545,108.545,0,0,0-12.25-3.917q1.832-9.664,3.166-23.166,0.665-6.164,3.584-7.5T510,71q0-2.5-20.833-7.833a237.814,237.814,0,0,1-4.917,52.083Q479,140.166,466.835,151t-42,23.667L426.168,178q27.5-7.836,41.75-16.083t20.583-19q6.333-10.751,11.334-36.084,0.332,7.5.333,11h0Zm218.5-4c0,1.334.276,2,.834,2a17.076,17.076,0,0,0,3.833-1,32.465,32.465,0,0,0,5.667-2.5,12.509,12.509,0,0,0,3.083-2.083,2.688,2.688,0,0,0,.417-1.583l-0.167-5.5q-0.168-2.832-.167-10.5v-39.5q7.332-3.832,7.334-6,0-2-8-6.75t-9.5-4.75a2.906,2.906,0,0,0-2.5,1.667l-3.334,6.333H673.5Q666.334,40,655.668,35.5q0.5,7.336.5,18.667V156q0,8.664,2.5,12.25t10.417,4.917Q677,174.5,696,174.5q8.331,0,21.166-.5t18.25-2.167a18.093,18.093,0,0,0,9.167-6.583q3.75-4.918,3.75-6.75t-2.833-3.667a14.867,14.867,0,0,1-5.834-8.25A39.44,39.44,0,0,1,738,134.915q0-6.251.333-10.417h-3.667q-1.335,10.5-2.5,16.667a70.846,70.846,0,0,1-2.416,9.75,13.935,13.935,0,0,1-2.917,5.25,8.521,8.521,0,0,1-3.833,2.25,95.244,95.244,0,0,1-11.834,1.333q-9.668.75-18,.75a113.991,113.991,0,0,1-14.666-.833q-6.336-.837-7.5-2.5t-1.167-7.5V103.5h48.833v10.333ZM669.835,97.665V49.331h18V97.665h-18Zm48.833-48.333V97.665h-17.5V49.331h17.5ZM632.168,136c0,1.224.334,1.833,1,1.833a20.063,20.063,0,0,0,5.917-1.25,24.008,24.008,0,0,0,5.25-2.25,2.823,2.823,0,0,0,1.5-2.333l-0.167-5.5q-0.168-2.832-.166-10.5V56.665q5.331-2.5,5.333-4.5t-6.75-6.25q-6.75-4.25-7.833-4.25t-2.25,2l-3.167,6.5H618.168A98.089,98.089,0,0,0,600.668,41q0.5,7.168.5,14.167V132q0,8.668-.833,17c-0.112.891,0.055,1.333,0.5,1.333q1.832,0,6.333-2t5.334-2.916a3.71,3.71,0,0,0,.833-2.584V123.165h18.833V136ZM613.335,55.165h18.833V117.5H613.335V55.165ZM780.835,125l6.5-73.333c0.109-1.221.167-2.388,0.167-3.5q0-5.832-2.25-8.583t-7.417-2.75q-5.5,0-7.75,2.917t-2.25,8.917q0,1.668.167,3.667L774.168,125h6.667ZM770.5,150.748a10.262,10.262,0,0,0,14.333,0,10.26,10.26,0,0,0,0-14.5,9.932,9.932,0,0,0-7.167-2.917A10.194,10.194,0,0,0,770.5,150.748Zm80.666-75.583q12.5-7.332,18.917-17.667A41.861,41.861,0,0,0,876.5,35q0-7.164-4-11.583A13.124,13.124,0,0,0,862.335,19a13.76,13.76,0,0,0-10.25,4.167,13.25,13.25,0,0,0-.917,18.167A9.317,9.317,0,0,0,858.335,45a2.21,2.21,0,0,1,2.5,2.5,18.05,18.05,0,0,1-2.5,8.583q-2.5,4.586-11.5,12.917Zm-36,0q12.5-7.332,18.917-17.667A41.861,41.861,0,0,0,840.5,35q0-7.164-4-11.583A13.124,13.124,0,0,0,826.335,19a13.76,13.76,0,0,0-10.25,4.167,13.25,13.25,0,0,0-.917,18.167A9.317,9.317,0,0,0,822.335,45a2.21,2.21,0,0,1,2.5,2.5q0,4.5-3.167,10.167T810.835,69Z"/>
</svg>
