<svg xmlns="http://www.w3.org/2000/svg" width="268" height="60" viewBox="0 0 268 60">
  <defs>
    <style>
      .cls-1 {
        fill: #fff;
        fill-rule: evenodd;
      }
    </style>
  </defs>
  <path id="_22_10_02" data-name="22/10/02" class="cls-1" d="M6.513,22.694a9.723,9.723,0,0,1,2.6-7.069,9.213,9.213,0,0,1,6.933-2.681,8.449,8.449,0,0,1,6.2,2.383,8.239,8.239,0,0,1,2.41,6.121q0,4.767-4.035,9.208A99.438,99.438,0,0,1,7.433,41.977l-4.225,3.2v2.221H26.338l0.271,1.3h1.679l1.787-9.913H27.854L27.583,40.3a3.928,3.928,0,0,1-1.165,2.492,6.009,6.009,0,0,1-3.386.65H9.275A157.7,157.7,0,0,0,22.6,33.825a23.682,23.682,0,0,0,5.715-6.31,13.347,13.347,0,0,0,1.435-6.338A10.485,10.485,0,0,0,26.256,13a12.978,12.978,0,0,0-9.019-3.142,13.573,13.573,0,0,0-9.7,3.467A11.531,11.531,0,0,0,3.858,22.1a16.746,16.746,0,0,0,.217,2.654l2.546-.325a14.748,14.748,0,0,1-.108-1.733h0Zm33.583,0a9.723,9.723,0,0,1,2.6-7.069,9.214,9.214,0,0,1,6.933-2.681,8.449,8.449,0,0,1,6.2,2.383,8.239,8.239,0,0,1,2.41,6.121q0,4.767-4.035,9.208a99.435,99.435,0,0,1-13.19,11.321l-4.225,3.2v2.221H59.921l0.271,1.3h1.679l1.787-9.913H61.438L61.167,40.3A3.929,3.929,0,0,1,60,42.79a6.009,6.009,0,0,1-3.385.65H42.858a157.687,157.687,0,0,0,13.325-9.614,23.682,23.682,0,0,0,5.715-6.31,13.347,13.347,0,0,0,1.435-6.338A10.485,10.485,0,0,0,59.84,13a12.978,12.978,0,0,0-9.019-3.142,13.573,13.573,0,0,0-9.7,3.467A11.531,11.531,0,0,0,37.442,22.1a16.749,16.749,0,0,0,.217,2.654l2.546-.325a14.745,14.745,0,0,1-.108-1.733h0ZM90.688,5.848L71.621,56.44h3.9L94.7,5.848H90.688Zm18.525,7.8v2.275h6.716V41.111q0,2.6-.812,3.331a4.646,4.646,0,0,1-3.034.731h-2.87v2.221h17.441V45.173h-2.6q-2.383,0-3.033-.677t-0.65-3.385v-30.6h-2a21.652,21.652,0,0,1-9.154,3.142h0Zm31.118,29.3a11.869,11.869,0,0,0,9.94,5.092A12.418,12.418,0,0,0,160.644,42.9q3.927-5.145,3.927-13.65,0-9.1-3.765-14.246A11.941,11.941,0,0,0,150.65,9.856a12.276,12.276,0,0,0-10.346,5.01q-3.792,5.011-3.792,14.056Q136.512,37.86,140.331,42.952Zm16.738-1.923q-2.41,4.361-6.636,4.36-4.008,0-6.445-4.2T141.55,29.465q0-7.908,2.356-12.458t6.582-4.55q4.224,0,6.608,4.333t2.383,12.133Q159.479,36.67,157.069,41.029ZM190.354,5.848L171.288,56.44h3.9L194.363,5.848h-4.009Zm16.061,37.1a11.866,11.866,0,0,0,9.939,5.092A12.418,12.418,0,0,0,226.727,42.9q3.927-5.145,3.927-13.65,0-9.1-3.764-14.246a11.944,11.944,0,0,0-10.157-5.146,12.276,12.276,0,0,0-10.345,5.01q-3.793,5.011-3.792,14.056Q202.6,37.86,206.415,42.952Zm16.737-1.923q-2.411,4.361-6.635,4.36-4.01,0-6.446-4.2t-2.438-11.727q0-7.908,2.357-12.458t6.581-4.55q4.226,0,6.608,4.333t2.384,12.133Q225.563,36.67,223.152,41.029Zm16.277-18.335a9.725,9.725,0,0,1,2.6-7.069,9.215,9.215,0,0,1,6.934-2.681,8.45,8.45,0,0,1,6.2,2.383,8.241,8.241,0,0,1,2.41,6.121q0,4.767-4.035,9.208a99.492,99.492,0,0,1-13.19,11.321l-4.225,3.2v2.221h23.129l0.271,1.3H261.2l1.788-9.913h-2.221L260.5,40.3a3.927,3.927,0,0,1-1.165,2.492,6.006,6.006,0,0,1-3.385.65H242.192a157.737,157.737,0,0,0,13.325-9.614,23.677,23.677,0,0,0,5.714-6.31,13.34,13.34,0,0,0,1.436-6.338A10.486,10.486,0,0,0,259.173,13a12.977,12.977,0,0,0-9.019-3.142,13.575,13.575,0,0,0-9.7,3.467,11.531,11.531,0,0,0-3.683,8.775,16.715,16.715,0,0,0,.217,2.654l2.546-.325a14.708,14.708,0,0,1-.109-1.733h0Z"/>
</svg>
