<svg xmlns="http://www.w3.org/2000/svg" width="728" height="200" viewBox="0 0 728 200">
  <defs>
    <style>
      .cls-1 {
        fill: #fff;
        fill-rule: evenodd;
      }
    </style>
  </defs>
  <path id="_放假见_" data-name="“放假见!”" class="cls-1" d="M77.585,18.831q-26,14.836-26,38.5a16.075,16.075,0,0,0,4.25,11.5,14.347,14.347,0,0,0,10.917,4.5q13.332,0,13.333-11.333,0-5.664-1.917-8.333T71.085,51q-2.5,0-2.5-2.667a29.175,29.175,0,0,1,3-11.667A26.639,26.639,0,0,1,81.752,25.331Zm-36,0q-26,14.836-26,38.5A15.963,15.963,0,0,0,20,68.581a14.124,14.124,0,0,0,10.75,4.75q13.332,0,13.333-11.333,0-5.164-2.583-8.083A7.6,7.6,0,0,0,35.752,51q-3.168,0-3.167-2.667a30.015,30.015,0,0,1,2.667-11.75q2.664-6.25,10.5-11.25Zm162.833,20.25q1.164-4.582,4-5.917,3.664-1.664,3.667-2.667t-2.167-1.833q-2.167-.832-19-6.167-4.5,31.5-9.333,50.083a235.105,235.105,0,0,1-14,38.584l2.833,2a136.817,136.817,0,0,0,12.167-17.834q3,26.836,12.5,43-12.168,20.5-44.334,39.834l1.5,2.833q32.832-12.667,49.667-32.833,5,6.332,15.917,15.416t12.75,9.084a2.865,2.865,0,0,0,2.166-1.167q5.832-6.5,16-6.5,1.833,0,4,.167l0.667-3.334q-32.5-13.668-43.833-24.666Q220.417,119.5,227.751,84.5a23.31,23.31,0,0,1,1.667-5.417,6.915,6.915,0,0,1,2.917-2.167q2.25-1.082,2.25-2.083t-2.834-2q-2.835-1-13.166-3.833h27.5q3.663,0,3.666-1.417t-4.5-5.75l-8-7.5q-3.336-3.164-4.75-3.167t-2.916,2.167l-7.167,10H196.751Q203.252,43.667,204.418,39.081Zm-3.667,87.75q-9-13.164-14.333-38.833a200.493,200.493,0,0,0,8.333-19h18.667q-3,35.836-12.667,57.833h0Zm-82.5-100.166q8.5,8.668,12.667,26.5,0.664,3,1.5,3.75a3.364,3.364,0,0,0,2.333.75q4.332,0,7.334-4.417t3-7.75q0-10-24.834-22Zm-3.083,106.5A101.328,101.328,0,0,1,93.918,171.5l2.167,2.667q20.664-18.837,28.333-35.834t9.667-47h18.666q0.165,14-.833,28.75T149.751,140.5q-1.167,5.668-3.416,7.5t-7,1.833a71.237,71.237,0,0,1-13.917-2l-0.833,3.5a35.17,35.17,0,0,1,10.333,4.334q3.664,2.5,6.167,10,0.831,2.5,2.166,2.5T150.168,165A26.442,26.442,0,0,0,159,157.165a21.782,21.782,0,0,0,3.917-9.417q0.664-4.75,1.833-21.25t1.834-32.333q6.163-3,6.166-4.167t-2.333-3q-2.336-1.832-7-5t-5.667-3.167q-1,0-2.333,2l-3.5,5.333h-17.5q0.664-12.5.833-21.167h41.667q3.5,0,3.5-1.5t-3.667-5l-7.166-7q-3.5-3.332-4.667-3.333a3.143,3.143,0,0,0-2.333,1.5L155.251,59.5H106.585a36.275,36.275,0,0,1-8.333-.833l3.5,7.333q2.165-1,7-1h12.667Q121.418,112,115.168,133.165ZM285.418,146q0,8.668-.333,16.667l-0.334,13c0,1.109.277,1.666,0.834,1.666a17.036,17.036,0,0,0,3.916-1.083,34.841,34.841,0,0,0,5.584-2.5,18.31,18.31,0,0,0,3.083-2,3.551,3.551,0,0,0,.583-2.417V78.5q4-1.832,4-2.75a1.9,1.9,0,0,0-1.25-1.583q-1.249-.664-8.916-3.5a215.556,215.556,0,0,0,12-30.333,7.726,7.726,0,0,1,5.666-5.667Q312.416,34,312.418,33q0-2-17.833-8.333A263.228,263.228,0,0,1,281,71.415q-9.249,23.75-20.75,40.916l2,2A143.1,143.1,0,0,0,285.418,84v62Zm84.5-75.167A36.267,36.267,0,0,1,361.585,70l3,6.5a16.969,16.969,0,0,1,7-1.167h16.166v6q0,2.836,1,2.833A12.916,12.916,0,0,0,392.585,83a30.434,30.434,0,0,0,5.333-2.833,11.089,11.089,0,0,0,3-2.5,3.816,3.816,0,0,0,.5-2l-0.333-5q-0.168-2.832-.167-7.667V44.5q5.332-2.164,5.333-3.833,0-.832-3.166-3.083T396.335,33q-3.586-2.332-4.667-2.333t-2.25,1.667L385.085,38.5H370.251q-4,0-8-.333l4.334,6.5a14,14,0,0,1,5.666-1.167h15.5V70.831H369.918ZM345.085,74v7q0,2.5,1.333,2.5a14.7,14.7,0,0,0,5-1.25A23.306,23.306,0,0,0,356,80a2.85,2.85,0,0,0,1.417-2.333l-0.333-4.333q-0.168-2.5-.167-5.667V43.331q5-1.5,5-2.667t-6.083-5.333q-6.085-4.164-7.167-4.167a2.362,2.362,0,0,0-1.917,1.167L342.085,38.5h-14.5a62.991,62.991,0,0,0-14-7.333q0.332,7.168.333,17.333V153.165q0,9-.167,13.666l-0.333,8.334c0,1.109.388,1.666,1.167,1.666s2.443-.612,5-1.833a20.3,20.3,0,0,0,5.25-3.25,4.478,4.478,0,0,0,1.416-3.25V131.165h31.334q2.832,0,2.833-.667t-2.5-3.5q-2.5-2.832-5.833-6t-4.334-3.167q-1.167,0-2.5,1.834l-5.166,6.666H326.251V103.665h26.834q3,0,3-1.667t-5.417-6.5q-5.418-4.832-6.5-4.833a3.11,3.11,0,0,0-2.25,1.5L337.751,98h-11.5V74h18.834Zm0-30.667V69.5H326.251V43.331h18.834Zm44.583,121q9.082,9.833,10.917,9.834a1.812,1.812,0,0,0,1.333-.834,17.384,17.384,0,0,1,6.25-5.5,15.131,15.131,0,0,1,6.667-1.666q3.249,0,5.25.166l0.5-2.833q-24-10.168-36.167-23.5,8.164-12.664,14.167-33a18.56,18.56,0,0,1,2.166-5.167,8.1,8.1,0,0,1,3.834-2.333q2.832-1,2.833-2.167t-3.667-4l-6.333-5q-2.835-2.164-4-2.167a3.125,3.125,0,0,0-2.333,1.667l-5,5.667H362.251a64.181,64.181,0,0,1-8.166-.667l2.666,6a9.057,9.057,0,0,1,3.5-.833q3.333,26.336,11.167,41.5-11.5,17.668-42.833,34.667L330.251,177q32.834-10.836,47.167-27.5Q380.583,154.5,389.668,164.331Zm-24.583-66.5h22q-3.667,19-10.167,32.5-8.168-13-11.833-32.5h0Zm90.666-65.667q0.5,7,.5,14.333v60q0,8.5-.333,13.833l-0.333,8.834a1.03,1.03,0,0,0,1.166,1.166q1.164,0,5.75-2.083a39.316,39.316,0,0,0,6.167-3.25,3.432,3.432,0,0,0,1.583-2.833v-76.5h61.834v77.666q0,1.668,1,1.667,1.663,0,6.833-1.833a30.492,30.492,0,0,0,6.5-2.834,3.331,3.331,0,0,0,1.333-2.833l-0.333-12V49.331q7.164-3.664,7.167-5.333t-7.5-6.833Q539.585,32,537.918,32q-1,0-2.167,1.833l-4.5,6.667h-60a91.133,91.133,0,0,0-15.5-8.333h0Zm47.834,85.666v36.5q0,8.165.916,11.417a6.509,6.509,0,0,0,4,4.5q3.082,1.25,12.25,2T540.335,173q10.413,0,19.916-.917t12.417-2.416q2.914-1.5,6.083-5.917t3.167-5.917q0-1.5-3.167-3.666a13.885,13.885,0,0,1-4.583-4.834q-1.418-2.664-2-9.083T571.418,120h-3.667q-0.836,11-1.75,18.083a83.225,83.225,0,0,1-2.083,11.25,18.033,18.033,0,0,1-2.667,6.084A7.6,7.6,0,0,1,557.918,158a40.6,40.6,0,0,1-7.917,1.25q-6.086.582-16.666,0.583t-13.167-1.5q-2.586-1.5-2.583-7.5V115.665q5.5-2.664,5.5-4a2.072,2.072,0,0,0-1.167-1.25A47.468,47.468,0,0,0,516,107.748a108.478,108.478,0,0,0-12.25-3.917q1.833-9.664,3.167-23.166,0.664-6.164,3.583-7.5T513.418,71q0-2.5-20.833-7.833a237.875,237.875,0,0,1-4.917,52.083q-5.25,24.918-17.417,35.75t-42,23.667L429.585,178q27.5-7.836,41.75-16.083t20.583-19q6.333-10.751,11.333-36.084,0.333,7.5.334,11h0Zm114,7.167,6.5-73.333q0.163-1.832.166-3.5,0-5.832-2.25-8.583t-7.416-2.75q-5.5,0-7.75,2.917t-2.25,8.917q0,1.668.166,3.667L610.918,125h6.667Zm-10.334,25.75a10.263,10.263,0,0,0,14.334,0,10.26,10.26,0,0,0,0-14.5,9.932,9.932,0,0,0-7.167-2.917A10.194,10.194,0,0,0,607.251,150.748Zm80.5-75.583q12.5-7.332,18.917-17.667A41.861,41.861,0,0,0,713.085,35q0-7.164-4-11.583A13.124,13.124,0,0,0,698.918,19a13.761,13.761,0,0,0-10.25,4.167,13.25,13.25,0,0,0-.917,18.167A9.317,9.317,0,0,0,694.918,45a2.21,2.21,0,0,1,2.5,2.5,18.05,18.05,0,0,1-2.5,8.583q-2.5,4.586-11.5,12.917Zm-36,0q12.5-7.332,18.917-17.667A41.861,41.861,0,0,0,677.085,35q0-7.164-4-11.583A13.124,13.124,0,0,0,662.918,19a13.761,13.761,0,0,0-10.25,4.167,13.25,13.25,0,0,0-.917,18.167A9.317,9.317,0,0,0,658.918,45a2.21,2.21,0,0,1,2.5,2.5q0,4.5-3.167,10.167T647.418,69Z"/>
</svg>
