<svg xmlns="http://www.w3.org/2000/svg" width="188" height="60" viewBox="0 0 188 60">
  <defs>
    <style>
      .cls-1 {
        fill: #fff;
        fill-rule: evenodd;
      }
    </style>
  </defs>
  <path id="个影像" class="cls-1" d="M69.75,25.366q5.925,4.9,6.875,4.9a0.766,0.766,0,0,0,.65-0.35,5.615,5.615,0,0,1,2.25-1.975,12.226,12.226,0,0,1,4.25-.425l0.1-1.2A37.746,37.746,0,0,1,70.5,20.641a24.839,24.839,0,0,1-8.525-9.375,1.736,1.736,0,0,1,1.35-.7q0.949-.1.95-0.45,0-.8-6.05-3.35-6.3,15.7-21.65,25.05l0.45,0.9q16.35-7.15,24.05-20.05A28.3,28.3,0,0,0,69.75,25.366Zm-12.225,0v20.95q0,2.5-.05,4.5l-0.1,1.95q0,0.75.35,0.75a7.677,7.677,0,0,0,2.15-.45,7.376,7.376,0,0,0,1.875-.8,0.964,0.964,0,0,0,.475-0.75l-0.05-1.7q-0.1-1.85-.1-3.5v-22.7q1.35-.649,1.35-1,0-.3-1.5-0.825a22.453,22.453,0,0,0-4.5-.875q0.1,1.95.1,4.45h0Zm56.95-3.55,0.65,0.6a53.1,53.1,0,0,0,12.2-9.65,7.994,7.994,0,0,1,1.3-1.2,2.953,2.953,0,0,1,.975-0.3c0.416-.066.625-0.191,0.625-0.375a0.967,0.967,0,0,0-.35-0.625,18.284,18.284,0,0,0-1.8-1.375q-1.45-1.024-2.8-1.825a43.8,43.8,0,0,1-10.8,14.75h0Zm-24.75,4.65a10.881,10.881,0,0,1-2.5-.25l0.7,1.9a5.091,5.091,0,0,1,2.1-.35h27.35q0.8,0,.8-0.425t-1.95-2.075a7.718,7.718,0,0,0-2.35-1.65,1.072,1.072,0,0,0-.8.55l-1.6,2.3h-7.6a1.873,1.873,0,0,0,.95-0.975,3.01,3.01,0,0,0,.35-1.275q0-1.9-4.65-2.7h8.75v0.75q0,0.75.4,0.75a6.482,6.482,0,0,0,1.775-.45,4.24,4.24,0,0,0,1.5-.725,1.578,1.578,0,0,0,.225-0.975l-0.1-4.25v-4.45q1.85-.649,1.85-1.05t-2.1-1.775a9.83,9.83,0,0,0-2.45-1.375,0.662,0.662,0,0,0-.45.35l-1.2,1.95h-11.9a18.812,18.812,0,0,0-4.5-1.5q0.15,2.25.15,4.35v5.55q0,2.55-.2,4.8-0.05.75,0.35,0.75a7.229,7.229,0,0,0,1.925-.425,6.889,6.889,0,0,0,1.575-.625,1.245,1.245,0,0,0,.25-0.95v-0.7h3.5l-0.4.65a8.6,8.6,0,0,1,2.15,4.3h-11.9Zm6.65-14.8h12.9v3.7h-12.9v-3.7Zm12.9,8.5h-12.9v-3.5h12.9v3.5Zm12.45,8.475a53.255,53.255,0,0,1-7.05,6.475l0.55,0.85a67.005,67.005,0,0,0,7.325-4.25,52.917,52.917,0,0,0,5.825-5.05,2.937,2.937,0,0,1,1.75-.975q0.75-.025.75-0.375a3.413,3.413,0,0,0-1.125-1.425,25.738,25.738,0,0,0-3.175-2.475A39.986,39.986,0,0,1,121.725,28.641Zm-20.4,17.675a1.365,1.365,0,0,1-.225.9,1.748,1.748,0,0,1-1.175.25q-0.95,0-4.35-.4l-0.1,1.1a9.788,9.788,0,0,1,3.35,1.45,3.734,3.734,0,0,1,1.2,2.2,0.819,0.819,0,0,0,.6.8,7.612,7.612,0,0,0,2.15-.95,4.543,4.543,0,0,0,2.125-1.85,10.422,10.422,0,0,0,.375-3.45v-8.35h4.15v0.7q0,0.75.45,0.75a6.52,6.52,0,0,0,1.625-.375,8.77,8.77,0,0,0,1.55-.6,0.7,0.7,0,0,0,.375-0.625l-0.1-1q-0.051-.55-0.05-1.4v-3.15a2.423,2.423,0,0,0,1.35-.95q0-.3-1.825-1.5a7.9,7.9,0,0,0-2.175-1.2,0.94,0.94,0,0,0-.7.55l-0.95,1.45H97.225a15.923,15.923,0,0,0-4.65-1.9q0.15,2.15.15,4.35v2.35a34.048,34.048,0,0,1-.2,3.65q-0.05.7,0.325,0.7a9.336,9.336,0,0,0,1.75-.375,8.655,8.655,0,0,0,1.7-.575,1.027,1.027,0,0,0,.375-0.85h4.65v8.3Zm-4.65-14.35h12.75v4.65H96.675v-4.65Zm10.45,20.55,0.45,0.75q13.95-3.1,22.25-12.95a7.263,7.263,0,0,1,1.475-1.4,2.937,2.937,0,0,1,1.425-.45q0.8-.049.8-0.25a7.355,7.355,0,0,0-1.475-1.625,40.392,40.392,0,0,0-3.425-2.925,42.129,42.129,0,0,1-21.5,18.85h0Zm-14.675-6.9a59.146,59.146,0,0,1-4.575,5.75l0.7,0.65a48.271,48.271,0,0,0,9.2-8.3,10.776,10.776,0,0,1,1.05-1.15,1.133,1.133,0,0,1,.75-0.25q0.45,0,.45-0.3A2.333,2.333,0,0,0,98.9,40.991a19.789,19.789,0,0,0-2.875-1.475Q93.875,43.467,92.45,45.616Zm13.375-4.35a25.015,25.015,0,0,1,3.225,2.675,10.326,10.326,0,0,1,1.7,2.375,6.33,6.33,0,0,0,1.025,1.6,1.226,1.226,0,0,0,.825.3,2.147,2.147,0,0,0,1.25-1.15,3.886,3.886,0,0,0,.775-2.125,2.467,2.467,0,0,0-.65-1.7,6.187,6.187,0,0,0-2.425-1.375,51.237,51.237,0,0,0-5.375-1.5Zm37.25,2.65q0,1.95-.05,4.15l-0.15,4.7c0,0.366.091,0.55,0.275,0.55a9.867,9.867,0,0,0,1.9-.65,7.423,7.423,0,0,0,1.85-.9,1.011,1.011,0,0,0,.225-0.7V22.716a2.039,2.039,0,0,0,1.05-.7,0.99,0.99,0,0,0-.525-0.55,5.652,5.652,0,0,0-1.225-.6,50,50,0,0,0,3.2-6.075q1.3-2.974,1.7-3.65a1.449,1.449,0,0,1,.9-0.775,1.022,1.022,0,0,0,.95-0.5,0.771,0.771,0,0,0-.325-0.575,11.645,11.645,0,0,0-1.85-1q-1.525-.724-3.525-1.475a70.6,70.6,0,0,1-4.825,13.475,84.22,84.22,0,0,1-7.175,12.725l0.65,0.55a74.157,74.157,0,0,0,6.95-7.9v18.25Zm27.1-27.875a4.4,4.4,0,0,1,3.05-1.575q1.2,0,1.2-.45t-1.85-1.8a6.9,6.9,0,0,0-2.3-1.35,1,1,0,0,0-.8.45l-1.15,1.35h-6.2q1.9-2.55,2.75-2.7,0.9-.15.9-0.5,0-.7-5.15-2.3a56.916,56.916,0,0,1-12.35,16.95l0.65,0.75,4.35-3.15v2.95a25.963,25.963,0,0,1-.25,3.75q-0.051.45,0.15,0.475t1.075,0.025a5.688,5.688,0,0,0,1.875-.35,1.167,1.167,0,0,0,1-.95v-0.7h3.1q-2.451,3.5-10.85,7.6l0.45,0.9q8.45-2.95,11.75-5.55l0.85,0.95a37.576,37.576,0,0,1-5.725,5.775,65.95,65.95,0,0,1-8.875,5.675l0.35,0.75q10.3-3.6,15.95-9a11.624,11.624,0,0,1,.6,2.6q-6,6.65-17.1,12.45l0.35,0.85q10.6-3.65,17.05-8.95a26.1,26.1,0,0,1-.375,3.925,7.839,7.839,0,0,1-.825,2.625,2.039,2.039,0,0,1-1.875.8,28.781,28.781,0,0,1-5.525-1.05l-0.2.85a13.342,13.342,0,0,1,3.9,1.925,4.962,4.962,0,0,1,1.45,2.375,1.046,1.046,0,0,0,.925.9,8.935,8.935,0,0,0,2.7-.975,5.823,5.823,0,0,0,2.975-3.675,20.215,20.215,0,0,0,.9-6.375,18.8,18.8,0,0,0-.95-6.325q1.449-.55,2.15-0.85,1.05,7.151,4,10.95t3.7,3.8a0.666,0.666,0,0,0,.45-0.3,6.018,6.018,0,0,1,4.7-2.25v-0.8a18.391,18.391,0,0,1-7.425-4.525,16.681,16.681,0,0,1-4.325-7.325l3.8-1.65a7.914,7.914,0,0,1,2.75-.8l0.6,0.05a0.519,0.519,0,0,0,.65-0.5,2.389,2.389,0,0,0-.9-1.175,35.443,35.443,0,0,0-2.9-2.275,54.5,54.5,0,0,1-7.75,6.5,17.9,17.9,0,0,0-4.95-5.9,10.8,10.8,0,0,0,1.8-2h9.1v1a0.4,0.4,0,0,0,.45.45,7.685,7.685,0,0,0,2.35-.525q1.5-.525,1.5-1.125l-0.1-1.05q-0.051-.649-0.05-1.4v-2.95q1.95-.75,1.95-1.15t-2-1.7a7.181,7.181,0,0,0-2.6-1.3,0.693,0.693,0,0,0-.55.35l-0.7.95h-5.85A28.852,28.852,0,0,1,170.175,16.041Zm-9.2-1.925h6.9q-0.7,1.451-2.3,4.35h-8.45a48.691,48.691,0,0,0,3.85-4.35h0Zm4.6,11.2a44.648,44.648,0,0,0,2.5-5.3h5.5v5.3h-8Zm-4.3,0h-4.15v-5.3h6.55a37.78,37.78,0,0,1-2.4,5.3h0Z"/>
  <path id="_9" data-name="9" class="cls-1" d="M11.689,49.416a27.983,27.983,0,0,0,9.55-1.675,14.988,14.988,0,0,0,7.65-6.45,21.229,21.229,0,0,0,3-11.525q0-7.5-3.425-11.55t-9.725-4.05a12.87,12.87,0,0,0-9.075,3.2,11.121,11.121,0,0,0-3.475,8.6,11,11,0,0,0,3.175,8.125,11.125,11.125,0,0,0,8.225,3.175,10.783,10.783,0,0,0,5.4-1.25,12.282,12.282,0,0,0,4-3.9q-0.35,7.7-4.4,11.325t-12.8,3.675v2.3h1.9Zm1.55-30.475a7.094,7.094,0,0,1,5.65-2.575,7.056,7.056,0,0,1,5.6,2.65,9.846,9.846,0,0,1,2.25,6.6,9.408,9.408,0,0,1-2.3,6.425,7.33,7.33,0,0,1-5.75,2.625,6.979,6.979,0,0,1-5.475-2.475,9.376,9.376,0,0,1-2.175-6.425A10.146,10.146,0,0,1,13.239,18.941Z"/>
</svg>
