<svg xmlns="http://www.w3.org/2000/svg" width="1688" height="120" viewBox="0 0 1688 120">
  <defs>
    <style>
      .cls-1 {
        fill: #fff;
        fill-rule: evenodd;
      }
    </style>
  </defs>
  <path id="因为关不上的门而突然落泪_只有自己知道为什么" data-name="因为关不上的门而突然落泪 只有自己知道为什么" class="cls-1" d="M31.539,28.336H19.43l1.758,1.758a17.76,17.76,0,0,1,4.688-.586h5.664q-0.394,7.425-3.516,12.012a24.119,24.119,0,0,1-8.4,7.52l0.391,0.586A24.042,24.042,0,0,0,29.2,43.57a19.55,19.55,0,0,0,4.492-8.4q5.859,6.056,7.422,9.766,1.172,2.93,1.953,2.93a1.873,1.873,0,0,0,1.074-.879,3.789,3.789,0,0,0,.488-2.734q-0.2-1.854-2.637-4.2A52.13,52.13,0,0,0,33.883,34.2q0.192-2.147.391-4.687H47.359L43.648,25.8l-2.539,2.539H34.273V21.89l1.758-1.562L31.344,18.18q0.192,3.127.2,5.469v4.688ZM14.547,21.109V49.625q0,3.516-.2,7.422l2.93-1.172V53.531H49.312v3.32l2.93-1.367c-0.131-2.216-.2-4.23-0.2-6.055V17.008l1.367-1.172L50.484,13.3,48.922,15.25H17.281l-2.93-1.758q0.192,4.688.2,7.617h0Zm34.766-4.687V52.359H17.281V16.422H49.312ZM67.672,15.25a28.051,28.051,0,0,1,4.883,7.227q0.586,1.955,1.367,1.953a2.184,2.184,0,0,0,1.172-.977,3.314,3.314,0,0,0,.391-2.832q-0.394-1.854-7.227-5.957ZM81.148,26.969H62.984l1.758,1.758a17.764,17.764,0,0,1,4.688-.586H80.953a39.775,39.775,0,0,1-7.227,16.7,49.327,49.327,0,0,1-12.7,12.012l0.391,0.586A41.385,41.385,0,0,0,74.9,47.476q6.637-7.031,9.18-19.336h17.187Q99.509,48.648,98.531,50.6a3.458,3.458,0,0,1-3.125,2.051,58.011,58.011,0,0,1-8.789-.879V52.75q6.834,1.364,8.008,4.688A11.666,11.666,0,0,0,99.508,54.9a9.15,9.15,0,0,0,2.636-5.176q0.683-3.415,2.051-21l1.758-1.562-3.516-2.734-1.562,2.539h-16.6q0.778-5.663,1.367-11.328l1.953-1.367L82.32,11.734a90.552,90.552,0,0,1-1.172,15.234h0Zm3.125,7.813q6.248,5.081,8.2,8.2,1.364,2.151,1.953,2.148a1.255,1.255,0,0,0,.781-0.976A5.233,5.233,0,0,0,95.6,42.2a4.911,4.911,0,0,0-.977-2.637Q93.645,38.1,84.664,34Zm42.774-14.649q0.975,2.738,1.758,2.734a2.92,2.92,0,0,0,.878-1.172,4.336,4.336,0,0,0,.684-2.148q0-1.561-1.953-3.32a32.414,32.414,0,0,0-5.859-3.906l-0.391.586a21.606,21.606,0,0,1,4.883,7.227h0ZM154,25.406L150.094,21.5l-2.735,2.734H137.2q2.537-3.122,5.859-8.2l2.344-.977-4.687-3.125a56.324,56.324,0,0,1-1.954,5.957,44.827,44.827,0,0,1-2.929,6.348H113.765l1.758,1.758a17.771,17.771,0,0,1,4.688-.586h11.523q0,6.253-.39,10.547H111.226l1.758,1.758a17.761,17.761,0,0,1,4.688-.586h13.476a27.461,27.461,0,0,1-5.664,10.254q-4.3,5.177-14.258,9.473l0.2,0.781a40.338,40.338,0,0,0,15.136-8.105,24,24,0,0,0,7.52-12.4h1.562q2.148,8.011,6.543,12.6a36.947,36.947,0,0,0,9.668,7.324,4.72,4.72,0,0,1,4.3-2.539V53.922q-8.6-2.344-13.086-7.031a26.945,26.945,0,0,1-6.25-9.766h19.336l-4.1-4.1-2.93,2.93H134.273q0.39-5.466.586-10.547H154Zm32.617,1.172-3.32-1.953q2.147-4.491,3.906-7.812h18.555l-4.1-4.1-2.93,2.93H161.617l1.758,1.758a17.759,17.759,0,0,1,4.687-.586H183.3a59.169,59.169,0,0,1-9.668,16.7,69.893,69.893,0,0,1-12.4,11.816l0.391,0.781A59.615,59.615,0,0,0,181.93,26.969V44.156q0,5.47-.2,12.891l3.321-1.367q-0.2-3.126-.2-8.984V27.945ZM200.68,41.031q1.56,3.126,2.343,3.125A1.725,1.725,0,0,0,204,43.082a4.026,4.026,0,0,0,.586-1.855,6.37,6.37,0,0,0-1.27-3.125q-1.272-1.95-13.769-10.156l-0.586.586q9.375,8.4,11.719,12.5h0Zm29.3-21.289V52.555h-19.14l1.758,1.758a17.757,17.757,0,0,1,4.687-.586h39.063l-4.3-4.3-3.125,3.125H232.906V30.484h18.555l-4.1-4.1-2.929,2.93H232.906V16.226l2.149-1.563-5.274-2.344q0.192,3.909.195,7.422h0Zm47.461,3.516v12.5H267.281v-12.5h10.156Zm0,13.672V50.6H267.281V36.93h10.156Zm4.493-13.867L279,20.133l-1.953,1.953H270.6q3.32-6.834,5.274-7.812l-4.3-2.344a49.154,49.154,0,0,1-2.148,10.156h-1.954l-2.929-1.758q0.192,8.986.195,18.066t-0.195,18.262l2.734-1.562v-3.32h10.156v4.1l2.735-1.562q-0.2-7.031-.2-29.883Zm4.687-1.172a64.667,64.667,0,0,1-6.055,11.133l0.586,0.391a52.932,52.932,0,0,0,7.422-9.57H299.9q-0.393,21.876-.879,25.2t-2.636,3.32a40.744,40.744,0,0,1-7.032-.977v0.977q5.466,1.561,6.446,4.688a11.917,11.917,0,0,0,4-2.148,8.16,8.16,0,0,0,1.953-4.2q0.681-3.026,1.074-25.879l1.758-1.367-2.93-2.93-2.148,2.148H288.961q3.318-7.031,4.883-8.008l-4.3-2.539A55.94,55.94,0,0,1,286.617,21.89Zm-0.977,9.961a19.216,19.216,0,0,1,3.516,7.617q0.389,2.737,1.172,2.734a2.185,2.185,0,0,0,1.172-.977,3.642,3.642,0,0,0,.781-2.344,6.712,6.712,0,0,0-.781-2.441q-0.783-1.657-5.469-5.176Zm33.985-19.141q3.516,4.3,4.3,7.227,0.388,1.955,1.172,1.953a2.3,2.3,0,0,0,1.171-1.172,4.216,4.216,0,0,0,.782-2.344,4.624,4.624,0,0,0-.586-1.953q-0.587-1.172-6.446-4.1ZM319.43,55.484q-0.2-2.344-.2-5.664V24.234l1.563-1.367-4.688-2.344q0.192,5.081.2,19.043t-0.2,17.285Zm13.476-36.133a17.765,17.765,0,0,1,4.688-.586h10.742V49.625q0,2.541-2.149,2.344t-6.054-.586v0.781q6.248,1.364,6.445,4.688,5.076-1.566,4.687-6.25V19.547l1.563-1.367-3.516-2.539-1.367,1.953h-16.8Zm57.813,33.594q4.688,1.561,5.664,4.1A9.652,9.652,0,0,0,399.7,54.9a5.423,5.423,0,0,0,.781-3.32V28.922l2.149-1.367-3.516-2.93-1.562,1.953H379.781a93.191,93.191,0,0,1,5.664-8.984h20.508l-3.906-3.906-3.125,2.734H360.64L362.4,18.18a17.771,17.771,0,0,1,4.688-.586h14.258l-2.539,8.984h-9.766l-2.93-1.758q0.192,3.516.2,13.477t-0.2,18.164l2.93-1.953V27.75h7.617V54.312L379.2,53.14V27.75h7.617V53.922l2.539-.977V27.75h8.4V50.6a2,2,0,0,1-.781,1.953q-0.783.389-6.25-.391v0.781ZM448.531,25.6q3.516-4.491,6.445-4.687L451.461,17.4,449.9,19.351H434.664a3.817,3.817,0,0,0,1.367-2.539,3.134,3.134,0,0,0-.879-1.66q-0.879-1.071-5.176-2.637l-0.39.586a9.356,9.356,0,0,1,3.32,6.25h-15.82l-0.2-2.149h-0.781a15.9,15.9,0,0,1-1.465,4.688,19.122,19.122,0,0,1-1.66,2.539,1.124,1.124,0,0,0-.39.781c0,0.262.518,0.488,1.562,0.684a2.183,2.183,0,0,0,2.441-1.172,6.426,6.426,0,0,0,.489-4.2h33.008l-2.149,4.688Zm-27.246,1.172a44.862,44.862,0,0,1-7.52,4.492l0.2,0.586a45.178,45.178,0,0,0,9.961-4.492q4.688-2.733,6.25-2.93L426.851,21.3A26.192,26.192,0,0,1,421.285,26.773Zm15.332-4.3a62.97,62.97,0,0,1,6.836,3.711,29.411,29.411,0,0,1,4.883,3.906,2.662,2.662,0,0,0,1.562.977q0.586,0,.879-1.66t-1.953-3.125q-2.247-1.465-12.012-4.59Zm-21.68,16.016a14.417,14.417,0,0,1,3.711-.586h11.524A22.179,22.179,0,0,1,425,47.769q-3.808,4.2-12.793,8.5l0.391,0.586q8.788-2.541,13.574-6.738T433.1,37.906h0.977a23.964,23.964,0,0,0,6.445,11.23,48.936,48.936,0,0,0,9.766,7.52q0.975-2.344,4.3-2.539V53.336a33.372,33.372,0,0,1-8.887-3.711,29.128,29.128,0,0,1-6.445-5.273,24.359,24.359,0,0,1-4.2-6.445h19.531L450.875,34l-2.735,2.734H433.3q0.388-3.122.586-7.227l1.562-1.172-4.492-2.148a65.751,65.751,0,0,1-.586,10.547H413.18ZM437.984,29.7a15.786,15.786,0,0,1,4.688,4.688c0.518,1.044.976,1.563,1.367,1.563a2.2,2.2,0,0,0,.781-0.977,3.331,3.331,0,0,0,.586-1.562,2.885,2.885,0,0,0-.781-1.562q-0.783-.975-6.25-2.734Zm59.961-8.4c0.391,1.434.845,2.148,1.367,2.148a2.047,2.047,0,0,0,1.075-1.172,4.345,4.345,0,0,0,.683-2.148,3.15,3.15,0,0,0-.976-2.051,27.947,27.947,0,0,0-5.469-3.613l-0.391.586a17.671,17.671,0,0,1,3.711,6.25h0Zm-30.664,1.953A40.844,40.844,0,0,1,460.64,34.2l0.586,0.391a28.032,28.032,0,0,0,5.079-5.273,16.686,16.686,0,0,1,2.929,5.273c0.26,1.044.586,1.563,0.977,1.563a1.9,1.9,0,0,0,1.074-.977,3.388,3.388,0,0,0,.684-1.953,2.6,2.6,0,0,0-.782-1.66,23.9,23.9,0,0,0-4.3-3.027q0.975-1.561,2.149-3.516a21.954,21.954,0,0,1,4.3,4.688,1.807,1.807,0,0,0,.976,1.172,1.348,1.348,0,0,0,.782-1.074,5.387,5.387,0,0,0,.39-1.465,2.455,2.455,0,0,0-1.074-1.855,19.576,19.576,0,0,0-4.98-2.246A15.885,15.885,0,0,1,470.8,21.89h8.4q-2.151,9.769-6.348,15.332a36.183,36.183,0,0,1-11.621,9.668l0.2,0.586q8.789-3.516,13.379-8.984t7.324-16.016l1.562-1.367-3.32-2.539L479,20.719h-7.617a56.544,56.544,0,0,1,2.539-5.469l1.367-.976-4.3-2.344A59.9,59.9,0,0,1,467.281,23.258Zm14.453,2.734,1.758,1.758a17.765,17.765,0,0,1,4.688-.586h0.39q-0.783,7.425-3.613,11.133a27.261,27.261,0,0,1-8.3,6.836l0.391,0.586Q484.27,42.6,487.4,38.687t3.907-11.523h0.781a30.569,30.569,0,0,0,9.375,17.578q0.975-1.758,4.492-2.148V41.812q-8.986-2.344-12.891-14.648h11.524l-3.516-3.711-2.539,2.539H491.5q0-5.273.195-10.547l1.367-1.367-4.3-1.953q0.194,4.884,0,13.867h-7.031ZM466.6,51.09a18.584,18.584,0,0,1-2.441,3.027q-1.368,1.172-.781,1.953c0.39,0.519,1.2.684,2.441,0.488s2.179-1.141,2.832-2.832a18.059,18.059,0,0,0,.782-7.031l-0.782-.2A20.737,20.737,0,0,1,466.6,51.09Zm21.973,3.418c0.128,1.3.455,1.953,0.977,1.953a2.909,2.909,0,0,0,1.367-1.074,3.321,3.321,0,0,0,.976-2.246,5.223,5.223,0,0,0-.976-2.344,20.57,20.57,0,0,0-4.492-4.3l-0.586.391a23.709,23.709,0,0,1,2.734,7.617h0Zm11.524-.391q0.585,2.344,1.367,2.344a2.2,2.2,0,0,0,1.172-.977,3.659,3.659,0,0,0,.781-2.344,4.58,4.58,0,0,0-.879-2.344q-0.879-1.364-6.152-4.687l-0.391.586a21.436,21.436,0,0,1,4.1,7.422h0Zm-22.657,0c0.128,1.691.455,2.539,0.977,2.539a3.034,3.034,0,0,0,1.367-.781,2.827,2.827,0,0,0,.977-2.344,8.446,8.446,0,0,0-.391-2.149q-0.393-1.364-4.3-5.078l-0.586.391a21.011,21.011,0,0,1,1.953,7.422h0Zm33.4-36.133,1.758,1.758a16.246,16.246,0,0,1,4.3-.586H524.7v4.492l2.539-1.367V19.156h10.742v3.906l2.539-1.172V19.156h15.625l-4.1-4.1-3.516,2.93h-8.008v-2.93l1.563-1.367-4.3-1.758q0.192,3.127.2,6.055H527.242V15.445L529,14.273l-4.492-2.149q0.192,2.93.195,5.859H510.836ZM516.4,48.453a19.152,19.152,0,0,1-.683,3.906q-0.587,2.147.781,2.93a5.305,5.305,0,0,0,1.758.781c0.781,0,1.1-.717.976-2.148a46.582,46.582,0,0,1,0-6.055q0.192-2.733,7.031-21.289l-0.781-.2q-6.056,14.062-7.422,16.309t-2.636,2.246a31.287,31.287,0,0,1-4-.391v0.586Q516.5,46.7,516.4,48.453ZM510.836,31.07a27.933,27.933,0,0,1,4.1,5.274q0.587,1.369,1.172,1.367a1.921,1.921,0,0,0,.684-0.977,3.816,3.816,0,0,0,.488-1.562,2.8,2.8,0,0,0-1.172-2.148,18.835,18.835,0,0,0-4.883-2.344Zm3.906-8.2a18.965,18.965,0,0,1,3.906,5.078q0.39,1.369.977,1.367a1.648,1.648,0,0,0,.976-0.977,3.332,3.332,0,0,0,.586-1.562,3.551,3.551,0,0,0-.683-1.66q-0.687-1.071-5.371-2.832Zm30.273,22.07v8.2h-12.3v-8.2h12.3Zm3.907-.391-2.93-2.344-1.367,1.563H533.1l-1.562-.977a47.968,47.968,0,0,0,8.008-5.664,43.377,43.377,0,0,0,13.281,7.813q0.389-1.95,3.32-2.734V41.617a28.153,28.153,0,0,1-15.039-5.859,89.95,89.95,0,0,0,5.664-7.031l1.758-.977-2.93-2.93-1.562,1.953h-9.766q0.587-.975,1.367-2.344l1.758-.781-3.711-2.539A46.962,46.962,0,0,1,530.172,30a51.636,51.636,0,0,1-4.688,7.129l0.391,0.391a36.243,36.243,0,0,0,7.812-9.57,29.479,29.479,0,0,0,4.1,7.617,36.362,36.362,0,0,1-15.43,9.766l0.2,0.586a54.727,54.727,0,0,0,7.617-2.344q0,9.375-.2,13.867l2.735-.977V54.312h12.3v2.734l2.735-.977q-0.2-2.737-.2-10.547Zm-4.883-16.6a30.6,30.6,0,0,1-4.688,6.445,22.783,22.783,0,0,1-4.882-6.445h9.57Zm56.055,11.719V50.6H581.93V39.664h18.164Zm2.734-21.484,1.367-1.367-3.125-2.539L599.7,16.422H582.125L579,14.664q0.192,2.93.2,8.984V47.476q0,4.688-.2,8.789l2.93-.977V51.773h18.164V55.68l2.929-1.172q-0.2-2.344-.2-8.984V18.18Zm-2.734-.586v9.375H581.93V17.594h18.164Zm0,10.547V38.492H581.93V28.14h18.164Zm-23.633-8.2q-6.84,19.144-7.715,20.8a3.152,3.152,0,0,1-1.856,1.855,23.647,23.647,0,0,1-4.492,0v0.781A11.223,11.223,0,0,1,566.3,44.84a2.351,2.351,0,0,1,.781,1.855,11.547,11.547,0,0,1-.586,3.125,9.833,9.833,0,0,0-.391,2.734,1.969,1.969,0,0,0,1.27,2.051,6.006,6.006,0,0,0,1.855.488c0.519,0,.781-0.391.781-1.172V49.234a24.034,24.034,0,0,1,.293-5.957q0.486-2.44,6.934-22.949ZM561.226,24.43a24.842,24.842,0,0,1,4.3,6.445q0.587,1.758,1.172,1.758a2.175,2.175,0,0,0,1.172-.879,3.735,3.735,0,0,0,.684-2.734q-0.1-1.854-6.934-5.176ZM566.5,13.687a24.032,24.032,0,0,1,4.1,6.25c0.391,1.172.714,1.758,0.977,1.758a2.05,2.05,0,0,0,1.074-1.172,4.136,4.136,0,0,0,.684-1.953,4.509,4.509,0,0,0-.586-1.758q-0.586-1.172-5.86-3.711ZM22.359,96.988a57.485,57.485,0,0,1-8.984,9.473l0.391,0.586Q20.014,103.92,29.781,92.2l1.953-.781-4.1-3.125A49.051,49.051,0,0,1,22.359,96.988Zm22.266,0.879a48.472,48.472,0,0,1,3.906,6.641q0.586,1.56,1.172,1.562,0.389,0,.977-1.562a7.649,7.649,0,0,0,.586-2.539q0-2.733-3.906-6.153a80.359,80.359,0,0,0-9.375-6.934l-0.391.586A68.774,68.774,0,0,1,44.625,97.867Zm-0.2-31.445V84.2h-20.9V66.422h20.9Zm2.734,0.586,1.563-1.562L45.406,63.1,44.039,65.25H23.726L20.6,63.3q0.192,5.47.2,12.891T20.406,89.469L23.531,88.3v-2.93h20.9v3.125l2.93-1.172q-0.2-3.9-.2-6.836V67.008Zm46.68,12.109v6.836H75.875V79.117H93.844Zm0,8.008V93.57H75.875V87.125H93.844Zm-6.836,16.6q5.466,1.561,5.273,3.907,4.294-1.566,4.3-4.688V79.9l1.758-1.367-3.32-2.539-1.562,1.953h-16.8a59.425,59.425,0,0,0,4.492-7.031h24.8l-4.492-4.492-3.321,3.32h-16.6q0.975-1.758,2.344-4.492l1.953-.781-4.883-2.734a38.791,38.791,0,0,1-2.734,8.008H60.64L62.4,71.5a17.763,17.763,0,0,1,4.688-.586H77.828a61.022,61.022,0,0,1-7.715,11.621,69.444,69.444,0,0,1-9.473,8.887l0.586,0.586A55.959,55.959,0,0,0,73.14,82.242q0,22.073-.2,25.391l2.93-1.758V94.742H93.844v6.836a1.554,1.554,0,0,1-1.758,1.758,31.726,31.726,0,0,1-5.078-.586v0.976ZM148.14,73.258l1.954-1.562-3.711-2.734L144.82,71.3H129a38.308,38.308,0,0,1,2.637-3.809,12.415,12.415,0,0,1,3.613-3.418l-4.688-2.148a40.73,40.73,0,0,1-2.929,9.375h-5.86l-3.125-1.758q0.192,3.126.2,18.945t-0.2,19.141l3.125-.977v-3.125h23.438v4.1l3.125-1.172a39.037,39.037,0,0,1-.2-3.906v-29.3Zm-2.929-.781V81.07H121.773V72.476h23.438Zm0,9.766v9.766H121.773V82.242h23.438Zm0,10.938v9.179H121.773V93.18h23.438Zm26.562,10.938H199.7a21.77,21.77,0,0,0,2.93-.293q1.95-.292,3.32-3.223-3.126-.974-3.32-9.765h-0.977a50.169,50.169,0,0,1-.488,8.5q-0.49,2.444-2.442,2.246h-25.39q-3.127,0-3.125-2.93v-16.6h25v3.125l3.125-1.367q-0.394-3.122-.391-14.844l1.758-1.367-3.32-2.734-1.758,2.148h-29.1l1.758,1.758a17.765,17.765,0,0,1,4.688-.586h23.242v12.7h-25l-2.93-1.758q0.192,4.3.195,19.141-0.393,6.056,4.3,5.859h0Zm82.813-31.445-2.93-2.539-1.562,2.148h-9.766l-2.734-1.953q0.192,3.323.195,17.188T237.594,104.9l2.734-1.172V98.648h10.156V104.7l2.735-1.172q-0.2-5.274-.2-29.492Zm-4.1.781V97.476H240.328V73.453h10.156Zm-33.105-1.66a47.981,47.981,0,0,1-4.59,10.254l0.586,0.391a36.352,36.352,0,0,0,5.664-8.594h3.906V84.781H211.422l1.758,1.758a17.757,17.757,0,0,1,4.687-.586h5.078a26.786,26.786,0,0,1-3.418,11.621,28.465,28.465,0,0,1-8.1,9.082l0.39,0.586a25.939,25.939,0,0,0,7.715-5.957A26.84,26.84,0,0,0,224.9,91.226a30.9,30.9,0,0,1,4.981,5.762,41.76,41.76,0,0,1,2.636,4.785q0.39,1.173.977,1.172a2.573,2.573,0,0,0,.781-1.172,4.847,4.847,0,0,0,.586-2.148,5.386,5.386,0,0,0-.976-2.734q-0.98-1.561-8.789-6.641a26.443,26.443,0,0,0,.39-4.3h10.938L233.1,82.047l-2.734,2.734H225.68V73.844h8.984l-3.32-3.711-2.735,2.539H219.43q1.172-2.93,2.734-7.227l1.562-.781-4.1-2.148A50.366,50.366,0,0,1,217.379,71.793ZM283.1,68.57q0.39,1.955,1.172,1.953a2.89,2.89,0,0,0,.977-0.586,2.424,2.424,0,0,0,.879-1.855q0.1-1.268-1.563-2.734a19.358,19.358,0,0,0-4.59-2.832l-0.39.586A14.8,14.8,0,0,1,283.1,68.57h0Zm13.672,9.766v4.688H282.125V78.336h14.648Zm0,5.859v5.273H282.125V84.2h14.648Zm0,6.445v4.883H282.125V90.64h14.648ZM282.32,77.164L279.39,75.6q0.194,6.056.2,11.816t-0.2,12.6l2.735-1.171V96.7h14.648V99.43l2.735-1.172q-0.2-4.687-.2-10.156V79.312l1.953-1.367-2.734-2.734-1.953,1.953h-8.984l2.539-4.687h15.625l-3.516-3.711L299.7,71.3h-7.422a38.02,38.02,0,0,1,4-4.687,10.931,10.931,0,0,1,3.027-2.148l-3.906-2.734a53.352,53.352,0,0,1-4.492,9.57H273.726l1.758,1.758a17.765,17.765,0,0,1,4.688-.586h6.836l-0.586,4.688h-4.1Zm-14.258-8.2q0.586,2.344,1.563,2.344a2.393,2.393,0,0,0,1.074-.391,2.3,2.3,0,0,0,.781-1.953,3.931,3.931,0,0,0-1.367-3.027,19.869,19.869,0,0,0-4.98-3.223l-0.391.586a15.33,15.33,0,0,1,3.32,5.664h0ZM270.8,80.484l1.953-1.367-2.735-2.734-2.148,2.148H260.25l1.758,1.758A17.757,17.757,0,0,1,266.7,79.7h1.563V95.914q-4.1,2.541-7.422,4.492l2.539,2.734a18.266,18.266,0,0,1,2.93-3.613q2.343-2.44,3.027-2.539t3.223,2.637a14.016,14.016,0,0,0,5.566,4,35.983,35.983,0,0,0,9.277,1.855,133.962,133.962,0,0,0,15.235.391q0.389-2.345,3.515-2.93v-0.781q-9.572.783-15.234,0.781-2.929,0-7.715-.488a17.509,17.509,0,0,1-7.812-2.442,18.924,18.924,0,0,1-4.59-3.906V80.484ZM317.672,65.25a28.071,28.071,0,0,1,4.883,7.227q0.585,1.955,1.367,1.953a2.186,2.186,0,0,0,1.172-.977,3.315,3.315,0,0,0,.39-2.832q-0.393-1.854-7.226-5.957Zm13.476,11.719H312.984l1.758,1.758a17.765,17.765,0,0,1,4.688-.586h11.523a39.775,39.775,0,0,1-7.227,16.7,49.3,49.3,0,0,1-12.695,12.011l0.391,0.586A41.382,41.382,0,0,0,324.9,97.476q6.637-7.031,9.18-19.336h17.187q-1.756,20.508-2.734,22.461a3.458,3.458,0,0,1-3.125,2.051,58.032,58.032,0,0,1-8.789-.879v0.977q6.834,1.364,8.008,4.687a11.667,11.667,0,0,0,4.883-2.539,9.152,9.152,0,0,0,2.636-5.175q0.683-3.415,2.051-21l1.758-1.562-3.516-2.734-1.562,2.539h-16.6q0.778-5.663,1.367-11.328l1.954-1.367-5.274-2.539a90.467,90.467,0,0,1-1.172,15.234h0Zm3.125,7.813q6.249,5.081,8.2,8.2,1.365,2.151,1.954,2.148a1.257,1.257,0,0,0,.781-0.977,5.241,5.241,0,0,0,.39-1.953,4.91,4.91,0,0,0-.976-2.637Q343.645,88.1,334.664,84Zm54.3-5.469H374.117l1.758,1.758a17.763,17.763,0,0,1,4.687-.586h8.008V99.43q0,2.152-.195,8.2l3.125-1.172q-0.2-2.737-.195-4.883V80.484h15.039l-3.907-3.906L399.7,79.312h-8.4V65.64l1.757-1.367-4.687-2.344q0.192,3.127.195,6.25V79.312Zm-16.211-.781,1.563-1.172-2.93-1.758q1.363-2.93,4.688-9.961l1.562-1.172-4.492-2.734a93.961,93.961,0,0,1-5.762,16.309,69.266,69.266,0,0,1-6.543,11.231l0.586,0.586a56.773,56.773,0,0,0,8.594-11.719v24.219q0,1.95-.195,5.469l3.125-1.563q-0.2-4.494-.2-7.617V78.531Zm64.844-12.3-4.3-3.711A53.48,53.48,0,0,1,425.094,75.7a75.936,75.936,0,0,1-13.672,13.184l0.39,0.781A67.126,67.126,0,0,0,434.664,67.2Zm-6.445,25.879A118.766,118.766,0,0,0,441.89,78.531l2.149-.977-4.1-3.32a56.878,56.878,0,0,1-11.718,17.871q-7.228,7.324-9.766,7.324l2.734,4.688q2.148-2.537,25.586-4.883,1.173,2.737,1.953,4.883c0.391,0.909.714,1.367,0.977,1.367a2.549,2.549,0,0,0,1.269-1.074,4.031,4.031,0,0,0,.879-2.637,10.322,10.322,0,0,0-.586-2.832Q450.68,97.087,440.133,88.3l-0.586.586a63,63,0,0,1,6.64,9.375q-17.775.98-23.437,1.172A73.167,73.167,0,0,0,430.758,92.105Z"/>
</svg>
