<svg xmlns="http://www.w3.org/2000/svg" width="568" height="60" viewBox="0 0 568 60">
  <defs>
    <style>
      .cls-1 {
        fill: #fff;
        fill-rule: evenodd;
      }
    </style>
  </defs>
  <path id="_24_07_17" data-name="24/07/17" class="cls-1" d="M359.528,24.512a29.773,29.773,0,0,1-5.29,6.771q-4.022,4.022-6.453,6.982a35.049,35.049,0,0,0-3.491,4.867v2.751h19.677l1.27-9.1h-1.27a8.637,8.637,0,0,1-1.692,4.443,4.008,4.008,0,0,1-3.174,1.481H346.621a32.2,32.2,0,0,1,3.914-4.972q3.279-3.7,9.416-9.627a15.4,15.4,0,0,0,3.7-4.867,12.142,12.142,0,0,0,1.164-5.078,8.821,8.821,0,0,0-2.434-6.348q-2.434-2.539-7.511-2.539a11.249,11.249,0,0,0-6.771,2.328,7.877,7.877,0,0,0-3.174,6.771,3.333,3.333,0,0,0,.741,2.433,2.705,2.705,0,0,0,2.01.741,2.155,2.155,0,0,0,1.587-.529,2.159,2.159,0,0,0,.529-1.587,2.823,2.823,0,0,0-.635-1.693,2.864,2.864,0,0,1-.846-2.116,4.223,4.223,0,0,1,1.8-3.491,6.935,6.935,0,0,1,4.338-1.375,6.276,6.276,0,0,1,5.078,2.01,8.821,8.821,0,0,1,1.693,5.819A12.7,12.7,0,0,1,359.528,24.512ZM388.092,34.88h5.713v-1.27h-5.713V9.278h-2.116L370.53,33.822V34.88h14.177v6.982a2.655,2.655,0,0,1-.741,2.116,3.733,3.733,0,0,1-2.433.635h-2.327v1.269H393.17V44.613h-1.9a3.793,3.793,0,0,1-2.327-.635,2.469,2.469,0,0,1-.847-2.116V34.88Zm-3.385-20.468v19.2H372.435l12.06-19.2h0.212Zm35.97-8.943L419.2,4.623,397.614,49.9l1.481,0.846Zm20.736,10.05a35.784,35.784,0,0,1,1.692,12.166q0,8.044-1.8,12.484t-4.972,4.443q-2.967,0-4.973-4.443t-2.01-12.484q0-7.617,2.01-12.166t4.973-4.549Q439.716,10.971,441.413,15.52Zm2.645,25.814q3.065-4.969,3.068-13.647t-3.068-13.542q-3.07-4.865-7.723-4.866-4.87,0-7.935,5.078t-3.068,13.33q0,8.887,3.174,13.753t7.829,4.866Q440.987,46.306,444.058,41.334ZM473.786,9.7H454.743l-1.481,8.887,1.269,0.212a9.3,9.3,0,0,1,2.01-4.443,4.812,4.812,0,0,1,3.7-1.481h10.579q-7.83,14.178-9.627,20.1a35.431,35.431,0,0,0-1.8,9.945,3.693,3.693,0,0,0,.74,2.645,2.436,2.436,0,0,0,1.8.741,2.226,2.226,0,0,0,1.8-.635,3.765,3.765,0,0,0,.529-2.327V39.535a17.272,17.272,0,0,1-.211-2.327A34.1,34.1,0,0,1,466.7,25.253a84.949,84.949,0,0,1,7.089-14.071V9.7Zm28.141-4.232-1.481-.846L478.864,49.9l1.481,0.846Zm16.715,3.6a5.64,5.64,0,0,1-2.433,2.539,8.737,8.737,0,0,1-4.126.846h-1.9v1.27h3.809a2.165,2.165,0,0,1,1.586.529,1.872,1.872,0,0,1,.529,1.375v25.6a3.214,3.214,0,0,1-.952,2.539,4.554,4.554,0,0,1-3.068.846h-1.9v1.269h15.446V44.613h-2.116a4.617,4.617,0,0,1-2.962-.846,3.043,3.043,0,0,1-1.058-2.539V9.066h-0.847ZM555.036,9.7H535.993l-1.481,8.887,1.269,0.212a9.3,9.3,0,0,1,2.01-4.443,4.812,4.812,0,0,1,3.7-1.481h10.579q-7.83,14.178-9.627,20.1a35.431,35.431,0,0,0-1.8,9.945,3.693,3.693,0,0,0,.74,2.645,2.436,2.436,0,0,0,1.8.741,2.227,2.227,0,0,0,1.8-.635,3.765,3.765,0,0,0,.529-2.327V39.535a17.272,17.272,0,0,1-.211-2.327,34.1,34.1,0,0,1,2.644-11.955,84.949,84.949,0,0,1,7.089-14.071V9.7Z"/>
</svg>
