<svg xmlns="http://www.w3.org/2000/svg" width="688" height="350" viewBox="0 0 688 350">
  <defs>
    <style>
      .cls-1 {
        fill: #fff;
        fill-rule: evenodd;
      }
    </style>
  </defs>
  <path id="浪花" class="cls-1" d="M322.906,205.27l-18.75-23.437q-12.909,17.577-53.906,49.218a197.325,197.325,0,0,1-28.125-53.906H277.2v9.375l16.406-7.031q-1.18-11.7-1.171-90.234l10.546-7.031-18.75-15.234-8.2,10.547H237.359q9.366-9.366,8.2-18.164-1.18-8.789-35.156-25.2l-2.344,3.516Q227.976,62.3,229.156,77.536H184.625L168.219,66.989q1.154,11.728,1.172,35.156V261.52c0.769,12.506-.788,20.691-4.688,24.61l12.891,19.921q11.7-17.577,57.422-41.015l-1.172-4.688L184.625,279.1V177.145h31.641q16.4,82.041,87.89,124.219,8.185-15.243,26.953-16.406V280.27q-44.548-8.184-77.343-44.531,36.309-23.429,56.25-30.469h12.89Zm-45.7-120.7v39.844H184.625V84.567H277.2Zm0,46.875v38.672H184.625V131.442H277.2ZM149.469,89.255q-41.034,112.5-48.047,122.461-7.031,9.969-10.547,11.132a21.933,21.933,0,0,1-7.031,1.172q-7.031,0-19.922-2.344v4.688q17.578,4.7,22.851,9.375,5.274,4.7,5.273,12.891,0,7.031-3.516,18.75-3.516,10.547-3.516,17.578c0,5.456,2.527,9.173,7.617,11.133,5.072,1.94,8.789,2.929,11.133,2.929,3.112,0,4.687-1.574,4.687-4.687q0-9.393.586-30.469a277.242,277.242,0,0,1,2.93-35.742q2.334-14.64,42.187-137.7ZM60.406,119.723q17.578,21.094,23.438,36.328,3.516,11.729,7.031,11.719,1.154,0,5.859-5.273c3.113-3.516,4.871-8.972,5.274-16.406q0.576-11.124-39.258-29.883ZM87.359,51.755q17.578,19.94,23.438,36.328,3.516,10.547,7.031,10.547,1.153,0,5.86-7.031c3.112-4.687,4.687-8.972,4.687-12.891,0-2.344-.989-5.658-2.93-9.961Q122.507,62.32,89.7,48.239Zm375,29.3V55.27l7.032-7.031L444.781,36.52q1.154,22.275,1.172,44.531H358.062L368.609,91.6q12.882-3.516,22.266-3.516h55.078v36.328l16.406-8.2V88.083H523.3v35.156l16.406-8.2V88.083h87.891L604.156,64.645,583.062,81.052H539.7V55.27l7.031-7.031L522.125,37.692q1.154,21.094,1.172,43.359H462.359Zm-19.921,97.266-12.891-4.687q9.366-14.062,19.922-31.641l10.547-7.031L437.75,120.9q-4.7,18.759-26.367,53.906a231.749,231.749,0,0,1-54.492,60.938l2.343,4.687a251.746,251.746,0,0,0,58.594-49.218q0,86.736-1.172,116.015l18.75-9.375q-1.18-22.275-1.172-112.5Zm7.031,60.938,1.172,4.687q36.309-11.7,59.765-23.437v55.078q0,21.093,23.438,21.093h63.281a68.652,68.652,0,0,0,18.75-2.343q8.186-2.363,15.234-15.235-10.547-2.334-12.89-15.82a173.589,173.589,0,0,1-2.344-29.883h-5.859q0,21.094-2.344,35.156-2.363,14.063-14.063,14.063h-50.39q-16.425,0-16.407-14.063V213.473a555.5,555.5,0,0,0,72.657-48.047l11.719-2.343-19.922-19.922q-22.275,29.305-64.454,56.25V154.88l9.376-9.375-26.954-12.891q1.154,36.338,1.172,75-25.789,16.425-60.937,31.641h0Z"/>
</svg>
