<svg xmlns="http://www.w3.org/2000/svg" width="208" height="60" viewBox="0 0 208 60">
  <defs>
    <style>
      .cls-1 {
        fill: #fff;
        fill-rule: evenodd;
      }
    </style>
  </defs>
  <path id="个影像" class="cls-1" d="M82.812,50.092q-0.2-3.712-.2-7.031V23.529l1.563-1.172-4.687-2.539q0.192,4.884.2,8.4V41.107q0,3.127-.2,10.938ZM79.687,5.756a45.3,45.3,0,0,1-7.519,13.281A38.924,38.924,0,0,1,58.2,30.365l0.2,0.781a45.8,45.8,0,0,0,13.477-8.2,52.515,52.515,0,0,0,9.57-12.5,58.59,58.59,0,0,0,8.2,11.524,38.918,38.918,0,0,0,9.961,7.422,5.2,5.2,0,0,1,4.492-2.539V26.068a26.351,26.351,0,0,1-11.035-4.785q-5.763-4-11.035-12.012L83.789,8.1Zm54.1,3.906-2.93-2.344-1.367,1.758H114.844l-2.735-1.563q0.192,2.93.2,7.031t-0.2,8.008l2.735-1.172V20.4h4.687q2.147,2.93,1.953,4.492H108.4l1.758,1.758a17.765,17.765,0,0,1,4.688-.586h21.679l-3.515-3.516L130.664,24.9h-7.422a1.861,1.861,0,0,0,.586-2.051q-0.393-1.071-3.32-2.441h9.179v1.758l2.735-1.172q-0.2-2.93-.2-10.156Zm-4.1.586v4.1H114.844v-4.1h14.843Zm0,5.274v3.711H114.844V15.521h14.843ZM115.625,47.552q4.293,1.172,4.492,3.516a4.323,4.323,0,0,0,3.516-4.883v-9.18H129.3v1.953l2.734-.977q-0.2-3.516-.195-7.617l1.367-1.172-2.93-2.148L129.1,28.8H115.234L112.5,27.435q0.192,2.541.195,5.176T112.5,38.959l2.734-.977V37.006h5.86v8.4c0,1.3-.458,1.919-1.368,1.855s-2.279-.229-4.1-0.488v0.781ZM112.4,45.111a34.525,34.525,0,0,1-4.2,4.785l0.391,0.586a34.1,34.1,0,0,0,5.859-5.078,18.16,18.16,0,0,1,4.688-3.711l-3.321-2.539A22.962,22.962,0,0,1,112.4,45.111Zm13.184-4.59a40.014,40.014,0,0,1,3.32,3.32,12.892,12.892,0,0,1,1.758,2.539c0.391,0.91.781,1.367,1.172,1.367a1.07,1.07,0,0,0,.879-0.977,6.186,6.186,0,0,0,.293-1.758,3.4,3.4,0,0,0-.684-1.953q-0.687-.975-6.348-3.125ZM129.3,29.974v5.859H115.234V29.974H129.3ZM141.992,14.74a65.213,65.213,0,0,1-6.25,6.836l0.391,0.586a58.784,58.784,0,0,0,8.4-7.031q3.9-4.1,5.86-4.492L146.68,7.513A37.428,37.428,0,0,1,141.992,14.74Zm1.856,13.086a47.714,47.714,0,0,1-8.692,7.617l0.391,0.586A37.691,37.691,0,0,0,145.7,29q5.274-4.88,6.836-5.078l-3.516-3.125A39.5,39.5,0,0,1,143.848,27.826ZM141.6,43.353a47.85,47.85,0,0,1-12.3,7.52l0.195,0.586a40.063,40.063,0,0,0,9.375-3.906,49.781,49.781,0,0,0,9.18-6.641q4.1-3.708,6.054-4.1l-3.125-3.32A48.4,48.4,0,0,1,141.6,43.353Zm28.321-23.535-2.149-1.367q0.975-1.758,4.3-9.18l1.563-.781-4.1-2.344a75.19,75.19,0,0,1-3.906,11.035A73.2,73.2,0,0,1,158.2,30.56l0.586,0.586a100.594,100.594,0,0,0,7.031-9.18V45.013q0,2.93-.195,6.836l2.93-1.562v-29.1Zm16.015-1.758a34.984,34.984,0,0,1-.781,5.664h-6.445V18.06h7.226Zm10.547,0v5.664H187.7a34.736,34.736,0,0,0,.977-5.664h7.812Zm-17.773-1.172-1.367-.586q1.363-1.561,4.1-4.492h9.375l-3.32,5.078h-8.789Zm21.094,31.836q1.172-1.758,4.3-1.758V46.185a17.145,17.145,0,0,1-7.128-5.762,26.314,26.314,0,0,1-4.4-7.91,34.5,34.5,0,0,1,6.055-1.953l-2.344-3.32a27.63,27.63,0,0,1-7.422,5.664,32.791,32.791,0,0,0-3.711-4.492,28.549,28.549,0,0,0,2.149-3.516h9.179v1.758l2.93-.977q-0.2-2.147-.195-7.226l1.367-1.172-2.93-2.344-1.367,1.953h-7.617a28.4,28.4,0,0,1,3.125-3.027A8.787,8.787,0,0,1,195.7,11.81l-2.734-2.93-1.953,1.758h-8.79a6.256,6.256,0,0,1,2.93-2.539L181.25,5.756a33.028,33.028,0,0,1-3.516,6.934,75.947,75.947,0,0,1-6.64,8.5l0.586,0.391a38.4,38.4,0,0,0,4.492-3.906q0,5.859-.2,9.18l2.735-.781V24.9h6.055a19.021,19.021,0,0,1-5.372,6.055,48.819,48.819,0,0,1-7.324,4.492l0.391,0.586a35.493,35.493,0,0,0,12.109-6.836q0.39,0.783,1.172,2.148a35.442,35.442,0,0,1-7.324,6.445q-3.224,1.955-7.129,3.906l0.391,0.586a46.4,46.4,0,0,0,6.543-2.637,35.116,35.116,0,0,0,8.691-5.957,21.677,21.677,0,0,1,.977,2.539,41.627,41.627,0,0,1-8.2,7.227,63.6,63.6,0,0,1-10.351,5.859l0.195,0.586a46.844,46.844,0,0,0,19.141-10.742,21.748,21.748,0,0,1,.195,5.078c-0.131,1.825-.555,2.863-1.269,3.125a7.807,7.807,0,0,1-2.637.391,35.045,35.045,0,0,1-4.883-.391v0.781q5.076,1.364,5.078,3.906a7.707,7.707,0,0,0,5.469-3.418,11.422,11.422,0,0,0,1.172-6.934,19.621,19.621,0,0,0-2.344-7.812A11.407,11.407,0,0,1,191.8,32.9q2.343,10.158,8.008,15.82h0Z"/>
  <path id="_12" data-name="12" class="cls-1" d="M14.895,11.083a5.642,5.642,0,0,1-2.433,2.539,8.736,8.736,0,0,1-4.126.846h-1.9v1.27H10.24a2.169,2.169,0,0,1,1.587.529,1.874,1.874,0,0,1,.529,1.375v25.6a3.215,3.215,0,0,1-.952,2.539,4.556,4.556,0,0,1-3.068.846h-1.9V47.9H21.877V46.63H19.761a4.62,4.62,0,0,1-2.962-.846,3.044,3.044,0,0,1-1.058-2.539V11.083H14.895ZM45.364,26.529a29.762,29.762,0,0,1-5.29,6.771q-4.022,4.022-6.453,6.982a35.131,35.131,0,0,0-3.491,4.867V47.9H49.807l1.27-9.1h-1.27a8.637,8.637,0,0,1-1.693,4.443,4.006,4.006,0,0,1-3.174,1.481H32.457a32.19,32.19,0,0,1,3.914-4.972q3.278-3.7,9.416-9.627a15.4,15.4,0,0,0,3.7-4.867,12.132,12.132,0,0,0,1.164-5.078,8.821,8.821,0,0,0-2.433-6.348q-2.435-2.539-7.511-2.539a11.248,11.248,0,0,0-6.771,2.327,7.877,7.877,0,0,0-3.174,6.771,3.333,3.333,0,0,0,.741,2.433,2.705,2.705,0,0,0,2.01.741,1.87,1.87,0,0,0,2.116-2.116A2.821,2.821,0,0,0,35,19.758a2.863,2.863,0,0,1-.846-2.116,4.223,4.223,0,0,1,1.8-3.491,6.933,6.933,0,0,1,4.338-1.375,6.274,6.274,0,0,1,5.078,2.01A8.819,8.819,0,0,1,47.056,20.6,12.7,12.7,0,0,1,45.364,26.529Z"/>
</svg>
