<svg xmlns="http://www.w3.org/2000/svg" width="228" height="60" viewBox="0 0 228 60">
  <defs>
    <style>
      .cls-1 {
        fill: #fff;
        fill-rule: evenodd;
      }
    </style>
  </defs>
  <path id="个影像" class="cls-1" d="M63.055,50.875q-0.2-3.712-.2-7.031V24.312l1.563-1.172L59.734,20.6q0.192,4.884.2,8.4V41.89q0,3.127-.2,10.938ZM59.93,6.539A45.3,45.3,0,0,1,52.41,19.82,38.924,38.924,0,0,1,38.445,31.148l0.2,0.781a45.8,45.8,0,0,0,13.477-8.2,52.517,52.517,0,0,0,9.57-12.5,58.589,58.589,0,0,0,8.2,11.523,38.918,38.918,0,0,0,9.961,7.422,5.2,5.2,0,0,1,4.492-2.539V26.851a26.349,26.349,0,0,1-11.035-4.785q-5.763-4-11.035-12.012l1.758-1.172Zm54.1,3.906L111.1,8.1l-1.367,1.758H95.086L92.351,8.3q0.192,2.93.2,7.031t-0.2,8.008l2.734-1.172V21.187h4.688q2.148,2.93,1.953,4.492H88.64L90.4,27.437a17.763,17.763,0,0,1,4.688-.586h21.679l-3.515-3.516-2.344,2.344h-7.422a1.859,1.859,0,0,0,.586-2.051q-0.393-1.071-3.32-2.441h9.18v1.758l2.734-1.172q-0.2-2.93-.2-10.156Zm-4.1.586v4.1H95.086v-4.1H109.93Zm0,5.273v3.711H95.086V16.3H109.93ZM95.867,48.336q4.294,1.172,4.492,3.516a4.323,4.323,0,0,0,3.516-4.883v-9.18h5.664v1.953l2.734-.977q-0.2-3.516-.195-7.617l1.367-1.172-2.93-2.149-1.171,1.758H95.476l-2.734-1.367q0.192,2.541.2,5.176t-0.2,6.348l2.734-.977V37.789h5.86v8.4c0,1.3-.458,1.92-1.367,1.855s-2.28-.229-4.1-0.488v0.781Zm-3.223-2.441a34.577,34.577,0,0,1-4.2,4.785l0.391,0.586A34.1,34.1,0,0,0,94.7,46.187a18.164,18.164,0,0,1,4.688-3.711l-3.32-2.539A22.977,22.977,0,0,1,92.644,45.894Zm13.184-4.59a40.014,40.014,0,0,1,3.32,3.32,12.846,12.846,0,0,1,1.758,2.539c0.391,0.909.781,1.367,1.172,1.367a1.068,1.068,0,0,0,.879-0.977,6.186,6.186,0,0,0,.293-1.758,3.4,3.4,0,0,0-.684-1.953q-0.687-.975-6.347-3.125Zm3.711-10.547v5.859H95.476V30.758h14.063Zm12.695-15.234a65.2,65.2,0,0,1-6.25,6.836l0.391,0.586a58.783,58.783,0,0,0,8.4-7.031q3.9-4.1,5.86-4.492L126.922,8.3A37.43,37.43,0,0,1,122.234,15.523Zm1.856,13.086a47.714,47.714,0,0,1-8.692,7.617l0.391,0.586a37.677,37.677,0,0,0,10.156-7.031q5.274-4.88,6.836-5.078l-3.516-3.125A39.443,39.443,0,0,1,124.09,28.609Zm-2.246,15.527a47.858,47.858,0,0,1-12.3,7.52l0.195,0.586a40.058,40.058,0,0,0,9.375-3.906,49.781,49.781,0,0,0,9.18-6.641q4.1-3.708,6.055-4.1l-3.125-3.32A48.459,48.459,0,0,1,121.844,44.137ZM150.164,20.6l-2.149-1.367q0.975-1.758,4.3-9.18l1.563-.781-4.1-2.344a75.195,75.195,0,0,1-3.906,11.035,73.2,73.2,0,0,1-7.422,13.379l0.586,0.586a100.58,100.58,0,0,0,7.031-9.18V45.8q0,2.93-.2,6.836l2.93-1.562v-29.1Zm16.016-1.758a35.089,35.089,0,0,1-.782,5.664h-6.445V18.844h7.227Zm10.546,0v5.664h-8.789a34.737,34.737,0,0,0,.977-5.664h7.812Zm-17.773-1.172-1.367-.586q1.363-1.561,4.1-4.492h9.375l-3.32,5.078h-8.789Zm21.094,31.836q1.172-1.758,4.3-1.758V46.969a17.141,17.141,0,0,1-7.129-5.762,26.312,26.312,0,0,1-4.4-7.91,34.486,34.486,0,0,1,6.055-1.953l-2.344-3.32a27.63,27.63,0,0,1-7.422,5.664A32.791,32.791,0,0,0,165.4,29.2a28.541,28.541,0,0,0,2.149-3.516h9.179v1.758l2.93-.977q-0.2-2.147-.195-7.227l1.367-1.172-2.93-2.344-1.367,1.953h-7.617a28.409,28.409,0,0,1,3.125-3.027,8.786,8.786,0,0,1,3.906-2.051l-2.734-2.93-1.953,1.758h-8.789A6.25,6.25,0,0,1,165.4,8.883l-3.906-2.344a33.031,33.031,0,0,1-3.516,6.934,75.956,75.956,0,0,1-6.64,8.5l0.586,0.391a38.4,38.4,0,0,0,4.492-3.906q0,5.859-.195,9.18l2.734-.781V25.68h6.055a19.017,19.017,0,0,1-5.371,6.055,48.888,48.888,0,0,1-7.325,4.492l0.391,0.586a35.484,35.484,0,0,0,12.109-6.836q0.39,0.783,1.172,2.148a35.439,35.439,0,0,1-7.324,6.445q-3.222,1.955-7.129,3.906l0.391,0.586a46.4,46.4,0,0,0,6.543-2.637,35.116,35.116,0,0,0,8.691-5.957,21.673,21.673,0,0,1,.977,2.539,41.648,41.648,0,0,1-8.2,7.227,63.609,63.609,0,0,1-10.352,5.859l0.195,0.586a46.835,46.835,0,0,0,19.141-10.742,21.748,21.748,0,0,1,.2,5.078c-0.131,1.825-.555,2.863-1.269,3.125a7.8,7.8,0,0,1-2.637.391,35.046,35.046,0,0,1-4.883-.391v0.781q5.078,1.364,5.078,3.906a7.708,7.708,0,0,0,5.469-3.418,11.422,11.422,0,0,0,1.172-6.934,19.62,19.62,0,0,0-2.344-7.812,11.405,11.405,0,0,1,2.344-.977q2.343,10.158,8.008,15.82h0Z"/>
  <path id="_9" data-name="9" class="cls-1" d="M14.16,16.615a5.707,5.707,0,0,1,5.29-2.857,5.813,5.813,0,0,1,5.5,3.068,16.871,16.871,0,0,1,1.693,8.146,9.168,9.168,0,0,1-2.328,5.5,6.844,6.844,0,0,1-5.5,2.962A5.442,5.442,0,0,1,14.266,31q-1.8-2.43-1.8-7.088A14.135,14.135,0,0,1,14.16,16.615Zm9.31,17.033a10.532,10.532,0,0,0,3.174-4.232q-0.427,9.948-2.751,14.176t-6.136,4.232a5.768,5.768,0,0,1-1.164-.106,1.422,1.422,0,0,1-.74-0.317,2.177,2.177,0,0,1-.423-0.741,3.719,3.719,0,0,1-.212-1.375,5.447,5.447,0,0,0-.423-2.222,1.667,1.667,0,0,0-1.693-.952,1.955,1.955,0,0,0-1.8.846,3.171,3.171,0,0,0-.529,1.693,3.848,3.848,0,0,0,2.01,3.386,8.723,8.723,0,0,0,4.761,1.27q6.134,0,9.627-5.819t3.491-14.705q0-8.039-2.962-12.272a9.518,9.518,0,0,0-8.252-4.232,9.514,9.514,0,0,0-7.829,3.385A12.981,12.981,0,0,0,8.87,24.127q0,5.926,2.539,8.569a8.939,8.939,0,0,0,6.771,2.645A8.189,8.189,0,0,0,23.47,33.648Z"/>
</svg>
