<svg xmlns="http://www.w3.org/2000/svg" width="188" height="60" viewBox="0 0 188 60">
  <defs>
    <style>
      .cls-1 {
        fill: #fff;
        fill-rule: evenodd;
      }
    </style>
  </defs>
  <path id="个内容" class="cls-1" d="M56,52.749h4.443V22.525H56V52.749ZM56.541,5.728q-7.422,12.549-22.656,21,1.416,2.1,2.49,3.857,14.7-8.789,21.924-20.068Q65.672,22.378,80.027,29.9q1.074-2,2.588-4.395A44.291,44.291,0,0,1,60.643,6.851l0.732-1.123H56.541ZM88.23,52.31h3.955V17.2H106.15q-0.39,7.324-2.734,11.084-2.93,5.127-10.889,9.326a38.112,38.112,0,0,1,2.734,3.516q9.326-5.322,12.646-12.5a164.01,164.01,0,0,1,12.158,11.865l2.979-3.174A182.476,182.476,0,0,0,109.08,25.112a39.355,39.355,0,0,0,1.074-7.91h14.063V44.888q0,3.173-3.076,3.076-3.076-.049-7.715-0.439a33.47,33.47,0,0,1,.732,4.248q4.688,0.1,7.91.1,6.1,0.049,6.1-6.152V13.491h-17.92v-8.4h-4v8.4H88.23V52.31Zm68.653-31.348q-8.008,9.131-23.145,15.527a20.423,20.423,0,0,1,2.149,3.467,69.541,69.541,0,0,0,6.494-3.076V52.9h3.906V50.7h23.877v2.2h3.906V36.441a61.317,61.317,0,0,0,6.1,2.588,32.066,32.066,0,0,1,2.392-4.15,49.419,49.419,0,0,1-22.412-12.3q0.44-.537.83-0.976Zm-20.8-2.1h3.906V13.98h36.426v4.688h3.955v-8.2H161.717Q160.1,7.339,158.3,4.556l-3.76,1.709q1.367,2.246,2.441,4.2h-20.9v8.4Zm34.082,28.32H146.287v-8.3h23.877v8.3Zm1.758-11.816h-27A70.642,70.642,0,0,0,157.957,25.21a54.422,54.422,0,0,0,13.965,10.156h0Zm-35.4-10.986a25.057,25.057,0,0,1,2.246,3.369q6.1-2.93,15.088-8.447l-2.343-3.174a87.056,87.056,0,0,1-14.991,8.252h0ZM162.5,19.2q8.838,4.395,14.893,8.105l2.246-3.467q-7.764-4.3-15.088-7.666Z"/>
  <path id="_1" data-name="1" class="cls-1" d="M25.7,52.312V10.444H23.746a30.356,30.356,0,0,1-5.686,3.716A34.567,34.567,0,0,1,11.1,17.03v5.078a24.508,24.508,0,0,0,5.356-2.116,17.409,17.409,0,0,0,4.113-2.724V52.312H25.7Z"/>
</svg>
