<svg xmlns="http://www.w3.org/2000/svg" width="690" height="68" viewBox="0 0 690 68">
  <defs>
    <style>
      .cls-1 {
        fill: #fff;
        fill-rule: evenodd;
      }
    </style>
  </defs>
  <path id="用一万个日常_搏一刻热泪盈眶" data-name="用一万个日常, 搏一刻热泪盈眶" class="cls-1" d="M34.945,56.036V40.508H49.3v8.984q0,2.88-3.027,2.881-2.637,0-6.885-.293,0.488,2.441.732,4.053,4.2,0.146,7.568.146,5.517,0,5.518-5.811V11.651H13.412V29.083a79.439,79.439,0,0,1-1.074,14.941,26.21,26.21,0,0,1-4.3,9.961q1.611,1.758,2.881,3.369Q16,50.664,16.83,40.508H31.039V56.036h3.906Zm0-28.174H49.3v9.131H34.945V27.862ZM49.3,24.346H34.945V15.264H49.3v9.082ZM17.318,27.862H31.039v9.131H17.1a80.13,80.13,0,0,0,.22-9.131h0Zm13.721-12.6v9.082H17.318V15.264H31.039ZM57.7,33.477h48.535v-4.3H57.7v4.3Zm50.684-16.943H123.1q-0.145,6.763-.61,12.109-0.976,16.553-14.7,24.9,1.758,1.953,2.881,3.467,14.184-8.692,16.015-26.563h18.555q-0.292,7.764-.879,14.6-0.537,6.983-5.762,6.592a77.32,77.32,0,0,1-9.472-.83q0.488,2.637.732,4.492,6.4,0.488,9.082.391,5.127-.049,7.08-2.246,2.05-2.393,2.49-7.812,0.635-8.936,1.123-18.9H126.986q0.317-4.761.513-10.205h27.954v-3.76h-47.07v3.76Zm71.289,40.332h4.443V26.641h-4.443V56.866Zm0.537-47.022q-7.422,12.549-22.656,21,1.415,2.1,2.49,3.857,14.7-8.789,21.924-20.068Q189.34,26.495,203.7,34.014q1.074-2,2.588-4.395A44.3,44.3,0,0,1,184.31,10.967l0.733-1.123h-4.834ZM214.535,56.28h4.15V52.813H245.2V56.28h4.15V11.944H214.535V56.28ZM245.2,33.868V49.249H218.685V33.868H245.2Zm0-18.262v14.6H218.685v-14.6H245.2Zm21.191,26.9h13.672V56.963h3.907V42.51H298.08V47.1q0,2.637-3.027,2.637-2.539,0-5.518-.293,0.439,2.051.732,3.76,3.224,0.049,5.713.049,5.908,0,5.909-5.615v-8.35h-17.92V34.7h9.668v1.758h3.71V24H266.781V36.456h3.711V34.7h9.57v4.59h-17.48V53.2h3.808V42.51Zm-6.689-16.5h3.809V20.684h36.914v5.322h3.808V17.364H293.1q3.882-2.588,7.373-5.176L297.64,9.307a88.4,88.4,0,0,1-7.617,5.615l1.953,2.441H283.92V8.819h-3.906v8.545H271.4l2.613-2.783Q270.3,11.9,266.635,9.454l-2.246,2.539q3.538,2.588,6.811,5.371H259.7v8.643Zm33.936,5.566H270.492V27.129h23.145v4.443Zm17.334,12.646-3.028,13.013h3.467l4.175-13.013h-4.614ZM379.5,39.19V21.026H367.2V17.8h14.893V14.678H367.2V9.014h-3.418v5.664H349.569V17.8h14.209v3.223H351.669V40.167h3.418V36.456h8.691v3.174H367.2V36.456h8.887V39.19H379.5Zm-44.385-.2q3.222-1.123,6.2-2.1V50.518q0,2.246-2.49,2.246-1.319,0-3.857-.2a36.443,36.443,0,0,1,.586,3.76q2.733,0.049,5.078-.049,4.2-.146,4.2-5.176V35.772q2.685-.879,5.176-1.611a28.486,28.486,0,0,1-.293-3.711q-2.49.83-4.883,1.563V21.807h4.98V18.536h-4.98V9.21h-3.516v9.326h-6.2v3.272h6.2v11.23q-3.418.977-6.689,1.807ZM348.4,45.342h23.438v5.176q0,2.637-2.735,2.637t-6.494-.342q0.39,1.953.586,3.564,2.929,0.1,6.4.1,5.762,0,5.761-5.517V45.342h7.666V42.217H375.35V39.385h-3.515v2.832H348.4v3.125Zm18.8-15.088h8.887v3.369H367.2V30.254Zm8.887-2.832H367.2V24.053h8.887v3.369Zm-21-3.369h8.691v3.369h-8.691V24.053Zm0,6.2h8.691v3.369h-8.691V30.254Zm4.687,22.705,2.344-2.588q-3.222-2.49-6.592-4.736l-2.2,2.441a69.225,69.225,0,0,1,6.445,4.883h0Zm18.75-41.113q-2.588-1.318-6.152-2.832l-1.514,2.49q3.224,1.465,6.153,3.076Zm6.006,21.631h48.535v-4.3H384.53v4.3Zm70.557-11.719a45.965,45.965,0,0,1-4.1,7.5q-7.056.269-9.033,0.317,2.906-4.345,6.665-10.791h15.6V15.264H450.936l2.246-1.221q-1.269-2.295-3.369-5.566l-3.369,1.709q1.758,2.613,3.2,5.078H435.9V18.78h8.4a73.113,73.113,0,0,1-5.127,8.838,10.126,10.126,0,0,1-2,2.246l1.025,3.223q4.835-.415,10.5-0.708a59.84,59.84,0,0,1-14.355,12.671,24.88,24.88,0,0,1,2.637,3.125q15.721-11.523,21.582-25.049Zm21.435,27.2q0,3.418-3.466,3.418a56.162,56.162,0,0,1-6.153-.44,40.332,40.332,0,0,1,.733,4q3.954,0.1,6.738.049,5.957-.049,5.957-5.908V9.551h-3.809v39.4ZM459.579,30.3a49.954,49.954,0,0,1-22.8,23.73,26.308,26.308,0,0,1,2.686,3.125,56.536,56.536,0,0,0,13.916-10.864q5.054,5.1,8.545,9.2l3.027-2.881q-4.614-4.638-9.277-8.96a56.394,56.394,0,0,0,7.373-11.743ZM467.1,45.342h3.663V14.483H467.1V45.342Zm41.285-15.063a19.606,19.606,0,0,1-9.4,10.474q1.611,1.66,2.832,3.174a23.456,23.456,0,0,0,9.815-11.352q2.685,1.953,5.566,4.175l2.442-3.467q-3.321-2.295-6.763-4.517a39.628,39.628,0,0,0,1.172-9.351h7.592q-0.145,11.963.733,16.5,1.464,6.788,5.664,6.787,3.516,0,4.541-4.492,0.537-2.539,1.025-6.885-1.756-.488-3.613-1.172-0.342,4.151-.781,6.543-0.292,1.66-1.27,1.66-1.221,0-1.855-2.881-1.076-5.127-.635-19.58H514.12q0.1-4.2.1-7.373h-3.76q0.024,3.321-.073,7.373h-6.079v3.516h6a34.092,34.092,0,0,1-.805,7.2q-2.223-1.392-4.468-2.759l-2.1,2.783q2.613,1.66,5.445,3.638h0ZM485.848,32.7q3.858-1.2,6.788-2.124v5.591a2.309,2.309,0,0,1-2.588,2.637,27.157,27.157,0,0,1-4.346-.391q0.39,2.344.586,4,2.441,0.1,4.541.1,5.517,0,5.518-5.908V29.424q5.149-1.611,5.419-1.709-0.1-1.465-.1-3.711-2.637.855-5.322,1.685V19.317h5.761V15.948h-5.761V8.721h-3.711v7.227H485.7v3.369h6.934v7.446q-3.713,1.05-7.52,2.026ZM529.11,55.45l3.467-2.051q-3.126-5.224-6.3-9.912l-3.125,1.855q3.369,5.274,5.957,10.108h0Zm-43.652-.684q1.9,0.879,3.369,1.709a96.355,96.355,0,0,0,5.371-10.4L490.78,44.61a61.278,61.278,0,0,1-5.322,10.156h0Zm17.529,1.025,3.613-1.562q-2.393-4.981-4.638-9.082l-3.223,1.416q2.148,4.2,4.248,9.229h0Zm12.5-.44,3.565-1.514q-2.2-4.59-4.688-8.935l-3.223,1.416a79,79,0,0,1,4.346,9.033h0Zm35.254,1.416h3.809V53.692h21.484v3.027h3.809V11.7h-29.1V56.768Zm3.809-41.553h21.484v9.326H554.55V15.215ZM536.19,55.108l4.3,1.27q2.49-10.351,4.785-18.848-2-.683-4-1.465-2.1,9.571-5.078,19.043h0Zm0.489-42.92q5.42,4.541,8.154,7.324,1.221-1.318,2.881-3.027-3.468-3.027-8.545-6.982Zm-2.247,12.646q3.565,2.783,8.741,7.324,1.024-1.172,2.832-3.223-4.492-3.662-9.131-6.934Zm41.6,25.342H554.55V40.7h21.484v9.473Zm0-12.891H554.55V27.96h21.484v9.326Zm8.936,17.627h47.558V51.446h-5.273V37.969H590.487V51.446H584.97v3.467Zm18.457-24.8a38.913,38.913,0,0,1-9.131,3.955,18.573,18.573,0,0,1,1.953,3.027A37.3,37.3,0,0,0,606.6,32.11q3.711,2.344,6.5,4.15l2.246-2.881q-3.029-1.855-5.909-3.564A25.467,25.467,0,0,0,615.145,22V19.122H598.153a35.971,35.971,0,0,0,.391-4.687h20.117l-2.2,8.105h10.351q-0.146,3.028-.39,5.762-0.245,3.565-3.662,3.564-2.394,0-6.1-.293a35.914,35.914,0,0,1,.781,3.809q3.516,0.1,6.006.049,6.2-.049,6.592-6.445,0.292-3.613.586-9.668h-9.619l2.2-8.105H587.216v3.223h7.763q-0.39,13.184-10.5,19.336a13.983,13.983,0,0,1,2.588,2.93,24.7,24.7,0,0,0,10.4-14.551h13.818a18.783,18.783,0,0,1-4.883,5.859q-3.564-2.1-6.885-4l-2.05,2.442q3.173,1.953,5.957,3.662h0Zm1.66,11.23h7.568V51.446h-7.568V41.338Zm18.6,10.108h-7.568V41.338h7.568V51.446ZM594.052,41.338h7.568V51.446h-7.568V41.338Zm42.675,13.623h3.418V50.128h6.592v3.613h3.418V12.676H636.727V54.962Zm17.725,0.049h28.125V51.495H657.968V15.362h23.925V11.846H654.452V55.01Zm4.883-9.619H681.6v-3.32h-9.277v-7.52h7.129v-3.32h-7.129V24.2h8.2v-3.32H660.6V24.2h8.2v7.031h-7.519v3.32h7.519v7.52h-9.472v3.32Zm-19.19-6.836h6.592v8.252h-6.592V38.555Zm0-11.279h6.592v8.105h-6.592V27.276Zm6.592-3.223h-6.592V16h6.592v8.057Z"/>
</svg>
