<svg xmlns="http://www.w3.org/2000/svg" width="650" height="350" viewBox="0 0 650 350">
  <defs>
    <style>
      .cls-1 {
        fill: #fff;
        fill-rule: evenodd;
      }
    </style>
  </defs>
  <path id="当下_" data-name="当下 " class="cls-1" d="M46.113,297.1H278.145v17.578h24.316V134.79H192.305V26.1H167.988V134.79H54.609v20.8H278.145V205.1H63.984v20.8H278.145v50.391H46.113v20.8ZM278.438,40.161q-30.178,37.209-60.059,64.16l17.578,15.821a847.258,847.258,0,0,0,62.4-63.867ZM119.648,118.97l19.629-16.7A729.755,729.755,0,0,0,80.391,40.454L63.984,55.1a684.936,684.936,0,0,1,55.664,63.867h0Zm217.969-45.7H453.34V311.743H480V139.771q63.282,38.672,108.691,73.535l17.286-23.731q-45.413-31.639-112.5-71.191L480,137.134V73.267H622.383V49.243H337.617V73.267Z"/>
</svg>
