<svg xmlns="http://www.w3.org/2000/svg" width="690" height="68" viewBox="0 0 690 68">
  <defs>
    <style>
      .cls-1 {
        fill: #fff;
        fill-rule: evenodd;
      }
    </style>
  </defs>
  <path id="_那一定很难_也一定很酷_" data-name="“那一定很难, 也一定很酷”" class="cls-1" d="M74.643,11.822L70.786,23.589h4.321l2.856-11.768h-3.32Zm-8.35,0L62.436,23.589h4.321l2.856-11.768h-3.32ZM82.334,38.7h6.641Q87.534,48.516,81.7,53.741a36.216,36.216,0,0,1,2.539,3.272q7.007-6.519,8.5-18.311h9.155q-0.1,4.907-.268,8.691-0.2,4.1-3.467,4.15a57.63,57.63,0,0,1-6.934-.537,32.369,32.369,0,0,1,.83,4q3.662,0.2,6.738.2,6.249-.049,6.543-7.275,0.44-10.449.586-35.937H82.48V15.46h7.251q-0.025,4.541-.1,8.057H82.676v3.467h6.909q-0.147,6.738-.244,8.252H82.334V38.7ZM123.105,28.5q2.148-4.492,5.567-12.744v-4h-17.09V57.012h3.711V15.264h9.326q-2.345,6.152-5.908,14.111,6.885,5.664,6.933,11.231,0,5.078-4.077,5.322a21.392,21.392,0,0,1-5.639-.83q0.535,2.735.732,4.492a34.531,34.531,0,0,0,5.078.366q7.911-.244,7.91-9.3,0-6.445-6.543-12.158h0Zm-21.142,6.738H93.027q0.17-5.029.22-8.252h8.838q-0.049,4.444-.122,8.252h0Zm0.146-11.719H93.3q0.073-3.564.1-8.057h8.765q-0.024,4.248-.049,8.057h0Zm29.59,9.961h48.535v-4.3H131.7v4.3ZM184.14,57.11a32.256,32.256,0,0,0,7.544-10.937q5.177,8.935,16.187,8.936,8.935,0.293,20.9.146a29.755,29.755,0,0,1,1.416-4.053q-11.425.415-21.142,0.171V41.143h16.992V37.53H209.043V29.62h20.019V25.958H182.676V29.62H204.99V51.1q-7.959-1.2-11.743-9.253a51.256,51.256,0,0,0,1.782-8.423l-4.1-.635q-1.271,13.526-9.375,20.508a37.495,37.495,0,0,1,2.587,3.809h0Zm0.293-33.252h3.858V18.292h35.5v5.615h3.857V14.629H207.871l2.2-1.172q-2.246-2.734-4.15-4.932l-3.711,2q1.611,2,3.052,4.1H184.433v9.229Zm66.358,26.025a5.19,5.19,0,0,1-1.66,3.857l2.636,3.369a18.752,18.752,0,0,1,2.832-2.1q6.006-3.272,9.473-4.785a37.4,37.4,0,0,1-.781-3.662q-5.274,2.588-8.789,4V34.307h4.687q4.2,13.672,18.067,22.021,1.562-1.856,3.027-3.516a35.362,35.362,0,0,1-11.23-8.008q4.638-2.49,9.179-5.273L275.84,36.5q-4.1,2.979-8.838,5.811a29.334,29.334,0,0,1-4.2-8.008h9.326v1.221h3.711V11.553H250.791v38.33Zm-17.383-8.2a67.567,67.567,0,0,0,6.1-6.1V56.866h3.759V30.938a87.076,87.076,0,0,0,5.225-7.764l-3.369-1.9a60.343,60.343,0,0,1-13.428,16.6,33.179,33.179,0,0,1,1.709,3.809h0Zm38.721-20.459H254.5v-6.3h17.627v6.3ZM233.75,26.3a68.341,68.341,0,0,0,14.062-15.576L244.443,8.77a49.021,49.021,0,0,1-12.5,13.965q0.929,1.709,1.807,3.564h0ZM254.5,24.542h17.627v6.445H254.5V24.542Zm43.506,8.594a56.518,56.518,0,0,0,4.2-6.836V56.622h3.613V53.057h23.926V49.688H318.125V41.973h9.668V38.6h-9.668V31.036h9.668V27.667h-9.668V20.1h10.644V16.729H317.612l2.9-1.611q-2.539-3.808-4.736-6.738L312.8,10.186a71.616,71.616,0,0,1,4.126,6.543H306.553q1.245-3.1,2.441-6.592l-3.613-1.123a63.934,63.934,0,0,1-8.838,19.922q0.829,2.2,1.465,4.2h0Zm-15.186-10.3q3.393,6.958,6.812,14.4A59.4,59.4,0,0,1,281.6,51.592q1.465,2.051,2.393,3.564a62.882,62.882,0,0,0,7.69-13.4q2.076,4.614,4.175,9.4l3.516-2q-2.76-5.908-5.835-12.28a84.174,84.174,0,0,0,4.028-19.7v-3.32H283.017v3.516h10.791a65.144,65.144,0,0,1-2.49,14.917q-2.613-5.347-5.42-11.011Zm23,19.141h8.692v7.715H305.82V41.973Zm0-10.937h8.692V38.6H305.82V31.036Zm0-10.937h8.692v7.568H305.82V20.1Zm29.151,24.121-3.028,13.013h3.467l4.175-13.013h-4.614Zm46.02-23.12-11.523,2.148V14.434H365.61V23.98l-7.226,1.343,0.634,3.711,6.592-1.221v20.02q0,7.031,7.324,7.031H397.4q7.129,0,8.35-5.762,0.635-2.734,1.318-7.324-2.148-.683-4.2-1.514a60.457,60.457,0,0,1-.928,7.324q-0.585,3.516-5.42,3.516h-22.8q-4.248,0-4.248-4.1V27.081l11.523-2.148v21.24h3.857V24.2l13.038-2.441q-0.147,5.225-.489,11.035a6.476,6.476,0,0,1-.927,3.613q-0.783.977-3.174,0.928-3.565-.1-5.86-0.391,0.537,2.246.83,4.1,2.832,0.1,5.225.1,4.2,0,5.859-1.758,1.66-1.9,1.856-6.3,0.293-5.615.683-15.918l-17.041,3.2V8.868h-3.857V21.1ZM408.53,33.477h48.535v-4.3H408.53v4.3ZM460.972,57.11a32.268,32.268,0,0,0,7.543-10.937q5.177,8.935,16.187,8.936,8.935,0.293,20.9.146a29.755,29.755,0,0,1,1.416-4.053q-11.425.415-21.142,0.171V41.143h16.992V37.53H485.874V29.62h20.019V25.958H459.507V29.62h22.314V51.1q-7.959-1.2-11.743-9.253a51.256,51.256,0,0,0,1.782-8.423l-4.1-.635q-1.271,13.526-9.375,20.508a37.674,37.674,0,0,1,2.588,3.809h0Zm0.292-33.252h3.858V18.292h35.5v5.615h3.857V14.629H484.7l2.2-1.172q-2.245-2.734-4.15-4.932l-3.711,2q1.611,2,3.052,4.1H461.264v9.229Zm66.358,26.025a5.19,5.19,0,0,1-1.66,3.857L528.6,57.11a18.709,18.709,0,0,1,2.833-2.1q6-3.272,9.472-4.785a37.4,37.4,0,0,1-.781-3.662q-5.274,2.588-8.789,4V34.307h4.687q4.2,13.672,18.067,22.021,1.562-1.856,3.027-3.516a35.362,35.362,0,0,1-11.23-8.008q4.638-2.49,9.179-5.273L552.671,36.5q-4.1,2.979-8.838,5.811a29.334,29.334,0,0,1-4.2-8.008h9.326v1.221h3.711V11.553H527.622v38.33Zm-17.383-8.2a67.567,67.567,0,0,0,6.1-6.1V56.866H520.1V30.938a87.076,87.076,0,0,0,5.225-7.764l-3.369-1.9a60.343,60.343,0,0,1-13.428,16.6,33.179,33.179,0,0,1,1.709,3.809h0ZM548.96,21.221H531.333v-6.3H548.96v6.3ZM510.581,26.3a68.341,68.341,0,0,0,14.062-15.576L521.274,8.77a49.021,49.021,0,0,1-12.5,13.965q0.928,1.709,1.807,3.564h0Zm20.752-1.758H548.96v6.445H531.333V24.542Zm29.1,31.836h3.125V53.3h14.405V56.28h3.125V21.661h-6.153V15.118h7.618V11.993H559.018v3.125h7.373v6.543h-5.957V56.378Zm24.756,0.293h3.418V53.643H601.5v3.027h3.418V37.042H585.19V56.671ZM582.8,32.452h24.267v-3.32h-9.521v-8.5H605.6v-3.32h-8.056v-8.3h-3.516v8.3h-4.883q0.734-2.734,1.27-5.469l-3.516-.684a70.951,70.951,0,0,1-4.443,14.7q1.806,0.537,3.564,1.221,1.221-3.223,2.2-6.445h5.81v8.5H582.8v3.32Zm18.7,17.969H588.608V40.264H601.5V50.421ZM575.571,36.5h2.393v4.834H563.559V37.53q1.124,1.025,2.1,2a21.819,21.819,0,0,0,3.662-12.6V24.688h2.686v7.471q0,4.346,3.564,4.346h0Zm-12.012,7.861h14.405v5.908H563.559V44.366Zm14.405-10.791h-1.221q-1.808.049-1.807-2.051V24.688h3.028v8.887Zm-14.405-8.887h2.832v2.149a17.308,17.308,0,0,1-2.832,10.156v-12.3Zm5.762-9.57h2.686v6.543h-2.686V15.118Zm52.588-3.3-2.856,11.768h3.32l3.857-11.768h-4.321Zm-8.4,0-2.857,11.768h3.32l3.858-11.768h-4.321Z"/>
</svg>
