<svg xmlns="http://www.w3.org/2000/svg" width="688" height="350" viewBox="0 0 688 350">
  <defs>
    <style>
      .cls-1 {
        fill: #fff;
        fill-rule: evenodd;
      }
    </style>
  </defs>
  <path id="残片" class="cls-1" d="M267.2,56.345Q278,66.4,282.2,75.1q6,2.7,9.6-1.2,5.7-5.1.9-14.1-9-17.1-43.8-22.5-3,3.3,0,5.4Q256.4,46.3,267.2,56.345ZM155,118.6l-34.5,3.3q-9,.9-6.3-8.4a213.859,213.859,0,0,0,6.9-27.6q2.4-9.9,11.4-10.8l54.9-5.4q7.5-5.4,0-11.4l-6.9-5.4q-7.8-5.7-13.5,1.8l-6.9,8.7L65.6,73q2.4,8.7,11.1,7.8l22.5-2.1q9-.9,6.9,9.6-12.6,69-46.5,121.8,4.5,3.6,8.7-1.8a156.573,156.573,0,0,0,16.2-24.9q5.1-8.7,12.3-4.2,3.3,1.2,12.3,9.9t11.7,17.4q5.7,2.7,9.6-.9,5.4-5.1.9-14.1-7.8-16.5-28.2-19.2-11.1-2.4-6.6-12a124.682,124.682,0,0,0,7.8-18.6q3.9-9.3,12.9-10.2l30.3-3.3q9-.9,7.2,10.5-15,115.8-87,180,3.9,3.9,8.7-.3,19.2-14.4,36.9-37.5a219.766,219.766,0,0,0,29.1-49.2,385.912,385.912,0,0,0,18-50.4l9.3-43.8,4.2-8.4q8.7-6.3,2.4-11.7l-5.1-4.2q-6.3-5.4-12.6,1.5ZM329,239.2a211.061,211.061,0,0,1-8.7,29.4q-2.1,4.8-3.9,5.4t-6-2.1q-23.7-9.6-35.1-27.6-5.4-8.1,1.5-15,16.8-15.9,33-41.7,3-4.2,7.5-3.6,7.8-4.2,0-7.5l-7.5-3.3q-7.8-3.3-13.8,6.3a213.88,213.88,0,0,1-26.7,37.2q-6,6.9-10.2-1.8-6.6-12.6-10.2-30.9-1.8-9.6,6.9-11.7L327.2,154q6.6-6.6-1.8-10.8l-8.1-4.2q-9-4.2-13.5,3.6l-5.7,9.9L254,163.9q-8.7,2.1-10.5-8.4-2.4-15-3.6-30.6-0.6-9,8.1-10.8l69.6-16.5q6.9-6.9-1.8-11.4L307.4,82q-8.7-4.8-13.2,3.3l-6,10.2-40.8,9.6q-8.7,1.8-9.3-8.1-1.2-22.8-1.2-48.6,0.3-5.1,5.4-6.9,5.4-7.5-3.3-7.8l-7.8-.3q-9,0-9,11.4,0,33.3,1.8,57.9,0.6,7.5-8.1,9.6l-33.6,7.8q3.6,8.1,12.6,6l21.6-5.4q8.7-1.5,9.6,10.2,2.1,18.6,4.5,31.5,1.5,6.9-7.2,9l-47.1,12.3q3.6,7.8,12,5.7l36.6-9.3q8.7-2.1,10.8,8.4a164.886,164.886,0,0,0,13.2,39.3q3.6,6.9-2.7,13.5-32.7,32.7-92.7,64.5,2.7,5.7,9.6,2.1,54-23.4,89.1-55.2,6.9-6.3,11.7,1.5,12.6,20.1,41.1,33a119.772,119.772,0,0,0,13.8,5.7,33.8,33.8,0,0,0,12,1.8q5.7-.3,7.5-4.2a5.775,5.775,0,0,0-.3-5.4q-7.5-7.5-6.9-16.5l3.6-34.5q-4.2-.3-5.7,5.1h0Zm211.5-129q-9,.9-9-8.1V45.4a4.706,4.706,0,0,1,3.6-4.8q6-7.2-3-7.2l-4.8-.3q-9,0-9,8.7v61.8q0,9-9,9.9l-69.9,6.9q-9,.9-9-8.1V69.1q0-4.8,4.8-6.3,5.7-7.5-3.3-7.5l-5.7-.3q-9,0-9,9v96q0,50.1-12,88.8-11.7,38.4-43.2,68.4,4.2,3.9,9-.3,48.6-39.3,56.1-109.5,1.5-10.8,10.5-11.7l92.1-9.3q9-.9,9,8.1V297.7q0,6.9,8.4,4.5,4.2-1.5,4.8-2.4V195.4q0-7.5,7.5-10.2,6.6-5.1-.6-9.9l-7.5-4.8q-7.2-4.8-12.9,2.7l-3,3.6-97.2,9.9q-9,.9-8.4-7.5,0.6-4.8.6-20.7V139q0-9,9-9.9l188.4-18.9q7.8-5.4,1.8-9.9l-7.5-5.7q-9.3-6.9-16.2,2.4-5.7,7.5-14.4,8.1Z"/>
</svg>
