<svg xmlns="http://www.w3.org/2000/svg" width="528" height="350" viewBox="0 0 528 350">
  <defs>
    <style>
      .cls-1 {
        fill: #fff;
        fill-rule: evenodd;
      }
    </style>
  </defs>
  <path id="残片" class="cls-1" d="M197.1,211a228.864,228.864,0,0,1-8.7-35.4l30-6A454.554,454.554,0,0,1,197.1,211h0Zm6-125.4q8.4,6.3,15.9,1.2l-13.5,26.7-23.4,4.2a673.391,673.391,0,0,1,.3-72.3,86.276,86.276,0,0,1,20.7,40.2h0ZM251.4,223q-7.8,24-14.7,38.1-1.5,3.9-3.6,4.5-1.5.3-4.2-3-10.2-8.7-19.5-23.7,16.2-17.7,32.1-46.8L219,169.6l32.4-6.6v-8.7l-38.7,7.8-25.8,5.1a399.323,399.323,0,0,1-4.2-40.8l61.2-11.1q5.7-.9,6.3-6.3-4.8-3.9-12.3-9-7.2-5.4-12.3-9-5.4-3.9-6-4.5a36.029,36.029,0,0,0,3.9-3.9q6-9.3,1.5-20.1Q217.5,44.2,186.9,43q2.4-1.8,3-6L153,34q0,48.9,2.4,88.5l-19.8,3.6-24-25.5L97.8,119.2l-17.1.9A409.884,409.884,0,0,0,91.8,70.9l52.8-2.7V59.5L32.7,65.2l1.8,8.7,29.1-1.5q-9.9,85.8-33.9,137.1l3,3.3a267.145,267.145,0,0,0,25.2-37.5q7.2,17.1,6.3,33a5.92,5.92,0,0,0,2.1,1.8q9.6,8.7,18,.6,7.5-6.9,5.4-18.9-3.3-17.4-27-25.8A343.623,343.623,0,0,0,78,128.5l21.9-.9Q89.7,259.3,33.3,317.8l2.1,3a157.748,157.748,0,0,0,28.5-24,148.369,148.369,0,0,0,21.9-28.5A240.114,240.114,0,0,0,102,237.4a214.465,214.465,0,0,0,11.4-34.2q4.8-18.3,7.8-35.1,2.7-16.8,5.1-36.6a11.333,11.333,0,0,0,6-2.1l1.8,5.7,22.2-4.2a340.329,340.329,0,0,0,4.5,41.7l-35.4,6.9,2.1,8.1,34.5-6.9q5.7,34.5,15.3,58.5Q144.9,280,96,309.1l1.2,4.5q53.1-19.2,90.3-52.2,11.4,21.3,26.1,35.4a56.415,56.415,0,0,0,13.35,10.05,37.7,37.7,0,0,0,15,4.35q7.946,0.6,12.75-6.6,5.4-8.1-6-30.3l5.4-50.7ZM420,117.4V36.1l-29.1-2.4v85.2l-51,2.4V48.4l-27.9-3v108q0,52.5-8.7,93.6-8.4,40.5-31.5,71.4l2.1,2.4q54.3-38.7,63.9-128.1l67.8-3.3V314.2l4.8-.3q6.6-.3,15.15-4.05t8.85-5.55V179.2l-31.5,1.5L338.7,184q1.2-17.7,1.2-32.1V130l156.9-7.8v-8.7Z"/>
</svg>
