<svg xmlns="http://www.w3.org/2000/svg" width="3000" height="120" viewBox="0 0 3000 120">
  <defs>
    <style>
      .cls-1 {
        fill: #fff;
        fill-rule: evenodd;
      }
    </style>
  </defs>
  <path id="并非繁星凑成了银河_而是每一粒尘埃_早已在此处埋下了整片星群" data-name="并非繁星凑成了银河, 而是每一粒尘埃, 早已在此处埋下了整片星群" class="cls-1" d="M75.419,25.484a21.412,21.412,0,0,1,4.4,9.2q1.8,1.2,3.1,0,2-1.8.4-5.9-2.9-7.4-14.7-12.7-1.3.9-.3,1.8A42.1,42.1,0,0,1,75.419,25.484Zm2.8,16.9a2.969,2.969,0,0,1,3-3.3l21.2-2.1q3-.3,3,2.7v17.9a2.969,2.969,0,0,1-3,3.3l-21.2,2.1q-3,.3-3-2.7v-17.9Zm34.7,17.4q-3,.3-3-2.7v-17.9a2.969,2.969,0,0,1,3-3.3l18.8-1.8q2.5-1.9.1-3.8l-2.9-2.1q-2.7-1.9-4.5.6l-2.4,3.2-17,1.7q-3,.3-0.7-2.4a77.614,77.614,0,0,0,10.2-14.9,2.781,2.781,0,0,1,2.2-1.5q2.3-2.1-.5-2.6l-2.6-.4q-2.8-.6-4.2,2.9a93.251,93.251,0,0,1-8.5,16.9,5.558,5.558,0,0,1-4.5,2.9l-45.6,4.5a3.366,3.366,0,0,0,3.9,2.7l16.1-1.7q2.9-.2,2.9,2.8v17.9a2.969,2.969,0,0,1-3,3.3l-23.6,2.3a3.348,3.348,0,0,0,3.9,2.6l19.6-1.9q3-.3,2.7,3a38.557,38.557,0,0,1-2.5,11.1,41.587,41.587,0,0,1-8.1,13.4,68.192,68.192,0,0,1-15.7,12.7q1.2,1.5,3.2.4a59.447,59.447,0,0,0,12.2-8.2,42.459,42.459,0,0,0,9.1-10.6,45.548,45.548,0,0,0,4.6-10.9l1.6-8.4q0.3-3.3,3.3-3.6l21.4-2.1q3-.3,3,2.7v34.2q0,2,2.6,1.3a4.359,4.359,0,0,0,1.4-.8l0.5-35.2a2.969,2.969,0,0,1,3-3.3l22.2-2.2q2.6-1.8.6-3.3l-2.9-2.3q-3.2-2.2-5.1.3l-2.5,3.3Zm37.2-25.2a3.348,3.348,0,0,0,3.9,2.6l21.9-2.2q3-.3,3,2.7v12q0,2.9-3,3.2l-23.9,2.4a3.348,3.348,0,0,0,3.9,2.6l20-2q3-.3,3,2.7v15.8a2.969,2.969,0,0,1-3,3.3l-29,2.9a3.348,3.348,0,0,0,3.9,2.6l25.2-2.5q2.9-.3,2.9,2.7v19.5q0,2.4,3.2,1.4a2.151,2.151,0,0,0,1.2-1.4v-82.5a2.445,2.445,0,0,1,1.7-2.4q1.9-2.5-1.1-2.5l-2-.1q-3-.1-3,2.9v10.4a2.969,2.969,0,0,1-3,3.3Zm58.6,39.3q-2.9.2-2.9-2.8v-15.2a2.969,2.969,0,0,1,3-3.3l22.8-2.2q2.6-1.9,0-3.9l-2.3-1.7q-2.6-1.8-4.7,1a6.789,6.789,0,0,1-4.9,2.8l-10.9,1q-3,.3-3-2.7v-12q0-2.9,3-3.2l24.5-2.4q2.5-1.9,0-3.8l-2.4-1.9q-2.6-1.9-4.5.6l-2.3,3-15.4,1.6q-2.9.2-2.9-2.8v-7.5a2.275,2.275,0,0,1,1.7-2.3q1.8-2.5-1.2-2.6l-1.9-.1q-3,0-3,2.9v84.2q0,2.4,3.2,1.4a2.137,2.137,0,0,0,1.2-1.5v-20.5q0-2.9,3-3.2l26.5-2.6q2.5-1.9.6-3.4l-2.7-2q-3.2-2.3-5.5.9a6.572,6.572,0,0,1-4.8,2.7Zm86.2-53.7-1.4-1q-2.5-2-4.4.5l-1.6,2.2-23.6,2.3q-3,.3-1.4-2.3l1.5-2.9q3.4-1.6.5-2.1l-1.2-.3a3.424,3.424,0,0,0-4,2.4,65.138,65.138,0,0,1-4.9,9.6,55.808,55.808,0,0,1-7.8,10.5,1.758,1.758,0,0,0,2.4.1,37.284,37.284,0,0,0,7.6-8.2q2.3-3.3,5.3-3.6l33-3.3q2.5-1.8,0-3.9h0Zm-21.1,31.2q2.4,1.3,3.3-.6a2.318,2.318,0,0,0-1-3.3q-3.2-2.2-9-1.4a1.708,1.708,0,0,0,1.4,2,7.372,7.372,0,0,1,5.3,3.3h0Zm0.4-11q2.6,0.9,3.4-.9,0.8-2-1.3-3.2-3.1-1.7-9-.6a1.561,1.561,0,0,0,1.5,1.9,7.023,7.023,0,0,1,5.4,2.8h0Zm9.4-2.6a3.082,3.082,0,0,1-3.1,3.3l-15.1,1.5q-3,.3-2.7-2.3l0.3-2.3q0.4-3.3,3.3-3.6l14.7-1.5q2.9-.3,2.8,2.7Zm-19.9,16.2q-3,.3-2.7-3l0.3-1.5q0.7-3.8,3.7-4.1l15.5-1.5q3-.3,2.9,2.7l-0.2,2.4a3.082,3.082,0,0,1-3.1,3.3Zm32.7-.5q2.3-1.7.3-3.3l-0.9-.9q-2.5-1.8-4.4.7l-1,1.3q-3.3.3-3.2-2.7l0.1-2.4a3.043,3.043,0,0,1,3-3.3l5.9-.6q2.3-1.7.3-3.3l-0.9-.8q-2.5-2-4.3.5l-1.1,1.4q-2.7.3-2.6-2.4l0.2-5.2q3-1.4.1-3.8-2.2-1.7-4.8,1.2l-17.8,1.8-2.7-.6q-2.8-.7-3,2.1,0,0.8-.7,6-0.5,4.1-3.5,4.4l-8.2.8a3.114,3.114,0,0,0,3.7,2.4l4.2-.4q3-.3,2.6,2.8-0.6,4.2-3.5,5.5-1.2.7-.3,1.5l2.3,1.9q2.2,1.8,4.9-1.1Zm-33.5,43.1a128.929,128.929,0,0,1-13.7,8.5,2.229,2.229,0,0,0,2.9.6,97.836,97.836,0,0,0,12.5-6.4l9.7-6.4,2.5-1.5q3.3-1.1-.1-2.8a3.59,3.59,0,0,0-4.5.6q-2.1,2.3-9.3,7.4h0Zm54.3-23.6q2.3,1.7-2,2.4-36,6.1-51.2,8.4-1.8.2,1.3-.9a360.819,360.819,0,0,0,44-19.4l1.8,0.5q2.8-1,.7-2.9l-0.9-.7q-2.1-1.9-4.8-.2-2.1,1.3-7.3,4-14.6,2.4-27.3,4.2-3,.4.2-0.7a155.822,155.822,0,0,0,19.7-8.6l2,0.4q2.6-1.5-.7-3.4-2.4-1.5-5.5.5a93.59,93.59,0,0,1-24.9,11.4q-2.1.6-1.1,2.3l1.6,2.6q0.7,1.4,1.9.2,11.3-2.1,24.3-4.7,3.5-.7.4,0.9a234.069,234.069,0,0,1-33.9,14.3q-2.8.7-1.6,3l2,3.5a6.208,6.208,0,0,1,3.4-2.2q8.3-1.4,26.6-4.7,4.1-.8,4.1,2.1v12q0,1.7-2.4,2-2.1.2-12.1,0.5,0,1.6,2.1,1.6a20.188,20.188,0,0,1,6.4.8q2,2.6,5.7,1.6l3-1.8a7.143,7.143,0,0,0,1.7-5.1v-12.2q0-3,2-3.3,6.6-1.3,25.3-4.8a32.675,32.675,0,0,1,5.7,6,2.752,2.752,0,0,0,2.9-.2q1.8-1.5-.2-4.8-4.1-6.8-19.5-11.1-1.1,1.2.4,2.2a47.276,47.276,0,0,1,6.2,4.3h0Zm3.8,18.9a39.541,39.541,0,0,1,9.8,6.3,2.459,2.459,0,0,0,2.5-.3q1.5-1.7-1-4.4-5.9-6.5-25.7-8.6a1.574,1.574,0,0,0,1.2,2.3,57.206,57.206,0,0,1,13.2,4.7h0Zm0.5-68.6q3-.3,2,3.3a33.073,33.073,0,0,1-6.1,13.4q-1.7,2.5-3.6.6a31.883,31.883,0,0,1-7.8-11.9q-1.4-3.3,1.6-3.6Zm13.7-5.2-1.8-1.2q-2.6-1.9-4.5.6l-1.6,2.2-18,1.8q-3,.3-1.6-3l0.7-1.9a1.872,1.872,0,0,1,1.5-1.2q2.3-2.1-.6-2.6l-1.6-.3q-2.9-.6-3.7,2.7a58.871,58.871,0,0,1-8.2,20q1.6,0.8,3.1-1l2.4-3.2q1.9-3,3.1.4a37.864,37.864,0,0,0,7.1,12q1.8,2-.2,4.2-5.4,6.3-18.1,13.3,0.8,1.4,2.7.5,11.4-5.1,17.7-11.5a2.893,2.893,0,0,1,4.5-.1,30.093,30.093,0,0,0,12.3,6.3,4.273,4.273,0,0,0,5-1.6l1.9-.8q0.2-1.1-1.2-1.3-9.9-1.8-15.5-6-2.2-1.6-.4-3.9a38.863,38.863,0,0,0,8.2-16.3q1.1-3.7,4.1-4l2.7-.3q2.4-1.8,0-3.8h0Zm82.3,9.3a2.931,2.931,0,0,1-2.9,3.3l-43.3,4.3q-3,.3-3-2.7v-4.9a2.931,2.931,0,0,1,2.9-3.3l43.3-4.3q3-.3,3,2.7v4.9Zm-49.2,13.8a2.931,2.931,0,0,1,2.9-3.3l43.3-4.3q3-.3,3,2.7v5.2a2.931,2.931,0,0,1-2.9,3.3l-43.3,4.3q-3,.3-3-2.7v-5.2Zm47.1,6.5a1.677,1.677,0,0,1,2.1,1.9q0,2.2,2.9,1.3a3.312,3.312,0,0,0,1.5-1.4v-27.6a2.593,2.593,0,0,1,1.9-2.6q2.4-1.7,0-3.3l-2-1.4q-2.4-1.5-4.4,1l-0.9,1.1-47.7,4.7-2.3-.9q-2.6-1.2-2.6,1.8v33.1q0,2.4,3.2,1.6a2.083,2.083,0,0,0,1.2-1.1q0-3.5,3-3.8Zm-17.2,50.6q-2.9.3-2.9-2.7v-9.2a2.969,2.969,0,0,1,3-3.3l27-2.7q2.6-1.9.1-3.8l-2.3-1.7q-2.7-1.9-4.5.6l-2.1,2.8-18.2,1.8q-3,.3-3-2.7v-6.9a2.969,2.969,0,0,1,3-3.3l29.8-3q2.6-1.7,0-3.8l-2.2-1.7a2.925,2.925,0,0,0-4.5.7l-2.2,2.8-20.9,2.1q-3,.3-3-2.7v-3.3a2.518,2.518,0,0,1,1.8-2.5q1.8-2.5-1.2-2.5l-2-.1q-3,0-3,2.9v5.9a2.969,2.969,0,0,1-3,3.3l-14.2,1.5q-3,.3-1.2-2.6l2-3.6a2.126,2.126,0,0,1,1.9-1.2q2.6-1.8-.1-2.8l-2.1-.8q-2.7-.9-4,2a75.779,75.779,0,0,1-7.4,13.8,71.842,71.842,0,0,1-10.5,13.2,1.816,1.816,0,0,0,2.7,0,50.632,50.632,0,0,0,11.4-11.8,7.473,7.473,0,0,1,5.2-3.1l16.3-1.7q3-.3,3,2.7v6.9a2.969,2.969,0,0,1-3,3.3l-27,2.7a3.236,3.236,0,0,0,3.8,2.7l23.2-2.4q3-.3,3,2.7v9.2a2.931,2.931,0,0,1-2.9,3.3l-41.1,4.1a3.336,3.336,0,0,0,3.9,2.5l84.2-8.4q2.7-1.8.7-3.4l-2.7-2q-3.2-2.3-5.7,1a6.475,6.475,0,0,1-4.8,2.8Zm58.6-68.45a23.884,23.884,0,0,1,5.2,7.35,2.868,2.868,0,0,0,3.4-.2q2-1.8.2-5.4-3.3-6.5-15.8-9.6-1.1,1.1-.1,1.9A35.6,35.6,0,0,1,456.819,29.834Zm-2.5,47.45a6.082,6.082,0,0,1-.8,1.5l-5.7,1.1q0,2.4,2.8,2.7l1.9,0.6q3.4,1.8,1.6,18-0.2,4.8,2,4.6,3.7-.4,4-6.5a42.31,42.31,0,0,0-.8-9.7,55.513,55.513,0,0,1-1-6.6,30.061,30.061,0,0,1,1.5-8.3q0.6-1.8,6.1-17.1t7.7-21.7q-1.9-.3-3.3,3-14.4,34.9-16,38.4h0Zm51.6-.9q-3,.3-2.3-3.1l0.3-3.1q0.3-3.3,3.3-3.6l9.4-.9q2.6-1.9,0-3.8l-2.5-1.9q-2.6-1.9-4.4.6l-2.2,3-22.4,2.2a3.214,3.214,0,0,0,3.8,2.6l6.9-.7q3-.3,2.6,4l-0.4,3q-0.4,2.6-3.4,2.9l-19.7,1.9a3.111,3.111,0,0,0,3.7,2.7l15.2-1.6q3-.3,1.9,2.6-1.2,4.2-7.4,10.2-6.1,5.9-18.4,11.4,1.3,1.5,3.9.3,19.2-7.5,24.7-17.8a2.777,2.777,0,0,1,3.9-1.2,82.554,82.554,0,0,1,12.5,6.1q7.7,4.4,11.1,8.1,2.2,0.5,3.1-.6,1.7-2.1-1.5-5.5-6.7-7.6-26.8-10.9,1.2-3.5,4.2-3.8l23.5-2.3q2.6-1.9.6-3.4l-2.5-1.9q-3.2-2.3-5,.2l-2.3,3Zm29.2-31.5-2.5-1.8q-2.6-2-4.4.5l-2.2,3-29.5,3q-3,.3-1.5-2.8l1.6-3.6q1.3-3.5,4.3-3.8l26.6-2.6q2.6-1.9,0-3.9l-2.4-1.8q-2.7-1.9-4.5.6l-2.2,3-16.4,1.6q-3,.3-1.8-3.5l0.6-2.3a4.049,4.049,0,0,1,3.8-3.2l27.1-2.7q2.5-1.9,0-3.8l-2.4-1.8q-2.6-1.9-4.5.5l-2.3,3-17.2,1.7q-3,.3-2.5-2.4l0.7-3.6q0.5-2.8,2.5-3.3,2-2.1-1-2.2l-3.1-.3q-2.9-.1-3.3,3.4a42.392,42.392,0,0,1-.9,6,3.825,3.825,0,0,1-3.6,3.5l-21.5,2.2a3.214,3.214,0,0,0,3.8,2.6l17-1.7q3-.3,2.1,3.4l-0.6,2.2a4.1,4.1,0,0,1-3.8,3.4l-14,1.4a3.214,3.214,0,0,0,3.8,2.6l9.2-.9q3-.3,1.4,3.7l-1.6,3.7a4.649,4.649,0,0,1-4.1,2.7l-15.4,1.6a3.214,3.214,0,0,0,3.8,2.6l10.1-1q3-.3,1.3,2.7a65.389,65.389,0,0,1-19.1,21.3,1.86,1.86,0,0,0,2.6.1,59.141,59.141,0,0,0,21-22,5.966,5.966,0,0,1,4.7-3.2l15-1.5a4.137,4.137,0,0,1,4.4,2.3q2,4.2,7.8,9t10,6.2q2.7,1.1,4.1-1.8,3-1.5.2-2.4a81.87,81.87,0,0,1-10.7-5q-6.5-3.7-8.7-6.7-1.7-2.1,1.2-2.4l17-1.7q2.6-1.8,0-3.8h0Zm80.5-25.6a17.773,17.773,0,0,1,5.9,5.1,2.518,2.518,0,0,0,2.6-.4q1.8-1.5-.1-4.2-3.5-5.1-15.6-5.8-0.9,1.3.3,1.8a26.79,26.79,0,0,1,6.9,3.5h0Zm19,61.7a69.615,69.615,0,0,1-3,9.5,4.39,4.39,0,0,1-.9,1.6,4.674,4.674,0,0,1-2.6-.5q-10-4.4-14.7-12a4.453,4.453,0,0,1,.1-5.3,84.327,84.327,0,0,0,12.2-25.6,2.972,2.972,0,0,1,2.5-2.3q2.2-1.8-.6-2.3l-2.8-.6q-2.8-.4-3.7,3a75.964,75.964,0,0,1-9.9,23.9q-1.6,2.7-2.8.3-6-12-7.5-31.8-0.3-3.5,2.7-3.8l31.3-3.2q2.6-1.8,0-3.8l-2.4-1.7q-2.6-2-4.4.5l-2.3,3-22.4,2.3q-3,.3-3.2-2.7-0.2-4.1-.2-11.2a2.166,2.166,0,0,1,1.6-2.3q1.9-2.6-1-2.6l-2.3-.1q-3,0-3,3.7,0,7.2.5,13.2,0.2,2.7-2.8,3l-30.4,3.1-2.7-1.2q-2.7-1.1-2.7,1.9v21.4a150.776,150.776,0,0,1-2.2,27.2,58.706,58.706,0,0,1-9.1,22.2,1.676,1.676,0,0,0,2.7-.4,44.3,44.3,0,0,0,6.4-10.3,57.1,57.1,0,0,0,4.3-13.4q1.3-6.9,1.8-12.4l0.4-9q0.1-3.3,3.1-3.6l14.3-1.5q3-.3,2.8,4.9-0.5,20.4-3.6,23.8a4.338,4.338,0,0,1-3.1,1.3q-2,.2-10,0.2-0.1,1.8,2.3,2a7.273,7.273,0,0,1,4.3.9,3.927,3.927,0,0,0,4.7,2.6q1.8,0.1,4.6-3.1,4.6-4.8,5.2-30.6,0.1-2.4,1.5-2.7,2.5-1.5.2-3.1l-1.7-1.2q-2.3-1.6-4.3.8l-0.8,1.1-16.4,1.7q-3,.3-3-2.7v-10.8a2.969,2.969,0,0,1,3-3.3l28.6-2.9q3-.3,3.3,3.5,2.1,22.5,9.2,35.5,1.2,2-.8,4.7-9.6,14-26.5,23.9,0.9,1.3,2.5.3a76.088,76.088,0,0,0,25.9-20.9q2.1-2.5,3.8.2,5.3,8.2,15.8,12.9,9.5,5,11.3,1.4a1.545,1.545,0,0,0-.1-1.6,6.938,6.938,0,0,1-2.3-5.5l1.2-11.2q-1.4-.1-1.9,1.7h0Zm87.9-63.2-68.9,6.9a3.348,3.348,0,0,0,3.9,2.6l60-6q3-.3.5,2.1a159.973,159.973,0,0,1-22.6,19.1l-2.3-.2a2.652,2.652,0,0,0-3,3v50.3a2.51,2.51,0,0,1-.7,2,4.158,4.158,0,0,1-2.4.8q-2.6.3-16.4,0.7,0,1.7,2.4,1.6,6-.1,8.6,1l1,0.6q1.7,2.5,5.5,1.4a6.53,6.53,0,0,0,4.4-2.3,8.072,8.072,0,0,0,2-5.8v-48.6a1.961,1.961,0,0,1,1.5-2,12.951,12.951,0,0,1,4.1-3.8q11.5-6.6,28.3-20.5l2-.3q2.5-1.1.3-2.9l-2.2-1.9q-2.1-1.8-4.3.4Zm59.9,44.3-2-1.5q-2.5-1.9-4.4.6a7.458,7.458,0,0,1-5.6,2.9q-3,.3-3-2.7v-8.6a2.969,2.969,0,0,1,3-3.3l8.9-.9q2.6-1.9,0-3.9l-1.6-1.2q-2.6-1.9-4.5.6l-1.8,2.3-18.4,1.8a2.992,2.992,0,0,0,3.6,2.7l3.4-.4q3-.3,3,2.7v8.6a2.969,2.969,0,0,1-3,3.3l-13.6,1.4a3.086,3.086,0,0,0,3.7,2.6l9.9-1q3-.3,3,2.7v26.1a3.334,3.334,0,0,1-.5,1.8q-2.5,2.6-.3,4.4l1.4,1.2q1.6,1.2,2.6-.9,3.3-3.4,6.9-7.4t6.8-7.7q3.3-3.7,4.4-4.9-1-1.2-1.9-.3-3.4,3-11.8,10.5-3.2,2.8-3.2-.2v-23a2.969,2.969,0,0,1,3-3.3l12-1.2q2.5-1.9,0-3.8h0Zm37.4-25.4q3-.3,3,2.7v8.8a2.969,2.969,0,0,1-3,3.3l-24.7,2.5q-3,.3-3-2.7v-8.8a2.969,2.969,0,0,1,3-3.3Zm-27.7-11.8a2.969,2.969,0,0,1,3-3.3l24.7-2.5q3-.3,3,2.7v8.6a2.969,2.969,0,0,1-3,3.3l-24.7,2.5q-3,.3-3-2.7v-8.6Zm24.7,47.7q-2.3,2.3-3.9-.4a55.389,55.389,0,0,1-5.4-13.2q-0.9-3.1,2.1-3.4l13.2-1.4q0,3.4,3,2.5a2.9,2.9,0,0,0,1.4-1.3v-34.1a2.593,2.593,0,0,1,1.9-2.6q2.4-1.7.1-3.3l-2.1-1.5q-2.3-1.6-4.3.8l-1,1.2-28.5,2.9-3-1.4q-2.6-1.2-2.6,1.8v76.4a3.344,3.344,0,0,1-.5,2.1,3.65,3.65,0,0,0-1.1,4.9q1.1,2.2,3,.1,4.7-3,12-7.8,7.4-4.9,8-5.3a1.4,1.4,0,0,0-2.2-.7q-4.3,2.4-11.4,6-3.4,1.6-3.4-1.4v-33.2a2.969,2.969,0,0,1,3-3.3l6.2-.6q3-.3,3.8,3.5,6.5,30.2,27.3,38.5,2,0.9,3.2-1.3,2.8-1.6-.1-2.8-10.9-3.9-18.2-15.1-1.8-2.7,1.2-4.9a107.848,107.848,0,0,0,11.7-9.5l1.7-1.3q3-1.1.8-2.8l-1-.7q-2.2-1.8-4.4,1a108.743,108.743,0,0,1-10.5,11.6h0Zm-58.2-35.6a4.989,4.989,0,0,1,4.2-3.5l17.9-1.7q2.6-1.9,0-3.9l-1.7-1.3q-2.5-1.9-4.4.6l-1.9,2.4-8.6.8q-3,.3-1.8-3.1a45.082,45.082,0,0,0,1.8-5.7,2.18,2.18,0,0,1,1.7-1.5q2.2-2.1-.6-2.6l-2.7-.6q-2.8-.5-3.3,2.2a117.927,117.927,0,0,1-5,18l-7.6,17.9q0.8,2,1.9.6a86.021,86.021,0,0,0,4.6-7.4Zm102-12.2a15.536,15.536,0,0,1,4.7,6.1,2.843,2.843,0,0,0,3.4-.4q1.9-1.9.2-5.1-3.1-5.7-14.6-6.9-1,1.1.1,1.8a23.675,23.675,0,0,1,6.2,4.5h0Zm-7,21.9a15.3,15.3,0,0,1,4.9,5.5,2.849,2.849,0,0,0,3.2-.3q1.9-1.8.2-4.9-3.2-5.2-14.5-5.9-1,1.2.1,1.8a20.982,20.982,0,0,1,6.1,3.8h0Zm1.2,31.6a6.5,6.5,0,0,1-1,1.9,1.99,1.99,0,0,1-1.2.5l-4.5.4q0,2.3,2.8,2.5l2,0.6q3.5,2,1.6,18.7,0,4.9,2.3,4.6,4-.4,4.3-6.7a42.4,42.4,0,0,0-.9-10.1,62.41,62.41,0,0,1-1-6.7,31.08,31.08,0,0,1,1.5-8.4q0.7-2.3,6.8-18.9,6.1-16.7,8.4-23.5-2-.3-3.5,3.3-15.9,38.3-17.6,41.8h0Zm28.8-30.2q0-2.9,3-3.2l14.2-1.5q3-.3,3,2.6v17.7q0,2.9-3,3.2l-14.2,1.5q-3,.3-3-2.6v-17.7Zm26-8.4-1.6-1.1q-2.4-1.5-5.1,1.6l-18.1,1.8-3-1.1q-2.7-.9-2.7,2.1v37.8q0,2,2.6,1.5a4.192,4.192,0,0,0,1.4-1l0.5-6.6a2.969,2.969,0,0,1,3-3.3l14.2-1.5q3-.3,3,2.7v1.3q0,2.3,2.9,1.6a3.366,3.366,0,0,0,1.5-1.2v-29.7a1.648,1.648,0,0,1,1.3-1.7q2.5-1.7.1-3.2h0Zm-36.9-16.2a3.149,3.149,0,0,0,3.7,2.6l43.2-4.3q3-.3,3,2.7v67.8a2.4,2.4,0,0,1-.6,1.9,2.807,2.807,0,0,1-2,.7q-2.2.2-13.2,0.4,0,1.6,2.1,1.6a21.659,21.659,0,0,1,7.1,1.1,4.562,4.562,0,0,0,5.8,2.2l3.4-2.2a9.288,9.288,0,0,0,1.8-5.9v-68.1a2.969,2.969,0,0,1,3-3.3l5.5-.5q2.6-1.9.6-3.4l-2.4-1.8q-3.2-2.3-5.1.2l-2.2,2.9Zm74.2,94.9q1.2,1.9,3.1.5,4.6-2.5,9-9.45a26.343,26.343,0,0,0,4.4-14.25,17.772,17.772,0,0,0-.9-6,6.129,6.129,0,0,0-4.6-1.5,4.576,4.576,0,0,0-3.2,1.65,5.242,5.242,0,0,0-1.2,3.45q0,2.8,3,4.9,3.1,1.9,2.3,4.9-1.2,8.2-11.9,15.8h0Zm58.1-90.6a3.348,3.348,0,0,0,3.9,2.6l34.5-3.4q3-.3,2.2,3.7a94.388,94.388,0,0,1-2.4,9.8q-0.6,2.5-3.6,2.8l-21.1,2.1-2.4-1.1q-2.6-1.1-2.6,1.8v59.3q0,2.5,3.3,1.4a1.928,1.928,0,0,0,1.1-1.2v-54.2a2.969,2.969,0,0,1,3-3.3l12.7-1.2q3-.3,3,2.7v48.9c0,1.266.83,1.665,2.5,1.2a4.321,4.321,0,0,0,1.4-.8l0.5-49.8a2.969,2.969,0,0,1,3-3.3l12.9-1.3q3-.3,3,2.7v46.4q0,2.6,3.2,1.7a1.962,1.962,0,0,0,1.2-1.2v-47.3a2.969,2.969,0,0,1,3-3.3l12.9-1.3q3-.3,3,2.7v47.5a2,2,0,0,1-.5,1.6,2.366,2.366,0,0,1-1.7.7q-1.9.2-10.8,0.4,0,1.7,2.1,1.7a15.23,15.23,0,0,1,5.4,1.1,4.473,4.473,0,0,0,5.6,2.1l2.8-1.9q1.5-1.8,1.5-5.5v-48.2a2.429,2.429,0,0,1,1.9-2.5c1.66-1.2,1.7-2.3.1-3.3l-2.4-1.6c-1.54-1.066-2.93-.766-4.2.9l-0.8,1.1-33.7,3.4c-1.93.2-2.47-.6-1.6-2.4a105.116,105.116,0,0,0,4.4-10.4q1.4-3.6,4.4-3.9l37.4-3.7q2.6-1.9.6-3.4l-2.9-2.2c-2.14-1.466-3.83-1.4-5.1.2l-2.5,3.4Zm168.5-.8a2.882,2.882,0,0,1-2.9,3.2l-39.9,3.9q-2.9.3-2.9-2.6v-5.1a2.933,2.933,0,0,1,2.9-3.3l39.9-3.9q2.895-.3,2.9,2.7v5.1Zm-45.7,13.3a2.933,2.933,0,0,1,2.9-3.3l39.9-3.9q2.895-.3,2.9,2.7v5.4a2.933,2.933,0,0,1-2.9,3.3l-39.9,3.9q-2.9.3-2.9-2.7v-5.4Zm44,6.9a1.412,1.412,0,0,1,1.7,1.6q0,2.4,3,1.5a3.259,3.259,0,0,0,1.4-1.4v-27.5a2.661,2.661,0,0,1,2-2.7q2.4-1.6.1-3.2l-2.2-1.5c-1.53-1-2.97-.7-4.3.9l-1,1.2-44.2,4.4-2.3-1q-2.6-1.1-2.6,1.9v33.1q0,2.4,3.1,1.6a2.746,2.746,0,0,0,1.3-1.1q0-3.4,2.9-3.7Zm11.9,27.2q2.6-1.8,0-3.9l-2.3-1.6q-2.61-2-4.8,1a6.572,6.572,0,0,1-4.8,2.7l-16.5,1.7q-3,.3-3-2.7v-7.9a2.933,2.933,0,0,1,2.9-3.3l37.3-3.7q2.6-1.8,0-3.7l-2.7-2q-2.61-1.9-4.5.6a7.548,7.548,0,0,1-5.3,3.4l-74.7,7.5a3.334,3.334,0,0,0,3.9,2.5l35.7-3.6q3-.3,3,2.7v29.1q0,3-3.2,2.6a18.523,18.523,0,0,1-8.4-3.4q-4.6-3.2-7.8-9.9a80.131,80.131,0,0,0,3.7-9,2.328,2.328,0,0,1,2-1.8q2.295-2-.5-2.6l-2.4-.4q-2.8-.5-3.8,3-5.3,22.3-23.1,35.7,1.1,1.2,2.7,0a50.5,50.5,0,0,0,18.5-19.7q1.7-3,3.3.1a20.084,20.084,0,0,0,11.6,10.8q8.1,3.1,23,1.6l26.6-2.7a5.716,5.716,0,0,0,4.6-3.2l1.6-.5c0-1-.27-1.466-0.8-1.4q-6.9.9-31.7,3.3a54.311,54.311,0,0,1-9.1.6q-2.4.1-2.4-2.9v-12.8a2.969,2.969,0,0,1,3-3.3Zm105.5-53.6-2.6-1.9q-2.595-1.9-4.4.6l-2.3,3-47.8,4.8q-3,.3-1.4-2.8a26.67,26.67,0,0,0,2-4.1,1.733,1.733,0,0,1,1.7-1.2q2.6-1.9-.1-2.7l-2.2-.8q-2.7-.8-3.8,2.2a98.209,98.209,0,0,1-8.3,17,86.153,86.153,0,0,1-11.9,16,1.873,1.873,0,0,0,2.7-.1,62.032,62.032,0,0,0,14.4-16.9,6.688,6.688,0,0,1,5-3.4l59-5.9q2.505-1.9,0-3.8h0Zm-39.7,31.05a21.685,21.685,0,0,1,6.5,5.85,2.462,2.462,0,0,0,2.6-.4q1.59-1.6-.3-4.3-3.795-5.6-17-7-0.9,1.3.3,1.9A33.374,33.374,0,0,1,1249.52,51.834Zm-2.2,23.55a21.816,21.816,0,0,1,6.7,6.1,2.674,2.674,0,0,0,2.7-.4q1.695-1.6-.3-4.6-4.11-5.8-17.4-7.3-0.9,1.3.3,1.9a34.574,34.574,0,0,1,8,4.3h0Zm-21.6-5.3q0.6-3.3,3.5-3.6l42.2-4.2q3-.3,2.6,3.5a119,119,0,0,1-1.7,14.4q-0.4,2.6-3.4,2.9l-43.6,4.4q-3,.3-2.4-2.9,1.395-6.3,2.8-14.5h0Zm49.1-14.5c-0.14,2.267-1.2,3.5-3.2,3.7l-41.8,4.1q-3,.3-2.5-3.1,1.5-8.6,2.1-13.5a3.418,3.418,0,0,1,3.3-3.3l39.9-3.9c2-.2,2.96.734,2.9,2.8q-0.105,5.2-.7,13.2h0Zm17.9,0.6-2.2-1.6q-2.6-1.9-4.5.6l-2.2,2.8-1.7.2q-3,.3-2.9-2.6,0.495-5.8.7-14.7a1.914,1.914,0,0,1,1.6-2q2.49-1.6.2-3.3l-1.8-1.3c-1.53-1.066-2.97-.8-4.3.8l-1,1.3-42.7,4.2-3.3-1.2q-2.7-1.1-3,1.5-0.4,5.9-2.6,19.4-0.6,3.9-3.6,4.2l-14.5,1.4a3.348,3.348,0,0,0,3.9,2.6l10.1-1q3-.3,2.4,3-1.11,6.6-2.9,15.3a2.961,2.961,0,0,1-1.8,2.1c-1.73.934-1.87,2-.4,3.2l1.4,1.1q2.19,1.6,5-1.4l45.8-4.6q3-.3,1.9,3.7a7.568,7.568,0,0,1-2.1,4.4,6.618,6.618,0,0,1-4.1,1.8q-3.4.3-13.5,0.2-0.105,2,2.7,2.1,4.4,0.1,6.3,1.2,1.7,3.4,5,2.7,3.2,0,7-4.5a20.613,20.613,0,0,0,3.4-8.4q0.9-4,3.9-4.3l11.4-1.1q2.6-1.9,0-3.9l-2.2-1.7a2.926,2.926,0,0,0-4.5.7l-0.9,1.1a4.291,4.291,0,0,1-3.2,1.9q-3,.3-2.7-2.4a138.076,138.076,0,0,0,1.6-14.3c0.26-2.6,1.4-4,3.4-4.2l10.9-1.1q2.6-1.8,0-3.9h0Zm16.8,4.6,82.9-8.3q3-1.9.6-3.8-1.605-1.4-5.3-4-2.7-1.9-4.5.6l-2,2.7a6.475,6.475,0,0,1-4.8,2.8l-70.9,7.1c0.66,2.134,2,3.1,4,2.9h0Zm182.8-27.3q2.6-1.9,0-3.8l-2.4-1.8q-2.61-1.9-4.5.6l-2.2,2.9-42.2,4.2a3.213,3.213,0,0,0,3.8,2.6Zm-35.2,52.1c0.93,1.067,1.8,1.234,2.6.5q2.4-1.9,1.9-9.4-0.9-14.8-12.3-30.8c-1.07.467-1.4,1.1-1,1.9q6.795,12,8.8,37.8h0Zm6.8-63.8a20.9,20.9,0,0,1,3.8,8.5c1.2,0.867,2.23.9,3.1,0.1q2.1-1.7.7-5.7-2.4-7-13.2-11.7-1.3.9-.3,1.9a32.376,32.376,0,0,1,5.9,6.9h0Zm-22.9,5a2.9,2.9,0,0,1,2-1.8q2.4-1.9-.4-2.6l-2.6-.7c-1.87-.466-3.13.367-3.8,2.5q-2.805,9.9-7,20.9c1.07,0.4,1.8.3,2.2-.3a167.168,167.168,0,0,0,9.6-18h0Zm-28.9,18.5a2.274,2.274,0,0,0,2.5.7q2.3-.9,2.1-5-0.4-7.8-9.6-15.8a1.482,1.482,0,0,0-.7,2.3q5.2,9.7,5.7,17.8h0Zm30.6,6.9q2.505-1.8.1-3.8l-2-1.5q-2.4-1.6-4.1.6a6.475,6.475,0,0,1-4.8,2.8l-2.3.3q-3,.3-3-2.6v-26.9a2.2,2.2,0,0,1,1.6-2.2q1.8-2.5-1.2-2.6l-1.8-.1a2.652,2.652,0,0,0-3,3v29.1a2.933,2.933,0,0,1-2.9,3.3l-15,1.5a3.213,3.213,0,0,0,3.8,2.6l9.3-.9q3-.3,2.1,3a108.956,108.956,0,0,1-16.5,36.1q1.5,1.4,2.9-.4a85.232,85.232,0,0,0,15-25.4q1.3-3.1,1.3-.1v36.6q0,2.4,3.2,1.4a2.137,2.137,0,0,0,1.2-1.5v-40.1q0-3,2.5-.3,6.3,6.3,8.3,12.5a2.7,2.7,0,0,0,3.2.1q2-1.6.5-5.5-2.7-7-12.3-11.2a3.391,3.391,0,0,1-2.2-3.1,2.969,2.969,0,0,1,3-3.3Zm30.4,40.3q-3,.3-1.9-2.7a276.515,276.515,0,0,0,12.6-43.1,2.833,2.833,0,0,1,2.1-2.2q1.995-2.4-1-2.6l-3.2-.3c-1.93-.133-3.07.9-3.4,3.1a361.893,361.893,0,0,1-9.5,45.3,4.07,4.07,0,0,1-3.8,3.3l-29.5,3a3.151,3.151,0,0,0,3.7,2.6l55-5.5c1.67-1.266,1.86-2.4.6-3.4l-2.5-1.8c-2.14-1.533-3.93-1.333-5.4.6a6.475,6.475,0,0,1-4.8,2.8Zm106.8-56q7.2,6.7,9.2,12.7,2.505,1.3,3.7-.6,1.8-2.8-1.5-8-6.21-9.8-24.8-16.2c-0.8.734-.84,1.334-0.1,1.8a65.881,65.881,0,0,1,13.5,10.3h0Zm-26.5-22.6-2-.1a2.652,2.652,0,0,0-3,3v37.5q0,2.3,3.2,1.4a2.406,2.406,0,0,0,1.2-1.5v-35.4a2.353,2.353,0,0,1,1.8-2.4q1.8-2.4-1.2-2.5h0Zm-34.4,29.9a93.959,93.959,0,0,1-13.5,15.7,1.4,1.4,0,0,0,2.3.2,77.239,77.239,0,0,0,13.7-13.1l9.7-13.4,2.2-2.3q3.105-1.7.4-2.7l-2.4-.7a2.767,2.767,0,0,0-3.9,1.7q-2.1,5.4-8.5,14.6h0Zm36.4,53q-3,.3-3-2.7v-15.5q0-2.9,3-3.2l30.9-3.1q2.4-1.9,0-3.8l-2.2-1.6a2.926,2.926,0,0,0-4.5.7l-2.1,2.6-22.1,2.2q-3,.3-3-2.6v-7.8q2.895-2.6-.1-2.7l-1.3-.1a2.652,2.652,0,0,0-3,3v7.9a2.969,2.969,0,0,1-3,3.3l-33.1,3.3a3.213,3.213,0,0,0,3.8,2.6l29.3-2.9q3-.3,3,2.7v15.5q0,2.9-3,3.2l-40.1,4a3.214,3.214,0,0,0,3.8,2.6l84.2-8.4q2.6-1.8.6-3.4l-2.6-1.9c-2.13-1.533-3.84-1.5-5.1.1l-2.5,3.2Zm128.9-67.6c1.2,1.334.26,2.3-2.8,2.9q-26.4,4.4-35.1,5.9-1.605.1,1.1-2a105.045,105.045,0,0,0,17.3-17.6,4.372,4.372,0,0,1,3.3-1.7q2.3-1.8-.4-2.9l-2.8-1a3.151,3.151,0,0,0-4.1,1.4,103.785,103.785,0,0,1-8.2,11.35,75.77,75.77,0,0,1-11.3,11.95q-3.3,1.1-2.1,3.7l2,3.8a9.182,9.182,0,0,1,4.9-3.2q14.19-2.8,37.6-7.8,3.69-.8,5.3,2.1l1.1,2.6q2.1,1.2,3.3-.2,1.995-2.1-.1-6.3-3.705-7.6-17.3-12.3-1.2,1.1.3,2.3a30.716,30.716,0,0,1,8,7h0Zm-59.8,49.6c-1.34.6-2-.1-2-2.1v-26.4a2.969,2.969,0,0,1,3-3.3l8.8-.9q2.6-1.9,0-3.9l-2.1-1.5q-2.6-1.9-4.4.5l-2,2.7q-3.3.4-3.3-2.5v-17.7a2.269,2.269,0,0,1,1.7-2.3q1.9-2.5-1.1-2.6l-2-.1a2.652,2.652,0,0,0-3,3v20a2.969,2.969,0,0,1-3,3.3l-10.3,1a3.234,3.234,0,0,0,3.8,2.7l6.5-.7q3-.3,3,2.7v27.8q0,3-3.9,4.7-4.9,2.2-8.3,3.4-2.3.9-.8,3.2l1,1.4c1.06,1.534,2.17,1.434,3.3-.3q4.89-2.8,9.7-5.6,4.905-2.9,9.5-5.5c3.06-1.866,5.2-3.166,6.4-3.9-0.34-1-1.13-1.2-2.4-.6q-4.3,1.8-8.1,3.5h0Zm68.2-13.2-2.2-1.6q-2.6-1.9-4.7.9a6.8,6.8,0,0,1-4.9,2.8l-12.8,1.3q-3,.3-2.5-2.7a45.591,45.591,0,0,0,.8-8.6q0.195-3.5,3.2-3.8l18.6-1.9q2.6-1.9,0-3.9l-2.3-1.7c-1.67-1.2-3.13-.966-4.4.7l-2.2,2.8-27.3,2.7q-2.91.3-1.2-3l0.9-1.8a1.748,1.748,0,0,1,1.7-1c1.66-1.4,1.57-2.366-.3-2.9l-2.3-.7q-2.8-.8-3.9,2.5a75.669,75.669,0,0,1-10.6,21.6,2.274,2.274,0,0,0,3-.6,39.473,39.473,0,0,0,6-7.7,6.491,6.491,0,0,1,4.9-3.2l8.5-.9q3-.3,2.8,3.9a43.826,43.826,0,0,1-.7,8.5q-0.4,2.5-3.4,2.8l-22.1,2.2a3.145,3.145,0,0,0,3.7,2.6l17.7-1.8q3-.3,2,2.7-1.5,6.7-9.1,14.45t-23.5,14.65q1.305,1.7,3.9.5,15.09-5.9,23.4-14.15a40.32,40.32,0,0,0,11-18.85,1.43,1.43,0,0,1,1.6,1.1q6.8,18.9,24.4,25.5a2.905,2.905,0,0,0,3.8-1.2,10.3,10.3,0,0,1,2.9-.8,1.357,1.357,0,0,0-1.1-1.7q-20.7-6.9-26.9-20.7-1.2-2.6,1.8-2.9l21.8-2.2q2.6-1.8,0-3.9h0Zm12.1,52.8q1.2,1.9,3.1.5,4.605-2.5,9-9.45a26.368,26.368,0,0,0,4.4-14.25,17.772,17.772,0,0,0-.9-6,6.141,6.141,0,0,0-4.6-1.5,4.584,4.584,0,0,0-3.2,1.65,5.242,5.242,0,0,0-1.2,3.45q0,2.8,3,4.9c2.07,1.266,2.83,2.9,2.3,4.9q-1.2,8.2-11.9,15.8h0Zm77.8-72.5q0-2.9,3-3.2l45.2-4.5q3-.3,3,2.6v9.2a2.969,2.969,0,0,1-3,3.3l-45.2,4.5q-3,.3-3-2.7v-9.2Zm51.2-13.9a2.969,2.969,0,0,1-3,3.3l-45.2,4.5q-3,.3-3-2.7v-8.2a2.969,2.969,0,0,1,3-3.3l45.2-4.5q3-.3,3,2.7v8.2Zm-20.7,41.6q-3,.3-3-2.7v-9.5a2.969,2.969,0,0,1,3-3.3l18.2-1.8c1.67-.2,2.5.534,2.5,2.2s0.97,2.167,2.9,1.5a2.994,2.994,0,0,0,1.5-1.3v-35.4a2.589,2.589,0,0,1,1.9-2.6q2.4-1.7,0-3.3l-2-1.4q-2.4-1.6-4.4.9l-0.9,1.1-49.6,5-2.3-1q-2.6-1.1-2.6,1.9v40.7q0,2.4,3.2,1.5a2.3,2.3,0,0,0,1.1-1.2q0-3.8,3-4.1l17.2-1.7q2.9-.3,2.9,2.7v9.5a2.969,2.969,0,0,1-3,3.3l-40.6,4.1a3.283,3.283,0,0,0,3.8,2.6l36.9-3.7q2.9-.3,2.9,2.7v22.1c0,1.265.83,1.7,2.5,1.3a3.407,3.407,0,0,0,1.4-.9l0.5-22.9a2.969,2.969,0,0,1,3-3.3l38.4-3.8c1.6-.2,2.43-0.833,2.5-1.9a55.568,55.568,0,0,0-5.6-4.2q-2.7-2-4.6.5l-2.7,3.6Zm132.8-.6q-1.2,10.9-3.3,16.3a5.717,5.717,0,0,1-3.3,3.5,35.72,35.72,0,0,1-8.3,1.5l-42.2,4.2a22.924,22.924,0,0,1-7.9-.1,3.31,3.31,0,0,1-2.5-3.6v-34.2q0-2.9,3-3.2l48.9-4.9q3-.3,3,2.7v2.7q0,2.3,2.9,1.4a3.348,3.348,0,0,0,1.5-1.4v-32a3.213,3.213,0,0,1,2.5-3.3q2.295-1.8-.1-3.4l-2.5-1.7q-2.4-1.5-4.4.9l-1,1.3-64.5,6.4a3.348,3.348,0,0,0,3.9,2.6l58.7-5.8q3-.3,3,2.7v20.7a2.969,2.969,0,0,1-3,3.3l-48.9,4.9q-3,.3-3-2.7v-7.1a1.645,1.645,0,0,1,1.3-1.7q1.995-2.5-1-2.5l-1.7-.1a2.652,2.652,0,0,0-3,3v51.7q0,5.1,3.7,6.6,3.795,1.7,11.7.9l41.9-4.2q19.9-2,19.9-6.1a0.924,0.924,0,0,0-.7-1,3.6,3.6,0,0,1-2.9-3.8l-0.1-16.4c-0.87.067-1.4,0.7-1.6,1.9h0Zm103.2-45.8-2.3-1.8q-2.6-1.9-4.5.6l-2.3,2.9-37.6,3.8q-3,.3-1.6-3a63.75,63.75,0,0,0,4-10.3,2.878,2.878,0,0,1,2.4-2c1.53-1.2,1.37-2-.5-2.4l-2.8-.5q-2.805-.5-3.9,3.1a74.775,74.775,0,0,1-4.7,13.3,4.6,4.6,0,0,1-4.1,2.9l-26.1,2.6a3.348,3.348,0,0,0,3.9,2.6l20.7-2.1q3-.3,1.5,2.9a104.385,104.385,0,0,1-29.2,37.1c0.8,0.8,1.73.8,2.8,0a82.477,82.477,0,0,0,14-12.7q2.295-2.5,2.3.5v39.6q0,2.4,3.1,1.4a2.844,2.844,0,0,0,1.3-1.1v-42.6a5.878,5.878,0,0,1,3-5c-1.93-.6-2.27-1.733-1-3.4a98.06,98.06,0,0,0,8.8-14.3,5.68,5.68,0,0,1,4.6-3.5l48.2-4.8q2.505-1.9,0-3.8h0Zm-24.5,67.1q-3,.3-3-2.7v-24.4a2.969,2.969,0,0,1,3-3.3l19.2-1.9q2.505-1.8,0-3.8l-2.1-1.6q-2.7-1.9-4.6.6a6.918,6.918,0,0,1-5,3l-7.5.7q-3,.3-3-2.7v-15a1.645,1.645,0,0,1,1.3-1.7q1.9-2.5-1.1-2.5l-1.6-.1a2.652,2.652,0,0,0-3,3v16.8a2.969,2.969,0,0,1-3,3.3l-18.9,1.9a3.213,3.213,0,0,0,3.8,2.6l15.1-1.5q3-.3,3,2.7v24.4a2.969,2.969,0,0,1-3,3.3l-25.2,2.5a3.089,3.089,0,0,0,3.7,2.6l58.2-5.8q2.505-1.8.6-3.3l-2.5-1.9q-3.195-2.3-5.4.6a6.475,6.475,0,0,1-4.8,2.8Zm72.8-46.1q-3,.3-3-2.7v-24.6a2.45,2.45,0,0,1,1.7-2.4q1.8-2.5-1.2-2.6l-2-.1a2.652,2.652,0,0,0-3,3v70.9a3.71,3.71,0,0,1-2.5,3.9,26.73,26.73,0,0,0-4.2,1.4q-2.1.7-4.2,1.4c-1.53.466-2.3-.3-2.3-2.3v-50.3a2.429,2.429,0,0,1,1.9-2.5q1.8-2.4-1.2-2.5l-2.1-.1a2.652,2.652,0,0,0-3,3v53.9q0,3-3.7,4.2l-2.9.8q-3,.8-1.7,3.4l0.7,1.2c0.87,1.732,2.03,1.732,3.5,0q17.805-7,46.1-19.1-0.5-1.7-2.4-1-7.1,2.5-14.4,5.1-3.105,1-3.1-2v-33.7a2.969,2.969,0,0,1,3-3.3l16-1.6q2.6-1.9.6-3.4l-2.7-2q-3.2-2.3-5.1.2a7.548,7.548,0,0,1-5.3,3.4Zm51.5,28.5q-1.7,13.7-2.3,15.3a2.387,2.387,0,0,1-1.8,1.6,87.38,87.38,0,0,1-9,1.2l-8.7.9q-2.895.3-3.9-.4-0.9-.6-0.9-2.6v-36a4.426,4.426,0,0,1,2.8-4.3,108.633,108.633,0,0,0,23.6-15.9q3.6-.2,1.6-2.1l-1.9-1.8q-1.995-1.9-4.5.6a105.9,105.9,0,0,1-19,16.2q-2.6,1.8-2.6-1.2v-30.1a2.518,2.518,0,0,1,1.8-2.5q1.8-2.5-1.2-2.5l-2-.1a2.652,2.652,0,0,0-3,3v78.4q0,3.6,1.9,4.8,1.905,1.3,6.9.8l9.5-.9a100.232,100.232,0,0,0,13.9-2.1q3.495-1,3.5-2.8a1.455,1.455,0,0,0-.5-1.2,3.038,3.038,0,0,1-2.1-3.1l-0.3-15.9q-1.395.2-1.8,2.7h0Zm89.7-28.1q6.9,5,9.6,9.1c1.4,0.534,2.43.4,3.1-.4q1.6-1.9-1.2-5.7-6-8.1-21.5-12.4-3.7-1.1-3.7-4v-17.9a2.45,2.45,0,0,1,1.7-2.4q1.9-2.4-1.1-2.5l-2-.1a2.652,2.652,0,0,0-3,3v72.5q0,2.3,3.2,1.2a2.147,2.147,0,0,0,1.2-1.4v-44.5q0-3,2.4-1.6a71.1,71.1,0,0,1,11.3,7.1h0Zm-47.6,25.4c-0.87,1.6-1.73,1.8-2.6.6q-6.3-9.3-11.1-30.3l0.4-1.3q1.305-3.3,4.2-3.6l17.7-1.8c1.93-.133,2.67,1,2.2,3.4q-3.105,19.1-10.8,33h0Zm21.1,18.8q-11.895-3-18.1-10.7a3.669,3.669,0,0,1-.5-4.6q8.595-13.8,13.3-38.3a2.365,2.365,0,0,1,1.8-2q2.4-1.4.3-3.3l-1.5-1.2q-2.205-1.8-4.3.5l-1,1.2-19.1,1.9q-2.895.3-1.7-3,2.295-6.2,4.1-12.5a2.943,2.943,0,0,1,2.4-2.3q2.1-1.9-.9-2.1l-3-.2a3.242,3.242,0,0,0-3.6,2.7,275.814,275.814,0,0,1-8.1,27.65,204.049,204.049,0,0,1-11.1,27.15,1.8,1.8,0,0,0,2.6-.7,152.61,152.61,0,0,0,10.7-21.7q1.5-3.6,2.3,0,3.6,16.6,9.8,26.4c0.87,1.267.73,2.834-.4,4.7q-8.295,13.9-24.6,25c0.8,0.932,1.87.965,3.2,0.1q15.105-9.1,23.6-21.9,1.8-2.6,3.7-.2,6.3,8.4,18.6,11.6,12.4,3.4,31.3,1.5l6.3-.6a5.716,5.716,0,0,0,4.6-3.2c1.13-1.333.87-1.933-.8-1.8l-9.2.9q-18.705,1.9-30.7-1h0Zm75.2-18.7q-3.3,1.7-4.7,2.4-1.8.9-1.8-2.1v-24.4a2.969,2.969,0,0,1,3-3.3l8.8-.9q2.505-1.8,0-3.8l-2.1-1.5q-2.595-2-4.5.5l-2,2.7q-3.2.3-3.2-2.7v-17.9a2.123,2.123,0,0,1,1.7-2.2q1.905-2.5-1.1-2.6l-2.1-.1a2.652,2.652,0,0,0-3,3v20.3a2.969,2.969,0,0,1-3,3.3l-10.3,1a3.213,3.213,0,0,0,3.8,2.6l6.5-.6q3-.3,3,2.7v26.2q0,3-4.2,5.1-5.8,2.9-8.2,3.8-1.9.8-.6,3.4l0.6,1.1q1.3,2.6,3.1-.1,7.2-4.4,17.2-10.9t11.9-7.7a1.3,1.3,0,0,0-1.9-.8q-1.695.9-6.9,3.5h0Zm14.8-27.8a2.969,2.969,0,0,1,3-3.3l12.5-1.3q3-.3,3,2.7v10.7a2.969,2.969,0,0,1-3,3.3l-12.5,1.3q-3,.3-3-2.7v-10.7Zm18.5-10.8a2.969,2.969,0,0,1-3,3.3l-12.5,1.3q-3,.3-3-2.7v-10.5a2.969,2.969,0,0,1,3-3.3l12.5-1.3q3-.3,3,2.7v10.5Zm22.7-2.2a2.969,2.969,0,0,1-3,3.3l-12.4,1.2q-2.9.3-2.9-2.7v-10.5a2.969,2.969,0,0,1,3-3.3l12.4-1.2q2.895-.3,2.9,2.7v10.5Zm-18.3,10.7a2.969,2.969,0,0,1,3-3.3l12.4-1.2q2.895-.3,2.9,2.7v10.7a2.969,2.969,0,0,1-3,3.3l-12.4,1.2q-2.9.3-2.9-2.7v-10.7Zm3,51.6q-3,.3-3-2.7v-11a2.969,2.969,0,0,1,3-3.3l21.9-2.2q2.6-1.7,0-3.7l-2.4-1.7q-2.595-2-4.8.9a6.475,6.475,0,0,1-4.8,2.8l-9.9,1q-3,.3-3-2.7v-9.4a2.969,2.969,0,0,1,3-3.3l14.1-1.4a0.97,0.97,0,0,1,1.2,1.1q0,2.5,3,1.5a3.259,3.259,0,0,0,1.4-1.4v-37.7a2.745,2.745,0,0,1,2.1-2.8q2.295-1.7-.1-3.3l-2-1.4q-2.4-1.5-4.4.9l-1,1.2-39,3.9-2.9-1.1q-2.7-1.1-2.7,1.9v45.6c0,1.267.83,1.734,2.5,1.4a4.181,4.181,0,0,0,1.4-1l0.5-1.8a2.969,2.969,0,0,1,3-3.3l12.5-1.3q3-.3,3,2.7v9.4a2.969,2.969,0,0,1-3,3.3l-24.4,2.5a3.2,3.2,0,0,0,3.8,2.5l20.6-2.1q3-.3,3,2.7v11a2.969,2.969,0,0,1-3,3.3l-30.8,3.1a3.2,3.2,0,0,0,3.8,2.5l61.9-6.1q2.595-1.8.6-3.4l-2.8-2q-3.2-2.3-5.1.2l-2.5,3.2Zm34.6-69.2a3.366,3.366,0,0,0,3.9,2.7l34-3.4q3-.3,3,2.7v73.4q0,2.5,3.2,1.4a1.973,1.973,0,0,0,1.2-1.2v-51.5q0-3,2.5-1.8a97.431,97.431,0,0,1,15.9,7.8q9.195,5.4,13.1,10.3c1.6,0.4,2.67.134,3.2-.8q1.5-2.3-2.5-6.4-8.505-9-28.5-13.2-3.7-.9-3.7-3.9v-14.7q0-2.9,3-3.2l40.1-4q2.7-1.9.7-3.4a18.6,18.6,0,0,0-3.3-2.3q-3.2-2.3-5.1.2l-0.8,1.1a6.5,6.5,0,0,1-4.7,2.7Zm175.7-8.6-68.9,6.9a3.348,3.348,0,0,0,3.9,2.6l60-6q3-.3.5,2.1a160.142,160.142,0,0,1-22.6,19.1l-2.3-.2a2.652,2.652,0,0,0-3,3v50.3a2.5,2.5,0,0,1-.7,2,4.158,4.158,0,0,1-2.4.8q-2.595.3-16.4,0.7,0,1.7,2.4,1.6,6-.1,8.6,1l1,0.6c1.13,1.665,2.97,2.132,5.5,1.4a6.527,6.527,0,0,0,4.4-2.3,8.085,8.085,0,0,0,2-5.8v-48.6a1.961,1.961,0,0,1,1.5-2,12.993,12.993,0,0,1,4.1-3.8q11.505-6.6,28.3-20.5l2-.3q2.505-1.1.3-2.9l-2.2-1.9q-2.1-1.8-4.3.4Zm42.9,18.7q2.9-.3,2.9,2.7v2.9a2.933,2.933,0,0,1-2.9,3.3l-5.9.6q-2.9.3-2.9-2.7v-2.9a2.933,2.933,0,0,1,2.9-3.3Zm19.3,4a2.969,2.969,0,0,1-3,3.3l-6,.6q-3,.3-3-2.7v-2.9a2.969,2.969,0,0,1,3-3.3l6-.6q3-.3,3,2.7v2.9Zm-12,27.1v-12.2q0-3,2.5-1.9a24.094,24.094,0,0,1,5.9,3.1,21.9,21.9,0,0,1,6,5,2.744,2.744,0,0,0,2.8-.5q1.605-1.5-.3-4.2-3.8-5.5-16.9-6.2a2.969,2.969,0,0,1,3-3.3l9-.9q0,3,2.9,2.1a3.348,3.348,0,0,0,1.5-1.4v-12.7q3.3-1.8.9-3.4l-1.2-.9c-1.53-1-3.17-.5-4.9,1.5l-8.2.9q-3,.3-3-3.1a2.969,2.969,0,0,1,3-3.3l16.7-1.7q2.595-1.9,0-3.9l-1.9-1.3q-2.595-2-4.5.5l-1.9,2.5-8.4.9q-3,.3-3-2.8a2.589,2.589,0,0,1,1.9-2.6q1.8-2.4-1.2-2.4l-2.1-.1a2.652,2.652,0,0,0-3,3v2.6a2.969,2.969,0,0,1-3,3.3l-17.9,1.8a3.213,3.213,0,0,0,3.8,2.6l14.2-1.4q2.9-.3,2.9,3.1a2.969,2.969,0,0,1-3,3.3l-8.2.8-2.2-.9q-2.7-1-2.7,2v15q0,2.4,3.1,1.6c0.87-.466,1.3-0.833,1.3-1.1a1.72,1.72,0,0,1,1.7-1.9l5-.5q3-.3,1.4,2.4-5.595,10-18.8,19.5a1.85,1.85,0,0,0,2.8.6q11.3-6.7,17.5-15,2.1-2.6,2.1.4v11q0,2.3,3.3,1.4a1.885,1.885,0,0,0,1.1-1.3h0Zm24.8,30.7q-3,.3-3-2.7v-6.2a2.969,2.969,0,0,1,3-3.3l25.1-2.5c1.6-.2,2.43-0.8,2.5-1.8a30.733,30.733,0,0,0-4.7-3.6q-2.595-2-4.5.5l-2.2,2.9-16.2,1.6q-3,.3-3-2.7v-4.1a2.969,2.969,0,0,1,3-3.3l30.6-3.1q2.6-1.7,0-3.8l-2.3-1.7q-2.6-1.8-4.7,1a6.8,6.8,0,0,1-4.9,2.8l-62.2,6.2a3.334,3.334,0,0,0,3.9,2.5l29.3-2.9q2.895-.3,2.9,2.7v19.2a2.969,2.969,0,0,1-3,3.3l-11.5,1.2q-3,.3-3-2.7v-11a2.06,2.06,0,0,1,1.4-2q1.905-2.4-1.1-2.4l-1.7-.1a2.652,2.652,0,0,0-3,3v12.9a2.969,2.969,0,0,1-3,3.3l-18.1,1.8a3.336,3.336,0,0,0,3.9,2.5l83.8-8.4q2.6-1.8.6-3.4l-2.4-1.8q-3.2-2.3-5,.2l-2.3,3.1Zm23.3-71.4q2.9-.2,1.8,3.4a33.783,33.783,0,0,1-6.1,12.3q-1.8,2.5-3.7.4-4.1-4.1-8-13.4a2.156,2.156,0,0,1,1.8-1.2Zm15.9-5.3-2.2-1.7q-2.595-2-4.7.9a6.475,6.475,0,0,1-4.8,2.8l-15,1.5q-3,.3-1.8-2.4a40.031,40.031,0,0,0,2.2-5.4,2.149,2.149,0,0,1,1.8-1.5q2.4-2.1-.4-2.7l-2.4-.5q-2.8-.6-3.7,2.8a75.447,75.447,0,0,1-13.4,28.2,2.315,2.315,0,0,0,3-.5,39.566,39.566,0,0,0,6.1-7.9c1.27-2,2.33-1.866,3.2.4a41.564,41.564,0,0,0,5.9,10.4q1.695,2.1-.3,4.2-6.6,7.7-21.6,15.2c0.53,0.934,1.47,1.134,2.8.6q13.8-5.8,21.1-13.2,2.1-2,4.3.2a35,35,0,0,0,15.1,8.8,3.776,3.776,0,0,0,4.7-1.5l2.3-1.1a1.054,1.054,0,0,0-1-1.4q-11.7-2.5-18.3-8.2-2.1-1.8-.2-4.1a41.172,41.172,0,0,0,8.5-15.9q1.2-3.5,4.2-3.8l4.6-.4q2.505-1.9,0-3.8h0Zm69.1,16.6q-3,.3-3-2.7v-18.9a1.569,1.569,0,0,1,1.2-1.6q1.995-2.4-1-2.4l-1.6-.1q-3,0-3,2.9v20.6a2.969,2.969,0,0,1-3,3.3l-23.3,2.3q-3,.3-3-2.7v-14.4a2.037,2.037,0,0,1,1.6-2.1q1.905-2.5-1.1-2.5l-1.9-.1a2.652,2.652,0,0,0-3,3v32a99.887,99.887,0,0,1-4,29.6,52.253,52.253,0,0,1-14.4,22.8,2.01,2.01,0,0,0,3-.1q16.2-13.1,18.7-36.5,0.495-3.6,3.5-3.9l30.7-3.1q3-.3,3,2.7v34.4c0,1.532.93,2.032,2.8,1.5a4.079,4.079,0,0,0,1.6-.8v-34.8a3.373,3.373,0,0,1,2.5-3.4q2.2-1.7-.2-3.3l-2.5-1.6q-2.4-1.6-4.3.9l-1,1.2-32.4,3.3q-3,.3-2.8-2.5,0.2-1.6.2-6.9v-6.5a2.969,2.969,0,0,1,3-3.3l62.8-6.3q2.595-1.8.6-3.3l-2.5-1.9q-3.105-2.3-5.4.8a6.4,6.4,0,0,1-4.8,2.7Zm111.7-10.8a2.933,2.933,0,0,1-2.9,3.3l-43.3,4.3q-3,.3-3-2.7v-4.9a2.933,2.933,0,0,1,2.9-3.3l43.3-4.3q3-.3,3,2.7v4.9Zm-49.2,13.8a2.933,2.933,0,0,1,2.9-3.3l43.3-4.3q3-.3,3,2.7v5.2a2.933,2.933,0,0,1-2.9,3.3l-43.3,4.3q-3,.3-3-2.7v-5.2Zm47.1,6.5a1.677,1.677,0,0,1,2.1,1.9c0,1.467.97,1.9,2.9,1.3a3.348,3.348,0,0,0,1.5-1.4v-27.6a2.589,2.589,0,0,1,1.9-2.6q2.4-1.7,0-3.3l-2-1.4q-2.4-1.5-4.4,1l-0.9,1.1-47.7,4.7-2.3-.9q-2.595-1.2-2.6,1.8v33.1q0,2.4,3.2,1.6a2.083,2.083,0,0,0,1.2-1.1q0-3.5,3-3.8Zm-17.2,50.6q-2.895.3-2.9-2.7v-9.2a2.969,2.969,0,0,1,3-3.3l27-2.7c1.73-1.266,1.77-2.533.1-3.8l-2.3-1.7q-2.7-1.9-4.5.6l-2.1,2.8-18.2,1.8q-3,.3-3-2.7v-6.9a2.969,2.969,0,0,1,3-3.3l29.8-3q2.6-1.7,0-3.8l-2.2-1.7a2.926,2.926,0,0,0-4.5.7l-2.2,2.8-20.9,2.1q-3,.3-3-2.7v-3.3a2.518,2.518,0,0,1,1.8-2.5q1.8-2.5-1.2-2.5l-2-.1q-3,0-3,2.9v5.9a2.969,2.969,0,0,1-3,3.3l-14.2,1.5q-3,.3-1.2-2.6l2-3.6a2.13,2.13,0,0,1,1.9-1.2q2.595-1.8-.1-2.8l-2.1-.8q-2.7-.9-4,2a75.717,75.717,0,0,1-7.4,13.8,71.842,71.842,0,0,1-10.5,13.2,1.816,1.816,0,0,0,2.7,0,50.472,50.472,0,0,0,11.4-11.8,7.481,7.481,0,0,1,5.2-3.1l16.3-1.7q3-.3,3,2.7v6.9a2.969,2.969,0,0,1-3,3.3l-27,2.7a3.234,3.234,0,0,0,3.8,2.7l23.2-2.4q3-.3,3,2.7v9.2a2.933,2.933,0,0,1-2.9,3.3l-41.1,4.1a3.336,3.336,0,0,0,3.9,2.5l84.2-8.4q2.7-1.8.7-3.4l-2.7-2q-3.2-2.3-5.7,1a6.475,6.475,0,0,1-4.8,2.8Zm104.9-76.8a18.716,18.716,0,0,1,2.3,7.9,2.556,2.556,0,0,0,2.9.5q2.205-1.2,1.6-5.1-1.095-6.7-10.4-11.6c-0.8.467-.97,1-0.5,1.6a30.393,30.393,0,0,1,4.1,6.7h0Zm-34.1,33.1q-3,.3-2.4-3.2a61.073,61.073,0,0,0,1.1-6.7,3.507,3.507,0,0,1,3.4-3.4l8.1-.8q2.895-.3,2.9,2.7v7.1a2.969,2.969,0,0,1-3,3.3Zm13.1-20.4a2.933,2.933,0,0,1-2.9,3.3l-7.8.8c-2,.2-2.97-0.433-2.9-1.9q0.3-2.3.4-6.9,0.3-4.4,3.3-4.7l6.9-.7q3-.3,3,2.6v7.5Zm1.4,56.8a2.969,2.969,0,0,1-3,3.3l-14.4,1.4q-3,.3-3-2.7v-17a2.969,2.969,0,0,1,3-3.3l14.4-1.4q3-.3,3,2.7v17Zm36.2-16.3q-3,.3-3-2.7v-13.8a2.969,2.969,0,0,1,3-3.3l13.8-1.4q2.595-1.9,0-3.8l-2.4-1.8q-2.6-1.9-4.8,1a6.475,6.475,0,0,1-4.8,2.8l-1.8.2q-3,.3-3-2.7v-11.2a2.969,2.969,0,0,1,3-3.3l15.6-1.6q2.6-1.9,0-3.8l-2.4-1.8q-2.595-1.9-4.5.6l-2.3,2.9-4,.4q-3,.3-1.4-2.3a147.746,147.746,0,0,0,7.4-13.5,2.67,2.67,0,0,1,2.2-1.6c1.53-1.333,1.37-2.233-.5-2.7l-2.2-.4q-2.8-.7-3.9,2.6a126.96,126.96,0,0,1-5.9,15.5,5.022,5.022,0,0,1-4.3,3.3l-17,1.7a3.348,3.348,0,0,0,3.9,2.6l8.8-.9q3-.3,3,2.7v11.2a2.969,2.969,0,0,1-3,3.3l-13.5,1.4a3.213,3.213,0,0,0,3.8,2.6l9.7-1q3-.3,3,2.7v13.8a2.969,2.969,0,0,1-3,3.3l-16.5,1.7a3.2,3.2,0,0,0,3.8,2.5l12.7-1.3q3-.3,3,2.6v19.2c0,1.332.87,1.765,2.6,1.3a4.347,4.347,0,0,0,1.4-.8l0.5-20a2.969,2.969,0,0,1,3-3.3l16.7-1.7q2.505-1.8.6-3.3l-2.3-1.7c-2.07-1.533-3.73-1.466-5,.2l-2.2,2.8Zm-26.2-41.1q-2.505-2-4.3.6-1.8,2.5-2-.4l-0.7-7.3a2.745,2.745,0,0,1,2.1-2.8q2.295-1.8-.1-3.3l-2-1.4q-2.4-1.6-4.4.8l-1,1.2-30.7,3.1a3.334,3.334,0,0,0,3.9,2.5l7.2-.7q3-.3,2.9,3a54.706,54.706,0,0,1-.3,6.8q-0.105,3.3-3.1,3.6l-14.4,1.5a3.213,3.213,0,0,0,3.8,2.6l10.3-1q3-.3,2.5,3.5a46.383,46.383,0,0,1-.9,6.6,3.534,3.534,0,0,1-3.5,3.1l-9.6,1a3.334,3.334,0,0,0,3.9,2.5l5.1-.5q2.895-.3,2,3a70.246,70.246,0,0,1-14.2,28.9q1.6,1.5,3.4-.5a49.848,49.848,0,0,0,7.8-11.5q1.5-2.8,1.5.2v25.9q0,2.5,3.2,1.4a1.973,1.973,0,0,0,1.2-1.2v-2.8a2.969,2.969,0,0,1,3-3.3l14.4-1.4q3-.3,3,3.5,0,2.5,3,1.5a3.272,3.272,0,0,0,1.4-1.4v-27.3a2.745,2.745,0,0,1,2.1-2.8q2.295-1.7-.1-3.3l-2-1.4q-2.4-1.5-4.4.9l-1,1.1-18.2,1.8q-2.6-.9-1.5-4a21.038,21.038,0,0,0,1.5-4.5q1.005-3.5,4-3.8l12.6-1.3a0.97,0.97,0,0,1,1.2,1.1q0,2.5,3,1.5a2.893,2.893,0,0,0,1.4-1.3v-14.8a2.969,2.969,0,0,1,3-3.3l5.6-.6c1.67-1.2,1.63-2.566-.1-4.1Z"/>
</svg>
