<svg xmlns="http://www.w3.org/2000/svg" width="218" height="60" viewBox="0 0 218 60">
  <defs>
    <style>
      .cls-1 {
        fill: #fff;
        fill-rule: evenodd;
      }
    </style>
  </defs>
  <path id="个影像" class="cls-1" d="M89.725,52.366q0,1.2,1.6.7a0.959,0.959,0,0,0,.6-0.65V24.666a2.508,2.508,0,0,1,1.45-2.3q0.349-.75-0.4-0.75l-1.75-.1a1.326,1.326,0,0,0-1.5,1.5v29.35Zm9.8-31.6a52,52,0,0,0,10.65,7.45,1.621,1.621,0,0,0,2.25-.65l1.4-.75a0.84,0.84,0,0,0-.6-1,47.469,47.469,0,0,1-11.65-6.45,46.851,46.851,0,0,1-9.05-8.9q-0.35-.55.35-0.75,1.1-.9-0.35-1.1l-1.5-.25a1.716,1.716,0,0,0-2,1q-2,4.7-8.15,11.8a84.663,84.663,0,0,1-12.95,12.15,0.68,0.68,0,0,0,1.1.3,71.537,71.537,0,0,0,12.4-10.55,63.135,63.135,0,0,0,9.05-11.35q0.75-1.249,1.4,0a38.423,38.423,0,0,0,7.65,9.05h0Zm44.75,0.6a1.165,1.165,0,0,0,1.7.15,59.621,59.621,0,0,0,12.7-10.75l1.25-1.05q1.549-.7.25-1.3l-1-.5a1.535,1.535,0,0,0-2.15.6,62.312,62.312,0,0,1-12.75,12.85h0Zm16.65,1q1.8-.55.5-1.15l-0.95-.45a1.535,1.535,0,0,0-2.15.6,71.993,71.993,0,0,1-13.95,14.3,1.117,1.117,0,0,0,1.6.15,71.977,71.977,0,0,0,14.95-13.45h0Zm-21.4-8.85a1.484,1.484,0,0,1-1.5,1.65l-11.85,1.2a1.192,1.192,0,0,1-1.5-1.35v-0.6a1.484,1.484,0,0,1,1.5-1.65l11.85-1.2a1.192,1.192,0,0,1,1.5,1.35v0.6Zm-14.85,6a1.484,1.484,0,0,1,1.5-1.65l11.85-1.2a1.192,1.192,0,0,1,1.5,1.35v0.75a1.46,1.46,0,0,1-1.5,1.6l-11.85,1.2a1.172,1.172,0,0,1-1.5-1.3v-0.75Zm13.95,2.3a0.707,0.707,0,0,1,.9.8q0,1.2,1.5.75a1.352,1.352,0,0,0,.7-0.7V12.616a1.215,1.215,0,0,1,.95-1.25q1.2-.9,0-1.65l-1-.7a1.447,1.447,0,0,0-2.15.4l-0.5.55-14.1,1.4-1.1-.45q-1.35-.5-1.35,1v12.85q0,1.25,1.6.85a1.041,1.041,0,0,0,.6-0.55q0-1.849,1.5-2Zm7.35,3.95-1.05-.8a1.512,1.512,0,0,0-2.35.4,3.238,3.238,0,0,1-2.4,1.4l-5.35.5q-1.45.15-.6-1.15a2.012,2.012,0,0,0-.85-1.8,5.778,5.778,0,0,0-3.05-1.25,0.449,0.449,0,0,0-.1.8l1.25,1.85a1.235,1.235,0,0,1-1.2,1.7l-10.5,1.35q-1.1,1.65.4,1.5l25.8-2.6a1.035,1.035,0,0,0,0-1.9h0Zm-23.95,22.65a27.936,27.936,0,0,1-4.1,4.6,0.91,0.91,0,0,0,1.35.1,21.462,21.462,0,0,0,3.95-3.4l2.8-3.2,1.05-1.1q1.55-.8.2-1.3l-0.9-.35a1.489,1.489,0,0,0-2,.85,22.088,22.088,0,0,1-2.35,3.8h0Zm15.75-15.3a1.192,1.192,0,0,1,1.5,1.35v1.55a1.484,1.484,0,0,1-1.5,1.65l-11.3,1.15a1.192,1.192,0,0,1-1.5-1.35v-1.55a1.484,1.484,0,0,1,1.5-1.65Zm3,7.85a1.641,1.641,0,0,0,.7-0.6v-6.55a0.864,0.864,0,0,1,.7-0.9q1.2-.9,0-1.65l-0.8-.6a1.46,1.46,0,0,0-2.15.35l-0.4.5-13.6,1.35-1.1-.4q-1.35-.55-1.35.95v8.5q0,1.2,1.55.8a1.24,1.24,0,0,0,.65-0.5,1.618,1.618,0,0,1,1.5-1.9l3.05-.3a1.192,1.192,0,0,1,1.5,1.35v8.85a0.8,0.8,0,0,1-.2.65,1.055,1.055,0,0,1-.75.3q-0.75.049-4.5,0.15a0.882,0.882,0,0,0,1.05.85,4.3,4.3,0,0,1,2.2.5,1.759,1.759,0,0,0,2.5,1.05l1.15-.9a4.723,4.723,0,0,0,.75-2.8v-8.95a1.46,1.46,0,0,1,1.5-1.6l3.35-.3a0.93,0.93,0,0,1,1.2,1.05q0,1.2,1.5.75h0Zm-2.65,4.3a7.872,7.872,0,0,1,2.15,3.3,1.3,1.3,0,0,0,1.55-.1,1.9,1.9,0,0,0,.25-2.4q-1.35-2.95-6.85-4.1-0.5.551,0,.9a11.84,11.84,0,0,1,2.9,2.4h0Zm2.65,7a1.086,1.086,0,0,0,1.65.3,56.794,56.794,0,0,0,18.8-15.25l1.25-1q1.6-.7.3-1.3l-1-.5a1.629,1.629,0,0,0-2.2.65q-6.3,9.35-18.8,17.1h0Zm32.8-28.825a79.886,79.886,0,0,1-5.8,11.875,0.982,0.982,0,0,0,1.4-.35,44.486,44.486,0,0,0,4.35-7.2q0.8-1.5.8,0v26q0,1.2,1.55.7a1.412,1.412,0,0,0,.65-0.55V25.466a3.057,3.057,0,0,1,1.5-2.55q-1.851-.45-1.2-2.05a67.8,67.8,0,0,0,3.05-8,3.3,3.3,0,0,1,2-2.15q0.35-.6-0.25-0.65l-2-.45a1.361,1.361,0,0,0-1.8,1.2A103.4,103.4,0,0,1,173.575,23.441Zm12.5-1.175a1.484,1.484,0,0,1,1.5-1.65l7.85-.8q1.5-.15.9,1.35a14.9,14.9,0,0,1-1.8,3.65,3.367,3.367,0,0,1-2.5,1.65l-4.5.45a1.168,1.168,0,0,1-1.45-1.35v-3.3Zm11.65-4.2-11.05,1.15q-1.151-.4-0.3-1.35a43.908,43.908,0,0,0,3.3-4l9.8-1q1.5-.15.65,1.45a22.937,22.937,0,0,1-2.4,3.75h0Zm10.5,5.25a1.484,1.484,0,0,1-1.5,1.65l-9.1.95q-1.5.15-.7-1.15a13.222,13.222,0,0,0,1.75-3.5,2.668,2.668,0,0,1,2.2-2l5.85-.6a1.192,1.192,0,0,1,1.5,1.35v3.3Zm-6.8,11.8q-1.451,1.05-2.2-.5a10.973,10.973,0,0,0-4.25-5.25,1.076,1.076,0,0,1-.05-1.7l13.3-1.35q0,1.65,1.5,1.2a1.289,1.289,0,0,0,.7-0.6v-7.55a0.864,0.864,0,0,1,.7-0.9q1.2-.9,0-1.65l-0.8-.55q-1.15-.75-2.55.8l-7.35.75q-1.5.15-.55-0.75a33.861,33.861,0,0,0,4.05-4.45l0.7-.1q1.25-.55.2-1.5l-0.9-.75a1.351,1.351,0,0,0-2.1.25l-0.6.65-8.95.9q-1.451.15-.4-1.45l0.7-1.1q1.8-.75.4-1.05l-1.2-.3a1.693,1.693,0,0,0-2.05,1,37.449,37.449,0,0,1-4.4,7.15,41.248,41.248,0,0,1-6.6,7.35,1.091,1.091,0,0,0,1.45.1,16.226,16.226,0,0,0,2.2-1.9q1.449-1.3,1.45.2v7.75q0,0.95,1.3.7a2.1,2.1,0,0,0,.7-0.5,1.656,1.656,0,0,1,1.4-1.6l3.65-.35q1.5-.15.55,1-3.4,4.2-11.05,8.05a1.016,1.016,0,0,0,1.55.4,30.5,30.5,0,0,0,10.5-7.1q1.05-1.05,2.4.45a1.6,1.6,0,0,1,.05,2.3,36.1,36.1,0,0,1-5.95,5.2,53.006,53.006,0,0,1-8.5,5.2,0.851,0.851,0,0,0,1.2.55,58.261,58.261,0,0,0,7.85-4.3l6.5-4.75q1.1-.949,1.8.75a2.113,2.113,0,0,1-.5,2.35,46.679,46.679,0,0,1-7.75,6.725,43.881,43.881,0,0,1-10.25,5.675,0.685,0.685,0,0,0,1.05.55,38.183,38.183,0,0,0,9.4-4.65l8.05-6.05q1.149-1.05,1.4.6a12.736,12.736,0,0,1,.1,4.3,7.458,7.458,0,0,1-1.25,3.95,1.637,1.637,0,0,1-1.25.55q-0.8.1-6.5,0.35a0.968,0.968,0,0,0,1.15.95,9.071,9.071,0,0,1,2.8.45,2.515,2.515,0,0,0,2.8.9,3.3,3.3,0,0,0,2.65-1.55,10.33,10.33,0,0,0,1.75-5.85,17.956,17.956,0,0,0-.85-7.05,1.2,1.2,0,0,1,.65-1.55q1.35-.7,1.85.95a14.814,14.814,0,0,0,8.05,9.6,1.079,1.079,0,0,0,1.55-.6q1.4-.75.05-1.4a21.178,21.178,0,0,1-5.05-3.6,14.421,14.421,0,0,1-3.6-4.85,1.567,1.567,0,0,1,.75-2.15,52.412,52.412,0,0,0,5.55-3.6q1.4-.2.4-1.05l-0.5-.4a1.547,1.547,0,0,0-2.25.3,45.45,45.45,0,0,1-6.6,5.45h0Z"/>
  <path id="_68" data-name="68" class="cls-1" d="M14.479,48.066q-2.45-4.082-2.45-11.433,0-1.282.058-1.867,4.141-4.958,9.392-5.483A6.553,6.553,0,0,1,27.6,31.558q2.275,2.568,2.275,7.875a14.445,14.445,0,0,1-2.392,8.633,8.317,8.317,0,0,1-6.125,3.617A6.721,6.721,0,0,1,14.479,48.066ZM19.5,14.612A28.763,28.763,0,0,0,8.354,37.449q0,7.993,3.442,12.308t9.45,3.675a12.721,12.721,0,0,0,8.808-4.608,15.359,15.359,0,0,0,3.5-10.267q0-5.832-3.033-8.954t-8.167-2.6q-5.834.584-8.75,4.317-1.343,1.518-1.108-.408,0.757-6.357,5.95-12.425a29.049,29.049,0,0,1,14.233-8.75,1.1,1.1,0,0,0-1.633-.817A27.912,27.912,0,0,0,19.5,14.612ZM45.221,50.02a7.712,7.712,0,0,1-2.45-6.154A10.2,10.2,0,0,1,44.637,37.8,14.079,14.079,0,0,1,48.9,33.6a3.636,3.636,0,0,1,3.733-.467,14.21,14.21,0,0,1,6.125,3.558,7.8,7.8,0,0,1,2.392,5.717A8.716,8.716,0,0,1,58.637,48.8a10.511,10.511,0,0,1-6.708,2.946Q47.67,52.15,45.221,50.02Zm1.167-35.9a9.071,9.071,0,0,1,5.6-2.683,6.429,6.429,0,0,1,5.542,1.692,7.258,7.258,0,0,1,2.042,5.367,11.248,11.248,0,0,1-1.633,6.067,12.842,12.842,0,0,1-3.5,3.908,3.579,3.579,0,0,1-3.617.467,10.774,10.774,0,0,1-4.842-3.383,8.747,8.747,0,0,1-1.925-5.658A7.844,7.844,0,0,1,46.387,14.116ZM62.6,18.258a8.1,8.1,0,0,0-2.858-6.65q-2.859-2.391-7.7-1.925A12.819,12.819,0,0,0,44.054,13.3a9.937,9.937,0,0,0-3.208,7.525q0,7.818,6.475,10.208,1.925,0.818.058,1.925A17.961,17.961,0,0,0,41.9,37.683,10.738,10.738,0,0,0,39.5,44.508a8.505,8.505,0,0,0,3.267,7.175q3.266,2.391,9.042,1.808A15.012,15.012,0,0,0,60.971,49.7a10.824,10.824,0,0,0,3.5-8.167,9.794,9.794,0,0,0-2.392-6.767,13.392,13.392,0,0,0-6.008-3.85q-1.868-.758.117-1.983Q62.6,25.2,62.6,18.258h0Z"/>
</svg>
