<svg xmlns="http://www.w3.org/2000/svg" width="1000" height="120" viewBox="0 0 1000 120">
  <defs>
    <style>
      .cls-1 {
        fill: #fff;
        fill-rule: evenodd;
      }
    </style>
  </defs>
  <path id="并非繁星凑成了银河_而是每一粒尘埃_早已在此处埋下了整片星群" data-name="并非繁星凑成了银河,  而是每一粒尘埃, 早已在此处埋下了整片星群" class="cls-1" d="M18.989,14.234a10.706,10.706,0,0,1,2.2,4.6,1.146,1.146,0,0,0,1.55,0q1-.9.2-2.95-1.451-3.7-7.35-6.35-0.65.45-.15,0.9A21.051,21.051,0,0,1,18.989,14.234Zm1.4,8.45a1.484,1.484,0,0,1,1.5-1.65l10.6-1.05a1.192,1.192,0,0,1,1.5,1.35v8.95a1.484,1.484,0,0,1-1.5,1.65l-10.6,1.05a1.192,1.192,0,0,1-1.5-1.35v-8.95Zm17.35,8.7a1.192,1.192,0,0,1-1.5-1.35v-8.95a1.484,1.484,0,0,1,1.5-1.65l9.4-.9a1.044,1.044,0,0,0,.05-1.9l-1.45-1.05a1.43,1.43,0,0,0-2.25.3l-1.2,1.6-8.5.85q-1.5.15-.35-1.2a38.807,38.807,0,0,0,5.1-7.45,1.39,1.39,0,0,1,1.1-.75q1.15-1.05-.25-1.3l-1.3-.2q-1.4-.3-2.1,1.45a46.632,46.632,0,0,1-4.25,8.45,2.78,2.78,0,0,1-2.25,1.45l-22.8,2.25a1.683,1.683,0,0,0,1.95,1.35l8.05-.85a1.211,1.211,0,0,1,1.45,1.4v8.95a1.484,1.484,0,0,1-1.5,1.65l-11.8,1.15a1.674,1.674,0,0,0,1.95,1.3l9.8-.95q1.5-.15,1.35,1.5a19.279,19.279,0,0,1-1.25,5.55,20.794,20.794,0,0,1-4.05,6.7,34.1,34.1,0,0,1-7.85,6.35,1.134,1.134,0,0,0,1.6.2,29.7,29.7,0,0,0,6.1-4.1,21.23,21.23,0,0,0,4.55-5.3,22.774,22.774,0,0,0,2.3-5.45l0.8-4.2a1.734,1.734,0,0,1,1.65-1.8l10.7-1.05a1.192,1.192,0,0,1,1.5,1.35v17.1q0,1,1.3.65a2.17,2.17,0,0,0,.7-0.4l0.25-17.6a1.484,1.484,0,0,1,1.5-1.65l11.1-1.1q1.3-.9.3-1.65l-1.45-1.15q-1.6-1.1-2.55.15l-1.25,1.65Zm18.6-12.6a1.674,1.674,0,0,0,1.95,1.3l10.95-1.1a1.192,1.192,0,0,1,1.5,1.35v6a1.46,1.46,0,0,1-1.5,1.6l-11.95,1.2a1.674,1.674,0,0,0,1.95,1.3l10-1a1.192,1.192,0,0,1,1.5,1.35v7.9a1.484,1.484,0,0,1-1.5,1.65l-14.5,1.45a1.674,1.674,0,0,0,1.95,1.3l12.6-1.25a1.168,1.168,0,0,1,1.45,1.35v9.75q0,1.2,1.6.7a1.075,1.075,0,0,0,.6-0.7V11.684a1.222,1.222,0,0,1,.85-1.2q0.949-1.249-.55-1.25l-1-.05a1.279,1.279,0,0,0-1.5,1.45v5.2a1.484,1.484,0,0,1-1.5,1.65Zm29.3,19.65a1.21,1.21,0,0,1-1.45-1.4v-7.6a1.484,1.484,0,0,1,1.5-1.65l11.4-1.1q1.3-.949,0-1.95l-1.15-.85a1.54,1.54,0,0,0-2.35.5,3.4,3.4,0,0,1-2.45,1.4l-5.45.5a1.192,1.192,0,0,1-1.5-1.35v-6a1.46,1.46,0,0,1,1.5-1.6l12.25-1.2a1.035,1.035,0,0,0,0-1.9l-1.2-.95a1.436,1.436,0,0,0-2.25.3l-1.15,1.5-7.7.8a1.21,1.21,0,0,1-1.45-1.4v-3.75a1.137,1.137,0,0,1,.85-1.15q0.9-1.249-.6-1.3l-0.95-.05a1.3,1.3,0,0,0-1.5,1.45v42.1q0,1.2,1.6.7a1.067,1.067,0,0,0,.6-0.75V41.484a1.46,1.46,0,0,1,1.5-1.6l13.25-1.3q1.249-.949.3-1.7l-1.35-1a1.742,1.742,0,0,0-2.75.45,3.286,3.286,0,0,1-2.4,1.35Zm43.1-26.85-0.7-.5a1.364,1.364,0,0,0-2.2.25l-0.8,1.1-11.8,1.15q-1.5.15-.7-1.15l0.75-1.45q1.7-.8.25-1.05l-0.6-.15a1.712,1.712,0,0,0-2,1.2,32.518,32.518,0,0,1-2.45,4.8,27.9,27.9,0,0,1-3.9,5.25,0.879,0.879,0,0,0,1.2.05,18.642,18.642,0,0,0,3.8-4.1,3.726,3.726,0,0,1,2.65-1.8l16.5-1.65q1.249-.9,0-1.95h0Zm-10.55,15.6q1.2,0.65,1.65-.3a1.159,1.159,0,0,0-.5-1.65,6.3,6.3,0,0,0-4.5-.7,0.854,0.854,0,0,0,.7,1,3.685,3.685,0,0,1,2.65,1.65h0Zm0.2-5.5q1.3,0.45,1.7-.45a1.183,1.183,0,0,0-.65-1.6,6.88,6.88,0,0,0-4.5-.3,0.781,0.781,0,0,0,.75.95,3.512,3.512,0,0,1,2.7,1.4h0Zm4.7-1.3a1.541,1.541,0,0,1-1.55,1.65l-7.55.75q-1.5.15-1.35-1.15l0.15-1.15a1.779,1.779,0,0,1,1.65-1.8l7.35-.75a1.127,1.127,0,0,1,1.4,1.35Zm-9.95,8.1q-1.5.15-1.35-1.5l0.15-.75a2.122,2.122,0,0,1,1.85-2.05l7.75-.75a1.15,1.15,0,0,1,1.45,1.35l-0.1,1.2a1.541,1.541,0,0,1-1.55,1.65Zm16.35-.25q1.15-.85.15-1.65l-0.45-.45a1.415,1.415,0,0,0-2.2.35l-0.5.65q-1.65.15-1.6-1.35l0.05-1.2a1.521,1.521,0,0,1,1.5-1.65l2.95-.3q1.15-.85.15-1.65l-0.45-.4a1.314,1.314,0,0,0-2.15.25l-0.55.7a1.019,1.019,0,0,1-1.3-1.2l0.1-2.6q1.5-.7.05-1.9-1.1-.85-2.4.6l-8.9.9-1.35-.3a1.042,1.042,0,0,0-1.5,1.05q0,0.4-.35,3-0.251,2.051-1.75,2.2l-4.1.4a1.557,1.557,0,0,0,1.85,1.2l2.1-.2a1.06,1.06,0,0,1,1.3,1.4,3.233,3.233,0,0,1-1.75,2.75q-0.6.35-.15,0.75l1.15,0.95q1.1,0.9,2.45-.55Zm-16.75,21.55a64.413,64.413,0,0,1-6.85,4.25,1.113,1.113,0,0,0,1.45.3,48.862,48.862,0,0,0,6.25-3.2l4.85-3.2,1.25-.75q1.65-.55-0.05-1.4a1.8,1.8,0,0,0-2.25.3,33.81,33.81,0,0,1-4.65,3.7h0Zm27.15-11.8q1.15,0.851-1,1.2-18,3.05-25.6,4.2-0.9.1,0.65-.45a180.409,180.409,0,0,0,22-9.7l0.9,0.25q1.4-.5.35-1.45l-0.45-.35a1.818,1.818,0,0,0-2.4-.1q-1.05.65-3.65,2-7.3,1.2-13.65,2.1-1.5.2,0.1-.35a77.88,77.88,0,0,0,9.85-4.3l1,0.2q1.3-.75-0.35-1.7a2.427,2.427,0,0,0-2.75.25,46.8,46.8,0,0,1-12.45,5.7q-1.05.3-.55,1.15l0.8,1.3q0.35,0.7.95,0.1,5.651-1.05,12.15-2.35,1.751-.349.2,0.45a116.987,116.987,0,0,1-16.95,7.15q-1.4.35-.8,1.5l1,1.75a3.106,3.106,0,0,1,1.7-1.1q4.151-.7,13.3-2.35,2.05-.4,2.05,1.05v6a1.083,1.083,0,0,1-1.2,1q-1.05.1-6.05,0.25,0,0.8,1.05.8a10.1,10.1,0,0,1,3.2.4,2.473,2.473,0,0,0,2.85.8l1.5-.9a3.569,3.569,0,0,0,.85-2.55v-6.1q0-1.5,1-1.65,3.3-.649,12.65-2.4a16.3,16.3,0,0,1,2.85,3,1.376,1.376,0,0,0,1.45-.1q0.9-.75-0.1-2.4-2.05-3.4-9.75-5.55a0.643,0.643,0,0,0,.2,1.1,23.6,23.6,0,0,1,3.1,2.15h0Zm1.9,9.45a19.761,19.761,0,0,1,4.9,3.15,1.229,1.229,0,0,0,1.25-.15q0.75-.851-0.5-2.2-2.95-3.25-12.85-4.3a0.787,0.787,0,0,0,.6,1.15,28.586,28.586,0,0,1,6.6,2.35h0Zm0.25-34.3q1.5-.15,1,1.65a16.536,16.536,0,0,1-3.05,6.7q-0.851,1.25-1.8.3a15.942,15.942,0,0,1-3.9-5.95q-0.7-1.65.8-1.8Zm6.85-2.6-0.9-.6a1.436,1.436,0,0,0-2.25.3l-0.8,1.1-9,.9q-1.5.15-.8-1.5l0.35-.95a0.936,0.936,0,0,1,.75-0.6q1.15-1.05-.3-1.3l-0.8-.15a1.466,1.466,0,0,0-1.85,1.35,29.425,29.425,0,0,1-4.1,10,1.206,1.206,0,0,0,1.55-.5l1.2-1.6q0.95-1.5,1.55.2a18.932,18.932,0,0,0,3.55,6,1.4,1.4,0,0,1-.1,2.1q-2.7,3.15-9.05,6.65a0.912,0.912,0,0,0,1.35.25,28.826,28.826,0,0,0,8.85-5.75,1.447,1.447,0,0,1,2.25-.05,15.047,15.047,0,0,0,6.15,3.15,2.137,2.137,0,0,0,2.5-.8l0.95-.4q0.1-.55-0.6-0.65a18.3,18.3,0,0,1-7.75-3,1.2,1.2,0,0,1-.2-1.95,19.432,19.432,0,0,0,4.1-8.15,2.4,2.4,0,0,1,2.05-2l1.35-.15a1.052,1.052,0,0,0,0-1.9h0Zm41.15,4.65a1.465,1.465,0,0,1-1.45,1.65l-21.65,2.15a1.192,1.192,0,0,1-1.5-1.35v-2.45a1.465,1.465,0,0,1,1.45-1.65l21.65-2.15a1.192,1.192,0,0,1,1.5,1.35v2.45Zm-24.6,6.9a1.465,1.465,0,0,1,1.45-1.65l21.65-2.15a1.192,1.192,0,0,1,1.5,1.35v2.6a1.465,1.465,0,0,1-1.45,1.65l-21.65,2.15a1.192,1.192,0,0,1-1.5-1.35v-2.6Zm23.55,3.25a0.839,0.839,0,0,1,1.05.95q0,1.1,1.45.65a1.65,1.65,0,0,0,.75-0.7v-13.8a1.3,1.3,0,0,1,.95-1.3q1.2-.85,0-1.65l-1-.7a1.523,1.523,0,0,0-2.2.5l-0.45.55-23.85,2.35-1.15-.45q-1.3-.6-1.3.9v16.55q0,1.2,1.6.8a1.041,1.041,0,0,0,.6-0.55,1.618,1.618,0,0,1,1.5-1.9Zm-8.6,25.3a1.168,1.168,0,0,1-1.45-1.35v-4.6a1.484,1.484,0,0,1,1.5-1.65l13.5-1.35q1.3-.949.05-1.9l-1.15-.85a1.43,1.43,0,0,0-2.25.3l-1.05,1.4-9.1.9a1.192,1.192,0,0,1-1.5-1.35v-3.45a1.484,1.484,0,0,1,1.5-1.65l14.9-1.5q1.3-.85,0-1.9l-1.1-.85a1.463,1.463,0,0,0-2.25.35l-1.1,1.4-10.45,1.05a1.192,1.192,0,0,1-1.5-1.35v-1.65a1.259,1.259,0,0,1,.9-1.25q0.9-1.249-.6-1.25l-1-.05a1.3,1.3,0,0,0-1.5,1.45v2.95a1.484,1.484,0,0,1-1.5,1.65l-7.1.75q-1.5.15-.6-1.3l1-1.8a1.063,1.063,0,0,1,.95-0.6q1.3-.9-0.05-1.4l-1.05-.4a1.492,1.492,0,0,0-2,1,37.858,37.858,0,0,1-3.7,6.9,35.921,35.921,0,0,1-5.25,6.6,0.908,0.908,0,0,0,1.35,0,25.316,25.316,0,0,0,5.7-5.9,3.736,3.736,0,0,1,2.6-1.55l8.15-.85a1.192,1.192,0,0,1,1.5,1.35v3.45a1.484,1.484,0,0,1-1.5,1.65l-13.5,1.35a1.618,1.618,0,0,0,1.9,1.35l11.6-1.2a1.192,1.192,0,0,1,1.5,1.35v4.6a1.465,1.465,0,0,1-1.45,1.65l-20.55,2.05a1.668,1.668,0,0,0,1.95,1.25l42.1-4.2q1.35-.9.35-1.7l-1.35-1a1.837,1.837,0,0,0-2.85.5,3.238,3.238,0,0,1-2.4,1.4Zm29.3-34.225a11.934,11.934,0,0,1,2.6,3.675,1.434,1.434,0,0,0,1.7-.1q1-.9.1-2.7-1.65-3.25-7.9-4.8-0.55.551-.05,0.95A17.788,17.788,0,0,1,209.689,16.409Zm-1.25,23.725a3.024,3.024,0,0,1-.4.75l-2.85.55a1.307,1.307,0,0,0,1.4,1.35l0.95,0.3q1.7,0.9.8,9-0.1,2.4,1,2.3,1.85-.2,2-3.25a21.127,21.127,0,0,0-.4-4.85,27.871,27.871,0,0,1-.5-3.3,15.03,15.03,0,0,1,.75-4.15q0.3-.9,3.05-8.55t3.85-10.85q-0.95-.15-1.65,1.5-7.2,17.45-8,19.2h0Zm25.8-.45q-1.5.15-1.15-1.55l0.15-1.55a1.734,1.734,0,0,1,1.65-1.8l4.7-.45a1.019,1.019,0,0,0,0-1.9l-1.25-.95a1.383,1.383,0,0,0-2.2.3l-1.1,1.5-11.2,1.1a1.607,1.607,0,0,0,1.9,1.3l3.45-.35q1.5-.15,1.3,2l-0.2,1.5a1.663,1.663,0,0,1-1.7,1.45l-9.85.95a1.555,1.555,0,0,0,1.85,1.35l7.6-.8q1.5-.15.95,1.3-0.6,2.1-3.7,5.1a32.282,32.282,0,0,1-9.2,5.7,1.524,1.524,0,0,0,1.95.15q9.6-3.75,12.35-8.9a1.389,1.389,0,0,1,1.95-.6,41.277,41.277,0,0,1,6.25,3.05,23.613,23.613,0,0,1,5.55,4.05,1.459,1.459,0,0,0,1.55-.3q0.851-1.05-.75-2.75-3.35-3.8-13.4-5.45a2.455,2.455,0,0,1,2.1-1.9l11.75-1.15q1.3-.949.3-1.7l-1.25-.95q-1.6-1.15-2.5.1l-1.15,1.5Zm14.6-15.75-1.25-.9a1.36,1.36,0,0,0-2.2.25l-1.1,1.5-14.75,1.5q-1.5.15-.75-1.4l0.8-1.8a2.546,2.546,0,0,1,2.15-1.9l13.3-1.3q1.3-.949,0-1.95l-1.2-.9a1.43,1.43,0,0,0-2.25.3l-1.1,1.5-8.2.8q-1.5.15-.9-1.75l0.3-1.15a2.025,2.025,0,0,1,1.9-1.6l13.55-1.35a1.035,1.035,0,0,0,0-1.9l-1.2-.9a1.45,1.45,0,0,0-2.25.25l-1.15,1.5-8.6.85q-1.5.15-1.25-1.2l0.35-1.8a1.8,1.8,0,0,1,1.25-1.65q1-1.05-.5-1.1l-1.55-.15q-1.451-.049-1.65,1.7a21.049,21.049,0,0,1-.45,3,1.913,1.913,0,0,1-1.8,1.75l-10.75,1.1a1.607,1.607,0,0,0,1.9,1.3l8.5-.85q1.5-.15,1.05,1.7l-0.3,1.1a2.051,2.051,0,0,1-1.9,1.7l-7,.7a1.607,1.607,0,0,0,1.9,1.3l4.6-.45q1.5-.15.7,1.85l-0.8,1.85a2.324,2.324,0,0,1-2.05,1.35l-7.7.8a1.607,1.607,0,0,0,1.9,1.3l5.05-.5q1.5-.15.65,1.35a32.689,32.689,0,0,1-9.55,10.65,0.93,0.93,0,0,0,1.3.05,29.57,29.57,0,0,0,10.5-11,2.984,2.984,0,0,1,2.35-1.6l7.5-.75a2.069,2.069,0,0,1,2.2,1.15,14.256,14.256,0,0,0,3.9,4.5,16.731,16.731,0,0,0,5,3.1,1.457,1.457,0,0,0,2.05-.9q1.5-.75.1-1.2a40.966,40.966,0,0,1-5.35-2.5,14.246,14.246,0,0,1-4.35-3.35q-0.851-1.05.6-1.2l8.5-.85q1.3-.9,0-1.9h0Zm40.25-12.8a8.886,8.886,0,0,1,2.95,2.55,1.259,1.259,0,0,0,1.3-.2q0.9-.75-0.05-2.1-1.75-2.55-7.8-2.9-0.45.65,0.15,0.9a13.4,13.4,0,0,1,3.45,1.75h0Zm9.5,30.85a34.669,34.669,0,0,1-1.5,4.75,2.181,2.181,0,0,1-.45.8,2.338,2.338,0,0,1-1.3-.25,15.76,15.76,0,0,1-7.35-6,2.226,2.226,0,0,1,.05-2.65,42.152,42.152,0,0,0,6.1-12.8,1.487,1.487,0,0,1,1.25-1.15q1.1-.9-0.3-1.15l-1.4-.3q-1.4-.2-1.85,1.5a37.982,37.982,0,0,1-4.95,11.95q-0.8,1.35-1.4.15-3-6-3.75-15.9-0.15-1.75,1.35-1.9l15.65-1.6q1.3-.9,0-1.9l-1.2-.85a1.36,1.36,0,0,0-2.2.25l-1.15,1.5-11.2,1.15a1.283,1.283,0,0,1-1.6-1.35q-0.1-2.05-.1-5.6a1.083,1.083,0,0,1,.8-1.15q0.95-1.3-.5-1.3l-1.15-.05q-1.5,0-1.5,1.85,0,3.6.25,6.6a1.305,1.305,0,0,1-1.4,1.5l-15.2,1.55-1.35-.6q-1.35-.55-1.35.95v10.7a75.388,75.388,0,0,1-1.1,13.6,29.341,29.341,0,0,1-4.55,11.1,0.838,0.838,0,0,0,1.35-.2,22.147,22.147,0,0,0,3.2-5.15,28.529,28.529,0,0,0,2.15-6.7q0.649-3.45.9-6.2l0.2-4.5a1.616,1.616,0,0,1,1.55-1.8l7.15-.75q1.5-.15,1.4,2.45-0.251,10.2-1.8,11.9a2.169,2.169,0,0,1-1.55.65q-1,.1-5,0.1a0.984,0.984,0,0,0,1.15,1,3.637,3.637,0,0,1,2.15.45,1.964,1.964,0,0,0,2.35,1.3q0.9,0.05,2.3-1.55,2.3-2.4,2.6-15.3a1.208,1.208,0,0,1,.75-1.35q1.25-.75.1-1.55l-0.85-.6a1.447,1.447,0,0,0-2.15.4l-0.4.55-8.2.85a1.192,1.192,0,0,1-1.5-1.35v-5.4a1.484,1.484,0,0,1,1.5-1.65l14.3-1.45q1.5-.15,1.65,1.75,1.05,11.25,4.6,17.75a2.035,2.035,0,0,1-.4,2.35,40.566,40.566,0,0,1-13.25,11.95,0.815,0.815,0,0,0,1.25.15,38.037,38.037,0,0,0,12.95-10.45q1.05-1.249,1.9.1a17.676,17.676,0,0,0,7.9,6.45q4.751,2.5,5.65.7a0.771,0.771,0,0,0-.05-0.8,3.47,3.47,0,0,1-1.15-2.75l0.6-5.6a0.924,0.924,0,0,0-.95.85h0Zm43.95-31.6-34.45,3.45a1.674,1.674,0,0,0,1.95,1.3l30-3q1.5-.15.25,1.05a79.958,79.958,0,0,1-11.3,9.55l-1.15-.1a1.326,1.326,0,0,0-1.5,1.5v25.15a1.255,1.255,0,0,1-.35,1,2.079,2.079,0,0,1-1.2.4q-1.3.15-8.2,0.35,0,0.85,1.2.8a11.5,11.5,0,0,1,4.3.5l0.5,0.3a2.245,2.245,0,0,0,2.75.7,3.263,3.263,0,0,0,2.2-1.15,4.033,4.033,0,0,0,1-2.9v-24.3a0.981,0.981,0,0,1,.75-1,6.476,6.476,0,0,1,2.05-1.9,107.463,107.463,0,0,0,14.15-10.25l1-.15q1.25-.55.15-1.45l-1.1-.95a1.42,1.42,0,0,0-2.15.2Zm29.95,22.15-1-.75a1.388,1.388,0,0,0-2.2.3,3.728,3.728,0,0,1-2.8,1.45,1.192,1.192,0,0,1-1.5-1.35v-4.3a1.484,1.484,0,0,1,1.5-1.65l4.45-.45q1.3-.949,0-1.95l-0.8-.6a1.436,1.436,0,0,0-2.25.3l-0.9,1.15-9.2.9a1.5,1.5,0,0,0,1.8,1.35l1.7-.2a1.192,1.192,0,0,1,1.5,1.35v4.3a1.484,1.484,0,0,1-1.5,1.65l-6.8.7a1.543,1.543,0,0,0,1.85,1.3l4.95-.5a1.192,1.192,0,0,1,1.5,1.35v13.05a1.663,1.663,0,0,1-.25.9q-1.249,1.3-.15,2.2l0.7,0.6q0.8,0.6,1.3-.45,1.65-1.7,3.45-3.7t3.4-3.85q1.65-1.849,2.2-2.45-0.5-.6-0.95-0.15-1.7,1.5-5.9,5.25-1.6,1.4-1.6-.1v-11.5a1.484,1.484,0,0,1,1.5-1.65l6-.6a1.035,1.035,0,0,0,0-1.9h0Zm18.7-12.7a1.192,1.192,0,0,1,1.5,1.35v4.4a1.484,1.484,0,0,1-1.5,1.65l-12.35,1.25a1.192,1.192,0,0,1-1.5-1.35v-4.4a1.484,1.484,0,0,1,1.5-1.65Zm-13.85-5.9a1.484,1.484,0,0,1,1.5-1.65l12.35-1.25a1.192,1.192,0,0,1,1.5,1.35v4.3a1.484,1.484,0,0,1-1.5,1.65l-12.35,1.25a1.192,1.192,0,0,1-1.5-1.35v-4.3Zm12.35,23.85q-1.151,1.151-1.95-.2a27.7,27.7,0,0,1-2.7-6.6q-0.45-1.549,1.05-1.7l6.6-.7q0,1.7,1.5,1.25a1.446,1.446,0,0,0,.7-0.65V12.134a1.3,1.3,0,0,1,.95-1.3q1.2-.85.05-1.65l-1.05-.75a1.447,1.447,0,0,0-2.15.4l-0.5.6-14.25,1.45-1.5-.7q-1.3-.6-1.3.9v38.2a1.669,1.669,0,0,1-.25,1.05,1.825,1.825,0,0,0-.55,2.45q0.55,1.1,1.5.05,2.351-1.5,6-3.9,3.7-2.449,4-2.65a0.7,0.7,0,0,0-1.1-.35q-2.149,1.2-5.7,3-1.7.8-1.7-.7v-16.6a1.484,1.484,0,0,1,1.5-1.65l3.1-.3q1.5-.15,1.9,1.75,3.25,15.1,13.65,19.25a1.136,1.136,0,0,0,1.6-.65q1.4-.8-0.05-1.4a18.127,18.127,0,0,1-9.1-7.55q-0.9-1.35.6-2.45a53.827,53.827,0,0,0,5.85-4.75l0.85-.65q1.5-.55.4-1.4l-0.5-.35q-1.1-.9-2.2.5a54.372,54.372,0,0,1-5.25,5.8h0Zm-29.1-17.8a2.494,2.494,0,0,1,2.1-1.75l8.95-.85q1.3-.949,0-1.95l-0.85-.65a1.388,1.388,0,0,0-2.2.3l-0.95,1.2-4.3.4q-1.5.15-.9-1.55a22.541,22.541,0,0,0,.9-2.85,1.091,1.091,0,0,1,.85-0.75q1.1-1.05-.3-1.3l-1.35-.3a1.245,1.245,0,0,0-1.65,1.1,58.9,58.9,0,0,1-2.5,9l-3.8,8.95q0.4,1,.95.3a43.011,43.011,0,0,0,2.3-3.7Zm51-6.1a7.768,7.768,0,0,1,2.35,3.05,1.422,1.422,0,0,0,1.7-.2,2,2,0,0,0,.1-2.55q-1.549-2.85-7.3-3.45-0.5.551,0.05,0.9a11.837,11.837,0,0,1,3.1,2.25h0Zm-3.5,10.95a7.645,7.645,0,0,1,2.45,2.75,1.424,1.424,0,0,0,1.6-.15q0.949-.9.1-2.45-1.6-2.6-7.25-2.95-0.5.6,0.05,0.9a10.484,10.484,0,0,1,3.05,1.9h0Zm0.6,15.8a3.249,3.249,0,0,1-.5.95,0.992,0.992,0,0,1-.6.25l-2.25.2a1.235,1.235,0,0,0,1.4,1.25l1,0.3q1.751,1,.8,9.35,0,2.449,1.15,2.3,2-.2,2.15-3.35a21.146,21.146,0,0,0-.45-5.05,31.348,31.348,0,0,1-.5-3.35,15.54,15.54,0,0,1,.75-4.2q0.35-1.15,3.4-9.45,3.05-8.35,4.2-11.75-1-.15-1.75,1.65-7.95,19.151-8.8,20.9h0Zm14.4-15.1a1.46,1.46,0,0,1,1.5-1.6l7.1-.75a1.173,1.173,0,0,1,1.5,1.3v8.85a1.46,1.46,0,0,1-1.5,1.6l-7.1.75a1.172,1.172,0,0,1-1.5-1.3v-8.85Zm13-4.2-0.8-.55q-1.2-.75-2.55.8l-9.05.9-1.5-.55q-1.35-.45-1.35,1.05v18.9q0,1,1.3.75a2.091,2.091,0,0,0,.7-0.5l0.25-3.3a1.484,1.484,0,0,1,1.5-1.65l7.1-.75a1.192,1.192,0,0,1,1.5,1.35v0.65q0,1.151,1.45.8a1.676,1.676,0,0,0,.75-0.6V23.784a0.824,0.824,0,0,1,.65-0.85q1.25-.85.05-1.6h0Zm-18.45-8.1a1.575,1.575,0,0,0,1.85,1.3l21.6-2.15a1.192,1.192,0,0,1,1.5,1.35v33.9a1.2,1.2,0,0,1-.3.95,1.4,1.4,0,0,1-1,.35q-1.1.1-6.6,0.2,0,0.8,1.05.8a10.83,10.83,0,0,1,3.55.55,2.281,2.281,0,0,0,2.9,1.1l1.7-1.1a4.644,4.644,0,0,0,.9-2.95V13.484a1.484,1.484,0,0,1,1.5-1.65l2.75-.25q1.3-.949.3-1.7l-1.2-.9q-1.6-1.15-2.55.1l-1.1,1.45Zm37.1,47.45a0.942,0.942,0,0,0,1.55.25,13.279,13.279,0,0,0,4.5-4.725,13.165,13.165,0,0,0,2.2-7.125,8.886,8.886,0,0,0-.45-3,3.064,3.064,0,0,0-2.3-.75,2.288,2.288,0,0,0-1.6.825,2.621,2.621,0,0,0-.6,1.725,2.987,2.987,0,0,0,1.5,2.45,2.077,2.077,0,0,1,1.15,2.45q-0.6,4.1-5.95,7.9h0ZM4.839,73.718a1.674,1.674,0,0,0,1.95,1.3l17.25-1.7q1.5-.15,1.1,1.85a48.345,48.345,0,0,1-1.2,4.9,1.816,1.816,0,0,1-1.8,1.4l-10.55,1.05-1.2-.55q-1.3-.55-1.3.9v29.65q0,1.249,1.65.7a0.96,0.96,0,0,0,.55-0.6v-27.1a1.484,1.484,0,0,1,1.5-1.65l6.35-.6a1.192,1.192,0,0,1,1.5,1.35v24.45q0,0.949,1.25.6a2.173,2.173,0,0,0,.7-0.4l0.25-24.9a1.484,1.484,0,0,1,1.5-1.65l6.45-.65a1.192,1.192,0,0,1,1.5,1.35v23.2q0,1.3,1.6.85a0.982,0.982,0,0,0,.6-0.6V83.218a1.484,1.484,0,0,1,1.5-1.65l6.45-.65a1.192,1.192,0,0,1,1.5,1.35v23.75a1,1,0,0,1-.25.8,1.188,1.188,0,0,1-.85.35q-0.95.1-5.4,0.2a0.851,0.851,0,0,0,1.05.85,7.61,7.61,0,0,1,2.7.55,2.237,2.237,0,0,0,2.8,1.05l1.4-.95a4.233,4.233,0,0,0,.75-2.75v-24.1a1.216,1.216,0,0,1,.95-1.25q1.249-.9.05-1.65l-1.2-.8a1.381,1.381,0,0,0-2.1.45l-0.4.55-16.85,1.7q-1.451.15-.8-1.2a53.1,53.1,0,0,0,2.2-5.2,2.654,2.654,0,0,1,2.2-1.95l18.7-1.85q1.3-.949.3-1.7l-1.45-1.1q-1.6-1.1-2.55.1l-1.25,1.7Zm84.25-.4a1.44,1.44,0,0,1-1.45,1.6l-19.95,1.95a1.148,1.148,0,0,1-1.45-1.3v-2.55a1.465,1.465,0,0,1,1.45-1.65l19.95-1.95a1.168,1.168,0,0,1,1.45,1.35v2.55Zm-22.85,6.65a1.465,1.465,0,0,1,1.45-1.65l19.95-1.95a1.168,1.168,0,0,1,1.45,1.35v2.7a1.466,1.466,0,0,1-1.45,1.65l-19.95,1.95a1.168,1.168,0,0,1-1.45-1.35v-2.7Zm22,3.45a0.705,0.705,0,0,1,.85.8q0,1.2,1.5.75a1.635,1.635,0,0,0,.7-0.7V70.518a1.334,1.334,0,0,1,1-1.35q1.2-.8.05-1.6l-1.1-.75a1.484,1.484,0,0,0-2.15.45l-0.5.6-22.1,2.2-1.15-.5q-1.3-.55-1.3.95v16.55q0,1.2,1.55.8a1.387,1.387,0,0,0,.65-0.55,1.575,1.575,0,0,1,1.45-1.85Zm5.95,13.6q1.3-.9,0-1.95l-1.15-.8q-1.3-1-2.4.5a3.286,3.286,0,0,1-2.4,1.35l-8.25.85a1.192,1.192,0,0,1-1.5-1.35v-3.95a1.465,1.465,0,0,1,1.45-1.65l18.65-1.85q1.3-.9,0-1.85l-1.35-1a1.436,1.436,0,0,0-2.25.3,3.778,3.778,0,0,1-2.65,1.7l-37.35,3.75a1.667,1.667,0,0,0,1.95,1.25l17.85-1.8a1.192,1.192,0,0,1,1.5,1.35v14.55a1.2,1.2,0,0,1-1.6,1.3,9.28,9.28,0,0,1-4.2-1.7,12.3,12.3,0,0,1-3.9-4.95,39.564,39.564,0,0,0,1.85-4.5,1.166,1.166,0,0,1,1-.9q1.15-1-.25-1.3l-1.2-.2q-1.4-.25-1.9,1.5a30.45,30.45,0,0,1-11.55,17.85,0.9,0.9,0,0,0,1.35,0,25.262,25.262,0,0,0,9.25-9.85q0.85-1.5,1.65.05a10.05,10.05,0,0,0,5.8,5.4q4.05,1.549,11.5.8l13.3-1.35a2.857,2.857,0,0,0,2.3-1.6l0.8-.25q0-.75-0.4-0.7-3.45.45-15.85,1.65a27.264,27.264,0,0,1-4.55.3q-1.2.05-1.2-1.45v-6.4a1.484,1.484,0,0,1,1.5-1.65Zm52.75-26.8-1.3-.95a1.383,1.383,0,0,0-2.2.3l-1.15,1.5-23.9,2.4q-1.5.15-.7-1.4a12.872,12.872,0,0,0,1-2.05,0.868,0.868,0,0,1,.85-0.6q1.3-.949-0.05-1.35l-1.1-.4a1.432,1.432,0,0,0-1.9,1.1,48.886,48.886,0,0,1-4.15,8.5,42.988,42.988,0,0,1-5.95,8,0.936,0.936,0,0,0,1.35-.05,30.947,30.947,0,0,0,7.2-8.45,3.347,3.347,0,0,1,2.5-1.7l29.5-2.95a1.035,1.035,0,0,0,0-1.9h0Zm-19.85,15.525a10.781,10.781,0,0,1,3.25,2.925,1.23,1.23,0,0,0,1.3-.2q0.8-.8-0.15-2.15-1.9-2.8-8.5-3.5-0.45.65,0.15,0.95A16.65,16.65,0,0,1,127.089,85.743Zm-1.1,11.775a10.881,10.881,0,0,1,3.35,3.05,1.335,1.335,0,0,0,1.35-.2q0.851-.8-0.15-2.3-2.05-2.9-8.7-3.65-0.45.65,0.15,0.95a17.227,17.227,0,0,1,4,2.15h0Zm-10.8-2.65a1.915,1.915,0,0,1,1.75-1.8l21.1-2.1q1.5-.15,1.3,1.75a59.5,59.5,0,0,1-.85,7.2,1.664,1.664,0,0,1-1.7,1.45l-21.8,2.2q-1.5.15-1.2-1.45,0.7-3.15,1.4-7.25h0Zm24.55-7.25a1.7,1.7,0,0,1-1.6,1.85l-20.9,2.05q-1.5.15-1.25-1.55,0.75-4.3,1.05-6.75a1.71,1.71,0,0,1,1.65-1.65l19.95-1.95a1.171,1.171,0,0,1,1.45,1.4q-0.049,2.6-.35,6.6h0Zm8.95,0.3-1.1-.8a1.436,1.436,0,0,0-2.25.3l-1.1,1.4-0.85.1a1.13,1.13,0,0,1-1.45-1.3q0.251-2.9.35-7.35a0.955,0.955,0,0,1,.8-1q1.25-.8.1-1.65l-0.9-.65a1.447,1.447,0,0,0-2.15.4l-0.5.65-21.35,2.1-1.65-.6q-1.35-.55-1.5.75-0.2,2.951-1.3,9.7-0.3,1.95-1.8,2.1l-7.25.7a1.674,1.674,0,0,0,1.95,1.3l5.05-.5q1.5-.15,1.2,1.5-0.55,3.3-1.45,7.65a1.481,1.481,0,0,1-.9,1.05q-1.3.7-.2,1.6l0.7,0.55q1.1,0.8,2.5-.7l22.9-2.3q1.5-.15.95,1.85a3.786,3.786,0,0,1-1.05,2.2,3.308,3.308,0,0,1-2.05.9q-1.7.15-6.75,0.1-0.05,1,1.35,1.05a6.954,6.954,0,0,1,3.15.6,2.119,2.119,0,0,0,2.5,1.35q1.6,0,3.5-2.25a10.341,10.341,0,0,0,1.7-4.2q0.45-2,1.95-2.15l5.7-.55q1.3-.949,0-1.95l-1.1-.85a1.463,1.463,0,0,0-2.25.35l-0.45.55a2.144,2.144,0,0,1-1.6.95q-1.5.15-1.35-1.2a67.692,67.692,0,0,0,.8-7.15q0.2-1.95,1.7-2.1l5.45-.55q1.3-.9,0-1.95h0Zm8.4,2.3,41.45-4.15q1.5-.949.3-1.9-0.8-.7-2.65-2a1.43,1.43,0,0,0-2.25.3l-1,1.35a3.238,3.238,0,0,1-2.4,1.4l-35.45,3.55a1.771,1.771,0,0,0,2,1.45h0Zm91.4-13.65a1.019,1.019,0,0,0,0-1.9l-1.2-.9a1.436,1.436,0,0,0-2.25.3l-1.1,1.45-21.1,2.1a1.607,1.607,0,0,0,1.9,1.3Zm-17.6,26.05q0.7,0.8,1.3.25,1.2-.95.95-4.7-0.45-7.4-6.15-15.4-0.8.35-.5,0.95,3.4,6,4.4,18.9h0Zm3.4-31.9a10.423,10.423,0,0,1,1.9,4.25,1.118,1.118,0,0,0,1.55.05q1.05-.85.35-2.85-1.2-3.5-6.6-5.85-0.649.45-.15,0.95a16.188,16.188,0,0,1,2.95,3.45h0Zm-11.45,2.5a1.451,1.451,0,0,1,1-.9q1.2-.949-0.2-1.3l-1.3-.35a1.48,1.48,0,0,0-1.9,1.25q-1.4,4.95-3.5,10.45a0.843,0.843,0,0,0,1.1-.15,83.4,83.4,0,0,0,4.8-9h0Zm-14.45,9.25a1.136,1.136,0,0,0,1.25.35q1.15-.45,1.05-2.5-0.2-3.9-4.8-7.9a0.74,0.74,0,0,0-.35,1.15,22.025,22.025,0,0,1,2.85,8.9h0Zm15.3,3.45a1.043,1.043,0,0,0,.05-1.9l-1-.75a1.354,1.354,0,0,0-2.05.3,3.238,3.238,0,0,1-2.4,1.4l-1.15.15a1.172,1.172,0,0,1-1.5-1.3V70.368a1.1,1.1,0,0,1,.8-1.1q0.9-1.249-.6-1.3l-0.9-.05a1.326,1.326,0,0,0-1.5,1.5v14.55a1.465,1.465,0,0,1-1.45,1.65l-7.5.75a1.607,1.607,0,0,0,1.9,1.3l4.65-.45q1.5-.15,1.05,1.5a54.4,54.4,0,0,1-8.25,18.05,0.871,0.871,0,0,0,1.45-.2,42.62,42.62,0,0,0,7.5-12.7q0.65-1.549.65-.05v18.3q0,1.2,1.6.7a1.067,1.067,0,0,0,.6-0.75V92.018q0-1.5,1.25-.15a16.08,16.08,0,0,1,4.15,6.25,1.35,1.35,0,0,0,1.6.05q1-.8.25-2.75-1.35-3.5-6.15-5.6a1.7,1.7,0,0,1-1.1-1.55,1.484,1.484,0,0,1,1.5-1.65Zm15.2,20.15q-1.5.15-.95-1.35a138.271,138.271,0,0,0,6.3-21.55,1.418,1.418,0,0,1,1.05-1.1q1-1.2-.5-1.3l-1.6-.15a1.519,1.519,0,0,0-1.7,1.55,180.427,180.427,0,0,1-4.75,22.65,2.037,2.037,0,0,1-1.9,1.65l-14.75,1.5a1.576,1.576,0,0,0,1.85,1.3l27.5-2.75q1.249-.95.3-1.7l-1.25-.9a1.726,1.726,0,0,0-2.7.3,3.239,3.239,0,0,1-2.4,1.4Zm53.4-28a16.211,16.211,0,0,1,4.6,6.35,1.246,1.246,0,0,0,1.85-.3q0.9-1.4-.75-4-3.1-4.9-12.4-8.1-0.6.551-.05,0.9a32.78,32.78,0,0,1,6.75,5.15h0Zm-13.25-11.3-1-.05a1.326,1.326,0,0,0-1.5,1.5v18.75q0,1.151,1.6.7a1.2,1.2,0,0,0,.6-0.75v-17.7a1.176,1.176,0,0,1,.9-1.2q0.9-1.2-.6-1.25h0Zm-17.2,14.95a46.8,46.8,0,0,1-6.75,7.85,0.7,0.7,0,0,0,1.15.1,38.619,38.619,0,0,0,6.85-6.55l4.85-6.7,1.1-1.15q1.55-.85.2-1.35l-1.2-.35a1.383,1.383,0,0,0-1.95.85,38.649,38.649,0,0,1-4.25,7.3h0Zm18.2,26.5a1.192,1.192,0,0,1-1.5-1.35v-7.75a1.46,1.46,0,0,1,1.5-1.6l15.45-1.55a1.052,1.052,0,0,0,0-1.9l-1.1-.8a1.463,1.463,0,0,0-2.25.35l-1.05,1.3-11.05,1.1a1.172,1.172,0,0,1-1.5-1.3v-3.9q1.45-1.3-.05-1.35l-0.65-.05a1.326,1.326,0,0,0-1.5,1.5v3.95a1.484,1.484,0,0,1-1.5,1.65l-16.55,1.65a1.607,1.607,0,0,0,1.9,1.3l14.65-1.45a1.192,1.192,0,0,1,1.5,1.35v7.75a1.46,1.46,0,0,1-1.5,1.6l-20.05,2a1.608,1.608,0,0,0,1.9,1.3l42.1-4.2q1.3-.9.3-1.7l-1.3-.95q-1.6-1.151-2.55.05l-1.25,1.6Zm64.45-33.8q0.9,1-1.4,1.45-13.2,2.2-17.55,2.95-0.8.05,0.55-1a52.6,52.6,0,0,0,8.65-8.8,2.187,2.187,0,0,1,1.65-.85q1.15-.9-0.2-1.45l-1.4-.5a1.576,1.576,0,0,0-2.05.7,51.611,51.611,0,0,1-4.1,5.675,37.793,37.793,0,0,1-5.65,5.975q-1.65.551-1.05,1.85l1,1.9a4.6,4.6,0,0,1,2.45-1.6q7.1-1.4,18.8-3.9a2.188,2.188,0,0,1,2.65,1.05l0.55,1.3a1.187,1.187,0,0,0,1.65-.1q1-1.05-.05-3.15-1.849-3.8-8.65-6.15-0.6.551,0.15,1.15a15.309,15.309,0,0,1,4,3.5h0Zm-29.9,24.8q-1,.45-1-1.05v-13.2a1.484,1.484,0,0,1,1.5-1.65l4.4-.45q1.3-.949,0-1.95l-1.05-.75a1.4,1.4,0,0,0-2.2.25l-1,1.35q-1.65.2-1.65-1.25v-8.85a1.138,1.138,0,0,1,.85-1.15q0.95-1.249-.55-1.3l-1-.05a1.326,1.326,0,0,0-1.5,1.5v10a1.484,1.484,0,0,1-1.5,1.65l-5.15.5a1.618,1.618,0,0,0,1.9,1.35l3.25-.35a1.192,1.192,0,0,1,1.5,1.35v13.9q0,1.5-1.95,2.35-2.45,1.1-4.15,1.7-1.15.45-.4,1.6l0.5,0.7q0.8,1.15,1.65-.15,2.45-1.4,4.85-2.8,2.449-1.45,4.75-2.75,2.3-1.4,3.2-1.95-0.25-.75-1.2-0.3-2.149.9-4.05,1.75h0Zm34.1-6.6-1.1-.8a1.509,1.509,0,0,0-2.35.45,3.394,3.394,0,0,1-2.45,1.4l-6.4.65a1,1,0,0,1-1.25-1.35,22.383,22.383,0,0,0,.4-4.3,1.727,1.727,0,0,1,1.6-1.9l9.3-.95q1.3-.949,0-1.95l-1.15-.85a1.415,1.415,0,0,0-2.2.35l-1.1,1.4-13.65,1.35q-1.45.15-.6-1.5l0.45-.9a0.876,0.876,0,0,1,.85-0.5q1.25-1.05-.15-1.45l-1.15-.35q-1.4-.4-1.95,1.25a37.782,37.782,0,0,1-5.3,10.8,1.137,1.137,0,0,0,1.5-.3,19.585,19.585,0,0,0,3-3.85,3.251,3.251,0,0,1,2.45-1.6l4.25-.45q1.5-.15,1.4,1.95a22.072,22.072,0,0,1-.35,4.25,1.651,1.651,0,0,1-1.7,1.4l-11.05,1.1a1.575,1.575,0,0,0,1.85,1.3l8.85-.9q1.5-.15,1,1.35-0.75,3.35-4.55,7.225t-11.75,7.325a1.448,1.448,0,0,0,1.95.25,33.931,33.931,0,0,0,11.7-7.075,20.144,20.144,0,0,0,5.5-9.425,0.714,0.714,0,0,1,.8.55q3.4,9.45,12.2,12.75a1.453,1.453,0,0,0,1.9-.6,5.156,5.156,0,0,1,1.45-.4,0.677,0.677,0,0,0-.55-0.85q-10.35-3.45-13.45-10.35-0.6-1.3.9-1.45l10.9-1.1q1.3-.9,0-1.95h0Zm6.05,26.4a0.942,0.942,0,0,0,1.55.25,15.285,15.285,0,0,0,6.7-11.85,8.881,8.881,0,0,0-.45-3,3.059,3.059,0,0,0-2.3-.75,2.287,2.287,0,0,0-1.6.825,2.619,2.619,0,0,0-.6,1.725,2.988,2.988,0,0,0,1.5,2.45,2.077,2.077,0,0,1,1.15,2.45q-0.6,4.1-5.95,7.9h0Zm38.9-36.25a1.46,1.46,0,0,1,1.5-1.6l22.6-2.25a1.173,1.173,0,0,1,1.5,1.3v4.6a1.484,1.484,0,0,1-1.5,1.65l-22.6,2.25a1.192,1.192,0,0,1-1.5-1.35v-4.6Zm25.6-6.95a1.484,1.484,0,0,1-1.5,1.65l-22.6,2.25a1.192,1.192,0,0,1-1.5-1.35v-4.1a1.484,1.484,0,0,1,1.5-1.65l22.6-2.25a1.192,1.192,0,0,1,1.5,1.35v4.1Zm-10.35,20.8a1.192,1.192,0,0,1-1.5-1.35v-4.75a1.484,1.484,0,0,1,1.5-1.65l9.1-.9a0.973,0.973,0,0,1,1.25,1.1q0,1.25,1.45.75a1.477,1.477,0,0,0,.75-0.65v-17.7a1.3,1.3,0,0,1,.95-1.3q1.2-.85,0-1.65l-1-.7a1.486,1.486,0,0,0-2.2.45l-0.45.55-24.8,2.5-1.15-.5q-1.3-.55-1.3.95v20.35q0,1.2,1.6.75a1.139,1.139,0,0,0,.55-0.6q0-1.9,1.5-2.05l8.6-.85a1.168,1.168,0,0,1,1.45,1.35v4.75a1.484,1.484,0,0,1-1.5,1.65l-20.3,2.05a1.641,1.641,0,0,0,1.9,1.3l18.45-1.85a1.168,1.168,0,0,1,1.45,1.35v11.05q0,0.95,1.25.65a1.7,1.7,0,0,0,.7-0.45l0.25-11.45a1.484,1.484,0,0,1,1.5-1.65l19.2-1.9a1.146,1.146,0,0,0,1.25-.95,27.784,27.784,0,0,0-2.8-2.1,1.458,1.458,0,0,0-2.3.25l-1.35,1.8Zm66.4-.3a34.307,34.307,0,0,1-1.65,8.15,2.861,2.861,0,0,1-1.65,1.75,17.883,17.883,0,0,1-4.15.75l-21.1,2.1a11.457,11.457,0,0,1-3.95-.05,1.658,1.658,0,0,1-1.25-1.8v-17.1a1.46,1.46,0,0,1,1.5-1.6l24.45-2.45a1.192,1.192,0,0,1,1.5,1.35v1.35q0,1.151,1.45.7a1.65,1.65,0,0,0,.75-0.7v-16a1.609,1.609,0,0,1,1.25-1.65q1.151-.9-0.05-1.7l-1.25-.85a1.535,1.535,0,0,0-2.2.45l-0.5.65-32.25,3.2a1.674,1.674,0,0,0,1.95,1.3l29.35-2.9a1.192,1.192,0,0,1,1.5,1.35v10.35a1.484,1.484,0,0,1-1.5,1.65l-24.45,2.45a1.192,1.192,0,0,1-1.5-1.35v-3.55a0.824,0.824,0,0,1,.65-0.85q1-1.249-.5-1.25l-0.85-.05a1.326,1.326,0,0,0-1.5,1.5v25.85q0,2.55,1.85,3.3a12.128,12.128,0,0,0,5.85.45l20.95-2.1q9.95-1,9.95-3.05a0.463,0.463,0,0,0-.35-0.5,1.8,1.8,0,0,1-1.45-1.9l-0.05-8.2a0.935,0.935,0,0,0-.8.95h0Zm51.6-22.9-1.15-.9a1.436,1.436,0,0,0-2.25.3l-1.15,1.45-18.8,1.9q-1.5.15-.8-1.5a31.875,31.875,0,0,0,2-5.15,1.439,1.439,0,0,1,1.2-1q1.151-.9-0.25-1.2l-1.4-.25q-1.4-.25-1.95,1.55a37.23,37.23,0,0,1-2.35,6.65,2.3,2.3,0,0,1-2.05,1.45l-13.05,1.3a1.674,1.674,0,0,0,1.95,1.3l10.35-1.05q1.5-.15.75,1.45a52.215,52.215,0,0,1-14.6,18.55,0.964,0.964,0,0,0,1.4,0,41.238,41.238,0,0,0,7-6.35q1.151-1.249,1.15.25v19.8q0,1.2,1.55.7a1.407,1.407,0,0,0,.65-0.55v-21.3a2.939,2.939,0,0,1,1.5-2.5q-1.45-.45-0.5-1.7a48.856,48.856,0,0,0,4.4-7.15,2.837,2.837,0,0,1,2.3-1.75l24.1-2.4a1.035,1.035,0,0,0,0-1.9h0Zm-12.25,33.55a1.192,1.192,0,0,1-1.5-1.35v-12.2a1.484,1.484,0,0,1,1.5-1.65l9.6-.95q1.249-.9,0-1.9l-1.05-.8a1.484,1.484,0,0,0-2.3.3,3.462,3.462,0,0,1-2.5,1.5l-3.75.35a1.192,1.192,0,0,1-1.5-1.35v-7.5a0.824,0.824,0,0,1,.65-0.85q0.95-1.249-.55-1.25l-0.8-.05a1.326,1.326,0,0,0-1.5,1.5v8.4a1.484,1.484,0,0,1-1.5,1.65l-9.45.95a1.607,1.607,0,0,0,1.9,1.3l7.55-.75a1.192,1.192,0,0,1,1.5,1.35v12.2a1.484,1.484,0,0,1-1.5,1.65l-12.6,1.25a1.544,1.544,0,0,0,1.85,1.3l29.1-2.9q1.249-.9.3-1.65l-1.25-.95a1.726,1.726,0,0,0-2.7.3,3.239,3.239,0,0,1-2.4,1.4Zm36.4-23.05a1.192,1.192,0,0,1-1.5-1.35v-12.3a1.223,1.223,0,0,1,.85-1.2q0.9-1.249-.6-1.3l-1-.05a1.326,1.326,0,0,0-1.5,1.5v35.45a1.857,1.857,0,0,1-1.25,1.95,13.415,13.415,0,0,0-2.1.7l-2.1.7q-1.151.35-1.15-1.15V81.718a1.216,1.216,0,0,1,.95-1.25q0.9-1.2-.6-1.25l-1.05-.05a1.326,1.326,0,0,0-1.5,1.5v26.95a2.208,2.208,0,0,1-1.85,2.1l-1.45.4q-1.5.4-.85,1.7l0.35,0.6q0.649,1.3,1.75,0,8.9-3.5,23.05-9.55a0.784,0.784,0,0,0-1.2-.5q-3.55,1.249-7.2,2.55-1.549.5-1.55-1V87.068a1.484,1.484,0,0,1,1.5-1.65l8-.8q1.3-.949.3-1.7l-1.35-1q-1.6-1.15-2.55.1a3.778,3.778,0,0,1-2.65,1.7Zm25.75,14.25a71.365,71.365,0,0,1-1.15,7.65,1.2,1.2,0,0,1-.9.8,43.808,43.808,0,0,1-4.5.6l-4.35.45a3.148,3.148,0,0,1-1.95-.2,1.483,1.483,0,0,1-.45-1.3v-18a2.216,2.216,0,0,1,1.4-2.15,54.316,54.316,0,0,0,11.8-7.95q1.8-.1.8-1.05l-0.95-.9q-1-.949-2.25.3a53.018,53.018,0,0,1-9.5,8.1q-1.3.9-1.3-.6V68.868a1.259,1.259,0,0,1,.9-1.25q0.9-1.249-.6-1.25l-1-.05a1.326,1.326,0,0,0-1.5,1.5v39.2a2.632,2.632,0,0,0,.95,2.4,5.535,5.535,0,0,0,3.45.4l4.75-.45a50.053,50.053,0,0,0,6.95-1.05q1.75-.5,1.75-1.4a0.72,0.72,0,0,0-.25-0.6,1.52,1.52,0,0,1-1.05-1.55l-0.15-7.95a1.337,1.337,0,0,0-.9,1.35h0Zm44.85-14.05a19.345,19.345,0,0,1,4.8,4.55,1.266,1.266,0,0,0,1.55-.2q0.8-.949-0.6-2.85-3-4.05-10.75-6.2-1.85-.55-1.85-2v-8.95a1.223,1.223,0,0,1,.85-1.2q0.95-1.2-.55-1.25l-1-.05a1.326,1.326,0,0,0-1.5,1.5v36.25q0,1.15,1.6.6a1.075,1.075,0,0,0,.6-0.7V81.368q0-1.5,1.2-.8a35.64,35.64,0,0,1,5.65,3.55h0Zm-23.8,12.7q-0.65,1.2-1.3.3-3.15-4.65-5.55-15.15l0.2-.65a2.5,2.5,0,0,1,2.1-1.8l8.85-.9q1.451-.1,1.1,1.7a50.549,50.549,0,0,1-5.4,16.5h0Zm10.55,9.4a16.289,16.289,0,0,1-9.05-5.35,1.835,1.835,0,0,1-.25-2.3q4.3-6.9,6.65-19.15a1.178,1.178,0,0,1,.9-1q1.2-.7.15-1.65l-0.75-.6a1.4,1.4,0,0,0-2.15.25l-0.5.6-9.55.95q-1.451.15-.85-1.5,1.15-3.1,2.05-6.25a1.477,1.477,0,0,1,1.2-1.15q1.05-.949-0.45-1.05l-1.5-.1a1.619,1.619,0,0,0-1.8,1.35,136.849,136.849,0,0,1-4.05,13.825,102.566,102.566,0,0,1-5.55,13.575,0.9,0.9,0,0,0,1.3-.35,76.52,76.52,0,0,0,5.35-10.85q0.75-1.8,1.15,0a41.172,41.172,0,0,0,4.9,13.2,2.069,2.069,0,0,1-.2,2.35,40.5,40.5,0,0,1-12.3,12.5,1.1,1.1,0,0,0,1.6.05,36.392,36.392,0,0,0,11.8-10.95q0.9-1.3,1.85-.1a16.266,16.266,0,0,0,9.3,5.8q6.2,1.7,15.65.75l3.15-.3a2.856,2.856,0,0,0,2.3-1.6q0.851-1-.4-0.9l-4.6.45q-9.35.949-15.35-.5h0Zm37.6-9.35q-1.65.851-2.35,1.2-0.9.45-.9-1.05v-12.2a1.484,1.484,0,0,1,1.5-1.65l4.4-.45q1.25-.9,0-1.9l-1.05-.75a1.411,1.411,0,0,0-2.25.25l-1,1.35a1.241,1.241,0,0,1-1.6-1.35v-8.95a1.06,1.06,0,0,1,.85-1.1q0.949-1.249-.55-1.3l-1.05-.05a1.326,1.326,0,0,0-1.5,1.5v10.15a1.484,1.484,0,0,1-1.5,1.65l-5.15.5a1.607,1.607,0,0,0,1.9,1.3l3.25-.3a1.192,1.192,0,0,1,1.5,1.35v13.1q0,1.5-2.1,2.55-2.9,1.45-4.1,1.9-0.95.4-.3,1.7l0.3,0.55q0.649,1.3,1.55-.05,3.6-2.2,8.6-5.45t5.95-3.85a0.647,0.647,0,0,0-.95-0.4q-0.851.45-3.45,1.75h0Zm7.4-13.9a1.484,1.484,0,0,1,1.5-1.65l6.25-.65a1.192,1.192,0,0,1,1.5,1.35v5.35a1.484,1.484,0,0,1-1.5,1.65l-6.25.65a1.192,1.192,0,0,1-1.5-1.35v-5.35Zm9.25-5.4a1.484,1.484,0,0,1-1.5,1.65l-6.25.65a1.192,1.192,0,0,1-1.5-1.35v-5.25a1.484,1.484,0,0,1,1.5-1.65l6.25-.65a1.192,1.192,0,0,1,1.5,1.35v5.25Zm11.35-1.1a1.484,1.484,0,0,1-1.5,1.65l-6.2.6a1.168,1.168,0,0,1-1.45-1.35v-5.25a1.484,1.484,0,0,1,1.5-1.65l6.2-.6a1.168,1.168,0,0,1,1.45,1.35v5.25Zm-9.15,5.35a1.484,1.484,0,0,1,1.5-1.65l6.2-.6a1.168,1.168,0,0,1,1.45,1.35v5.35a1.484,1.484,0,0,1-1.5,1.65l-6.2.6a1.168,1.168,0,0,1-1.45-1.35v-5.35Zm1.5,25.8a1.192,1.192,0,0,1-1.5-1.35v-5.5a1.484,1.484,0,0,1,1.5-1.65l10.95-1.1q1.3-.85,0-1.85l-1.2-.85a1.523,1.523,0,0,0-2.4.45,3.238,3.238,0,0,1-2.4,1.4l-4.95.5a1.192,1.192,0,0,1-1.5-1.35v-4.7a1.484,1.484,0,0,1,1.5-1.65l7.05-.7a0.485,0.485,0,0,1,.6.55q0,1.25,1.5.75a1.63,1.63,0,0,0,.7-0.7V71.018a1.373,1.373,0,0,1,1.05-1.4q1.15-.85-0.05-1.65l-1-.7a1.535,1.535,0,0,0-2.2.45l-0.5.6-19.5,1.95-1.45-.55q-1.35-.55-1.35.95v22.8q0,0.95,1.25.7a2.091,2.091,0,0,0,.7-0.5l0.25-.9a1.484,1.484,0,0,1,1.5-1.65l6.25-.65a1.192,1.192,0,0,1,1.5,1.35v4.7a1.484,1.484,0,0,1-1.5,1.65l-12.2,1.25a1.6,1.6,0,0,0,1.9,1.25l10.3-1.05a1.192,1.192,0,0,1,1.5,1.35v5.5a1.484,1.484,0,0,1-1.5,1.65l-15.4,1.55a1.6,1.6,0,0,0,1.9,1.25l30.95-3.05q1.3-.9.3-1.7l-1.4-1q-1.6-1.151-2.55.1l-1.25,1.6Zm17.3-34.6a1.683,1.683,0,0,0,1.95,1.35l17-1.7a1.192,1.192,0,0,1,1.5,1.35v36.7q0,1.249,1.6.7a0.987,0.987,0,0,0,.6-0.6V85.068q0-1.5,1.25-.9a48.874,48.874,0,0,1,7.95,3.9,23.84,23.84,0,0,1,6.55,5.15,1.29,1.29,0,0,0,1.6-.4q0.75-1.15-1.25-3.2-4.25-4.5-14.25-6.6-1.85-.45-1.85-1.95v-7.35a1.46,1.46,0,0,1,1.5-1.6l20.05-2q1.35-.949.35-1.7a9.3,9.3,0,0,0-1.65-1.15q-1.6-1.15-2.55.1l-0.4.55a3.248,3.248,0,0,1-2.35,1.35Zm87.85-4.3-34.45,3.45a1.674,1.674,0,0,0,1.95,1.3l30-3q1.5-.15.25,1.05a79.958,79.958,0,0,1-11.3,9.55l-1.15-.1a1.326,1.326,0,0,0-1.5,1.5v25.15a1.255,1.255,0,0,1-.35,1,2.078,2.078,0,0,1-1.2.4q-1.3.15-8.2,0.35,0,0.849,1.2.8a11.5,11.5,0,0,1,4.3.5l0.5,0.3a2.245,2.245,0,0,0,2.75.7,3.262,3.262,0,0,0,2.2-1.15,4.033,4.033,0,0,0,1-2.9v-24.3a0.981,0.981,0,0,1,.75-1,6.476,6.476,0,0,1,2.05-1.9,107.463,107.463,0,0,0,14.15-10.25l1-.15q1.25-.55.15-1.45l-1.1-.95a1.42,1.42,0,0,0-2.15.2Zm21.45,9.35a1.168,1.168,0,0,1,1.45,1.35v1.45a1.465,1.465,0,0,1-1.45,1.65l-2.95.3a1.168,1.168,0,0,1-1.45-1.35v-1.45a1.465,1.465,0,0,1,1.45-1.65Zm9.65,2a1.484,1.484,0,0,1-1.5,1.65l-3,.3a1.192,1.192,0,0,1-1.5-1.35v-1.45a1.484,1.484,0,0,1,1.5-1.65l3-.3a1.192,1.192,0,0,1,1.5,1.35v1.45Zm-6,13.55v-6.1q0-1.5,1.25-.95a12.011,12.011,0,0,1,2.95,1.55,10.951,10.951,0,0,1,3,2.5,1.372,1.372,0,0,0,1.4-.25q0.8-.75-0.15-2.1-1.9-2.749-8.45-3.1a1.484,1.484,0,0,1,1.5-1.65l4.5-.45a0.963,0.963,0,0,0,1.45,1.05,1.65,1.65,0,0,0,.75-0.7v-6.35q1.65-.9.45-1.7l-0.6-.45q-1.151-.75-2.45.75l-4.1.45q-1.5.15-1.5-1.55a1.484,1.484,0,0,1,1.5-1.65l8.35-.85q1.3-.949,0-1.95l-0.95-.65a1.411,1.411,0,0,0-2.25.25l-0.95,1.25-4.2.45a1.212,1.212,0,0,1-1.5-1.4,1.3,1.3,0,0,1,.95-1.3q0.9-1.2-.6-1.2l-1.05-.05a1.326,1.326,0,0,0-1.5,1.5v1.3a1.484,1.484,0,0,1-1.5,1.65l-8.95.9a1.607,1.607,0,0,0,1.9,1.3l7.1-.7q1.451-.15,1.45,1.55a1.484,1.484,0,0,1-1.5,1.65l-4.1.4-1.1-.45q-1.35-.5-1.35,1v7.5q0,1.2,1.55.8a1.09,1.09,0,0,0,.65-0.55,0.859,0.859,0,0,1,.85-0.95l2.5-.25q1.5-.15.7,1.2-2.8,5-9.4,9.75a0.925,0.925,0,0,0,1.4.3,29.453,29.453,0,0,0,8.75-7.5q1.05-1.3,1.05.2v5.5q0,1.151,1.65.7a0.937,0.937,0,0,0,.55-0.65h0Zm12.4,15.35a1.192,1.192,0,0,1-1.5-1.35v-3.1a1.484,1.484,0,0,1,1.5-1.65l12.55-1.25a1.141,1.141,0,0,0,1.25-.9,15.352,15.352,0,0,0-2.35-1.8,1.411,1.411,0,0,0-2.25.25l-1.1,1.45-8.1.8a1.192,1.192,0,0,1-1.5-1.35v-2.05a1.484,1.484,0,0,1,1.5-1.65l15.3-1.55q1.3-.85,0-1.9l-1.15-.85a1.54,1.54,0,0,0-2.35.5,3.394,3.394,0,0,1-2.45,1.4l-31.1,3.1a1.667,1.667,0,0,0,1.95,1.25l14.65-1.45a1.168,1.168,0,0,1,1.45,1.35v9.6a1.484,1.484,0,0,1-1.5,1.65l-5.75.6a1.192,1.192,0,0,1-1.5-1.35v-5.5a1.027,1.027,0,0,1,.7-1q0.949-1.2-.55-1.2l-0.85-.05a1.326,1.326,0,0,0-1.5,1.5v6.45a1.484,1.484,0,0,1-1.5,1.65l-9.05.9a1.667,1.667,0,0,0,1.95,1.25l41.9-4.2q1.3-.9.3-1.7l-1.2-.9q-1.6-1.151-2.5.1l-1.15,1.55Zm11.65-35.7q1.451-.1.9,1.7a16.891,16.891,0,0,1-3.05,6.15q-0.9,1.25-1.85.2a21.216,21.216,0,0,1-4-6.7,1.078,1.078,0,0,1,.9-0.6Zm7.95-2.65-1.1-.85a1.472,1.472,0,0,0-2.35.45,3.238,3.238,0,0,1-2.4,1.4l-7.5.75q-1.5.15-.9-1.2a20.3,20.3,0,0,0,1.1-2.7,1.075,1.075,0,0,1,.9-0.75q1.2-1.05-.2-1.35l-1.2-.25q-1.4-.3-1.85,1.4a37.754,37.754,0,0,1-6.7,14.1,1.158,1.158,0,0,0,1.5-.25,19.783,19.783,0,0,0,3.05-3.95q0.95-1.5,1.6.2a20.844,20.844,0,0,0,2.95,5.2,1.43,1.43,0,0,1-.15,2.1q-3.3,3.851-10.8,7.6a0.993,0.993,0,0,0,1.4.3,32.239,32.239,0,0,0,10.55-6.6,1.367,1.367,0,0,1,2.15.1,17.5,17.5,0,0,0,7.55,4.4,1.887,1.887,0,0,0,2.35-.75l1.15-.55a0.528,0.528,0,0,0-.5-0.7,20.255,20.255,0,0,1-9.15-4.1,1.3,1.3,0,0,1-.1-2.05,20.586,20.586,0,0,0,4.25-7.95,2.455,2.455,0,0,1,2.1-1.9l2.3-.2a1.035,1.035,0,0,0,0-1.9h0Zm34.55,8.3a1.192,1.192,0,0,1-1.5-1.35v-9.45a0.784,0.784,0,0,1,.6-0.8q1-1.2-.5-1.2l-0.8-.05a1.3,1.3,0,0,0-1.5,1.45v10.3a1.484,1.484,0,0,1-1.5,1.65l-11.65,1.15a1.192,1.192,0,0,1-1.5-1.35v-7.2a1.021,1.021,0,0,1,.8-1.05q0.949-1.249-.55-1.25l-0.95-.05a1.326,1.326,0,0,0-1.5,1.5v16a50.013,50.013,0,0,1-2,14.8,26.127,26.127,0,0,1-7.2,11.4,1,1,0,0,0,1.5-.05q8.1-6.55,9.35-18.25a1.936,1.936,0,0,1,1.75-1.95l15.35-1.55a1.192,1.192,0,0,1,1.5,1.35v17.2q0,1.149,1.4.75a2.032,2.032,0,0,0,.8-0.4v-17.4a1.689,1.689,0,0,1,1.25-1.7q1.1-.85-0.1-1.65l-1.25-.8a1.429,1.429,0,0,0-2.15.45l-0.5.6-16.2,1.65a1.07,1.07,0,0,1-1.4-1.25q0.1-.8.1-3.45v-3.25a1.484,1.484,0,0,1,1.5-1.65l31.4-3.15q1.3-.9.3-1.65l-1.25-.95a1.706,1.706,0,0,0-2.7.4,3.191,3.191,0,0,1-2.4,1.35Zm55.85-5.4a1.465,1.465,0,0,1-1.45,1.65l-21.65,2.15a1.192,1.192,0,0,1-1.5-1.35v-2.45a1.465,1.465,0,0,1,1.45-1.65l21.65-2.15a1.192,1.192,0,0,1,1.5,1.35v2.45Zm-24.6,6.9a1.465,1.465,0,0,1,1.45-1.65l21.65-2.15a1.192,1.192,0,0,1,1.5,1.35v2.6a1.465,1.465,0,0,1-1.45,1.65l-21.65,2.15a1.192,1.192,0,0,1-1.5-1.35v-2.6Zm23.55,3.25a0.839,0.839,0,0,1,1.05.95q0,1.1,1.45.65a1.65,1.65,0,0,0,.75-0.7v-13.8a1.3,1.3,0,0,1,.95-1.3q1.2-.85,0-1.65l-1-.7a1.523,1.523,0,0,0-2.2.5l-0.45.55-23.85,2.35-1.15-.45q-1.3-.6-1.3.9v16.55q0,1.2,1.6.8a1.041,1.041,0,0,0,.6-0.55,1.618,1.618,0,0,1,1.5-1.9Zm-8.6,25.3a1.168,1.168,0,0,1-1.45-1.35v-4.6a1.484,1.484,0,0,1,1.5-1.65l13.5-1.35q1.3-.95.05-1.9l-1.15-.85a1.43,1.43,0,0,0-2.25.3l-1.05,1.4-9.1.9a1.192,1.192,0,0,1-1.5-1.35v-3.45a1.484,1.484,0,0,1,1.5-1.65l14.9-1.5q1.3-.85,0-1.9l-1.1-.85a1.463,1.463,0,0,0-2.25.35l-1.1,1.4-10.45,1.05a1.192,1.192,0,0,1-1.5-1.35v-1.65a1.259,1.259,0,0,1,.9-1.25q0.9-1.249-.6-1.25l-1-.05a1.3,1.3,0,0,0-1.5,1.45v2.95a1.484,1.484,0,0,1-1.5,1.65l-7.1.75q-1.5.15-.6-1.3l1-1.8a1.063,1.063,0,0,1,.95-0.6q1.3-.9-0.05-1.4l-1.05-.4a1.492,1.492,0,0,0-2,1,37.858,37.858,0,0,1-3.7,6.9,35.93,35.93,0,0,1-5.25,6.6,0.908,0.908,0,0,0,1.35,0,25.329,25.329,0,0,0,5.7-5.9,3.736,3.736,0,0,1,2.6-1.55l8.15-.85a1.192,1.192,0,0,1,1.5,1.35v3.45a1.485,1.485,0,0,1-1.5,1.65l-13.5,1.35a1.618,1.618,0,0,0,1.9,1.35l11.6-1.2a1.192,1.192,0,0,1,1.5,1.35v4.6a1.465,1.465,0,0,1-1.45,1.65l-20.55,2.05a1.667,1.667,0,0,0,1.95,1.25l42.1-4.2q1.35-.9.35-1.7l-1.35-1a1.837,1.837,0,0,0-2.85.5,3.239,3.239,0,0,1-2.4,1.4Zm52.45-38.4a9.358,9.358,0,0,1,1.15,3.95,1.277,1.277,0,0,0,1.45.25q1.1-.6.8-2.55-0.55-3.349-5.2-5.8-0.6.35-.25,0.8a15.121,15.121,0,0,1,2.05,3.35h0Zm-17.05,16.55q-1.5.15-1.2-1.6a30.537,30.537,0,0,0,.55-3.35,1.752,1.752,0,0,1,1.7-1.7l4.05-.4a1.168,1.168,0,0,1,1.45,1.35v3.55a1.484,1.484,0,0,1-1.5,1.65Zm6.55-10.2a1.465,1.465,0,0,1-1.45,1.65l-3.9.4q-1.5.15-1.45-.95,0.15-1.15.2-3.45,0.15-2.2,1.65-2.35l3.45-.35a1.173,1.173,0,0,1,1.5,1.3v3.75Zm0.7,28.4a1.484,1.484,0,0,1-1.5,1.65l-7.2.7a1.192,1.192,0,0,1-1.5-1.35v-8.5a1.484,1.484,0,0,1,1.5-1.65l7.2-.7a1.192,1.192,0,0,1,1.5,1.35v8.5Zm18.1-8.15a1.192,1.192,0,0,1-1.5-1.35v-6.9a1.484,1.484,0,0,1,1.5-1.65l6.9-.7a1.019,1.019,0,0,0,0-1.9l-1.2-.9a1.554,1.554,0,0,0-2.4.5,3.238,3.238,0,0,1-2.4,1.4l-0.9.1a1.192,1.192,0,0,1-1.5-1.35v-5.6a1.484,1.484,0,0,1,1.5-1.65l7.8-.8a1.019,1.019,0,0,0,0-1.9l-1.2-.9a1.436,1.436,0,0,0-2.25.3l-1.15,1.45-2,.2q-1.5.15-.7-1.15a74.363,74.363,0,0,0,3.7-6.75,1.335,1.335,0,0,1,1.1-.8q1.15-1-.25-1.35l-1.1-.2q-1.4-.349-1.95,1.3a63.48,63.48,0,0,1-2.95,7.75,2.509,2.509,0,0,1-2.15,1.65l-8.5.85a1.674,1.674,0,0,0,1.95,1.3l4.4-.45a1.192,1.192,0,0,1,1.5,1.35v5.6a1.484,1.484,0,0,1-1.5,1.65l-6.75.7a1.607,1.607,0,0,0,1.9,1.3l4.85-.5a1.192,1.192,0,0,1,1.5,1.35v6.9a1.484,1.484,0,0,1-1.5,1.65l-8.25.85a1.6,1.6,0,0,0,1.9,1.25l6.35-.65a1.173,1.173,0,0,1,1.5,1.3v9.6q0,1,1.3.65a2.164,2.164,0,0,0,.7-0.4l0.25-10a1.484,1.484,0,0,1,1.5-1.65l8.35-.85q1.25-.9.3-1.65l-1.15-.85q-1.549-1.15-2.5.1l-1.1,1.4Zm-13.1-20.55a1.3,1.3,0,0,0-2.15.3q-0.9,1.25-1-.2l-0.35-3.65a1.373,1.373,0,0,1,1.05-1.4q1.151-.9-0.05-1.65l-1-.7a1.5,1.5,0,0,0-2.2.4l-0.5.6-15.35,1.55a1.667,1.667,0,0,0,1.95,1.25l3.6-.35q1.5-.15,1.45,1.5a28.17,28.17,0,0,1-.15,3.4,1.616,1.616,0,0,1-1.55,1.8l-7.2.75a1.607,1.607,0,0,0,1.9,1.3l5.15-.5q1.5-.15,1.25,1.75a23.781,23.781,0,0,1-.45,3.3,1.769,1.769,0,0,1-1.75,1.55l-4.8.5a1.667,1.667,0,0,0,1.95,1.25l2.55-.25q1.451-.15,1,1.5a35.1,35.1,0,0,1-7.1,14.45,1.069,1.069,0,0,0,1.7-.25,25.05,25.05,0,0,0,3.9-5.75q0.75-1.4.75,0.1v12.95q0,1.249,1.6.7a0.987,0.987,0,0,0,.6-0.6v-1.4a1.484,1.484,0,0,1,1.5-1.65l7.2-.7q1.5-.15,1.5,1.75,0,1.249,1.5.75a1.636,1.636,0,0,0,.7-0.7V96.618a1.373,1.373,0,0,1,1.05-1.4q1.15-.85-0.05-1.65l-1-.7a1.535,1.535,0,0,0-2.2.45l-0.5.55-9.1.9q-1.3-.45-0.75-2a10.753,10.753,0,0,0,.75-2.25,2.282,2.282,0,0,1,2-1.9l6.3-.65a0.485,0.485,0,0,1,.6.55q0,1.25,1.5.75a1.446,1.446,0,0,0,.7-0.65v-7.4a1.484,1.484,0,0,1,1.5-1.65l2.8-.3q1.249-.9-0.05-2.05Z"/>
</svg>
