<svg xmlns="http://www.w3.org/2000/svg" width="228" height="60" viewBox="0 0 228 60">
  <defs>
    <style>
      .cls-1 {
        fill: #fff;
        fill-rule: evenodd;
      }
    </style>
  </defs>
  <path id="_22_12_24" data-name="22/12/24" class="cls-1" d="M23.792,35.3a99.138,99.138,0,0,0,8.288-11.1A13.968,13.968,0,0,0,34.3,17.1q0-4.713-2.762-7.15Q28.828,7.51,23.738,8a13.687,13.687,0,0,0-7.1,2.708,10.9,10.9,0,0,0-4.008,6.012,1.8,1.8,0,0,0,1.9,1.083q1.516-.162,2.275-2.6l1.571-4.171a12.657,12.657,0,0,1,4.55-1.3,6.772,6.772,0,0,1,5.85,1.788,8.173,8.173,0,0,1,2.113,5.958A14.529,14.529,0,0,1,29.1,24.14a69.344,69.344,0,0,1-6.229,9.371q-1.247,1.572-4.712,6.067-3.413,4.55-5.417,7.1v0.7a1.265,1.265,0,0,0,1.571,1.462l20.2-2a1.608,1.608,0,0,0,1.625-1.788A1.1,1.1,0,0,0,34.733,43.8L16.967,45.59q-1.625.163,0.217-2.167Q23.2,36,23.792,35.3h0Zm28.817,0a99.113,99.113,0,0,0,8.288-11.1,13.967,13.967,0,0,0,2.221-7.1q0-4.713-2.763-7.15Q57.645,7.51,52.554,8a13.687,13.687,0,0,0-7.1,2.708,10.9,10.9,0,0,0-4.008,6.012,1.8,1.8,0,0,0,1.9,1.083q1.516-.162,2.275-2.6l1.571-4.171a12.657,12.657,0,0,1,4.55-1.3,6.772,6.772,0,0,1,5.85,1.788A8.173,8.173,0,0,1,59.7,17.477a14.531,14.531,0,0,1-1.788,6.663,69.364,69.364,0,0,1-6.229,9.371q-1.247,1.572-4.712,6.067-3.413,4.55-5.417,7.1v0.7a1.265,1.265,0,0,0,1.571,1.462l20.2-2a1.608,1.608,0,0,0,1.625-1.788A1.1,1.1,0,0,0,63.55,43.8L45.783,45.59q-1.625.163,0.217-2.167Q52.012,36,52.608,35.3h0ZM70.267,56.26L84.946,7.185v-0.7q-1.68-.65-2.113.921l-15.058,50.1q-0.162.541,0.433,0.487a2.194,2.194,0,0,0,2.058-1.733h0ZM102.225,35.3L102.442,8.54a1.955,1.955,0,0,0-1.788-.217L90.633,12.006a1.029,1.029,0,0,0,1.517,1.138L97.4,11.735a1.074,1.074,0,0,1,1.571,1.192v22.7L98.867,43.8q0,2.059-1.625,2.329l-7.2,1.246a1.169,1.169,0,0,0,1.408,1.354l17.929-1.842q1.462-1.57-.162-1.517l-5.255.054q-1.624.055-1.679-1.95-0.054-4.875-.054-8.179h0Zm25.946,0a99.04,99.04,0,0,0,8.287-11.1,13.96,13.96,0,0,0,2.221-7.1q0-4.713-2.762-7.15-2.709-2.437-7.8-1.95a13.686,13.686,0,0,0-7.1,2.708,10.9,10.9,0,0,0-4.009,6.012,1.8,1.8,0,0,0,1.9,1.083q1.516-.162,2.275-2.6l1.571-4.171a12.661,12.661,0,0,1,4.55-1.3,6.771,6.771,0,0,1,5.85,1.788,8.174,8.174,0,0,1,2.113,5.958,14.527,14.527,0,0,1-1.788,6.663,69.329,69.329,0,0,1-6.229,9.371q-1.246,1.572-4.713,6.067-3.413,4.55-5.416,7.1v0.7a1.265,1.265,0,0,0,1.571,1.462l20.2-2a1.608,1.608,0,0,0,1.625-1.788,1.1,1.1,0,0,0-1.408-1.246L121.346,45.59q-1.626.163,0.216-2.167,6.014-7.42,6.609-8.125h0ZM145.829,56.26L160.508,7.185v-0.7q-1.679-.65-2.112.921l-15.059,50.1q-0.162.541,0.434,0.487a2.193,2.193,0,0,0,2.058-1.733h0ZM174.917,35.3a99.169,99.169,0,0,0,8.287-11.1,13.97,13.97,0,0,0,2.221-7.1q0-4.713-2.762-7.15-2.711-2.437-7.8-1.95a13.686,13.686,0,0,0-7.1,2.708,10.9,10.9,0,0,0-4.009,6.012,1.8,1.8,0,0,0,1.9,1.083q1.517-.162,2.275-2.6l1.571-4.171a12.661,12.661,0,0,1,4.55-1.3,6.771,6.771,0,0,1,5.85,1.788,8.174,8.174,0,0,1,2.112,5.958,14.525,14.525,0,0,1-1.787,6.663A69.329,69.329,0,0,1,174,33.51q-1.247,1.572-4.713,6.067-3.412,4.55-5.416,7.1v0.7a1.265,1.265,0,0,0,1.571,1.462l20.2-2a1.608,1.608,0,0,0,1.625-1.788,1.1,1.1,0,0,0-1.409-1.246L168.092,45.59q-1.626.163,0.216-2.167,6.014-7.42,6.609-8.125h0ZM207.2,13.144q0.921-1.408.921,0.217V30.585a1.608,1.608,0,0,1-1.625,1.788l-11,1.083q-1.625.162-.7-1.246Zm5.633,18.579a1.291,1.291,0,0,1-1.625-1.462V7.51a3.907,3.907,0,0,0-3.087,1.625L191.6,34.323q0,2,1.625,1.842l13.271-1.3a1.291,1.291,0,0,1,1.625,1.462v9.7a1.149,1.149,0,0,0,1.462,1.3,1.581,1.581,0,0,0,1.625-1.733V36a1.608,1.608,0,0,1,1.625-1.788l4.117-.379a0.883,0.883,0,0,0,.867-0.975,1.291,1.291,0,0,0-1.625-1.462Z"/>
</svg>
