<svg xmlns="http://www.w3.org/2000/svg" width="420" height="258" viewBox="0 0 420 258">
  <defs>
    <style>
      .cls-1 {
        fill: #1f1f1f;
        fill-rule: evenodd;
      }
    </style>
  </defs>
  <path id="俯视" class="cls-1" d="M198.307,54.4H73.907a0.708,0.708,0,0,0-.8.8v74.2q0,48-14.8,86c-0.4.531-.269,0.931,0.4,1.2l3.2,1.2a1.017,1.017,0,0,0,1.2-.4q15.2-38.8,15.2-88V59.6h120a0.708,0.708,0,0,0,.8-0.8V55.2a0.709,0.709,0,0,0-.8-0.8h0Zm-64-17h-3.6a0.707,0.707,0,0,0-.8.8V55.8a0.706,0.706,0,0,0,.8.8h3.6a0.708,0.708,0,0,0,.8-0.8V38.2a0.709,0.709,0,0,0-.8-0.8h0Zm-12.2,38.4-3.2-1.2a0.73,0.73,0,0,0-1,.6,318.125,318.125,0,0,1-14.2,35.8,127.442,127.442,0,0,1-18.6,28.2,0.75,0.75,0,0,0,0,1.2l2.8,2.4a0.75,0.75,0,0,0,1.2,0,128.048,128.048,0,0,0,19.1-29.3,343.2,343.2,0,0,0,14.5-36.7,0.732,0.732,0,0,0-.6-1h0Zm-14,41h-3.6a0.707,0.707,0,0,0-.8.8v98.8a0.707,0.707,0,0,0,.8.8h3.6a0.709,0.709,0,0,0,.8-0.8V117.6a0.709,0.709,0,0,0-.8-0.8h0Zm92.6-13h-77.6a0.707,0.707,0,0,0-.8.8v3.6a0.706,0.706,0,0,0,.8.8h77.6a0.708,0.708,0,0,0,.8-0.8v-3.6a0.709,0.709,0,0,0-.8-0.8h0Zm-58.8,26.4-3.6.8a0.728,0.728,0,0,0-.6,1l11.6,53.8a0.727,0.727,0,0,0,1,.6l3.6-.8a0.73,0.73,0,0,0,.6-1l-11.6-53.8a0.732,0.732,0,0,0-1-.6h0Zm42.2-55h-3.6a0.707,0.707,0,0,0-.8.8V211.6h-18.2a0.706,0.706,0,0,0-.8.8V216a0.707,0.707,0,0,0,.8.8h22.6a0.707,0.707,0,0,0,.8-0.8V76a0.709,0.709,0,0,0-.8-0.8h0Zm-140.6,18h-3.6a0.708,0.708,0,0,0-.8.8V217.2a0.708,0.708,0,0,0,.8.8h3.6a0.709,0.709,0,0,0,.8-0.8V94a0.709,0.709,0,0,0-.8-0.8h0Zm16.6-52-3.2-1.2a0.5,0.5,0,0,0-.6,0,2.286,2.286,0,0,0-.4.6q-8.8,26.6-18.8,51.1t-21.8,47.5a0.791,0.791,0,0,0,.4,1.2l3.2,1.6a0.79,0.79,0,0,0,1.2-.4q22.4-44.4,40.6-99.4a0.5,0.5,0,0,0,0-.6,2.449,2.449,0,0,0-.6-0.4h0Zm285.4,32h-3.6a0.707,0.707,0,0,0-.8.8v36.2q0,33.8-13.2,59.3t-43,40.5q-0.8.2-.4,1.2l1.6,3.2c0.131,0.531.531,0.666,1.2,0.4q31.2-15.8,45.1-42.8t13.9-61.8V74a0.709,0.709,0,0,0-.8-0.8h0Zm42.2-22.8h-87.2a0.707,0.707,0,0,0-.8.8V161.8a0.706,0.706,0,0,0,.8.8h3.6a0.708,0.708,0,0,0,.8-0.8V55.6h78.4V161.8a0.706,0.706,0,0,0,.8.8h3.6a0.708,0.708,0,0,0,.8-0.8V51.2a0.709,0.709,0,0,0-.8-0.8h0Zm-24.8,103h-3.6a0.707,0.707,0,0,0-.8.8v60.6a0.707,0.707,0,0,0,.8.8h42.2a0.709,0.709,0,0,0,.8-0.8v-3.6a0.708,0.708,0,0,0-.8-0.8h-37.8V154.2a0.709,0.709,0,0,0-.8-0.8h0Zm-110.2-33.6h-3.6a0.707,0.707,0,0,0-.8.8v97a0.707,0.707,0,0,0,.8.8h3.6a0.709,0.709,0,0,0,.8-0.8v-97a0.709,0.709,0,0,0-.8-0.8h0Zm22-46.8h-55.2a0.707,0.707,0,0,0-.8.8v3.6a0.706,0.706,0,0,0,.8.8h49a180.609,180.609,0,0,1-20.4,41.8,213.746,213.746,0,0,1-31.6,38,0.75,0.75,0,0,0,0,1.2l2.4,2.4a0.75,0.75,0,0,0,1.2,0,213.918,213.918,0,0,0,34.1-41.6,183.309,183.309,0,0,0,21.1-46.2,0.5,0.5,0,0,0,0-.6,0.829,0.829,0,0,0-.6-0.2h0Zm-5.2,58.2-3.2,2c-0.4.134-.469,0.469-0.2,1l14.4,22.4c0.131,0.4.465,0.469,1,.2l3.2-2c0.4-.131.465-0.466,0.2-1l-14.4-22.4q-0.2-.6-1-0.2h0ZM242.107,40l-3.2,1.6q-0.8.2-.4,1.2l12,24q0.2,0.8,1.2.4l3.2-1.6q0.8-.2.4-1.2l-12-24q-0.2-.8-1.2-0.4h0Z"/>
</svg>
