<svg xmlns="http://www.w3.org/2000/svg" width="528" height="258" viewBox="0 0 528 258">
  <defs>
    <style>
      .cls-1 {
        fill: #1f1f1f;
        fill-rule: evenodd;
      }
    </style>
  </defs>
  <path id="俯视" class="cls-1" d="M249.457,32.1H93.957a0.884,0.884,0,0,0-1,1v92.75q0,60-18.5,107.5c-0.5.664-.336,1.164,0.5,1.5l4,1.5a1.271,1.271,0,0,0,1.5-.5q19-48.5,19-110V38.6h150a0.884,0.884,0,0,0,1-1V33.1a0.886,0.886,0,0,0-1-1h0Zm-80-21.25h-4.5a0.884,0.884,0,0,0-1,1v22a0.883,0.883,0,0,0,1,1h4.5a0.884,0.884,0,0,0,1-1v-22a0.886,0.886,0,0,0-1-1h0Zm-15.25,48-4-1.5a0.912,0.912,0,0,0-1.25.75,397.584,397.584,0,0,1-17.75,44.75,159.282,159.282,0,0,1-23.25,35.25,0.938,0.938,0,0,0,0,1.5l3.5,3a0.938,0.938,0,0,0,1.5,0,160.067,160.067,0,0,0,23.875-36.625A428.921,428.921,0,0,0,154.957,60.1a0.915,0.915,0,0,0-.75-1.25h0Zm-17.5,51.25h-4.5a0.884,0.884,0,0,0-1,1V234.6a0.884,0.884,0,0,0,1,1h4.5a0.886,0.886,0,0,0,1-1V111.1a0.886,0.886,0,0,0-1-1h0Zm115.75-16.25h-97a0.884,0.884,0,0,0-1,1v4.5a0.883,0.883,0,0,0,1,1h97a0.884,0.884,0,0,0,1-1v-4.5a0.886,0.886,0,0,0-1-1h0Zm-73.5,33-4.5,1a0.911,0.911,0,0,0-.75,1.25l14.5,67.25a0.909,0.909,0,0,0,1.25.75l4.5-1a0.913,0.913,0,0,0,.75-1.25l-14.5-67.25a0.915,0.915,0,0,0-1.25-.75h0Zm52.75-68.75h-4.5a0.884,0.884,0,0,0-1,1V228.6h-22.75a0.883,0.883,0,0,0-1,1v4.5a0.884,0.884,0,0,0,1,1h28.25a0.884,0.884,0,0,0,1-1V59.1a0.886,0.886,0,0,0-1-1h0ZM55.957,80.6h-4.5a0.884,0.884,0,0,0-1,1v154a0.884,0.884,0,0,0,1,1h4.5a0.886,0.886,0,0,0,1-1V81.6a0.886,0.886,0,0,0-1-1h0Zm20.75-65-4-1.5a0.619,0.619,0,0,0-.75,0,2.859,2.859,0,0,0-.5.75q-11,33.252-23.5,63.875T20.707,138.1a0.988,0.988,0,0,0,.5,1.5l4,2a0.988,0.988,0,0,0,1.5-.5q28-55.5,50.75-124.25a0.621,0.621,0,0,0,0-.75,3.059,3.059,0,0,0-.75-0.5h0Zm356.751,40h-4.5a0.884,0.884,0,0,0-1,1v45.25q0,42.252-16.5,74.125T357.707,226.6q-1,.246-0.5,1.5l2,4q0.246,1,1.5.5,39-19.752,56.375-53.5t17.375-77.25V56.6a0.886,0.886,0,0,0-1-1h0Zm52.75-28.5h-109a0.884,0.884,0,0,0-1,1v138.25a0.883,0.883,0,0,0,1,1h4.5a0.884,0.884,0,0,0,1-1V33.6h98v132.75a0.883,0.883,0,0,0,1,1h4.5a0.884,0.884,0,0,0,1-1V28.1a0.886,0.886,0,0,0-1-1h0Zm-31,128.75h-4.5a0.884,0.884,0,0,0-1,1V232.6a0.884,0.884,0,0,0,1,1h52.75a0.886,0.886,0,0,0,1-1v-4.5a0.884,0.884,0,0,0-1-1h-47.25v-70.25a0.886,0.886,0,0,0-1-1h0Zm-137.75-42h-4.5a0.884,0.884,0,0,0-1,1V236.1a0.884,0.884,0,0,0,1,1h4.5a0.886,0.886,0,0,0,1-1V114.846a0.886,0.886,0,0,0-1-1h0Zm27.5-58.5h-69a0.884,0.884,0,0,0-1,1v4.5a0.883,0.883,0,0,0,1,1h61.25a225.74,225.74,0,0,1-25.5,52.25,267.122,267.122,0,0,1-39.5,47.5,0.938,0.938,0,0,0,0,1.5l3,3a0.938,0.938,0,0,0,1.5,0,267.378,267.378,0,0,0,42.625-52,229.093,229.093,0,0,0,26.375-57.75,0.621,0.621,0,0,0,0-.75,1.034,1.034,0,0,0-.75-0.25h0Zm-6.5,72.75-4,2.5c-0.5.168-.586,0.586-0.25,1.25l18,28c0.164,0.5.582,0.586,1.25,0.25l4-2.5q0.75-.246.25-1.25l-18-28q-0.252-.75-1.25-0.25h0Zm-34.25-114-4,2q-1,.252-0.5,1.5l15,30q0.246,1,1.5.5l4-2q1-.246.5-1.5l-15-30q-0.252-1-1.5-.5h0Z"/>
</svg>
