<svg xmlns="http://www.w3.org/2000/svg" width="1388" height="200" viewBox="0 0 1388 200">
  <defs>
    <style>
      .cls-1 {
        fill: #1f1f1f;
        fill-rule: evenodd;
      }
    </style>
  </defs>
  <path id="轰轰烈烈_繁星点点" data-name="轰轰烈烈 繁星点点" class="cls-1" d="M14.335,37.165v3a0.589,0.589,0,0,0,.667.667H154.668a0.59,0.59,0,0,0,.667-0.667v-3a0.591,0.591,0,0,0-.667-0.667H15a0.59,0.59,0,0,0-.667.667h0Zm72.833,13v56.166a0.589,0.589,0,0,0,.667.667h3a0.59,0.59,0,0,0,.667-0.667V50.165a0.591,0.591,0,0,0-.667-0.667h-3a0.59,0.59,0,0,0-.667.667h0Zm-75.5,38.667v3a0.589,0.589,0,0,0,.667.667h145A0.589,0.589,0,0,0,158,91.831v-3a0.59,0.59,0,0,0-.666-0.667h-145a0.59,0.59,0,0,0-.667.667h0ZM67.5,24L23,68a0.482,0.482,0,0,0-.167.333c0,0.112.109,0.167,0.333,0.167H146.5a0.59,0.59,0,0,0,.667-0.667v-3a0.591,0.591,0,0,0-.667-0.667H33.168L70.5,27a0.625,0.625,0,0,0,0-1l-2-2a0.625,0.625,0,0,0-1,0h0Zm21.333,92.833v3a0.589,0.589,0,0,0,.667.667h58.834A71.882,71.882,0,0,1,126,151q-15.668,12.833-38.166,18.833a1.832,1.832,0,0,0-.5.334,0.405,0.405,0,0,0,0,.5l0.667,3a0.609,0.609,0,0,0,.833.5Q113.666,167.5,131,152.415t23-35.584a0.412,0.412,0,0,0,0-.5,0.69,0.69,0,0,0-.5-0.166h-64a0.589,0.589,0,0,0-.667.666h0ZM93.5,129l-2.333,2c-0.333.224-.333,0.5,0,0.833q10.664,14.169,28,25.334a138.674,138.674,0,0,0,38.5,17,0.61,0.61,0,0,0,.833-0.5l0.667-3a0.608,0.608,0,0,0-.5-0.834,133.84,133.84,0,0,1-36.917-16.166,103.41,103.41,0,0,1-27.25-24.5,0.726,0.726,0,0,0-1-.167h0ZM9.835,170.665l0.667,3a1.908,1.908,0,0,0,.333.5,0.414,0.414,0,0,0,.5,0q26.5-6.669,45-21.75t24.5-35.584a0.414,0.414,0,0,0,0-.5,0.691,0.691,0,0,0-.5-0.166H16.168a0.589,0.589,0,0,0-.667.666v3a0.588,0.588,0,0,0,.667.667H74.835Q68,138.166,51.168,151T10.335,169.831a0.606,0.606,0,0,0-.5.834h0Zm10.5-41.5-2.667,1.666a0.563,0.563,0,0,0-.167.417,1.324,1.324,0,0,0,.167.583q10,14.337,26.667,25.584a122.979,122.979,0,0,0,37,16.75,0.61,0.61,0,0,0,.833-0.5l0.667-3a0.609,0.609,0,0,0-.5-0.834,121.163,121.163,0,0,1-35.5-16q-16-10.663-25.5-24.333a0.76,0.76,0,0,0-.5-0.417,0.5,0.5,0,0,0-.5.084h0ZM181,37.165v3a0.589,0.589,0,0,0,.667.667H321.335A0.59,0.59,0,0,0,322,40.165v-3a0.591,0.591,0,0,0-.667-0.667H181.668a0.59,0.59,0,0,0-.667.667h0Zm72.834,13v56.166a0.588,0.588,0,0,0,.666.667h3a0.59,0.59,0,0,0,.667-0.667V50.165A0.591,0.591,0,0,0,257.5,49.5h-3a0.589,0.589,0,0,0-.666.667h0Zm-75.5,38.667v3A0.588,0.588,0,0,0,179,92.5H324a0.589,0.589,0,0,0,.666-0.667v-3A0.59,0.59,0,0,0,324,88.165H179a0.589,0.589,0,0,0-.666.667h0ZM234.168,24l-44.5,44a0.482,0.482,0,0,0-.167.333c0,0.112.11,0.167,0.334,0.167H313.168a0.59,0.59,0,0,0,.667-0.667v-3a0.591,0.591,0,0,0-.667-0.667H199.835L237.168,27a0.625,0.625,0,0,0,0-1l-2-2a0.625,0.625,0,0,0-1,0h0ZM255.5,116.831v3a0.589,0.589,0,0,0,.667.667H315A71.882,71.882,0,0,1,292.668,151Q277,163.831,254.5,169.831a1.858,1.858,0,0,0-.5.334,0.408,0.408,0,0,0,0,.5l0.667,3a0.609,0.609,0,0,0,.833.5q24.832-6.669,42.167-21.75t23-35.584a0.412,0.412,0,0,0,0-.5,0.69,0.69,0,0,0-.5-0.166h-64a0.59,0.59,0,0,0-.667.666h0ZM260.168,129l-2.333,2c-0.334.224-.334,0.5,0,0.833q10.664,14.169,28,25.334a138.674,138.674,0,0,0,38.5,17,0.61,0.61,0,0,0,.833-0.5l0.667-3a0.609,0.609,0,0,0-.5-0.834,133.84,133.84,0,0,1-36.917-16.166,103.4,103.4,0,0,1-27.25-24.5,0.726,0.726,0,0,0-1-.167h0ZM176.5,170.665l0.667,3a1.925,1.925,0,0,0,.333.5,0.414,0.414,0,0,0,.5,0q26.5-6.669,45-21.75t24.5-35.584a0.412,0.412,0,0,0,0-.5,0.688,0.688,0,0,0-.5-0.166H182.835a0.589,0.589,0,0,0-.667.666v3a0.588,0.588,0,0,0,.667.667H241.5q-6.836,17.668-23.666,30.5T177,169.831a0.606,0.606,0,0,0-.5.834h0Zm10.5-41.5-2.666,1.666a0.564,0.564,0,0,0-.167.417,1.325,1.325,0,0,0,.167.583q10,14.337,26.666,25.584a122.989,122.989,0,0,0,37,16.75,0.611,0.611,0,0,0,.834-0.5l0.666-3a0.608,0.608,0,0,0-.5-0.834,121.167,121.167,0,0,1-35.5-16q-16-10.663-25.5-24.333a0.759,0.759,0,0,0-.5-0.417,0.5,0.5,0,0,0-.5.084h0ZM446.335,33.831h-3a0.59,0.59,0,0,0-.667.667v75.667a0.589,0.589,0,0,0,.667.666h3a0.589,0.589,0,0,0,.667-0.666V34.5a0.591,0.591,0,0,0-.667-0.667h0Zm38.667-8h-3a0.59,0.59,0,0,0-.667.667V129.831H462.168a0.589,0.589,0,0,0-.666.667v3a0.589,0.589,0,0,0,.666.667H485a0.59,0.59,0,0,0,.666-0.667V26.5A0.59,0.59,0,0,0,485,25.831h0ZM367.5,34h-3a0.59,0.59,0,0,0-.667.667V64.5a0.589,0.589,0,0,0,.667.667h45.166q-2,26-17.5,42.583t-44,22.75a0.607,0.607,0,0,0-.5.833l0.667,3a0.605,0.605,0,0,0,.833.5q30.5-6.331,47.167-25.333t18-48a0.59,0.59,0,0,0-.667-0.667h-45.5V34.665A0.59,0.59,0,0,0,367.5,34h0Zm53-2.167H347.668A0.589,0.589,0,0,0,347,32.5v3a0.588,0.588,0,0,0,.666.667H420.5a0.589,0.589,0,0,0,.666-0.667v-3a0.59,0.59,0,0,0-.666-0.667h0Zm-65.667,41.5L352.168,75c-0.333.112-.39,0.391-0.166,0.833l19.333,28.5c0.109,0.334.388,0.391,0.833,0.167l2.667-1.667c0.333-.109.388-0.388,0.167-0.833L355.668,73.5q-0.168-.5-0.833-0.167h0ZM399.168,144h-3a0.589,0.589,0,0,0-.666.667v27.666a0.589,0.589,0,0,0,.666.667h3a0.591,0.591,0,0,0,.667-0.667V144.665a0.591,0.591,0,0,0-.667-0.667h0Zm-40,.333-3-.333a0.673,0.673,0,0,0-.666.833,132.518,132.518,0,0,1-4.834,27,0.608,0.608,0,0,0,.5.834l3,1a0.611,0.611,0,0,0,.834-0.5q1.832-6.669,3.166-14.084A111.557,111.557,0,0,0,359.835,145a0.591,0.591,0,0,0-.667-0.667h0Zm81-.333h-3a0.589,0.589,0,0,0-.666.667v27.666a0.589,0.589,0,0,0,.666.667h3a0.591,0.591,0,0,0,.667-0.667V144.665a0.591,0.591,0,0,0-.667-0.667h0Zm40,0-3,.333a0.673,0.673,0,0,0-.666.834,141.92,141.92,0,0,0,4.833,28,0.609,0.609,0,0,0,.833.5l3-1a2.012,2.012,0,0,0,.5-0.334,0.412,0.412,0,0,0,0-.5,115.6,115.6,0,0,1-4.833-27.166,0.591,0.591,0,0,0-.667-0.667h0ZM613,33.831h-3a0.589,0.589,0,0,0-.666.667v75.667a0.588,0.588,0,0,0,.666.666h3a0.589,0.589,0,0,0,.667-0.666V34.5A0.591,0.591,0,0,0,613,33.831h0Zm38.667-8h-3A0.59,0.59,0,0,0,648,26.5V129.831H628.835a0.59,0.59,0,0,0-.667.667v3a0.589,0.589,0,0,0,.667.667h22.833a0.59,0.59,0,0,0,.667-0.667V26.5a0.591,0.591,0,0,0-.667-0.667h0ZM534.168,34h-3a0.59,0.59,0,0,0-.667.667V64.5a0.589,0.589,0,0,0,.667.667h45.167q-2,26-17.5,42.583t-44,22.75a0.607,0.607,0,0,0-.5.833l0.666,3a0.606,0.606,0,0,0,.834.5Q546.334,128.5,563,109.5t18-48a0.588,0.588,0,0,0-.666-0.667h-45.5V34.665A0.591,0.591,0,0,0,534.168,34h0Zm53-2.167H514.335a0.59,0.59,0,0,0-.667.667v3a0.589,0.589,0,0,0,.667.667h72.833a0.59,0.59,0,0,0,.667-0.667v-3a0.591,0.591,0,0,0-.667-0.667h0ZM521.5,73.331L518.835,75c-0.334.112-.391,0.391-0.167,0.833L538,104.331c0.11,0.334.388,0.391,0.834,0.167l2.666-1.667c0.334-.109.388-0.388,0.167-0.833L522.335,73.5c-0.112-.333-0.391-0.388-0.834-0.167h0ZM565.835,144h-3a0.59,0.59,0,0,0-.667.667v27.666a0.59,0.59,0,0,0,.667.667h3a0.59,0.59,0,0,0,.666-0.667V144.665a0.59,0.59,0,0,0-.666-0.667h0Zm-40,.333-3-.333a0.673,0.673,0,0,0-.667.833,132.584,132.584,0,0,1-4.833,27,0.607,0.607,0,0,0,.5.834l3,1a0.61,0.61,0,0,0,.833-0.5q1.832-6.669,3.167-14.084A111.364,111.364,0,0,0,526.5,145a0.59,0.59,0,0,0-.666-0.667h0Zm81-.333h-3a0.59,0.59,0,0,0-.667.667v27.666a0.59,0.59,0,0,0,.667.667h3a0.59,0.59,0,0,0,.666-0.667V144.665a0.59,0.59,0,0,0-.666-0.667h0Zm40,0-3,.333a0.674,0.674,0,0,0-.667.834,141.993,141.993,0,0,0,4.833,28,0.61,0.61,0,0,0,.834.5l3-1a2.031,2.031,0,0,0,.5-0.334,0.415,0.415,0,0,0,0-.5,115.555,115.555,0,0,1-4.834-27.166,0.59,0.59,0,0,0-.666-0.667h0ZM745,47l-7,48a0.405,0.405,0,0,0,0,.5,0.672,0.672,0,0,0,.5.167h64.834A0.589,0.589,0,0,0,804,95V47a0.59,0.59,0,0,0-.666-0.667h-57.5A0.788,0.788,0,0,0,745,47h0Zm54.667,44.333H742.835l6-40.667h50.833V91.331Zm-31.833,59.334a281.864,281.864,0,0,1-35,17.833c-0.446,0-.557.276-0.334,0.833l1,2.667a0.912,0.912,0,0,0,1,.5q9.333-4,18.25-8.583t17.417-9.584c0.443-.109.555-0.388,0.333-0.833l-1.666-2.667q-0.168-.5-1-0.166h0ZM808.5,139.831h-3a0.589,0.589,0,0,0-.666.667v30.667H789.668a0.589,0.589,0,0,0-.667.666v3a0.59,0.59,0,0,0,.667.667H808.5a0.59,0.59,0,0,0,.667-0.667V140.5a0.591,0.591,0,0,0-.667-0.667h0Zm58.667-16.166v14H732.835a0.589,0.589,0,0,0-.667.666v3a0.588,0.588,0,0,0,.667.667h138a0.589,0.589,0,0,0,.666-0.667V123.665a0.591,0.591,0,0,0-.666-0.667h-3a0.59,0.59,0,0,0-.667.667h0ZM793,95.831l-49.666,24.334a0.743,0.743,0,0,0-.334.083c-0.112.057-.112,0.112,0,0.167a0.718,0.718,0,0,0,.334.083h79.833a0.59,0.59,0,0,0,.667-0.667v-3a0.591,0.591,0,0,0-.667-0.666H761.335L795,99.831q0.664-.164.334-1L794,96.165q-0.167-.664-1-0.333h0ZM768.835,75.165l-2.334,2c-0.333.224-.333,0.5,0,0.833l9,11.333a0.724,0.724,0,0,0,1,.167l2.334-2q0.5-.332,0-0.833l-9-11.333a0.727,0.727,0,0,0-1-.167h0Zm78.5,28.666L778,137.5q-0.667.168-.333,1L779,141.165q0.165,0.668,1,.333l69.334-33.667c0.442-.109.555-0.442,0.333-1l-1.333-2.666q-0.168-.665-1-0.334h0Zm-5.5,46.834q-0.837-.333-1,0.166l-1.667,2.667c-0.224.445-.112,0.724,0.333,0.833A314.018,314.018,0,0,0,875.168,172.5a0.915,0.915,0,0,0,1-.5l1-2.667c0.222-.557.109-0.833-0.333-0.833q-9.5-4-18.167-8.417t-16.833-9.416h0Zm-29-81.834H731a0.589,0.589,0,0,0-.666.667v3a0.588,0.588,0,0,0,.666.667h81.834A0.589,0.589,0,0,0,813.5,72.5v-3a0.59,0.59,0,0,0-.666-0.667h0Zm-44-16.333-2.334,2c-0.333.112-.39,0.391-0.166,0.833L775.668,67c0.109,0.333.388,0.391,0.833,0.167l2.334-2q0.5-.164.166-0.833l-9.333-11.667c-0.112-.333-0.39-0.388-0.833-0.167h0ZM739.168,25h-3a0.59,0.59,0,0,0-.667.667V36.331a0.589,0.589,0,0,0,.667.667h72.5a0.59,0.59,0,0,0,.667-0.667v-3a0.591,0.591,0,0,0-.667-0.667H739.835v-7A0.591,0.591,0,0,0,739.168,25h0ZM867.5,37.331l-3-.333a0.608,0.608,0,0,0-.833.5,68.615,68.615,0,0,1-16.917,35Q833.5,87,813,92.831a0.608,0.608,0,0,0-.5.833l0.667,3a0.606,0.606,0,0,0,.833.5A75.19,75.19,0,0,0,849.751,75.5,72.626,72.626,0,0,0,868,38.165a0.609,0.609,0,0,0-.5-0.833h0ZM822.835,48.5l-2.667,1q-0.668.168-.333,1a90.167,90.167,0,0,0,22.333,29.75A76.161,76.161,0,0,0,874.5,97.165a0.608,0.608,0,0,0,.834-0.5l0.666-3a0.609,0.609,0,0,0-.5-0.833,69.655,69.655,0,0,1-30.333-15.667,87.37,87.37,0,0,1-21.333-28.333,0.659,0.659,0,0,0-1-.333h0ZM820,25h-3a0.589,0.589,0,0,0-.666.667V38.331A0.588,0.588,0,0,0,817,39h56.667a0.59,0.59,0,0,0,.667-0.667v-3a0.591,0.591,0,0,0-.667-0.667h-53v-9A0.591,0.591,0,0,0,820,25h0Zm92.667,4.667v56.5a0.588,0.588,0,0,0,.667.667H1030.33a0.589,0.589,0,0,0,.67-0.667v-56.5a0.59,0.59,0,0,0-.67-0.667H913.335a0.59,0.59,0,0,0-.667.667h0Zm114,52.833H917V33.331H1026.67V82.5Zm1.5-26.833H915.5a0.589,0.589,0,0,0-.666.667v3A0.588,0.588,0,0,0,915.5,60H1028.17a0.586,0.586,0,0,0,.66-0.667v-3a0.587,0.587,0,0,0-.66-0.667h0Zm15.66,112.166H899.168a0.589,0.589,0,0,0-.667.667v3a0.59,0.59,0,0,0,.667.667H1043.83a0.59,0.59,0,0,0,.67-0.667v-3a0.589,0.589,0,0,0-.67-0.667h0Zm-8-28.166H907.168a0.59,0.59,0,0,0-.667.666v3a0.589,0.589,0,0,0,.667.667H1035.83a0.589,0.589,0,0,0,.67-0.667v-3a0.59,0.59,0,0,0-.67-0.666h0ZM973.168,96.5h-3a0.59,0.59,0,0,0-.667.667v72.166a0.59,0.59,0,0,0,.667.667h3a0.591,0.591,0,0,0,.667-0.667V97.165a0.591,0.591,0,0,0-.667-0.667h0Zm-61.833,1.833h-3a0.59,0.59,0,0,0-.667.667v16a0.59,0.59,0,0,0,.667.667H1039.33A0.589,0.589,0,0,0,1040,115v-3a0.59,0.59,0,0,0-.67-0.667H912V99a0.59,0.59,0,0,0-.666-0.667h0ZM1076.5,73.165v55.166a0.678,0.678,0,0,0,.17.5,0.662,0.662,0,0,0,.5.167h122a0.582,0.582,0,0,0,.66-0.667V73.165a0.581,0.581,0,0,0-.66-0.667h-122a0.672,0.672,0,0,0-.5.167,0.687,0.687,0,0,0-.17.5h0Zm119,51.5H1080.83V76.831H1195.5v47.834Zm-60.83-99.334h-3A0.59,0.59,0,0,0,1131,26V74a0.589,0.589,0,0,0,.67.667h3a0.586,0.586,0,0,0,.66-0.667V26a0.587,0.587,0,0,0-.66-0.667h0Zm72,17h-72.84a0.587,0.587,0,0,0-.66.667v3a0.586,0.586,0,0,0,.66.667h72.84a0.586,0.586,0,0,0,.66-0.667V43a0.587,0.587,0,0,0-.66-0.667h0ZM1078.5,142l-3-.333a0.677,0.677,0,0,0-.67.833,157.092,157.092,0,0,1-4.83,29,0.412,0.412,0,0,0,0,.5,2.041,2.041,0,0,0,.5.333l3,0.667a0.415,0.415,0,0,0,.5,0,1.978,1.978,0,0,0,.33-0.5,150.382,150.382,0,0,0,4.84-29.833,0.594,0.594,0,0,0-.67-0.667h0Zm40.5-.333h-3a0.594,0.594,0,0,0-.67.666v29.5a0.594,0.594,0,0,0,.67.667h3a0.594,0.594,0,0,0,.67-0.667v-29.5a0.594,0.594,0,0,0-.67-0.666h0Zm41.33,0h-3a0.587,0.587,0,0,0-.66.666v29.5a0.587,0.587,0,0,0,.66.667h3a0.59,0.59,0,0,0,.67-0.667v-29.5a0.59,0.59,0,0,0-.67-0.666h0Zm40.5,0-3,.333a0.671,0.671,0,0,0-.66.833A175.428,175.428,0,0,0,1202,172.5a1.978,1.978,0,0,0,.33.5,0.415,0.415,0,0,0,.5,0l3-.667a1.861,1.861,0,0,0,.5-0.333,0.412,0.412,0,0,0,0-.5,136.679,136.679,0,0,1-4.83-29.167,0.59,0.59,0,0,0-.67-0.666h0Zm42.34-68.5v55.166a0.582,0.582,0,0,0,.66.667h122a0.662,0.662,0,0,0,.5-0.167,0.678,0.678,0,0,0,.17-0.5V73.165a0.687,0.687,0,0,0-.17-0.5,0.672,0.672,0,0,0-.5-0.167h-122a0.581,0.581,0,0,0-.66.667h0Zm119,51.5H1247.5V76.831h114.67v47.834Zm-60.84-99.334h-3a0.587,0.587,0,0,0-.66.667V74a0.586,0.586,0,0,0,.66.667h3A0.589,0.589,0,0,0,1302,74V26a0.59,0.59,0,0,0-.67-0.667h0Zm72,17H1300.5a0.594,0.594,0,0,0-.67.667v3a0.593,0.593,0,0,0,.67.667h72.83A0.589,0.589,0,0,0,1374,46V43a0.59,0.59,0,0,0-.67-0.667h0ZM1245.17,142l-3-.333a0.673,0.673,0,0,0-.67.833,158.79,158.79,0,0,1-4.83,29,0.412,0.412,0,0,0,0,.5,1.861,1.861,0,0,0,.5.333l3,0.667a0.415,0.415,0,0,0,.5,0,1.978,1.978,0,0,0,.33-0.5,149.626,149.626,0,0,0,4.83-29.833,0.587,0.587,0,0,0-.66-0.667h0Zm40.5-.333h-3a0.59,0.59,0,0,0-.67.666v29.5a0.59,0.59,0,0,0,.67.667h3a0.587,0.587,0,0,0,.66-0.667v-29.5a0.587,0.587,0,0,0-.66-0.666h0Zm41.33,0h-3a0.594,0.594,0,0,0-.67.666v29.5a0.594,0.594,0,0,0,.67.667h3a0.594,0.594,0,0,0,.67-0.667v-29.5a0.594,0.594,0,0,0-.67-0.666h0Zm40.5,0-3,.333a0.677,0.677,0,0,0-.67.833,175.441,175.441,0,0,0,4.84,29.667,1.978,1.978,0,0,0,.33.5,0.415,0.415,0,0,0,.5,0l3-.667A2.041,2.041,0,0,0,1373,172a0.412,0.412,0,0,0,0-.5,136.054,136.054,0,0,1-4.83-29.167,0.594,0.594,0,0,0-.67-0.666h0Z"/>
</svg>
