<svg xmlns="http://www.w3.org/2000/svg" width="208" height="60" viewBox="0 0 208 60">
  <defs>
    <style>
      .cls-1 {
        fill: #1f1f1f;
        fill-rule: evenodd;
      }
    </style>
  </defs>
  <path id="个影像" class="cls-1" d="M81.7,22.566H80.8a0.177,0.177,0,0,0-.2.2v30.8a0.177,0.177,0,0,0,.2.2h0.9a0.177,0.177,0,0,0,.2-0.2v-30.8a0.177,0.177,0,0,0-.2-0.2h0Zm4.15-12h-9.2a0.448,0.448,0,0,0-.2.05,0.583,0.583,0,0,0-.15.1,65.03,65.03,0,0,1-7.9,11.1,69.7,69.7,0,0,1-10,9.4,0.217,0.217,0,0,0-.05.3l0.6,0.7q0.1,0.15.25,0a71.184,71.184,0,0,0,9.95-9.275A68.165,68.165,0,0,0,77.2,11.866h8.1a68.118,68.118,0,0,0,8.05,11.075,71.134,71.134,0,0,0,9.95,9.275c0.1,0.1.183,0.1,0.25,0l0.6-.7a0.218,0.218,0,0,0-.05-0.3,68.167,68.167,0,0,1-9.875-9.25,68.9,68.9,0,0,1-8.075-11.2,0.269,0.269,0,0,0-.3-0.2h0Zm25.45-.15v13.35a0.2,0.2,0,0,0,.05.15,0.2,0.2,0,0,0,.15.05h22.15a0.177,0.177,0,0,0,.2-0.2V10.416a0.206,0.206,0,0,0-.05-0.15,0.208,0.208,0,0,0-.15-0.05H111.5a0.2,0.2,0,0,0-.15.05,0.2,0.2,0,0,0-.05.15h0Zm1.3,12.25V11.516h19.95v11.15H112.6Zm0.35,23-0.9-.2a0.182,0.182,0,0,0-.25.15,31.7,31.7,0,0,1-2.7,7.05q-0.1.25,0.1,0.3l0.8,0.4q0.249,0.1.3-.1a41.242,41.242,0,0,0,2.8-7.35,0.183,0.183,0,0,0-.15-0.25h0Zm5.25,7.75v0.9a0.177,0.177,0,0,0,.2.2h4.9a0.177,0.177,0,0,0,.2-0.2V42.766a0.177,0.177,0,0,0-.2-0.2h-0.9a0.177,0.177,0,0,0-.2.2v10.45h-3.8a0.176,0.176,0,0,0-.2.2h0Zm-6.35-19.25v8.85a0.176,0.176,0,0,0,.2.2H133.1a0.177,0.177,0,0,0,.2-0.2v-8.85a0.177,0.177,0,0,0-.2-0.2H112.05a0.177,0.177,0,0,0-.2.2h0Zm1.3,7.75v-6.65H132v6.65H113.15Zm19.75,3.55-0.9.2a0.182,0.182,0,0,0-.15.25,14.037,14.037,0,0,0,.6,2q0.5,1.451,1.05,2.8a19.979,19.979,0,0,0,1.25,2.55q0.049,0.2.3,0.1l0.7-.4c0.133-.034.166-0.134,0.1-0.3a33.352,33.352,0,0,1-2.7-7.05,0.183,0.183,0,0,0-.25-0.15h0Zm-23.8-16.5v0.9a0.176,0.176,0,0,0,.2.2h26.55a0.177,0.177,0,0,0,.2-0.2v-0.9a0.177,0.177,0,0,0-.2-0.2H109.3a0.177,0.177,0,0,0-.2.2h0Zm12.85-5.4v5.5a0.176,0.176,0,0,0,.2.2h0.9a0.177,0.177,0,0,0,.2-0.2v-5.5a0.177,0.177,0,0,0-.2-0.2h-0.9a0.177,0.177,0,0,0-.2.2h0Zm31.45,15-0.8-.5a0.209,0.209,0,0,0-.3.1,64.731,64.731,0,0,1-6.775,8.2,58.68,58.68,0,0,1-7.825,6.7,0.208,0.208,0,0,0-.1.3l0.6,0.8c0.066,0.1.15,0.1,0.25,0a61.67,61.67,0,0,0,7.9-6.825,69.652,69.652,0,0,0,7.05-8.475q0.15-.25,0-0.3h0Zm-41.45-21.9v0.9a0.176,0.176,0,0,0,.2.2H133a0.177,0.177,0,0,0,.2-0.2v-0.9a0.177,0.177,0,0,0-.2-0.2H112.15a0.177,0.177,0,0,0-.2.2h0Zm40.4,7.5-0.7-.6a0.218,0.218,0,0,0-.3.05,87.7,87.7,0,0,1-6.2,7.075,80.669,80.669,0,0,1-6.75,6.175,0.217,0.217,0,0,0-.05.3l0.6,0.7c0.066,0.1.15,0.1,0.25,0a69.523,69.523,0,0,0,6.825-6.175,90.6,90.6,0,0,0,6.325-7.275c0.1-.1.1-0.183,0-0.25h0Zm-1.1-13.95-0.7-.6a0.218,0.218,0,0,0-.3.05,74.7,74.7,0,0,1-12.35,12.7,0.308,0.308,0,0,0-.075.15,0.146,0.146,0,0,0,.025.15l0.6,0.7c0.066,0.1.15,0.1,0.25,0a76.47,76.47,0,0,0,6.75-6.125,70.72,70.72,0,0,0,5.8-6.725q0.15-.25,0-0.3h0Zm21.05,8.85v9.25a0.2,0.2,0,0,0,.05.15,0.2,0.2,0,0,0,.15.05h29.3a0.177,0.177,0,0,0,.2-0.2v-9.25a0.206,0.206,0,0,0-.05-0.15,0.208,0.208,0,0,0-.15-0.05H172.5a0.2,0.2,0,0,0-.15.05,0.2,0.2,0,0,0-.05.15h0Zm28.4,8.15H173.6v-7.05h27.1v7.05Zm-35.5-4.55h-0.9a0.177,0.177,0,0,0-.2.2v30.9a0.177,0.177,0,0,0,.2.2h0.9a0.177,0.177,0,0,0,.2-0.2v-30.9a0.177,0.177,0,0,0-.2-0.2h0Zm23.95,20.75-19.35,7.85a0.178,0.178,0,0,0-.1.25l0.3,0.8q0.1,0.25.3,0.15l19.35-7.85a0.179,0.179,0,0,0,.1-0.25l-0.3-.8a0.19,0.19,0,0,0-.3-0.15h0Zm-0.6-7.35-18.75,7.6q-0.2.05-.1,0.3l0.3,0.8q0.049,0.2.3,0.1l18.75-7.6c0.133-.033.166-0.133,0.1-0.3l-0.3-.8q-0.051-.2-0.3-0.1h0ZM169.4,9.616l-0.8-.3a0.124,0.124,0,0,0-.15,0,0.566,0.566,0,0,0-.1.15q-2.25,6.65-4.75,12.775t-5.4,11.875a0.2,0.2,0,0,0,.1.3l0.8,0.4a0.224,0.224,0,0,0,.175.025,0.227,0.227,0,0,0,.125-0.125,197.2,197.2,0,0,0,10.15-24.85,0.124,0.124,0,0,0,0-.15,0.628,0.628,0,0,0-.15-0.1h0Zm15,19.2-0.6.7a0.147,0.147,0,0,0-.025.15,0.3,0.3,0,0,0,.075.15,13.97,13.97,0,0,1,3.625,4.375,12.954,12.954,0,0,1,1.375,6.175v12.3h-5.8a0.176,0.176,0,0,0-.2.2v0.9a0.177,0.177,0,0,0,.2.2h6.9a0.177,0.177,0,0,0,.2-0.2v-13.4a14.077,14.077,0,0,0-1.55-6.775,15.217,15.217,0,0,0-3.95-4.775,0.181,0.181,0,0,0-.25,0h0Zm2.7-9.1a17.456,17.456,0,0,1-1.45,6.1,12.865,12.865,0,0,1-3.325,4.425A16.8,16.8,0,0,1,177,33.216l-6.8,2.55a0.182,0.182,0,0,0-.15.25l0.3,0.8a0.182,0.182,0,0,0,.25.15l6.9-2.55a16.6,16.6,0,0,0,7.775-5.45,16.9,16.9,0,0,0,3.125-9.2,0.177,0.177,0,0,0-.2-0.2l-0.9-.1a0.2,0.2,0,0,0-.2.25h0Zm7.9,16.05-0.9.1a0.182,0.182,0,0,0-.15.25,30.957,30.957,0,0,0,3.1,9.025,33.22,33.22,0,0,0,5.8,7.875,0.187,0.187,0,0,0,.3,0l0.6-.6a0.187,0.187,0,0,0,0-.3,33.564,33.564,0,0,1-5.6-7.575,27.575,27.575,0,0,1-2.9-8.625,0.183,0.183,0,0,0-.25-0.15h0Zm6.35-3.4-12.05,4.95q-0.2.05-.1,0.3l0.3,0.8q0.049,0.2.3,0.1l12.05-4.95c0.133-.033.166-0.133,0.1-0.3l-0.3-.8q-0.051-.2-0.3-0.1h0ZM176.9,9.066H176a0.177,0.177,0,0,0-.2.2v4.35a0.2,0.2,0,0,0,.05.15,0.2,0.2,0,0,0,.15.05h20.9l-4.9,5.1a0.188,0.188,0,0,0,0,.3l0.6,0.6a0.187,0.187,0,0,0,.3,0l6.95-7.15a0.144,0.144,0,0,0,.05-0.1c0-.033-0.034-0.05-0.1-0.05H177.1V9.266a0.177,0.177,0,0,0-.2-0.2h0Z"/>
  <path id="_10" data-name="10" class="cls-1" d="M14.546,52.129V11.991a0.1,0.1,0,0,0-.108-0.108H4.9a0.1,0.1,0,0,0-.108.108v1.192a0.1,0.1,0,0,0,.108.108h8.125V52.129a0.1,0.1,0,0,0,.108.108h1.3a0.1,0.1,0,0,0,.108-0.108h0Zm22.1-.7a9.274,9.274,0,0,1-6.283-2.3,14.453,14.453,0,0,1-4.062-6.69,34.362,34.362,0,0,1-1.408-10.454A33.629,33.629,0,0,1,26.3,21.633,14.455,14.455,0,0,1,30.362,15a9.726,9.726,0,0,1,12.567,0,14.651,14.651,0,0,1,4.09,6.636,33.076,33.076,0,0,1,1.435,10.346,33.8,33.8,0,0,1-1.435,10.454,14.646,14.646,0,0,1-4.09,6.69,9.277,9.277,0,0,1-6.283,2.3h0Zm0,1.408a10.667,10.667,0,0,0,7.123-2.546,15.955,15.955,0,0,0,4.6-7.258,34.472,34.472,0,0,0,1.6-11.05,33.784,33.784,0,0,0-1.6-10.942,15.968,15.968,0,0,0-4.6-7.2,10.671,10.671,0,0,0-7.123-2.546,10.67,10.67,0,0,0-7.123,2.546,15.779,15.779,0,0,0-4.577,7.2,34.289,34.289,0,0,0-1.571,10.942,34.988,34.988,0,0,0,1.571,11.05,15.77,15.77,0,0,0,4.577,7.258,10.666,10.666,0,0,0,7.123,2.546h0Z"/>
</svg>
