<svg xmlns="http://www.w3.org/2000/svg" width="188" height="60" viewBox="0 0 188 60">
  <defs>
    <style>
      .cls-1 {
        fill: #1f1f1f;
        fill-rule: evenodd;
      }
    </style>
  </defs>
  <path id="个影像" class="cls-1" d="M59.7,22.566H58.8a0.177,0.177,0,0,0-.2.2v30.8a0.177,0.177,0,0,0,.2.2h0.9a0.177,0.177,0,0,0,.2-0.2v-30.8a0.177,0.177,0,0,0-.2-0.2h0Zm4.15-12h-9.2a0.448,0.448,0,0,0-.2.05,0.583,0.583,0,0,0-.15.1,65.03,65.03,0,0,1-7.9,11.1,69.7,69.7,0,0,1-10,9.4,0.217,0.217,0,0,0-.05.3l0.6,0.7q0.1,0.15.25,0a71.184,71.184,0,0,0,9.95-9.275A68.165,68.165,0,0,0,55.2,11.866h8.1a68.118,68.118,0,0,0,8.05,11.075,71.139,71.139,0,0,0,9.95,9.275c0.1,0.1.183,0.1,0.25,0l0.6-.7a0.218,0.218,0,0,0-.05-0.3,68.156,68.156,0,0,1-9.875-9.25,68.9,68.9,0,0,1-8.075-11.2,0.269,0.269,0,0,0-.3-0.2h0Zm25.45-.15v13.35a0.177,0.177,0,0,0,.2.2h22.15a0.177,0.177,0,0,0,.2-0.2V10.416a0.206,0.206,0,0,0-.05-0.15,0.208,0.208,0,0,0-.15-0.05H89.5a0.177,0.177,0,0,0-.2.2h0Zm1.3,12.25V11.516h19.95v11.15H90.6Zm0.35,23-0.9-.2a0.183,0.183,0,0,0-.25.15,31.661,31.661,0,0,1-2.7,7.05q-0.1.25,0.1,0.3l0.8,0.4q0.25,0.1.3-.1a41.227,41.227,0,0,0,2.8-7.35,0.183,0.183,0,0,0-.15-0.25h0Zm5.25,7.75v0.9a0.177,0.177,0,0,0,.2.2h4.9a0.177,0.177,0,0,0,.2-0.2V42.766a0.177,0.177,0,0,0-.2-0.2h-0.9a0.177,0.177,0,0,0-.2.2v10.45H96.4a0.177,0.177,0,0,0-.2.2h0Zm-6.35-19.25v8.85a0.177,0.177,0,0,0,.2.2H111.1a0.177,0.177,0,0,0,.2-0.2v-8.85a0.177,0.177,0,0,0-.2-0.2H90.05a0.177,0.177,0,0,0-.2.2h0Zm1.3,7.75v-6.65H110v6.65H91.15Zm19.75,3.55-0.9.2a0.182,0.182,0,0,0-.15.25,14.037,14.037,0,0,0,.6,2q0.5,1.451,1.05,2.8a19.979,19.979,0,0,0,1.25,2.55q0.049,0.2.3,0.1l0.7-.4c0.133-.034.166-0.134,0.1-0.3a33.352,33.352,0,0,1-2.7-7.05,0.183,0.183,0,0,0-.25-0.15h0Zm-23.8-16.5v0.9a0.177,0.177,0,0,0,.2.2h26.55a0.177,0.177,0,0,0,.2-0.2v-0.9a0.177,0.177,0,0,0-.2-0.2H87.3a0.177,0.177,0,0,0-.2.2h0Zm12.85-5.4v5.5a0.176,0.176,0,0,0,.2.2h0.9a0.177,0.177,0,0,0,.2-0.2v-5.5a0.177,0.177,0,0,0-.2-0.2h-0.9a0.177,0.177,0,0,0-.2.2h0Zm31.45,15-0.8-.5a0.209,0.209,0,0,0-.3.1,64.731,64.731,0,0,1-6.775,8.2,58.68,58.68,0,0,1-7.825,6.7,0.208,0.208,0,0,0-.1.3l0.6,0.8c0.066,0.1.15,0.1,0.25,0a61.67,61.67,0,0,0,7.9-6.825,69.652,69.652,0,0,0,7.05-8.475q0.15-.25,0-0.3h0Zm-41.45-21.9v0.9a0.177,0.177,0,0,0,.2.2H111a0.177,0.177,0,0,0,.2-0.2v-0.9a0.177,0.177,0,0,0-.2-0.2H90.15a0.177,0.177,0,0,0-.2.2h0Zm40.4,7.5-0.7-.6a0.218,0.218,0,0,0-.3.05,87.7,87.7,0,0,1-6.2,7.075,80.669,80.669,0,0,1-6.75,6.175,0.217,0.217,0,0,0-.05.3l0.6,0.7c0.066,0.1.15,0.1,0.25,0a69.523,69.523,0,0,0,6.825-6.175,90.6,90.6,0,0,0,6.325-7.275c0.1-.1.1-0.183,0-0.25h0Zm-1.1-13.95-0.7-.6a0.218,0.218,0,0,0-.3.05,74.7,74.7,0,0,1-12.35,12.7,0.308,0.308,0,0,0-.075.15,0.146,0.146,0,0,0,.025.15l0.6,0.7c0.066,0.1.15,0.1,0.25,0a76.47,76.47,0,0,0,6.75-6.125,70.72,70.72,0,0,0,5.8-6.725q0.15-.25,0-0.3h0Zm21.05,8.85v9.25a0.2,0.2,0,0,0,.05.15,0.2,0.2,0,0,0,.15.05h29.3a0.177,0.177,0,0,0,.2-0.2v-9.25a0.206,0.206,0,0,0-.05-0.15,0.208,0.208,0,0,0-.15-0.05H150.5a0.2,0.2,0,0,0-.15.05,0.2,0.2,0,0,0-.05.15h0Zm28.4,8.15H151.6v-7.05h27.1v7.05Zm-35.5-4.55h-0.9a0.177,0.177,0,0,0-.2.2v30.9a0.177,0.177,0,0,0,.2.2h0.9a0.177,0.177,0,0,0,.2-0.2v-30.9a0.177,0.177,0,0,0-.2-0.2h0Zm23.95,20.75-19.35,7.85a0.178,0.178,0,0,0-.1.25l0.3,0.8q0.1,0.25.3,0.15l19.35-7.85a0.179,0.179,0,0,0,.1-0.25l-0.3-.8a0.19,0.19,0,0,0-.3-0.15h0Zm-0.6-7.35-18.75,7.6q-0.2.05-.1,0.3l0.3,0.8q0.049,0.2.3,0.1l18.75-7.6c0.133-.033.166-0.133,0.1-0.3l-0.3-.8q-0.051-.2-0.3-0.1h0ZM147.4,9.616l-0.8-.3a0.124,0.124,0,0,0-.15,0,0.566,0.566,0,0,0-.1.15q-2.25,6.65-4.75,12.775t-5.4,11.875a0.2,0.2,0,0,0,.1.3l0.8,0.4a0.224,0.224,0,0,0,.175.025,0.227,0.227,0,0,0,.125-0.125,197.2,197.2,0,0,0,10.15-24.85,0.124,0.124,0,0,0,0-.15,0.628,0.628,0,0,0-.15-0.1h0Zm15,19.2-0.6.7a0.147,0.147,0,0,0-.025.15,0.3,0.3,0,0,0,.075.15,13.97,13.97,0,0,1,3.625,4.375,12.954,12.954,0,0,1,1.375,6.175v12.3h-5.8a0.176,0.176,0,0,0-.2.2v0.9a0.177,0.177,0,0,0,.2.2h6.9a0.177,0.177,0,0,0,.2-0.2v-13.4a14.077,14.077,0,0,0-1.55-6.775,15.217,15.217,0,0,0-3.95-4.775,0.181,0.181,0,0,0-.25,0h0Zm2.7-9.1a17.456,17.456,0,0,1-1.45,6.1,12.865,12.865,0,0,1-3.325,4.425A16.8,16.8,0,0,1,155,33.216l-6.8,2.55a0.182,0.182,0,0,0-.15.25l0.3,0.8a0.182,0.182,0,0,0,.25.15l6.9-2.55a16.6,16.6,0,0,0,7.775-5.45,16.9,16.9,0,0,0,3.125-9.2,0.177,0.177,0,0,0-.2-0.2l-0.9-.1a0.2,0.2,0,0,0-.2.25h0Zm7.9,16.05-0.9.1a0.182,0.182,0,0,0-.15.25,30.957,30.957,0,0,0,3.1,9.025,33.22,33.22,0,0,0,5.8,7.875,0.187,0.187,0,0,0,.3,0l0.6-.6a0.188,0.188,0,0,0,0-.3,33.564,33.564,0,0,1-5.6-7.575,27.575,27.575,0,0,1-2.9-8.625,0.183,0.183,0,0,0-.25-0.15h0Zm6.35-3.4-12.05,4.95q-0.2.05-.1,0.3l0.3,0.8q0.049,0.2.3,0.1l12.05-4.95c0.133-.033.166-0.133,0.1-0.3l-0.3-.8q-0.051-.2-0.3-0.1h0ZM154.9,9.066H154a0.177,0.177,0,0,0-.2.2v4.35a0.2,0.2,0,0,0,.05.15,0.2,0.2,0,0,0,.15.05h20.9l-4.9,5.1a0.188,0.188,0,0,0,0,.3l0.6,0.6a0.187,0.187,0,0,0,.3,0l6.95-7.15a0.144,0.144,0,0,0,.05-0.1c0-.033-0.034-0.05-0.1-0.05H155.1V9.266a0.177,0.177,0,0,0-.2-0.2h0Z"/>
  <path id="_9" data-name="9" class="cls-1" d="M18.9,12.641A10.636,10.636,0,0,1,28.239,18a10.98,10.98,0,0,1,1.435,5.579A10.686,10.686,0,0,1,18.9,34.362a10.862,10.862,0,0,1-9.425-5.335,10.467,10.467,0,0,1-1.463-5.444,10.858,10.858,0,0,1,1.463-5.552,10.653,10.653,0,0,1,3.954-3.954A10.769,10.769,0,0,1,18.9,12.641h0Zm0-1.3a11.886,11.886,0,0,0-6.121,1.652,12.547,12.547,0,0,0-4.5,4.469A11.739,11.739,0,0,0,6.6,23.583a11.5,11.5,0,0,0,1.679,6.04,12.386,12.386,0,0,0,4.5,4.415A12.035,12.035,0,0,0,18.9,35.662a11.9,11.9,0,0,0,6.094-1.625,12.252,12.252,0,0,0,4.442-4.415,11.646,11.646,0,0,0,1.652-6.039,11.891,11.891,0,0,0-1.652-6.121,12.413,12.413,0,0,0-4.442-4.469A11.748,11.748,0,0,0,18.9,11.341h0ZM31.137,23.474H29.621a11.987,11.987,0,0,1-.46,3.331A10.965,10.965,0,0,1,28,29.541L14.671,52.129q-0.055.053,0,.081a0.241,0.241,0,0,0,.108.027H16.35a0.048,0.048,0,0,0,.054-0.054L29.3,30.408a17.138,17.138,0,0,0,1.3-3.223,12.917,12.917,0,0,0,.542-3.71h0Z"/>
</svg>
