<svg xmlns="http://www.w3.org/2000/svg" width="228" height="60" viewBox="0 0 228 60">
  <defs>
    <style>
      .cls-1 {
        fill: #1f1f1f;
        fill-rule: evenodd;
      }
    </style>
  </defs>
  <path id="_24_07_10" data-name="24/07/10" class="cls-1" d="M4.617,19.365H5.808a0.1,0.1,0,0,0,.108-0.108,8.865,8.865,0,0,1,1.49-4.9,11.071,11.071,0,0,1,3.954-3.683A10.629,10.629,0,0,1,16.642,9.29a9.944,9.944,0,0,1,5.119,1.381,10.226,10.226,0,0,1,3.71,3.683,9.618,9.618,0,0,1,1.354,4.956,9.966,9.966,0,0,1-1.029,4.36,24.541,24.541,0,0,1-3.413,4.956L4.454,47.585c0,0.036-.009.054-0.027,0.054S4.4,47.658,4.4,47.694v1.029a0.1,0.1,0,0,0,.108.108H29.371a0.1,0.1,0,0,0,.108-0.108V47.531a0.1,0.1,0,0,0-.108-0.108H5.7V48.4L23.575,29.6A25.707,25.707,0,0,0,27.2,24.185a11.443,11.443,0,0,0,1.137-4.875,10.66,10.66,0,0,0-1.6-5.579,12.226,12.226,0,0,0-4.279-4.252,11.178,11.178,0,0,0-5.823-1.6,11.751,11.751,0,0,0-5.931,1.6,12.944,12.944,0,0,0-4.5,4.225,10.029,10.029,0,0,0-1.706,5.552,0.1,0.1,0,0,0,.108.108h0ZM60.408,36.535H54.667V8.585a0.1,0.1,0,0,0-.108-0.108h-1.3a0.048,0.048,0,0,0-.054.054L35.113,36.806c0,0.036-.009.054-0.027,0.054s-0.027.019-.027,0.054v0.921a0.1,0.1,0,0,0,.108.108H53.15V48.723a0.1,0.1,0,0,0,.108.108h1.3a0.1,0.1,0,0,0,.108-0.108V37.944h5.742a0.1,0.1,0,0,0,.108-0.108V36.644a0.1,0.1,0,0,0-.108-0.108h0ZM36.9,36.59l16.3-25.4v25.4H36.9ZM69.021,53.219L86.571,7.231V7.15c0-.018-0.019-0.027-0.054-0.027H85.271c-0.108,0-.162.036-0.162,0.108L67.558,53.219V53.3c0,0.018.018,0.027,0.054,0.027h1.246c0.108,0,.162-0.036.162-0.108h0Zm37.05-5.2a9.273,9.273,0,0,1-6.284-2.3,14.453,14.453,0,0,1-4.062-6.69,34.361,34.361,0,0,1-1.408-10.454,33.629,33.629,0,0,1,1.408-10.346,14.455,14.455,0,0,1,4.063-6.635,9.726,9.726,0,0,1,12.567,0,14.647,14.647,0,0,1,4.09,6.635,33.086,33.086,0,0,1,1.435,10.346,33.805,33.805,0,0,1-1.435,10.454,14.642,14.642,0,0,1-4.09,6.69,9.276,9.276,0,0,1-6.283,2.3h0Zm0,1.408a10.667,10.667,0,0,0,7.123-2.546,15.961,15.961,0,0,0,4.6-7.258,34.463,34.463,0,0,0,1.6-11.05,33.775,33.775,0,0,0-1.6-10.942,15.973,15.973,0,0,0-4.6-7.2,11.238,11.238,0,0,0-14.246,0,15.78,15.78,0,0,0-4.577,7.2A34.288,34.288,0,0,0,92.8,28.573a34.988,34.988,0,0,0,1.571,11.05,15.771,15.771,0,0,0,4.577,7.258,10.665,10.665,0,0,0,7.123,2.546h0Zm24.537-.7L147.183,9.615c0-.036.009-0.054,0.027-0.054s0.027-.018.027-0.054V8.585A0.112,0.112,0,0,0,147.21,8.5a0.111,0.111,0,0,0-.081-0.027H123.621a0.1,0.1,0,0,0-.109.108V9.777a0.106,0.106,0,0,0,.028.081,0.1,0.1,0,0,0,.081.027H145.45L128.929,48.723a0.112,0.112,0,0,0,.027.081,0.111,0.111,0,0,0,.081.027h1.409c0.108,0,.162-0.036.162-0.108h0Zm23.617,4.5,17.55-45.988V7.15c0-.018-0.019-0.027-0.054-0.027h-1.246c-0.108,0-.163.036-0.163,0.108l-17.55,45.988V53.3c0,0.018.018,0.027,0.055,0.027h1.245c0.109,0,.163-0.036.163-0.108h0Zm34.4-4.5V8.585a0.112,0.112,0,0,0-.027-0.081,0.114,0.114,0,0,0-.081-0.027h-9.534a0.111,0.111,0,0,0-.081.027,0.108,0.108,0,0,0-.027.081V9.777a0.106,0.106,0,0,0,.027.081,0.108,0.108,0,0,0,.081.027H187.1V48.723a0.1,0.1,0,0,0,.109.108h1.3a0.114,0.114,0,0,0,.081-0.027,0.112,0.112,0,0,0,.027-0.081h0Zm22.154-.7a9.273,9.273,0,0,1-6.283-2.3,14.454,14.454,0,0,1-4.063-6.69,34.378,34.378,0,0,1-1.408-10.454,33.645,33.645,0,0,1,1.408-10.346,14.456,14.456,0,0,1,4.063-6.635,9.725,9.725,0,0,1,12.566,0,14.647,14.647,0,0,1,4.09,6.635,33.086,33.086,0,0,1,1.435,10.346,33.805,33.805,0,0,1-1.435,10.454,14.642,14.642,0,0,1-4.09,6.69,9.275,9.275,0,0,1-6.283,2.3h0Zm0,1.408a10.667,10.667,0,0,0,7.123-2.546,15.953,15.953,0,0,0,4.6-7.258,34.463,34.463,0,0,0,1.6-11.05,33.775,33.775,0,0,0-1.6-10.942,15.965,15.965,0,0,0-4.6-7.2,11.238,11.238,0,0,0-14.246,0,15.781,15.781,0,0,0-4.577,7.2A34.282,34.282,0,0,0,197.5,28.573a34.982,34.982,0,0,0,1.571,11.05,15.772,15.772,0,0,0,4.577,7.258,10.665,10.665,0,0,0,7.123,2.546h0Z"/>
</svg>
