<svg xmlns="http://www.w3.org/2000/svg" width="840" height="258" viewBox="0 0 840 258">
  <defs>
    <style>
      .cls-1 {
        fill: #1f1f1f;
        fill-rule: evenodd;
      }
    </style>
  </defs>
  <path id="待春来时_" data-name="待春来时 " class="cls-1" d="M173.9,217.909A23.286,23.286,0,0,0,180.933,214q1.561-2.149,2.93-4.493,0.78-2.636,1.367-5.273V141.932h28.125v-4.3L200.66,127.089l-10.547,10.546H185.23V117.518l3.125-1.953-3.125-2.148-12.5-1.953v26.171H94.41v4.3h78.32V202.87l-0.391,1.758-0.39.2q0,0.586-3.516,1.172h-20.9v3.125l20.9,3.125v6.25q2.733-.2,5.469-0.586h0Zm-32.813-28.32,2.735-3.907L143.042,181l-2.734-3.711-3.125-3.516-6.836-6.25q-4.4-3.222-7.617-5.176a92.059,92.059,0,0,0-12.7-5.957l-4.688-1.367-0.781,1.758q3.9,2.734,10.742,8.4l8.594,9.18a100.114,100.114,0,0,1,8.4,13.086l3.907,2.93ZM55.152,85.878q5.859-5.468,17.187-16.8l10.742-12.5L90.5,46.62H94.41L92.847,43.1,82.691,35.682Q82.1,36.465,78,43.3L69.41,56.581l-9.375,12.3L50.269,80.8,34.449,97.987l1.172,1.563A227.847,227.847,0,0,0,55.152,85.878h0ZM76.636,212.245V126.893l3.125-1.758-3.125-2.148-7.422-1.367q1.758-1.562,8.4-8.4,6.248-7.226,12.3-14.648l8.594-12.109h4.1l-1.758-3.516L90.7,75.526l-5.078,8.789L75.464,99.55,64.332,114.2,52.222,128.065Q38.94,141.739,32.1,148.378l1.172,1.562q8.2-5.272,16.211-10.742l14.648-12.5v91.8Zm138.672-109.18-12.5-10.547-10.547,10.547H158.472V70.448h46.289v-4.1L192.066,55.8,181.519,66.346H158.472V40.76L161.6,39l-3.125-2.148-12.5-2.148V66.346H99.878v4.1h46.094v32.617H93.238v4.1h122.07v-4.1ZM290.015,201.8V175.233H355.64V201.8H290.015Zm0-61.719-7.226-3.516,6.64-6.25q10.547-12.891,11.914-14.844H348.8l3.32,6.055,4.3,6.445L361.89,135l-6.25,5.078H290.015Zm0,30.859V144.374H355.64v26.562H290.015Zm0,42.383v-7.227H355.64v10.352l12.695-6.25V148.475l3.907-3.125q5.566,4.688,11.328,9.18,6.446,4.1,13.086,8.008l7.031,3.515,12.109-9.961q-9.96-4-19.922-8.2-6.151-3.222-12.109-6.836l-11.719-7.812q-5.664-4.687-20.117-17.774h60.742v-4.1l-12.695-10.547-10.352,10.547H304.078l4.882-7.813,7.422-14.843h76.367v-4.1l-12.7-10.547L369.7,84.608H317.945l4.492-12.3,2.539-10.351h75v-4.1L387.476,47.3,376.929,57.85H326.148q0.586-2.733,2.734-16.992L332.4,39.1l-2.93-2.344-12.3-3.32a230.567,230.567,0,0,1-3.125,24.414H246.851v4.1h66.211L311.5,69.178l-4.687,15.43H254.078v4.1h50.781l-4.492,10.156-7.032,12.5H234.156v4.1h56.25l-7.032,9.571-10.742,11.523L260.523,147.5l-13.672,10.156-15.234,9.375,0.781,1.758,16.406-7.617,15.039-9.18,13.672-10.156v77.929Zm240.234-.586V132.46l3.907,6.836,5.859,8.789,6.445,8.4L553.1,164.3l7.422,7.617,7.617,7.226,8.008,6.836,8.4,6.446,8.789,6.054,9.18,5.664,11.719-9.375-22.656-12.7-8.594-5.469-16.016-11.914-7.617-6.445-7.422-6.836Q544.7,144.18,532.2,130.9h81.054v-4.3l-12.695-10.351L590.21,126.6H530.249V70.936h70.313v-4.1l-12.5-10.547L577.515,66.835H530.249V40.272l3.125-1.758-3.125-2.148-12.5-2.148V66.835H447.437v4.1H517.75V126.6H434.742v4.3h75.39q-5.272,8.6-15.429,22.266l-7.227,8.4-7.812,8.2-8.2,8.008q-8.985,7.521-18.164,14.844l-20.117,14.062,0.977,1.563,11.328-5.078,10.937-5.86,10.352-6.445,9.766-7.031,9.179-7.422,8.789-8.008,8.2-8.4,7.618-8.985,7.422-9.57v77.539Zm-33.2-98.047,0.2-4.883q-2.149-3.9-7.032-11.523-5.859-6.834-8.984-9.961L473.8,82.264l-8.2-5.078-1.172,1.563,3.125,3.516,8.008,10.742,4.1,7.031,3.32,7.226,2.539,7.032,3.32,3.515,4.688,0.2Zm58.594-.2,7.813-7.617Q573.9,94.96,579.078,87.928l4.1-.2-1.758-3.32L571.07,77.186q-0.587.977-4.3,8.594l-4.3,7.813-17.187,27.149,1.367,1.367Zm92.481,60.449V118.1h31.054V174.94H648.121Zm0-60.937V60.682h31.054V114H648.121Zm0,77.734v-12.5h31.054v12.5l12.7-6.25V64.784l5.078-4.1-11.524-9.57-6.25,5.273H648.121l-12.5-6.25V197.987Zm100-37.305,0.39-4.883-1.953-4.687a104.615,104.615,0,0,0-9.18-13.281q-3.808-4-7.812-7.813-4.687-3.514-9.57-6.836-5.567-3.025-11.329-5.664l-1.171,1.563,8.984,8.594,7.422,8.007q3.025,3.908,5.859,8.008l4.3,8.008q1.367,4,2.539,8.008l3.125,3.711,4.883,0.39Zm24.609,60.743,2.344-1.368,2.148-1.758,1.758-2.148q1.171-2.343,2.148-4.883,0.39-2.637.586-5.273V91.542h30.078v-4.1l-12.5-10.547L788.746,87.44h-7.032V38.807l3.125-1.758L781.714,34.9l-12.7-2.148V87.44h-66.6v4.1h66.6V200.917l-0.391,1.757a7.316,7.316,0,0,1-3.711,1.368H743.824v3.125l21.093,3.125v6.25a31.816,31.816,0,0,0,7.813-1.367h0Z"/>
</svg>
