<svg xmlns="http://www.w3.org/2000/svg" width="228" height="60" viewBox="0 0 228 60">
  <defs>
    <style>
      .cls-1 {
        fill: #1f1f1f;
        fill-rule: evenodd;
      }
    </style>
  </defs>
  <path id="_24_02_11" data-name="24/02/11" class="cls-1" d="M28.451,48.473l0.159,0.053a59.141,59.141,0,0,0,.793-6.559l0.106-.688-0.476-.159q-0.317.635-1.534,2.486l-0.846,1.587q-9.416,0-11.214-.053-1.825.053-3.65,0.053L22.474,32.075l1.9-2.645,1.481-2.275,1.164-2.169,0.741-2.169,0.476-2.275,0.212-2.38q-0.053,0-.793-3.385l-1.746-2.592-2.433-1.8-2.8-.952-2.909-.212L14.856,9.7l-2.7,1.217-2.116,1.957L8.667,15.518,8.562,18.692,9.09,18.745,10.1,16.1l1.428-1.9,1.8-1.322,2.169-.741,2.275-.264,0.688,0.106,2.063,0.793L21.468,13.3l0.794,0.582a10.639,10.639,0,0,1,1.64,2.116l0.317,0.793a24.322,24.322,0,0,1,.37,2.909l-0.053,1.428-0.317,1.693-0.741,2.01-1.111,2.486-1.64,2.909-2.169,3.491Q12.5,42.549,8.35,48.156v0.423h20.1V48.473Zm9.1-13.224L48.129,12.927V35.249H37.549Zm14.018,3.385h5.078V35.249H51.567V8.8H48.129l-12.8,26.449v3.385h12.8v9.945h3.438V38.635ZM86.135,8.668H83.385L60.533,51.489h2.751ZM99.121,47.31l-1.269-.794-1.111-1.058-0.9-1.322-0.794-1.693L94.361,40.38l-0.476-2.433L93.567,35.2q-0.159-3.279-.212-6.559,0.053-3.253.212-6.506l0.317-2.751,0.476-2.433,0.688-2.01,0.794-1.746,0.9-1.322,1.111-1.058,1.269-.741,0.9-.264,0.9,0.264,1.269,0.741,1.058,1.058,0.953,1.322,0.793,1.746,0.688,2.01,0.476,2.433,0.317,2.751q0.159,3.253.238,6.533-0.079,3.28-.238,6.533l-0.317,2.751-0.476,2.433-0.688,2.063L104.2,44.136l-0.953,1.322-1.058,1.058-1.269.794-0.9.264Zm3.862,0.529,1.64-1.005,1.481-1.428,1.375-1.9,1.164-2.275,0.9-2.645,0.688-2.962,0.423-3.333,0.159-3.6-0.159-3.6L110.23,21.76l-0.688-3.015-0.9-2.645-1.164-2.275L106.1,11.974l-1.481-1.481-1.64-.952-1.746-.529-1.216-.079L98.8,9.012a20.846,20.846,0,0,0-2.248.767l-1.137.714-1.481,1.481-1.375,1.851L91.4,16.1l-0.9,2.645L89.812,21.76l-0.423,3.332-0.159,3.6,0.159,3.6,0.423,3.333L90.5,38.582l0.9,2.645L92.562,43.5l1.375,1.9,1.481,1.428,1.64,1.005,2.09,0.555H101Zm33.8,0.635,0.159,0.053a59.087,59.087,0,0,0,.793-6.559l0.106-.688-0.476-.159q-0.318.635-1.534,2.486l-0.846,1.587q-9.417,0-11.215-.053-1.824.053-3.649,0.053l10.685-13.118,1.9-2.645,1.481-2.275,1.164-2.169,0.741-2.169,0.476-2.275,0.211-2.38q-0.053,0-.793-3.385l-1.746-2.592-2.433-1.8-2.8-.952L126.1,9.224,123.19,9.7l-2.7,1.217-2.116,1.957L117,15.518,116.9,18.692l0.529,0.053,1-2.645,1.428-1.9,1.8-1.322,2.168-.741,2.275-.264,0.688,0.106,2.063,0.793L129.8,13.3l0.793,0.582a10.639,10.639,0,0,1,1.64,2.116l0.317,0.793a24.33,24.33,0,0,1,.371,2.909l-0.053,1.428-0.318,1.693-0.74,2.01L130.7,27.315l-1.64,2.909-2.169,3.491q-6.057,8.834-10.209,14.441v0.423h20.1V48.473Zm30.6-39.805h-2.75l-22.852,42.82h2.751Zm23.566,38.8h-7.988V9.012l-0.211-.053-0.318.635-0.9.952-1.375,1.005q-0.635.265-2.169,0.793a59.741,59.741,0,0,1-6.4,1.693v1h7.618l0.37,0.159V47.468H171.59v1.111h19.361V47.468Zm27.083,0h-7.987V9.012l-0.212-.053-0.317.635-0.9.952-1.375,1.005q-0.635.265-2.169,0.793a59.8,59.8,0,0,1-6.4,1.693v1h7.617l0.37,0.159V47.468h-7.987v1.111h19.36V47.468Z"/>
</svg>
