<svg xmlns="http://www.w3.org/2000/svg" width="208" height="60" viewBox="0 0 208 60">
  <defs>
    <style>
      .cls-1 {
        fill: #1f1f1f;
        fill-rule: evenodd;
      }
    </style>
  </defs>
  <path id="个影像" class="cls-1" d="M83.057,52.28V26.743l0.781-.439-0.781-.537-3.125-.537V53.843ZM61.279,30.161l2.93-1.514,2.832-1.758,2.686-1.855,2.588-2.1,2.441-2.246,2.295-2.441,2.2-2.637L81.982,11.8q0.537,0.928,2.246,3.418l1.9,2.344,1.9,2.148,2.051,2.051,2.148,1.807,2.2,1.709,2.295,1.563,2.344,1.416,2.442,1.27,2.978-2.49-3.906-1.709-2.3-1.123-2.246-1.318-2.2-1.416L91.7,19.859q-2.124-1.782-4.2-3.613l-2.051-2-2.978-3.174,0.2-.293h0.977L83.2,9.946,80.664,8.091l-0.293.439H80.42Q78.759,11.265,77,13.95l-1.953,2.588-2.1,2.441L70.8,21.275l-2.344,2.2-2.441,2.051-2.539,1.9-2.686,1.855-2.783,1.709,0.2,0.439Zm53.98,8.081V32.383h11.865v5.859H115.259Zm-0.391-23.193v-4.2h12.891v4.2H114.868Zm0,5.518V16.074h12.891v4.492H114.868Zm8.887,5.518,0.049-1.221a18.584,18.584,0,0,0-1.221-1.416q-0.489-.342-1.563-0.976a15.836,15.836,0,0,0-1.9-.635l-0.537-.2h9.18v2.637l3.174-1.611V11.875l1.318-1.025L129.37,8.457l-1.611,1.318H114.868l-3.174-1.562V25.059l3.174-1.611V21.641h3.565l-0.2.342,0.586,0.342q0.756,0.879,1.465,1.807a4.737,4.737,0,0,1,.537,1.9l0.879,0.83,1.172,0.049Zm8.789,22.07,0.537-1.025-0.342-1.172a11.73,11.73,0,0,0-1.282-1.111q-0.671-.5-3.161-1.965l-1.9-.781-2.1-.732-0.2.391,0.927,0.635,2.93,2.588,1.611,1.807L130.3,47.91l1.074,0.586Zm-21.973.684q2.148-1.172,3.089-1.807t1.843-1.27l1.514-1.318,1.025,0.2-0.244-.928-2.344-2.148-1.172,1.611-1.221,1.465q-1.513,1.514-5.078,4.883l0.244,0.391Zm23.877-21.045L131.811,25.4l-2.148,2.393H108.52v1.025h25.928V27.793Zm4.883-6.2,1.807-1.318,3.418-2.783,3.173-2.93,2.246-2.441,0.928,0.147-0.244-.879-2.344-2.148-1.367,1.807-2.685,3.174L141.382,17.3l-3.125,2.93-4.981,4.443,0.2,0.391a65.889,65.889,0,0,0,5.859-3.467h0Zm-3.613,15.82,2.1-1.123q2.026-1.245,4-2.588,2.832-2.173,5.518-4.541L149,27.5l2.539-2.783,0.928,0.1-0.293-.879-2.393-2.051-1.465,1.953L145.434,27.3q-1.561,1.66-3.173,3.271l-3.418,3.076-5.567,4.395,0.2,0.391ZM133.276,52.7l2.735-1.123,2.636-1.367,2.491-1.514,2.441-1.611,2.295-1.807,2.246-1.9q3.637-3.637,5.42-5.762l0.977,0.049-0.342-.879-2.393-2q-0.147.146-1.807,2.441l-1.806,2.2-1.9,2.051-2,2-2.1,1.855-2.148,1.758-2.295,1.66q-3.639,2.392-7.422,4.541l0.195,0.439Zm-12.744.635,0.586-.342,0.537-.439,0.44-.537a7.7,7.7,0,0,0,.634-1.855q0.05-.684.049-10.84h4.346v1.563l3.125-1.562V33.408l1.318-1.025-2.881-2.393-1.562,1.318H115.259l-3.174-1.562V40.879l3.174-1.562H119.6v10.5l-0.1.391-0.244.244-0.684.1h-4.2v0.781l4.2,0.781v1.563a7.945,7.945,0,0,0,1.953-.342h0Zm57.984-34.546L177.3,18.15a40.471,40.471,0,0,0,3.418-3.613l0.732-1.025h11.621l-0.927,2.1-0.782,2.149a4.488,4.488,0,0,1-.293,1.025H178.516Zm0,7.324v-6.3h9.033l-0.489,2.1-0.927,2.441-0.977,1.758h-6.64Zm9.814,0q0.342-.537,1.562-3.32l0.831-2.979h7.47v6.3H188.33Zm-2.49,27.685q0.609-.146,1.22-0.342,0.537-.293,1.075-0.635l0.976-.879a11.871,11.871,0,0,0,.733-1.025l0.83-1.9,0.537-1.953,0.195-2L191.26,43l-0.391-2.051-0.732-2.1-0.44-.928q1.1-.463,2.2-0.879l0.293,1.465,0.635,1.953,0.733,1.807q0.853,1.611,1.757,3.174l1.075,1.367,1.123,1.221,1.22,1.074,1.319,0.928,1.416,0.781,3.027-2.539-2.881-1.123-1.123-.586-1.074-.733-1.074-.879-1.074-1.025L196.24,42.71l-2-2.93L192.48,36.8l3.662-1.855,2.93-1.611,0.977,0.391-0.1-.928L198.1,30.259l-0.245.146,0.049,0.049-8.5,6.836q-0.244-.537-1.562-2.637l-1.612-2.148-1.611-1.856,0.781-.684,1.758-2,0.537-.781h10.5v1.563l3.174-1.562v-6.3l1.27-1.074-2.881-2.344-1.563,1.318h-6.4q0.488-.488,3.76-4l1.074-.488,1.318-.781-2.881-2.344-1.22.976-0.1-.049a1.761,1.761,0,0,1-.293.391H182.178l1.318-2.148,0.977-.1-0.489-.781L181.3,7.749a53.162,53.162,0,0,1-2.735,5.225l-2.1,2.93q-1.173,1.318-3.662,3.906l-2.832,2.441,0.244,0.391,1.758-.781,1.66-.928,1.709-1.172V30.6l3.174-1.611V27.183h5.957l-0.831,1.123-1.611,1.66-1.758,1.514-1.953,1.465q-4.3,2.93-6.494,4.492l0.244,0.391q2.442-1.123,7.129-3.418l2.2-1.27q2.052-1.465,2.832-2.1l1.416,2.49-2.246,2-2.734,2.1-3.027,2.051L170.8,43.735l0.2,0.44q3.319-.976,5.811-1.953,3.515-1.66,5.175-2.539l3.076-1.9,2-1.416q0.611,1.489,1.123,3.027-1.269,1.075-4.248,3.32l-3.515,2.3-4.053,2.344-6.885,3.711,0.2,0.488q2.564-.806,5.078-1.709,4.59-1.9,6.689-2.881l3.906-2,3.467-2.2,0.049,0.488-0.1,1.66-0.293,1.563-0.585,1.416q-0.978,1.709-1.172,2l-0.44.391-0.488.293q-0.611.146-1.221,0.244h-4.248V51.6l4.248,0.781v1.563q0.635-.049,1.27-0.147h0Zm-17.53-1.172V25.034l0.782-.488-0.782-.537-1.611-.244,1.807-3.174,2.783-5.518,2.148-4.785,0.928-.2-0.537-.781-2.783-1.465q-1.221,3.272-3.516,8.936l-2.49,5.469-2.734,5.273-4.3,7.617,0.39,0.293,1.905-2.246,1.806-2.344,3.028-4.541V54.185Z"/>
  <path id="_11" data-name="11" class="cls-1" d="M27.567,48.874H19.58V10.418l-0.212-.053L19.051,11l-0.9.952-1.375,1.005q-0.635.265-2.169,0.793a59.822,59.822,0,0,1-6.4,1.693v1.005h7.617l0.37,0.159V48.874H8.207v1.111h19.36V48.874Zm27.083,0H46.663V10.418l-0.212-.053L46.134,11l-0.9.952L43.86,12.957q-0.635.265-2.169,0.793a59.823,59.823,0,0,1-6.4,1.693v1.005h7.617l0.37,0.159V48.874H35.29v1.111h19.36V48.874Z"/>
</svg>
