<svg xmlns="http://www.w3.org/2000/svg" width="1888" height="200" viewBox="0 0 1888 200">
  <defs>
    <style>
      .cls-1 {
        fill: #1f1f1f;
        fill-rule: evenodd;
      }
    </style>
  </defs>
  <path id="等到花海盛开_待到春燕归来" data-name="等到花海盛开 待到春燕归来" class="cls-1" d="M127.4,69.757l0.879-3.516a35.925,35.925,0,0,0-1.611-3.369q-1.173-1.61-2.564-3.223t-4.614-4.687l-4.541-3.369h35.156V48.37l-9.521-7.91-7.91,7.91H102.062q1.83-2.269,3.516-4.687l2.637-4.248,3.076-.293L109.826,36.8l-8.057-4.98-0.732,1.465q-1.173,2.784-4.395,9.375L92.834,49.1q-2.2,3.076-11.719,15.674L81.994,65.8q3.588-2.123,7.031-4.395l3.223-2.49q3.662-3.588,7.178-7.324h13.33a26.5,26.5,0,0,1,2.417,3.809q1.024,1.978,1.977,3.955,0.951,2.565,1.758,5.127l0.147,1.318a12.684,12.684,0,0,1-.147,2.051l2.051,3.076,3.515,0.879ZM18.273,72.686q4.395-3.516,8.643-7.178l7.324-7.764,4.834-6.152H50.5l1.172,1.465q3.222,6.446,3.955,8.35l1.025,3.223,0.293,2.783L56.8,68.438l1.9,3.076,3.516,0.879,3.076-2.051,0.879-3.516-1.758-3.516q-1.173-1.684-2.49-3.406a49.587,49.587,0,0,0-4.687-4.944l-4.395-3.369H87.121V48.37L77.6,40.46l-7.91,7.91H41.271l2.051-3.076,3.223-6.152,2.93-.44-1.611-2.344-8.5-4.395-0.586,1.758-2.93,7.617q-2.051,4.1-6.885,12.451l-5.859,8.2L12.56,74.737l0.879,1.172ZM148.5,106.378l-9.522-7.911-7.763,7.911H86.242V88.214h50.391V85.137l-9.375-7.91-7.91,7.91H86.242V73.126l2.344-1.318L86.242,70.2l-9.375-1.611V85.137H26.476v3.076H76.867v18.165H14.611v3.076H148.5v-3.076ZM68.664,154.717l1.9-3.076-0.732-3.515-1.9-2.2q-2.2-2.049-6.885-6-2.784-1.758-5.566-3.37-3.076-1.538-6.152-2.929L42.3,131.133l-0.586,1.319,2.93,2.051,7.617,6.591q4.1,4.1,5.859,6.153l2.93,4.248,1.025,1.9,3.076,2.051Zm35.01,15.528,3.662-1.612,1.611-1.318a40.2,40.2,0,0,0,2.2-3.369q0.586-1.905,1.026-3.809,0.145-2.05.146-31.64h32.227v-3.223l-9.375-7.764-7.91,7.764H112.316v-9.521l2.344-1.465-2.344-1.612-9.521-1.464v14.062H18.566V128.5H102.8v30.468l-0.147.879a1,1,0,0,0-.293.733,0.934,0.934,0,0,1-.4.22,6.188,6.188,0,0,0-.623.219,8.974,8.974,0,0,1-1.611.147H83.9v2.49L99.719,166v4.687q1.978-.147,3.955-0.439h0Zm182.666-.952,1.758-.586,1.757-1.026,1.612-1.318,1.318-1.611,1.025-1.758q0.587-1.978,1.026-3.955V37.31l2.344-1.465-2.344-1.611-9.375-1.465q0,124.365-.147,125.244v0.733a1.86,1.86,0,0,1-.439.732,0.423,0.423,0,0,1-.147.293,9.3,9.3,0,0,1-2.49.586H266.564V162.7l15.674,2.344v4.687q2.05-.147,4.1-0.439h0Zm-114.4-7.618,24.61-6.005q15.821-4.248,31.64-8.789l17.432-5.713-0.439-1.319-9.082,1.319-25.928,4.687V117.73h32.519v-3.076l-9.521-7.91-7.91,7.91H210.168V94.732l2.344-1.318L210.168,91.8l-9.522-1.611v24.463H168.127v3.076h32.519v29.736l-35.156,5.86,3.369,9.082,1.905,1.9Zm90.967-29V56.207l2.344-1.465L262.9,53.131l-9.521-1.465v85.84ZM173.693,94.879q7.177-1.464,24.317-5.42,23.51-5.785,30.029-7.91l2.051,3.809q1.024,2.565,1.9,5.127l2.49,2.49L238,93.121l2.637-2.49V86.968q-1.612-2.928-3.37-5.713l-4.394-5.566-5.42-5.273-6.3-4.981-7.471-4.394-0.878,1.025q2.928,3.224,10.4,12.3l3.662,5.127Q215,80.524,203.137,82.134l-26.954,3.223,3.809-2.344q4.247-3.588,8.35-7.324L196.4,66.9l8.5-10.254,2.93,0.293-0.879-2.783L199.621,48q-0.734,1.318-12.891,18.6-6.885,8.789-10.107,12.451-2.931,2.856-6.006,5.566l-2.637,1.758h-0.439l2.93,9.082,1.9,2.2Zm70.9-50.391-9.522-7.91-7.91,7.91H166.223v3.223h78.369V44.488ZM446.96,162.554l1.9-2.783-1.9-2.93-2.783-1.9,1.464-19.629h-1.464l-4.834,19.629q-38.526,0-39.258-.439a1.7,1.7,0,0,1-.44-0.293,8.3,8.3,0,0,1-.439-1.465V121.246q3.661-1.611,18.6-9.229,6.664-4.028,13.184-8.2l9.229-6.738,2.783,1.025-0.293-2.93-6.153-7.178-10.4,9.082q-8.2,6.152-18.9,12.89l-8.057,4.834V80.816l2.344-1.465-2.344-1.611-9.375-1.465v43.652L367.419,131.5l0.586,1.318q10.986-3.662,21.826-7.617v28.564l0.293,2.051a21.42,21.42,0,0,0,2.93,5.274,21.458,21.458,0,0,0,5.273,2.929q2.049,0.292,4.1.44h41.748ZM408.727,70.269V55.035h41.748V51.812l-9.521-7.91-7.91,7.91H408.727V37.164l2.344-1.465-2.344-1.465-9.521-1.611V51.812h-34.57V37.164l2.343-1.465-2.343-1.465-9.522-1.611V51.812H313.366v3.223h41.748V74.957l9.522-4.687V55.035h34.57V74.957Zm-52.734,94.922v-59.18l2.344-1.464-2.344-1.612-1.758-.146a153.174,153.174,0,0,0,15.381-20.215h3.076l-1.318-2.637-7.764-5.42q-4.029,7.105-8.349,14.063l-4.4,6.152-4.687,6.006-4.981,5.713-5.273,5.566q-5.568,5.274-11.28,10.4l-12.451,9.814,0.733,1.318,7.324-3.662,6.885-4.1,6.591-4.4q6.446-5.273,12.745-10.693v59.18Zm133.3,1.9,1.758-3.222v-6.3l-0.733-6.006-1.172-5.273a46.262,46.262,0,0,0-2.49-5.86L509.948,56.5l-1.318-.293-28.418,75.879-2.344-1.905-4.1-2.49-4.687-1.611-5.127-.879-0.293,1.318,4.248,2.344,3.662,2.49,3.076,2.783,2.491,2.93,1.9,3.369,1.465,3.662,1.025,4.1,0.44,4.394q0,5.274-.293,10.547l1.025,3.369,3.223,1.612Zm69.287,0.879a32.035,32.035,0,0,0,7.031-3.076l2.783-2.783a35.6,35.6,0,0,0,2.2-3.076l1.464-3.516,1.172-4.248q0.805-4.028,1.465-8.057h23.438V140l-9.522-7.91L580.847,140H575.28q0-.585,1.026-8.2,1.024-10.767,1.9-21.534h22.265v-3.222L591.1,99.273l-7.91,7.764H578.5l1.465-27.246,4.248-2.49-8.643-7.031-4.834,3.955H534.118L526.5,68.8l-5.567,38.233H503.649v3.222H520.5l-3.955,26.954-5.42,4.394,7.91,7.91,6.3-6.3h39.844a61.334,61.334,0,0,1-2.051,9.229,22.113,22.113,0,0,1-1.465,2.783,8.633,8.633,0,0,1-2.49,2.49,15.13,15.13,0,0,1-3.369,1.026H538.952v2.344l15.82,2.343v4.834ZM525.622,140l4.394-29.737h38.672l-0.879,11.866-0.878,8.642L565.612,140h-39.99Zm31.494-6.592L558,129.888l-0.879-2.2q-1.173-1.9-2.49-3.809l-3.516-3.222a47.7,47.7,0,0,0-9.668-5.274l-2.929-1.464-0.586,1.171L540.27,117q2.709,2.929,5.274,6.006l2.2,3.369,0.586,1.465,0.293,1.464,0.146,1.172-0.146.879,1.9,3.076,3.516,0.879Zm-26.66-26.367L534.85,77.3h35.889q-1.319,24.024-1.758,29.737H530.456Zm29.883-6.885,0.586-3.662a36.788,36.788,0,0,0-3.516-5.127l-3.369-2.93-4.1-2.783q-3.735-1.83-7.324-3.809l-0.732,1.318,2.05,1.758q3.369,3.955,4.688,5.713a24.044,24.044,0,0,1,2.637,4.834l0.439,1.318,0.147,1.172L551.7,98.98l2.2,2.783,3.516,0.586ZM486.8,92.974l2.05-2.93-0.732-3.516-1.758-2.051q-1.9-1.758-3.955-3.369-2.344-1.464-4.834-2.783l-5.42-2.051Q469.078,75.4,466,74.81l-3.223-.732L462.194,75.4l2.93,1.465,4.98,3.369a71.553,71.553,0,0,1,5.713,4.834l1.465,1.611,2.2,3.223,0.733,1.758,2.929,1.9Zm25.488-10.693,9.961-11.133q5.346-6.664,10.4-13.477H594.03V54.6l-9.375-7.91-7.91,7.91H534.85l6.3-9.228,3.662-6.445,3.077-.293-1.465-2.49-8.2-4.834q-2.2,4.981-4.541,9.961l-5.42,9.961-6.446,10.986-16.259,24.9,1.025,0.879Zm-12.744-27.1,2.05-2.93-0.585-3.516-1.612-1.9-3.955-3.223-4.541-2.637q-2.637-1.171-5.273-2.2-3.076-.879-6.153-1.611l-3.222-.879L475.671,37.6l2.929,1.611q7.032,5.128,8.936,6.738l2.93,3.223,1.025,1.611q0.879,1.466,1.611,2.93l2.93,2.051ZM749.011,161.6l-9.375-7.91-7.911,7.91h-3.076V127.911l3.809-3.223-8.643-7.031-4.687,3.955H643.542l-9.522-4.834V161.6H613.659v3.076H749.011V161.6Zm-105.469,0V124.688h18.9V161.6h-18.9Zm28.271,0V124.688h19.043V161.6H671.813Zm28.418,0V124.688h18.9V161.6h-18.9ZM620.4,117.95l3.809-3.662,3.369-4.541,2.93-4.834L633,99.639l2.2-5.859,1.612-6.152,1.318-6.592L639,74.151h28.418v6.3l-0.293,5.713q-0.879,4.981-1.319,6.885l-1.318,3.076a18.961,18.961,0,0,1-2.2,2.71q-0.734.659-1.465,1.245l-1.611.879q-1.467.293-2.93,0.732H640.905v2.344l14.209,2.344v4.834a32.47,32.47,0,0,0,3.772-.513,23.942,23.942,0,0,0,3.662-1.026,25.365,25.365,0,0,0,3.406-1.538l2.93-2.343q1.319-1.466,2.49-2.93a39.047,39.047,0,0,0,2.49-4.395q0.879-2.563,1.611-5.127,0.587-3.076,1.026-6.152,0.439-5.054.439-10.693l3.809-2.344-8.643-7.031-4.687,3.809H639.147q0.292-4.395.293-16.406h47.168l1.172,5.713L691.3,71.807l4.541,10.547,5.42,9.375,2.05,2.49q-3.514,2.93-10.253,7.911-7.69,4.906-15.528,9.521l-8.642,4.688,0.439,1.318,9.375-3.223,8.789-3.808,8.2-4.1,7.471-4.541,3.955-2.783q0.585,0.733,7.91,7.764l8.35,5.859,9.375,4.541,9.961,3.369,3.662-.586,2.2-2.783-0.586-3.662a29.211,29.211,0,0,0-3.955-2.49L745.5,91.729h-1.611l-4.1,18.164-3.516-1.318-8.056-3.809-7.178-4.98-6.3-6.3q1.9-1.61,7.764-7.324l5.273-6.006,4.541-6.3,2.491-4.1,2.929-.147-1.318-2.49-8.057-5.127-3.662,7.178-3.808,6.006-4.248,5.713q-5.128,5.713-6.446,7.031-1.026-1.464-6.006-9.814l-3.955-9.522-3.222-10.547-0.733-3.516h47.608V51.446l-9.375-7.91-7.911,7.91H695.69l-1.172-5.273-1.171-10.107,2.05-1.611-2.49-1.465-9.521-.879q0.145,1.758,1.757,15.527l0.879,3.809H639.44l-9.521-4.834q0,19.923.146,26.807l-0.293,6.592-0.586,6.152-1.025,5.713q-1.392,5.347-3.076,10.547l-1.9,4.834-2.344,4.394q-2.711,4.323-5.713,8.5L616,121.173Zm104.3-71.338,1.9-3.223L725.72,40.02l-3.37-2.783q-1.757-1.171-3.662-2.2a55.958,55.958,0,0,0-6.152-2.2,35.144,35.144,0,0,0-4.395-.879l-2.2-.439-0.439,1.318,1.9,1.025,3.369,2.49q2.783,2.637,3.955,3.955l1.026,1.318a37.016,37.016,0,0,1,2.343,4.1l3.223,1.758Zm89.942,46q0.145-1.61.146-47.314h37.793V92.608H814.636Zm47.461,70.9V95.684h36.914V92.608l-9.375-7.91-7.911,7.91H862.1V45.294h30.615V42.217l-9.375-7.91-7.91,7.91H769.958v3.076h35.449q0,45.7-.146,47.314h-41.6v3.076h41.6l-0.147,6.446-1.172,10.253-1.758,9.522-2.783,8.643-3.662,7.763-4.541,7.031-5.273,6.3-6.3,5.567-7.324,5.127-8.2,4.394,0.586,1.319,8.936-3.077,8.35-4.1,7.47-5.42,6.446-6.445,5.566-7.325,4.541-8.349,3.662-9.229L812.292,114l1.758-11.133,0.439-7.178h38.086v72.51Zm231.883,6.225a17.4,17.4,0,0,0,5.27-2.93,37.071,37.071,0,0,0,2.2-3.369c0.39-1.318.73-2.636,1.03-3.955V112.75h21.09v-3.223l-9.52-7.91-7.91,7.91h-3.66V94.439l2.34-1.465-2.34-1.611L1093.1,89.9v19.629h-58.74v3.223h58.74v45.7l-0.29,1.318-0.29.147q0,0.44-2.64.879h-15.67v2.343l15.67,2.344v4.688c1.37-.1,2.73-0.245,4.1-0.44h0Zm-24.61-21.24,2.05-2.93-0.58-3.515-2.05-2.784-2.35-2.636-5.12-4.688q-3.3-2.416-5.72-3.882a68.5,68.5,0,0,0-9.52-4.467l-3.51-1.026-0.59,1.318q2.925,2.052,8.06,6.3l6.44,6.885a75.168,75.168,0,0,1,6.3,9.815l2.93,2.2Zm-64.45-77.783q4.4-4.1,12.89-12.6l8.06-9.375,5.56-7.471h2.93l-1.17-2.637-7.62-5.566q-0.435.587-3.51,5.713l-6.45,9.961-7.03,9.229-7.32,8.936L989.391,79.791l0.879,1.172a171.245,171.245,0,0,0,14.65-10.254h0Zm16.11,94.775V101.47l2.35-1.318-2.35-1.611-5.56-1.025q1.305-1.171,6.29-6.3,4.7-5.419,9.23-10.986l6.45-9.082h3.07l-1.31-2.637-7.62-5.566-3.81,6.592-7.62,11.426-8.35,10.986-9.08,10.4q-9.958,10.255-15.086,15.235l0.879,1.172q6.152-3.956,12.157-8.057l10.99-9.375v68.848ZM1125.04,83.6l-9.38-7.91-7.91,7.91h-25.34V59.136h34.72V56.06l-9.53-7.91-7.91,7.91h-17.28V36.871l2.34-1.318-2.34-1.611-9.38-1.611V56.06h-34.57v3.076h34.57V83.6h-39.55v3.076h91.56V83.6Zm136.3,85.694,1.76-.586,1.76-1.026,1.61-1.318,1.32-1.611,1.02-1.758c0.39-1.319.73-2.637,1.03-3.955V37.31l2.34-1.465-2.34-1.611-9.38-1.465q0,124.365-.15,125.244v0.733a1.712,1.712,0,0,1-.44.732,0.4,0.4,0,0,1-.14.293,9.359,9.359,0,0,1-2.49.586h-15.68V162.7l15.68,2.344v4.687c1.36-.1,2.73-0.245,4.1-0.439h0Zm-114.4-7.618,24.6-6.005q15.825-4.248,31.65-8.789l17.43-5.713-0.44-1.319-9.08,1.319-25.93,4.687V117.73h32.52v-3.076l-9.52-7.91-7.91,7.91h-15.09V94.732l2.34-1.318-2.34-1.611-9.52-1.611v24.463h-32.52v3.076h32.52v29.736l-35.16,5.86,3.37,9.082,1.9,1.9Zm90.96-29V56.207l2.35-1.465-2.35-1.611-9.52-1.465v85.84Zm-89.21-37.793q7.185-1.464,24.32-5.42,23.505-5.785,30.03-7.91l2.05,3.809c0.68,1.71,1.32,3.418,1.9,5.127l2.49,2.49,3.52,0.147,2.64-2.49V86.968q-1.62-2.928-3.37-5.713l-4.4-5.566-5.42-5.273-6.3-4.981-7.47-4.394-0.88,1.025q2.94,3.224,10.4,12.3l3.67,5.127q-11.865,1.027-23.73,2.637l-26.96,3.223,3.81-2.344q4.245-3.588,8.35-7.324l8.06-8.789,8.49-10.254,2.93,0.293-0.87-2.783L1174.62,48q-0.735,1.318-12.89,18.6-6.885,8.789-10.11,12.451-2.925,2.856-6,5.566l-2.64,1.758h-0.44l2.93,9.082,1.9,2.2Zm70.9-50.391-9.52-7.91-7.91,7.91h-60.94v3.223h78.37V44.488Zm111.48,113.159V137.725h49.22v19.922h-49.22Zm0-46.289-5.42-2.637,4.98-4.687q7.9-9.668,8.93-11.133h35.6l2.49,4.541,3.22,4.834,4.1,5.273-4.68,3.809h-49.22Zm0,23.145V114.581h49.22V134.5h-49.22Zm0,31.787v-5.42h49.22v7.763l9.52-4.687V117.657l2.93-2.344q4.17,3.516,8.49,6.885,4.83,3.076,9.82,6.006l5.27,2.636,9.08-7.47q-7.47-3-14.94-6.153-4.62-2.416-9.08-5.127l-8.79-5.859q-4.245-3.516-15.09-13.33h45.56V89.825l-9.52-7.91-7.77,7.91h-64.16l3.67-5.859,5.56-11.133h57.28V69.757l-9.52-7.91-7.77,7.91h-38.82l3.37-9.229,1.91-7.764h56.25V49.688l-9.38-7.91-7.91,7.91h-38.08q0.435-2.05,2.05-12.744l2.63-1.318-2.19-1.758-9.23-2.49a173.155,173.155,0,0,1-2.35,18.31h-50.39v3.076h49.66l-1.17,5.42-3.52,11.572h-39.55v3.076h38.09l-3.37,7.617-5.27,9.375h-44.39V92.9h42.19l-5.27,7.178-8.06,8.642-9.08,8.2-10.26,7.618-11.42,7.031,0.58,1.318,12.31-5.713,11.28-6.884,10.25-7.618v58.448Zm164.72-46.949V94.146h20.51v25.195h-20.51Zm-1.61-50.39V52.4h23.73V68.951h-23.73Zm0,8.643V72.027h23.73v7.91l9.37-4.687V52.4h46.44V49.175l-9.38-7.91-7.91,7.91h-29.15V37.164l2.35-1.318-2.35-1.611-9.37-1.611V49.175h-23.73V37.164l2.34-1.318-2.34-1.611-9.38-1.611V49.175h-46.43V52.4h46.43V82.281Zm0,88.916,1.9-3.076-0.15-2.783-1.17-5.273-1.02-2.491a46.147,46.147,0,0,0-4.54-6.738q-2.055-1.9-6.6-5.713l-1.02,1.026,1.76,2.343c1.46,3.126,2.49,5.42,3.07,6.885a55.449,55.449,0,0,1,1.03,6.152,37.018,37.018,0,0,1-.88,5.567l1.02,3.369,3.23,1.758Zm37.35-.732,1.03-3.369a43.088,43.088,0,0,0-3.23-7.91q-2.7-3.516-5.71-6.739-2.49-2.049-5.13-3.955l-5.86-3.515-0.88,1.172,2.35,2.343q2.775,3.59,5.42,7.325a43.916,43.916,0,0,1,3.37,8.5c0.09,1.269.14,2.538,0.14,3.808l1.76,3.076,3.52,1.026Zm-79.83,2.2,2.49-2.2,2.34-2.49,1.76-2.783,1.46-2.93,1.17-3.223,0.74-3.369q0.285-3.588.29-7.178l-0.15-3.955h-1.46l-0.73,3.662-2.35,6.153-1.32,2.636a42.836,42.836,0,0,1-4.98,5.713l-1.9,1.319c-1.37.683-2.78,1.318-4.25,1.9l-2.49,2.637,0.15,3.662,2.63,2.344h3.67Zm118.36-1.611,0.29-3.516-1.32-2.783-1.61-2.637c-1.37-1.66-2.78-3.32-4.25-4.98q-2.565-2.416-5.27-4.688-3.075-2.2-6.3-4.248l-7.47-3.955-0.88,1.172,3.22,2.93,5.27,5.566q4.26,5.129,6.01,7.617l1.32,2.344,1.9,4.541,0.44,2.051,2.35,2.783,3.66,0.293ZM1475.28,133.4V71.148l2.34-1.465-2.34-1.611-9.37-1.611V87.847h-26.08v3.076h26.08v24.17l-29.3,8.643,4.83,8.35,2.35,1.611,0.73-3.223q9.81-5.053,21.39-12.011v19.775Zm99.02-4.248,1.76-2.783-1.76-2.783-2.93-1.905,1.62-19.775h-1.62l-4.68,19.775H1549.4l-2.49-.439a5.709,5.709,0,0,1-.73-1.758V93.853a125.752,125.752,0,0,0,23.73-6.152l2.93,1.318-0.15-2.637-5.56-5.273-0.88-2.051q-4.11,2.637-20.07,11.719V71.148l2.34-1.465-2.34-1.611-9.38-1.611v54.052l0.3,1.905a21.364,21.364,0,0,0,2.93,5.273l1.61,1.318,1.76,1.026a24.528,24.528,0,0,0,6,1.025h21.97Zm-78.51-1.172v-5.566h20.51v7.91l9.37-4.688V97.222l3.96-3.076-8.65-7.178-4.68,3.955h-20.51l-9.38-4.687v46.436Zm220.46,30.908V58.111l3.95-3.223-8.64-7.031-4.83,3.955h-60.65v3.076h60.65v45.7h-56.55v3.077h56.55v47.314h-59.77v3.223h59.77v9.375Zm-109.13-41.015v-62.4l2.34-1.318-2.34-1.611-9.53-1.611v71.631Zm-6.3,45.117,7.03-4.1,6.3-4.541,5.42-5.273,4.83-5.713,3.96-6.3,3.07-6.592,2.35-7.324,1.46-7.471,0.73-8.056V40.533l2.35-1.318-2.35-1.611-9.52-1.611q0,71.631-.14,78.662l-0.74,6.738-1.61,6.3-2.2,6.152-2.93,5.86-3.8,5.566-4.54,5.274-5.28,5.127-5.86,4.834-6.88,4.687,0.58,1.318Zm210.42,2.856v-60.2l2.93,5.127,4.4,6.592,4.83,6.3,4.98,5.859,5.57,5.713,5.71,5.42,6.01,5.127,6.29,4.834,6.6,4.541,6.88,4.248,8.79-7.031-16.99-9.522-6.45-4.1-12.01-8.936-5.71-4.834-5.57-5.127q-5.415-5.419-14.79-15.381h60.79v-3.222l-9.52-7.764-7.77,7.764h-44.97V59.5h52.74V56.426l-9.38-7.91-7.91,7.91h-35.45V36.5l2.35-1.318-2.35-1.611-9.37-1.611V56.426h-52.74V59.5h52.74v41.748h-62.26v3.222h56.54q-3.945,6.447-11.57,16.7l-5.42,6.3-5.86,6.153-6.15,6.006q-6.735,5.64-13.62,11.132l-15.09,10.547,0.73,1.172,8.5-3.808,8.2-4.4,7.76-4.834,7.33-5.273,6.88-5.567,6.6-6.006,6.15-6.3,5.71-6.738,5.57-7.178v58.155Zm-24.9-73.535,0.15-3.662q-1.62-2.929-5.28-8.643-4.395-5.126-6.74-7.471L1768.91,68l-6.15-3.809-0.88,1.172L1764.22,68l6.01,8.057,3.07,5.273,2.49,5.42,1.91,5.273,2.49,2.637,3.51,0.147Zm43.95-.147,5.85-5.713q7.845-8.935,11.72-14.209l3.08-.146-1.32-2.49-7.76-5.42c-0.3.489-1.37,2.637-3.23,6.445l-3.22,5.859-12.89,20.361,1.03,1.025Z"/>
</svg>
