<svg xmlns="http://www.w3.org/2000/svg" width="1000" height="200" viewBox="0 0 1000 200">
  <defs>
    <style>
      .cls-1 {
        fill: #fff;
        fill-rule: evenodd;
      }
    </style>
  </defs>
  <path id="_新建文件夹_" data-name="《新建文件夹》" class="cls-1" d="M70.168,169.674l-34.333-71,34.333-71q1.164-4.332-2.667-4.333H67.335a2.375,2.375,0,0,0-2,1.333L30,97.674a2.125,2.125,0,0,0,0,2l35.333,73a2.375,2.375,0,0,0,2,1.333H67.5q3.832,0,2.667-4.333h0Zm-18,0-34.333-71,34.333-71q1.164-4.332-2.667-4.333H49.335a2.375,2.375,0,0,0-2,1.333L12,97.674a2.125,2.125,0,0,0,0,2l35.333,73a2.375,2.375,0,0,0,2,1.333H49.5q3.832,0,2.667-4.333h0ZM163,143.174q0-10.5-16-20.833a1.206,1.206,0,0,0-2.166.5,1.948,1.948,0,0,0,.166,2.5,44.855,44.855,0,0,1,9.334,18.833q1.164,4.836,4.166,4.833,4.5,0,4.5-5.833h0Zm-2.666,29.5a2.533,2.533,0,0,0,1.5-.667,81.989,81.989,0,0,0,11-18.333,113.248,113.248,0,0,0,6.5-20.083,149.862,149.862,0,0,0,3.166-21.167q0.833-10.751.834-21.417V88.341h18.833v80.333q0,3.332,3.333,3.333H207q3.332,0,3.333-3.333V88.341h17.333a2.485,2.485,0,0,0,2.5-1.833l0.167-.167a3.608,3.608,0,0,0-.333-3,37.982,37.982,0,0,0-2.334-3.417q-1.337-1.75-2.833-3.417a3.618,3.618,0,0,0-2.5-1.5q-1.337,0-2.667,2l-4.5,7.167H183.335V48.507A171.318,171.318,0,0,0,215.5,38.341a16.713,16.713,0,0,0,4.166.667q2.5,0,2.5-1.667,0-2.5-7.333-8.333a3.233,3.233,0,0,0-4.333,0,82.677,82.677,0,0,1-26.167,14.833q-0.5-.332-1.417-0.833t-1.917-1a15.452,15.452,0,0,0-2-.833,5.51,5.51,0,0,0-1.666-.333q-2.168,0-2.167,3.5v42.5q0,10.836-.583,21.416a187.037,187.037,0,0,1-2.334,20.917,142.664,142.664,0,0,1-5,20.333,107.881,107.881,0,0,1-8.583,19.5,2.37,2.37,0,0,0,.5,3.167,1.6,1.6,0,0,0,1.167.5h0Zm-56.167-9.833a1.812,1.812,0,0,0,1.333-.834,131.684,131.684,0,0,0,11.417-15.666,91.484,91.484,0,0,0,7.25-14.334q4.665-.663,4.667-2.833a3,3,0,0,0-1.167-2.083,24.033,24.033,0,0,0-2.75-2.167,18.169,18.169,0,0,0-3.167-1.75,7.087,7.087,0,0,0-2.583-.667q-2,0-2.667,3a105.458,105.458,0,0,1-5.416,17.084,103.5,103.5,0,0,1-8.417,16.083,2.525,2.525,0,0,0,.167,3.333,2.286,2.286,0,0,0,1.333.834h0Zm40-121.834q0-8-14.667-15.833a5.145,5.145,0,0,0-.583-0.25,1.408,1.408,0,0,0-.417-0.083,1.856,1.856,0,0,0-1.5,1.167,2.032,2.032,0,0,0,.334,2.667q6.332,6.168,7.666,12.667,1.165,5.336,4.5,5.333,4.665,0,4.667-5.667h0Zm-13.5,34.167q0-10.664-13.5-20.667A2.7,2.7,0,0,0,116,54.174a1.833,1.833,0,0,0-1.166.667,2.609,2.609,0,0,0,0,2.833q6.5,9.168,7,17.667,0.332,6.168,3.833,6.167,5,0,5-6.333h0Zm37.167-25.333a2.911,2.911,0,0,0,0-3q-1-1.5-2-3t-2-2.833q-1.337-1.832-2.667-1.833T158.5,41.341l-3.333,6H108.835q-2.335,0-1.334,2v0.167a2.83,2.83,0,0,0,3,2h54.667a2.788,2.788,0,0,0,2.667-1.667h0Zm2.833,35.833V85.507a3.168,3.168,0,0,0-.167-3q-0.836-1.332-1.666-2.583T167,77.341q-1.335-2-2.666-2t-2.667,2.333l-3.333,5.5H144.668q3.664-6,6.25-10.833t4.25-8.833q5.664-.332,5.667-2.333a3.416,3.416,0,0,0-1.25-2.083,14.146,14.146,0,0,0-3-2.25q-1.751-1-3.417-1.75a6.917,6.917,0,0,0-2.5-.75q-2,0-2.667,2.833-1.335,6.668-3.25,13.167T140.5,83.174H105.335q-2.167,0-1.334,2a2.743,2.743,0,0,0,2.834,2.167H168a2.788,2.788,0,0,0,2.667-1.667h0ZM129,171.091a2.534,2.534,0,0,0,2,.75h0.667a11.2,11.2,0,0,0,4.583-1.417,9.368,9.368,0,0,0,2.834-2.667,9,9,0,0,0,1.416-3.75,33.227,33.227,0,0,0,.334-5V113.341h24.833a2.7,2.7,0,0,0,2.5-1.5,2.645,2.645,0,0,0-.333-2.834Q167,107.675,166,106.257t-2.166-2.916a3.2,3.2,0,0,0-2.5-1.667q-1.5,0-2.667,2l-3.5,5.5H140.835V98.007q5.164-2.164,5.166-4a1.954,1.954,0,0,0-1.333-1.667,14.465,14.465,0,0,0-3.083-1.083,26.325,26.325,0,0,0-3.417-.583c-1.112-.109-1.89-0.167-2.333-0.167q-3,0-3,3.333v15.333H107.168q-2.168,0-1.5,2a3.013,3.013,0,0,0,3,2.167h24.167v41.166q0,4.5-4.334,4.5-2.5,0-5.166-.25t-5.834-.583q-2.168-.332-2.166,1.833a2.65,2.65,0,0,0,2.166,2.667q8.165,2,10.167,6.333A9.625,9.625,0,0,0,129,171.091ZM353.168,62.174V45.841H372.5V62.174H353.168Zm0,21.833V66.341H372.5V84.007H353.168Zm0,65.834v-18h39.167A2.788,2.788,0,0,0,395,130.174a3.532,3.532,0,0,0-.166-3.167,83.11,83.11,0,0,0-5.334-6.833l-1.166-1.5a1.932,1.932,0,0,0-1.334-.667,1.765,1.765,0,0,0-1.166.834l-6,8.833H353.168V110.007H387a2.363,2.363,0,0,0,2.334-1.666,2.587,2.587,0,0,0-.334-2.834q-1.167-1.5-2.416-2.916T384,99.841a3,3,0,0,0-4.833.5l-4.167,5.5H353.168V88.174H372.5v3.833q0,3.336,3.334,3.333h1.333q3.333,0,3.333-3.333V66.341h12.834a2.486,2.486,0,0,0,2.5-1.833V64.174a3.16,3.16,0,0,0-.167-2.667,18,18,0,0,0-.833-1.833q-0.667-1.332-1.417-2.583a11.243,11.243,0,0,0-1.667-2.167,2.591,2.591,0,0,0-1.75-.917q-1.5,0-2.833,2.667l-2.667,5.5h-4V48.507l3.5-2.667a2.27,2.27,0,0,0,1-1.667q0-2-6-7.667a3.371,3.371,0,0,0-2.333-1.167,3.19,3.19,0,0,0-2.5,1.667l-3,4.667h-18V32.841Q359,30.509,359,28.507a2.3,2.3,0,0,0-1.416-2.083,15.89,15.89,0,0,0-3.25-1.25,16.924,16.924,0,0,0-3.667-.583q-1.836-.082-2.833-0.083-3,0-3,3.167v14H320.668q-2.168,0-1.5,2a3.013,3.013,0,0,0,3,2.167h22.667V62.174H308.668q-2.336,0-1.5,2a3.013,3.013,0,0,0,3,2.167h34.667V84.007H319.668q-2.168,0-1.333,2a3.013,3.013,0,0,0,3,2.167h23.5v17.667H316.168q-2.168,0-1.333,2a3.012,3.012,0,0,0,3,2.166h27v17.667H310q-2.168,0-1.333,2l0.167,0.167a3,3,0,0,0,3,2h33v18q0,3.336,3.333,3.333h1.667q3.332,0,3.333-3.333h0Zm-82.333,25.166a2.216,2.216,0,0,0,1.333-.5,78.82,78.82,0,0,0,23.167-28.333Q316.667,169.843,368,169.841h23.334a3.27,3.27,0,0,0,3.333-2.5c0.222-.558.417-1.084,0.583-1.584s0.36-1.028.584-1.583q1.164-2.5.5-3.667t-3.667-.833q-7.335.5-13.583,0.75t-11.75.25q-49.5,0-69-21.167,8-18.663,10.666-45.5l3.834-2.5A2.677,2.677,0,0,0,314,89.674q0-2-5.5-7.833a3.737,3.737,0,0,0-2.5-1.333,3.614,3.614,0,0,0-2.666,1.667l-3,4.667h-12q4.832-9.332,9.083-19.417T305.5,46.341l4.167-2.333A2.293,2.293,0,0,0,311,42.174q0-1.832-5.666-8.333a3.341,3.341,0,0,0-2.5-1.333,3.614,3.614,0,0,0-2.667,1.667l-2.667,4H272q-2.168,0-1.5,2a2.6,2.6,0,0,0,2.834,2.167h24.333q-3.168,10-7.25,20.25t-9.25,20.917L277,86.007a2.31,2.31,0,0,0-1.166,1.833,4.867,4.867,0,0,0,.833,2.25,21.853,21.853,0,0,0,2,2.833,20.45,20.45,0,0,0,2.417,2.5,3.626,3.626,0,0,0,2.25,1.083,3.191,3.191,0,0,0,2.5-1.667l2.666-3.833H301q-2.5,25.336-8.333,41.334-6-9-11.167-24.667a1.662,1.662,0,0,0-1.5-1.333,3.21,3.21,0,0,0-1,.166,2.44,2.44,0,0,0-1.333,3q4.332,17.668,12.167,29.5A101.386,101.386,0,0,1,269.5,170.841a2.124,2.124,0,0,0-.166,3.166,1.848,1.848,0,0,0,1.5,1h0ZM510.5,48.507q0-10.164-18.666-23a2.858,2.858,0,0,0-1.334-.5,2.313,2.313,0,0,0-1.833,1.167q-1.337,1.668.333,3.5,9.333,10.336,10.834,20.167,0.833,7.168,5.666,7.167,5,0,5-8.5h0ZM441.168,173.174a2.347,2.347,0,0,0,1-.167,128.961,128.961,0,0,0,61-40.333q18.5,21.5,49.833,36.667a4.148,4.148,0,0,0,1.834.5,3.006,3.006,0,0,0,2.666-2,29.918,29.918,0,0,1,2.334-3.334q1.332-2.167,1-3.5t-2.667-2.166q-30.836-12.333-50.333-33.167,16.5-23.664,26-62.333h24.333a2.789,2.789,0,0,0,2.667-1.667,2.7,2.7,0,0,0-.167-3q-1.668-2.332-3.417-4.5t-3.583-4.333a3.618,3.618,0,0,0-2.5-1.5q-1.5,0-2.667,2l-5.833,8.833h-99.5q-2.168,0-1.333,2a2.843,2.843,0,0,0,3,2.167h22.833q11.832,38.168,29.833,62-24.5,30.668-57.333,43.666-2,.833-1,2.834a2.133,2.133,0,0,0,2,1.333h0ZM473,63.341h51q-6.836,32-21.833,55.666Q484.5,96.176,473,63.341h0ZM688.168,170.674v-51.5H726.5a3.278,3.278,0,0,0,2.5-5,61.921,61.921,0,0,0-5.833-8,3.565,3.565,0,0,0-2.5-1.667q-1.337,0-2.667,2l-5.333,8.5h-24.5V72.341h33.5a2.672,2.672,0,0,0,2.5-1.667,2.96,2.96,0,0,0-.333-3A84.929,84.929,0,0,0,718,59.841a3.7,3.7,0,0,0-2.666-1.5q-1.168,0-2.5,2L708,68.174H688.168V35.507q6.332-2.5,6.333-4.833a2.466,2.466,0,0,0-1.5-2.167,14.382,14.382,0,0,0-3.5-1.333,25.121,25.121,0,0,0-4-.667c-1.333-.109-2.278-0.167-2.833-0.167q-3,0-3,3.167V68.174H660.335a88.838,88.838,0,0,0,2.25-9q1.082-5.332,2.416-12.333,5.832-1.832,5.834-4,0-3-10.167-5.833h-1.333q-2.337,0-2.667,3a316.751,316.751,0,0,1-5.917,35.25,189.173,189.173,0,0,1-9.416,29.917,2,2,0,0,0,.833,2.667,1.6,1.6,0,0,0,1.167.5,1.5,1.5,0,0,0,1.333-1,164.24,164.24,0,0,0,14.667-35h20.333v42.666H639.335q-2.169,0-1.334,2a2.6,2.6,0,0,0,2.834,2.167h38.833v51.5q0,3.332,3.333,3.333h1.834q3.332,0,3.333-3.333h0Zm-58.333,0V81.841q5.664-2.164,5.666-4.167,0-2.664-7-4.333,3.833-9,6.917-18.333t5.75-19.333q6.832-1,6.833-3.5,0-3.5-10.333-6.667a4.123,4.123,0,0,0-1.5-.333q-2,0-2.667,2.667Q622.166,78.677,601,115.507a2.15,2.15,0,0,0,.5,3,1.911,1.911,0,0,0,1.334.667,1.437,1.437,0,0,0,1.166-1,219.824,219.824,0,0,0,17.5-29.333v81.833q0,3.332,3.334,3.333H626.5q3.333,0,3.334-3.333h0ZM852.168,98.841a1.854,1.854,0,0,0,1.5-1q4.665-6.5,8.417-12.833a125.294,125.294,0,0,0,6.583-12.667q6.333-.5,6.333-2.667,0-2.832-9.333-7.333a5.251,5.251,0,0,0-2-.5q-1.836,0-2.667,2.667-2.167,8.336-4.916,16.167t-5.917,15A2,2,0,0,0,851,98.341a2.055,2.055,0,0,0,1.167.5h0Zm-41-9.667a19.121,19.121,0,0,0-1.667-7.667,37.553,37.553,0,0,0-4.25-7.333,45.323,45.323,0,0,0-5.75-6.417,67.93,67.93,0,0,0-6.166-5.083,1.6,1.6,0,0,0-1.167-.5,1.805,1.805,0,0,0-1.333.833,2.218,2.218,0,0,0,0,3,59.9,59.9,0,0,1,10.5,24q1.164,5.836,5,5.833,4.832,0,4.833-6.667h0ZM775,173.007a3.763,3.763,0,0,0,1.167-.166q46.5-18,57-62.667,13.332,39.835,52.667,59.167a4.144,4.144,0,0,0,1.833.5,3.007,3.007,0,0,0,2.667-2c0.333-.558.666-1.084,1-1.584s0.666-.974,1-1.416q1.663-2.337,1.416-3.75t-2.916-2.417a101.053,101.053,0,0,1-32-20A93.508,93.508,0,0,1,837,108.007h57.5a2.787,2.787,0,0,0,2.667-1.666,2.7,2.7,0,0,0-.167-3q-1.667-2.164-3.333-4.417t-3.333-4.25a4.037,4.037,0,0,0-2.667-1.667q-1.335,0-2.667,2l-5.833,8.834H834.5q0.833-5.164,1.334-10.834t0.5-12V55.841h49.833a2.788,2.788,0,0,0,2.667-1.667,2.848,2.848,0,0,0-.167-3.333q-1.335-2-2.917-4t-3.25-4a3.614,3.614,0,0,0-2.5-1.5q-1.335,0-2.833,2L872,51.674H836.335V34.507q6.332-2.832,6.333-5a2.47,2.47,0,0,0-1.583-2.167,13.7,13.7,0,0,0-3.584-1.25,33.991,33.991,0,0,0-3.916-.583c-1.279-.109-2.2-0.167-2.75-0.167q-3,0-3,3.167V51.674h-47.5q-2.168,0-1.334,2a2.844,2.844,0,0,0,3,2.167h45.834V82.174q0,5.5-.5,10.917a88.633,88.633,0,0,1-1.667,10.75h-52.5q-2.168,0-1.5,2a2.742,2.742,0,0,0,2.833,2.166h50.167Q814.5,149.844,774,168.507q-2,1-1,3.167a2.134,2.134,0,0,0,2,1.333h0Zm178.334-.333,35.333-73a2.127,2.127,0,0,0,0-2l-35.333-73a2.138,2.138,0,0,0-2-1.333h-0.167q-3.668,0-2.667,4.333l34.334,71-34.334,71q-1.5,4.332,1,4.333h1.834a2.138,2.138,0,0,0,2-1.333h0Zm-18,0,35.333-73a2.127,2.127,0,0,0,0-2l-35.333-73a2.138,2.138,0,0,0-2-1.333h-0.167q-3.668,0-2.667,4.333l34.334,71-34.334,71q-1.5,4.332,1,4.333h1.834a2.138,2.138,0,0,0,2-1.333h0Z"/>
</svg>
