<svg xmlns="http://www.w3.org/2000/svg" width="268" height="60" viewBox="0 0 268 60">
  <defs>
    <style>
      .cls-1 {
        fill: #fff;
        fill-rule: evenodd;
      }
    </style>
  </defs>
  <path id="_25_03_05" data-name="25/03/05" class="cls-1" d="M42.317,37A18.659,18.659,0,0,1,40.8,42.576q-0.867,1.517-3.737,1.517H24.875q1.3-6.878,8.775-12.512l1.3-.975a25.529,25.529,0,0,0,6.229-6.175A11.941,11.941,0,0,0,42.858,18.2a10.025,10.025,0,0,0-3.2-7.854,9.818,9.818,0,0,0-6.825-2.492A8.6,8.6,0,0,0,25.85,11a9.948,9.948,0,0,0-2.6,6.717q0.053,3.63,2.708,3.629,2.22,0,2.221-2.654,0-2.437-2.221-2.546a6.79,6.79,0,0,1,1.029-3.3,6.141,6.141,0,0,1,5.687-2.979A6.193,6.193,0,0,1,36.9,11.43q2.383,2.167,2.383,6.5a11.187,11.187,0,0,1-1.733,5.958,32.131,32.131,0,0,1-5.037,5.417l-0.758.7Q23.9,37.376,22.438,45.176v1.408a0.785,0.785,0,0,0,.813.813H41.883a0.707,0.707,0,0,0,.813-0.7l0.921-9.479q0.053-.92-0.542-0.921a0.811,0.811,0,0,0-.758.7h0ZM72.758,11.918l0.325-1.679a0.818,0.818,0,0,0-.867-1.029H57.1a0.8,0.8,0,0,0-.812.758L54.667,29.955a0.813,0.813,0,0,0,.7.867l0.487,0.054a0.727,0.727,0,0,0,.813-0.433q2.383-5.363,7.1-5.362A6.524,6.524,0,0,1,69.508,28.6a13.446,13.446,0,0,1,1.733,7.15q0,5.525-2.492,8.45a6.786,6.786,0,0,1-5.362,2.438,7.051,7.051,0,0,1-4.767-1.679,4.933,4.933,0,0,1-2.167-3.413,2.483,2.483,0,0,0,.487.054,1.71,1.71,0,0,0,1.354-.758,2.542,2.542,0,0,0,.7-1.788q0.053-2.708-2.329-2.708-2.817,0-2.817,3.521a8.311,8.311,0,0,0,4.225,7.313,10.525,10.525,0,0,0,5.688,1.625,9.986,9.986,0,0,0,6.446-2.221q4.55-3.737,4.55-11.375A13.977,13.977,0,0,0,72.6,27.464a9.45,9.45,0,0,0-8.233-4.5A9.039,9.039,0,0,0,57.1,26.326L58.3,12.568H72a0.739,0.739,0,0,0,.758-0.65h0ZM97.3,8.559L82.563,54.493a0.763,0.763,0,0,0,.433.975l0.433,0.217a0.817,0.817,0,0,0,1.138-.542L99.354,9.209a0.71,0.71,0,0,0-.433-0.975l-0.487-.217a0.778,0.778,0,0,0-1.138.542h0Zm28.329,6.933a38.559,38.559,0,0,1,1.788,12.892,37.47,37.47,0,0,1-1.68,12.242q-2,6.175-6.012,6.175-3.956,0-6.067-5.9a38.445,38.445,0,0,1-1.733-12.567q0-9.262,2.437-14.354,2.058-4.225,5.363-4.225,3.845,0,5.9,5.742h0Zm-12.458-4.6q-4.713,5.362-4.713,17.388,0,8.667,2.708,14.354,2.926,6.122,8.5,6.121,5.47,0,8.45-6.121,2.762-5.633,2.762-14.3,0-8.721-2.654-14.192Q125.3,7.856,119.5,7.855a8.258,8.258,0,0,0-6.337,3.033h0ZM159.858,17.5a9.582,9.582,0,0,0-2.22-6.446,9.153,9.153,0,0,0-7.475-3.142,10.115,10.115,0,0,0-6.555,2.383,7.611,7.611,0,0,0-3.141,5.958q0.052,3.467,2.545,3.467,2.275-.053,2.276-2.708,0.053-2.437-2.167-2.437a5.852,5.852,0,0,1,1.625-2.6,7.134,7.134,0,0,1,5.092-2,6.22,6.22,0,0,1,4.875,2.221,7.6,7.6,0,0,1,1.787,5.254A9.739,9.739,0,0,1,154.279,24a6.63,6.63,0,0,1-5.308,2.438h-1.463a0.749,0.749,0,0,0-.812.813v0.542a0.785,0.785,0,0,0,.812.813h1.463a7.519,7.519,0,0,1,6.175,2.654,9.161,9.161,0,0,1,2.058,6.121,9.526,9.526,0,0,1-2.221,6.5,7.7,7.7,0,0,1-11.375.488,4.943,4.943,0,0,1-1.245-2.763,3.352,3.352,0,0,0,.541.054q1.95,0,1.95-2.492,0.054-2.708-2.329-2.708-2.763,0-2.763,3.846a7.5,7.5,0,0,0,2.655,5.8,9.941,9.941,0,0,0,7.095,2.708,10.429,10.429,0,0,0,8.559-3.792,11.154,11.154,0,0,0,2.654-7.529q0-8.125-8.4-10.075V27.03q7.529-1.841,7.529-9.533h0Zm24.159-8.937L169.283,54.493a0.763,0.763,0,0,0,.434.975l0.433,0.217a0.817,0.817,0,0,0,1.138-.542L186.075,9.209a0.71,0.71,0,0,0-.433-0.975l-0.488-.217a0.778,0.778,0,0,0-1.137.542h0Zm28.329,6.933a38.587,38.587,0,0,1,1.787,12.892,37.473,37.473,0,0,1-1.679,12.242q-2,6.175-6.012,6.175-3.956,0-6.067-5.9a38.445,38.445,0,0,1-1.733-12.567q0-9.262,2.437-14.354,2.058-4.225,5.363-4.225,3.844,0,5.9,5.742h0Zm-12.459-4.6q-4.712,5.362-4.712,17.388,0,8.667,2.708,14.354,2.925,6.122,8.5,6.121,5.47,0,8.45-6.121Q217.6,37,217.6,28.33q0-8.721-2.654-14.192-2.925-6.283-8.721-6.283a8.262,8.262,0,0,0-6.338,3.033h0Zm46.421,1.029,0.325-1.679a0.818,0.818,0,0,0-.866-1.029H230.654a0.8,0.8,0,0,0-.812.758l-1.625,19.988a0.812,0.812,0,0,0,.7.867l0.487,0.054a0.728,0.728,0,0,0,.813-0.433q2.382-5.363,7.1-5.362a6.523,6.523,0,0,1,5.741,3.521,13.44,13.44,0,0,1,1.734,7.15q0,5.525-2.492,8.45a6.786,6.786,0,0,1-5.362,2.438,7.05,7.05,0,0,1-4.767-1.679A4.934,4.934,0,0,1,230,41.547a2.484,2.484,0,0,0,.488.054,1.71,1.71,0,0,0,1.354-.758,2.542,2.542,0,0,0,.7-1.788q0.054-2.708-2.329-2.708-2.817,0-2.817,3.521a8.311,8.311,0,0,0,4.225,7.313,10.524,10.524,0,0,0,5.688,1.625,9.983,9.983,0,0,0,6.445-2.221q4.551-3.737,4.55-11.375a13.975,13.975,0,0,0-2.166-7.746,9.452,9.452,0,0,0-8.234-4.5,9.039,9.039,0,0,0-7.258,3.358l1.192-13.758h13.7a0.739,0.739,0,0,0,.758-0.65h0Z"/>
</svg>
