<svg xmlns="http://www.w3.org/2000/svg" width="188" height="60" viewBox="0 0 188 60">
  <defs>
    <style>
      .cls-1 {
        fill: #fff;
        fill-rule: evenodd;
      }
    </style>
  </defs>
  <path id="个内容_" data-name="个内容 " class="cls-1" d="M60.375,50.119v-24q1.8-.8,1.8-1.45a0.74,0.74,0,0,0-.45-0.65,3.256,3.256,0,0,0-1.025-.35,9.107,9.107,0,0,0-1.15-.125q-0.575-.025-0.875-0.025a0.818,0.818,0,0,0-.9.95v25.65a0.884,0.884,0,0,0,1,1h0.6a0.884,0.884,0,0,0,1-1h0Zm-17.4-18a0.857,0.857,0,0,0,.4-0.15q11.05-6.6,16-19.65a1.158,1.158,0,0,1,.25-0.5,41.765,41.765,0,0,0,15.25,17.75,1.138,1.138,0,0,0,.65.25,1.091,1.091,0,0,0,.85-0.65,2.635,2.635,0,0,1,.25-0.4l0.3-.4a1.523,1.523,0,0,0,.4-1.025,1.138,1.138,0,0,0-.7-0.775,40.305,40.305,0,0,1-16.35-16.3q1.75-.349,1.75-1.05,0-1-3.1-1.75a0.412,0.412,0,0,0-.175-0.05H58.625a0.851,0.851,0,0,0-.85.75q-4.5,14.9-15.1,22.7a0.593,0.593,0,0,0-.15.9,0.555,0.555,0,0,0,.45.35h0Zm53.2,18.05V17.419h12q-0.75,13.8-9.95,20.9a0.638,0.638,0,0,0-.2.95,0.687,0.687,0,0,0,.55.4,0.541,0.541,0,0,0,.4-0.15q8.049-4.95,10.7-14.95a40.2,40.2,0,0,1,7.95,10.6q0.849,1.85,1.65,1.85,1.3,0,1.3-1.75,0-1.95-2.75-5.2a46.452,46.452,0,0,0-7.9-6.9q0.249-1.249.425-2.7t0.275-3.05h12.65v27q0,1.9-1.65,1.9a62.612,62.612,0,0,1-6.4-.35,0.533,0.533,0,0,0-.7.6,0.754,0.754,0,0,0,.7.85q1.7,0.25,2.8.5t1.65,0.4a2.34,2.34,0,0,1,1.4,1.2,3.149,3.149,0,0,0,.5.7,0.788,0.788,0,0,0,.8.1,3.88,3.88,0,0,0,3.45-4.2v-27.7l1.15-.8a0.832,0.832,0,0,0,.3-0.55q0-.649-1.9-2.55a1.183,1.183,0,0,0-.75-0.35,0.954,0.954,0,0,0-.75.55l-0.95,1.45h-12.25v-6.9q1.749-.85,1.75-1.4A0.69,0.69,0,0,0,112,7.244a3.976,3.976,0,0,0-.975-0.35,8.544,8.544,0,0,0-1.1-.175c-0.367-.033-0.634-0.05-0.8-0.05a0.843,0.843,0,0,0-.9,1v8.5H96.575q-0.851-.5-1.55-0.9a1.619,1.619,0,0,0-.7-0.2q-0.65,0-.65,1.1v34a0.884,0.884,0,0,0,1,1h0.5a0.884,0.884,0,0,0,1-1h0Zm66.1-38.9q0-2.6-5.05-5.3a0.619,0.619,0,0,0-.35-0.1,0.555,0.555,0,0,0-.45.3,0.668,0.668,0,0,0,.1.9,9.368,9.368,0,0,1,2.6,4.55q0.35,1.6,1.55,1.6,1.6,0,1.6-1.95h0Zm-17.45,10.4a14.27,14.27,0,0,0,1.15-6.15,3.8,3.8,0,0,0-.025-0.45,2.8,2.8,0,0,1-.025-0.35h27.65a30.888,30.888,0,0,1-2.05,4.3,0.714,0.714,0,0,0,.15.9,0.574,0.574,0,0,0,.4.2,1.784,1.784,0,0,0,.85-0.525q0.6-.525,1.25-1.2t1.225-1.3q0.574-.625.775-0.825l1.4-.3a0.623,0.623,0,0,0,.6-0.55q0-.75-2.2-3.4a1.087,1.087,0,0,0-.8-0.5,0.977,0.977,0,0,0-.8.6l-0.9,1.35h-27.65a5.6,5.6,0,0,1-.05-0.7,3.683,3.683,0,0,0-.05-0.6,0.593,0.593,0,0,0-.7-0.55,0.472,0.472,0,0,0-.5.5q-0.4,5.351-2.7,8.2a2.3,2.3,0,0,0-.65,1.5,1.44,1.44,0,0,0,1.55,1.7q1.149,0,2.1-1.85h0Zm-0.75,7.75a0.885,0.885,0,0,0,.4-0.1,27.642,27.642,0,0,0,9.7-9.25q1.8-.049,1.8-0.75,0-.949-2.55-2a1.235,1.235,0,0,0-.45-0.1,0.9,0.9,0,0,0-.8.55,32.167,32.167,0,0,1-8.45,10.5,0.539,0.539,0,0,0-.15.85,0.681,0.681,0,0,0,.5.3h0Zm30.5-3.5q0-4.249-10.7-8.6a1.122,1.122,0,0,0-.35-0.05,0.58,0.58,0,0,0-.5.35,0.525,0.525,0,0,0,.2.85,25.368,25.368,0,0,1,8.65,7.8,2.147,2.147,0,0,0,1.4,1.2q1.3,0,1.3-1.55h0Zm-4.25,24.2v-12.9q0.849-.75,1.05-0.95,0.2,0.15.6,0.4t0.925,0.575q0.525,0.326,1.1.65t1.1,0.625a9.854,9.854,0,0,0,.925.475,1.678,1.678,0,0,0,.6.175,1.006,1.006,0,0,0,.85-0.65c0.166-.267.3-0.483,0.4-0.65a1.54,1.54,0,0,0,.35-1.1,1.255,1.255,0,0,0-.85-0.7,44.192,44.192,0,0,1-16.9-12q1.9-.2,1.9-0.85a0.813,0.813,0,0,0-.375-0.6,4.627,4.627,0,0,0-.9-0.55,10.492,10.492,0,0,0-1.025-.425,2.551,2.551,0,0,0-.75-0.175,0.931,0.931,0,0,0-.85.55,43.361,43.361,0,0,1-17.8,17.7,0.554,0.554,0,0,0-.25.85,0.617,0.617,0,0,0,.55.45,0.8,0.8,0,0,0,.35-0.1q1.95-.9,3.75-1.9a33.584,33.584,0,0,0,3.45-2.2v13.3a0.884,0.884,0,0,0,1,1h0.45a0.884,0.884,0,0,0,1-1v-1.8h16.8v1.8a0.884,0.884,0,0,0,1,1h0.55a0.884,0.884,0,0,0,1-1h0Zm-18.6-14.5-0.95-.5a42.333,42.333,0,0,0,9.1-9.95,49.745,49.745,0,0,0,8.85,9.2l-1,1.25h-16Zm-0.75,11.45v-10.2h16.8v10.2h-16.8Z"/>
  <path id="_1" data-name="1" class="cls-1" d="M27.339,47.269a8.5,8.5,0,0,1-3.55-.6q-1.3-.8-1.3-3.1v-29.5a0.974,0.974,0,0,0-.475-0.95,1.064,1.064,0,0,0-1.075.1,20,20,0,0,1-7.2,2.05,0.754,0.754,0,0,0,.1,1.5h3.5q2.2,0,2.2,2.65v24.15q0,2.45-1.45,3.2a9.238,9.238,0,0,1-3.6.5,0.715,0.715,0,0,0-.8.75v0.05a0.725,0.725,0,0,0,.75.75h12.95a0.725,0.725,0,0,0,.75-0.75v-0.05a0.748,0.748,0,0,0-.8-0.75h0Z"/>
</svg>
