<svg xmlns="http://www.w3.org/2000/svg" width="420" height="240" viewBox="0 0 420 240">
  <defs>
    <style>
      .cls-1 {
        fill: #fff;
        fill-rule: evenodd;
      }
    </style>
  </defs>
  <path id="游趣" class="cls-1" d="M128.307,26.6V27q3,10.8,3,14.4-0.6,12.2-1.2,12.2a4.2,4.2,0,0,1,.6,2.2V60q0,1.8-2.4,8v1.2q5.8,1.4,5.8,2.2V72q0,0.6-5.8,2.8-6.2,18.2-9.8,26.6-1.4,4-7.4,4-10.4,4-12,4-4,0-5.8-5.2,2.2-10.6,2.2-12.6,0-3.6-2.2-4-7,3.6-7,8a26.978,26.978,0,0,0,2.4,4.6v0.6q-3.6,0-6.4,20.8-8,39.6-23.6,64.4-10.4,12.8-10.4,15v1.2a1.061,1.061,0,0,0,1.2,1.2h2.2q2.2,0,4.6-2.4,26.6-37.6,27.8-54.2,4.6-12.4,4.6-20,0-10.4,9.2-10.4,4.8,0,6.8,8v2.4a0.53,0.53,0,0,1-.6.6q-2,0-5,29.8-5.8,28.2-9.8,28.2-1.2,0-8.2-5.6h-1.6q-1.8.8-1.8,1.6V182q0,3,5.2,8.6,4.4,13.4,8,13.4,3-.4,3-1.8a39.767,39.767,0,0,0,9.8-18.4q2.8-27.6,5-35.8v-5.8a46.42,46.42,0,0,1,3-16q8-21.2,14.4-23.6a17.114,17.114,0,0,0,6.4,1.6h2.8q1.6,0,8.6-2.2h1.8a8.284,8.284,0,0,1,5.8,2.2q0,6.2-6.4,9.8-0.6,0-8-1.6-1,0-1.8,2.2,5.8,14.4,5.8,17.8,0,1.6-3,3.6-23,3.4-23,6.2v2.4q0,2.2,7,2.8,2.2,0,15-2.2,5.6,0,5.6,8.6,0,7.2-.4,13.2,0.4,4,.4,6.4c0,1.469-.135,2.2-0.4,2.2q-0.6,16.2-4.2,16.2a20.184,20.184,0,0,1-2.2-.6q-12-7.4-13.2-7.4-3,0-3.6,2.2,0,3.4,5.8,6.4,10.6,14.8,15.6,17.8,4.4,0,5.2-2.2,4.6,0,7.4-34.6-0.6-20.2-.6-26,0-6.8,18.6-6.8h1.6q3.4,0,9.2.6,7-1.8,7-6.4,0-4.8-6.4-7.4h-1.8q-8.8,6.8-24,6.8l-3-1.2q-4-5.6-6.4-7.4,0.8-5.8,15-20.2,9.8-6.6,9.8-9.8-2.4-8-7.4-8h-0.6q-2.6,0-7.4,4.6-4.4,4-24.2,4h-0.6l-1.2.6q0-.4-3.4-1.8l2.8-5.2q2.6-13.2,8-13.2h2.4q31-2.8,31-5.2,14,0,14-5.2,0-4.8-7.6-6.8-6.4,0-11.6,8a19.891,19.891,0,0,1-2.8-2.2h-1.8q-3,0-18.4,4.6-6.2-1.6-6.2-5.2a21.719,21.719,0,0,1,1.6-7.6q0-.6,7-19.6,0-4.2-14.4-12.6-3,.4-3,1.8h0ZM84.107,30v1.2q0,1.4,5.6,12,1.4,9.6,3,11.6-2.4,5.6-3.4,15.4,0,4.6-4.6,5.8-7-1.2-8.2-1.2-6.4,0-8.6,4.8,0,2.4,5.2,3.4h0.6a56.564,56.564,0,0,0,8-1.2q0.6,0,8,1.8h1.8a11.2,11.2,0,0,1,7.6-3q9.6-2.8,13.8-2.8l4,0.6q3.4-2,3.4-3V74.8q0-4.4-5.2-5h-0.6l-8,1.6h-0.6q-6.8,0-6.8-16.6V54.2q0-4.6,3.4-15.6,0-5.4-15-12-3.4,0-3.4,3.4h0Zm-54.2,10.4q0,1.4,2.8,3.4,15,9.6,15,16.6,0,3.4-4.6,11,0,3,1.8,3.4h2.2c0.8,0,1.2-.531,1.2-1.6q13.2-11.2,13.2-16.8V54.8q0-6-16.6-12.8-8.4-4.6-9.8-4.6h-3q-1,.4-2.2,3h0Zm-2.8,44.8v2.4l5,4.6q8.2,3.2,8.2,8.6v0.6a61.878,61.878,0,0,1-4,22.4,5.884,5.884,0,0,0,1.6,3q5,0,12.8-31.2,0-5.4-21.4-12-2.2,1-2.2,1.6h0Zm32.8,30-12.2,33.4q-4.4,20.2-8,20.2h-1.8q-9-5.2-10.4-5.2h-1.6a1.188,1.188,0,0,0-1.2,1.2V166q0,4.2,8.6,7.4,9,10.4,12.2,10.4,4,0,4-6.4,9.2-35.2,14.4-59.4,0-2.8-2.4-3.4a3.415,3.415,0,0,0-1.6.6h0Zm195.4-86.4q7,15.6,7,35.8,0,8.6-16.8,8.6h-7.4q-5.2,0-5.2,2.8,1.8,4,5.8,4h2.8l13.8-1.6q9.2,0.6,9.2,8-0.2,7-1.6,7,0,4.2-11.6,5.6-23.6,2.2-23.6,5.2v0.6q0,3.6,3.4,3.6h7q12.8-2.4,15-2.4h4q7.4,0,7.4,12.6v33q0,10.8-6.2,10.8-7.6,0-9.2-6.2v-2.4l5.6-18.4q-3.2-10.4-8.6-10.4h-1.2q-1,.2-2.2,2.8l1.8,7.6q-6.4,35.6-12.2,51.8-9.2,17.8-9.2,19v2.4a3.724,3.724,0,0,0,3.4,2.2q5.8,0,13.4-20.8,6.4-23,10.8-23,2.6,0,27.2,7.6,38.8,16,41.4,16,42,20.2,43.2,20.2h1.2l12.6-6.8q13.8-2.8,13.8-7.6v-2.2q0-1.8-4.6-2.4-15.8,1.8-17.2,1.8h-0.6q-20,0-89.8-26.6-5.8,0-5.8-18.4,0-3,.6-9.8,1-2.6,20.6-6.8v-3q0-1.6-5.2-2.8h-1.6a30.493,30.493,0,0,0-8.6,1.6q-5.8,0-5.8-9.2,0-1.2.6-6.2a60.585,60.585,0,0,1-1.2-8.2l2.2-2.2q20.2-.4,20.2-3V97.4q-2-3.4-5.2-3.4h-1a63.94,63.94,0,0,1-9.8,1.6h-3.6a6.993,6.993,0,0,1-4-6.8V87q0-6.8,4-10.4,15-.2,15-3.4-0.8-5.8-6.2-5.8-1.6,0-7,1.8h-0.6q-3.4,0-5.2-4,0-1.8.6-1.8,1.4-19.4,3.4-24.8,0-4.4-12.6-14.4-6.4,0-6.4,4.6h0Zm64.6,21.4q-33.4,4.8-33.4,6.8v0.6q0.4,1.8,10.4,4.6,3.4,0,3.4,15.6V94.4q0,7.8,1.8,35.2a30.089,30.089,0,0,1-3.6,15q-10.8,2.2-10.8,4v1.2q1.2,6.4,9.8,6.4h1q18.4-7.6,23-7.6a4.753,4.753,0,0,1,3,4.6V155a55.1,55.1,0,0,1-1.8,10.4q0,6.2,5.8,12.6h2.4l1-.6q1-12.6,3.6-12.6,7.8-2,11.4-5.8,5.8-9.8,15.6-23.6h2.2q3,1.4,8.2,11,4.8,14.8,10.4,14.8,4.4,0,6.2-3.4v-0.6a23.714,23.714,0,0,0-1.6-9.2q-9.4-11.6-19-25.8v-0.6q9.8-31.8,9.8-35.8,6.2-9,6.2-10.4-4.2-9.8-10.4-9.8h-0.4q-2.2,0-12.2,7-18.4,3.6-18.4,5.8,0,5.2,8.6,5.2a47.261,47.261,0,0,0,11-1.8q4.6,2.8,4.6,4.6a68.512,68.512,0,0,0-1.8,16.2q-1.2,9.8-5.8,9.8-2.8,0-8.6-5.8-2.8,0-3.4,1.8v2.8q9.8,11.6,9.8,14.4,0,1.2-1.8,5.8-11.2,20.6-19,28.2h-1.2a5.031,5.031,0,0,1-2.8-4.6v-1.2q0-1.2,1.2-11v-3.4q0-.8-1.2-13.8v-60q0-5.6,6.4-8.6,13.2-1.6,13.2-4.6,0-7.4-8-9.2h-1.2Zm-11,16q1.8-5.8,9.8-5.8h2.8a4.67,4.67,0,0,1,4.8,3,83.7,83.7,0,0,1-1.2,9.2,0.53,0.53,0,0,1,.6.6q0,9.8-5.2,9.8h-4.6q-8.2,0-8.2-7V74.4a55.38,55.38,0,0,1,1.2-8.2h0Zm-1.8,37q0-12.8,11-12.8h1.8q5.2,0,5.2,9.2v5.2q-2,7.6-12.2,7.6h-0.6q-5.2,0-5.2-8.8v-0.4Zm8.2,15.4h5.2q4.6,0,4.6,5.8v6.4q0,11.4-11.6,11.4h-0.6q-5.2,0-5.2-11.4,0-12.2,7.6-12.2h0Z"/>
</svg>
