<svg xmlns="http://www.w3.org/2000/svg" width="228" height="60" viewBox="0 0 228 60">
  <defs>
    <style>
      .cls-1 {
        fill: #fff;
        fill-rule: evenodd;
      }
    </style>
  </defs>
  <path id="个影像" class="cls-1" d="M96.675,7.816q0,5.45-5.9,13.15a33.888,33.888,0,0,1-5.3,7.3,33.71,33.71,0,0,1-4.5,5.8q-4,2.2-4.45,4.15a0.955,0.955,0,0,0,1.15,1h0.6a79.721,79.721,0,0,0,7.9-7.9,25.7,25.7,0,0,0,4.9-6.05,22.434,22.434,0,0,0,3.75-5.05q2.05-3,2.45-3a0.888,0.888,0,0,1,1,.85q4.9,5.951,5.6,6.5a86.255,86.255,0,0,0,6.5,8.9h0.55a2.683,2.683,0,0,0,1-1.15h0.15a1.147,1.147,0,0,0,1.15,1.3h4.9q1.3,0,1.3-1v-0.75q0-.8-2.3-1a12.6,12.6,0,0,1-5.3-1.3,7.069,7.069,0,0,0-2.75-2.45q-1.45-2.85-6.5-6.45-3.6-4.3-3.6-5.2v-0.45a1.922,1.922,0,0,1,.45-1.25q2.3-2.05,2.3-2.75v-0.3a2.517,2.517,0,0,0-1.3-1.7q-1.7-2.6-2.15-2.6a1.726,1.726,0,0,0-1.6,1.4h0Zm-0.4,17a36.213,36.213,0,0,1,.7,4.75v11.95a58.928,58.928,0,0,1-.45,6.05v0.6q0,1.6,2.3,4.05,1.75,0,1.75-2.45v-0.3q-0.7-2.651-1-19.9,0-.5.4-3.75-0.851-2.3-2.7-2.3h-0.75a6.236,6.236,0,0,0-.25,1.3h0Zm52.15-18.65a6.628,6.628,0,0,1-4.45,2.2,23.84,23.84,0,0,1-6.65,1,1.047,1.047,0,0,1-.55-0.15,7.217,7.217,0,0,0-2.6-1.6h-0.3a1.371,1.371,0,0,0-.7,1,39.073,39.073,0,0,1,2,10.55q0,0.15-.3,1.55v0.45q0.7,2.15,1.3,2.15h0.45a1.05,1.05,0,0,0,.55-0.15,4.13,4.13,0,0,1,2.45-1.45,2.377,2.377,0,0,1,1.75,2.45q0,1.5-2.6,2.2a7.366,7.366,0,0,1-1.3-.15q-5.9.7-7.6,0.7h-0.9a0.751,0.751,0,0,0-.85.85v0.15q0,1.2,1.75,1.6a2.093,2.093,0,0,0,1.25-.15q4.7,0,5.5-1.15,8.9-1.1,8.9-1.75a9.627,9.627,0,0,1,1.9.6q4.749,0,4.75-1.3,0-1.7-2.15-2a1.151,1.151,0,0,1-.45.15,69.791,69.791,0,0,1-6.9,2.55c-0.067,0-.35-0.033-0.85-0.1v-0.3q0-.5,1.55-0.75h0.15a6.844,6.844,0,0,1-.55-2.45v-0.55q0-1.75,4.75-1.75h1a0.884,0.884,0,0,0,1-1,1.6,1.6,0,0,0-1.15-.85c0,0.2-.234.3-0.7,0.3a1.692,1.692,0,0,0-1.05-.45h-0.4a38.837,38.837,0,0,1-6.65,1.15q-2.7-.2-2.7-1.3a2.73,2.73,0,0,1,.7-1.3q0.649-1,2.9-1,5.149,0,5.15-1.15v-0.45a1.2,1.2,0,0,0-1.15-.7h-0.7q-4.751,1.151-5.2,1.15h-0.45q-1,0-1.4-1.85v-0.3a3.046,3.046,0,0,1,.7-1.9,4.353,4.353,0,0,1,1.15.15q6.049-.7,6.65-0.7a1.954,1.954,0,0,1,2,1.45,28.305,28.305,0,0,1-.7,4.6,1.463,1.463,0,0,0,1.4,1.45h0.15q0.45,0,.75-2.45,0.7-4.6,2-6.2-0.75-3.049-2.15-3.05h-0.45Zm11.1,4.2q0,1.3-3.3,8.05a16.868,16.868,0,0,0-2.3,3.75c0.166,0,.25.2,0.25,0.6h0.45q1.7,0,2.3-2.9a17.369,17.369,0,0,0,3.75-5.05q2.85-2.7,2.85-3.75-1.551-3.45-2.7-3.45h-0.15a2.962,2.962,0,0,0-1.15,2.75h0Zm2.85,9.2q0,3.45-8.05,13.7a1,1,0,0,0,.85,1,20.819,20.819,0,0,0,5.05-5.35q2.5-2.95,3.05-3.7,2.449-1.9,2.45-3.2-0.8-3-2.3-3h-0.45a1.453,1.453,0,0,0-.6.55h0Zm-16.25,10.25q0.15,2.4.15,3.75v0.1l-0.15.9q0,0.75-5.9,1.55-2.451,0-2.45-2.55l0.7-1.15a51.73,51.73,0,0,1,7.05-1.45,0.934,0.934,0,0,0-.55-1l-6.9.7a10.059,10.059,0,0,1-2.6-.6h-0.15a0.7,0.7,0,0,0-.45.45v0.45a17.949,17.949,0,0,0,.75,2.7l-0.3,1.15,1,4.8-0.3-.15h-1.3q-0.951,0-2.85,3.6-3.75,3.851-3.75,4.6v0.55a0.982,0.982,0,0,0,.6.6h0.55q1.149,0,2.75-2.9,4.449-3.349,4.45-5.45v-0.75q1.05,0,3.15-2.45,1.4,0,1.75,2.45v0.9q0,1.8-.15,4.45a3.539,3.539,0,0,1,.3,1q-0.15,1.9-.85,2.15h-0.6l-1.75-.7h-0.55a0.774,0.774,0,0,0-.45.55v0.15q3.6,3.8,4.6,4.2h0.15a2.662,2.662,0,0,0,1.45-1.75,7.884,7.884,0,0,0-.15-1.55q0-.15.15-1.15l-0.15-2.35q0.15-1.4.15-2.15a22.388,22.388,0,0,1-.4-4.3q0-2.149,2.85-2.15l0.85,0.15h1.75q1.3,0,1.3-.9a6.675,6.675,0,0,1-1.6-2.3,14.491,14.491,0,0,0,.85-3.45v-0.3q-0.15-1.849-1.4-1.85h-0.6a2.127,2.127,0,0,0-1,1.45h0Zm18.3,0.15a18.36,18.36,0,0,1-2.45,4.3q0,1.55-8.8,10.8a42.279,42.279,0,0,0-5.05,4.3v0.6a1.173,1.173,0,0,0,.75.55c0-.067.083-0.1,0.25-0.1q1.149,0,12.1-10.1,3.649-4.5,4.65-5.5,2-1.1,2-2v-0.3a5.983,5.983,0,0,0-2.75-2.85q-0.7,0-.7.3h0Zm-19.3,10.5v0.55q3.9,3.5,4.75,3.75,0.849,0,1-1.45,0-2-5.35-3.15-0.4,0-.4.3h0Zm54.5-34.65q-1,0-1,3.9a58.123,58.123,0,0,1-6.35,9.05q0,1.6-1.15,1.6-2,2.15-2.45,2.15v0.75h0.75a9.779,9.779,0,0,0,2.45-.9h0.4q0.4,0.05.85,1.9-0.4,2.7-.4,3.15v0.3q0,1.25,2.3,2.6h0.15q1.8-1.9,3.15-1.9h1a0.7,0.7,0,0,1,.45.45v0.45a14.244,14.244,0,0,1-4.05,3.6q-3.851,1.451-3.85,2.45a0.944,0.944,0,0,0,.7.85h0.15q6.649-3.45,8.05-3.45v0.15q0,0.9-2.15,3.15a64.143,64.143,0,0,0-7.35,4.75v0.45a0.245,0.245,0,0,0,.3.25h0.15q0.7,0,6.3-3,3.7-3.049,4.05-3.05a0.555,0.555,0,0,1,.3.45q0,2.051-3.3,4.6a11.387,11.387,0,0,1-4.5,3.05,26.526,26.526,0,0,1-6.05,3.6v0.7a0.83,0.83,0,0,0,.6.45q4.65-1.35,5.75-2.3,1.149-1.65,5.35-3.35,1.35-1.7,2-1.7h0.3q0.4,0,.7,1.3-0.851,5.9-2.15,5.9a13.262,13.262,0,0,1-2.15-.75h-0.3q-0.351,0-.6,1.05a2.466,2.466,0,0,0,1.15,1.4q2.25,3.049,2.9,3.05,0.9,0,2.45-1.9a1.858,1.858,0,0,0-.85-1.25,2.484,2.484,0,0,1,.4-1.15q-0.15-.551-0.15-0.6a1.151,1.151,0,0,1,.15-0.45q1.449-.95,1.45-1.7v-0.6q0-3.3-1-3.85,0-.55,1.75-1.3,0.8,0,3.85,7.45a3.071,3.071,0,0,0,3.2,1.9l1.7-.15q3.2,0,3.2-1.3,0-1.1-2.45-1.6-5.2-1.7-8.65-8.75,0-1.4,3.3-2.75,3.3-1,3.3-2.3v-0.3q-0.5-2.9-1.85-2.9-0.75,0-1.75,1.45-2.951,4.5-4.15,4.6a1.6,1.6,0,0,1-1-.4,23.311,23.311,0,0,0-2.2-3.9q1.9-3.45,2.9-3.45l1,0.15a20.93,20.93,0,0,1,2.3-.3,6.831,6.831,0,0,1,1.75.45q2.45-.45,2.45-1.3l-0.6-3.2v-0.25a36.489,36.489,0,0,0,1.3-3.9q-0.6-2-1.7-2h-0.15l-0.9.1a9.377,9.377,0,0,1-5.15,1.9h-0.45q-0.951-1.9-1.6-1.9h-0.1q-0.85,0-2.45,2.6l-1.05-.15h-0.25a21.407,21.407,0,0,0-3.9.9h-0.7a1.6,1.6,0,0,1-.9-1.15q0-.9,2.05-2.2,0.7-1.849,1.85-1.85,1.249,0.15,1.45.15a9.261,9.261,0,0,0,2.85-.6h0.45q1.149,2.051,1.6,2.05a1.8,1.8,0,0,0,1.45-1,20.269,20.269,0,0,0,2.7-2.2v-0.55q-0.5-2.3-1.15-2.3h-0.4l-1.05.25a5.465,5.465,0,0,1-4,2.2q-2.3,0-2.3-.6l0.55-1.6a0.932,0.932,0,0,0-.85-0.55v-0.15l0.3-.45,0.85,0.15q1.6-.1,1.6-1.3V8.866q-1.3-3.2-2.6-3.2Zm-11.95,4.45q-0.851,3.7-1.85,4.65a2.392,2.392,0,0,0-1.6,1.55q-2.451,3.05-2.45,3.9a32.916,32.916,0,0,0-4.6,5.2q-1.451.65-1.45,1.55,0.3,1.3,1.15,1.3l1-.4a9.887,9.887,0,0,1,3.2-3.35,7.744,7.744,0,0,0,1.55-2.3,2.125,2.125,0,0,1,1,.3q2.2-.45,2.2-0.7v-0.15a1.55,1.55,0,0,0-.3-0.85,4.4,4.4,0,0,0,.85-2.05,19.327,19.327,0,0,0,1.9-4q3.15-2.95,3.15-4.5-0.351-3.15-2-3.15h-0.45q-0.55,0-1.3,3h0Zm15.25,13.7q0.7-3.15,4.9-3.15h0.6q1.25,0,1.45,2v0.45q0,2.45-3.05,2.45h-2a1.674,1.674,0,0,1-1.9-1.45v-0.3Zm-6.3-2.15,0.85,0.15q1.449-.15,2.3-0.15,1.6,0,1.6,2.45v0.3q0,1.451-4.9,2.15a4.123,4.123,0,0,1-1.6-2.75q0-1.05,1.75-2.15h0Zm-12.7,3.3a9.927,9.927,0,0,1,.3,2.6l-0.45,3.75q0.15,1.151.6,1.15l-0.45,2.45a1.19,1.19,0,0,0,1.15.85,1.472,1.472,0,0,0,1.45-1.15l-0.3-8.05q0-1.45-2-2.05h-0.15a1.151,1.151,0,0,1-.15.45h0Zm-0.15,14.7v3.45a10.878,10.878,0,0,1-1.3,4.45v0.6q1.35,4,2.45,4t1.45-1.55l-0.15-.75q0.15-1.95.15-2.85a3.547,3.547,0,0,0-.55-2.05q0.45,0,.55-6.6v-0.6q0-.55-1.85-0.85h-0.15q-0.6,0-.6,2.75h0Z"/>
  <path id="_21" data-name="21" class="cls-1" d="M14.554,13.058q-5.95,4.2-5.95,8.575,0.757,4.609,3.442,4.608h0.233q2.275,0,3.442-2.917a5.444,5.444,0,0,0-2.333-4.317V18.6q0-1.75,7.525-3.325,0.991,0,.992.233,7,0,8.4,5.658v2.1a3.581,3.581,0,0,1-.467,1.808q0,4.317-9.45,7.583-7,3.268-10.092,7.058Q8.253,42.05,6.737,48.933q0,1.693,2.333,2.508,4.141-3.732,6.008-3.733h0.467a12.674,12.674,0,0,1,2.742.7q3.966,3.034,7.292,3.033h0.933a8.676,8.676,0,0,0,7.875-7.875A2.462,2.462,0,0,0,33.1,41.058H32.346A2.011,2.011,0,0,0,31.238,42.4l0.233,0.525q0,3.967-5.425,4.667h-1.4q-1.05,0-7.408-3.267-2.393,0-5.6.233l-0.35-.175c0-.427.155-0.642,0.467-0.642q0-2.216,4.608-5.833,13.825-5.366,13.825-7.292,2.507-1.866,3.5-6.883a49.257,49.257,0,0,1-.7-5.192q-4.609-7.116-10.908-7.117h-0.7a46.455,46.455,0,0,0-6.825,1.633h0Zm28.175,0.933a3.379,3.379,0,0,0,2.975,1.75h1.867a18.233,18.233,0,0,0,2.567-.233L50.6,15.741a12.287,12.287,0,0,1,2.1-.233h1.808a1.419,1.419,0,0,1,.817,1.458V19.3L55.1,20.758a2.052,2.052,0,0,1,.233,1.108v1.867a8.266,8.266,0,0,1-.233,2.1,12.542,12.542,0,0,1,.233,2.333v11.2a13.3,13.3,0,0,1-.233,2.158,3.139,3.139,0,0,1,.233,1.575v3.267q0,0.993-6.825.992l-3.267-.233q-2.275.525-2.275,1.575,0,2.217,4.142,2.508h1.867q0.35,0,3.733-.467h1.342l0.7,0.35v-0.35q2.8,0,6.358-.233l1.633,0.233A20.861,20.861,0,0,1,66,50.508h1.867a2.589,2.589,0,0,0,2.275-1.517v-1.05a2.516,2.516,0,0,0-1.575-1.283q-7.35.234-8.867,0.233a2.06,2.06,0,0,1-1.225-1.05q0-1.982.233-4.608,0-.175-0.233-3.033a18.3,18.3,0,0,0,.467-2.567q0-1.341-.233-3.675l0.233-.525a42.365,42.365,0,0,1-.467-7.408l0.35-.7h-0.35a32.233,32.233,0,0,1,.467-5.425,11.741,11.741,0,0,1-.233-1.867,2.069,2.069,0,0,1,.233-0.933,2.375,2.375,0,0,1-.233-1.167q0-2.275-3.675-2.275-1.109,0-5.367.233-3.5-.232-5.192-0.233-1.75,1.342-1.75,2.333h0Z"/>
</svg>
