<svg xmlns="http://www.w3.org/2000/svg" width="1288" height="120" viewBox="0 0 1288 120">
  <defs>
    <style>
      .cls-1 {
        fill: #fff;
        fill-rule: evenodd;
      }
    </style>
  </defs>
  <path id="一树闲花照眼明_何必争春序" data-name="一树闲花照眼明，何必争春序" class="cls-1" d="M74.133,55.584q0,1.6-33.5,4.1-14,1.4-16.4,1.4h-12.6q-5.8,0-5.8,1.4v1.2q0,3.1,6.6,5.2l30.8-3.2q16.5-.6,21.9-1.7a14.737,14.737,0,0,0,2.6.3h7.5q6.6,0,6.6-2.6v-0.6q0-2.7-5.7-6.1a6.047,6.047,0,0,0-2,.6h0Zm89.9-42.5a24.46,24.46,0,0,0,2.3,4.1,100.763,100.763,0,0,1,2.9,24.5l-0.6,2.8q0,3.2-11.5,4.1h-1.2q-3.1,0-3.1-2.3v-1.8a14.335,14.335,0,0,1,.5-3.4q4.4-6.8,4.4-7.5v-0.6q0-1.9-4.1-5.2h-1.4l-2.9,2.9q0,2.1-9.5,3.8-6,0-6,2,1.1,2.9,3.4,2.9h0.6q2,0,9.8-2.1h0.8a6.065,6.065,0,0,0,1.5,1.2v0.6q-2.2,13.2-4.6,16.7h-0.6a2.663,2.663,0,0,1-1.2-.3l-4.8-6.4h-0.9v2.3q5.5,8,5.5,9.3v0.3a19.994,19.994,0,0,1-.9,5.1,54.365,54.365,0,0,0-4,8.1q-7.3,9-9.3,13.2,0.5,1.2.9,1.2h1.5q0.4,0,4.8-5.8,9.1-13.8,9.6-13.8a3.3,3.3,0,0,1,2,.9q3.6,11.9,5.7,14.7h1.2q1.4,0,2.6-4.9v-1.2q0-1.3-2.3-5.2-5.8-8.3-5.8-9.8,0-4.3,2.6-12.6a0.265,0.265,0,0,1,.3-0.3q3.9,2.9,4.3,2.9,0.8,0,8.9-2.1a2.3,2.3,0,0,1,1.2.3q2.9,0,2.9,30.9-0.3,2.9-.3,4.6a30.631,30.631,0,0,1,.8,5.7q-0.4,6.6-2.5,6.6h-0.6q-5-3.1-6.1-3.1h-0.8a2.059,2.059,0,0,0-2.1,1.1v1.5l0.9,1.1a25.489,25.489,0,0,1,6.3,5.5q4.4,6.6,6.4,6.6h0.6q3.4-.6,3.4-6-0.3-7.6-.3-13.6v-0.3a91.992,91.992,0,0,1-1.1-9.7v-8.4a45.8,45.8,0,0,0-.9-10.7l0.6-5.4a23.794,23.794,0,0,0-.6-4.9q0.9-3.2,5.8-3.2h0.5a27.717,27.717,0,0,1,4.1.6,2.608,2.608,0,0,0,2.6-1.5v-1.4q-2.8-4-4.6-4a2.3,2.3,0,0,0-.9.3l-4.6,1.7h-0.6q-2.3,0-2.9-3.8,0-17.6,2.6-23v-2a11.634,11.634,0,0,0-6.3-5.2h-4.6a2.417,2.417,0,0,1-.3,1.4h0Zm-49.5.3v1.2a11.2,11.2,0,0,0,.8,2.6q2.5,3.3,4.3,21.9v0.3q0,2.8-8,3.4-10.1.5-10.1,2,1.3,3.5,3.5,3.5h1.7q1.3,0,10.1-2.3,1.7,0.8,1.7,1.7a11.9,11.9,0,0,0-.9,3.2,76.9,76.9,0,0,1-10.3,18.4,29.485,29.485,0,0,0-4.6,5.2v1.7a1.2,1.2,0,0,0,.8.9h0.6a3.1,3.1,0,0,0,1.7-.6,39.753,39.753,0,0,1,6.9-8.6,51.18,51.18,0,0,1,5.8-8.4h0.6a1.361,1.361,0,0,1,.8.9v0.6a71.883,71.883,0,0,0,.3,7.2,63.059,63.059,0,0,1-1.1,8.6,48.149,48.149,0,0,1,.8,6.9v4.3q0,5.1-2.6,15.3,0.9,8.1,3.8,8.1h0.3q2.6,0,3.7-3.8-1.4-18.6-1.4-25v-14.7q0-3.1-.3-9.3l1.1-.8q1.3,0,3.8,2.6,3.4,5.1,4.6,5.7h0.3a3.215,3.215,0,0,0,1.7-3.1v-1.8q0-2.2-4-4.6-6.9-3-6.9-6.3v-3.7a2.953,2.953,0,0,1,2.6-1.8q8,0,8-2-2-3.5-3.4-4h-0.6a27.432,27.432,0,0,0-5.5,1.7h-0.3q-1.4,0-2-7.5a28.252,28.252,0,0,0,.6-4,30.4,30.4,0,0,0-.6-4.9l2-6.9q0-2.8-8-4.9-2.3.4-2.3,1.1h0Zm42,47.8v0.3a13.512,13.512,0,0,0,1.7,6.4q2.5,8.9,3.5,8.9,2.7,0,3.4-5.8-2.8-7.6-7.7-10.6a1.207,1.207,0,0,0-.9.8h0Zm92.1,4.8a0.292,0.292,0,0,1-.1.2,0.638,0.638,0,0,1-.2.6,4.143,4.143,0,0,0-1,2.5,2.5,2.5,0,0,0,.3,1.3,1.086,1.086,0,0,1,.2.6,6.951,6.951,0,0,1-.2,1.3,15.131,15.131,0,0,0-.2,2.3v10.9a8.322,8.322,0,0,1-1.3,4.8,3,3,0,0,0-.6,1.6q0,0.9,1.7,3.9t2.9,3q1.9,0,1.9-1.4a7.014,7.014,0,0,0-.3-2.2,18.389,18.389,0,0,1-.4-2.4,27.315,27.315,0,0,1-.3-3.5,1.591,1.591,0,0,1,.2-0.7,3.14,3.14,0,0,0,.3-1.2,5.839,5.839,0,0,0-.3-1.4,7.346,7.346,0,0,1-.4-2,4.609,4.609,0,0,1,.4-1.9,1.231,1.231,0,0,0,.3-0.7v-0.3a2.67,2.67,0,0,1-.5-1.6,7.67,7.67,0,0,1,.6-2.4c0.132-.533.233-0.933,0.3-1.2a2.479,2.479,0,0,1-.8-1.8,4.4,4.4,0,0,1,.2-0.9,8.251,8.251,0,0,0,.7-3.1l-0.1-2.3a0.93,0.93,0,0,1,1-1.1,1.335,1.335,0,0,1,.9.7,0.809,0.809,0,0,1,.1.3,100.788,100.788,0,0,0,8,9,27.631,27.631,0,0,1,3.1,3.6,2.775,2.775,0,0,0,1.5,1.2,3.841,3.841,0,0,0,1.8-.8,6.9,6.9,0,0,1-.2-1.7,9.4,9.4,0,0,1,.6-3.1,22.376,22.376,0,0,0-6.3-5.7,26.855,26.855,0,0,1-2.3-1.6,7.932,7.932,0,0,0-5.1-2.4l-0.4.1a1.2,1.2,0,0,1-.6-0.3,3.222,3.222,0,0,0-1.8-1.9c-0.468-.266-0.8-0.466-1-0.6a8.17,8.17,0,0,0-.6-2,3.915,3.915,0,0,1-.4-1.2,3.116,3.116,0,0,1,.7-1.6,4.318,4.318,0,0,0,1.2-2.8,7,7,0,0,0-.3-1.7,4.754,4.754,0,0,1-.3-1.3l0.4-2.3a6.3,6.3,0,0,0-.8.1,9.441,9.441,0,0,0-2.75.8,1.945,1.945,0,0,0-.95,1.9,4.366,4.366,0,0,1-3,.9h-1.8a15.263,15.263,0,0,0-3,.3,11.385,11.385,0,0,1-1.4.1,28.159,28.159,0,0,1-3.7-.3,21.4,21.4,0,0,0-2.4-.2,2.51,2.51,0,0,0-2.6,2,4.257,4.257,0,0,0,2.4,2.8q5.2-.2,6.7-0.9a3.322,3.322,0,0,1,.8-0.1,2.255,2.255,0,0,1,.7.1,1.62,1.62,0,0,0,.5.1,3.884,3.884,0,0,0,2.1-1,3.927,3.927,0,0,0,.7-0.5l2.1,2.4-0.1.2a34.326,34.326,0,0,1-7.9,10.2,12.728,12.728,0,0,0-1.5,2,6.162,6.162,0,0,1-.9,1.3,16.821,16.821,0,0,1-2.5,2.6c-0.468.4-.8,0.7-1,0.9l1.7,2.2a44.853,44.853,0,0,1,4.8-4c0.6-.4,1.065-0.733,1.4-1a9.509,9.509,0,0,0,2-2.5,7.644,7.644,0,0,1,2.6-2.8q2.2-2.9,3.4-2.9a1.534,1.534,0,0,1,1.1.5h0Zm-33.7,29.7a2.688,2.688,0,0,1-.9.6,2.431,2.431,0,0,1-.6.4q-1.5,1.2-1.5,1.9a9.261,9.261,0,0,0,.9,2.3,14.223,14.223,0,0,0,1.1,2.1,11.258,11.258,0,0,1,1.6,2.6q1.3,2.5,2,2.5a1.629,1.629,0,0,0,1.2-1,3.864,3.864,0,0,0,.6-2,4.3,4.3,0,0,0-.3-1.7v-0.3a0.865,0.865,0,0,1,.1-0.4,6.362,6.362,0,0,0,.2-2.1v-1.4c-0.068-.667-0.1-1.167-0.1-1.5s0.032-.9.1-1.7a19.362,19.362,0,0,0,.2-2.4c0-.466-0.035-1.066-0.1-1.8v-1.7a24.8,24.8,0,0,1,.5-4.3,18.668,18.668,0,0,0,.4-3,6,6,0,0,0-.5-2.3,4.936,4.936,0,0,1-.3-1.5,8.28,8.28,0,0,1,.2-1.5,11.915,11.915,0,0,0,.5-3.1,15.625,15.625,0,0,0-.4-3,18.245,18.245,0,0,1-.2-2.2,4.83,4.83,0,0,1,.5-2.2,8.594,8.594,0,0,1-1.2-3.6,6.1,6.1,0,0,1,.7-2.4,4.605,4.605,0,0,0,.6-1.8l0.1-3.7a17.921,17.921,0,0,0-.6-5.2,5.789,5.789,0,0,1-.2-1.4,8.068,8.068,0,0,1,.1-1.1c0.065-.533.1-0.9,0.1-1.1l-0.1-.8a4.264,4.264,0,0,0,.7-2.5v-1.3a12.909,12.909,0,0,1-.1-1.3,8.869,8.869,0,0,1,1.4-5.2,2.991,2.991,0,0,0,.6-1.6,2.526,2.526,0,0,0-.6-1.7,17.93,17.93,0,0,0-1.9-1.8,13.369,13.369,0,0,1-2.6-2.5,8.537,8.537,0,0,0-3.9-3.4,4.974,4.974,0,0,0-2.2,2.8,3.312,3.312,0,0,0,.7.7,4.6,4.6,0,0,1,1.4,2.8,0.62,0.62,0,0,0,.5.5,2.208,2.208,0,0,1,1.2,2.3v0.8a2.265,2.265,0,0,0,.2.8,2.493,2.493,0,0,1,.2.9,7.165,7.165,0,0,1-.2,1.2,18.857,18.857,0,0,0-.3,3,6.519,6.519,0,0,0,.8,3.3,7.775,7.775,0,0,1-.4,1.4,13.687,13.687,0,0,0-.3,3.2l0.1,3.6a4.523,4.523,0,0,0,.3,1.6,3.153,3.153,0,0,1,.3,1.2c0,0.2-.035.567-0.1,1.1a12.468,12.468,0,0,0-.3,2.6,6.329,6.329,0,0,0,1,3.6,3.244,3.244,0,0,1,.1.5,8.643,8.643,0,0,1-.4,2.2q-0.4,1.4-.5,1.8a3.737,3.737,0,0,0-.4,1.7,6.127,6.127,0,0,0,.1,1,9.806,9.806,0,0,1,.2,1.9,22.7,22.7,0,0,1-.3,3.2v21.4Zm60.8-27.5a5.58,5.58,0,0,1,.6,2.7,13.551,13.551,0,0,1-.2,2.7,2.665,2.665,0,0,0-.1.6,7.145,7.145,0,0,0,.1,1.2,15.912,15.912,0,0,1,.4,3.2,1.063,1.063,0,0,0,.2.6c0.133,0.067.365,0.167,0.7,0.3a7.345,7.345,0,0,1,.8.2v2.6a0.773,0.773,0,0,0-.3.1,0.564,0.564,0,0,1-.3.2,1.71,1.71,0,0,0-.4-0.1,0.72,0.72,0,0,0-.7.9q0,0.8,2.1,2.3l0.2,0.2a4.021,4.021,0,0,0,1.8-3.2,3.4,3.4,0,0,0-.5-1.6,1.708,1.708,0,0,1-.3-0.8,1.638,1.638,0,0,1,.1-0.5,1.547,1.547,0,0,0,.2-0.6,1.333,1.333,0,0,0-.4-0.85,7.712,7.712,0,0,0-1.5-1.15l0.2-.2a0.554,0.554,0,0,1,.3-0.2,3.3,3.3,0,0,0,1.95-1.15,8.059,8.059,0,0,0,.35-3.05,4.949,4.949,0,0,0-.9-3.2l0.4-.8a11.033,11.033,0,0,0,.6-3.5,10.239,10.239,0,0,0-.7-3.5,7,7,0,0,1-.5-2.2,5.7,5.7,0,0,1,.7-2.5,4.754,4.754,0,0,0,.5-1.9,4.252,4.252,0,0,0-.6-2,3.259,3.259,0,0,1-.5-1.5,3.924,3.924,0,0,1,.3-1.3,13.391,13.391,0,0,0,.7-4.6v-3.5a8.483,8.483,0,0,0-.7-3.6,2.633,2.633,0,0,1-.4-1.3,2.52,2.52,0,0,1,.4-1.2,7.5,7.5,0,0,0,.7-3.2v-2.6a12.78,12.78,0,0,0-1-5.6,13.49,13.49,0,0,0,1.1-1,10.965,10.965,0,0,0,2.5-3q0.6-.8,1-1.4c-0.2-.133-0.468-0.333-0.8-0.6a25.27,25.27,0,0,0-2.6-2.05,3.658,3.658,0,0,0-2-.65,7.716,7.716,0,0,0-3.6,1.6q-2.7,1.8-4.1,1.8a4.244,4.244,0,0,1-.8-0.1,8.5,8.5,0,0,0-1.1-.1,3,3,0,0,0-1.6.5,5.972,5.972,0,0,1-2.5.5h-4.8a17.928,17.928,0,0,0-4.8.8c-0.735.2-1.3,0.334-1.7,0.4l0.4,2.4h-1.8l-0.1-.2a9.15,9.15,0,0,0-.85-1.9,1.554,1.554,0,0,0-1.35-.5,7.562,7.562,0,0,0-2.65.6,12.358,12.358,0,0,0-2.15,1,8.928,8.928,0,0,0,2.35,2.55,6.841,6.841,0,0,0,2.95.45,12.706,12.706,0,0,0,3.1-.5,11.652,11.652,0,0,1,3-.5h1.6a6.055,6.055,0,0,0,2.9-.6,3.174,3.174,0,0,1,1.6-.4h6.7a15.319,15.319,0,0,0,3.6-.6c0.732-.2,1.3-0.333,1.7-0.4a2.846,2.846,0,0,1,1.1,2.3,4.92,4.92,0,0,1-.3,1.9,0.755,0.755,0,0,0-.1.3q0.1,1.5.5,4.7a3.03,3.03,0,0,1,.1.7q0.6,0.3,1.6.9a2.878,2.878,0,0,0-.9,2.1,6.069,6.069,0,0,0,.5,2,9.12,9.12,0,0,0-1.4,3.1,0.671,0.671,0,0,0,.2.5,2.424,2.424,0,0,1,.3,1.4,6.127,6.127,0,0,1-1,3,1.615,1.615,0,0,0,.1.4,7.438,7.438,0,0,1,.4,1.9v0.5a4.27,4.27,0,0,0,1.1,3.3,8.792,8.792,0,0,0-1.2,4.2,7.714,7.714,0,0,0,1.2,4l-1.2,1.4c0.2,0.134.532,0.334,1,.6q2.1,1,2.1,1.7a3.093,3.093,0,0,1-.4,1.2l-0.2.1a1.127,1.127,0,0,0-.5.1l-0.8-1.3a1.419,1.419,0,0,0-1.2,1.3,2.265,2.265,0,0,0,.2.8,2.341,2.341,0,0,1,.2.8,2.215,2.215,0,0,1-.9,1.6h0Zm-2.6,30.4a0.09,0.09,0,0,1-.1.1,12.524,12.524,0,0,0-1.5,1.7,2.451,2.451,0,0,0-.4,1.4q0,0.6,4.1,6.1a0.505,0.505,0,0,0,.4.2,0.089,0.089,0,0,1,.1.1,5.134,5.134,0,0,0,2.8-2.35,23.445,23.445,0,0,0,1.6-4.85v-0.2a7.447,7.447,0,0,1-.1-4.5l0.1-.6a0.406,0.406,0,0,0-.2-0.4,1.293,1.293,0,0,1-.4-1.1l0.2-1.5a2.489,2.489,0,0,0-.4-1.1,1.139,1.139,0,0,0-.2-0.4,3.927,3.927,0,0,1-.7.5,1.1,1.1,0,0,0-.4.2c0.065,0.734.1,1.334,0.1,1.8a12.194,12.194,0,0,1-1.15,2.95q-1.152,2.449-2.25,2.45a4.533,4.533,0,0,1-1.6-.5h0Zm-45.4-81.4a5.624,5.624,0,0,0-1.2,2.3,2.143,2.143,0,0,0,.5,1.1q0.9,1.4,2.5,3.7,2.6,4,3.1,4.8a11.655,11.655,0,0,1,.9,1.8,7.293,7.293,0,0,0,.4,1,1.243,1.243,0,0,0,1,1,1.616,1.616,0,0,0,1.25-1.2,35.163,35.163,0,0,0,1.25-3.3c0.2-.6.332-1,0.4-1.2a1.386,1.386,0,0,0-1.2-1.1,3.23,3.23,0,0,1-.8-0.2,25.063,25.063,0,0,0-1.5-2.95,2.975,2.975,0,0,0-1.1-1.05,3.248,3.248,0,0,1-1.2-1.3,7.412,7.412,0,0,0-4.3-3.4h0Zm36.5,34.8a7.791,7.791,0,0,1-2.2.6,13.366,13.366,0,0,1-1.4-.1h-1.4a15.186,15.186,0,0,0-4.5.5,5.532,5.532,0,0,0-1.9.9,14.81,14.81,0,0,0,4.2,2.2l2.1,0.9a19.833,19.833,0,0,0,4.6-.6,8.184,8.184,0,0,1,1.7-.3,0.981,0.981,0,0,1,.5.2,4.572,4.572,0,0,0,.9.1,6.07,6.07,0,0,0,2.65-.55,1.7,1.7,0,0,0,1.15-1.55,2.345,2.345,0,0,0-.45-1.35,23.381,23.381,0,0,0-1.85-2.15,0.291,0.291,0,0,0-.2-0.2,31.331,31.331,0,0,0-3.9,1.4h0Zm-15.4-2.8h0.2c0.732,0.067,1.3.1,1.7,0.1a1.158,1.158,0,0,0,1.4-1.2l-0.1-.8a7.69,7.69,0,0,1,1.6-3.6c0.332-.533.6-0.966,0.8-1.3a6.338,6.338,0,0,0-2.05-2.15q-1.752-1.35-5.25-3.85-0.6-.4-0.9-0.6-0.4.9-1,2.4a2.846,2.846,0,0,0,.5.8q1.8,2.6,1.8,3.6a4.382,4.382,0,0,1-.1.7v0.8a12.01,12.01,0,0,0,1.4,5.1h0Zm-17.2,29.3a1.236,1.236,0,0,0-.7.2q-0.9.5-2.8,1.3a29.154,29.154,0,0,0-4.1,2.4,8.019,8.019,0,0,0-2.5,3.6,1.071,1.071,0,0,0,.3.2,2.422,2.422,0,0,0,1.2.6,3.4,3.4,0,0,0,1.7-.35,5.522,5.522,0,0,0,1.3-1.15c0.333-.266.565-0.466,0.7-0.6q2.1-1.7,4.1-3.3a5.341,5.341,0,0,0,2-2.1,0.089,0.089,0,0,1,.1-0.1,1.958,1.958,0,0,0-1.3-.7h0Zm33.6,16.5a7.153,7.153,0,0,0,2.7,3,28.651,28.651,0,0,1,2.2,1.9q0.2-.5.6-1.3a3.834,3.834,0,0,1,.4-0.9q-1.7-1.8-2.55-2.55a2.547,2.547,0,0,0-1.65-.75,3.476,3.476,0,0,0-1.7.6h0Zm86.9-76.8v0.6q2.9,5.2,2.9,8.3,0,7.7-5.5,21-3.2,1.7-3.4,2.3v0.3a30.764,30.764,0,0,1,2,8.1,36.836,36.836,0,0,1-.3,4.3q0.3,5.6.3,10.7v1.4a4.463,4.463,0,0,1-1.2,2.6q-6,3.4-6,3.7-7.2,1.6-7.2,4.1l1.1,0.8,11.9-4.9a3.769,3.769,0,0,1,1.1,1.2q0.4,16.8,2.3,19.9a15.684,15.684,0,0,0,11.2,4.6h9.5q13.6-.7,13.6-4.6v-0.6a30.269,30.269,0,0,0-1.7-6.1q-0.9-11.2-2.6-11.2h-1.5q-1.7,1.2-1.7,2.3,1.1,8.7,1.1,10.1,0,4.2-5.7,5.2h-6.6a13.507,13.507,0,0,0-2.6.3,2.983,2.983,0,0,0-1.5-.3q-9.2-1.1-9.2-7.5a24.314,24.314,0,0,0,.3-3.8v-0.5a28.706,28.706,0,0,1-.9-5.5v-1.7q0-3.4,1.8-4.9,7.8-4.4,17.5-10.7,5.8-1.6,5.8-4v-0.9q-1.9-5.7-4.9-5.7a3.2,3.2,0,0,0-2,.8q-3.4,6.7-16.4,16.2h-0.6a2.032,2.032,0,0,1-1.2-2.1v-2a32.226,32.226,0,0,1,.3-5.4q0-1.1,2-11,0-1.8-2.8-3.2a1.973,1.973,0,0,1,1.1-2q3.6-7.8,4.6-8.3,10.6-.6,12.1-1.5a2.3,2.3,0,0,0,.9.3q1.3,0,8.6-.6,6.6,0,6.6-2.3-0.8-5.1-5.7-5.1-3.8.3-3.8,0.8-3.1,1.8-15.5,3.8h-0.6a2.345,2.345,0,0,1-1.1-1.5l0.2-1.1q4.1-7.4,4.1-9.5a23.137,23.137,0,0,0-.6-2.3q-4.5-5.2-6.9-5.2a3.6,3.6,0,0,0-3.2,2.3h0Zm-25.6,1.4a3.936,3.936,0,0,0,2,3.2q4,5,4,10.1-0.4,2.9-2.6,2.9-13.9,1.4-17.2,1.4a42.017,42.017,0,0,1-4.9-.6,3.013,3.013,0,0,0-2.9,2q2.5,4.9,6.3,4.9h0.3l20.5-4.3a1.937,1.937,0,0,1,1.1,1.4,14.252,14.252,0,0,1-.6,2.6q0.7,3.5,2.9,3.5h0.9a1.351,1.351,0,0,0,.8-0.9q0-7.7,2.9-7.7h0.9q7.1,0,9.2-2.3v-0.3a1.549,1.549,0,0,0-1.7-1.8h-3.8a15.34,15.34,0,0,0-4.3.9h-1.7q-1.5-.4-1.5-3.7v-2.1a16.3,16.3,0,0,1,1.2-5.1q-0.6,0-.6-1.5-4.4-4.3-7.5-4.3h-2.3a2.774,2.774,0,0,0-1.4,1.7h0Zm-6.1,43.5q-8.1,7.7-9.5,9.5-8.6,7.8-8.6,8.4a1.552,1.552,0,0,0,.9,1.7h1.1q7.1-5.7,17.6-14.7h0.8q0.9,0.2.9,1.7v23.4q0,0.4-1.1,6.6v0.3q1.5,8,2.8,8h1.5q1.1,0,1.7-3.1a15.1,15.1,0,0,1-.9-5.8v-27.9q0-1.9-.2-5.8c0.132,0,.2-0.366.2-1.1q0-3.6,7.8-10.4v-1.2q0-1.8-3.7-5.1h-1.5q-1.9,5.5-9.8,15.5h0Zm146.3-43.2q-7.2,4-11.8,4-10.8,2.6-13.9,2.6h-1.7a2.063,2.063,0,0,0-1.1,2.1,2,2,0,0,0,1.1,1.1h7.5q2.9,0.4,2.9,1.2v0.2a15.643,15.643,0,0,1-.9,4.9q-4.7,12-9.5,15.9v1.4q4.9,2.1,4.9,11.5v7.8q0,6.3,3.5,6.9h0.5q0.7,0,1.8-2.9,0-1.2,17.2-2.8,9,0,9-2.9l-0.3-.6q-4.8-1.9-4.9-2.6v-0.3l2-7.7q3.5-4.5,3.5-4.9,0-2.7-5.8-4.9h-1.2a2.164,2.164,0,0,1-1.1.5q0,2.4-20.2,5.2-4.6-1.5-4.6-2.6v-0.8q1.6-2,2-2,6.2-6.5,9.5-19.1,2.7-4.6,10.1-4.6,1.1,0,1.5,1.8-1.3,14.7-3.8,14.7-0.2,0-4.3-1.8a1.539,1.539,0,0,0-1.7,1.2q0,0.9,3.7,4,2.9,4,3.8,4,1.9,0,5.1-7.4,2.4-11.4,3.2-14.4,3.2-2.9,3.2-4.1,0-3.3-6.1-6.3a4,4,0,0,0-3.1,1.7h0Zm-57.9,5.5v0.6q0,1.3,2.9,6.9a233.66,233.66,0,0,1,2.6,31.1,3.3,3.3,0,0,1-.9,2q-7.5,1.3-7.5,2.6v0.8q0,2.9,4.9,4.1,1.9,0,6.6-3.2a82.338,82.338,0,0,0,11.8-5.7h0.3a1.922,1.922,0,0,1,2,1.7q-0.5,4.6-.5,4.9,0,4.2,2.8,5.2,2.1,0,2.1-1.8,0-4-1.2-14.7,0.3-3.6.3-4.3l-1.2-13.8,0.3-4q0-1.4,2.3-6.7v-0.8q-1.4-4.6-4.6-4.6a4.193,4.193,0,0,0-2.6,1.4q0,2.3-11.2,3.5a6.294,6.294,0,0,1-1.4-.6q-4.4-5.8-6.1-5.8a1.857,1.857,0,0,0-1.7,1.2h0Zm18.7,7.5a4.2,4.2,0,0,1,2.6,1.4,22.7,22.7,0,0,1-.3,3.2l0.9,7.2v1.4q0,4.3.3,11.5a8.188,8.188,0,0,1-1.2,3.5q-6.2,2.9-9.5,2.9h-0.3q-1.4,0-1.7-5.2v-3.8q0-3.4,4.6-5.1,5.5-.3,5.5-1.5v-0.8a2.2,2.2,0,0,0-1.8-2.3,63.53,63.53,0,0,1-6.3,1.1h-0.6q-2.6,0-2.6-8.1,0-4.6,10.4-5.4h0Zm20.7,27.3q0-1.2,18.2-4a1.337,1.337,0,0,1,1.1,1.4,42.753,42.753,0,0,1-.5,6.4q0,4.5-3.5,5.7-5.5.6-11.8,1.8h-0.6q-3.2,0-3.2-10.7,0.3,0,.3-0.6h0Zm16.2,21.3v2.1q2.5,0,7.7,11.5,3.5,9.5,5.5,9.5,1.8,0,4-6.6,0-4.5-8.6-12.1-4.7-5.2-7.2-5.2h-0.6a1.139,1.139,0,0,0-.8.8h0Zm-51.6,1.8q0,0.4.6,4.6v1.1l-0.3,1.8q-4.6,8.9-4.6,9.5,1.9,5.4,5.5,5.4,3.7,0,4.9-12.6v-0.9q-0.5-10.9-4.4-10.9a2.112,2.112,0,0,0-1.7,2h0Zm33.7-.3v1.1q3,3.9,4.3,15,0.5,5.8,3.2,5.8h1.1q1.6,0,3.5-6.4,0-2.1-2-5.7-4.5-7.4-8.7-10.7c-0.935.134-1.4,0.434-1.4,0.9h0Zm-17.8,1.1v0.3q3.1,11.1,3.1,15.3,0,5.2,2.3,5.2h1.2q3.4-2.5,3.4-5.5v-0.9q-4.8-15.5-9.2-15.5a1.371,1.371,0,0,0-.8,1.1h0Zm107.6-61.6q0,2.2,2.4,5.8l1.4-.3a5.565,5.565,0,0,1,2.6,2v0.3l-0.3.6-2-.3a1.686,1.686,0,0,0-1.5,1.4q0,0.9,2.6,4.9a29.412,29.412,0,0,0-1.7,8.9,2.3,2.3,0,0,0,.3.9q3.7,1.4,3.7,2.3-1.7.2-1.7,1.4a19.469,19.469,0,0,0,.6,3.5q-2.6,2.5-2.6,3.7a6.473,6.473,0,0,0,.9,2.9,17.85,17.85,0,0,1-.9,3.2q0,0.8,1.7,2.9v0.3l-1.7,9.2q0,2.3.3,2.3,0,4.6,1.1,4.6,0,0.6-.3,3.2,0.6,3.1,2.6,3.1c0,0.4-.368.6-1.1,0.6a2.753,2.753,0,0,0-2.9,2.3q0,1.1-5.8,5.2-5.7,0-5.7,4,2.1,2.9,4.9,2.9,3.7,0,10.1-6.9,4.7-2.2,13.2-10.4l-0.3-1.4h-1.1a11.566,11.566,0,0,0-7.8,4.3,15.951,15.951,0,0,1-1.4-3.2q0-4.5-1.2-5.4a3.455,3.455,0,0,0,1.4-1.5v-0.8q-1.2-1.8-2.3-1.8,2.6-1.7,2.6-5.7v-1.2q0-2.3-3.1-6.9,2-1.4,2-1.7v-0.3q-2-1.7-2-2.3l0.8-.9h0.3a3.661,3.661,0,0,0,2.3,1.2q0.6,0,.6-0.9h0.3q2,1.7,3.1,1.7h0.3q2.3-.4,2.3-1.1l2.6,0.3q1.2-1.5,1.8-1.5l9.2,0.9a11.533,11.533,0,0,0,6-3.2v-0.3a1.6,1.6,0,0,0-.8-1.7h-2.3a3.21,3.21,0,0,0-.9-1.7c-1.335.067-2,.267-2,0.6q-3.5,0-4.6,2.5-3.6-.2-3.8-0.2a72.692,72.692,0,0,0-9.8,1.4,1.237,1.237,0,0,0-1.4,1.4q-1.1-1.2-2.9-6.3v-1.7a1.96,1.96,0,0,1,1.2-1.2q0-2.3,5.4-2.3,1.3,0,5.8-3.1a17.455,17.455,0,0,1,4,1.7q1.8,0,1.8-1.5,0-2.8-4.4-4a15.086,15.086,0,0,0-7.7,2.3q-5.5-.6-5.5-4.6v-2.9l-0.3-.6,0.6-.5q2.1-3.5,2.6-3.5h1.1a6.492,6.492,0,0,0,3.2,1.5h1.4l1.5-.3v-0.9a16.219,16.219,0,0,1-1.8-1.7v-0.3a0.6,0.6,0,0,1,.6-0.6h2.3q-0.3-2.3-2-2.3-1.8,0-7.2,2a1.994,1.994,0,0,1-1.1-.6q-6.1-6.6-7.2-6.6-1.9,0-2.4,2.9h0Zm28,0.6q-5.2.7-5.2,2v1.1l0.3,0.6a4.663,4.663,0,0,0-2,2.6,2.3,2.3,0,0,1,.3,1.2h1.1a10.707,10.707,0,0,0,2.6-.6q1.4,0.1,1.4.6,4.4,4.6,7,4.6h0.8a21.231,21.231,0,0,1,3.8-7.8q0-4.2-7.2-6.6-1.7,0-2.9,2.3h0Zm-60.8,3.7q0,1.6,2.6,6.9,1.1,6.4,2.6,6.4a5.1,5.1,0,0,1-.9,2.3,20.731,20.731,0,0,1,.3,3.1v5.5a56.192,56.192,0,0,0,.9,8.9q-0.6,5.2-.6,6.4a34.347,34.347,0,0,0,.9,5.5l-0.3,1.7q0.9,6,.9,7.2v0.6q0,2.4-3.2,3.1-5.2,0-5.2,2.6v1.2q2.4,3.4,5.8,3.4h0.5a2.983,2.983,0,0,0,1.5-.3q10.5-4.7,15.2-6.3a2.3,2.3,0,0,0,.9.3l-0.3,2.6v0.8q2.2,7.2,3.8,7.2,2.3,0,3.1-5.7-0.3-3.8-.3-6.1v-6.9a1.6,1.6,0,0,0-.8-1.7q0.3-3.4.3-4.9v-1.2a7.765,7.765,0,0,0-2.1-4.6,3.612,3.612,0,0,0,2.1-.8l-0.6-6.6a8.878,8.878,0,0,1,.9-2.6,6.828,6.828,0,0,0-.6-3.2,14.737,14.737,0,0,0,.3-2.6v-2.6a1.541,1.541,0,0,0-1.2-1.7l-2,.6a16.074,16.074,0,0,0-2.3-.6h-0.6a2.318,2.318,0,0,0-1.4,2h-0.3a1.4,1.4,0,0,1-.9-0.9q-7.6.9-8.3,0.9l0.3-2.9v-0.3a23.512,23.512,0,0,0-2.9-2.9v-0.2l1.4-.3q3.8-4.3,7.5-4.3,4.6,0,4.6,2.8,0,3.8,4.3,4.4a2.035,2.035,0,0,0,2.1-1.2v-2a17.115,17.115,0,0,1-1.2-4v-0.6l1.7-2.6v-0.9q-2.4-5.7-4.6-5.7-0.9,0-5.2,3.1a35.268,35.268,0,0,0-7.7,2h-0.3q-6-6.9-7.8-6.9-2.9.3-2.9,2.6h0Zm61.9,9.8q-0.3,8.4-1.1,10.1,0,0.8,3.7,3.5h0.3a7.661,7.661,0,0,0,2.6-4.4,31.644,31.644,0,0,0-1.4-6.3l0.8-1.2v-0.5q0-1.1-4-1.8Zm-52.1,10.7h0.3q0,2.5,1.1,2.9h0.3a7.832,7.832,0,0,0,3.2-.9,5.623,5.623,0,0,1,1.7,2.6h0.9a4.16,4.16,0,0,1,3.7-2h0.3q0.9,0.2.9,1.7v1.7q0,0.9.9,9.8v0.6a27.61,27.61,0,0,1-4.1-.6,6.557,6.557,0,0,0-3.4,1.2l0.3,2q0,1.2-3.8,1.7-1.1,0-2.3-1.7v-0.3a7.366,7.366,0,0,0,1.4-2l-0.8-3.5a22,22,0,0,0,1.4-4.6q0-2.4-1.4-2.9a2.3,2.3,0,0,1-1.2.3l-0.5-.3a21.552,21.552,0,0,1,.2-2.6l-0.2-1.7a1.7,1.7,0,0,1,1.1-1.4h0Zm33.4,14.9,0.3,2.1q4,3.9,4,5.1,0,0.7,5.2,4.1,1.2,0,1.2-.9v-1.1a9.541,9.541,0,0,0-2.9-3.2q-3.9-7.5-6.1-7.5-1.7,1-1.7,1.4h0Zm23.3,0.3q0,1,1.8,3.2a6.43,6.43,0,0,1-1.8,3.7l-1.7-.2a4.536,4.536,0,0,0-2.3.8,8.881,8.881,0,0,1-2,4.3q-6.2,1.5-7.5,2.9,2.1,6.4,3.5,6.4h2a0.53,0.53,0,0,0,.6-0.6,5.292,5.292,0,0,0-1.2-2.6q1.2,0,4-3.5,11.9-5.9,12.1-7.5v-1.7q-3.5-4.6-6.9-5.5Zm-55,10.1q0-3,9.5-3.7a2.018,2.018,0,0,1,2.1,1.4h-0.3q0.3,5.8.3,6.3a12.523,12.523,0,0,1-1.5,5.2,14.723,14.723,0,0,1-2.6-.3,16.094,16.094,0,0,0-4,2.3h-0.3q-4.9-1.7-4.9-2.5,1.7-1.8,1.7-2.9v-2.3l-0.3-3.5h0.3Zm48.7,17.3q1,5.5,3.8,5.5a3.5,3.5,0,0,0,1.7-.6q2.7,2.3,2.9,3.2l-0.3.5a1.158,1.158,0,0,1-1.2-1.4h-1.7l-0.3,1.4q0,2,3.5,3.8a39.914,39.914,0,0,0,3.7-1.7h0.3l2.3,2.5h1.4q6.4-.8,6.4-1.7v-1.1q-1-1.7-6.1-2.9a20.883,20.883,0,0,0-6.6-3.2q-1-3.4-3.5-3.4-1.6-3.1-2.5-3.2a4.274,4.274,0,0,0-3.8,2.3h0Zm110.8-75.2q-8.2,8.1-18.2,8.1a6.824,6.824,0,0,1-3.4-.9q-4-6-4.6-6h-1.5c-0.335,0-.7.567-1.1,1.7q2.6,4.3,2.6,7.2v4.3a7.982,7.982,0,0,0,.5,3.2q-0.6,22.9-1.1,30.5-3.2,18.7-4.9,18.7-2.2,6.1-10.7,16.2-6.3,6-6.3,7.2a1.851,1.851,0,0,0,1.4,2h0.3q3.4,0,11-10.1a47.428,47.428,0,0,0,8-12.4,179.292,179.292,0,0,0,6.1-17.8q0.6,0,3.2.3,6.9-.5,6.9-0.9,6.9,0,6.9-2.6v-0.9q0-2.4-3.2-3.4-9.3,2.6-11.2,2.6-2.1,0-2.9-4.3,1-8.1,1.4-8.1,0-2.4,17.3-3.8a4.24,4.24,0,0,1,1.8,2.1,57.062,57.062,0,0,0-.6,6v3.8q0,1.4.8,7.7l-0.8,5.8a42.532,42.532,0,0,0,.6,6q-0.6,9.8-.6,17.3a3.532,3.532,0,0,1-1.8,3.2h-1.1q-6.7-6.6-7.5-6.6-2,0-2,1.7,0.5,2.1,7.2,10.1,2.5,6.6,5.2,6.6h0.8q1.5,0,1.5-.6,3.7-4,3.7-7.8v-1.7a25.979,25.979,0,0,0-.8-6.3,9.65,9.65,0,0,1,.2-1.2q0-2.4-.2-5.2a21.552,21.552,0,0,1,.2-2.6q-0.2-4.6-.2-9.2v-6.9q0-.4.5-6.9,0-.6-0.5-5.5v-6.6q0-2.6-.3-7.5,0.3-1.8,1.1-4.9a10.693,10.693,0,0,0-.6-2.6,24.6,24.6,0,0,1,1.2-6.9,32.468,32.468,0,0,0,2-4.6v-0.8a67.916,67.916,0,0,1-4.6-6.7h-1.7Zm-62.5,9.8v0.6a81.873,81.873,0,0,1,1.7,10.9,12.69,12.69,0,0,1-.3,2.3q0.4,0,.9,3.2,0.3,17.7.3,28.2v3.5q0,1.9-2.9,2.3-4.9,0-4.9,2.3a4.927,4.927,0,0,0,4,5.2h0.9q1.3,0,4.6-2,10.5-5.5,13.3-6.1a1.8,1.8,0,0,1,1.7,1.5,39.029,39.029,0,0,0-.6,4.9q0,5.4,2.9,7.4h0.8q1.5-.4,1.5-3.7v-20.7a135.5,135.5,0,0,1,1.1-15q0-4.6-.2-10.4l0.2-1.1q2.6-4.8,2.6-6.1v-0.3a8.932,8.932,0,0,0-4.3-5.7h-1.4l-1.5.3q-3.5,5.7-10.6,5.7a6.409,6.409,0,0,1-3.5-1.7q-2.6-5.2-4.3-6.3h-1.2a1.139,1.139,0,0,0-.8.8h0Zm42.3,4.3q10.8-3.1,13.6-3.1h1.7a2.824,2.824,0,0,1,2.6,1.7q0.3,12.5.8,14.1a1.556,1.556,0,0,1-1.1,1.2q-0.7,0-3.2-2.9h-0.8q-1.5.1-1.5,0.6a42.755,42.755,0,0,1-10.6,2q-2.3,0-2.3-4.9v-3.5q0-3.8.8-5.2h0Zm-25.3,6.1q2.9,0,2.9,6v7.5a1.608,1.608,0,0,1-1.2,1.8l-2.6-.3-4.3.8h-2.6a2.161,2.161,0,0,1-2.3-1.4q0.3-2.3.6-11,0-2,9.5-3.4h0Zm-9,21.6,9.6-1.7q2.3,0,2.3,6.6v7.2l-0.3,1.7q0,2-9.2,2.6h-1.2a2.834,2.834,0,0,1-2.6-2,10.662,10.662,0,0,0,.6-2.6v-4.9q0-6.1.8-6.9h0Zm123.25-9.3a11.657,11.657,0,0,0-3.05,1.2,6.961,6.961,0,0,0-2.3,2.1,5.311,5.311,0,0,0-.9,3.1,4.288,4.288,0,0,0,1.2,3,16.638,16.638,0,0,0,2.7,2.35q1.5,1.05,2.7,2a2.657,2.657,0,0,1,1.2,2.05,5.328,5.328,0,0,1-.55,1.95,7.529,7.529,0,0,0-.65,2.15,5.62,5.62,0,0,1-1.55,3.6,13.034,13.034,0,0,1-1.4,1.3,17.52,17.52,0,0,0-1.45,1.3,2.379,2.379,0,0,0-.95,2.1,2.749,2.749,0,0,0,1.35,1.9,5.755,5.755,0,0,0,2.9.8,5.66,5.66,0,0,0,3.85-1.7,14.58,14.58,0,0,0,2.95-3.7,5.429,5.429,0,0,0,1-2.35,9.042,9.042,0,0,1,.7-2.35,0.564,0.564,0,0,0,.2-0.3,10.567,10.567,0,0,0,1.05-2.45,20.952,20.952,0,0,0,.55-2.65q0.2-1.5.4-3.05t0.2-1.65a9.547,9.547,0,0,0-.65-2.95,21.313,21.313,0,0,0-1.7-3.65,19.554,19.554,0,0,0-2.25-3.15,3.327,3.327,0,0,0-2.4-1.35A13.43,13.43,0,0,0,743.283,47.184Zm83.45-27q0,5.2-8.4,14.7-1.8,5.2-9.5,11.5-5.7,7.2-7.8,8.9-3.7,1.9-3.7,3.5v1.1a4.094,4.094,0,0,0,1.4,1.5h2.1q2.1-1.6,5.1-3.5,7-7.6,9-8.3,1-2.6,1.7-2.6,1.3,0,2,7.2,0,1.2-1.7,13.5v7.8a67.048,67.048,0,0,1-2.9,20.4v0.3a2.953,2.953,0,0,0,2.6,1.8h0.3l1.7-1.5h0.3q0.9,0.2.9,2.3v1.8a3.116,3.116,0,0,0-.9.2,4.037,4.037,0,0,0-2.6-1.1,1.549,1.549,0,0,0-.9,1.1q1,4.9,3.2,4.9h0.9q3.4-1,3.4-4.9v-0.2l-1.1-11.3v-1.1q0-1.5.3-4.4-0.3,0-1.2-2l2-3.4-0.3-3.5a44.72,44.72,0,0,0,1.2-4.9q0-1-.3-6l-0.3-.6a4.39,4.39,0,0,1-2.3.6l-0.8-.6,0.2-1.4,3.8-5.2q0-4.7-.6-11.5,0-4,4-10.1,7.3-8.3,8.1-10.1-3.2-8.4-6.3-8.4-2.6.4-2.6,3.5h0Zm49.5,8.9q-2.9,3.5-22.2,3.5a179.385,179.385,0,0,1-19.5,1.7l-2.9-.3a2.3,2.3,0,0,0-1.8,2.3v0.3q0.8,4.3,5.8,4.3,7.5-.8,7.5-1.1,16.5,0,21-2l0.6,0.3q0.4,0,.6,5.1a17.057,17.057,0,0,0-.9,3.8q0.6,5.5.6,5.7v0.6q-1.5,11-1.5,11.8l0.9,6.4a116.181,116.181,0,0,1-1.1,12.1,2.967,2.967,0,0,1,.2,1.1v1.7q0,9.3-2,9.3h-0.3q-1.2,0-6.6-4.1a1.95,1.95,0,0,0-2,1.2v2q9,10.6,11.5,12.4h2q4.6-3,4.6-17.3,0-2.9-.2-7.2l0.5-9.5q-0.3-10.2-.3-18.4v-6.4q0-2.4-.2-7.8,1.2-2.8,3.4-2.8,7.4,0.3,8.4.3,4-.9,4-2.9v-0.9a49.529,49.529,0,0,1-6.6-6.3h-1.8Zm-23.3,18.7q-7.4,3.8-10.4,3.8h-1.4a7.036,7.036,0,0,1-4.6-2h-0.3l-1.5.3v1.4l2.1,12.4a42.491,42.491,0,0,1-1.2,9.2q1.1,8.6,4.3,8.6h0.3a3.2,3.2,0,0,0,2-.8q1.2-6.1,4.9-6.1,10.1,0,10.1-3.4v-0.3q0-.9-2.6-5.5l1.5-6.6q2.5-4.5,2.5-5.2v-0.6q0-3.3-4.9-5.2h-0.8Zm-11,13.3q0-4.3,7-4.3,1,0,2.5,3.4c-0.135,1-.3,1.5-0.5,1.5q-1.6,7.7-5.2,7.7a6.268,6.268,0,0,1-4.3-1.7,31.313,31.313,0,0,0,.5-6.6h0Zm120.7-39.2a33.9,33.9,0,0,0,.5,5.8,15.317,15.317,0,0,1-.8,3.4q-5.4,14.3-10.1,19.6v1.5q0,0.7,2.3.8a4.883,4.883,0,0,0,2-.5,43.653,43.653,0,0,0,6.4-10.4q0.4-4.9,2-4.9a1.237,1.237,0,0,0,1.4-1.4q0-.9,6.1-6.4v-1.4q-2.4-4.1-3.8-6.1-1.8-3.7-3.4-3.7h-1.5q-0.9,0-1.1,3.7h0Zm-31.4,1.5q0.9,3.6,7.7,8.6a4.2,4.2,0,0,0-1.4,2.3q4.3,11,5.8,11h1.4q1.6-.8,4.6-9.5,4.3-6.2,4.3-7v-0.8a2.162,2.162,0,0,0-1.4-1.2,2.3,2.3,0,0,1-.9.3q-5.2,6.1-6.9,6.1-1.4,0-3.1-2.1-5.1-10.3-7.5-10.3-2.3,0-2.6,2.6h0Zm-8.1,18.7q1.2,2.4,1.4,8.3a99.745,99.745,0,0,0,1.8,12.1l4.9,15.9q0,1.4-5.8,7.8-3.8,2.2-10.1,8.6-10.2,7.3-11.2,8.3v1.5a1.905,1.905,0,0,0,1.2,1.1h2q8.6-6.3,10-6.3,4.2-4.6,4.9-4.6,9.2-9.5,10.7-9.5,3.7,0,6.6,4.6,15.3,12.4,28.8,12.4h0.9q3.4,0,3.4-2.6v-0.3a5.089,5.089,0,0,0-.5-2.3q-5.2-10.2-5.2-13.8,0-3.3-2.9-3.8h-0.3a0.593,0.593,0,0,0-.6.6v1.7a16.119,16.119,0,0,0,1.2,5.8q0.5,6.9,2,8.1c-0.2,0-.3.067-0.3,0.2a6.31,6.31,0,0,1-2.9-1.4,10.024,10.024,0,0,0-1.1.3q-2.5,0-12.1-4.9-10.5-6.5-11.2-10.4v-0.3q0-.9,6.3-7.2l2.6-4.6q5.2-4,7.5-12.1a3.473,3.473,0,0,0-1.5-1.4h-1.4l-3.7,3.5q-3,6.7-5.2,8-4.9,7.8-6.7,8.7-3.8,0-8.3-21.6-0.8-13-3.2-13-2,0-2,2.6h0Zm-12.4-.3q2,7.3,2,8.6,0,1.5-.2,4.4,0.2,3.3.2,4.9a20.587,20.587,0,0,1-.5,3.1q-3.8,7.4-3.8,8.1v1.1q1.4,4.4,4.3,4.4h0.3q3.5,0,5.2-18.5a47.992,47.992,0,0,0-.9-6.6q-0.7-11.5-4-11.5h-1.1q-0.7.2-1.5,2h0Zm52.4,14.7v0.6q0.1,0.6,11.3,11.5,4,5.7,6.3,5.7,2.1,0,2.9-5.1a8.878,8.878,0,0,0-.9-2.6q-11.3-9.2-17.5-11h-1.8a2.3,2.3,0,0,1-.3.9h0Zm75.8-39.3q0,8.2-18.7,24.9-11.49,8.8-11.5,11.3v0.4a2.7,2.7,0,0,1,.6.2l4.3-2.2q19.41-15.6,21.9-16.6a3.162,3.162,0,0,0,1.7.5h0.4a168.093,168.093,0,0,0,17.3-1.3h1.1q-1.8,4.4-7.7,11.8-0.8.9-21,2.2-8.295,0-8.3,1.7t5.7,3.3q13.41-1.3,19-1.3a1.148,1.148,0,0,1,1.3,1.3v0.4c0,1.534.14,3.767,0.4,6.7l-1.1,1.5q-36.495,1.5-36.5,3.3,0,2.7,5.7,4.1h1.2q21.21-2.5,26.4-2.5h3a1.148,1.148,0,0,1,1.3,1.3v7.4c-1.13,0-1.7.134-1.7,0.4q-25.1.9-25.1,2.9v0.4q0,0.9,5.3,2.5h2l2.6-.5c0,0.334-.1.5-0.3,0.5q0-.4,16-1.7l1.2,0.6q-0.39,18.6-1.5,20.4h-0.6a5.522,5.522,0,0,1-2.8-.9q-11.19-6.5-13.3-6.5v0.8q0.21,1.2,16.6,16.1h0.8q4.2,0,5.2-10.8v-7.9l0.1-.3a1.353,1.353,0,0,1-.1-0.8v-9.9q0-1.1,4.7-1.6,18.21,0,18.2-2.1t-5.7-3.8v-7.4l1.1-1.5q6.6,0,17.5-.4a2.3,2.3,0,0,0,2.2-1.4v-0.3c0-1.933-1.86-3.3-5.6-4.1a68.9,68.9,0,0,1-12.1,1.6h-1.8q0-7.3,4.4-10.9v-0.2q0-2.3-6.2-6.1h-0.2q-4.59,4.1-13.5,4.1,10.11-13.6,13.4-13.6v-0.4q0-3.6-4.5-7.4h-0.5q-5.1,6.1-23.6,6.1a94.494,94.494,0,0,1,9.6-8.8v-0.5q-2.79-6.7-6.6-8.8c-0.46,0-1.03,1.267-1.7,3.8h0Zm10.9,35.7q0-2.4,15-2.4v2q0,2.4-.4,6.6,0,1.8-14,2.5c-0.4-.6-0.76-2.266-1.1-5a3.015,3.015,0,0,1,.5-0.8c-0.33,0-.5-0.4-0.5-1.2,0.34,0,.5-0.566.5-1.7h0Zm12,12.4a1.106,1.106,0,0,1,1.3,1.2,56.443,56.443,0,0,1-.4,6.2q0,2.2-11.3,2.9c-1.06-.533-1.6-1.1-1.6-1.7v-7.8Zm80.8-51.7q0,3,.3,11.5a32.428,32.428,0,0,1-.6,3.5c-0.8,1.867-3.46,2.8-8,2.8h-3.2q-5.6,0-15.5.3a2.958,2.958,0,0,0-1.5-.3,2.327,2.327,0,0,0-1.4,2v0.6c0,1.534,1.34,2.3,4,2.3h3.8l8-1.1h7.5c2.67,0,4,.567,4,1.7q-0.6,5.8-3.4,5.8a63.59,63.59,0,0,0-12.4,1.1c-3.46,0-5.2.5-5.2,1.5,0,1.4,1.54,2.167,4.6,2.3a74.843,74.843,0,0,0,9-1.5c2.27,0,3.4.767,3.4,2.3q0,2.4-5.2,5.8-11.19.8-18.4,1.7a14.854,14.854,0,0,1-2.6-.3l-2.6.3c-2.4-.2-3.63-0.3-3.7-0.3a1.408,1.408,0,0,0-.9.9v0.9c0,1.534,1.34,2.567,4,3.1h0.6a14.246,14.246,0,0,0,5.2-1.1q14.1-.7,14.1-1.2a2.223,2.223,0,0,1,2,1.7,7.123,7.123,0,0,1-1.1,2.9q-4.4,5.3-4.6,6.1-0.8,0-15.3,13.8-4.695,2.7-4.9,4.3a3.2,3.2,0,0,0,.9,1.7q3.6,0,18.1-13.2c1.8-2.333,3.14-3.5,4-3.5q1.5,0.5,1.8,5.8v0.3q0,7.5.3,18.4a38.15,38.15,0,0,1-1.2,5.5q0,7.2,4.6,9.2h0.3q1,0,1.7-4.6,0-1.5,11-2.3h3.4a3.973,3.973,0,0,1,2.6.9q1.5,4.9,3.5,4.9h1.1q1.3,0,2.6-7a20.71,20.71,0,0,0-.3-3.1q0.9-3.6.9-19.9v-0.3a28.725,28.725,0,0,1,.9-5.5v-0.5c0-2.733-.96-4.266-2.9-4.6h-0.3c-0.66,0-2,.667-4,2q-14.3,1.1-17.3,2.6a6.709,6.709,0,0,1-6.6-4.1v-0.8a42.272,42.272,0,0,0,7.2-9.2q0-2.5,16.1-3.2a2.115,2.115,0,0,0,1.1.3q0.9,0.8,8.4,12.6,5.7,11,6,11,3.1,8.3,6.9,8.3l2.6-.2q9-.4,9-2.6c0-1-1.06-1.866-3.2-2.6q-7.8,0-13-7.5-10.59-13.3-12.1-17c0-1.533.87-2.3,2.6-2.3q9,0,11-1.2v0.3q2.01,0,7.5-.3c2.27,0,3.4-.666,3.4-2q0-3-5.2-4.3a52.775,52.775,0,0,1-12.9,3.2q-14.895.6-19.3,2c-3.06-.266-4.6-0.833-4.6-1.7a11.328,11.328,0,0,1,1.4-4.9q0-2.9,12.4-2.9c0.14,0,1.37.1,3.7,0.3a17.631,17.631,0,0,1,2.6-.6c1,0,2.64.1,4.9,0.3,1.94-.466,2.9-0.966,2.9-1.5v-0.5q0-2.5-3.7-3.5h-0.3l-2,.6q0,1.5-15.9,2.6c-1.06,0-1.73-.766-2-2.3,0-2.866,1.44-4.8,4.3-5.8q12.6-.6,15.3-1.4a22.686,22.686,0,0,0,3.7.5q6.9,0,6.9-2.8c-1.86-2.733-3.4-4.1-4.6-4.1h-0.5q-6.8,3.8-9.5,3.8h-8.1a10.777,10.777,0,0,0-2.6.6,3.47,3.47,0,0,1-1.4-1.5v-0.3q0-3.7,3.1-10.1c-0.66-2.133-2.4-4.233-5.2-6.3a3.315,3.315,0,0,0-2,.9h0Zm8.1,61.3h1.7q1.3,0,1.5,4.3,0,5.8-.6,5.8-0.495,14.7-2.9,14.7c-0.26,0-1.23-.1-2.9-0.3a68.315,68.315,0,0,1-12.9,2c-1.33,0-2-1.335-2-4v-4a4.155,4.155,0,0,1,1.1-2.9q9.6-.6,11.8-1.2a8.74,8.74,0,0,0,2.3.3,1.844,1.844,0,0,0,2-1.4q-0.8-3.8-3.1-3.8h-0.3q-4.59,2-6.6,2h-6.7q-2,0-2-7.7c0-1.533,2.04-2.3,6.1-2.3,1.07,0,2.6.067,4.6,0.2a36.462,36.462,0,0,0,8.9-1.7h0Zm94.1-58.3q0,1.5,3.2,6l-0.3,1.5a34.622,34.622,0,0,0,.6,5.5c0,1.867-1.06,2.8-3.2,2.8h-3.2q-3.5,0-12.7.9h-0.5q-1.89,0-7.8-5.2a1.769,1.769,0,0,0-2,2,72.935,72.935,0,0,1,1.4,8.4q-1.695,25-2.9,29.9,0,5.2-7.5,23.9-5.295,9.2-6,11.3v0.3a1.928,1.928,0,0,0,1.2,1.1h0.8q3.3,0,8.9-11.2,7.2-20.6,7.2-28.8,2.61-8.4,2.6-22.5,0-3.2,2.3-4.3,5.5-1.2,22.2-3.5a21.971,21.971,0,0,1,4.3.9,44.018,44.018,0,0,0,9.3-1.4l6,0.5,7.2-.5a35.645,35.645,0,0,0,4.6.3c1.34,0,2.2-.866,2.6-2.6q-1.2-4.6-4.3-4.6l-2,.2q0,1.9-18.8,4.1-5.49-.9-5.7-2.6,0-2.9,2.3-8.9v-0.6q-2.1-3.3-8.1-4.6c-1.13.667-1.7,1.234-1.7,1.7h0Zm18.7,25.1q0,1-26.5,3.1a14.149,14.149,0,0,0-2.3-.3,2.378,2.378,0,0,0-1.1,1.5q0,2.3,6.3,2.3a14.805,14.805,0,0,1,2.9-.3c4.74-1.333,7.7-2,8.9-2h6.6a0.53,0.53,0,0,1,.6.6,4.559,4.559,0,0,1-1.1,2.5q-5.19,7-7.5,7-1.995,0-5.5-2.1a1.408,1.408,0,0,0-.9.9v0.6l0.9,1.1q5.805,5.4,5.8,6.4a1.009,1.009,0,0,0-.6.8q0,2-20.8,2c-1.66,0-2.7.5-3.1,1.5q0.51,2.6,3.4,2.6,2.205,0,17-1.5a4.082,4.082,0,0,1,3.5,4.4v3.4a31.771,31.771,0,0,1-1.2,8.1l0.6,3.7q0,2.3-.3,8.1l1.2,1.4v0.3a13.754,13.754,0,0,1-4.9,2.9h-0.6q-5.3-4-6.6-4c-0.6,0-.9.166-0.9,0.5v0.6a57.843,57.843,0,0,0,6.3,6.1q3.81,5.1,5.5,5.1h1.2a1.707,1.707,0,0,0,1.1-.8c1.14,0,2.1-2.967,2.9-8.9q-0.6-4.9-.6-5.8,0.6-7.3.6-8.6v-0.9q0-4.3-.3-11.8a2.288,2.288,0,0,0,.3-1.2q1.305-3.7,4.6-3.7h3.2a72.958,72.958,0,0,0,9.2-.9h1.1q1.5,1.1,1.5,1.5v0.3a26.662,26.662,0,0,1-2,4.3c0,1.534.67,2.3,2,2.3h1.1q0.3,0,4.1-4.9,4.605-3.8,4.6-5.2v-1.2a9.029,9.029,0,0,0-4.9-4,10.543,10.543,0,0,0-3.5,1.5q0,1.9-17.8,2.8h-0.6l-0.6.3c-0.8,0-1.76-1.733-2.9-5.2q0-2.9,9.3-9.2,6.9-2.1,6.9-4.9v-1.7c0-.866-1.26-1.733-3.8-2.6-1.53.2-2.3,0.6-2.3,1.2h0Z"/>
</svg>
