<svg xmlns="http://www.w3.org/2000/svg" width="228" height="60" viewBox="0 0 228 60">
  <defs>
    <style>
      .cls-1 {
        fill: #fff;
        fill-rule: evenodd;
      }
    </style>
  </defs>
  <path id="_23_09_27" data-name="23/09/27" class="cls-1" d="M8.95,13.506q-5.525,3.9-5.525,7.963,0.7,4.279,3.2,4.279H6.838q2.112,0,3.2-2.708a5.055,5.055,0,0,0-2.167-4.008V18.652q0-1.625,6.988-3.088,0.92,0,.921.217,6.5,0,7.8,5.254v1.95a3.325,3.325,0,0,1-.433,1.679q0,4.009-8.775,7.042Q7.867,34.74,5,38.26q-1.9,2.167-3.3,8.558,0,1.572,2.167,2.329Q7.7,45.682,9.438,45.681H9.871a11.767,11.767,0,0,1,2.546.65q3.683,2.817,6.771,2.817h0.867a8.057,8.057,0,0,0,7.313-7.312,2.286,2.286,0,0,0-1.192-2.329h-0.7a1.867,1.867,0,0,0-1.029,1.246l0.217,0.488q0,3.684-5.038,4.333h-1.3q-0.975,0-6.879-3.033-2.222,0-5.2.217l-0.325-.163q0-.6.433-0.6,0-2.058,4.279-5.417Q23.467,31.6,23.467,29.81q2.328-1.733,3.25-6.392a45.727,45.727,0,0,1-.65-4.821q-4.28-6.608-10.129-6.608h-0.65A43.132,43.132,0,0,0,8.95,13.506h0Zm27.192-.812H35.275l-0.433-.217q0,0.217-.65.217-1.788,0-2.817,4.55a0.192,0.192,0,0,1,.217.217v0.433l-0.217,1.083,1.083,1.083h0.65l0.867-.65q1.191-3.9,1.517-3.9h5.417l0.433,0.217q0-.325,4.767-0.433a2.674,2.674,0,0,1,1.517.433l-2.6,4.117q-6.067,6.717-6.5,8.017,0.27,1.517.867,1.517h0.433a16.081,16.081,0,0,1,4.333-1.733h1.733q6.933,2.059,6.933,8.017v1.083a9.973,9.973,0,0,1-1.3,4.55q-4.6,4.117-6.717,4.117H40.475a6.953,6.953,0,0,1-5.633-2.383q1.3-2.87,1.3-3.033-0.65-3.466-3.25-3.467-1.409,0-3.033,2.817l0.65,3.25q5.2,6.284,10.183,6.283h3.033q2.653,0,7.367-2.817a14.921,14.921,0,0,0,4.333-8.45q-0.272-6.066-1.083-6.067,0-1.788-4.55-5.417-4.93-1.516-5.2-1.95a6.1,6.1,0,0,1,1.083-2.167q7.583-6.987,7.583-8.233Q52.5,12.261,51.525,12.26q-4.009.217-6.717,0.217H39.825l-1.083-.217q0,0.434-2.6.433h0ZM83.1,5.815q-1.9,3.467-2.817,3.738-2.275,5.525-3.358,5.633-2.167,5.472-2.817,5.471a26.828,26.828,0,0,1-3.2,5.633,22.143,22.143,0,0,1-4.5,7.313,49.659,49.659,0,0,1-4.171,8.071l-6.175,9.75a2.057,2.057,0,0,0,1.679,1.9q2.058-.109,2.058-1.9,4.17-7.1,4.171-7.692,1.9-2.87,5.633-9.967a35.8,35.8,0,0,0,4.117-7.1,71.059,71.059,0,0,0,4.117-7.15q4.116-6.283,4.117-7.15,3.358-4.441,3.575-6.013A2.121,2.121,0,0,0,84.4,5.435Zm13.379,7.1q-3.142,0-5.633,5.2-1.788,0-3.25,11.05a11.42,11.42,0,0,1,.217,1.95,17.038,17.038,0,0,1-.217,2.383q1.408,6.88,2.6,8.45,4.225,5.634,5.2,5.633,0.378,1.572,7.583,2.167h0.434q2.6,0,7.15-4.983,2.382-3.2,2.383-3.683,2.112-3.033,2.817-10.183a14.421,14.421,0,0,1-.65-3.25l0.216-.433q-1.734-7.2-3.683-9.967-5.309-5.85-11.483-5.85a5.806,5.806,0,0,0-3.684,1.517h0Zm-4.117,10.4a12.627,12.627,0,0,1,2.167-4.767,10.142,10.142,0,0,1,6.067-3.25h0.65a9.728,9.728,0,0,1,4.117,1.083q6.5,5.2,6.5,14.95a27.07,27.07,0,0,1-1.3,7.8q-4.171,6.5-9.967,6.5-7.367-2.437-7.367-6.717-1.68-1.408-2.383-6.283V27.21a12.721,12.721,0,0,1,1.517-3.9h0Zm36.02-11.267a13.256,13.256,0,0,0-6.716,3.467q-2.33,1.625-3.25,6.933l0.216,0.867-0.216,1.083q0,2.547,3.9,7.367,0,3.088,8.667,4.117,7.8-1.841,7.8-3.033h0.65l0.433,0.217q0,5.58-4.984,9.533l-4.333,2.383a1.06,1.06,0,0,1-1.083-1.083q-0.7-2.6-3.033-2.6h-0.217a3.231,3.231,0,0,0-3.25,2.383q0,4.6,6.067,5.633H129.9q2.871,0,6.067-3.033,4.5-3.25,7.367-13a16.879,16.879,0,0,1-.217-2.383v-3.25l0.217-.433q-0.651-6.445-1.517-7.583,0-1.408-4.984-6.067a28.6,28.6,0,0,0-8.45-1.733v0.217Zm-6.066,8.233q1.515-4.766,9.533-4.767,6.5,1.9,6.5,4.117a5.713,5.713,0,0,0,1.3,3.25q-0.11,2.167-.433,2.167,0,3.954-1.95,5.633-2.493,1.517-7.8,1.95a6.976,6.976,0,0,1-4.767-1.95q-3.034-2.328-3.033-7.583a11.543,11.543,0,0,1,.65-2.817h0Zm48.7-14.463q-1.9,3.467-2.817,3.738-2.275,5.525-3.358,5.633-2.168,5.472-2.817,5.471a26.826,26.826,0,0,1-3.2,5.633,22.135,22.135,0,0,1-4.5,7.313,49.654,49.654,0,0,1-4.17,8.071l-6.175,9.75a2.057,2.057,0,0,0,1.679,1.9q2.058-.109,2.058-1.9,4.17-7.1,4.171-7.692,1.895-2.87,5.633-9.967a35.8,35.8,0,0,0,4.117-7.1,71.082,71.082,0,0,0,4.117-7.15q4.114-6.283,4.116-7.15,3.359-4.441,3.575-6.013a2.12,2.12,0,0,0-1.137-.921Zm11.591,7.692q-5.524,3.9-5.525,7.963,0.7,4.279,3.2,4.279H180.5q2.112,0,3.2-2.708a5.055,5.055,0,0,0-2.167-4.008V18.652q0-1.625,6.988-3.088,0.919,0,.92.217,6.5,0,7.8,5.254v1.95a3.321,3.321,0,0,1-.433,1.679q0,4.009-8.775,7.042-6.5,3.034-9.371,6.554-1.9,2.167-3.3,8.558,0,1.572,2.167,2.329,3.845-3.466,5.579-3.467h0.433a11.755,11.755,0,0,1,2.546.65q3.683,2.817,6.771,2.817h0.867a8.057,8.057,0,0,0,7.312-7.312,2.286,2.286,0,0,0-1.192-2.329h-0.7a1.868,1.868,0,0,0-1.029,1.246l0.217,0.488q0,3.684-5.038,4.333h-1.3q-0.975,0-6.879-3.033-2.221,0-5.2.217l-0.325-.163q0-.6.433-0.6,0-2.058,4.28-5.417,12.837-4.983,12.837-6.771,2.328-1.733,3.25-6.392a45.845,45.845,0,0,1-.65-4.821Q195.446,11.99,189.6,11.99h-0.65a43.131,43.131,0,0,0-6.338,1.517h0Zm25.459-.054h-0.434a6.856,6.856,0,0,1-2.166-.867q-1.41,0-1.734,3.683A7.15,7.15,0,0,1,203.95,18v0.433a3.638,3.638,0,0,1-.433,1.733q0,7.15,1.95,7.15a2.384,2.384,0,0,0,1.733-2.383h-0.217q0-9.1,4.334-9.1a7.815,7.815,0,0,1,5.85,2.817q5.2,0.759,5.2,1.3v0.217a7.925,7.925,0,0,1-1.084,2.6q-0.379,2.6-5.2,9.533-3.9,9.48-3.9,14.95a2.1,2.1,0,0,0,1.95,1.733,3.186,3.186,0,0,0,1.734-1.083l0.866-4.767-0.216-1.517a27.126,27.126,0,0,1,1.3-4.55q6.12-11.1,7.583-16.25a11.745,11.745,0,0,1,1.3-5.417q-0.487-3.25-1.3-3.25h-0.433a2.519,2.519,0,0,0-1.3.433q-1.788,3.25-2.817,3.25a10.912,10.912,0,0,1-1.733-.217q-4.823-3.466-6.717-3.467a22.216,22.216,0,0,0-4.333,1.3h0Z"/>
</svg>
