<svg xmlns="http://www.w3.org/2000/svg" width="328" height="200" viewBox="0 0 328 200">
  <defs>
    <style>
      .cls-1 {
        fill: #fff;
        fill-rule: evenodd;
      }
    </style>
  </defs>
  <path id="朝夕" class="cls-1" d="M58.707,34.4q0.8,0.6,1.3,10.2t-0.3,10.8q-0.4.8-6,.6-5.4,0-5.8-.6-2.2-2.6-12-2.8a9.6,9.6,0,0,0-2.9,0,2.927,2.927,0,0,0-1.1,1,4.441,4.441,0,0,0-.2,3,3.1,3.1,0,0,0,.5,1.5,3.57,3.57,0,0,0,1.7.5,8.792,8.792,0,0,1,3.6,1.3,6,6,0,0,1,2.2,1.9q0.2,0.8,3.8.6,3.8-.2,4.3-0.8t5-1.5q4.5-.9,5.7-0.3a2.032,2.032,0,0,1,1.2.9,11.614,11.614,0,0,1,.2,2.9q0.2,9.4-1.4,12.8a2.01,2.01,0,0,1-.9,1.2,5.922,5.922,0,0,1-1.9.2,8.061,8.061,0,0,1-1.5-.1,1.509,1.509,0,0,1-.8-0.4,11.34,11.34,0,0,1-.9-1.1,6.513,6.513,0,0,0-2.6-2,2.514,2.514,0,0,1-1.8-.8,3.1,3.1,0,0,0-2.2-1.2,4.491,4.491,0,0,1-2.2-1.2q-0.4-.6-3.1-0.9c-1.8-.2-2.769-0.166-2.9.1a13.175,13.175,0,0,0-.6,1.8,4.051,4.051,0,0,0,1.2,3.2l1.6,1.6V81q0.2,4.4.9,4.9t0.5,2.5q-0.4,2.8,0,14,0.2,8.6-.4,9.6-0.6.8-.8,6-0.4,5.2-.6,6t1.5,2.1a5.264,5.264,0,0,0,3.1,1.3,4.556,4.556,0,0,0,2.6-1,2.68,2.68,0,0,0,1.4-2c0-.531.531-1.4,1.6-2.6a6.786,6.786,0,0,0,1.8-3,1.429,1.429,0,0,1,.6-1,9.223,9.223,0,0,1,2.2-.4q4-.2,5,1.2,0.4,0.4.4,5.2v5l-1.6,1.4-1.4,1.6-10-.6q-10.4-.4-14-0.2-4,.2-5-0.6a7.889,7.889,0,0,0-3.2-1.1,5.263,5.263,0,0,1-2.4-.7c-0.134-.4-0.469-0.5-1-0.3a2.155,2.155,0,0,0-1.2,1.1q-1.2,3.2,1.8,6.4l1.4,1.6h9.2q9,0,10.4-.8a15.291,15.291,0,0,1,4.2-1.4,13.33,13.33,0,0,0,3.6-1,10.2,10.2,0,0,1,3.9-.7q2.7-.1,3.1.3,1.4,1.6,1.4,7.6a80.863,80.863,0,0,1-1,12q-0.4,3-.6,5.8-0.2,2.4-.8,3a3.333,3.333,0,0,0-.8,1.9,7.187,7.187,0,0,0,0,2.4c0.131,0.731.4,1.1,0.8,1.1a1.178,1.178,0,0,1,1,.6c0.4,0.4,1.331.6,2.8,0.6a5.5,5.5,0,0,0,2.2-.3,8.535,8.535,0,0,0,1.8-1.5,6.4,6.4,0,0,1,2.4-2q0.6-.2.9-1.7a2.518,2.518,0,0,1,1.1-1.9q0.8-.4,1-3a8.8,8.8,0,0,1,1.2-4q0.8-1.8.6-9.4-0.2-7.4.1-8.4a2.215,2.215,0,0,1,1.7-1.4,9.647,9.647,0,0,0,2.6-1,55.263,55.263,0,0,1,8.4-.8,36,36,0,0,0,7.5-.7,5.257,5.257,0,0,0,2.7-2.9l0.8-1.4-1.2-1.4a2.844,2.844,0,0,0-3.8-.6l-2,1a1.245,1.245,0,0,0-1,1q0,1.2-10.6,1h-5.2v-4.8q0-4.8-.8-5.6a2.3,2.3,0,0,1-.8-1.6q0-1.8,4.2-2,2.8-.4,3.5.2t0.3,2.8q-0.6,3,.8,3.4a1.207,1.207,0,0,1,.8.7q0,0.3,1.8.3,3.4,0,4.4-2.2a17.4,17.4,0,0,1,1-1.8,6.679,6.679,0,0,0,.6-3q0-2,.8-2.4,2-1.4,1.4-13.6-0.4-14.2.6-16.8a17.828,17.828,0,0,0,1.2-3,2.874,2.874,0,0,1,1-2,2.7,2.7,0,0,0,.9-1.7,2.487,2.487,0,0,0-.1-1.9,5.515,5.515,0,0,0-2.2-1.2,8.219,8.219,0,0,1-2.2-1.8,1.291,1.291,0,0,0-.8-1,1.274,1.274,0,0,1-.8-1,1.79,1.79,0,0,0-1.9-.7,2.426,2.426,0,0,0-1.9.7,3.323,3.323,0,0,1-1.3.7,1.04,1.04,0,0,0-.9.9q0,0.6-1.8,1.2c-1.2.534-1.869,1-2,1.4a2.669,2.669,0,0,1-1.7.7,2.95,2.95,0,0,0-1.9.9q-1,1.2-2.8-.4a4.2,4.2,0,0,1-.9-2.4,2.49,2.49,0,0,1,.5-2q1-.8,0-2.8-1.4-3,0-4.6a6.786,6.786,0,0,0,1-2.2,2.215,2.215,0,0,1,1.2-2q0.8-.4,7.8-0.6,6.8-.4,6.8-0.8t1.8-.1a4.034,4.034,0,0,0,3-.5,2.938,2.938,0,0,0,.8-0.7,2.3,2.3,0,0,0,.3-0.8q0.1-.5.3-1.9,0-2.8-.8-3.5a1.361,1.361,0,0,0-1.6-.3,6.435,6.435,0,0,1-2.2.7q-1.6.3-1.8,0.9c-0.134.4-.734,0.669-1.8,0.8a5.09,5.09,0,0,0-2.4,1.2q-0.8.8-4.5,1.3a16.976,16.976,0,0,1-5.5.1,1.591,1.591,0,0,1-1.3-1c-0.2-.531.031-0.866,0.7-1a5.561,5.561,0,0,0,1.4-2.2,26.753,26.753,0,0,1,2.6-4.2c0.131-.131.431-0.5,0.9-1.1s0.766-.966.9-1.1a5.984,5.984,0,0,0,1.6-3q1.2-4.4-.8-4.4a4.937,4.937,0,0,1-2-.8,10.238,10.238,0,0,0-4-1.2,10.872,10.872,0,0,1-3.4-.6,6.129,6.129,0,0,0-4.2-1.6,2.187,2.187,0,0,1-1.9-.7,2.71,2.71,0,0,0-1.9-.9,3.394,3.394,0,0,0-1.5.2,4.423,4.423,0,0,0-.9,1.4c-0.534,1.2-.669,1.869-0.4,2h0Zm9.9,24.2a1.1,1.1,0,0,1-1.3-1.3,0.949,0.949,0,0,1,1-.5,0.709,0.709,0,0,1,.8.8A0.949,0.949,0,0,1,68.607,58.6Zm8.9,26.2q0.4,4.4,1,5.4a3.083,3.083,0,0,1,.6,1.9,2.3,2.3,0,0,1-.6,1.7q-1,.6-0.4,10.4,0.2,6.2-.4,6.9t-9.8.9q-9.6,0-11.6-.2a5.054,5.054,0,0,1-2-.5,3.256,3.256,0,0,1-.8-1.5,16.013,16.013,0,0,1-.4-4.4,31.583,31.583,0,0,1,.2-4.4,2.531,2.531,0,0,1,1.2-1.4,3.039,3.039,0,0,0,1.2-1q0.4-.6,8-0.8t7.8-1a1.273,1.273,0,0,1,.8-1,0.511,0.511,0,0,0,.5-0.5,2.074,2.074,0,0,0,0-.9,0.475,0.475,0,0,0-.5-0.4,1.9,1.9,0,0,1-1.1-.7,1.457,1.457,0,0,0-1.7-.3q-0.4.4-3.3,0.7t-5.7.5a23.61,23.61,0,0,1-4.4,0,4.141,4.141,0,0,1-3.2-1.6q-0.8-1.2-.8-4.4,0.2-5.4,2.6-6.8,1.6-.8,8.6-1.8a11.971,11.971,0,0,0,3.6-.8,19.877,19.877,0,0,1,4.8-.6q3.6,0,3.9.7a3.137,3.137,0,0,0,.9,1.2q0.6,0.5,1,4.7h0Zm59-34.2q-2,2-2,2.8a0.754,0.754,0,0,1-.9.8,3.291,3.291,0,0,0-2.1,1.2q-0.8,1-3.2,1-4.6,0-5.6,1.4-0.2.4-3.6,0.4h-3.6l-1.6-1.8a6.232,6.232,0,0,0-3.2-2,6.169,6.169,0,0,1-2.6-1,8.681,8.681,0,0,0-4-1q-2.8-.4-3.2.9t0,10.1q0.6,10.2,1,10.8,0.4,0.8-.2,3.2a12,12,0,0,0,0,4.4q0.6,1.8.2,2.4-0.4.4-.4,14.2,0,26.4-1.8,26.8a1.271,1.271,0,0,0-.4,1.2,2.159,2.159,0,0,1-.6,1.6,2.163,2.163,0,0,0-.6,1.6,1.578,1.578,0,0,0,.4,1.3q0.4,0.3.4,2.1a3.069,3.069,0,0,1-.5,2.2,5.13,5.13,0,0,0-1,2.4,14.376,14.376,0,0,0-.5,3.4,2.278,2.278,0,0,1-.9,1.9,1.861,1.861,0,0,0-.9,1.3,2.2,2.2,0,0,1-.8,1.4q-0.8.8-1,3.8t-1.2,4a2.8,2.8,0,0,0-1,1.5,2.456,2.456,0,0,1-1,1.4,3,3,0,0,1-1.4.9,1.421,1.421,0,0,0-1.1,1,2.566,2.566,0,0,1-1.2,1.3,2.438,2.438,0,0,0-1.1,1.7q-0.6,1.4-1,1.4t-0.8,1.2q-0.4,1.2-.9,1.2a4.7,4.7,0,0,0-2,1.5,7.913,7.913,0,0,0-1.5,1.7,0.965,0.965,0,0,1-1,.8q-1.2.2-1.2,0.6a1.859,1.859,0,0,1-1.2,1,9.868,9.868,0,0,0-2.6,2.2l-1.2,1.4,1.4,0.8q2.4,1.4,5.4-1a3.483,3.483,0,0,1,1.8-1,1.2,1.2,0,0,0,1-.9,1.2,1.2,0,0,1,1-.9,1.249,1.249,0,0,0,1-1c0.131-.669.731-1.1,1.8-1.3s1.6-.434,1.6-0.7a2.791,2.791,0,0,1,.7-1,15.548,15.548,0,0,1,1.5-1.5,2.269,2.269,0,0,1,1.2-.7,9.192,9.192,0,0,0,3.2-3.2c0-.266.2-0.4,0.6-0.4a1.62,1.62,0,0,0,1.2-1,1.876,1.876,0,0,1,1-1.2,1.175,1.175,0,0,0,.6-1q0-.4,2.2-2.8t2.2-2.9a2.186,2.186,0,0,1,.8-1.3,3.478,3.478,0,0,0,1.2-2.4,6.445,6.445,0,0,1,1.2-3,4.6,4.6,0,0,0,1-1.9,5.1,5.1,0,0,1,.8-1.9,5.317,5.317,0,0,0,.8-2.6,2.233,2.233,0,0,1,.7-1.8q0.7-.6.9-3.6,0.2-5.4,1.4-6.4,0.8-.8.8-4.4l0.2-3.8,1.6-.8q1.8-.8,9.4-1a78.068,78.068,0,0,0,8.2-.2,5.357,5.357,0,0,0,.4-1.9c0.131-1.131.131-1.7,0-1.7a39.286,39.286,0,0,0-8.4-.4q-5.2.2-5.8,1a1.937,1.937,0,0,1-1.7.6,2.594,2.594,0,0,1-1.9-.6,1.178,1.178,0,0,0-1-.6q-1,0-.6-7.6a16.163,16.163,0,0,1,.6-5.2,24.062,24.062,0,0,0,1-6,22.051,22.051,0,0,1,.5-4.3,4.363,4.363,0,0,1,1.1-1.7,5.515,5.515,0,0,1,4-1.2,50.811,50.811,0,0,1,6.4,0,19.115,19.115,0,0,0,3.2.1,3.544,3.544,0,0,0,1.6-1.1,2.8,2.8,0,0,0,1-1.5,1.642,1.642,0,0,0-1-1.1q-1.2-.4-8.6-0.2l-6.8-.2c-0.935-.131-1.4-0.8-1.4-2a2.841,2.841,0,0,0-.8-1.9,2.02,2.02,0,0,1-.2-2.3,8.972,8.972,0,0,0,.6-3.8q0-2,.2-6.8l0.4-4.4,6.6-.2q6.6-.4,7-1a3.281,3.281,0,0,1,1-.5,7.109,7.109,0,0,1,1.7-.4q0.9-.1,1.8-0.2a2.517,2.517,0,0,1,1.3.1q0.6,0.2.6,1.6a8,8,0,0,0,.8,3.2q0.8,1.8.8,9.8,0,6-.1,7.2a1.8,1.8,0,0,1-.9,1.6,2.145,2.145,0,0,0-1,2,3.968,3.968,0,0,0,1,2.6,5.089,5.089,0,0,1,.8,2.4q0.2,1.6.2,9.2,0.2,10.2,1,11.3t0.8,4.3q0,3.8.2,7.2,0.2,3.6.4,7.4,0.2,4.6.8,4.6a3.112,3.112,0,0,1,1.4.8q2.2,1.6-.6,3.6-1.2.8-2,3.8a23.606,23.606,0,0,1-1.4,4.8,2.372,2.372,0,0,1-1.4,1.4,70.244,70.244,0,0,1-7.2.4h-4v1.6a4.76,4.76,0,0,0,.4,1.8,1.4,1.4,0,0,1,.9.5c0.331,0.334.7,0.7,1.1,1.1a14.52,14.52,0,0,1,1,1.1,1.566,1.566,0,0,1,.4.7,1.367,1.367,0,0,0,1.1.8,2.449,2.449,0,0,1,1.4,2.1c0.2,1.134.5,1.769,0.9,1.9q0.4,0.2.2,2.4a12.4,12.4,0,0,0,.2,4,3.155,3.155,0,0,0,.7,1.4,2.664,2.664,0,0,0,1.5,0,3.133,3.133,0,0,0,2.2-.8,4.7,4.7,0,0,1,1.8-1.2,3.558,3.558,0,0,0,1.8-1.4,0.921,0.921,0,0,1,1-.6,2.441,2.441,0,0,0,1.2-.6,10.187,10.187,0,0,0,1.5-1.4,2.3,2.3,0,0,0,.7-1.2c0-.266.331-0.466,1-0.6a1.386,1.386,0,0,0,1.2-1.1,0.9,0.9,0,0,1,.8-0.9,1.245,1.245,0,0,0,1-1q0.2-1,.6-1a2.245,2.245,0,0,0,1.2-.8,9.248,9.248,0,0,0,1.4-1.8,3.417,3.417,0,0,0,.6-1.6,5.849,5.849,0,0,1,1.2-2.6,11.575,11.575,0,0,1,2.2-2.6q0.6-.4.4-11.2,0-10.4-.6-12.6-1.8-6.4-1.4-10a13.1,13.1,0,0,0,0-4.6,12.028,12.028,0,0,0-1-4q-0.6-.8-0.8-12V81a68.192,68.192,0,0,0,0-7.8q-0.4-9.2.8-10.4a4.355,4.355,0,0,1,2.2-.6,4.848,4.848,0,0,0,3.1-1.6,4.349,4.349,0,0,0,1.3-3,4.538,4.538,0,0,0-1.2-3,6.716,6.716,0,0,0-2.8-1.8,8.286,8.286,0,0,1-2.6-1.8,10.73,10.73,0,0,0-2.8-2c-1.069-.4-1.6-0.831-1.6-1.3s-0.769-1.4-2.3-2.8-2.569-2.1-3.1-2.1a3.34,3.34,0,0,0-1.8,1.3,4.181,4.181,0,0,0-1.2,2.9Q138.507,48.6,136.507,50.6Zm111.1-19.9a21.3,21.3,0,0,0,.5,4.7q0.4,1.6,0,2a1.946,1.946,0,0,0-.4,1.4,1.092,1.092,0,0,1-.6,1.2,2.914,2.914,0,0,0-1.2,1.8,3.4,3.4,0,0,1-1.4,1.8q-0.6.4-.6,2.3a3.738,3.738,0,0,1-.8,2.7,3.564,3.564,0,0,0-1.2,1.8,1.757,1.757,0,0,1-1.1,1.2c-0.335,0-.769.469-1.3,1.4a7.887,7.887,0,0,0-1,2.6,5.374,5.374,0,0,1-2,3,6.2,6.2,0,0,0-2,3.8,8.009,8.009,0,0,1-2,4.8,1.627,1.627,0,0,0-.4,1.2q0,1.2-2.8,1.2a1.307,1.307,0,0,0-1.2,1,1.7,1.7,0,0,1-.8,1.1q-0.4.1,0,2.3a4.551,4.551,0,0,1,.1,2.5,2.971,2.971,0,0,1-1.7.9,1.862,1.862,0,0,0-1.4,1.4,1.7,1.7,0,0,1-1.8,1.2q-2.6,0-2.2,3,0.4,2-1.2,2.4a1.426,1.426,0,0,0-1.1,1.6,1.784,1.784,0,0,0,1.5,1.6q2,0.8-1.8,4.6a18.009,18.009,0,0,0-3.2,4.2,3.744,3.744,0,0,1-1.1,1.5,2.1,2.1,0,0,0-.8,1.2,1.554,1.554,0,0,1-.9,1.1,5.015,5.015,0,0,0-1.6,1.4q-2.8,3.4-4.4,3.8-1.2.2-1.2,0.8c0,0.4-.135.6-0.4,0.6s-0.669.469-1.2,1.4a2.151,2.151,0,0,1-1.4,1.2,0.53,0.53,0,0,0-.6.6,1.154,1.154,0,0,1-1,1.1,2.164,2.164,0,0,0-1.4,1.1,1.285,1.285,0,0,1-1.2.8q-0.6,0-1.6,1.6-1.2,1.6-.6,2.6a1.262,1.262,0,0,0,1.4.8,5.879,5.879,0,0,1,2.2-.4,2.876,2.876,0,0,0,2-1.2,1.242,1.242,0,0,1,.9-1,2.194,2.194,0,0,0,1.3-.8,6.4,6.4,0,0,1,2.2-1.2,2.2,2.2,0,0,0,1.6-1,1.219,1.219,0,0,1,.9-0.8,1.811,1.811,0,0,0,1.1-1.2,1.306,1.306,0,0,1,1.2-1,1.324,1.324,0,0,0,.9-0.7,1.335,1.335,0,0,1,1-.7,1.248,1.248,0,0,0,.9-1,0.963,0.963,0,0,1,.8-1,1.232,1.232,0,0,0,.6-0.3,7.642,7.642,0,0,0,.8-0.7c0.265-.266.531-0.531,0.8-0.8a7.4,7.4,0,0,0,.7-0.8,1.323,1.323,0,0,0,.3-0.8,0.851,0.851,0,0,1,.8-0.8,1.792,1.792,0,0,0,1.2-1,1.141,1.141,0,0,1,.9-0.8,1.248,1.248,0,0,0,.9-1,1.245,1.245,0,0,1,1-1,1.532,1.532,0,0,0,.7-0.4,12.449,12.449,0,0,0,1-.9,7.371,7.371,0,0,0,.9-1.1,2.081,2.081,0,0,0,.4-0.8,1.245,1.245,0,0,1,1-1,1.247,1.247,0,0,0,1-1,1.608,1.608,0,0,1,.8-1.2,2.19,2.19,0,0,0,.8-1.3,0.825,0.825,0,0,1,.8-0.7c0.4-.131.765-0.8,1.1-2s0.665-1.8,1-1.8,0.8-.566,1.4-1.7a5.121,5.121,0,0,1,2.1-2.3,2.456,2.456,0,0,0,1.6-1.4,0.816,0.816,0,0,1,.6-0.8c0.265,0,.4-0.2.4-0.6a3.451,3.451,0,0,1,1.4-1.5,4.183,4.183,0,0,0,1.4-3.5,6.966,6.966,0,0,1,.2-2,1.579,1.579,0,0,1,.7-0.9,9.17,9.17,0,0,1,2.1-.7c0.665-.131,1-0.366,1-0.7a2.961,2.961,0,0,1,.8-1.5,14.029,14.029,0,0,0,2.2-2.4,3.862,3.862,0,0,1,2.8-1.6,2.332,2.332,0,0,1,1.8.5q0.4,0.5,4.2.5a31.873,31.873,0,0,0,6.6-.6,16.162,16.162,0,0,1,5.4.1,7.3,7.3,0,0,0,4.2-.2,7.912,7.912,0,0,1,4.2-.3,12.938,12.938,0,0,1,2.7.6,1.831,1.831,0,0,1,.1,1.5,3.942,3.942,0,0,1-.7,1.9,4.043,4.043,0,0,0-.7,2,6.4,6.4,0,0,1-1.5,2.8,4.263,4.263,0,0,0-1.1,3,6.806,6.806,0,0,1-1.7,4,9.43,9.43,0,0,0-2,3.9q-0.3,1.7-.9,1.9a1.544,1.544,0,0,0-.7.7,4.289,4.289,0,0,0-.7,1.6,7.048,7.048,0,0,0-.2,1.5q0,0.8-2.3,3a32.9,32.9,0,0,0-2.9,3,1.8,1.8,0,0,1-1.9,1,2.551,2.551,0,0,1-2-.6,2.557,2.557,0,0,0-2-.6,2.177,2.177,0,0,1-2-.8,1.365,1.365,0,0,0-.9-0.8,3.321,3.321,0,0,1-1.5-1,5.569,5.569,0,0,0-3.3-1.2c-1.469-.131-2.2-0.466-2.2-1-0.135-.4-0.935-0.731-2.4-1s-2.469-.2-3,0.2q-1.8,1.2.2,2a1.81,1.81,0,0,1,1,1.2,2,2,0,0,0,1.4,1,7.391,7.391,0,0,1,2.7,1.5,5.793,5.793,0,0,1,1.7,2.1q0.2,1.4,2.2,2.2a8.109,8.109,0,0,1,3.2,2.2,4.459,4.459,0,0,0,3,1.6q4,0-1.2,5.4-2.8,2.8-2.8,3.4a1.247,1.247,0,0,1-1,1,1.248,1.248,0,0,0-1,.9,1.424,1.424,0,0,1-1,1,1.419,1.419,0,0,0-1,1.1,0.963,0.963,0,0,1-1,.8,1.019,1.019,0,0,0-1,1,3.274,3.274,0,0,1-1.2,2,6.977,6.977,0,0,0-1.2,1.6,2.411,2.411,0,0,1-.6,1.2,1.608,1.608,0,0,0-.8,1.2,0.963,0.963,0,0,1-1,.8q-1.4.4-1.4,2.8c0,0.669-.135,1-0.4,1a5.652,5.652,0,0,0-2,1.5,5.2,5.2,0,0,0-1.6,1.9c0,0.269-.269.4-0.8,0.4a1.746,1.746,0,0,0-1,.5,7.8,7.8,0,0,0-1.2,1.3,8.894,8.894,0,0,0-.8,1.2,1.623,1.623,0,0,1-1.6,1.2,2.014,2.014,0,0,0-1.6,1,1.173,1.173,0,0,1-1,.8,2.414,2.414,0,0,0-1.5,1,2.563,2.563,0,0,1-1.3,1,7.024,7.024,0,0,0-1.6,1.4,3.828,3.828,0,0,1-1.6,1.4,0.845,0.845,0,0,0-.7.5,2.736,2.736,0,0,1-1.5.9,1.245,1.245,0,0,0-1,1,0.963,0.963,0,0,1-1,.8,1.87,1.87,0,0,0-1.4,1,1.173,1.173,0,0,1-1,.8,2.7,2.7,0,0,0-1.6,1.3,3.928,3.928,0,0,0-1,1.9,1.174,1.174,0,0,1-.8,1,1.283,1.283,0,0,0-1,1,0.822,0.822,0,0,1-.6.8q-0.6,0-1.8,1.5a7.123,7.123,0,0,0-1.4,2.3,6.523,6.523,0,0,1-3.4,4,1.168,1.168,0,0,0-.8,1,0.854,0.854,0,0,1-.8.8,7.219,7.219,0,0,0-2.2,1.2,4.767,4.767,0,0,1-2,1,1.777,1.777,0,0,0-1,1.2,1.937,1.937,0,0,1-1.7.6q-1.3,0-2.8,2t-2.5,2a2.348,2.348,0,0,0-2,1.2,3,3,0,0,1-1.4,1.2,1.679,1.679,0,0,0-1,1,1.627,1.627,0,0,1-1.2,1c-0.4,0-.6.131-0.6,0.4s0.465,0.6,1.4,1a6.631,6.631,0,0,0,2.6.6,5.385,5.385,0,0,0,2.1-.6c0.865-.4,1.3-0.734,1.3-1s0.4-.5,1.2-0.7,1.2-.434,1.2-0.7c0-.669.731-1,2.2-1q1.2,0,3.4-2t3-2a1.313,1.313,0,0,0,1.2-1,1.24,1.24,0,0,1,1-1,1.178,1.178,0,0,0,1-.6,11.716,11.716,0,0,1,3.3-2.1,13.444,13.444,0,0,1,3.5-1.5,0.987,0.987,0,0,0,.9-0.5,3.759,3.759,0,0,1,1.3-1.1,18.852,18.852,0,0,0,3-2.6q1.8-1.8,2.4-1.8a1.178,1.178,0,0,0,1-.6,1.87,1.87,0,0,1,1.4-1,1.14,1.14,0,0,0,.8-0.8,4.234,4.234,0,0,1,1.2-1.7,5.537,5.537,0,0,1,1.4-1.3,1.62,1.62,0,0,0,1.2-1,2.608,2.608,0,0,1,2-1.2,1.654,1.654,0,0,0,1.6-1,0.823,0.823,0,0,1,.7-0.8,5.18,5.18,0,0,0,2.1-1.5q1.6-1.5,1.6-2a0.492,0.492,0,0,1,.6-0.5,2.473,2.473,0,0,0,1.4-.6,8.95,8.95,0,0,1,2.2-1.4,4.774,4.774,0,0,0,1.8-1.2,1.107,1.107,0,0,1,.9-0.6q0.5,0,.7-1.2a1.909,1.909,0,0,1,1.1-1.4,0.811,0.811,0,0,0,.7-0.8c0-.4.265-0.6,0.8-0.6q1.4,0,3-3.6a0.945,0.945,0,0,1,1-.8c0.531,0,.8-0.166.8-0.5a3.527,3.527,0,0,1,1.1-1.7,4.369,4.369,0,0,1,1.9-1.4,2.447,2.447,0,0,0,1.4-1.6,4.739,4.739,0,0,1,1.1-1.9,2.106,2.106,0,0,0,.7-1.5,3.243,3.243,0,0,1,.7-1.8,2.987,2.987,0,0,1,1.3-1.2q1.2-.2,3-3.6,0.6-.8-0.7-1.6a6.722,6.722,0,0,0-1.5-.8,1.669,1.669,0,0,1,.2-1.4,16.334,16.334,0,0,1,3.2-.2c1.6,0,2.531.134,2.8,0.4q0.6,0.2,1,3.8a14.344,14.344,0,0,0,.5,3.5,12.3,12.3,0,0,0,1.9,2.5,6.956,6.956,0,0,1,1.4,2.2,2.914,2.914,0,0,0,1,1.4,2.253,2.253,0,0,1,1,1.2,1.689,1.689,0,0,0,1,.6c0.665,0.4,1,1.469,1,3.2a5.1,5.1,0,0,0,1.1,3.7q1.1,1.1,4,1.1a7.457,7.457,0,0,1,4.3,1,2.524,2.524,0,0,0,2.4.6,3.5,3.5,0,0,0,2-3.4c0-1.466.331-2.2,1-2.2s1-1.731,1-5.2a27.261,27.261,0,0,0-.3-5.3,1.639,1.639,0,0,0-1.3-1.3,1.4,1.4,0,0,1-1.2-1.6,2.657,2.657,0,0,0-.8-2.1,1.881,1.881,0,0,1-.8-1.1,1.362,1.362,0,0,0-.8-0.9,1.369,1.369,0,0,1-.8-1.1,1.178,1.178,0,0,0-.6-1,3.489,3.489,0,0,1-1.4-1.4q-0.8-1.6-4.2,0a6.447,6.447,0,0,1-2.6,1,0.468,0.468,0,0,1-.5-0.4,1.788,1.788,0,0,1,.1-1,4.878,4.878,0,0,1,.6-1.2q1.8-2.6-1.2-2.8l-1.8-.2v-2a4.919,4.919,0,0,1,.2-2.6c0.265-.531.2-0.866-0.2-1a3.812,3.812,0,0,1-1.1-1.3,3.581,3.581,0,0,1-.7-1.7c0-.4.465-0.831,1.4-1.3s1.531-.566,1.8-0.3a1.367,1.367,0,0,1,.4,1,0.885,0.885,0,0,0,1,.9,1.179,1.179,0,0,0,1-1.1,6.245,6.245,0,0,1,1-2.2,4.043,4.043,0,0,0,1-1.2,6.77,6.77,0,0,1,1.6-2.2,10.862,10.862,0,0,0,1.8-2,5.331,5.331,0,0,1,1-1.4,9.09,9.09,0,0,0,1.4-3.2,8.789,8.789,0,0,1,1.3-2.9,2.439,2.439,0,0,1,1.5-1.3c0.265,0,.565-0.631.9-1.9s0.7-1.9,1.1-1.9q0.6-.2.9-1.8t0.6-1.6a6.7,6.7,0,0,0,1.9-1.5,5.224,5.224,0,0,0,1.6-1.9,3.067,3.067,0,0,1,.8-1.4,8.974,8.974,0,0,0,1.8-2.2q2.6-2.8,3.8-3a1.494,1.494,0,0,0,1.4-1,0.852,0.852,0,0,1,.8-0.8c1.065,0,1.6-.731,1.6-2.2a4.611,4.611,0,0,0-1.4-2.8,5.761,5.761,0,0,0-2-1.6c-0.269,0-.4-0.2-0.4-0.6a1.077,1.077,0,0,0-.6-0.8,0.783,0.783,0,0,1-.6-0.8c0-.4-0.135-0.6-0.4-0.6s-0.6-.431-1-1.3-0.735-1.3-1-1.3a1.162,1.162,0,0,1-.5-0.8,12.237,12.237,0,0,1-.5-1.7,2.065,2.065,0,0,1,0-1.3,4.515,4.515,0,0,0-.2-2.2,2.124,2.124,0,0,0-1.8-1.8q-2.6-.4-2.6,1.2a1.51,1.51,0,0,1-.4.9,8.12,8.12,0,0,0-.8,2.9q-0.4,2.4-1.4,2.7a1.974,1.974,0,0,0-1.2,1.9,5.029,5.029,0,0,1-3.2,4.2,4.974,4.974,0,0,0-1.6,1.1,8.746,8.746,0,0,0-1,2.1q-0.6,2.2-1.6,2.6a4.3,4.3,0,0,1-3-.4q-2-1-2.8-.4-2,1-5.4-.8a4.828,4.828,0,0,0-2.8-.4q-6.4,1-8.6.4-3.2-1-5,.8a2.712,2.712,0,0,1-2,.8h-1.4V61a19.609,19.609,0,0,1,0-4,1.485,1.485,0,0,1,.7-1.2,1.018,1.018,0,0,1,1.1.6,0.921,0.921,0,0,0,1,.6q0.8-.2,1.3-2.6t0.9-2.6a5.068,5.068,0,0,0,.6-0.9,3.791,3.791,0,0,1,2-1.3,2.581,2.581,0,0,0,1.8-1.4,5.98,5.98,0,0,1,1.5-2.2,11.258,11.258,0,0,1,2.3-2,1.892,1.892,0,0,0,.9-1.7,4.709,4.709,0,0,0-.5-2.5,4.233,4.233,0,0,0-2.1-1.9,2.649,2.649,0,0,1-1.7-2,2.428,2.428,0,0,0-1.5-1.9c-0.869-.4-1.3-0.8-1.3-1.2s-0.135-.6-0.4-0.6-0.7-.666-1.3-2-1.169-2.066-1.7-2.2a0.681,0.681,0,0,1-.6-0.5c0-.2-0.435-0.431-1.3-0.7a8.006,8.006,0,0,0-2.3-.4,1.95,1.95,0,0,0-1.4.4Q247.5,27.4,247.607,30.7Zm4.5,12.3c0-.4.131-0.6,0.4-0.6s0.4,0.2.4,0.6-0.135.6-.4,0.6S252.107,43.4,252.107,43Zm38,20.6q-0.6.2-.6-1c0-1.066.331-1.6,1-1.6,0.4,0,.531.4,0.4,1.2,0,0.934-.269,1.4-0.8,1.4h0Zm0.4,8.8q-0.4,1.4-1.2-.6c-0.4-1.066-.469-1.731-0.2-2a1.07,1.07,0,0,1,.7-0.6,0.628,0.628,0,0,1,.5.5,3.612,3.612,0,0,1,.2,1.3,2.431,2.431,0,0,1,0,1.4h0Zm-3.4,4.6q0,2.8-2.8,2.2a2,2,0,0,1-1.4-1.7,2.228,2.228,0,0,1,.4-2.3q0.2-.4,1.5-0.3a5.8,5.8,0,0,1,2.1.5,3.352,3.352,0,0,1,.2,1.6h0Zm-6.6,6a0.416,0.416,0,0,1,.3.4,1.148,1.148,0,0,1-.1.8,2.354,2.354,0,0,1-.4.6q-0.8.2-1.9-1a2.383,2.383,0,0,1-.9-2,0.892,0.892,0,0,1,.9-0.8,1.275,1.275,0,0,1,1.1,1,1.241,1.241,0,0,0,1,1h0Zm-3.3,13.5a2.085,2.085,0,0,1-1.5.7,3.032,3.032,0,0,1-1.6,0,1.013,1.013,0,0,1-.4-1,3.1,3.1,0,0,1,1-1.9c0.665-.731,1.2-1.031,1.6-0.9a2.208,2.208,0,0,1,.8,1A3.273,3.273,0,0,1,277.207,96.5Zm-10.1,4.9c0,0.534-.469.8-1.4,0.8a3.5,3.5,0,0,1-1.9-1.2,1.576,1.576,0,0,1-.5-1.8,1.145,1.145,0,0,1,1.2-.3,2.947,2.947,0,0,1,1.8.9,1.907,1.907,0,0,1,.8,1.6h0Zm2.8,4.8c-1.069,0-1.2-.4-0.4-1.2a0.952,0.952,0,0,1,.9-0.3,0.619,0.619,0,0,1,.5.7,0.808,0.808,0,0,1-1,.8h0Zm-6.5,3.6a0.611,0.611,0,0,1-.7.4,0.646,0.646,0,0,1-.7-0.3,4.211,4.211,0,0,1,.1-1.5,7.977,7.977,0,0,1,.4-2,2.207,2.207,0,0,1,1,1.6A9.839,9.839,0,0,1,263.407,109.8Zm4.7-2.8q0.2-.6.4,0a0.5,0.5,0,0,1,0,.6c-0.4-.131-0.535-0.331-0.4-0.6h0Zm12.8,11.6a2.346,2.346,0,0,1-.4.6q-1.2,1-1.2,0c0-.266-0.6-0.531-1.8-0.8s-1.8-.531-1.8-0.8a1.858,1.858,0,0,1,1.2-1,4.97,4.97,0,0,1,2.2-.6,2.445,2.445,0,0,1,1.8.6q1,0.8,0,2h0Zm-5.9,1.2a0.708,0.708,0,0,1-1.4,0,1.1,1.1,0,0,1-.1-1,1,1,0,0,1,1.6,0A1.11,1.11,0,0,1,275.007,119.8Zm8.9,3a0.644,0.644,0,0,1,.4.6,1.1,1.1,0,0,1-1.2.6,3.479,3.479,0,0,0-2,.2,6.166,6.166,0,0,1-3.3-.1c-1.535-.331-2.369-0.7-2.5-1.1a0.638,0.638,0,0,1,.4-0.6,6.874,6.874,0,0,1,2.2-.2,23.714,23.714,0,0,1,4.6.4A3.487,3.487,0,0,1,283.907,122.8Zm-31.1,3.2q-0.1.2-.3,0a0.8,0.8,0,0,1-.4-0.8c0-.4.131-0.6,0.4-0.6s0.4,0.269.4,0.8A1.4,1.4,0,0,1,252.807,126Z"/>
</svg>
