<svg xmlns="http://www.w3.org/2000/svg" width="228" height="60" viewBox="0 0 228 60">
  <defs>
    <style>
      .cls-1 {
        fill: #fff;
        fill-rule: evenodd;
      }
    </style>
  </defs>
  <path id="个影像" class="cls-1" d="M86.542,10.784a1.246,1.246,0,0,1-.333.867,2.148,2.148,0,0,0-.467.767,2.812,2.812,0,0,1-.333.8,1.651,1.651,0,0,0-.267.667,0.391,0.391,0,0,1-.2.333,2.233,2.233,0,0,0-.467.8,1.7,1.7,0,0,1-.4.667,0.886,0.886,0,0,0-.133.667q0,1.134-.467,1.267a0.729,0.729,0,0,0-.333.6,0.74,0.74,0,0,1-.4.667,0.957,0.957,0,0,0-.4.667,0.96,0.96,0,0,1-.4.667,0.407,0.407,0,0,0-.267.367,0.475,0.475,0,0,1-.267.4,0.909,0.909,0,0,0-.333.7,0.731,0.731,0,0,1-.333.6,0.729,0.729,0,0,0-.333.6,0.8,0.8,0,0,1-.333.6,0.892,0.892,0,0,0-.333.667,1.11,1.11,0,0,1-.4.8,0.39,0.39,0,0,0-.267.333,0.539,0.539,0,0,1-.267.4,1.169,1.169,0,0,0-.467.667,4.534,4.534,0,0,1-.333.667,0.576,0.576,0,0,0-.2.4,0.744,0.744,0,0,1-.333.4,1.079,1.079,0,0,0-.467.667,0.857,0.857,0,0,1-.467.6,0.537,0.537,0,0,0-.267.4,0.193,0.193,0,0,1-.233.2,1.083,1.083,0,0,0-.633.467,1.386,1.386,0,0,0-.4.667q0,0.934-.333.933a1.557,1.557,0,0,0-.6.467,1.347,1.347,0,0,0-.467.667,3.064,3.064,0,0,1-1.067,1.067,0.8,0.8,0,0,0-.367.5,1.5,1.5,0,0,1-.7.733,0.767,0.767,0,0,0-.467.367,1.246,1.246,0,0,1-.467.333,0.62,0.62,0,0,0-.4.333,1,1,0,0,1-.433.567,1.272,1.272,0,0,1-.633.367,0.407,0.407,0,0,0-.233.367,0.569,0.569,0,0,1-.5.433,1.617,1.617,0,0,0-.633.4,0.9,0.9,0,0,0-.367.533,1.25,1.25,0,0,1-.4.533,1.119,1.119,0,0,1-.6.4,1.118,1.118,0,0,0-.6.4,1.111,1.111,0,0,1-.6.467,0.5,0.5,0,0,0-.433.267,0.45,0.45,0,0,1-.333.267,0.474,0.474,0,0,0-.333.333,0.473,0.473,0,0,1-.367.333,0.359,0.359,0,0,0-.367.4,1,1,0,0,0,.233.733,0.878,0.878,0,0,0,.933.067,2.977,2.977,0,0,0,.567-0.133c0.11-.044.21-0.089,0.3-0.133a0.36,0.36,0,0,0,.167-0.133,0.465,0.465,0,0,0,.033-0.2,0.34,0.34,0,0,1,.333-0.333,0.706,0.706,0,0,0,.5-0.367,0.462,0.462,0,0,1,.367-0.3,1.576,1.576,0,0,0,.6-0.4,0.885,0.885,0,0,1,.6-0.4,0.236,0.236,0,0,0,.267-0.267,0.457,0.457,0,0,1,.4-0.333,5.238,5.238,0,0,0,1.1-.867,2.184,2.184,0,0,0,.7-0.867c0-.133.044-0.2,0.133-0.2a2.943,2.943,0,0,0,.6-0.4,9.723,9.723,0,0,1,.867-0.8,0.913,0.913,0,0,1,.533-0.333,0.618,0.618,0,0,0,.433-0.333,0.619,0.619,0,0,1,.433-0.333,0.177,0.177,0,0,0,.2-0.2,0.536,0.536,0,0,1,.3-0.4,0.544,0.544,0,0,0,.3-0.333,1.915,1.915,0,0,1,.433-0.667,1.45,1.45,0,0,1,.567-0.533,3.866,3.866,0,0,0,1.2-1.2,1.256,1.256,0,0,1,.4-0.533,1.118,1.118,0,0,0,.4-0.6,0.3,0.3,0,0,1,.3-0.2,0.3,0.3,0,0,0,.3-0.233,4.019,4.019,0,0,1,.867-1.1,1.427,1.427,0,0,0,.4-0.5,2.97,2.97,0,0,1,.633-0.733,2.832,2.832,0,0,0,.767-1.1,0.667,0.667,0,0,1,.4-0.533,0.284,0.284,0,0,0,.267-0.267,0.73,0.73,0,0,1,.267-0.467,1.684,1.684,0,0,0,.4-0.667,0.729,0.729,0,0,1,.333-0.6,0.391,0.391,0,0,0,.267-0.333,0.7,0.7,0,0,1,.333-0.467,1.341,1.341,0,0,0,.4-0.667,0.778,0.778,0,0,1,.467-0.533,0.542,0.542,0,0,0,.333-0.4,0.978,0.978,0,0,1,.267-0.533,1.243,1.243,0,0,0,.267-0.8,1.822,1.822,0,0,1,.667-1.133,1.9,1.9,0,0,0,.733-0.967,0.4,0.4,0,0,1,.2-0.4,1.515,1.515,0,0,0,.467-0.7,1.415,1.415,0,0,1,.433-0.6,0.5,0.5,0,0,0,.2-0.4,0.442,0.442,0,0,1,.233-0.4,1.347,1.347,0,0,0,.667-0.533,2.4,2.4,0,0,0,.533-0.8,0.321,0.321,0,0,1,.267-0.333,0.9,0.9,0,0,1,.533.4,2.868,2.868,0,0,1,.467.733,1.563,1.563,0,0,0,.333.733,3.452,3.452,0,0,1,.4,1.133,5.176,5.176,0,0,0,.667,1.533,4.187,4.187,0,0,1,.6,1.667,2.375,2.375,0,0,0,.367,1.3,2.063,2.063,0,0,1,.4,1,0.927,0.927,0,0,0,.333.733,0.611,0.611,0,0,1,.333.367,0.5,0.5,0,0,0,.367.333,0.316,0.316,0,0,1,.267.333,0.584,0.584,0,0,0,.067.267,0.865,0.865,0,0,0,.167.233,0.319,0.319,0,0,0,.233.1,1.089,1.089,0,0,0,.333-0.067,0.647,0.647,0,0,1,.533-0.033,0.787,0.787,0,0,1,.067.633,0.994,0.994,0,0,0,.267.933,1.414,1.414,0,0,1,.3.933,0.9,0.9,0,0,0,.3.8,6.384,6.384,0,0,1,.933.6,0.888,0.888,0,0,0,.933.267,1.8,1.8,0,0,1,1.3-.233,1.67,1.67,0,0,1,1.166.233,0.318,0.318,0,0,1-.133.433,1.307,1.307,0,0,1-.666.3q-0.4.067-.4,0.2c0,0.09-.067.133-0.2,0.133a0.222,0.222,0,0,0-.267.233,0.742,0.742,0,0,0,.267.5,1.811,1.811,0,0,1,.333.467c0,0.09.11,0.156,0.333,0.2a0.5,0.5,0,0,1,.467.367,0.3,0.3,0,0,0,.266.3,0.322,0.322,0,0,1,.267.333,0.778,0.778,0,0,0,.767.433,1.122,1.122,0,0,1,.7.2,1.212,1.212,0,0,0,.6.367,1.009,1.009,0,0,1,.733.733,0.827,0.827,0,0,0,.6.667,0.863,0.863,0,0,1,.6.467,0.335,0.335,0,0,0,.367.267,0.735,0.735,0,0,1,.533.233,0.343,0.343,0,0,0,.5.033,3.278,3.278,0,0,1,1.467-.233,3.615,3.615,0,0,0,1.633-.3,3.355,3.355,0,0,1,1.533-.3,4.022,4.022,0,0,1,1.7.233,4.308,4.308,0,0,0,1.467.2,1.266,1.266,0,0,0,1.067-.267q0.666-1.2-1.534-1.667a3.314,3.314,0,0,1-1.066-.4,3.643,3.643,0,0,0-1.267-.267,1.258,1.258,0,0,1-1-.333,1.182,1.182,0,0,0-.167-0.333l-0.3-.4a1.126,1.126,0,0,0-.8-0.333,1.8,1.8,0,0,1-.866-0.267,1.088,1.088,0,0,0-.7-0.233,0.684,0.684,0,0,0-.634.167,0.188,0.188,0,0,1-.133.133q-0.267,0-.267-0.6a0.974,0.974,0,0,0-.8-1.133,2.147,2.147,0,0,1-1-.4,1.842,1.842,0,0,0-1-.4,0.95,0.95,0,0,1-.566-0.1,1.033,1.033,0,0,1-.167-0.5,1.043,1.043,0,0,0-.167-0.5,0.908,0.908,0,0,0-.433-0.167,1.646,1.646,0,0,1-.733-0.4,0.547,0.547,0,0,0-.367-0.333,0.38,0.38,0,0,1-.3-0.267,0.628,0.628,0,0,0-.467-0.4,3.1,3.1,0,0,1-1.1-.767,2.674,2.674,0,0,0-.967-0.7,0.177,0.177,0,0,1-.2-0.2,0.285,0.285,0,0,0-.267-0.267,0.717,0.717,0,0,1-.4-0.6,1.194,1.194,0,0,0-.4-0.7,1.007,1.007,0,0,0-.667-0.3,0.261,0.261,0,0,1-.267-0.2,0.6,0.6,0,0,0-.4-0.4,0.535,0.535,0,0,1-.333-0.633,0.635,0.635,0,0,0-.2-0.633,0.621,0.621,0,0,1-.4-0.467,0.6,0.6,0,0,0-.4-0.4,0.283,0.283,0,0,1-.267-0.267,0.262,0.262,0,0,0-.2-0.267,1.825,1.825,0,0,1-.6-0.733,7.771,7.771,0,0,1-.533-1,1.74,1.74,0,0,0-.4-0.733,1.662,1.662,0,0,1-.433-0.933,1.133,1.133,0,0,0-.3-0.733,1.619,1.619,0,0,1-.267-0.667,1.263,1.263,0,0,0-.333-0.733q-0.334-.2-0.2-1.667a10,10,0,0,0,.067-1.867,0.663,0.663,0,0,0-.533-0.533,0.659,0.659,0,0,1-.467-0.233,1.22,1.22,0,0,0-.6-0.367,1.07,1.07,0,0,1-.667-0.533,0.336,0.336,0,0,0-.367-0.2,0.379,0.379,0,0,1-.367-0.133q-0.334-.533-0.933.467A2.028,2.028,0,0,0,86.542,10.784Zm9.733,15.433a0.268,0.268,0,0,1-.2-0.067c-0.133,0-.145-0.055-0.033-0.167a0.511,0.511,0,0,1,.367-0.167,0.262,0.262,0,0,1,.267.2q0.066,0.2-.4.2h0Zm1.733,1.333a0.553,0.553,0,0,1-.6.167,1.59,1.59,0,0,1-.733-0.167c-0.133-.088-0.19-0.155-0.167-0.2a0.811,0.811,0,0,1,.3-0.2,1.139,1.139,0,0,0,.533-0.467,0.307,0.307,0,0,1,.333-0.2c0.177,0,.288.156,0.333,0.467a0.663,0.663,0,0,1,0,.6h0Zm-10.6-.7a10.925,10.925,0,0,0,.267,1.433,2.718,2.718,0,0,1,0,1.467,2.472,2.472,0,0,0,.067,1.267,2.712,2.712,0,0,1,.133,1.133q-0.067.534-.133,3.467a10.789,10.789,0,0,1-.2,3.133,0.868,0.868,0,0,0,.067.867,11.335,11.335,0,0,1,.2,3.867,5.069,5.069,0,0,1-.333,1.8,0.945,0.945,0,0,0-.167.733,1.851,1.851,0,0,0,.3.933,0.343,0.343,0,0,1-.133.467,4.621,4.621,0,0,0-.333,1.933,4.427,4.427,0,0,1-.333,2.067,1.374,1.374,0,0,0-.2,1.067,1.279,1.279,0,0,0,.267.867,2.247,2.247,0,0,1,.333.533,0.85,0.85,0,0,0,.5.4,1,1,0,0,0,.667.033,0.374,0.374,0,0,0,.3-0.367,0.449,0.449,0,0,1,.133-0.333,0.954,0.954,0,0,0,.3-0.3,2.574,2.574,0,0,0,.267-0.467,1.016,1.016,0,0,0,.1-0.367,1.283,1.283,0,0,1,.2-0.667,3.445,3.445,0,0,0,.267-1.2,2.251,2.251,0,0,1,.267-1.067,3.391,3.391,0,0,0,.367-1.567,20.527,20.527,0,0,0,.167-2.1,5,5,0,0,1-.067-0.933q0.2-2.266.2-4.067,0-.133-0.067-2.133a63.953,63.953,0,0,1,.067-6.4c0-.044-0.023-0.244-0.067-0.6-0.09-.355-0.033-0.555.167-0.6a0.957,0.957,0,0,0,.367-0.933,2.933,2.933,0,0,1,.4-1.333,1.576,1.576,0,0,0,.367-0.6,1.411,1.411,0,0,0-.167-0.667,0.81,0.81,0,0,0-.5-0.467,5,5,0,0,0-1.433-.133,1.271,1.271,0,0,1-.933-0.2,0.914,0.914,0,0,0-.4-0.3,1.317,1.317,0,0,0-.467-0.167,1.544,1.544,0,0,0-.533.133A0.407,0.407,0,0,0,87.408,26.85Zm2.6,2.033a0.3,0.3,0,0,1-.067-0.333,0.362,0.362,0,0,1,.333-0.1,0.324,0.324,0,0,1,.267.2c0.044,0.111-.011.2-0.167,0.267A0.307,0.307,0,0,1,90.008,28.884Zm51.133-22a0.954,0.954,0,0,1-.4.667,0.782,0.782,0,0,0-.366.767,0.619,0.619,0,0,1-.434.7,1.427,1.427,0,0,1-.866,0,6.925,6.925,0,0,0-1.734-.133,2.592,2.592,0,0,0-1.4.267,0.855,0.855,0,0,1-.666.233,1.477,1.477,0,0,1-.867-0.167,1.9,1.9,0,0,0-1.2.333,2.559,2.559,0,0,1-.933.167,1.286,1.286,0,0,1-.8-0.1,1.862,1.862,0,0,1-.134-0.667,0.74,0.74,0,0,0-.4-0.667,0.457,0.457,0,0,1-.266-0.2,5.609,5.609,0,0,0-1.334-1.4l-0.333-.267-0.467.333q-0.666.534-.333,0.933a10.224,10.224,0,0,1,.333,2.367,13.112,13.112,0,0,1,.067,2.9q-0.068.534-.067,2.533a33.706,33.706,0,0,1-.333,5.333,5.976,5.976,0,0,0-.133,1.733,3.283,3.283,0,0,0,.2,1.633,0.458,0.458,0,0,1,.2.333,0.273,0.273,0,0,0,.266.233,1.231,1.231,0,0,1,.534.4q0.465,0.6.666-.4a2.136,2.136,0,0,1,.4-0.867,0.914,0.914,0,0,1,.534-0.467,0.169,0.169,0,0,0,.166-0.167,0.582,0.582,0,0,0-.033-0.333,0.746,0.746,0,0,0-.133-0.233q-0.335-.133-0.2-0.267a1.39,1.39,0,0,1,1.4-.267,1.086,1.086,0,0,1,.6.8,3.191,3.191,0,0,1,.2.867,0.451,0.451,0,0,0,.133.333,1.649,1.649,0,0,1,.133.967,1.55,1.55,0,0,1-.166,1,1.077,1.077,0,0,0-.3.633,0.919,0.919,0,0,1-.367.533,0.308,0.308,0,0,1-.433-0.133q-0.4-.6-1.867-0.133a12.7,12.7,0,0,1-2.8.4,11.715,11.715,0,0,1-2.6,0,14.4,14.4,0,0,0-2.8-.067,16.191,16.191,0,0,0-2,.067,0.693,0.693,0,0,0-.467.267,1.084,1.084,0,0,1-.8.267q-1.666,0-1.8,1.333a0.754,0.754,0,0,0,.267.8,0.6,0.6,0,0,1,.4.333c0.044,0.178.267,0.245,0.667,0.2a1.038,1.038,0,0,0,.733-0.267,2.242,2.242,0,0,1,1.333-.2,4.925,4.925,0,0,0,1.8-.333,3.556,3.556,0,0,1,1.267-.333,3.829,3.829,0,0,0,1.3-.333,1.939,1.939,0,0,1,1.233-.133,1.891,1.891,0,0,0,1.734,0,7.5,7.5,0,0,1,2.333-.333,15.507,15.507,0,0,0,3.067-.333,18.986,18.986,0,0,1,4.933-.533,3.183,3.183,0,0,0,1-.133,10,10,0,0,1,1.567-.167q1.433-.1,3.2-0.167t2.7-.067a0.945,0.945,0,0,0,.6-0.1,1.469,1.469,0,0,1,.466-0.3,1.565,1.565,0,0,0,.6-1.033,1.434,1.434,0,0,0,.1-1.067,1.38,1.38,0,0,1-.266-0.367,0.685,0.685,0,0,0-.634-0.2,1.429,1.429,0,0,0-1.4,1.067,1.122,1.122,0,0,1-.3.467,1.252,1.252,0,0,1-.566.2l-1.2.2a19.011,19.011,0,0,0-2.067.267,1.144,1.144,0,0,1-.933-0.067,0.68,0.68,0,0,0-.5-0.2,0.484,0.484,0,0,0-.434.2,2.6,2.6,0,0,1-1.5.267,5.849,5.849,0,0,1-1.766-.067,0.7,0.7,0,0,1-.434-0.467,0.5,0.5,0,0,1,.1-0.533,1.344,1.344,0,0,0,.334-0.8,2.959,2.959,0,0,1,.4-1.067c0.31-.4.333-0.71,0.066-0.933a0.739,0.739,0,0,1-.2-0.633,0.658,0.658,0,0,1,.367-0.667,0.374,0.374,0,0,1,.533.1,1.057,1.057,0,0,1,.167.333,0.7,0.7,0,0,0,.4.2,0.463,0.463,0,0,1,.4.4,0.308,0.308,0,0,0,.2.333,0.416,0.416,0,0,1,.133.3,0.641,0.641,0,0,0,.467.367,0.686,0.686,0,0,1,.467.667,1.208,1.208,0,0,0,.4.867,1.265,1.265,0,0,0,.533.333,1.122,1.122,0,0,0,.6-0.5,2.149,2.149,0,0,0,.467-0.833,0.528,0.528,0,0,1,.3-0.467,0.417,0.417,0,0,0,.3-0.333,0.842,0.842,0,0,1,.4-0.467,0.379,0.379,0,0,0,.266-0.267,1.027,1.027,0,0,1,.267-0.467,1.517,1.517,0,0,0,.267-0.867q0.066-.666.066-4.4a8.832,8.832,0,0,0,.067-1.2,31.337,31.337,0,0,1,.1-3.433,2.281,2.281,0,0,1,.567-1.1,1.028,1.028,0,0,0,.266-0.2,1.335,1.335,0,0,0,.4-0.667,0.778,0.778,0,0,1,.467-0.533,0.569,0.569,0,0,0,.4-0.4,1,1,0,0,0-.6-1,0.413,0.413,0,0,1-.333-0.333,0.177,0.177,0,0,0-.2-0.2,1.353,1.353,0,0,1-.667-0.433,1.226,1.226,0,0,1-.467-0.633,0.261,0.261,0,0,0-.2-0.267,0.887,0.887,0,0,1-.4-0.333,0.964,0.964,0,0,0-.666-0.333,1,1,0,0,0-.867.333,1.525,1.525,0,0,0-.467.867h0Zm-1.6,4.733c0.134,0,.2.09,0.2,0.267a0.573,0.573,0,0,1-.2.4,0.373,0.373,0,0,0-.2.3,0.164,0.164,0,0,0,.2.167,0.218,0.218,0,0,1,.2.167,1.787,1.787,0,0,1,.1.367,1.168,1.168,0,0,1-.033.467q-0.133.6-1.667,0.333a3.725,3.725,0,0,0-1,0q-0.267.067-1.066,0.2a2.148,2.148,0,0,0-.634.133,0.511,0.511,0,0,0-.1.4,0.431,0.431,0,0,0,.2.467,4.807,4.807,0,0,0,2.534-.2,1.369,1.369,0,0,1,1.533.2,3.083,3.083,0,0,1,.233,1.2,3.674,3.674,0,0,1-.033,1.4,0.321,0.321,0,0,1-.267.333,0.177,0.177,0,0,0-.2.2,0.36,0.36,0,0,0,.167.267,1.5,1.5,0,0,0,.467.233,1.791,1.791,0,0,0,.566.1q0.534,0,.534.333,0,0.8-.534.3t-0.733.5a1.2,1.2,0,0,1-.167.567,0.96,0.96,0,0,1-.466.167,10.446,10.446,0,0,1-1.5.067,4.282,4.282,0,0,0-1.934.467,1.29,1.29,0,0,1-1.133.267,3.989,3.989,0,0,0-1.333-.2,2.378,2.378,0,0,1-1.267-.367,1.324,1.324,0,0,0-.6-0.367,0.505,0.505,0,0,1-.367-0.3,6.019,6.019,0,0,1-.166-1.367,3.5,3.5,0,0,1,.133-1.4,2.613,2.613,0,0,0,.2-0.867,0.736,0.736,0,0,1,.733-0.733,1.159,1.159,0,0,0,.667-0.267,2.258,2.258,0,0,1,1.067-.267,1.2,1.2,0,0,0,.866-0.333q0.066-.466-2.066-0.333a5.4,5.4,0,0,1-1,.033,0.534,0.534,0,0,1-.434-0.2,0.56,0.56,0,0,1-.033-0.433,1.193,1.193,0,0,0-.133-0.8,1.975,1.975,0,0,1-.134-0.4,2.494,2.494,0,0,1-.066-0.6V11.817a3.305,3.305,0,0,1,.033-0.533,0.187,0.187,0,0,1,.167-0.2,0.547,0.547,0,0,1,.333.2,0.636,0.636,0,0,0,.933,0,6.752,6.752,0,0,1,2.667-.4,3.255,3.255,0,0,0,1.533-.267,3.873,3.873,0,0,1,1.734-.267l1.266-.067V10.95Q139.341,11.617,139.541,11.617Zm-5.4,11.533a0.134,0.134,0,1,0,.134-0.133A0.118,0.118,0,0,0,134.141,23.15Zm22.2-14.733q0,1.734-.4,1.867a0.683,0.683,0,0,0-.266.6,0.643,0.643,0,0,1-.4.667,1.27,1.27,0,0,0-.934,1,0.361,0.361,0,0,1-.166.333,1.817,1.817,0,0,0-.567.467,1.821,1.821,0,0,0-.467.567,1.814,1.814,0,0,1-.466.567,4.443,4.443,0,0,0-1,1.267,0.807,0.807,0,0,1-.334.5,0.947,0.947,0,0,0-.333.4,0.37,0.37,0,0,1-.3.2,0.531,0.531,0,0,0-.367.433,1.2,1.2,0,0,1-.8.867,0.691,0.691,0,0,0-.466.333,0.638,0.638,0,0,1-.234.367c-0.156.156-.322,0.311-0.5,0.467a0.762,0.762,0,0,1-.4.233,0.3,0.3,0,0,0-.2.3,0.44,0.44,0,0,1-.333.367q-0.534.134-.267,0.8a0.568,0.568,0,0,0,.5.3,0.953,0.953,0,0,0,.7-0.233,0.748,0.748,0,0,1,.5-0.267,0.5,0.5,0,0,0,.4-0.2,2.366,2.366,0,0,1,.667-0.467,1.022,1.022,0,0,0,.5-0.367,0.694,0.694,0,0,1,.4-0.3,2.529,2.529,0,0,0,.667-0.467l0.166-.167,0.2-.2,0.167-.167a1.163,1.163,0,0,1,.6-0.333c0.267-.044.4-0.133,0.4-0.267a0.542,0.542,0,0,1,.333-0.4,1.511,1.511,0,0,0,.467-0.4,0.214,0.214,0,0,1,.2-0.133,2.893,2.893,0,0,0,.833-0.533,2.589,2.589,0,0,0,.767-0.733,6.443,6.443,0,0,1,.733-0.533,1.237,1.237,0,0,0,.667-0.6,0.708,0.708,0,0,1,.3-0.267,4.8,4.8,0,0,1,.767-0.4c0.31-.133.6-0.244,0.866-0.333a1.656,1.656,0,0,0,.734-0.4,0.538,0.538,0,0,1,.4-0.267q0.2,0,.2-0.467a0.772,0.772,0,0,0-.467-0.867,0.243,0.243,0,0,1-.2-0.233,0.625,0.625,0,0,0-.267-0.4,0.618,0.618,0,0,1-.266-0.4,0.721,0.721,0,0,0-.334-0.433,1.019,1.019,0,0,1-.333-0.733q-0.133-.533-0.2-0.867a1.729,1.729,0,0,0-.4-0.867,0.889,0.889,0,0,0-.6-0.4,0.818,0.818,0,0,0-.567.333,1.248,1.248,0,0,0-.3.867h0Zm1.267,12.1a0.61,0.61,0,0,1-.333.367,0.612,0.612,0,0,0-.334.6,1.137,1.137,0,0,1-.2.6,1.856,1.856,0,0,0-.466.6,3.1,3.1,0,0,1-.4.667,0.68,0.68,0,0,0-.267.6,1.264,1.264,0,0,1-.267.733,1.664,1.664,0,0,0-.4.733,0.684,0.684,0,0,1-.4.633,0.256,0.256,0,0,0-.266.267,0.193,0.193,0,0,1-.2.233,0.777,0.777,0,0,0-.4.4,0.848,0.848,0,0,1-.4.467,0.664,0.664,0,0,0-.267.533,0.878,0.878,0,0,1-.467.667,2.326,2.326,0,0,0-.8,1.133,2.383,2.383,0,0,1-.533.867,0.98,0.98,0,0,0-.267.533,0.177,0.177,0,0,1-.2.2,0.372,0.372,0,0,0-.366.3,0.347,0.347,0,0,1-.3.3,0.568,0.568,0,0,0-.4.4,0.95,0.95,0,0,1-.367.467,0.822,0.822,0,0,0-.267.6c-0.066.356-.166,0.533-0.3,0.533a0.849,0.849,0,0,0-.4.467,3.312,3.312,0,0,1-.733.867,3.766,3.766,0,0,0-1.267,1.6q0,0.267.667,0.267a0.714,0.714,0,0,0,.733-0.233,0.57,0.57,0,0,1,.534-0.3,0.924,0.924,0,0,0,.733-0.4,0.543,0.543,0,0,1,.4-0.333,0.284,0.284,0,0,0,.267-0.267,0.315,0.315,0,0,1,.333-0.267,0.742,0.742,0,0,0,.467-0.667q0.066-.6.333-0.6a0.315,0.315,0,0,0,.333-0.267,0.858,0.858,0,0,1,.6-0.467,1.211,1.211,0,0,0,.6-0.367,0.468,0.468,0,0,1,.334-0.233,0.415,0.415,0,0,0,.333-0.333,0.542,0.542,0,0,1,.333-0.4,1.835,1.835,0,0,0,1.067-1.133c0-.133.044-0.2,0.133-0.2a1.075,1.075,0,0,0,.434-0.167,2.363,2.363,0,0,0,.533-0.4,0.779,0.779,0,0,0,.233-0.3,0.26,0.26,0,0,1,.167-0.267,1.542,1.542,0,0,0,.467-0.667,3.43,3.43,0,0,1,.466-0.767,0.585,0.585,0,0,0,.167-0.433c0-.177.044-0.267,0.133-0.267a0.924,0.924,0,0,0,.4-0.533,1.449,1.449,0,0,1,.534-0.667,0.357,0.357,0,0,0,.2-0.267,2.075,2.075,0,0,1,.5-0.7,1.767,1.767,0,0,1,.633-0.567,0.177,0.177,0,0,0,.2-0.2,0.777,0.777,0,0,1,.6-0.267,0.9,0.9,0,0,0,.7-0.267,2.78,2.78,0,0,0,.033-1.067,0.756,0.756,0,0,0-.333-0.733,0.243,0.243,0,0,1-.2-0.233,1.792,1.792,0,0,0-.4-0.7,2.057,2.057,0,0,1-.4-0.8,0.966,0.966,0,0,0-.233-0.333,4.8,4.8,0,0,0-.467-0.467,0.7,0.7,0,0,0-.333-0.2,1.417,1.417,0,0,0-.5.4A3.14,3.14,0,0,0,157.608,20.517Zm-16.8,10.267a1.5,1.5,0,0,0-.933.3,0.675,0.675,0,0,1-.734.2,4.2,4.2,0,0,0-1.066,0q-0.735.067-1.4,0.133a2.23,2.23,0,0,0-.734.133q-0.4.334-3.466,0.333a4.218,4.218,0,0,0-1.967.233,0.505,0.505,0,0,1-.633.033,1.431,1.431,0,0,1-.6-0.533,0.679,0.679,0,0,0-.734-0.267l-0.666.067v4.267a23.5,23.5,0,0,1-.2,4.6,2.436,2.436,0,0,0-.4,2,0.507,0.507,0,0,0,.333.467,0.262,0.262,0,0,1,.267.2l0.2,0.133c0.266,0.09.4,0.045,0.4-.133a0.744,0.744,0,0,1,.266-0.4,0.942,0.942,0,0,0,.267-0.333,2.18,2.18,0,0,1,.667-0.867,0.977,0.977,0,0,0,.333-0.467,0.391,0.391,0,0,1,.267-0.333,1.427,1.427,0,0,0,.4-0.667,0.91,0.91,0,0,1,.633-0.633,0.615,0.615,0,0,0,.5-0.333,0.719,0.719,0,0,1,.3-0.433q0.3-.266.033-0.4c-0.133-.044-0.378-0.11-0.733-0.2a0.717,0.717,0,0,1-.667-0.533,12.518,12.518,0,0,1-.066-2.6V33.284h0.533a2.674,2.674,0,0,0,1.067-.267,13.576,13.576,0,0,1,3.533-.333,13.212,13.212,0,0,0,3.267-.267,0.659,0.659,0,0,1,.933.133,0.9,0.9,0,0,1,.067,1,1.709,1.709,0,0,0-.167.967,0.671,0.671,0,0,0,.3.7,1.344,1.344,0,0,1,.2.967,1.662,1.662,0,0,1-.2,1.033,1.712,1.712,0,0,1-1.4.267,2.094,2.094,0,0,0-1.067.133,5.192,5.192,0,0,1-1.4.267,2.9,2.9,0,0,0-1.233.367,0.506,0.506,0,0,1-.567.1,0.815,0.815,0,0,0-.7-0.1,0.824,0.824,0,0,0-.566.333,1.7,1.7,0,0,0,.066,1.033,1.933,1.933,0,0,1,.1,1,1.348,1.348,0,0,0,.167.867,3.673,3.673,0,0,1,.167,1.4,1.84,1.84,0,0,1-.234,1.067,0.383,0.383,0,0,0-.033.5,3.582,3.582,0,0,1,.1,1.5q-0.068.734-.133,2.067a10.285,10.285,0,0,1-.134,1.167,1.063,1.063,0,0,0,.134.7,1.58,1.58,0,0,1,.2.667,1.09,1.09,0,0,1-.867.867q-0.867,0-.867.6c0,0.31.056,0.467,0.167,0.467a0.657,0.657,0,0,1,.4.4,0.655,0.655,0,0,0,.4.4,0.676,0.676,0,0,1,.367.5,7.173,7.173,0,0,1,.333,1.1,1.575,1.575,0,0,0,.3.867,0.735,0.735,0,0,0,.7.2q0.933-.134,1.867-2.067,0.2-.467.4-0.933a3.412,3.412,0,0,0,.333-1.533,25.706,25.706,0,0,0-.4-6.2,30.673,30.673,0,0,1-.3-3.667,13.607,13.607,0,0,1,0-2.633,13.2,13.2,0,0,1,2.5-.133q2.4-.033,3.267-0.1a4.492,4.492,0,0,1,1.733.067q1.2,0.2,1.2-.4a0.5,0.5,0,0,1,.267-0.433,0.8,0.8,0,0,0,.3-0.667,0.449,0.449,0,0,0-.3-0.567q-0.334-.066-0.4-2.133-0.067-1.4.333-1.4a0.267,0.267,0,0,0,.167-0.133,1.832,1.832,0,0,0,.2-0.367,1.02,1.02,0,0,0,.1-0.367,0.947,0.947,0,0,0-.667-0.933,5.47,5.47,0,0,1-.933-0.733,1.527,1.527,0,0,0-1.134-.6,1.787,1.787,0,0,0-1.066.333A2.744,2.744,0,0,1,140.808,30.784Zm2.133,5.233q0.133,1.134-.866.133-0.8-.8.066-0.8a0.414,0.414,0,0,0,.434-0.267,0.44,0.44,0,0,1,.466-0.267c0.244,0,.367.033,0.367,0.1a0.676,0.676,0,0,1-.233.333,1.055,1.055,0,0,0-.234.767h0Zm19.134-4.333a4.8,4.8,0,0,1-.4,1.333,2.349,2.349,0,0,0-.267.667,0.283,0.283,0,0,1-.267.267,0.529,0.529,0,0,0-.266.6,2.288,2.288,0,0,1-.034.433,0.311,0.311,0,0,1-.166.233,2.041,2.041,0,0,1-.467.133,0.815,0.815,0,0,0-.6.6,1.341,1.341,0,0,1-.367.633,0.281,0.281,0,0,0-.166.233,1.027,1.027,0,0,1-.267.467q-0.267.334-.867,1.2a2.368,2.368,0,0,1-.666.867,0.427,0.427,0,0,0-.267.333,0.415,0.415,0,0,1-.333.333,0.646,0.646,0,0,0-.367.333,0.623,0.623,0,0,1-.4.333,0.391,0.391,0,0,0-.267.367,0.389,0.389,0,0,1-.266.367,0.164,0.164,0,0,0-.167.2,0.435,0.435,0,0,1-.367.333,0.862,0.862,0,0,0-.5.667,0.729,0.729,0,0,1-.333.6,0.625,0.625,0,0,0-.333.4,1.08,1.08,0,0,1-.334.4,0.232,0.232,0,0,0-.2.2,1.557,1.557,0,0,1-.4.6,3.706,3.706,0,0,0-.466.667,0.424,0.424,0,0,1-.267.333,18.17,18.17,0,0,0-2.467,2.4,3.687,3.687,0,0,1-.933.867,1.258,1.258,0,0,0-.533.433,1.407,1.407,0,0,0-.4.567,0.284,0.284,0,0,1-.267.267,1.7,1.7,0,0,0-.433.233,3.4,3.4,0,0,0-.434.367,0.628,0.628,0,0,0-.2.267,1.532,1.532,0,0,1-.6.567,5.825,5.825,0,0,1-1.066.633,0.833,0.833,0,0,0-.467.333,14.492,14.492,0,0,1-1.4,1.133,1.515,1.515,0,0,0-.4.533,0.528,0.528,0,0,0,.067.667,1.251,1.251,0,0,0,1.066.133,2.109,2.109,0,0,0,1-.433,0.535,0.535,0,0,1,.367-0.233,0.547,0.547,0,0,0,.367-0.333,0.786,0.786,0,0,1,.533-0.4,1.171,1.171,0,0,0,.6-0.333,3.092,3.092,0,0,1,1.533-1,0.476,0.476,0,0,0,.367-0.2,2.283,2.283,0,0,1,.767-0.467,0.672,0.672,0,0,0,.533-0.4,0.415,0.415,0,0,1,.333-0.333,0.47,0.47,0,0,0,.4-0.267,0.468,0.468,0,0,1,.4-0.267,0.6,0.6,0,0,0,.4-0.4,0.275,0.275,0,0,1,.234-0.267,0.544,0.544,0,0,0,.366-0.333,1.179,1.179,0,0,1,.467-0.4,5.128,5.128,0,0,0,1.667-1.4,1.717,1.717,0,0,1,.866-0.6,0.457,0.457,0,0,0,.367-0.267,0.452,0.452,0,0,1,.3-0.267,0.405,0.405,0,0,0,.233-0.367,0.407,0.407,0,0,1,.234-0.367,1.121,1.121,0,0,0,.6-0.4,1.649,1.649,0,0,0,.466-0.667,0.285,0.285,0,0,1,.267-0.267,0.731,0.731,0,0,0,.467-0.267,0.948,0.948,0,0,1,.333-0.267,3.224,3.224,0,0,0,.867-0.8,2.855,2.855,0,0,0,.733-1,0.364,0.364,0,0,1,.333-0.3,0.366,0.366,0,0,0,.334-0.3,0.649,0.649,0,0,1,.233-0.433,0.64,0.64,0,0,0,.233-0.367,1.912,1.912,0,0,1,.534-0.667q0.333-.333.733-0.8a1.39,1.39,0,0,0,.267-0.8q0.066-.6.233-0.6a0.545,0.545,0,0,0,.367-0.333,0.541,0.541,0,0,1,.4-0.333,0.3,0.3,0,0,0,.266-0.3,0.5,0.5,0,0,1,.467-0.367,1.336,1.336,0,0,0,.667-0.4,0.931,0.931,0,0,1,.5-0.333,0.529,0.529,0,0,0,.366-0.267,0.58,0.58,0,0,1,.467-0.267q0.2,0,.2-0.7t-0.2-.7a0.413,0.413,0,0,1-.333-0.333,4.168,4.168,0,0,0-.534-0.733,1.158,1.158,0,0,1-.333-0.667,0.309,0.309,0,0,0-.2-0.333,1.393,1.393,0,0,1-.333-0.667,2.162,2.162,0,0,0-.4-0.733,0.379,0.379,0,0,1-.267-0.267q-0.267-.4-1,0.267a2.146,2.146,0,0,0-.533,1.2h0Zm-23.8,8.8a0.653,0.653,0,0,1,.2.467,0.6,0.6,0,0,0,.366.4,0.569,0.569,0,0,1,.3.533,0.86,0.86,0,0,0,.434.6,0.611,0.611,0,0,1,.366.333,0.427,0.427,0,0,0,.334.333,0.637,0.637,0,0,1,.266.7,0.67,0.67,0,0,0,.234.7,0.455,0.455,0,0,1,.3.2q0.132,2.267.4,2.4a0.393,0.393,0,0,1,.2.333,1.429,1.429,0,0,0,.333.567,1.219,1.219,0,0,0,1.033.433,1.582,1.582,0,0,0,1.167-.467,3.691,3.691,0,0,0,.833-1.033,6.925,6.925,0,0,0,.1-1.567V43.884l-0.666-.6a2.716,2.716,0,0,0-1.267-.667,2.246,2.246,0,0,1-.867-0.4,4,4,0,0,0-.533-0.4,7.563,7.563,0,0,0-.8-0.467,1.575,1.575,0,0,0-.667-0.2,0.569,0.569,0,0,1-.466-0.267,0.341,0.341,0,0,0-.334-0.333,0.6,0.6,0,0,1-.333-0.333,1.018,1.018,0,0,0-.4-0.333,0.434,0.434,0,0,1-.333-0.4,0.236,0.236,0,0,0-.267-0.267,0.215,0.215,0,0,0-.233.1,1.4,1.4,0,0,0,.033.5,0.929,0.929,0,0,0,.267.667h0Zm-10.467,4.233a0.623,0.623,0,0,1-.333.4,0.626,0.626,0,0,0-.334.4,0.368,0.368,0,0,1-.2.3,0.506,0.506,0,0,0-.366.3,0.5,0.5,0,0,1-.3.3,0.423,0.423,0,0,0-.334.3,0.593,0.593,0,0,1-.333.367,0.414,0.414,0,0,0-.333.333,1.751,1.751,0,0,1-.434.667,1,1,0,0,1-.566.4,0.392,0.392,0,0,0-.334.267,1.606,1.606,0,0,1-.4.633,0.9,0.9,0,0,1-.533.367,0.307,0.307,0,0,0-.333.2,2.12,2.12,0,0,1-.734.8l-0.6.467v0.867a3.6,3.6,0,0,0,.134,1,2.065,2.065,0,0,0,.7.133,2.492,2.492,0,0,0,1.4-.333,3.823,3.823,0,0,1,.9-0.4,3.6,3.6,0,0,0,.933-0.733,3.109,3.109,0,0,1,.867-0.733,0.7,0.7,0,0,0,.333-0.467,3.348,3.348,0,0,1,.733-1,2.44,2.44,0,0,0,.667-1,0.841,0.841,0,0,1,.267-0.6,2.188,2.188,0,0,0,.4-0.667,1.379,1.379,0,0,1,.4-0.6,1.557,1.557,0,0,0,.333-1.067,2.361,2.361,0,0,0-.2-1.333q-0.267-.6-1.067,0A0.718,0.718,0,0,0,127.808,44.717ZM196.075,5.95q-0.534.2-.534,1.733a1.051,1.051,0,0,1-.266.9,0.5,0.5,0,0,0-.267.433,1.124,1.124,0,0,1-.2.633,3.919,3.919,0,0,0-.4.9q-0.667,2-1,2a0.885,0.885,0,0,0-.6.4,1.688,1.688,0,0,0-.4.8,1.53,1.53,0,0,1-1.067,1.333,0.357,0.357,0,0,0-.266.4,0.739,0.739,0,0,1-.867.8,0.509,0.509,0,0,1-.4-0.067,0.819,0.819,0,0,0-.667-0.4,1.216,1.216,0,0,0-.866-0.067,0.408,0.408,0,0,0-.267.367,0.283,0.283,0,0,0,.2.3,1.647,1.647,0,0,1,1,1.667,5.37,5.37,0,0,1-.067,1.5c-0.089.423-.222,0.633-0.4,0.633a0.391,0.391,0,0,0-.333.267,0.478,0.478,0,0,1-.2.333,1.443,1.443,0,0,0-.2.733,0.9,0.9,0,0,0,.267.867,0.446,0.446,0,0,1,.2.2,0.222,0.222,0,0,1,0,.233,0.226,0.226,0,0,1-.2.1,0.375,0.375,0,0,0-.334.4v0.667q0,0.2-.133,2.733a15.6,15.6,0,0,0,.033,2.567q0.1,0.434.7,0.3a1.446,1.446,0,0,0,.5-0.367,2.925,2.925,0,0,0,.534-0.767,3.132,3.132,0,0,0,.3-0.867,1.33,1.33,0,0,1,.333-0.8,1.193,1.193,0,0,0,.267-0.867q0.132-7.8.266-8.6l0.067-.4,0.733,0.067c0.534,0.045.822-.044,0.867-0.267a0.456,0.456,0,0,1,.4-0.333,2.1,2.1,0,0,0,1-1.467,0.759,0.759,0,0,1,.633-0.5,1.457,1.457,0,0,0,.767-0.367,0.747,0.747,0,0,1,.4-0.267,0.528,0.528,0,0,0,.067-0.333,1.643,1.643,0,0,0-.134-0.6,1.463,1.463,0,0,0-.266-0.467q-0.2-.133.2-0.333l0.866-.333q1.134-.466,1.4-0.067a1.354,1.354,0,0,0,1.067.067,11.084,11.084,0,0,1,1.467-.133l0.933-.133a0.6,0.6,0,0,1,.6.267q0.466,0.667-.467,1.6-1.134,1.134-.133,1.267a0.7,0.7,0,0,1,.467.267,1.426,1.426,0,0,0,.733.2q0.533,0.067.567-.267a0.535,0.535,0,0,1,.366-0.467,0.753,0.753,0,0,0,.4-0.267,1.023,1.023,0,0,1,.634-0.233,1.473,1.473,0,0,0,.966-0.7l0.334-.6,1-.067a2.356,2.356,0,0,0,1.333-.4,1.122,1.122,0,0,1,.6-0.4,0.359,0.359,0,0,0,.267-0.2,1.956,1.956,0,0,1,1.066-.267h0.467a0.592,0.592,0,0,0,.267-0.067,0.3,0.3,0,0,0,.166-0.167,1.014,1.014,0,0,0,.034-0.3,1.313,1.313,0,0,0-.034-0.867,0.593,0.593,0,0,0-.433-0.533,0.427,0.427,0,0,1-.267-0.333,0.416,0.416,0,0,0-.333-0.333,0.507,0.507,0,0,1-.333-0.467,0.7,0.7,0,0,0-.3-0.4c-0.067,0-.1-0.067-0.1-0.2a0.323,0.323,0,0,0-.334-0.267,1.453,1.453,0,0,1-.566-0.4,0.737,0.737,0,0,0-.7-0.2,0.676,0.676,0,0,0-.634.367,0.341,0.341,0,0,1-.266.3,0.77,0.77,0,0,0-.4.533,1.061,1.061,0,0,1-.434.6,0.4,0.4,0,0,0-.2.433,0.987,0.987,0,0,1-.333.7,1.5,1.5,0,0,1-1.2.4,3.039,3.039,0,0,0-1.133.133c-0.178.133-.312,0.133-0.4,0a1.306,1.306,0,0,0-1-.133,5.678,5.678,0,0,1-1.3-.1,0.729,0.729,0,0,1-.5-0.567,1.621,1.621,0,0,0-.467-0.667,0.73,0.73,0,0,1-.267-0.467,1.406,1.406,0,0,0-.433-0.567,1.406,1.406,0,0,0-.567-0.433,0.866,0.866,0,0,1-.2-0.467,1.076,1.076,0,0,0-.266-0.6q-0.2-.133-0.534-0.4c-0.222-.222-0.378-0.244-0.466-0.067a1.558,1.558,0,0,1-.4.267h0ZM181.941,8.884a1.7,1.7,0,0,1-.266.9,4.291,4.291,0,0,0-.434,1.467,2.229,2.229,0,0,1-.366,1.167,0.391,0.391,0,0,0-.2.333,2.168,2.168,0,0,1-.2.6,9.327,9.327,0,0,1-.467.933,3.293,3.293,0,0,1-.4.6,1.878,1.878,0,0,0-.267.9,1.282,1.282,0,0,0,.067.8,0.294,0.294,0,0,0,.4.033,4.56,4.56,0,0,1,1.667-.267l1.4-.067,0.666-.6a2.661,2.661,0,0,1,.8-0.6,0.8,0.8,0,0,0,.2-0.667,0.643,0.643,0,0,1,.4-0.667,0.428,0.428,0,0,0,.334-0.267c0-.088.088-0.133,0.266-0.133q0.466,0,.467-0.867a0.616,0.616,0,0,1,.467-0.533,0.7,0.7,0,0,0,.333-0.733,0.988,0.988,0,0,0-.667-0.733,1.164,1.164,0,0,1-.733-0.733,0.84,0.84,0,0,0-.467-0.6,5.566,5.566,0,0,1-1.333-1,2.328,2.328,0,0,0-.567-0.467,1.459,1.459,0,0,0-.633,0,1.1,1.1,0,0,0-.467,1.2h0Zm26.567,5.667a0.508,0.508,0,0,0-.333.367,0.347,0.347,0,0,1-.3.3,1.244,1.244,0,0,0-.634.4,1.258,1.258,0,0,0-.433.533,0.63,0.63,0,0,0,.233.267c0.156,0.133.322,0.267,0.5,0.4a2.948,2.948,0,0,0,.4.267,0.316,0.316,0,0,1,.267.333,0.537,0.537,0,0,0,.2.433,0.751,0.751,0,0,1,.2.6,0.467,0.467,0,0,1-.2.5,0.782,0.782,0,0,0-.2.733,0.769,0.769,0,0,0,.333.8c0.222,0.045.334,0.111,0.334,0.2a1.64,1.64,0,0,1-.334.6,2.5,2.5,0,0,0-.266.567,3.654,3.654,0,0,0-.1.7q-0.035.467-.034,1.933V27.15l0.467,0.467a0.936,0.936,0,0,0,1.333.267,0.889,0.889,0,0,1,.534-0.2,0.437,0.437,0,0,0,.4-0.333,0.776,0.776,0,0,1,.333-0.433,0.572,0.572,0,0,0,.267-0.433,0.415,0.415,0,0,1,.333-0.333,0.164,0.164,0,0,0,.2-0.167,0.991,0.991,0,0,1,.267-0.5,1.993,1.993,0,0,0,.266-1.2,7.407,7.407,0,0,1,.134-1.467,6.224,6.224,0,0,0,0-1.867q-0.267-1.933.466-1.933,0.267,0,.267-0.2a0.316,0.316,0,0,1,.267-0.333,0.787,0.787,0,0,0,.466-0.4,0.626,0.626,0,0,1,.334-0.4,0.538,0.538,0,0,0,.166-0.467,0.894,0.894,0,0,0-.333-0.533,1.38,1.38,0,0,0-.7-0.333,1.711,1.711,0,0,1-.867-0.4,0.914,0.914,0,0,0-.533-0.333c-0.133,0-.2-0.044-0.2-0.133a0.886,0.886,0,0,0-.6-0.333,0.717,0.717,0,0,1-.6-0.4,0.382,0.382,0,0,0-.3-0.267,0.535,0.535,0,0,1-.367-0.3,0.777,0.777,0,0,0-.7-0.3,0.6,0.6,0,0,0-.633.333A0.422,0.422,0,0,1,208.508,14.55Zm1.767,4.733a0.171,0.171,0,1,1,.166.133A0.134,0.134,0,0,1,210.275,19.284Zm0.2,2.333a0.791,0.791,0,0,1-.567-0.367,1.227,1.227,0,0,1-.433-0.633c0-.133.266-0.2,0.8-0.2a0.843,0.843,0,0,1,.333.133,0.891,0.891,0,0,1,.067.467,0.589,0.589,0,0,1-.2.6h0Zm-10.8-6a0.772,0.772,0,0,0-.6.167,0.862,0.862,0,0,0-.067.633,0.677,0.677,0,0,1-.2.733,2.007,2.007,0,0,0-.667,1.333,1.076,1.076,0,0,1-.266.6,1.2,1.2,0,0,0-.2.733,0.635,0.635,0,0,0,.266.5,2.188,2.188,0,0,0,.934.033,2.007,2.007,0,0,0,1.133-.867,2.612,2.612,0,0,1,2.467-1.133,1.763,1.763,0,0,0,1.733-.467,0.824,0.824,0,0,1,.467-0.133,0.372,0.372,0,0,0,.366-0.2,1.517,1.517,0,0,1,.7-0.467,0.615,0.615,0,0,0,.467-0.4q0-.2-0.467-0.267a2.21,2.21,0,0,0-1.866.333,2.176,2.176,0,0,1-1.534.333,5.535,5.535,0,0,1-1.666-.067,0.481,0.481,0,0,1-.3-0.333,0.236,0.236,0,0,1,.233-0.267,0.72,0.72,0,0,0,.4-0.6,0.735,0.735,0,0,0-.067-0.8l-0.333-.267-0.267.4a0.684,0.684,0,0,1-.666.467h0Zm0.666,6.067a0.679,0.679,0,0,0,.267.667,0.393,0.393,0,0,1,.267.333,0.389,0.389,0,0,0,.266.333,0.83,0.83,0,0,1,.467.933,1.576,1.576,0,0,0,.2.667l0.4,0.8c0.089,0.133.177,0.267,0.267,0.4s0.177,0.256.266,0.367a1.125,1.125,0,0,0,.3.267,1.419,1.419,0,0,0,.267.133,0.15,0.15,0,0,0,.167-0.033,0.543,0.543,0,0,1,.4-0.133,1.149,1.149,0,0,0,.933-0.8,2.4,2.4,0,0,0,.133-0.967,1.729,1.729,0,0,0-.4-1.167,3.967,3.967,0,0,0-1.866-1.2,1.181,1.181,0,0,1-.334-0.333,0.316,0.316,0,0,0-.333-0.267,0.307,0.307,0,0,1-.333-0.2,0.629,0.629,0,0,0-.4-0.333,4.425,4.425,0,0,1-.534-0.133,0.435,0.435,0,0,0-.333,0A1.935,1.935,0,0,0,200.341,21.684Zm-4.666.2a0.546,0.546,0,0,1-.2.333,0.956,0.956,0,0,0-.4.667,0.858,0.858,0,0,1-.667.667,0.769,0.769,0,0,0-.3.167,0.516,0.516,0,0,0-.133.2,4.246,4.246,0,0,0-.1.433,1.234,1.234,0,0,1-1,1.133,3.174,3.174,0,0,0-.9.7,2.013,2.013,0,0,1-.967.633,0.569,0.569,0,0,0-.533.3,0.4,0.4,0,0,0,.266.433,1.284,1.284,0,0,0,1.067.067,1.2,1.2,0,0,0,.733-0.733,0.824,0.824,0,0,1,.667-0.533,3.354,3.354,0,0,0,.833-0.233,1.239,1.239,0,0,0,.367-0.5,1.737,1.737,0,0,1,.8-0.8,1.243,1.243,0,0,0,.467-0.333,0.671,0.671,0,0,1,.566-0.233,0.8,0.8,0,0,0,.7-0.5,1.527,1.527,0,0,1,1.334-.733,1.341,1.341,0,0,0,.533-0.167,1.04,1.04,0,0,0,.267-0.433,0.875,0.875,0,0,0,.033-0.633,2.559,2.559,0,0,0-.967-0.167,1.9,1.9,0,0,1-1.1-.3,0.449,0.449,0,0,0-.333-0.2,5.488,5.488,0,0,0-.567.3,1.128,1.128,0,0,0-.466.467h0Zm-20.934,2.8a0.622,0.622,0,0,1-.333.4,0.935,0.935,0,0,0-.267.533,1.591,1.591,0,0,1-.6.933,3.348,3.348,0,0,0-.733,1,1.061,1.061,0,0,1-.333.6,1.12,1.12,0,0,0-.334.8,0.686,0.686,0,0,1-.2.6,1.027,1.027,0,0,0-.466.267q-0.267.267-.734,0.667a1.11,1.11,0,0,0-.466.6,1,1,0,0,1-.434.567,1.271,1.271,0,0,1-.633.367c-0.223,0-.333.289-0.333,0.867a0.52,0.52,0,0,1-.1.367,1.43,1.43,0,0,1-.434.233,1.031,1.031,0,0,0-.733.4,3.117,3.117,0,0,1-.6.8,2.724,2.724,0,0,0-.6,1,0.6,0.6,0,0,1-.467.467,0.921,0.921,0,0,0-.6.333,0.967,0.967,0,0,0-.4.867,0.789,0.789,0,0,0,.167.467,2.656,2.656,0,0,0,.5.2,2.164,2.164,0,0,0,1.267-.333,2.1,2.1,0,0,0,.733-0.667,3.069,3.069,0,0,1,1.067-1.067c0.133,0,.2-0.022.2-0.067a1.117,1.117,0,0,1,.4-0.6,2.862,2.862,0,0,1,.666-0.533,0.549,0.549,0,0,0,.334-0.433,3.325,3.325,0,0,1,.933-1.167,3.486,3.486,0,0,1,1.333-1,0.8,0.8,0,0,0,.334-0.667,0.738,0.738,0,0,1,.4-0.667,0.8,0.8,0,0,0,.466-0.467,0.273,0.273,0,0,1,.2-0.267,0.135,0.135,0,0,0,.134-0.167,0.931,0.931,0,0,1,.333-0.5,1.483,1.483,0,0,0,.467-0.867,3.339,3.339,0,0,1,.766-1.067,1.838,1.838,0,0,1,.9-0.667c0.134,0,.2-0.089.2-0.267a1.158,1.158,0,0,1,.334-0.667,1.359,1.359,0,0,0,.4-1,0.6,0.6,0,0,1,.266-0.667,0.345,0.345,0,0,0,.267-0.467,0.743,0.743,0,0,0-.8-0.667,0.576,0.576,0,0,0-.4.2q-0.2.267-.6,0l-0.467-.2-0.466.667a2.6,2.6,0,0,0-.534.933h0Zm7.667-.4q-0.534.134-.533,2.133a1.949,1.949,0,0,1-.134,1.067,0.683,0.683,0,0,0-.266.6,2.1,2.1,0,0,0,.066.933,1.162,1.162,0,0,1-.066.867,3.354,3.354,0,0,0-.267,1.567,2.8,2.8,0,0,1-.2,1.367,32.7,32.7,0,0,0-.267,4.333q-0.134,4.067-.133,4.133a15.068,15.068,0,0,0-.133,2.2,11.623,11.623,0,0,1-.267,2.6,10.775,10.775,0,0,0-.333,2.533,8.5,8.5,0,0,1-.267,2.4,1.661,1.661,0,0,0-.2.733,1.336,1.336,0,0,0,.4.733,0.594,0.594,0,0,0,1,.3,2.9,2.9,0,0,0,.5-0.4,0.794,0.794,0,0,0,.233-0.3,0.533,0.533,0,0,1,.267-0.333,0.557,0.557,0,0,0,.267-0.433,1.119,1.119,0,0,1,.266-0.6,1.121,1.121,0,0,0,.267-0.567,1.117,1.117,0,0,1,.4-0.6l0.333-.467V42.95q0-6.133-.066-6.467a0.77,0.77,0,0,0-.267-0.4q-0.467-.2.067-0.667a2.323,2.323,0,0,0,.333-1.1,4.205,4.205,0,0,0,0-1.5,0.782,0.782,0,0,1,.167-0.7,1.639,1.639,0,0,0,.3-0.967,2.436,2.436,0,0,0-.234-1.333,6.269,6.269,0,0,1-.233-2.533,10.5,10.5,0,0,0-.067-3l-0.133-.2q-0.4-.466-0.4-0.067a0.49,0.49,0,0,1-.4.267h0Zm13.867,1.667a0.672,0.672,0,0,1-.534.4,1.4,1.4,0,0,0-.633.667,0.942,0.942,0,0,1-.7.533,0.546,0.546,0,0,0-.533.4,3.594,3.594,0,0,1-.767.933,3.406,3.406,0,0,1-.9.8,0.845,0.845,0,0,0-.4.467,1.524,1.524,0,0,1-.733.6q-1.267.667-1.267,1.133c0,0.09-.067.133-0.2,0.133a0.627,0.627,0,0,0-.433.367,0.64,0.64,0,0,1-.4.367,0.926,0.926,0,0,0-.5.367,0.9,0.9,0,0,1-.6.367,0.575,0.575,0,0,0-.4.2,2.348,2.348,0,0,1-.6.4,3.763,3.763,0,0,0-.8.6,1.71,1.71,0,0,0-.234.367,0.745,0.745,0,0,0,.167.433,0.664,0.664,0,0,0,1.133.267,5.337,5.337,0,0,1,.667-0.267,0.456,0.456,0,0,0,.4-0.333,1.137,1.137,0,0,1,.6-0.467,1.029,1.029,0,0,0,.467-0.267c0-.089.11-0.155,0.333-0.2a8.525,8.525,0,0,0,1.667-1.333,3.808,3.808,0,0,1,1.066-.8,0.322,0.322,0,0,0,.334-0.267,0.414,0.414,0,0,1,.333-0.333,0.959,0.959,0,0,0,.5-0.433,0.463,0.463,0,0,1,.367-0.3c0.133,0,.2-0.022.2-0.067a0.8,0.8,0,0,1,.533-0.467,3.25,3.25,0,0,0,1.4-1.533,0.692,0.692,0,0,1,.3-0.4,2.023,2.023,0,0,1,.467.8,6.843,6.843,0,0,1,.5,1.467,1.58,1.58,0,0,0,.4.8,0.95,0.95,0,0,1,.166.733,0.733,0.733,0,0,1-.3.667,1.217,1.217,0,0,0-.333.867,1.8,1.8,0,0,0-.033.567,0.294,0.294,0,0,0,.3.1,0.318,0.318,0,0,1,.333.167,4.963,4.963,0,0,1,.133.967q0.066,1.134.067,2.267a2.318,2.318,0,0,0,.2,1.167,1.316,1.316,0,0,0,.867.433q1.332,0.2,1.333.533c0,0.045.077,0.067,0.233,0.067a1.159,1.159,0,0,1,.634.333,1.133,1.133,0,0,0,1.466,0q0.666-.533.067-0.867a1.729,1.729,0,0,1-.333-1,1.744,1.744,0,0,0-.367-1.033,1.978,1.978,0,0,1-.233-1.3,7.849,7.849,0,0,0-.934-2.867,4.7,4.7,0,0,1-.4-1.267,1.744,1.744,0,0,0-.333-1,2.9,2.9,0,0,1-.6-0.867,5.546,5.546,0,0,1-.333-2.2V26.284l-0.467-.333a5.18,5.18,0,0,0-.967-0.5,3.061,3.061,0,0,0-.966-0.3,0.663,0.663,0,0,0-.267.267,1.536,1.536,0,0,0-.133.533h0Zm3.5,8.567a0.47,0.47,0,0,1-.434.167c-0.356,0-.466-0.155-0.333-0.467q0.133-.4.667,0A0.206,0.206,0,0,1,199.775,34.517Zm11.433-6.333a0.511,0.511,0,0,0-.333.567q-0.067,1.467-.4,1.6a0.248,0.248,0,0,0-.2.133,1.12,1.12,0,0,1-.334.5q-0.333.367-.733,0.733a3.355,3.355,0,0,1-.533.433,2.272,2.272,0,0,0-.934.667,2.37,2.37,0,0,1-.833.667c-0.111,0-.145.133-0.1,0.4a0.463,0.463,0,0,0,.233.433,4.042,4.042,0,0,0,1.034-.167,1.59,1.59,0,0,0,1-.4,3.7,3.7,0,0,1,1.733-.933,1.188,1.188,0,0,0,.667-0.333,1.772,1.772,0,0,1,1-.367,1.739,1.739,0,0,0,1.133-.567,1.146,1.146,0,0,0,.133-1.733,1.274,1.274,0,0,1-.333-0.533,0.675,0.675,0,0,0-.367-0.367,0.625,0.625,0,0,1-.366-0.433,0.417,0.417,0,0,0-.334-0.333q-0.333-.066-0.333-0.2c0-.088-0.078-0.133-0.233-0.133s-0.234.045-.234,0.133A0.373,0.373,0,0,1,211.208,28.184Zm-7.267,5.767a2.546,2.546,0,0,1,.267.667,1.155,1.155,0,0,0,.267.667,2.6,2.6,0,0,1,.533.6,1.569,1.569,0,0,1,.467.933,3.473,3.473,0,0,0,.666,1.133,8.9,8.9,0,0,1,.734.8,6.056,6.056,0,0,0,2,2,1.164,1.164,0,0,1,.333.333,0.837,0.837,0,0,1-.067.533,0.872,0.872,0,0,0,.467,1.067,0.723,0.723,0,0,1,.4.6,0.671,0.671,0,0,0,.4.533,0.391,0.391,0,0,1,.333.267,2.17,2.17,0,0,0,.567.733,2.037,2.037,0,0,0,.5.4,0.164,0.164,0,0,1,.2.167,1.415,1.415,0,0,0,.467.633,2.313,2.313,0,0,0,.666.533,0.284,0.284,0,0,1,.267.267,0.57,0.57,0,0,0,.4.4,0.585,0.585,0,0,1,.4.367,0.164,0.164,0,0,0,.2.167,0.365,0.365,0,0,1,.3.333,0.612,0.612,0,0,0,.367.433,0.332,0.332,0,0,1,.266.3,0.415,0.415,0,0,0,.334.333,0.529,0.529,0,0,1,.466.267,0.589,0.589,0,0,0,.6.2,1.814,1.814,0,0,0,.934-0.233,1.408,1.408,0,0,1,.666-0.233,1.144,1.144,0,0,0,.634-0.267,2.651,2.651,0,0,1,1.3-.333,2.393,2.393,0,0,0,.933-0.2,0.644,0.644,0,0,0,.2-0.567,0.751,0.751,0,0,0-.2-0.6,1.956,1.956,0,0,0-.933-0.233,3.713,3.713,0,0,1-.767-0.133,0.436,0.436,0,0,1-.233-0.333,0.854,0.854,0,0,0-.367-0.6,0.536,0.536,0,0,1-.3-0.4,0.8,0.8,0,0,0-.233-0.3q-0.234-.233-0.5-0.533a6.922,6.922,0,0,0-.567-0.567,1.622,1.622,0,0,0-.5-0.333c-0.4-.222-0.645-0.355-0.733-0.4a1.431,1.431,0,0,1-.6-0.533,0.581,0.581,0,0,0-.467-0.267,0.333,0.333,0,0,1-.3-0.267,0.323,0.323,0,0,0-.233-0.267,1.555,1.555,0,0,1-.6-0.4,1.359,1.359,0,0,0-.667-0.467,0.74,0.74,0,0,1-.4-0.333,0.707,0.707,0,0,0-.467-0.333,0.3,0.3,0,0,1-.266-0.3,0.344,0.344,0,0,0-.367-0.3q-0.3,0-.3-0.2a0.416,0.416,0,0,0-.333-0.333,0.415,0.415,0,0,1-.334-0.333,0.416,0.416,0,0,0-.333-0.333,1.821,1.821,0,0,1-1.067-1.2,3.065,3.065,0,0,0-.8-1.067,5.333,5.333,0,0,1-1.6-1.533c0-.133-0.089-0.2-0.266-0.2a0.544,0.544,0,0,1-.4-0.533,0.784,0.784,0,0,0-.334-0.533,0.992,0.992,0,0,1-.466-0.4,0.89,0.89,0,0,0-.734-0.333,0.777,0.777,0,0,0-.7.367,0.739,0.739,0,0,0-.1.7h0Zm-8.6.733a0.435,0.435,0,0,0-.333.367,0.458,0.458,0,0,1-.267.367,0.379,0.379,0,0,0-.266.267,0.316,0.316,0,0,1-.334.267,0.315,0.315,0,0,0-.333.267,0.8,0.8,0,0,1-.467.467,1.935,1.935,0,0,0-.7.467,0.644,0.644,0,0,1-.466.267,0.36,0.36,0,0,0-.334.167,0.857,0.857,0,0,1-.433.3,0.515,0.515,0,0,0-.2.867,0.635,0.635,0,0,0,.7.033,0.628,0.628,0,0,0,.567-0.4,0.422,0.422,0,0,1,.333-0.367,1.85,1.85,0,0,0,.667-0.4q0.333-.266.8-0.667a3.805,3.805,0,0,0,.733-0.667,0.915,0.915,0,0,1,.533-0.333,1.544,1.544,0,0,0,1-1.067l0.267-.533c0-.044-0.078-0.067-0.233-0.067a2.535,2.535,0,0,0-.534.067,0.9,0.9,0,0,0-.366.133,0.393,0.393,0,0,1-.334.2h0Zm-2.8,6.733,0.067,0.467q0,0.467-.067,1.2c-0.044.49-.156,0.733-0.333,0.733a0.579,0.579,0,0,0-.467.267,0.818,0.818,0,0,1-.6.4,1.038,1.038,0,0,0-.6.4,0.539,0.539,0,0,1-.4.333,0.177,0.177,0,0,0-.2.2,1,1,0,0,1-.433.567,1.816,1.816,0,0,1-.767.433,0.416,0.416,0,0,0-.333.333,0.193,0.193,0,0,1-.233.2,0.507,0.507,0,0,0-.4.4,0.523,0.523,0,0,1-.334.4c-0.111,0-.166.123-0.166,0.367a0.356,0.356,0,0,0,.433.367,0.945,0.945,0,0,0,.7-0.267,1.145,1.145,0,0,1,.733-0.367,0.738,0.738,0,0,0,.6-0.3,1.324,1.324,0,0,1,.734-0.467,1.3,1.3,0,0,0,.733-0.6,1.287,1.287,0,0,1,.667-0.6,1.817,1.817,0,0,0,.666-0.467,0.262,0.262,0,0,1,.267-0.2,1.889,1.889,0,0,0,.8-0.533,3.662,3.662,0,0,1,1.067-.8,0.5,0.5,0,0,0,.466-0.367c0-.155.044-0.233,0.134-0.233a1.724,1.724,0,0,0,.633-0.467,1.566,1.566,0,0,0,.5-0.6,1.252,1.252,0,0,0-.4-0.533,3.562,3.562,0,0,0-2.467-.4Zm11.1,0.3a0.185,0.185,0,0,0,.3.033,0.215,0.215,0,0,0,.134-0.167,0.489,0.489,0,0,0,.033-0.3,0.143,0.143,0,0,0-.133-0.133,0.568,0.568,0,0,0-.3.267A0.223,0.223,0,0,0,203.641,41.717Zm-5.5.967a1.537,1.537,0,0,1,.2.633,1.128,1.128,0,0,0,.167.533,0.989,0.989,0,0,1,.033.767,1.3,1.3,0,0,0,0,1,0.84,0.84,0,0,1-.066.867,3.086,3.086,0,0,0-.267,1.067,1.176,1.176,0,0,0,.267,1,1.364,1.364,0,0,1,.333.4,0.925,0.925,0,0,1-.533.133,0.531,0.531,0,0,0-.467.3,0.924,0.924,0,0,1-.4.5,2.578,2.578,0,0,1-1.567.5,3.1,3.1,0,0,0-1.266.233,1.266,1.266,0,0,0,.033.767,2.729,2.729,0,0,0,.267.833,5.157,5.157,0,0,1,.133,1.733,3.583,3.583,0,0,0,.133,1.733,2.328,2.328,0,0,0,1.4.067,1.552,1.552,0,0,0,1.2-.4,0.861,0.861,0,0,1,.467-0.4,1.38,1.38,0,0,0,.6-0.4,0.418,0.418,0,0,1,.367-0.2,1.4,1.4,0,0,0,.7-0.367,1.012,1.012,0,0,0,.466-0.567,0.435,0.435,0,0,1,.334-0.4,0.91,0.91,0,0,0,.4-0.6,0.955,0.955,0,0,1,.333-0.633,0.373,0.373,0,0,0,.2-0.367,1.355,1.355,0,0,1,.433-0.667,1.523,1.523,0,0,0,.434-1.067,0.782,0.782,0,0,1,.2-0.7,1.133,1.133,0,0,0,.2-0.9,11.23,11.23,0,0,1,.466-2.733,2.88,2.88,0,0,0,0-1.733,1.761,1.761,0,0,1-.066-1.067,0.546,0.546,0,0,0,.133-0.4c0-.177-0.133-0.2-0.4-0.067a1.656,1.656,0,0,0-.667.267q-0.666.467-2.333-.133a2.168,2.168,0,0,0-1.8-.133,0.432,0.432,0,0,0-.067.6h0Z"/>
  <path id="_35" data-name="35" class="cls-1" d="M13.733,17.879a7.619,7.619,0,0,1,4.4-1.429,5.722,5.722,0,0,1,4,1.458,4.956,4.956,0,0,1,1.6,3.85q0,3.267-6.417,7.992-1.4,1.05-2.567,2.1L15.4,32.958a6.857,6.857,0,0,1,4.433-1.983A5.6,5.6,0,0,1,24.467,33.4,9.894,9.894,0,0,1,26.3,39.549a11.01,11.01,0,0,1-2.712,7.525,8.145,8.145,0,0,1-6.271,3.092q-2.275,0-5.542-2.45A3.811,3.811,0,0,0,9.5,46.666a1.765,1.765,0,0,0-1.2.5,1.44,1.44,0,0,0-.554,1.079q0,1.284,2.1,2.246a15.236,15.236,0,0,0,6.125.962,14.129,14.129,0,0,0,10.267-3.908,12.82,12.82,0,0,0,4.025-9.567A10.206,10.206,0,0,0,27.7,30.8a8.014,8.014,0,0,0-6.825-2.508A24.517,24.517,0,0,0,25.692,23.8a7.04,7.04,0,0,0,1.546-4.317,5.384,5.384,0,0,0-2.217-4.142,8.226,8.226,0,0,0-5.483-1.867,9.185,9.185,0,0,0-6.008,1.954,15.107,15.107,0,0,0-4.083,5.979l1.05,0.583A9.39,9.39,0,0,1,13.733,17.879ZM55,13.066H54.129a2.646,2.646,0,0,1-1.983.875q-1.4.118-5.775,0.117H40.012L38.9,32.724H39.9a4.147,4.147,0,0,1,2.071-1.458,8.81,8.81,0,0,1,3.063-.525A8.246,8.246,0,0,1,51.3,33.454a9.562,9.562,0,0,1,2.538,6.8,9.742,9.742,0,0,1-2.508,6.679,7.54,7.54,0,0,1-5.775,2.829q-2.509,0-6.592-3.092a1.768,1.768,0,0,0-1.05-.292,1.818,1.818,0,0,0-1.458.613,1.864,1.864,0,0,0-.525,1.2q0,1.225,2.45,2.246a13.827,13.827,0,0,0,5.367,1.021A14.4,14.4,0,0,0,53.108,48.1a11.216,11.216,0,0,0,4.113-9.187A11.411,11.411,0,0,0,53.9,30.391a11.136,11.136,0,0,0-8.108-3.267,12.065,12.065,0,0,0-5.25,1.225L41.3,17.674a33.233,33.233,0,0,1,5.017-.175h8.167Z"/>
</svg>
