<svg xmlns="http://www.w3.org/2000/svg" width="188" height="60" viewBox="0 0 188 60">
  <defs>
    <style>
      .cls-1 {
        fill: #fff;
        fill-rule: evenodd;
      }
    </style>
  </defs>
  <path id="个影像" class="cls-1" d="M50.442,10.784a1.246,1.246,0,0,1-.333.867,2.148,2.148,0,0,0-.467.767,2.811,2.811,0,0,1-.333.8,1.651,1.651,0,0,0-.267.667,0.391,0.391,0,0,1-.2.333,2.233,2.233,0,0,0-.467.8,1.7,1.7,0,0,1-.4.667,0.886,0.886,0,0,0-.133.667q0,1.134-.467,1.267a0.729,0.729,0,0,0-.333.6,0.74,0.74,0,0,1-.4.667,0.957,0.957,0,0,0-.4.667,0.959,0.959,0,0,1-.4.667,0.407,0.407,0,0,0-.267.367,0.475,0.475,0,0,1-.267.4,0.909,0.909,0,0,0-.333.7,0.731,0.731,0,0,1-.333.6,0.729,0.729,0,0,0-.333.6,0.8,0.8,0,0,1-.333.6,0.892,0.892,0,0,0-.333.667,1.11,1.11,0,0,1-.4.8,0.39,0.39,0,0,0-.267.333,0.539,0.539,0,0,1-.267.4,1.169,1.169,0,0,0-.467.667,4.534,4.534,0,0,1-.333.667,0.576,0.576,0,0,0-.2.4,0.743,0.743,0,0,1-.333.4,1.079,1.079,0,0,0-.467.667,0.857,0.857,0,0,1-.467.6,0.537,0.537,0,0,0-.267.4,0.193,0.193,0,0,1-.233.2,1.083,1.083,0,0,0-.633.467,1.386,1.386,0,0,0-.4.667q0,0.934-.333.933a1.558,1.558,0,0,0-.6.467,1.347,1.347,0,0,0-.467.667,3.064,3.064,0,0,1-1.067,1.067,0.8,0.8,0,0,0-.367.5,1.5,1.5,0,0,1-.7.733,0.767,0.767,0,0,0-.467.367,1.245,1.245,0,0,1-.467.333,0.62,0.62,0,0,0-.4.333,1,1,0,0,1-.433.567,1.272,1.272,0,0,1-.633.367,0.407,0.407,0,0,0-.233.367,0.569,0.569,0,0,1-.5.433,1.616,1.616,0,0,0-.633.4,0.9,0.9,0,0,0-.367.533,1.25,1.25,0,0,1-.4.533,1.119,1.119,0,0,1-.6.4,1.118,1.118,0,0,0-.6.4,1.111,1.111,0,0,1-.6.467,0.5,0.5,0,0,0-.433.267,0.45,0.45,0,0,1-.333.267,0.474,0.474,0,0,0-.333.333,0.473,0.473,0,0,1-.367.333,0.359,0.359,0,0,0-.367.4,1,1,0,0,0,.233.733,0.878,0.878,0,0,0,.933.067,2.977,2.977,0,0,0,.567-0.133c0.11-.044.21-0.089,0.3-0.133a0.36,0.36,0,0,0,.167-0.133,0.465,0.465,0,0,0,.033-0.2,0.34,0.34,0,0,1,.333-0.333,0.706,0.706,0,0,0,.5-0.367,0.462,0.462,0,0,1,.367-0.3,1.576,1.576,0,0,0,.6-0.4,0.885,0.885,0,0,1,.6-0.4,0.236,0.236,0,0,0,.267-0.267,0.457,0.457,0,0,1,.4-0.333,5.238,5.238,0,0,0,1.1-.867,2.184,2.184,0,0,0,.7-0.867c0-.133.044-0.2,0.133-0.2a2.943,2.943,0,0,0,.6-0.4,9.723,9.723,0,0,1,.867-0.8,0.913,0.913,0,0,1,.533-0.333,0.618,0.618,0,0,0,.433-0.333,0.619,0.619,0,0,1,.433-0.333,0.177,0.177,0,0,0,.2-0.2,0.536,0.536,0,0,1,.3-0.4,0.544,0.544,0,0,0,.3-0.333,1.916,1.916,0,0,1,.433-0.667,1.45,1.45,0,0,1,.567-0.533,3.866,3.866,0,0,0,1.2-1.2,1.256,1.256,0,0,1,.4-0.533,1.118,1.118,0,0,0,.4-0.6,0.3,0.3,0,0,1,.3-0.2,0.3,0.3,0,0,0,.3-0.233,4.019,4.019,0,0,1,.867-1.1,1.427,1.427,0,0,0,.4-0.5,2.97,2.97,0,0,1,.633-0.733,2.832,2.832,0,0,0,.767-1.1,0.667,0.667,0,0,1,.4-0.533,0.284,0.284,0,0,0,.267-0.267,0.73,0.73,0,0,1,.267-0.467,1.684,1.684,0,0,0,.4-0.667,0.729,0.729,0,0,1,.333-0.6,0.391,0.391,0,0,0,.267-0.333,0.7,0.7,0,0,1,.333-0.467,1.341,1.341,0,0,0,.4-0.667,0.778,0.778,0,0,1,.467-0.533,0.542,0.542,0,0,0,.333-0.4,0.978,0.978,0,0,1,.267-0.533,1.243,1.243,0,0,0,.267-0.8,1.822,1.822,0,0,1,.667-1.133,1.9,1.9,0,0,0,.733-0.967,0.4,0.4,0,0,1,.2-0.4,1.515,1.515,0,0,0,.467-0.7,1.415,1.415,0,0,1,.433-0.6,0.5,0.5,0,0,0,.2-0.4,0.442,0.442,0,0,1,.233-0.4,1.347,1.347,0,0,0,.667-0.533,2.4,2.4,0,0,0,.533-0.8,0.321,0.321,0,0,1,.267-0.333,0.9,0.9,0,0,1,.533.4,2.868,2.868,0,0,1,.467.733,1.563,1.563,0,0,0,.333.733,3.452,3.452,0,0,1,.4,1.133,5.176,5.176,0,0,0,.667,1.533,4.187,4.187,0,0,1,.6,1.667,2.374,2.374,0,0,0,.367,1.3,2.063,2.063,0,0,1,.4,1,0.926,0.926,0,0,0,.333.733,0.611,0.611,0,0,1,.333.367,0.5,0.5,0,0,0,.367.333,0.316,0.316,0,0,1,.267.333,0.584,0.584,0,0,0,.067.267,0.864,0.864,0,0,0,.167.233,0.319,0.319,0,0,0,.233.1,1.089,1.089,0,0,0,.333-0.067,0.647,0.647,0,0,1,.533-0.033,0.787,0.787,0,0,1,.067.633,0.994,0.994,0,0,0,.267.933,1.415,1.415,0,0,1,.3.933,0.9,0.9,0,0,0,.3.8,6.384,6.384,0,0,1,.933.6,0.888,0.888,0,0,0,.933.267,1.8,1.8,0,0,1,1.3-.233,1.674,1.674,0,0,1,1.167.233,0.318,0.318,0,0,1-.133.433,1.306,1.306,0,0,1-.667.3q-0.4.067-.4,0.2c0,0.09-.067.133-0.2,0.133a0.222,0.222,0,0,0-.267.233,0.742,0.742,0,0,0,.267.5,1.811,1.811,0,0,1,.333.467c0,0.09.11,0.156,0.333,0.2a0.5,0.5,0,0,1,.467.367,0.3,0.3,0,0,0,.267.3,0.322,0.322,0,0,1,.267.333,0.777,0.777,0,0,0,.767.433,1.119,1.119,0,0,1,.7.2,1.211,1.211,0,0,0,.6.367,1.01,1.01,0,0,1,.733.733,0.826,0.826,0,0,0,.6.667,0.862,0.862,0,0,1,.6.467,0.334,0.334,0,0,0,.367.267,0.736,0.736,0,0,1,.533.233,0.343,0.343,0,0,0,.5.033,3.276,3.276,0,0,1,1.467-.233,3.618,3.618,0,0,0,1.633-.3,3.354,3.354,0,0,1,1.533-.3,4.025,4.025,0,0,1,1.7.233,4.3,4.3,0,0,0,1.467.2,1.265,1.265,0,0,0,1.067-.267q0.666-1.2-1.533-1.667a3.317,3.317,0,0,1-1.067-.4,3.638,3.638,0,0,0-1.267-.267,1.257,1.257,0,0,1-1-.333,1.189,1.189,0,0,0-.167-0.333l-0.3-.4a1.127,1.127,0,0,0-.8-0.333,1.8,1.8,0,0,1-.867-0.267,1.087,1.087,0,0,0-.7-0.233,0.683,0.683,0,0,0-.633.167,0.19,0.19,0,0,1-.133.133q-0.267,0-.267-0.6a0.974,0.974,0,0,0-.8-1.133,2.142,2.142,0,0,1-1-.4,1.845,1.845,0,0,0-1-.4,0.953,0.953,0,0,1-.567-0.1,1.034,1.034,0,0,1-.167-0.5,1.047,1.047,0,0,0-.167-0.5,0.913,0.913,0,0,0-.433-0.167,1.645,1.645,0,0,1-.733-0.4,0.547,0.547,0,0,0-.367-0.333,0.379,0.379,0,0,1-.3-0.267,0.627,0.627,0,0,0-.467-0.4,3.087,3.087,0,0,1-1.1-.767,2.674,2.674,0,0,0-.967-0.7,0.177,0.177,0,0,1-.2-0.2,0.285,0.285,0,0,0-.267-0.267,0.717,0.717,0,0,1-.4-0.6,1.194,1.194,0,0,0-.4-0.7,1.007,1.007,0,0,0-.667-0.3,0.261,0.261,0,0,1-.267-0.2,0.6,0.6,0,0,0-.4-0.4,0.535,0.535,0,0,1-.333-0.633,0.635,0.635,0,0,0-.2-0.633,0.621,0.621,0,0,1-.4-0.467,0.6,0.6,0,0,0-.4-0.4,0.283,0.283,0,0,1-.267-0.267,0.262,0.262,0,0,0-.2-0.267,1.825,1.825,0,0,1-.6-0.733,7.765,7.765,0,0,1-.533-1,1.74,1.74,0,0,0-.4-0.733,1.662,1.662,0,0,1-.433-0.933,1.133,1.133,0,0,0-.3-0.733,1.619,1.619,0,0,1-.267-0.667,1.263,1.263,0,0,0-.333-0.733q-0.334-.2-0.2-1.667a10,10,0,0,0,.067-1.867,0.663,0.663,0,0,0-.533-0.533,0.659,0.659,0,0,1-.467-0.233,1.22,1.22,0,0,0-.6-0.367,1.07,1.07,0,0,1-.667-0.533,0.336,0.336,0,0,0-.367-0.2,0.379,0.379,0,0,1-.367-0.133q-0.334-.533-0.933.467A2.028,2.028,0,0,0,50.442,10.784Zm9.733,15.433a0.268,0.268,0,0,1-.2-0.067c-0.133,0-.145-0.055-0.033-0.167a0.511,0.511,0,0,1,.367-0.167,0.262,0.262,0,0,1,.267.2q0.066,0.2-.4.2h0Zm1.733,1.333a0.553,0.553,0,0,1-.6.167,1.59,1.59,0,0,1-.733-0.167c-0.133-.088-0.19-0.155-0.167-0.2a0.812,0.812,0,0,1,.3-0.2,1.139,1.139,0,0,0,.533-0.467,0.307,0.307,0,0,1,.333-0.2c0.177,0,.288.156,0.333,0.467a0.663,0.663,0,0,1,0,.6h0Zm-10.6-.7a10.922,10.922,0,0,0,.267,1.433,2.718,2.718,0,0,1,0,1.467,2.472,2.472,0,0,0,.067,1.267,2.712,2.712,0,0,1,.133,1.133q-0.067.534-.133,3.467a10.789,10.789,0,0,1-.2,3.133,0.868,0.868,0,0,0,.067.867,11.335,11.335,0,0,1,.2,3.867,5.068,5.068,0,0,1-.333,1.8,0.945,0.945,0,0,0-.167.733,1.851,1.851,0,0,0,.3.933,0.343,0.343,0,0,1-.133.467,4.621,4.621,0,0,0-.333,1.933,4.427,4.427,0,0,1-.333,2.067,1.374,1.374,0,0,0-.2,1.067,1.279,1.279,0,0,0,.267.867,2.25,2.25,0,0,1,.333.533,0.85,0.85,0,0,0,.5.4,1,1,0,0,0,.667.033,0.374,0.374,0,0,0,.3-0.367,0.449,0.449,0,0,1,.133-0.333,0.954,0.954,0,0,0,.3-0.3,2.574,2.574,0,0,0,.267-0.467,1.016,1.016,0,0,0,.1-0.367,1.283,1.283,0,0,1,.2-0.667,3.445,3.445,0,0,0,.267-1.2,2.251,2.251,0,0,1,.267-1.067,3.391,3.391,0,0,0,.367-1.567,20.527,20.527,0,0,0,.167-2.1,5,5,0,0,1-.067-0.933q0.2-2.266.2-4.067,0-.133-0.067-2.133a63.953,63.953,0,0,1,.067-6.4c0-.044-0.023-0.244-0.067-0.6-0.09-.355-0.033-0.555.167-0.6a0.957,0.957,0,0,0,.367-0.933,2.933,2.933,0,0,1,.4-1.333,1.576,1.576,0,0,0,.367-0.6,1.411,1.411,0,0,0-.167-0.667,0.81,0.81,0,0,0-.5-0.467,5,5,0,0,0-1.433-.133,1.271,1.271,0,0,1-.933-0.2,0.914,0.914,0,0,0-.4-0.3,1.32,1.32,0,0,0-.467-0.167,1.544,1.544,0,0,0-.533.133A0.407,0.407,0,0,0,51.308,26.85Zm2.6,2.033a0.3,0.3,0,0,1-.067-0.333,0.362,0.362,0,0,1,.333-0.1,0.324,0.324,0,0,1,.267.2c0.044,0.111-.011.2-0.167,0.267A0.307,0.307,0,0,1,53.908,28.884Zm51.2-22a0.958,0.958,0,0,1-.4.667,0.78,0.78,0,0,0-.367.767,0.617,0.617,0,0,1-.433.7,1.43,1.43,0,0,1-.867,0,6.91,6.91,0,0,0-1.733-.133,2.587,2.587,0,0,0-1.4.267,0.857,0.857,0,0,1-.667.233,1.475,1.475,0,0,1-.867-0.167,1.9,1.9,0,0,0-1.2.333,2.563,2.563,0,0,1-.933.167,1.287,1.287,0,0,1-.8-0.1,1.869,1.869,0,0,1-.133-0.667,0.742,0.742,0,0,0-.4-0.667,0.459,0.459,0,0,1-.267-0.2,5.608,5.608,0,0,0-1.333-1.4l-0.333-.267-0.467.333q-0.667.534-.333,0.933a10.265,10.265,0,0,1,.333,2.367,13.177,13.177,0,0,1,.067,2.9q-0.067.534-.067,2.533a33.711,33.711,0,0,1-.333,5.333,5.948,5.948,0,0,0-.133,1.733,3.291,3.291,0,0,0,.2,1.633,0.457,0.457,0,0,1,.2.333,0.273,0.273,0,0,0,.267.233,1.226,1.226,0,0,1,.533.4q0.466,0.6.667-.4a2.121,2.121,0,0,1,.4-0.867,0.915,0.915,0,0,1,.533-0.467,0.17,0.17,0,0,0,.167-0.167,0.586,0.586,0,0,0-.033-0.333,0.749,0.749,0,0,0-.133-0.233q-0.334-.133-0.2-0.267a1.391,1.391,0,0,1,1.4-.267,1.083,1.083,0,0,1,.6.8,3.179,3.179,0,0,1,.2.867,0.449,0.449,0,0,0,.133.333,1.653,1.653,0,0,1,.133.967,1.546,1.546,0,0,1-.167,1,1.083,1.083,0,0,0-.3.633,0.916,0.916,0,0,1-.367.533,0.309,0.309,0,0,1-.433-0.133q-0.4-.6-1.867-0.133a12.7,12.7,0,0,1-2.8.4,11.7,11.7,0,0,1-2.6,0,14.409,14.409,0,0,0-2.8-.067,16.184,16.184,0,0,0-2,.067,0.692,0.692,0,0,0-.467.267,1.086,1.086,0,0,1-.8.267q-1.667,0-1.8,1.333a0.754,0.754,0,0,0,.267.8,0.6,0.6,0,0,1,.4.333c0.044,0.178.267,0.245,0.667,0.2a1.04,1.04,0,0,0,.733-0.267,2.242,2.242,0,0,1,1.333-.2,4.925,4.925,0,0,0,1.8-.333,3.547,3.547,0,0,1,1.267-.333,3.832,3.832,0,0,0,1.3-.333,1.94,1.94,0,0,1,1.233-.133,1.889,1.889,0,0,0,1.733,0,7.507,7.507,0,0,1,2.333-.333,15.5,15.5,0,0,0,3.067-.333,18.991,18.991,0,0,1,4.934-.533,3.183,3.183,0,0,0,1-.133,9.956,9.956,0,0,1,1.566-.167q1.434-.1,3.2-0.167t2.7-.067a0.941,0.941,0,0,0,.6-0.1,1.465,1.465,0,0,1,.467-0.3,1.565,1.565,0,0,0,.6-1.033,1.44,1.44,0,0,0,.1-1.067,1.407,1.407,0,0,1-.267-0.367,0.683,0.683,0,0,0-.633-0.2,1.428,1.428,0,0,0-1.4,1.067,1.121,1.121,0,0,1-.3.467,1.251,1.251,0,0,1-.567.2l-1.2.2a18.983,18.983,0,0,0-2.066.267,1.146,1.146,0,0,1-.934-0.067,0.678,0.678,0,0,0-.5-0.2,0.482,0.482,0,0,0-.433.2,2.607,2.607,0,0,1-1.5.267,5.857,5.857,0,0,1-1.767-.067,0.7,0.7,0,0,1-.433-0.467,0.5,0.5,0,0,1,.1-0.533,1.345,1.345,0,0,0,.333-0.8,2.978,2.978,0,0,1,.4-1.067q0.467-.6.067-0.933a0.739,0.739,0,0,1-.2-0.633,0.658,0.658,0,0,1,.367-0.667,0.374,0.374,0,0,1,.533.1,1.057,1.057,0,0,1,.167.333,0.7,0.7,0,0,0,.4.2,0.464,0.464,0,0,1,.4.4,0.307,0.307,0,0,0,.2.333,0.42,0.42,0,0,1,.133.3,0.638,0.638,0,0,0,.467.367,0.687,0.687,0,0,1,.466.667,1.212,1.212,0,0,0,.4.867,1.265,1.265,0,0,0,.534.333,1.122,1.122,0,0,0,.6-0.5,2.144,2.144,0,0,0,.466-0.833,0.531,0.531,0,0,1,.3-0.467,0.414,0.414,0,0,0,.3-0.333,0.846,0.846,0,0,1,.4-0.467,0.379,0.379,0,0,0,.267-0.267,1.027,1.027,0,0,1,.267-0.467,1.511,1.511,0,0,0,.266-0.867q0.066-.666.067-4.4a8.832,8.832,0,0,0,.067-1.2,31.337,31.337,0,0,1,.1-3.433,2.279,2.279,0,0,1,.566-1.1,1.015,1.015,0,0,0,.267-0.2,1.342,1.342,0,0,0,.4-0.667,0.779,0.779,0,0,1,.467-0.533,0.571,0.571,0,0,0,.4-0.4,1,1,0,0,0-.6-1,0.415,0.415,0,0,1-.334-0.333,0.177,0.177,0,0,0-.2-0.2,1.351,1.351,0,0,1-.666-0.433,1.22,1.22,0,0,1-.467-0.633,0.262,0.262,0,0,0-.2-0.267,0.882,0.882,0,0,1-.4-0.333,0.965,0.965,0,0,0-.667-0.333,0.993,0.993,0,0,0-.866.333,1.525,1.525,0,0,0-.467.867h0Zm-1.6,4.733c0.133,0,.2.09,0.2,0.267a0.577,0.577,0,0,1-.2.4,0.373,0.373,0,0,0-.2.3,0.164,0.164,0,0,0,.2.167,0.219,0.219,0,0,1,.2.167,1.853,1.853,0,0,1,.1.367,1.168,1.168,0,0,1-.033.467q-0.135.6-1.667,0.333a3.725,3.725,0,0,0-1,0q-0.267.067-1.067,0.2a2.135,2.135,0,0,0-.633.133,0.508,0.508,0,0,0-.1.4,0.431,0.431,0,0,0,.2.467,4.8,4.8,0,0,0,2.533-.2,1.37,1.37,0,0,1,1.534.2,3.125,3.125,0,0,1,.233,1.2,3.7,3.7,0,0,1-.033,1.4,0.322,0.322,0,0,1-.267.333,0.177,0.177,0,0,0-.2.2,0.357,0.357,0,0,0,.167.267,1.486,1.486,0,0,0,.466.233,1.8,1.8,0,0,0,.567.1q0.533,0,.533.333,0,0.8-.533.3t-0.733.5a1.2,1.2,0,0,1-.167.567,0.97,0.97,0,0,1-.467.167,10.426,10.426,0,0,1-1.5.067,4.281,4.281,0,0,0-1.933.467,1.291,1.291,0,0,1-1.133.267,3.992,3.992,0,0,0-1.333-.2,2.379,2.379,0,0,1-1.267-.367,1.327,1.327,0,0,0-.6-0.367,0.5,0.5,0,0,1-.367-0.3,5.948,5.948,0,0,1-.167-1.367,3.494,3.494,0,0,1,.133-1.4,2.605,2.605,0,0,0,.2-0.867,0.736,0.736,0,0,1,.733-0.733,1.161,1.161,0,0,0,.667-0.267,2.259,2.259,0,0,1,1.067-.267,1.208,1.208,0,0,0,.867-0.333q0.066-.466-2.067-0.333a5.4,5.4,0,0,1-1,.033,0.533,0.533,0,0,1-.433-0.2,0.558,0.558,0,0,1-.033-0.433,1.193,1.193,0,0,0-.133-0.8,1.981,1.981,0,0,1-.133-0.4,2.452,2.452,0,0,1-.067-0.6V11.817a3.312,3.312,0,0,1,.033-0.533,0.187,0.187,0,0,1,.167-0.2,0.547,0.547,0,0,1,.333.2,0.637,0.637,0,0,0,.933,0,6.747,6.747,0,0,1,2.667-.4,3.258,3.258,0,0,0,1.533-.267,3.871,3.871,0,0,1,1.733-.267l1.267-.067V10.95Q103.308,11.617,103.508,11.617Zm-5.4,11.533a0.133,0.133,0,1,0,.133-0.133A0.117,0.117,0,0,0,98.108,23.15Zm22.2-14.733q0,1.734-.4,1.867a0.683,0.683,0,0,0-.267.6,0.642,0.642,0,0,1-.4.667,1.269,1.269,0,0,0-.933,1,0.361,0.361,0,0,1-.167.333,1.819,1.819,0,0,0-.566.467,1.8,1.8,0,0,0-.467.567,1.809,1.809,0,0,1-.467.567,4.465,4.465,0,0,0-1,1.267,0.8,0.8,0,0,1-.333.5,0.939,0.939,0,0,0-.333.4,0.37,0.37,0,0,1-.3.2,0.531,0.531,0,0,0-.367.433,1.2,1.2,0,0,1-.8.867,0.7,0.7,0,0,0-.467.333,0.64,0.64,0,0,1-.233.367q-0.234.234-.5,0.467a0.762,0.762,0,0,1-.4.233,0.3,0.3,0,0,0-.2.3,0.441,0.441,0,0,1-.333.367q-0.534.134-.267,0.8a0.567,0.567,0,0,0,.5.3,0.955,0.955,0,0,0,.7-0.233,0.747,0.747,0,0,1,.5-0.267,0.505,0.505,0,0,0,.4-0.2,2.351,2.351,0,0,1,.667-0.467,1.022,1.022,0,0,0,.5-0.367,0.694,0.694,0,0,1,.4-0.3,2.54,2.54,0,0,0,.666-0.467l0.167-.167,0.2-.2,0.167-.167a1.164,1.164,0,0,1,.6-0.333c0.266-.044.4-0.133,0.4-0.267a0.54,0.54,0,0,1,.333-0.4,1.51,1.51,0,0,0,.467-0.4,0.213,0.213,0,0,1,.2-0.133,2.922,2.922,0,0,0,.833-0.533,2.589,2.589,0,0,0,.767-0.733,6.344,6.344,0,0,1,.733-0.533,1.237,1.237,0,0,0,.667-0.6,0.708,0.708,0,0,1,.3-0.267,4.827,4.827,0,0,1,.766-0.4c0.311-.133.6-0.244,0.867-0.333a1.652,1.652,0,0,0,.733-0.4,0.541,0.541,0,0,1,.4-0.267c0.134,0,.2-0.155.2-0.467a0.772,0.772,0,0,0-.466-0.867,0.242,0.242,0,0,1-.2-0.233,0.629,0.629,0,0,0-.267-0.4,0.621,0.621,0,0,1-.267-0.4,0.718,0.718,0,0,0-.333-0.433,1.015,1.015,0,0,1-.333-0.733c-0.09-.355-0.156-0.644-0.2-0.867a1.729,1.729,0,0,0-.4-0.867,0.889,0.889,0,0,0-.6-0.4,0.818,0.818,0,0,0-.567.333,1.248,1.248,0,0,0-.3.867h0Zm1.267,12.1a0.612,0.612,0,0,1-.334.367,0.611,0.611,0,0,0-.333.6,1.146,1.146,0,0,1-.2.6,1.869,1.869,0,0,0-.467.6,3.06,3.06,0,0,1-.4.667,0.683,0.683,0,0,0-.266.6,1.271,1.271,0,0,1-.267.733,1.664,1.664,0,0,0-.4.733,0.686,0.686,0,0,1-.4.633,0.257,0.257,0,0,0-.267.267,0.192,0.192,0,0,1-.2.233,0.784,0.784,0,0,0-.4.4,0.844,0.844,0,0,1-.4.467,0.665,0.665,0,0,0-.266.533,0.88,0.88,0,0,1-.467.667,2.32,2.32,0,0,0-.8,1.133,2.382,2.382,0,0,1-.533.867,0.98,0.98,0,0,0-.267.533,0.177,0.177,0,0,1-.2.2,0.374,0.374,0,0,0-.367.3,0.345,0.345,0,0,1-.3.3,0.572,0.572,0,0,0-.4.4,0.95,0.95,0,0,1-.366.467,0.818,0.818,0,0,0-.267.6c-0.067.356-.167,0.533-0.3,0.533a0.845,0.845,0,0,0-.4.467,3.331,3.331,0,0,1-.733.867,3.766,3.766,0,0,0-1.267,1.6q0,0.267.667,0.267a0.716,0.716,0,0,0,.733-0.233,0.569,0.569,0,0,1,.533-0.3,0.926,0.926,0,0,0,.734-0.4,0.541,0.541,0,0,1,.4-0.333,0.283,0.283,0,0,0,.266-0.267,0.316,0.316,0,0,1,.334-0.267,0.74,0.74,0,0,0,.466-0.667c0.044-.4.156-0.6,0.334-0.6a0.315,0.315,0,0,0,.333-0.267,0.858,0.858,0,0,1,.6-0.467,1.211,1.211,0,0,0,.6-0.367,0.468,0.468,0,0,1,.333-0.233,0.416,0.416,0,0,0,.334-0.333,0.539,0.539,0,0,1,.333-0.4,1.835,1.835,0,0,0,1.067-1.133c0-.133.044-0.2,0.133-0.2a1.072,1.072,0,0,0,.433-0.167,2.366,2.366,0,0,0,.534-0.4,0.779,0.779,0,0,0,.233-0.3,0.259,0.259,0,0,1,.167-0.267,1.552,1.552,0,0,0,.466-0.667,3.422,3.422,0,0,1,.467-0.767,0.585,0.585,0,0,0,.167-0.433c0-.177.044-0.267,0.133-0.267a0.924,0.924,0,0,0,.4-0.533,1.442,1.442,0,0,1,.533-0.667,0.354,0.354,0,0,0,.2-0.267,2.092,2.092,0,0,1,.5-0.7,1.766,1.766,0,0,1,.634-0.567,0.177,0.177,0,0,0,.2-0.2,0.777,0.777,0,0,1,.6-0.267,0.9,0.9,0,0,0,.7-0.267,2.8,2.8,0,0,0,.033-1.067,0.758,0.758,0,0,0-.333-0.733,0.242,0.242,0,0,1-.2-0.233,1.808,1.808,0,0,0-.4-0.7,2.057,2.057,0,0,1-.4-0.8,0.96,0.96,0,0,0-.234-0.333,4.8,4.8,0,0,0-.466-0.467,0.693,0.693,0,0,0-.334-0.2,1.436,1.436,0,0,0-.5.4A3.13,3.13,0,0,0,121.575,20.517Zm-16.8,10.267a1.5,1.5,0,0,0-.934.3,0.673,0.673,0,0,1-.733.2,4.208,4.208,0,0,0-1.067,0q-0.733.067-1.4,0.133a2.228,2.228,0,0,0-.733.133q-0.4.334-3.467,0.333a4.216,4.216,0,0,0-1.967.233,0.505,0.505,0,0,1-.633.033,1.437,1.437,0,0,1-.6-0.533,0.678,0.678,0,0,0-.733-0.267l-0.667.067v4.267a23.476,23.476,0,0,1-.2,4.6,2.436,2.436,0,0,0-.4,2,0.507,0.507,0,0,0,.333.467,0.262,0.262,0,0,1,.267.2l0.2,0.133q0.4,0.134.4-.133a0.746,0.746,0,0,1,.267-0.4,0.952,0.952,0,0,0,.267-0.333,2.18,2.18,0,0,1,.667-0.867,0.98,0.98,0,0,0,.333-0.467,0.39,0.39,0,0,1,.267-0.333,1.42,1.42,0,0,0,.4-0.667,0.911,0.911,0,0,1,.633-0.633,0.614,0.614,0,0,0,.5-0.333,0.719,0.719,0,0,1,.3-0.433c0.2-.177.21-0.31,0.033-0.4q-0.2-.066-0.733-0.2a0.715,0.715,0,0,1-.667-0.533,12.469,12.469,0,0,1-.067-2.6V33.284h0.533a2.675,2.675,0,0,0,1.067-.267,13.578,13.578,0,0,1,3.533-.333,13.193,13.193,0,0,0,3.266-.267,0.661,0.661,0,0,1,.934.133,0.893,0.893,0,0,1,.066,1,1.718,1.718,0,0,0-.166.967,0.671,0.671,0,0,0,.3.7,1.344,1.344,0,0,1,.2.967,1.662,1.662,0,0,1-.2,1.033,1.713,1.713,0,0,1-1.4.267,2.094,2.094,0,0,0-1.067.133,5.2,5.2,0,0,1-1.4.267,2.894,2.894,0,0,0-1.233.367,0.505,0.505,0,0,1-.567.1,0.815,0.815,0,0,0-.7-0.1,0.826,0.826,0,0,0-.567.333,1.7,1.7,0,0,0,.067,1.033,1.944,1.944,0,0,1,.1,1,1.342,1.342,0,0,0,.167.867,3.671,3.671,0,0,1,.167,1.4,1.847,1.847,0,0,1-.233,1.067,0.382,0.382,0,0,0-.033.5,3.6,3.6,0,0,1,.1,1.5q-0.067.734-.133,2.067a10.33,10.33,0,0,1-.133,1.167,1.061,1.061,0,0,0,.133.7,1.576,1.576,0,0,1,.2.667,1.09,1.09,0,0,1-.867.867q-0.867,0-.867.6c0,0.31.055,0.467,0.167,0.467a0.659,0.659,0,0,1,.4.4,0.654,0.654,0,0,0,.4.4,0.676,0.676,0,0,1,.367.5,7.207,7.207,0,0,1,.333,1.1,1.57,1.57,0,0,0,.3.867,0.735,0.735,0,0,0,.7.2q0.933-.134,1.866-2.067,0.2-.467.4-0.933a3.4,3.4,0,0,0,.334-1.533,25.706,25.706,0,0,0-.4-6.2,30.25,30.25,0,0,1-.3-3.667,13.607,13.607,0,0,1,0-2.633,13.2,13.2,0,0,1,2.5-.133q2.4-.033,3.266-0.1a4.5,4.5,0,0,1,1.734.067q1.2,0.2,1.2-.4a0.5,0.5,0,0,1,.266-0.433,0.792,0.792,0,0,0,.3-0.667,0.449,0.449,0,0,0-.3-0.567q-0.333-.066-0.4-2.133-0.066-1.4.334-1.4a0.263,0.263,0,0,0,.166-0.133,1.734,1.734,0,0,0,.2-0.367,1,1,0,0,0,.1-0.367,0.946,0.946,0,0,0-.666-0.933,5.464,5.464,0,0,1-.934-0.733,1.525,1.525,0,0,0-1.133-.6,1.792,1.792,0,0,0-1.067.333A2.736,2.736,0,0,1,104.775,30.784Zm2.133,5.233q0.133,1.134-.867.133-0.8-.8.067-0.8a0.412,0.412,0,0,0,.433-0.267,0.441,0.441,0,0,1,.467-0.267c0.244,0,.367.033,0.367,0.1a0.673,0.673,0,0,1-.234.333,1.055,1.055,0,0,0-.233.767h0Zm19.133-4.333a4.731,4.731,0,0,1-.4,1.333,2.332,2.332,0,0,0-.266.667,0.284,0.284,0,0,1-.267.267,0.529,0.529,0,0,0-.267.6,2.3,2.3,0,0,1-.033.433,0.312,0.312,0,0,1-.167.233,2.007,2.007,0,0,1-.466.133,0.815,0.815,0,0,0-.6.6,1.349,1.349,0,0,1-.367.633,0.282,0.282,0,0,0-.167.233,1.021,1.021,0,0,1-.266.467q-0.267.335-.867,1.2a2.352,2.352,0,0,1-.667.867,0.426,0.426,0,0,0-.266.333,0.415,0.415,0,0,1-.334.333,0.648,0.648,0,0,0-.366.333,0.626,0.626,0,0,1-.4.333,0.39,0.39,0,0,0-.267.367,0.39,0.39,0,0,1-.267.367,0.163,0.163,0,0,0-.166.2,0.435,0.435,0,0,1-.367.333,0.86,0.86,0,0,0-.5.667,0.731,0.731,0,0,1-.333.6,0.626,0.626,0,0,0-.334.4,1.071,1.071,0,0,1-.333.4,0.232,0.232,0,0,0-.2.2,1.555,1.555,0,0,1-.4.6,3.724,3.724,0,0,0-.467.667,0.421,0.421,0,0,1-.266.333,18.185,18.185,0,0,0-2.467,2.4,3.706,3.706,0,0,1-.933.867,1.258,1.258,0,0,0-.534.433,1.42,1.42,0,0,0-.4.567,0.283,0.283,0,0,1-.266.267,1.708,1.708,0,0,0-.434.233,3.332,3.332,0,0,0-.433.367,0.628,0.628,0,0,0-.2.267,1.531,1.531,0,0,1-.6.567,5.8,5.8,0,0,1-1.067.633,0.831,0.831,0,0,0-.466.333,14.6,14.6,0,0,1-1.4,1.133,1.5,1.5,0,0,0-.4.533,0.527,0.527,0,0,0,.066.667,1.254,1.254,0,0,0,1.067.133,2.114,2.114,0,0,0,1-.433,0.531,0.531,0,0,1,.367-0.233,0.546,0.546,0,0,0,.366-0.333,0.79,0.79,0,0,1,.534-0.4,1.171,1.171,0,0,0,.6-0.333,3.088,3.088,0,0,1,1.533-1,0.479,0.479,0,0,0,.367-0.2,2.266,2.266,0,0,1,.766-0.467,0.673,0.673,0,0,0,.534-0.4,0.413,0.413,0,0,1,.333-0.333,0.471,0.471,0,0,0,.4-0.267,0.467,0.467,0,0,1,.4-0.267,0.6,0.6,0,0,0,.4-0.4,0.275,0.275,0,0,1,.233-0.267,0.543,0.543,0,0,0,.367-0.333,1.166,1.166,0,0,1,.467-0.4,5.128,5.128,0,0,0,1.666-1.4,1.718,1.718,0,0,1,.867-0.6,0.46,0.46,0,0,0,.367-0.267,0.449,0.449,0,0,1,.3-0.267,0.409,0.409,0,0,0,.233-0.367,0.409,0.409,0,0,1,.233-0.367,1.114,1.114,0,0,0,.6-0.4,1.654,1.654,0,0,0,.467-0.667,0.284,0.284,0,0,1,.267-0.267,0.73,0.73,0,0,0,.466-0.267,0.958,0.958,0,0,1,.334-0.267,3.229,3.229,0,0,0,.866-0.8,2.85,2.85,0,0,0,.734-1,0.363,0.363,0,0,1,.333-0.3,0.364,0.364,0,0,0,.333-0.3,0.651,0.651,0,0,1,.234-0.433,0.64,0.64,0,0,0,.233-0.367,1.9,1.9,0,0,1,.533-0.667q0.333-.333.734-0.8a1.383,1.383,0,0,0,.266-0.8q0.066-.6.234-0.6a0.544,0.544,0,0,0,.366-0.333,0.544,0.544,0,0,1,.4-0.333,0.3,0.3,0,0,0,.267-0.3,0.5,0.5,0,0,1,.467-0.367,1.329,1.329,0,0,0,.666-0.4,0.934,0.934,0,0,1,.5-0.333,0.528,0.528,0,0,0,.367-0.267,0.578,0.578,0,0,1,.467-0.267q0.2,0,.2-0.7t-0.2-.7a0.414,0.414,0,0,1-.334-0.333,4.1,4.1,0,0,0-.533-0.733,1.152,1.152,0,0,1-.333-0.667,0.309,0.309,0,0,0-.2-0.333,1.391,1.391,0,0,1-.334-0.667,2.128,2.128,0,0,0-.4-0.733,0.377,0.377,0,0,1-.266-0.267q-0.267-.4-1,0.267a2.153,2.153,0,0,0-.534,1.2h0Zm-23.8,8.8a0.645,0.645,0,0,1,.2.467,0.6,0.6,0,0,0,.367.4,0.572,0.572,0,0,1,.3.533,0.859,0.859,0,0,0,.433.6,0.616,0.616,0,0,1,.367.333,0.425,0.425,0,0,0,.333.333,0.636,0.636,0,0,1,.267.7,0.67,0.67,0,0,0,.233.7,0.45,0.45,0,0,1,.3.2q0.133,2.267.4,2.4a0.391,0.391,0,0,1,.2.333,1.437,1.437,0,0,0,.334.567,1.218,1.218,0,0,0,1.033.433,1.583,1.583,0,0,0,1.167-.467,3.731,3.731,0,0,0,.833-1.033,6.925,6.925,0,0,0,.1-1.567V43.884l-0.667-.6a2.713,2.713,0,0,0-1.266-.667,2.238,2.238,0,0,1-.867-0.4,4.072,4.072,0,0,0-.533-0.4,7.664,7.664,0,0,0-.8-0.467,1.578,1.578,0,0,0-.667-0.2,0.572,0.572,0,0,1-.467-0.267,0.34,0.34,0,0,0-.333-0.333,0.6,0.6,0,0,1-.333-0.333,1.025,1.025,0,0,0-.4-0.333,0.435,0.435,0,0,1-.334-0.4,0.236,0.236,0,0,0-.266-0.267,0.216,0.216,0,0,0-.234.1,1.437,1.437,0,0,0,.034.5,0.934,0.934,0,0,0,.266.667h0ZM91.775,44.717a0.624,0.624,0,0,1-.333.4,0.625,0.625,0,0,0-.333.4,0.37,0.37,0,0,1-.2.3,0.508,0.508,0,0,0-.367.3,0.5,0.5,0,0,1-.3.3,0.422,0.422,0,0,0-.333.3,0.6,0.6,0,0,1-.333.367,0.415,0.415,0,0,0-.333.333,1.748,1.748,0,0,1-.433.667,1,1,0,0,1-.567.4,0.391,0.391,0,0,0-.333.267,1.616,1.616,0,0,1-.4.633,0.9,0.9,0,0,1-.533.367,0.307,0.307,0,0,0-.333.2,2.117,2.117,0,0,1-.733.8l-0.6.467v0.867a3.616,3.616,0,0,0,.133,1,2.063,2.063,0,0,0,.7.133,2.492,2.492,0,0,0,1.4-.333,3.838,3.838,0,0,1,.9-0.4,3.6,3.6,0,0,0,.933-0.733,3.108,3.108,0,0,1,.867-0.733,0.7,0.7,0,0,0,.333-0.467,3.353,3.353,0,0,1,.733-1,2.453,2.453,0,0,0,.667-1,0.842,0.842,0,0,1,.267-0.6,2.17,2.17,0,0,0,.4-0.667,1.387,1.387,0,0,1,.4-0.6,1.556,1.556,0,0,0,.333-1.067,2.362,2.362,0,0,0-.2-1.333q-0.267-.6-1.067,0A0.715,0.715,0,0,0,91.775,44.717ZM160.108,5.95q-0.534.2-.533,1.733a1.051,1.051,0,0,1-.267.9,0.5,0.5,0,0,0-.267.433,1.117,1.117,0,0,1-.2.633,3.963,3.963,0,0,0-.4.9q-0.666,2-1,2a0.885,0.885,0,0,0-.6.4,1.7,1.7,0,0,0-.4.8,1.529,1.529,0,0,1-1.066,1.333,0.358,0.358,0,0,0-.267.4,0.738,0.738,0,0,1-.867.8,0.51,0.51,0,0,1-.4-0.067,0.816,0.816,0,0,0-.666-0.4,1.218,1.218,0,0,0-.867-0.067,0.408,0.408,0,0,0-.267.367,0.283,0.283,0,0,0,.2.3,1.646,1.646,0,0,1,1,1.667,5.412,5.412,0,0,1-.066,1.5c-0.09.423-.223,0.633-0.4,0.633a0.392,0.392,0,0,0-.334.267,0.474,0.474,0,0,1-.2.333,1.443,1.443,0,0,0-.2.733,0.906,0.906,0,0,0,.267.867,0.441,0.441,0,0,1,.2.2,0.222,0.222,0,0,1,0,.233,0.225,0.225,0,0,1-.2.1,0.374,0.374,0,0,0-.333.4v0.667q0,0.2-.134,2.733a15.55,15.55,0,0,0,.034,2.567q0.1,0.434.7,0.3a1.455,1.455,0,0,0,.5-0.367,2.924,2.924,0,0,0,.533-0.767,3.132,3.132,0,0,0,.3-0.867,1.33,1.33,0,0,1,.333-0.8,1.188,1.188,0,0,0,.267-0.867q0.133-7.8.267-8.6l0.066-.4,0.734,0.067q0.8,0.067.866-.267a0.458,0.458,0,0,1,.4-0.333,2.1,2.1,0,0,0,1-1.467,0.759,0.759,0,0,1,.634-0.5,1.458,1.458,0,0,0,.766-0.367,0.751,0.751,0,0,1,.4-0.267,0.528,0.528,0,0,0,.067-0.333,1.662,1.662,0,0,0-.133-0.6,1.461,1.461,0,0,0-.267-0.467c-0.133-.089-0.067-0.2.2-0.333l0.867-.333q1.132-.466,1.4-0.067a1.351,1.351,0,0,0,1.066.067,11.084,11.084,0,0,1,1.467-.133l0.933-.133a0.6,0.6,0,0,1,.6.267q0.466,0.667-.466,1.6-1.134,1.134-.134,1.267a0.7,0.7,0,0,1,.467.267,1.43,1.43,0,0,0,.733.2c0.356,0.045.544-.044,0.567-0.267a0.535,0.535,0,0,1,.367-0.467,0.757,0.757,0,0,0,.4-0.267,1.019,1.019,0,0,1,.633-0.233,1.477,1.477,0,0,0,.967-0.7l0.333-.6,1-.067a2.352,2.352,0,0,0,1.333-.4,1.122,1.122,0,0,1,.6-0.4,0.357,0.357,0,0,0,.267-0.2,1.961,1.961,0,0,1,1.067-.267h0.466a0.588,0.588,0,0,0,.267-0.067,0.3,0.3,0,0,0,.167-0.167,1.02,1.02,0,0,0,.033-0.3,1.312,1.312,0,0,0-.033-0.867,0.593,0.593,0,0,0-.434-0.533,0.424,0.424,0,0,1-.266-0.333,0.417,0.417,0,0,0-.334-0.333,0.508,0.508,0,0,1-.333-0.467,0.692,0.692,0,0,0-.3-0.4c-0.067,0-.1-0.067-0.1-0.2a0.321,0.321,0,0,0-.333-0.267,1.449,1.449,0,0,1-.567-0.4,0.736,0.736,0,0,0-.7-0.2,0.673,0.673,0,0,0-.633.367,0.342,0.342,0,0,1-.267.3,0.773,0.773,0,0,0-.4.533,1.065,1.065,0,0,1-.433.6,0.4,0.4,0,0,0-.2.433,0.989,0.989,0,0,1-.334.7,1.5,1.5,0,0,1-1.2.4,3.039,3.039,0,0,0-1.133.133q-0.267.2-.4,0a1.3,1.3,0,0,0-1-.133,5.678,5.678,0,0,1-1.3-.1,0.731,0.731,0,0,1-.5-0.567,1.6,1.6,0,0,0-.467-0.667,0.727,0.727,0,0,1-.266-0.467,1.413,1.413,0,0,0-.434-0.567,1.413,1.413,0,0,0-.566-0.433,0.849,0.849,0,0,1-.2-0.467,1.083,1.083,0,0,0-.267-0.6q-0.2-.133-0.533-0.4c-0.223-.222-0.378-0.244-0.467-0.067a1.54,1.54,0,0,1-.4.267h0ZM145.975,8.884a1.7,1.7,0,0,1-.267.9,4.272,4.272,0,0,0-.433,1.467,2.235,2.235,0,0,1-.367,1.167,0.393,0.393,0,0,0-.2.333,2.168,2.168,0,0,1-.2.6,8.918,8.918,0,0,1-.467.933,3.293,3.293,0,0,1-.4.6,1.879,1.879,0,0,0-.266.9,1.277,1.277,0,0,0,.066.8,0.294,0.294,0,0,0,.4.033,4.564,4.564,0,0,1,1.667-.267l1.4-.067,0.667-.6a2.648,2.648,0,0,1,.8-0.6,0.812,0.812,0,0,0,.2-0.667,0.642,0.642,0,0,1,.4-0.667,0.426,0.426,0,0,0,.333-0.267c0-.088.089-0.133,0.267-0.133q0.465,0,.466-0.867a0.618,0.618,0,0,1,.467-0.533,0.7,0.7,0,0,0,.333-0.733,0.985,0.985,0,0,0-.666-0.733,1.164,1.164,0,0,1-.734-0.733,0.839,0.839,0,0,0-.466-0.6,5.566,5.566,0,0,1-1.334-1,2.331,2.331,0,0,0-.566-0.467,1.465,1.465,0,0,0-.634,0,1.1,1.1,0,0,0-.466,1.2h0Zm26.566,5.667a0.509,0.509,0,0,0-.333.367,0.347,0.347,0,0,1-.3.3,1.243,1.243,0,0,0-.633.4,1.256,1.256,0,0,0-.434.533,0.636,0.636,0,0,0,.234.267q0.233,0.2.5,0.4a2.827,2.827,0,0,0,.4.267,0.316,0.316,0,0,1,.266.333,0.537,0.537,0,0,0,.2.433,0.748,0.748,0,0,1,.2.6,0.466,0.466,0,0,1-.2.5,0.782,0.782,0,0,0-.2.733,0.768,0.768,0,0,0,.334.8q0.333,0.067.333,0.2a1.63,1.63,0,0,1-.333.6,2.465,2.465,0,0,0-.267.567,3.655,3.655,0,0,0-.1.7q-0.035.467-.033,1.933V27.15l0.466,0.467a0.937,0.937,0,0,0,1.334.267,0.884,0.884,0,0,1,.533-0.2,0.436,0.436,0,0,0,.4-0.333,0.78,0.78,0,0,1,.333-0.433,0.569,0.569,0,0,0,.267-0.433,0.416,0.416,0,0,1,.333-0.333,0.163,0.163,0,0,0,.2-0.167,0.991,0.991,0,0,1,.267-0.5,1.992,1.992,0,0,0,.267-1.2,7.487,7.487,0,0,1,.133-1.467,6.155,6.155,0,0,0,0-1.867q-0.267-1.933.467-1.933c0.177,0,.266-0.067.266-0.2a0.316,0.316,0,0,1,.267-0.333,0.791,0.791,0,0,0,.467-0.4,0.625,0.625,0,0,1,.333-0.4,0.538,0.538,0,0,0,.167-0.467,0.9,0.9,0,0,0-.334-0.533,1.38,1.38,0,0,0-.7-0.333,1.7,1.7,0,0,1-.866-0.4,0.916,0.916,0,0,0-.534-0.333c-0.133,0-.2-0.044-0.2-0.133a0.886,0.886,0,0,0-.6-0.333,0.717,0.717,0,0,1-.6-0.4,0.382,0.382,0,0,0-.3-0.267,0.532,0.532,0,0,1-.366-0.3,0.78,0.78,0,0,0-.7-0.3,0.6,0.6,0,0,0-.634.333A0.419,0.419,0,0,1,172.541,14.55Zm1.767,4.733a0.171,0.171,0,1,1,.167.133A0.135,0.135,0,0,1,174.308,19.284Zm0.2,2.333a0.793,0.793,0,0,1-.567-0.367,1.227,1.227,0,0,1-.433-0.633q0-.2.8-0.2a0.837,0.837,0,0,1,.333.133,0.891,0.891,0,0,1,.067.467,0.589,0.589,0,0,1-.2.6h0Zm-10.8-6a0.775,0.775,0,0,0-.6.167,0.873,0.873,0,0,0-.067.633,0.675,0.675,0,0,1-.2.733,2.007,2.007,0,0,0-.666,1.333,1.083,1.083,0,0,1-.267.6,1.2,1.2,0,0,0-.2.733,0.632,0.632,0,0,0,.267.5,2.183,2.183,0,0,0,.933.033,2.007,2.007,0,0,0,1.133-.867,2.612,2.612,0,0,1,2.467-1.133,1.763,1.763,0,0,0,1.733-.467,0.827,0.827,0,0,1,.467-0.133,0.374,0.374,0,0,0,.367-0.2,1.511,1.511,0,0,1,.7-0.467,0.615,0.615,0,0,0,.466-0.4c0-.133-0.156-0.222-0.466-0.267a2.211,2.211,0,0,0-1.867.333,2.172,2.172,0,0,1-1.533.333,5.539,5.539,0,0,1-1.667-.067,0.481,0.481,0,0,1-.3-0.333,0.236,0.236,0,0,1,.233-0.267,0.718,0.718,0,0,0,.4-0.6,0.735,0.735,0,0,0-.066-0.8l-0.334-.267-0.266.4a0.686,0.686,0,0,1-.667.467h0Zm0.667,6.067a0.679,0.679,0,0,0,.266.667,0.391,0.391,0,0,1,.267.333,0.39,0.39,0,0,0,.267.333,0.831,0.831,0,0,1,.466.933,1.576,1.576,0,0,0,.2.667l0.4,0.8,0.267,0.4c0.089,0.133.177,0.256,0.267,0.367a1.1,1.1,0,0,0,.3.267,1.416,1.416,0,0,0,.266.133,0.15,0.15,0,0,0,.167-0.033,0.545,0.545,0,0,1,.4-0.133,1.148,1.148,0,0,0,.933-0.8,2.4,2.4,0,0,0,.134-0.967,1.734,1.734,0,0,0-.4-1.167,3.965,3.965,0,0,0-1.867-1.2,1.177,1.177,0,0,1-.333-0.333,0.317,0.317,0,0,0-.334-0.267,0.307,0.307,0,0,1-.333-0.2,0.629,0.629,0,0,0-.4-0.333,4.336,4.336,0,0,1-.533-0.133,0.437,0.437,0,0,0-.334,0A1.972,1.972,0,0,0,164.375,21.684Zm-4.667.2a0.546,0.546,0,0,1-.2.333,0.959,0.959,0,0,0-.4.667,0.855,0.855,0,0,1-.667.667,0.769,0.769,0,0,0-.3.167,0.528,0.528,0,0,0-.133.2,4.246,4.246,0,0,0-.1.433,1.233,1.233,0,0,1-1,1.133,3.176,3.176,0,0,0-.9.7,2.013,2.013,0,0,1-.967.633,0.569,0.569,0,0,0-.533.3,0.4,0.4,0,0,0,.267.433,1.281,1.281,0,0,0,1.066.067,1.2,1.2,0,0,0,.734-0.733,0.821,0.821,0,0,1,.666-0.533,3.382,3.382,0,0,0,.834-0.233,1.249,1.249,0,0,0,.366-0.5,1.742,1.742,0,0,1,.8-0.8,1.243,1.243,0,0,0,.467-0.333,0.674,0.674,0,0,1,.567-0.233,0.8,0.8,0,0,0,.7-0.5,1.526,1.526,0,0,1,1.333-.733,1.335,1.335,0,0,0,.533-0.167,1.03,1.03,0,0,0,.267-0.433,0.869,0.869,0,0,0,.033-0.633,2.551,2.551,0,0,0-.966-0.167,1.9,1.9,0,0,1-1.1-.3,0.45,0.45,0,0,0-.334-0.2,5.523,5.523,0,0,0-.566.3,1.126,1.126,0,0,0-.467.467h0Zm-20.933,2.8a0.623,0.623,0,0,1-.334.4,0.93,0.93,0,0,0-.266.533,1.6,1.6,0,0,1-.6.933,3.373,3.373,0,0,0-.734,1,1.061,1.061,0,0,1-.333.6,1.12,1.12,0,0,0-.333.8,0.692,0.692,0,0,1-.2.6,1.024,1.024,0,0,0-.467.267q-0.267.267-.733,0.667a1.109,1.109,0,0,0-.467.6,1,1,0,0,1-.433.567,1.272,1.272,0,0,1-.634.367c-0.222,0-.333.29-0.333,0.867a0.515,0.515,0,0,1-.1.367,1.421,1.421,0,0,1-.433.233,1.034,1.034,0,0,0-.734.4,3.117,3.117,0,0,1-.6.8,2.724,2.724,0,0,0-.6,1,0.6,0.6,0,0,1-.466.467,0.921,0.921,0,0,0-.6.333,0.965,0.965,0,0,0-.4.867,0.8,0.8,0,0,0,.166.467,2.688,2.688,0,0,0,.5.2,2.161,2.161,0,0,0,1.267-.333,2.091,2.091,0,0,0,.733-0.667,3.069,3.069,0,0,1,1.067-1.067c0.133,0,.2-0.022.2-0.067a1.117,1.117,0,0,1,.4-0.6,2.884,2.884,0,0,1,.667-0.533,0.548,0.548,0,0,0,.333-0.433,3.339,3.339,0,0,1,.933-1.167,3.479,3.479,0,0,1,1.334-1,0.8,0.8,0,0,0,.333-0.667,0.739,0.739,0,0,1,.4-0.667,0.807,0.807,0,0,0,.467-0.467,0.272,0.272,0,0,1,.2-0.267,0.135,0.135,0,0,0,.133-0.167,0.937,0.937,0,0,1,.333-0.5,1.478,1.478,0,0,0,.467-0.867,3.346,3.346,0,0,1,.767-1.067,1.838,1.838,0,0,1,.9-0.667c0.133,0,.2-0.089.2-0.267a1.155,1.155,0,0,1,.333-0.667,1.355,1.355,0,0,0,.4-1,0.6,0.6,0,0,1,.267-0.667,0.344,0.344,0,0,0,.266-0.467,0.743,0.743,0,0,0-.8-0.667,0.578,0.578,0,0,0-.4.2q-0.2.267-.6,0l-0.466-.2-0.467.667a2.6,2.6,0,0,0-.533.933h0Zm7.666-.4q-0.534.134-.533,2.133a1.966,1.966,0,0,1-.133,1.067,0.68,0.68,0,0,0-.267.6,2.087,2.087,0,0,0,.067.933,1.167,1.167,0,0,1-.067.867,3.354,3.354,0,0,0-.267,1.567,2.783,2.783,0,0,1-.2,1.367,32.607,32.607,0,0,0-.266,4.333q-0.135,4.067-.134,4.133a15.248,15.248,0,0,0-.133,2.2,11.561,11.561,0,0,1-.267,2.6,10.832,10.832,0,0,0-.333,2.533,8.464,8.464,0,0,1-.267,2.4,1.661,1.661,0,0,0-.2.733,1.343,1.343,0,0,0,.4.733,0.594,0.594,0,0,0,1,.3,2.859,2.859,0,0,0,.5-0.4,0.79,0.79,0,0,0,.234-0.3,0.531,0.531,0,0,1,.266-0.333,0.554,0.554,0,0,0,.267-0.433,1.122,1.122,0,0,1,.267-0.6,1.126,1.126,0,0,0,.266-0.567,1.123,1.123,0,0,1,.4-0.6l0.334-.467V42.95q0-6.133-.067-6.467a0.764,0.764,0,0,0-.267-0.4q-0.466-.2.067-0.667a2.323,2.323,0,0,0,.333-1.1,4.205,4.205,0,0,0,0-1.5,0.785,0.785,0,0,1,.167-0.7,1.639,1.639,0,0,0,.3-0.967,2.436,2.436,0,0,0-.233-1.333,6.282,6.282,0,0,1-.234-2.533,10.561,10.561,0,0,0-.066-3l-0.134-.2q-0.4-.466-0.4-0.067a0.49,0.49,0,0,1-.4.267h0Zm13.867,1.667a0.672,0.672,0,0,1-.533.4,1.4,1.4,0,0,0-.634.667,0.94,0.94,0,0,1-.7.533,0.546,0.546,0,0,0-.533.4,3.594,3.594,0,0,1-.767.933,3.406,3.406,0,0,1-.9.8,0.849,0.849,0,0,0-.4.467,1.515,1.515,0,0,1-.733.6q-1.267.667-1.267,1.133c0,0.09-.066.133-0.2,0.133a0.627,0.627,0,0,0-.433.367,0.637,0.637,0,0,1-.4.367,0.929,0.929,0,0,0-.5.367,0.9,0.9,0,0,1-.6.367,0.576,0.576,0,0,0-.4.2,2.312,2.312,0,0,1-.6.4,3.788,3.788,0,0,0-.8.6,1.733,1.733,0,0,0-.233.367,0.733,0.733,0,0,0,.166.433,0.665,0.665,0,0,0,1.134.267,5.316,5.316,0,0,1,.666-0.267,0.455,0.455,0,0,0,.4-0.333,1.137,1.137,0,0,1,.6-0.467,1.029,1.029,0,0,0,.467-0.267q0-.133.333-0.2a8.461,8.461,0,0,0,1.667-1.333,3.806,3.806,0,0,1,1.067-.8,0.32,0.32,0,0,0,.333-0.267,0.416,0.416,0,0,1,.333-0.333,0.959,0.959,0,0,0,.5-0.433,0.464,0.464,0,0,1,.367-0.3c0.133,0,.2-0.022.2-0.067a0.8,0.8,0,0,1,.533-0.467,3.245,3.245,0,0,0,1.4-1.533,0.7,0.7,0,0,1,.3-0.4,2.023,2.023,0,0,1,.467.8,6.79,6.79,0,0,1,.5,1.467,1.588,1.588,0,0,0,.4.8,0.95,0.95,0,0,1,.167.733,0.737,0.737,0,0,1-.3.667,1.217,1.217,0,0,0-.334.867,1.832,1.832,0,0,0-.033.567,0.294,0.294,0,0,0,.3.1,0.317,0.317,0,0,1,.333.167,5.014,5.014,0,0,1,.134.967q0.066,1.134.066,2.267a2.318,2.318,0,0,0,.2,1.167,1.318,1.318,0,0,0,.867.433q1.334,0.2,1.333.533c0,0.045.078,0.067,0.234,0.067a1.16,1.16,0,0,1,.633.333,1.134,1.134,0,0,0,1.467,0q0.666-.533.066-0.867a1.736,1.736,0,0,1-.333-1,1.73,1.73,0,0,0-.367-1.033,1.978,1.978,0,0,1-.233-1.3,7.864,7.864,0,0,0-.933-2.867,4.666,4.666,0,0,1-.4-1.267,1.742,1.742,0,0,0-.334-1,2.9,2.9,0,0,1-.6-0.867,5.564,5.564,0,0,1-.333-2.2V26.284l-0.467-.333a5.2,5.2,0,0,0-.966-0.5,3.072,3.072,0,0,0-.967-0.3,0.67,0.67,0,0,0-.267.267,1.536,1.536,0,0,0-.133.533h0Zm3.5,8.567a0.468,0.468,0,0,1-.433.167q-0.534,0-.334-0.467,0.133-.4.667,0A0.205,0.205,0,0,1,163.808,34.517Zm11.433-6.333a0.512,0.512,0,0,0-.333.567q-0.067,1.467-.4,1.6a0.25,0.25,0,0,0-.2.133,1.114,1.114,0,0,1-.333.5q-0.334.367-.734,0.733a3.258,3.258,0,0,1-.533.433,2.27,2.27,0,0,0-.933.667,2.378,2.378,0,0,1-.834.667q-0.166,0-.1.4a0.462,0.462,0,0,0,.234.433,4.043,4.043,0,0,0,1.033-.167,1.589,1.589,0,0,0,1-.4,3.7,3.7,0,0,1,1.733-.933,1.188,1.188,0,0,0,.667-0.333,1.776,1.776,0,0,1,1-.367,1.734,1.734,0,0,0,1.133-.567,1.146,1.146,0,0,0,.134-1.733,1.269,1.269,0,0,1-.334-0.533,0.672,0.672,0,0,0-.366-0.367,0.625,0.625,0,0,1-.367-0.433,0.416,0.416,0,0,0-.333-0.333c-0.223-.044-0.334-0.11-0.334-0.2s-0.078-.133-0.233-0.133-0.233.045-.233,0.133A0.375,0.375,0,0,1,175.241,28.184Zm-7.266,5.767a2.589,2.589,0,0,1,.266.667,1.162,1.162,0,0,0,.267.667,2.579,2.579,0,0,1,.533.6,1.569,1.569,0,0,1,.467.933,3.5,3.5,0,0,0,.667,1.133,8.866,8.866,0,0,1,.733.8,6.056,6.056,0,0,0,2,2,1.151,1.151,0,0,1,.333.333,0.842,0.842,0,0,1-.066.533,0.87,0.87,0,0,0,.466,1.067,0.721,0.721,0,0,1,.4.6,0.672,0.672,0,0,0,.4.533,0.393,0.393,0,0,1,.334.267,2.151,2.151,0,0,0,.566.733,2.058,2.058,0,0,0,.5.4,0.164,0.164,0,0,1,.2.167,1.423,1.423,0,0,0,.467.633,2.311,2.311,0,0,0,.667.533,0.284,0.284,0,0,1,.266.267,0.572,0.572,0,0,0,.4.4,0.585,0.585,0,0,1,.4.367,0.164,0.164,0,0,0,.2.167,0.364,0.364,0,0,1,.3.333,0.612,0.612,0,0,0,.367.433,0.334,0.334,0,0,1,.267.3,0.413,0.413,0,0,0,.333.333,0.531,0.531,0,0,1,.467.267,0.589,0.589,0,0,0,.6.2,1.812,1.812,0,0,0,.933-0.233,1.415,1.415,0,0,1,.667-0.233,1.144,1.144,0,0,0,.633-0.267,2.652,2.652,0,0,1,1.3-.333,2.386,2.386,0,0,0,.933-0.2,0.641,0.641,0,0,0,.2-0.567,0.748,0.748,0,0,0-.2-0.6,1.952,1.952,0,0,0-.933-0.233,3.706,3.706,0,0,1-.767-0.133,0.436,0.436,0,0,1-.233-0.333,0.854,0.854,0,0,0-.367-0.6,0.536,0.536,0,0,1-.3-0.4,0.8,0.8,0,0,0-.233-0.3q-0.234-.233-0.5-0.533a6.922,6.922,0,0,0-.567-0.567,1.612,1.612,0,0,0-.5-0.333q-0.6-.333-0.733-0.4a1.444,1.444,0,0,1-.6-0.533,0.578,0.578,0,0,0-.467-0.267,0.333,0.333,0,0,1-.3-0.267,0.321,0.321,0,0,0-.233-0.267,1.57,1.57,0,0,1-.6-0.4,1.351,1.351,0,0,0-.667-0.467,0.743,0.743,0,0,1-.4-0.333,0.708,0.708,0,0,0-.466-0.333,0.3,0.3,0,0,1-.267-0.3,0.344,0.344,0,0,0-.367-0.3q-0.3,0-.3-0.2a0.416,0.416,0,0,0-.333-0.333,0.413,0.413,0,0,1-.333-0.333,0.417,0.417,0,0,0-.334-0.333,1.818,1.818,0,0,1-1.066-1.2,3.078,3.078,0,0,0-.8-1.067,5.318,5.318,0,0,1-1.6-1.533c0-.133-0.09-0.2-0.267-0.2a0.545,0.545,0,0,1-.4-0.533,0.784,0.784,0,0,0-.333-0.533,0.988,0.988,0,0,1-.467-0.4,0.89,0.89,0,0,0-.733-0.333,0.775,0.775,0,0,0-.7.367,0.736,0.736,0,0,0-.1.7h0Zm-8.6.733a0.435,0.435,0,0,0-.334.367,0.46,0.46,0,0,1-.266.367,0.38,0.38,0,0,0-.267.267,0.315,0.315,0,0,1-.333.267,0.316,0.316,0,0,0-.334.267,0.8,0.8,0,0,1-.466.467,1.918,1.918,0,0,0-.7.467,0.645,0.645,0,0,1-.467.267,0.357,0.357,0,0,0-.333.167,0.865,0.865,0,0,1-.434.3,0.516,0.516,0,0,0-.2.867,0.635,0.635,0,0,0,.7.033,0.627,0.627,0,0,0,.567-0.4,0.424,0.424,0,0,1,.333-0.367,1.842,1.842,0,0,0,.667-0.4q0.333-.266.8-0.667a3.805,3.805,0,0,0,.733-0.667,0.914,0.914,0,0,1,.534-0.333,1.546,1.546,0,0,0,1-1.067l0.266-.533c0-.044-0.078-0.067-0.233-0.067a2.533,2.533,0,0,0-.533.067,0.907,0.907,0,0,0-.367.133,0.392,0.392,0,0,1-.333.2h0Zm-2.8,6.733,0.066,0.467q0,0.467-.066,1.2c-0.045.49-.156,0.733-0.334,0.733a0.577,0.577,0,0,0-.466.267,0.821,0.821,0,0,1-.6.4,1.032,1.032,0,0,0-.6.4,0.542,0.542,0,0,1-.4.333,0.176,0.176,0,0,0-.2.2,1,1,0,0,1-.434.567,1.814,1.814,0,0,1-.766.433,0.416,0.416,0,0,0-.334.333,0.193,0.193,0,0,1-.233.2,0.508,0.508,0,0,0-.4.4,0.522,0.522,0,0,1-.333.4c-0.112,0-.167.123-0.167,0.367a0.356,0.356,0,0,0,.433.367,0.945,0.945,0,0,0,.7-0.267,1.151,1.151,0,0,1,.734-0.367,0.742,0.742,0,0,0,.6-0.3,1.32,1.32,0,0,1,.733-0.467,1.3,1.3,0,0,0,.733-0.6,1.287,1.287,0,0,1,.667-0.6,1.832,1.832,0,0,0,.667-0.467,0.261,0.261,0,0,1,.266-0.2,1.883,1.883,0,0,0,.8-0.533,3.676,3.676,0,0,1,1.067-.8,0.5,0.5,0,0,0,.467-0.367c0-.155.044-0.233,0.133-0.233a1.715,1.715,0,0,0,.633-0.467,1.554,1.554,0,0,0,.5-0.6,1.252,1.252,0,0,0-.4-0.533,3.559,3.559,0,0,0-2.466-.4Zm11.1,0.3c0.066,0.111.166,0.123,0.3,0.033a0.215,0.215,0,0,0,.133-0.167,0.489,0.489,0,0,0,.033-0.3,0.142,0.142,0,0,0-.133-0.133,0.568,0.568,0,0,0-.3.267A0.222,0.222,0,0,0,167.675,41.717Zm-5.5.967a1.552,1.552,0,0,1,.2.633,1.125,1.125,0,0,0,.166.533,0.993,0.993,0,0,1,.034.767,1.293,1.293,0,0,0,0,1,0.842,0.842,0,0,1-.067.867,3.109,3.109,0,0,0-.267,1.067,1.18,1.18,0,0,0,.267,1,1.366,1.366,0,0,1,.333.4,0.925,0.925,0,0,1-.533.133,0.533,0.533,0,0,0-.467.3,0.924,0.924,0,0,1-.4.5,2.575,2.575,0,0,1-1.566.5,3.116,3.116,0,0,0-1.267.233,1.266,1.266,0,0,0,.033.767,2.758,2.758,0,0,0,.267.833,5.126,5.126,0,0,1,.133,1.733,3.577,3.577,0,0,0,.134,1.733,2.327,2.327,0,0,0,1.4.067,1.557,1.557,0,0,0,1.2-.4,0.862,0.862,0,0,1,.466-0.4,1.38,1.38,0,0,0,.6-0.4,0.418,0.418,0,0,1,.367-0.2,1.4,1.4,0,0,0,.7-0.367,1.011,1.011,0,0,0,.467-0.567,0.434,0.434,0,0,1,.333-0.4,0.906,0.906,0,0,0,.4-0.6,0.959,0.959,0,0,1,.333-0.633,0.372,0.372,0,0,0,.2-0.367,1.352,1.352,0,0,1,.434-0.667,1.526,1.526,0,0,0,.433-1.067,0.785,0.785,0,0,1,.2-0.7,1.133,1.133,0,0,0,.2-0.9,11.193,11.193,0,0,1,.467-2.733,2.9,2.9,0,0,0,0-1.733,1.765,1.765,0,0,1-.067-1.067,0.542,0.542,0,0,0,.133-0.4c0-.177-0.133-0.2-0.4-0.067a1.643,1.643,0,0,0-.666.267q-0.667.467-2.334-.133a2.169,2.169,0,0,0-1.8-.133,0.431,0.431,0,0,0-.066.6h0Z"/>
  <path id="_9" data-name="9" class="cls-1" d="M16.492,34.241a7.4,7.4,0,0,1-1.983.292,4.977,4.977,0,0,1-4.317-2.45,11.491,11.491,0,0,1-1.633-6.475,15.874,15.874,0,0,1,1.692-7.875q1.691-2.975,4.375-2.975a6.253,6.253,0,0,1,5.542,3.3q2.041,3.3,2.042,9.363,0,9.1-4.171,15.283A17.518,17.518,0,0,1,6.458,50.341l0.233,1.283a21.635,21.635,0,0,0,14.146-7.933,24.047,24.047,0,0,0,5.513-15.75q0-6.416-3.092-10.442a9.8,9.8,0,0,0-8.167-4.025A10.1,10.1,0,0,0,7.45,16.829,11.6,11.6,0,0,0,4.3,25.083,11.9,11.9,0,0,0,7.071,33.1a8.336,8.336,0,0,0,6.5,3.238,7.19,7.19,0,0,0,3.442-.875Z"/>
</svg>
