<svg xmlns="http://www.w3.org/2000/svg" width="238" height="60" viewBox="0 0 238 60">
  <defs>
    <style>
      .cls-1 {
        fill: #fff;
        fill-rule: evenodd;
      }
    </style>
  </defs>
  <path id="_25_02_05" data-name="25/02/05" class="cls-1" d="M11.433,14.506q-5.525,3.9-5.525,7.963,0.7,4.279,3.2,4.279H9.321q2.113,0,3.2-2.708a5.055,5.055,0,0,0-2.167-4.008V19.652q0-1.625,6.987-3.088,0.92,0,.921.217,6.5,0,7.8,5.254v1.95a3.325,3.325,0,0,1-.433,1.679q0,4.009-8.775,7.042-6.5,3.034-9.371,6.554-1.9,2.167-3.3,8.558,0,1.572,2.167,2.329,3.845-3.466,5.579-3.467h0.433a11.767,11.767,0,0,1,2.546.65q3.683,2.817,6.771,2.817h0.867a8.056,8.056,0,0,0,7.313-7.312,2.286,2.286,0,0,0-1.192-2.329h-0.7a1.867,1.867,0,0,0-1.029,1.246l0.217,0.488q0,3.684-5.038,4.333H20.8q-0.975,0-6.879-3.033-2.222,0-5.2.217L8.4,43.594q0-.6.433-0.6,0-2.058,4.279-5.417Q25.95,32.6,25.95,30.81q2.328-1.733,3.25-6.392a45.756,45.756,0,0,1-.65-4.821Q24.27,12.99,18.421,12.99h-0.65a43.138,43.138,0,0,0-6.338,1.517h0ZM33.7,16.185V16.4a9.455,9.455,0,0,0,.217,2.383A18.475,18.475,0,0,0,33.7,21.6v1.733q0,1.734.217,4.117a7.152,7.152,0,0,0-.65,3.033q0.487,2.6,1.517,2.6a4.618,4.618,0,0,0,1.95-1.3q1.462-4.766,7.15-4.767H45.4a9.319,9.319,0,0,1,2.6.65q5.2,2.979,5.2,6.933a11.643,11.643,0,0,1-.217,2.167L53.2,37.852v0.867q-2.384,7.8-8.883,7.8H44.1q-6.284-.758-6.283-1.95V44.352l0.65-3.033a6.416,6.416,0,0,1-.217-0.867q0-1.3-2.817-2.167-2.167,0-3.033,3.25,0,1.572,1.95,4.333Q36.837,48.9,42.363,50.2l1.3-.217,1.3,0.217,4.983-1.517a14.057,14.057,0,0,0,6.5-12.35l-0.867-4.117q-2.437-5.85-3.9-5.85-1.247-1.95-8.017-3.033a34.97,34.97,0,0,0-4.983,1.95h-1.95V25.069a16.924,16.924,0,0,1,.217-2.383,3.713,3.713,0,0,1-.433-1.3q0.813-4.278,1.517-4.767A43.2,43.2,0,0,0,42.8,16.4q1.9,0.217,2.383.217,0.378,0,2.6-.217,3.25,0.434,3.9.433,2.328,0,2.6-1.95,0-1.95-3.467-1.95a11.007,11.007,0,0,0-1.733.217q-2.547-.216-3.683-0.217-2,0-5.633.217L37.6,12.935q-3.9,0-3.9,3.25h0ZM84.179,6.815q-1.9,3.467-2.817,3.738Q79.087,16.077,78,16.185q-2.167,5.472-2.817,5.471a26.828,26.828,0,0,1-3.2,5.633A22.145,22.145,0,0,1,67.5,34.6a49.659,49.659,0,0,1-4.171,8.071l-6.175,9.75a2.057,2.057,0,0,0,1.679,1.9q2.058-.109,2.058-1.9,4.17-7.1,4.171-7.692,1.9-2.87,5.633-9.967a35.8,35.8,0,0,0,4.117-7.1,71.059,71.059,0,0,0,4.117-7.15q4.116-6.283,4.117-7.15Q86.4,8.928,86.617,7.356a2.121,2.121,0,0,0-1.137-.921Zm13.433,7.1q-3.142,0-5.633,5.2-1.788,0-3.25,11.05a11.428,11.428,0,0,1,.217,1.95,17.051,17.051,0,0,1-.217,2.383q1.408,6.88,2.6,8.45,4.225,5.634,5.2,5.633,0.378,1.572,7.584,2.167h0.433q2.6,0,7.15-4.983,2.382-3.2,2.383-3.683,2.114-3.033,2.817-10.183a14.479,14.479,0,0,1-.65-3.25l0.217-.433q-1.736-7.2-3.684-9.967-5.309-5.85-11.483-5.85a5.806,5.806,0,0,0-3.684,1.517h0ZM93.5,24.31a12.629,12.629,0,0,1,2.167-4.767,10.142,10.142,0,0,1,6.067-3.25h0.65a9.728,9.728,0,0,1,4.117,1.083q6.5,5.2,6.5,14.95a27.07,27.07,0,0,1-1.3,7.8q-4.171,6.5-9.967,6.5-7.367-2.437-7.367-6.717-1.68-1.408-2.383-6.283V28.21a12.719,12.719,0,0,1,1.517-3.9h0Zm33.2-9.8q-5.525,3.9-5.525,7.963,0.7,4.279,3.2,4.279h0.217q2.112,0,3.2-2.708a5.054,5.054,0,0,0-2.166-4.008V19.652q0-1.625,6.987-3.088,0.921,0,.921.217,6.5,0,7.8,5.254v1.95a3.331,3.331,0,0,1-.433,1.679q0,4.009-8.775,7.042-6.5,3.034-9.371,6.554-1.9,2.167-3.3,8.558,0,1.572,2.166,2.329,3.846-3.466,5.58-3.467h0.433a11.784,11.784,0,0,1,2.546.65q3.683,2.817,6.771,2.817H137.8a8.057,8.057,0,0,0,7.313-7.312,2.286,2.286,0,0,0-1.192-2.329h-0.7a1.865,1.865,0,0,0-1.029,1.246l0.216,0.488q0,3.684-5.037,4.333h-1.3q-0.975,0-6.879-3.033-2.222,0-5.2.217l-0.325-.163q0-.6.433-0.6,0-2.058,4.279-5.417,12.838-4.983,12.838-6.771,2.328-1.733,3.25-6.392a45.552,45.552,0,0,1-.65-4.821q-4.28-6.608-10.129-6.608h-0.65a43.131,43.131,0,0,0-6.338,1.517h0Zm45.988-7.692q-1.9,3.467-2.817,3.738-2.275,5.525-3.359,5.633-2.166,5.472-2.816,5.471a26.826,26.826,0,0,1-3.2,5.633A22.152,22.152,0,0,1,156,34.6a49.6,49.6,0,0,1-4.171,8.071l-6.175,9.75a2.058,2.058,0,0,0,1.679,1.9q2.058-.109,2.059-1.9,4.17-7.1,4.171-7.692,1.894-2.87,5.633-9.967a35.846,35.846,0,0,0,4.117-7.1,70.922,70.922,0,0,0,4.116-7.15q4.116-6.283,4.117-7.15,3.358-4.441,3.575-6.013a2.12,2.12,0,0,0-1.137-.921Zm13.433,7.1q-3.143,0-5.633,5.2-1.788,0-3.25,11.05a11.5,11.5,0,0,1,.216,1.95,17.16,17.16,0,0,1-.216,2.383q1.407,6.88,2.6,8.45,4.226,5.634,5.2,5.633,0.378,1.572,7.583,2.167h0.433q2.6,0,7.15-4.983,2.383-3.2,2.383-3.683,2.114-3.033,2.817-10.183a14.479,14.479,0,0,1-.65-3.25l0.217-.433q-1.734-7.2-3.683-9.967-5.31-5.85-11.484-5.85a5.8,5.8,0,0,0-3.683,1.517h0ZM182,24.31a12.631,12.631,0,0,1,2.167-4.767,10.142,10.142,0,0,1,6.067-3.25h0.649A9.721,9.721,0,0,1,195,17.377q6.5,5.2,6.5,14.95a27.036,27.036,0,0,1-1.3,7.8q-4.172,6.5-9.966,6.5-7.368-2.437-7.367-6.717-1.68-1.408-2.383-6.283V28.21A12.722,12.722,0,0,1,182,24.31h0Zm27.409-8.125V16.4a9.448,9.448,0,0,0,.216,2.383,18.435,18.435,0,0,0-.216,2.817v1.733q0,1.734.216,4.117a7.157,7.157,0,0,0-.65,3.033q0.487,2.6,1.517,2.6a4.618,4.618,0,0,0,1.95-1.3q1.463-4.766,7.15-4.767h1.517a9.329,9.329,0,0,1,2.6.65q5.2,2.979,5.2,6.933a11.628,11.628,0,0,1-.217,2.167l0.217,1.083v0.867q-2.385,7.8-8.884,7.8h-0.216q-6.285-.758-6.284-1.95V44.352l0.65-3.033a6.3,6.3,0,0,1-.216-0.867q0-1.3-2.817-2.167-2.167,0-3.033,3.25,0,1.572,1.95,4.333,2.49,3.034,8.016,4.333l1.3-.217,1.3,0.217,4.984-1.517a14.058,14.058,0,0,0,6.5-12.35L231.3,32.219q-2.437-5.85-3.9-5.85-1.246-1.95-8.017-3.033a34.991,34.991,0,0,0-4.983,1.95h-1.95V25.069a16.889,16.889,0,0,1,.217-2.383,3.705,3.705,0,0,1-.434-1.3q0.813-4.278,1.517-4.767a43.22,43.22,0,0,0,4.767-.217q1.895,0.217,2.383.217,0.378,0,2.6-.217,3.251,0.434,3.9.433,2.328,0,2.6-1.95,0-1.95-3.467-1.95a11.012,11.012,0,0,0-1.733.217q-2.547-.216-3.683-0.217-2.005,0-5.634.217l-2.166-.217q-3.9,0-3.9,3.25h0Z"/>
</svg>
