<svg xmlns="http://www.w3.org/2000/svg" width="258" height="60" viewBox="0 0 258 60">
  <defs>
    <style>
      .cls-1 {
        fill: #fff;
        fill-rule: evenodd;
      }
    </style>
  </defs>
  <path id="_25_03_05" data-name="25/03/05" class="cls-1" d="M31.49,23.981a26.927,26.927,0,0,1-6.573,5.938,46.721,46.721,0,0,0-6.93,5.62A14.972,14.972,0,0,0,14.8,40.353a16.582,16.582,0,0,0-.965,6.017v2.036H39.6V43.8H19.231a7.689,7.689,0,0,1,.688-3.412,10.012,10.012,0,0,1,2.42-2.936A85.183,85.183,0,0,1,29.2,32.379a24.988,24.988,0,0,0,7.1-6.771,14.414,14.414,0,0,0,2.076-7.829,10.177,10.177,0,0,0-3.386-8.054,13.05,13.05,0,0,0-8.94-2.975,14.916,14.916,0,0,0-5.991,1.111,14.094,14.094,0,0,0-4.562,3.2v5.025a17.139,17.139,0,0,1,4.84-3.7,11.406,11.406,0,0,1,5.131-1.3,8.16,8.16,0,0,1,5.686,1.891,6.657,6.657,0,0,1,2.089,5.2A9.987,9.987,0,0,1,31.49,23.981Zm35.124,2.7q-3.716-3.24-10.222-3.24l-3.729.159,0.846-11.611H68.293V7.438H49.145L47.637,28.226a63.546,63.546,0,0,1,6.956-.344q5,0,7.736,2.182a7.357,7.357,0,0,1,2.737,6.1,8.038,8.038,0,0,1-2.632,6.282,9.949,9.949,0,0,1-6.916,2.367,15.373,15.373,0,0,1-8.463-2.7V47.4q2.83,1.719,8.6,1.719,6.718,0,10.7-3.676a12.555,12.555,0,0,0,3.981-9.68Q70.33,29.919,66.614,26.679ZM93,7.438L73.345,55.2h4.84L97.836,7.438H93Zm10.17,36.446a10.919,10.919,0,0,0,9.667,5.21,11.668,11.668,0,0,0,10.275-5.488q3.663-5.488,3.663-15.856,0-21-13.013-21a11.654,11.654,0,0,0-10.42,5.567q-3.6,5.568-3.6,16.411Q99.741,38.674,103.166,43.884Zm10.3-32.823q7.987,0,7.988,17.165,0,16.583-8.146,16.583-8.278,0-8.279-16.319,0-17.429,8.437-17.43h0Zm19.44,35.864a17.921,17.921,0,0,0,9.389,2.169q6.612,0,10.593-3.386A11.128,11.128,0,0,0,156.87,36.8a9.139,9.139,0,0,0-2.579-6.625,11.057,11.057,0,0,0-7.022-3.134V26.93q8.2-2.3,8.2-10.341a8.938,8.938,0,0,0-3.174-7.1,12.428,12.428,0,0,0-8.411-2.737,18.408,18.408,0,0,0-9.389,2.327v4.893a13.144,13.144,0,0,1,8.12-2.909q7.537,0,7.538,6.744,0,7.3-9.866,7.3h-3.253V29.39h3.412q11.135,0,11.135,7.776a6.9,6.9,0,0,1-2.473,5.567A10.1,10.1,0,0,1,142.4,44.81a15.117,15.117,0,0,1-9.495-3.253v5.369ZM179.668,7.438L160.017,55.2h4.84L184.508,7.438h-4.84Zm10.17,36.446a10.919,10.919,0,0,0,9.667,5.21,11.669,11.669,0,0,0,10.275-5.488q3.663-5.488,3.663-15.856,0-21-13.013-21a11.654,11.654,0,0,0-10.42,5.567q-3.6,5.568-3.6,16.411Q186.413,38.674,189.838,43.884Zm10.3-32.823q7.987,0,7.988,17.165,0,16.583-8.146,16.583-8.279,0-8.279-16.319,0-17.429,8.437-17.43h0Zm39.819,15.618q-3.717-3.24-10.223-3.24l-3.729.159,0.846-11.611h14.785V7.438H222.488l-1.507,20.789a63.543,63.543,0,0,1,6.956-.344q5,0,7.736,2.182a7.357,7.357,0,0,1,2.737,6.1,8.039,8.039,0,0,1-2.631,6.282,9.949,9.949,0,0,1-6.916,2.367,15.373,15.373,0,0,1-8.464-2.7V47.4q2.831,1.719,8.6,1.719,6.717,0,10.7-3.676a12.554,12.554,0,0,0,3.981-9.68Q243.674,29.919,239.958,26.679Z"/>
</svg>
