<svg xmlns="http://www.w3.org/2000/svg" width="208" height="68" viewBox="0 0 208 68">
  <defs>
    <style>
      .cls-1 {
        fill: #fff;
        fill-rule: evenodd;
      }
    </style>
  </defs>
  <path id="欢迎到访" class="cls-1" d="M6.433,23.712q4.2,6.177,8.594,13.11A48.736,48.736,0,0,1,4.968,50.713q1.416,2.051,2.393,3.565A59.832,59.832,0,0,0,17.444,40.655q2.466,3.98,5,8.2l3.369-2.344q-2.881-4.492-6.518-9.985a80.412,80.412,0,0,0,4.077-18.872V14.19H6.238v3.662H19.519a61.424,61.424,0,0,1-2.808,14.77Q13.318,27.545,9.363,21.71ZM35.29,22q0.049,13.526-3.223,19.482-3.125,6.543-12.793,12.158a30.5,30.5,0,0,1,2.686,3.223q13.427-8.35,15.625-18.848A34.164,34.164,0,0,0,50.476,56.182,28.355,28.355,0,0,1,53.7,52.569Q42.37,45.733,38.83,29.913,39.123,26.3,39.1,22H35.29Zm-8.154,7.715A98.952,98.952,0,0,0,31.067,19.61H48.23a42.99,42.99,0,0,1-4.1,7.617,24.791,24.791,0,0,1,3.613,1.611,70.69,70.69,0,0,0,4.883-9.326V16.094H32.165q0.952-3.149,1.855-6.592l-3.906-.928a88.029,88.029,0,0,1-6.592,19.482,27.033,27.033,0,0,1,3.613,1.66h0ZM84.656,50.03h3.711V16.876h8.984V36.651q0,3.467-2.832,3.467a40.236,40.236,0,0,1-5.127-.391,30.311,30.311,0,0,1,.635,4q3.271,0.1,5.762,0,5.273-.1,5.274-6.25V13.36H84.656V50.03ZM64.929,46.9V26.055h-9.57v3.613h5.811V46.1q-1.929,1.807-6.25,5.981l2,4.053a73.288,73.288,0,0,1,5.859-6.543q3.32,5.566,11.963,5.664l11.133,0.2h16.309q0.829-2.247,1.367-3.858L87,51.983l-11.719-.2q-7.324-.1-10.352-4.883h0Zm10.01-7.666V15.167q5.517-1.221,10.01-2.539L83.484,9.161a85.5,85.5,0,0,1-12.256,3.125V38.458a4.884,4.884,0,0,1-1.367,3.76l2.295,3.271a15.589,15.589,0,0,1,2.295-1.758q3.662-2.051,8.447-4.3-0.147-1.806-.2-3.809-3.76,1.807-7.764,3.613h0ZM56.824,11.456a113.723,113.723,0,0,1,6.738,9.473l3.516-2.344a107.6,107.6,0,0,0-7.227-9.326Zm66.5,8.3q1.758,2.661,3.37,5.469-7.2.757-14.161,1.27a129.248,129.248,0,0,0,7.374-11.231h14.306V11.651H106.189v3.613H115.3a66.154,66.154,0,0,1-3.686,6.348,13.067,13.067,0,0,1-4.883,4.834l1.758,4.053q9.449-.976,19.97-2,0.9,1.758,1.758,3.565,1.905-1.074,3.76-1.953-3.418-6.25-7.324-12.012Zm-16.8,20.606h11.474V49.42q-6.714.806-12.939,1.44l1.123,4.1q13.965-2.051,27.783-3.76-0.195-2.1-.2-3.809-6.1.83-11.866,1.563V40.362h11.182V36.749H121.911V30.694h-3.906v6.055H106.531v3.613Zm40.918,8.545q0,3.223-3.077,3.174-2.343,0-6.64-.391,0.44,2.392.732,4.395,5.127,0.049,7.129.049,5.909,0,5.908-6.1V8.721h-4.052V48.907Zm-10.6-3.809h3.955v-31.1h-3.955V45.1Zm33.789-24.414h7.08v8.252q0,9.571-1.611,14.063-1.856,5.616-7.52,11.133a22.13,22.13,0,0,1,3.125,2.881,32.039,32.039,0,0,0,8.057-12.158,44.8,44.8,0,0,0,1.9-13.135h14.4q-0.39,10.205-.927,15.967-0.392,3.662-3.565,3.662a69.278,69.278,0,0,1-8.154-.537q0.44,2.051.781,4.3,4.3,0.2,7.91.2,6.251,0.049,6.836-6.641,0.537-5.615,1.074-20.361h-18.31V20.684H203.5V17.169H186.609l3.515-1.856a76.6,76.6,0,0,0-3.906-6.738L182.8,10.186a58.122,58.122,0,0,1,3.687,6.982H170.642v3.516ZM165.515,45V25.372H155.456v3.564h6.25V44.561a6.677,6.677,0,0,1-1.757,4.785l2.636,2.93a27.751,27.751,0,0,1,2.442-2.295q4.346-3.516,7.959-6.055-0.294-2.1-.44-4.346-3.516,2.832-7.031,5.42h0Zm-8.1-32.91a92.555,92.555,0,0,1,7.08,8.252l3.418-2.881q-3.516-4-7.52-7.959Z"/>
</svg>
