<svg xmlns="http://www.w3.org/2000/svg" width="650" height="350" viewBox="0 0 650 350">
  <defs>
    <style>
      .cls-1 {
        fill: #fff;
        fill-rule: evenodd;
      }
    </style>
  </defs>
  <path id="初见" class="cls-1" d="M147.773,72.974H194.5q-0.879,51.416-4.248,90.234-5.569,78.81-73.535,131.25a169.558,169.558,0,0,1,18.75,18.75q72.95-57.716,79.394-148.242,2.637-35.157,4.4-91.992h66.5q-3.224,130.079-6.153,176.074-1.173,31.937-25.195,31.055-16.995,0-45.117-2.637,2.637,12.6,4.687,26.367,28.125,0.879,43.067.879,45.7,0.584,46.875-54.2,2.342-46.874,6.738-200.1H147.773V72.974ZM107.93,101.392q-32.815,56.25-75,89.355,4.686,13.771,7.91,25.2a384.571,384.571,0,0,0,36.328-35.157V311.743H99.434V188.257q23,18.018,45.41,36.475l14.941-17.872q-14.8-11.13-29.443-21.826,17.139-21.825,29.736-39.99l-19.336-12.305a475.726,475.726,0,0,1-27.1,40.284q-7.179-4.978-14.209-9.961V153.98a500.463,500.463,0,0,0,34.57-52V80.3H37.031v21.094h70.9ZM86.543,74.732L108.223,63.6Q96.209,40.747,85.371,23.462L64.863,33.716a392.723,392.723,0,0,1,21.68,41.016h0Zm380.273,35.742q0,79.689-26.074,113.965-27.246,38.967-104.59,69.433,10.548,12.3,16.993,21.094,82.322-34.572,110.156-77.344,13.035-18.6,19.922-47.461v79.981q0,35.739,38.379,35.742h55.664q36.327,0,41.6-30.762,3.808-19.628,6.445-46.582-12.3-3.807-24.023-8.5Q599.531,247,596.6,265.454,593.67,284.5,574.043,284.5H527.461q-20.215,0-20.215-18.457V180.2H485.273q5.857-29.734,5.86-69.433V80.884H466.816v29.59ZM372.773,220.923H396.8V58.325H564.375v160.84H588.4V36.646H372.773V220.923Z"/>
</svg>
