<svg xmlns="http://www.w3.org/2000/svg" width="258" height="258" viewBox="0 0 258 258">
  <defs>
    <style>
      .cls-1 {
        fill: #fff;
        fill-rule: evenodd;
      }
    </style>
  </defs>
  <path id="梦_" data-name="梦 " class="cls-1" d="M75.769,19.225v8.789Q74,35.059,70.935,36.8c-2.06,1.181-6.894,1.758-14.5,1.758q-15.82,0-17.578,2.637-5.273,4.408-1.318,6.592,3.955,2.2,18.9,3.955,16.686,0,16.7,2.637l-1.758,1.758q-1.771,0-8.789,11.426Q54.675,79,52.039,85.143c-3.516,3.516-5.274,5.576-5.274,6.152,0,1.181.879,2.637,2.637,4.395a1.546,1.546,0,0,0,1.758,1.758A2.81,2.81,0,0,0,53.8,95.69h7.031a1.552,1.552,0,0,0,1.758-1.758q-1.771-5.273,4.395-11.426a5.159,5.159,0,0,0,2.637-4.395,4.506,4.506,0,0,1,4.395-4.394c1.167-2.335,2.2-3.365,3.076-3.076s1.318,2.2,1.318,5.713q1.751,4.408,1.758,48.34c-1.181,1.181-1.758,1.181-1.758,0q-4.408,0,0,4.394,0.865,4.408,3.955,4.834,3.069,0.453,6.592-3.076,3.5-8.775,3.516-33.4c0-7.031-.3-12-0.879-14.941a16.921,16.921,0,0,1-2.637-8.789,6.686,6.686,0,0,1,3.955,1.758,15.1,15.1,0,0,0,4.834,2.637q7.91,5.274,14.941,5.273,6.139,0,7.031-2.637,0-4.388-4.394-4.394l-1.758-2.637q-1.771,0-6.152-3.516c-2.939-2.335-5.274-4.092-7.032-5.273Q88.946,57.9,88.953,54.381a37.617,37.617,0,0,1,13.183-2.637q14.049,0,14.063-3.516a3.634,3.634,0,0,0-.879-2.637c0-1.758-1.47-2.637-4.395-2.637a5.36,5.36,0,0,1-3.076-.879,5.5,5.5,0,0,0-3.076-.879c0-1.167-.44-1.758-1.318-1.758a4.835,4.835,0,0,0-3.077,1.758c-2.938,0-4.394-.879-4.394-2.637q0-1.751-7.031-1.758-4.408,0-5.273-1.318-0.886-1.318-.879-7.471a62.933,62.933,0,0,0-.439-8.35c-0.3-2.046-1.03-3.076-2.2-3.076-2.939,0-4.395.879-4.395,2.637h0Zm83.5,6.152a5.923,5.923,0,0,0-.439,3.955,19.269,19.269,0,0,1,.439,3.076q0,3.522-2.637,3.955a51.064,51.064,0,0,1-7.91.439,61.14,61.14,0,0,0-11.426-.879q-7.91,0-10.546,2.637c-1.181,3.516-.879,5.576.879,6.152s7.319,1.469,16.7,2.637q14.934,0,14.941,4.395c1.167,1.181,1.456,2.2.879,3.076a2.967,2.967,0,0,1-2.637,1.318q-7.044,0-21.972,21.973-7.046,10.547-7.032,16.7c0,2.348.879,3.516,2.637,3.516q2.637-.865,7.91-5.273,5.274-4.388,5.274-6.152T161.9,63.17c0.577,0,.728.879,0.439,2.637a25.534,25.534,0,0,0-.439,3.516q-3.522,3.522,0,7.031,3.5,0.886,3.955,6.592,0.432,5.727.439,17.138,0,10.548.44,16.26c0.288,3.818,1.607,5.713,3.955,5.713,2.335,1.181,4.394,0,6.152-3.516s2.637-8.789,2.637-15.82q0-16.686,3.516-16.7,1.751,0,7.031,5.273,3.5,5.273,7.031,2.637,4.388-3.5,3.516-7.031-0.887-3.5-7.91-8.789-11.433-7.024-14.5-11.426a17.839,17.839,0,0,1-3.077-10.547V47.35h8.79q4.388,1.772,7.47.879c2.046-.577,3.076-1.456,3.076-2.637,1.168-2.335.577-4.395-1.757-6.152S186.511,36.8,181.238,36.8a16.35,16.35,0,0,0-4.4-1.318,13.521,13.521,0,0,1-4.834-1.758,12.609,12.609,0,0,1-3.955-3.955c-0.59-4.092-2.939-6.152-7.031-6.152a1.552,1.552,0,0,0-1.758,1.758h0Zm-32.519,99.317a15.561,15.561,0,0,0-4.834,6.152q-2.205,4.409-3.955,8.789-6.16,10.547-8.79,13.184c-1.757,1.757-2.636,3.227-2.636,4.394q2.637,0-1.758,4.4-3.522,8.8-3.516,11.426,0,6.159,5.274,6.152,2.637-1.751,9.228-12.744t6.592-15.381c0-3.516,3.214-5.274,9.668-5.274a33.23,33.23,0,0,1,7.91.879c1.758,0.591,3.516,1.181,5.274,1.758a16.442,16.442,0,0,0,5.273.879,3.576,3.576,0,0,0,2.637-.879c1.167,0,1.758.879,1.758,2.637l11.425,4.394a23.658,23.658,0,0,1,8.789,1.758q0,5.274-6.591,15.821t-9.229,10.546q-0.885,0-13.183-10.546-11.433-11.413-17.579-11.426c-4.106,0-6.152,1.181-6.152,3.515q0,3.524,8.789,12.305,10.547,7.909,10.547,10.547l4.395,4.394c2.334,1.168,3.652,2.335,3.955,3.516q0.432,1.75-1.319,5.274-4.408,4.388-11.426,15.82-8.794,8.775-8.789,12.3,0,2.636,2.637,5.273,1.75,1.751,10.547-4.395,5.274-4.407,11.426-15.82c1.167-4.7,2.637-7.031,4.394-7.031l1.758,0.879a12.183,12.183,0,0,0,6.152-2.2c2.335-1.469,3.516-3.076,3.516-4.833l-0.879-1.758q0-4.409,7.031-15.821,13.185-22.844,13.184-30.761c0-1.758-2.637-3.653-7.91-5.713s-12.9-4.532-22.852-7.471q-7.044-1.75-15.82-4.394c-5.864-1.758-8.789-3.214-8.789-4.4q2.637-4.387,2.637-6.152,0.864-3.5,0-5.274a2.833,2.833,0,0,0-2.637-1.758,14.23,14.23,0,0,0-6.152,7.032h0Z"/>
</svg>
