<svg xmlns="http://www.w3.org/2000/svg" width="1888" height="200" viewBox="0 0 1888 200">
  <defs>
    <style>
      .cls-1 {
        fill: #fff;
        fill-rule: evenodd;
      }
    </style>
  </defs>
  <path id="_盛夏的风吹过无尽的梦_" data-name="“盛夏的风吹过无尽的梦”" class="cls-1" d="M31.891,35.05c-2.6,2.177-4.232,3.906-4.883,5.208s-0.977,3.479-.977,6.51q0,14.328,4.557,14.323c2.167,0,3.357-.651,3.581-1.953s-0.112-3.469-.977-6.51a12.793,12.793,0,0,1-1.3-5.859q0-4.547,5.859-14.323c0.865-1.729.753-2.279-.326-1.628a54.169,54.169,0,0,0-5.534,4.232h0Zm14.323,0-3.906,7.161a5.266,5.266,0,0,1-.977,3.255,4.352,4.352,0,0,0-.977,2.6c0,0.875.977,2.279,2.93,4.232s3.581,2.93,4.883,2.93,2.167-.865,2.6-2.6,0-3.682-1.3-5.859q-1.953-7.156,2.6-7.162a13.387,13.387,0,0,0,3.255-.325c0.865-.214,1.3-0.977,1.3-2.279q0-3.25-5.859-3.255a10.514,10.514,0,0,0-4.557,1.3h0ZM181.63,20.076a4.386,4.386,0,0,0-.325,2.93q0.321,1.633,2.93,4.232,2.593,2.609,3.906,3.906,9.109,9.125,13.021,9.115a1.726,1.726,0,0,0,1.953-1.953q0-4.547-7.162-11.719-7.172-7.156-11.718-7.161a3.8,3.8,0,0,0-2.605.651h0ZM162.1,34.4c-0.875.875-1.3,2.6-1.3,5.208a8.811,8.811,0,0,0,2.6,6.51c0.865,0,.865.112,0,0.326a23.459,23.459,0,0,1-4.882.326,88.594,88.594,0,0,1-9.441-.651q-16.281,0-16.276,3.255-4.561,4.562,0,4.557c0.428,0.438,1.079,1.2,1.953,2.279a4.952,4.952,0,0,1,1.3,2.93q0,2.609-3.907,19.531l-2.6,13.021q-1.312.656-2.93,4.883c-1.088,2.828-1.851,4.883-2.278,6.185a40.22,40.22,0,0,0-.651,7.812c0,2.605.864,3.907,2.6,3.907,0.427,0,1.628-1.4,3.581-4.232a39.269,39.269,0,0,0,4.231-7.487q0-6.5,3.256-9.766a12.535,12.535,0,0,0,1.953-6.51,6.277,6.277,0,0,1,1.3-3.255,3.337,3.337,0,0,1,3.255-3.255q0,1.953,6.51,1.953c4.334,0,7.376.549,9.115,1.628s2.6,3.154,2.6,6.185q0,7.813-5.208,7.813a26.373,26.373,0,0,1-4.557-1.3q-6.516-3.906-6.511,3.255a7.691,7.691,0,0,0,3.906,5.208,14.9,14.9,0,0,0,7.813,1.953q7.156,0,11.068-3.906,1.3-1.3,1.3-12.37t-1.3-13.672c0-.427-1.3-0.865-3.907-1.3a49.851,49.851,0,0,1-7.812-1.953,43.532,43.532,0,0,1-8.789-.651,22.893,22.893,0,0,0-4.232-.651V63.7q0-6.5,1.953-7.812H168.61l4.557,11.068a58.7,58.7,0,0,1,5.208,10.417,42.6,42.6,0,0,0,4.558,9.115l3.255,8.464L182.933,98.2a12.5,12.5,0,0,0-3.907,9.114,5.705,5.705,0,0,0,.651,2.6,2.064,2.064,0,0,0,1.953,1.3c1.3,0,3.469-1.078,6.511-3.255q1.953-3.25,7.812,4.558,9.766,9.765,15.625,9.765a9.912,9.912,0,0,0,3.907-1.3q4.546-2.594,6.51-26.042c0.427-6.073,0-9.115-1.3-9.115s-2.828,2.279-4.557,6.836a74.464,74.464,0,0,0-3.907,16.6q-0.656,4.563-4.231,2.6t-8.789-10.416c-0.875-1.3-1.628-2.493-2.279-3.581a5.8,5.8,0,0,1-.977-2.93c0-.865.651-1.953,1.954-3.255a31.9,31.9,0,0,0,7.161-20.182c0-3.031-.875-4.557-2.6-4.557l-6.511,9.766L191.4,86.482l-3.255-9.766q-1.953-2.594-6.511-14.323V57.185h7.813a25.446,25.446,0,0,0,9.766-1.628c2.6-1.078,3.906-2.279,3.906-3.581l-0.651-1.3q0-3.25-9.766-3.255-13.031,0-15.95-.977t-6.836-5.534q-3.266-7.156-5.86-7.161Zm40.365,104.167a60.317,60.317,0,0,1,2.6,18.88,26.515,26.515,0,0,1-.651,7.162l-1.953,6.51H182.933V156.794q1.3-14.312,2.929-17.9c1.079-2.381,3.357-3.581,6.836-3.581a54.9,54.9,0,0,1,6.511.325,3.6,3.6,0,0,1,3.255,2.93h0Zm-26.042-1.3a40.526,40.526,0,0,0-1.3,11.068,13.71,13.71,0,0,1-.651,5.208c-1.3,0-2.177-2.177-2.6-6.51q0-8.454,1.3-11.719c1.729-1.729,2.93-2.279,3.581-1.628s0.539,1.852-.326,3.581h0ZM163.4,148.331a72.386,72.386,0,0,0,1.953,16.276h4.558c1.729-1.74,2.929-2.279,3.58-1.628s0.54,1.841-.325,3.581c0,1.729-2.6,2.6-7.813,2.6a26.679,26.679,0,0,1-8.463-1.3c0-.437-0.224-2.065-0.651-4.883a90.288,90.288,0,0,1-.651-12.7q0-7.812.325-11.719t0.977-4.557H162.1a39.417,39.417,0,0,0,.651,4.232,60.583,60.583,0,0,1,.651,10.091h0Zm1.953-22.787q-3.264,0-8.463,3.256a2.084,2.084,0,0,1-1.953,1.3,3.707,3.707,0,0,1-2.6-1.3c-3.479-1.3-5.209-1.3-5.209,0a8.826,8.826,0,0,0-2.6,6.51l1.3,18.229v14.323l-9.765-1.3q-13.672,0-13.672,3.255l0.651,1.3q0,3.251,9.114,4.558t49.479,3.906l14.323,1.3a190.7,190.7,0,0,1,20.183.976q9.109,0.976,11.067,2.279c2.167,0,3.683-.437,4.558-1.3,2.6-1.739,3.031-3.693,1.3-5.859S227.631,173.5,222,173.07l-7.812-1.953V154.841q0-15.624-2.93-20.833T199.209,127.5a164.6,164.6,0,0,0-26.042-2.6c-3.906,0-6.51.224-7.813,0.651h0ZM358.063,65q1.953,1.312,3.581,6.836a118.312,118.312,0,0,1,2.929,13.346,21.255,21.255,0,0,1,1.3,3.906c0.428,1.74,1.079,2.828,1.953,3.255q0.642,1.953-3.58,2.279-4.242.336-15.951,0.326H319l-7.812,1.3a9.812,9.812,0,0,1-3.906-1.3q-1.312-2.594-1.3-27.995,1.954-2.594,11.068-2.6a54.874,54.874,0,0,0,10.742-.977,45.264,45.264,0,0,1,8.789-.977q16.266-1.3,21.485,2.6h0ZM304.026,31.143q-2.609,1.953-.976,3.906Q304.667,37,309.235,37a65.67,65.67,0,0,1,12.044,1.3q6.836,1.312,8.789,2.6a11.67,11.67,0,0,1-3.255,3.255c-0.875.437-1.852,0.977-2.93,1.628s-1.627,1.2-1.627,1.628c-0.875,0-2.717.875-5.534,2.6s-5.972,3.479-9.44,5.208a43.977,43.977,0,0,0-4.558,2.6,6.277,6.277,0,0,1-3.255,1.3q-1.953,1.953-1.953,16.276a161.942,161.942,0,0,0,.976,17.9c0.652,5.859,1.4,9.013,2.279,9.44a8.062,8.062,0,0,0,5.859,2.6q2.6,0,10.417-2.6H348.3q5.859-.64,15.951-0.977,10.086-.32,11.393-1.627a11.566,11.566,0,0,0,1.3-5.209,22.094,22.094,0,0,0-2.6-9.766q0-4.547-5.208-14.974-2.61-10.407-6.511-12.7-3.906-2.274-20.833-2.279a63.63,63.63,0,0,1-18.229,0c1.3-1.3,2.38-1.953,3.255-1.953,2.167,0,3.255-1.078,3.255-3.255,0-.865.651-1.3,1.953-1.3a30.93,30.93,0,0,0,7.162-3.255c3.031-1.729,4.984-3.255,5.859-4.557q2.594-4.547-4.883-6.836Q332.667,31.8,312.49,29.19a33.431,33.431,0,0,0-5.208.325,5.884,5.884,0,0,0-3.256,1.628h0ZM330.068,65q-0.656,1.312-4.557,1.953c-2.6.437-4.781,0.875-6.511,1.3q-9.765,0-9.765,3.255c0,1.3.976,2.065,2.929,2.279s5.31,0.325,10.092.325q13.016-1.3,17.578-1.3,7.156,0,9.765,1.3a2.2,2.2,0,0,0,1.953-.977,10.3,10.3,0,0,1,1.3-1.628c0-1.729-1.2-2.93-3.58-3.581s-7.06-1.628-14-2.93h-5.208Zm0,14.323q-16.281.656-16.276,5.859c0,1.3.427,1.953,1.3,1.953a39.372,39.372,0,0,0,5.208-.651,49.571,49.571,0,0,0,7.487-.651,58.562,58.562,0,0,1,8.789-.651q14.97,0,14.974-5.208-1.953-1.953-7.812-1.953-3.266,0-13.672,1.3h0Zm-13.021,37.11q-6.516,9.765-17.578,32.552a7.472,7.472,0,0,0-2.6,5.208,2.3,2.3,0,0,0,2.6,2.6l3.255-1.3A27.327,27.327,0,0,1,305,153.539c1.078-.875,2.492-3.682,4.232-8.463q5.859-9.766,8.789-12.7t9.44-2.929a102.748,102.748,0,0,1,12.37.651q15.624,0.655,20.182,2.278c3.031,1.089,3.906,2.279,2.6,3.581-0.437.875-1.088,2.065-1.953,3.581a17.1,17.1,0,0,1-2.6,3.58l-5.209,5.86c0,1.3-.437,1.953-1.3,1.953s-3.906-1.628-9.114-4.883-8.25-5.534-9.115-6.836a11.306,11.306,0,0,0-3.581-1.627,17.555,17.555,0,0,0-5.533-.977c-1.3,0-1.953.224-1.953,0.651q0,4.563,13.02,13.672a43.71,43.71,0,0,1,4.883,3.255c2.381,1.73,3.581,3.032,3.581,3.906,0,1.3-1.2,2.93-3.581,4.883s-4.018,3.357-4.883,4.232q-5.859,5.859-11.718,5.859c-1.74,0-2.716.214-2.93,0.651s0.325,1.954,1.628,4.558a5.643,5.643,0,0,0,4.557,2.6q5.2,0,14.974-10.417l11.067-9.114,6.511,3.255q3.25,2.594,14.974,8.463,9.765,7.814,17.578,7.813c0.427,0.427.753,0.539,0.977,0.325a1.29,1.29,0,0,1,.976-0.325q2.593-.657.977-4.557-1.634-3.907-4.232-3.907a39.506,39.506,0,0,1-9.44-3.906c-4.13-2.177-6.409-3.906-6.836-5.208l-8.464-5.209-6.51-3.906,5.208-5.859q9.767-12.36,11.393-16.927,1.619-4.548-1.627-5.86-8.469-1.3-41.016-1.3-11.718,0-11.719-2.6l0.652-.651c0-.865,1.078-2.38,3.255-4.557,1.729-.427,2.278-1.3,1.627-2.6a3.643,3.643,0,0,0-3.58-1.954c-2.605,0-4.782,1.526-6.511,4.558h0ZM518.87,55.883q-13.031,22.14-13.021,26.042T509.43,84.2q3.57-1.617,6.185-7.487L518.87,68.9l8.464,1.3a14.089,14.089,0,0,0,4.882,1.953c1.954,0.437,3.581.875,4.883,1.3a24.483,24.483,0,0,0,9.766,1.953q9.11,2.609,11.068,4.557t3.255,9.766q0,18.234,1.953,28,0,10.422-.326,15.625c-0.223,3.479-.763,5.208-1.627,5.208a55.072,55.072,0,0,1-9.766-5.859q-6.516-4.548-11.068-8.464a4.193,4.193,0,0,0-3.906-2.6,2.3,2.3,0,0,0-2.6,2.6q-2.609,2.61,6.51,10.742a61.721,61.721,0,0,0,19.532,12.045l5.859,1.3a4.039,4.039,0,0,0,4.232-2.93q0.977-2.93.976-11.393,0-57.282-3.255-60.547c-0.437-.427-2.929-1.3-7.487-2.6s-8.575-2.6-12.044-3.906a56.406,56.406,0,0,1-11.719-2.6q-5.859-1.953-7.812-1.953a14.832,14.832,0,0,1-1.3-5.208c0-3.469-.875-5.208-2.6-5.208q-1.953,0-5.859,3.906h0Zm-43.62,66.406a39.732,39.732,0,0,1,11.068,1.953q0,1.953,1.953,8.138c1.3,4.13,1.953,6.836,1.953,8.138l-0.651,1.3a54.288,54.288,0,0,1-14.323,1.954H460.276V130.753a59.613,59.613,0,0,1,.326-7.162c0.213-1.729.753-2.6,1.627-2.6a65.655,65.655,0,0,0,13.021,1.3h0Zm0-26.041q7.813,5.86,7.813,13.02l1.953,5.209L473.3,112.524a38.93,38.93,0,0,1-8.789-.977c-2.828-.651-4.232-1.4-4.232-2.279q-0.656-.641-0.651-7.812,0-7.813.651-8.464,1.3-1.3,6.185-.326a24.357,24.357,0,0,1,8.789,3.581h0Zm-9.765-39.062q-12.375,3.906-14.323,6.836t-1.953,15.951a52.407,52.407,0,0,1,.651,8.464,63.684,63.684,0,0,0,.651,9.114q0,4.562.651,12.7t1.3,14q0,18.891.976,24.74t3.581,4.557q2.594-1.312,15.625-1.3,19.531,0,22.136,2.6,1.3,2.595,6.51-4.557-3.906-16.266-5.208-26.042,0-8.452-1.3-11.718-1.954-1.3-1.954-6.511,0-3.251-3.58-9.115t-6.185-7.162a46,46,0,0,0-5.86-1.953,112.975,112.975,0,0,0-13.671-2.6q-4.563-1.3-5.534-2.6t-0.977-5.859V68.9l9.766-3.255,13.021-3.255a2.116,2.116,0,0,0,2.6-.651,4.427,4.427,0,0,0,1.3-3.255l-0.651-1.3c0-1.729-1.3-2.6-3.906-2.6s-7.162.875-13.672,2.6h0ZM511.058,98.2a8.635,8.635,0,0,0,1.953,5.208,5.618,5.618,0,0,0,4.557,2.6l4.557,3.255a26.061,26.061,0,0,0,5.534,2.6q3.57,1.313,4.232,2.605a30.766,30.766,0,0,1,5.859.651,29.894,29.894,0,0,0,5.86.651,6.51,6.51,0,0,0,7.812,0,6.3,6.3,0,0,0,1.3-2.93c0-.651-0.875-1.19-2.6-1.628q-3.266-3.249-6.51-3.255c-2.177,0-4.344-1.078-6.511-3.255,0-1.3-1.088-1.953-3.255-1.953A31.106,31.106,0,0,1,525.38,99.5Q518.866,95.6,514.964,95.6a4.173,4.173,0,0,0-3.906,2.6h0ZM625.641,50.024a12.535,12.535,0,0,0,1.953,6.51,76.613,76.613,0,0,0,.651,8.138,118.214,118.214,0,0,1,.651,13.346q3.251,34.516-13.021,74.87-2.609,5.2-2.6,7.162a3.743,3.743,0,0,0,1.3,2.6c1.73,1.729,3.255,2.278,4.557,1.627a3.641,3.641,0,0,0,1.954-3.58q9.11-30.594,12.7-48.177a167.181,167.181,0,0,0,3.581-33.2L635.407,66.3l6.51-1.3a33.407,33.407,0,0,0,10.417-2.279q6.5-2.274,9.114-2.93l18.229-4.557a14.059,14.059,0,0,1,4.883.651,2.545,2.545,0,0,1,1.628,2.6,17.448,17.448,0,0,0,.651,3.906,24.6,24.6,0,0,1,.651,5.859q5.2,12.375,5.208,22.786,18.219,71.625,19.531,72.917,5.2,5.2,9.766-11.068a59.243,59.243,0,0,0,6.511-28c0-4.333-.652-6.51-1.954-6.51q-2.609,0-4.557,8.463a45.305,45.305,0,0,1-3.255,16.276l-5.208,6.511-1.3-8.464Q708.965,128.81,708,122.94t-2.279-7.812q0-4.548-3.906-20.183l-2.6-13.672q-5.218-32.547-8.464-32.552-2.609-1.3-11.393-.326a109.577,109.577,0,0,0-17.9,3.581L643.87,56.534H634.1l-1.953-4.557c0-3.031-1.088-4.557-3.255-4.557a3.076,3.076,0,0,0-3.255,2.6h0ZM676.422,72.81a4.305,4.305,0,0,1-.976,2.6,4.353,4.353,0,0,0-.977,2.6q0,2.609-3.255,10.091T666.657,95.6a11.53,11.53,0,0,1-3.256-3.255q-4.561-3.25-6.51-3.255c-1.3-.427-2.177-0.326-2.6.326a5.293,5.293,0,0,0-.651,2.93,5.7,5.7,0,0,0,.651,2.6,5.9,5.9,0,0,1,.651,2.6c0.864,0,1.729.651,2.6,1.953a7.231,7.231,0,0,0,2.6,2.6q3.251,2.609,2.6,4.883t-7.812,14.648l-0.651,5.208a7.186,7.186,0,0,0,.651,3.256q3.906,3.906,9.765-9.766a15.13,15.13,0,0,0,1.954-4.232c0.427-1.515.864-2.278,1.3-2.278a29.68,29.68,0,0,1,8.463,7.812q5.859,6.516,11.068,6.511,7.812-1.954-4.557-14.323l-9.766-9.766,4.557-13.021q5.2-13.672,5.209-16.276a3.642,3.642,0,0,0-1.954-3.581c-1.3-.651-2.828-0.1-4.557,1.628h0ZM822.907,44.164q-2.61,3.265-5.209,16.927a127.923,127.923,0,0,0-2.6,23.438c0,5.646,1.078,8.464,3.255,8.464q2.595,0,4.558-14.974L826.162,63.7q1.3-1.3,17.578,2.6,16.266,3.906,26.693,7.162,5.2,0.656,5.859,1.628c0.427,0.651.651,2.716,0.651,6.185a17.511,17.511,0,0,1-.977,5.534,10.884,10.884,0,0,1-2.278,4.232q-3.906,2.609-3.906,5.859c0,1.74.651,2.6,1.953,2.6q2.594,0,7.812-5.208,5.2-5.2,5.209-7.812c0-2.167.651-3.255,1.953-3.255,0.864-1.3.976-4.008,0.325-8.138s-1.851-6.836-3.581-8.138c-2.176-2.167-3.906-3.255-5.208-3.255a37.4,37.4,0,0,1-13.021-1.953q-7.812-2.594-22.786-4.557L829.417,53.93v-6.51c-0.875-3.906-1.953-5.859-3.255-5.859-0.875,0-1.953.875-3.255,2.6h0Zm-30.6,40.365c4.333,1.739,6.51,3.479,6.51,5.208q0,3.266-4.557,9.766t-7.162,7.812q-2.609,1.313-2.929-.976a91.7,91.7,0,0,1-.326-10.091A56.7,56.7,0,0,1,785.8,81.274a4.954,4.954,0,0,1,2.93,1.3,11.181,11.181,0,0,0,3.581,1.953h0Zm-18.23-17.578V79.971q1.955,4.562,1.954,20.834,0,11.718,1.953,15.3t7.812,2.93a118.7,118.7,0,0,0,10.091-7.813q6.18-5.2,6.185-7.161l3.255-6.511a12.14,12.14,0,0,0,2.605-7.812q0-11.719-17.579-16.276-7.812-3.25-7.812-5.208-2.61-3.906-5.208-3.906c-1.3,0-2.391.875-3.256,2.6h0ZM850.9,74.763a11.438,11.438,0,0,0-3.255,8.464,176.729,176.729,0,0,1-4.232,17.9q-1.632,4.883-4.231,6.185a17.321,17.321,0,0,0-1.3,6.511q0.641,2.609-3.256,15.95t-6.51,16.6c-1.3,1.3-1.953,3.479-1.953,6.51a9.545,9.545,0,0,0,2.278,2.6,5.382,5.382,0,0,0,2.93.651,9.781,9.781,0,0,0,4.232-4.557q1.617-3.25,5.534-16.276,1.3-2.594,3.255-6.185c1.3-2.38,2.38-3.581,3.255-3.581,0-.864.753-0.976,2.279-0.325a10.79,10.79,0,0,1,4.232,3.581,146.345,146.345,0,0,0,22.46,18.229q12.7,8.452,19.857,9.114l5.86,1.3a1.548,1.548,0,0,0,1.627-1.3,13.891,13.891,0,0,0,.326-3.255,4.727,4.727,0,0,0-1.628-3.906q-1.632-1.3-8.138-3.906-23.437-12.36-37.109-26.042l-8.464-6.51L850.9,97.55q1.3-5.2,2.605-9.44t1.953-6.836a12.989,12.989,0,0,0,.651-6.836q-0.657-2.93-1.953-2.93c-0.875,0-1.954,1.088-3.256,3.255h0ZM1024.73,51.977a23.039,23.039,0,0,0,1.3,8.464,5.816,5.816,0,0,0,.98,2.93,6.842,6.842,0,0,1,.97,3.581c0,1.74-1.08,2.6-3.25,2.6s-8.25-.865-18.23-2.6h-7.812c-1.3,0-1.953.437-1.953,1.3q0,5.219,3.585,6.836,3.57,1.633,14.64,1.628l13.02,1.3,1.31,6.51,1.95,6.51-8.46-1.3a22.453,22.453,0,0,1-6.51-.977,19.139,19.139,0,0,0-4.56-.977,8.926,8.926,0,0,0-5.86.651c-1.74.875-2.6,1.953-2.6,3.255v1.3q1.29,2.609,6.83,4.557a29.218,29.218,0,0,0,9.44,1.953q7.155,0,10.42,4.231,3.24,4.242,4.56,15.3c0,2.177-.23,3.479-0.66,3.906s-1.95.651-4.55,0.651q-11.73,0-16.28-4.557-1.305-1.953-6.51-1.953a2.607,2.607,0,0,0-3.25,3.255c1.72,3.479,5.42,6.51,11.06,9.115s12.37,3.906,20.19,3.906l5.85,1.3q1.965,0,3.91-2.6a4.815,4.815,0,0,0,1.3-3.581c0-1.516-.43-2.492-1.3-2.93a43.054,43.054,0,0,0-.98-6.185,51.366,51.366,0,0,1-.97-10.091q0-13.016-1.3-13.02c-0.88,0-1.42-1.078-1.63-3.255a84.04,84.04,0,0,1-.33-8.464c0-2.167.43-3.581,1.3-4.232s3.69-1.4,8.47-2.279c7.37-1.3,11.07-2.818,11.07-4.557a3.708,3.708,0,0,0-1.31-1.953q-1.3-1.3-16.27-1.3c-3.04,0-4.89-.427-5.54-1.3A6.472,6.472,0,0,1,1035.8,65q0-3.25-3.26-9.766c-2.18-4.334-3.69-6.51-4.56-6.51a2.081,2.081,0,0,0-1.95,1.3,7.59,7.59,0,0,1-1.3,1.953h0ZM951.162,70.206q0,2.609,2.929,4.557t8.789,5.208q11.064,3.906,14.323,3.906c2.167,0,3.256-.865,3.256-2.6s-3.693-4.557-11.068-8.463-12.37-5.859-14.974-5.859c-2.177,0-3.255,1.088-3.255,3.255h0Zm-6.511,24.089q-0.655,2.609,1.3,3.581c1.3,0.651,4.12,1.2,8.464,1.628a27.233,27.233,0,0,1,10.091,2.6c2.38,1.3,3.581,3.041,3.581,5.208,0,0.875-.651,1.953-1.953,3.255q-3.908,3.907-3.907,7.162,0,2.609,3.907,7.812Q972,132.06,972,135.31a10.44,10.44,0,0,1-2.6,6.51c-2.177,2.177-3.255,4.13-3.255,5.86q0,10.405,56.644,10.416,13.665,0.642,27.99.651a39.931,39.931,0,0,0,8.14-.651,14.478,14.478,0,0,0,4.88-1.953q3.255-4.561,3.26-6.51c0-1.3-1.09-2.38-3.26-3.255a5.123,5.123,0,0,0-1.95-.651,1.859,1.859,0,0,0-1.3.651,8.488,8.488,0,0,1-4.24,1.953,39.185,39.185,0,0,1-8.13.651q-13.68,0-26.7-.651-37.759,0-39.058-1.953c-1.74,0-2.716-.753-2.93-2.279a58.3,58.3,0,0,1-.326-7.487,79.1,79.1,0,0,0-.325-8.138,12.476,12.476,0,0,0-2.93-6.185q-4.561-4.547-4.557-5.859l1.3-3.906a8.1,8.1,0,0,0,2.6-5.86,9.722,9.722,0,0,0-2.6-7.161c0-1.729-1.526-3.143-4.557-4.232a155.864,155.864,0,0,0-16.927-4.232,9.668,9.668,0,0,0-3.581.651,6.559,6.559,0,0,0-2.93,2.6h0ZM1153.64,48.07c-3.91.437-6.51,0.977-7.82,1.628a3.644,3.644,0,0,0-1.95,3.581v4.557l19.53-1.3a93.158,93.158,0,0,0,19.53-1.953,4.4,4.4,0,0,0,1.3-3.255c0-1.729-.76-2.706-2.27-2.93a60.665,60.665,0,0,0-7.49-.325h-20.83Zm11.06,14.974a35.366,35.366,0,0,0-1.3,9.766,9.942,9.942,0,0,1-.98,4.557c-0.65,1.3-1.41,1.953-2.27,1.953q-30.615,2.609-32.56,4.557-5.85,5.859,6.51,5.859l9.77-.651h16.28v9.766q0,5.86-3.26,17.578a137.287,137.287,0,0,0-4.56,17.252q-2.61,12.056-3.9,17.253a3.221,3.221,0,0,0,5.53,2.279q0.975-.977,2.28-4.883c0.86-2.6,1.52-4.557,1.95-5.86q1.3-4.547,2.28-9.44a65.569,65.569,0,0,1,2.93-10.091q3.255-11.718,3.26-17.578l1.3-5.859a15,15,0,0,1,.98,4.557q0.315,3.265.97,7.812a85.775,85.775,0,0,0,3.91,21.81c2.16,6.735,4.56,11.394,7.16,14a22.783,22.783,0,0,0,12.37,3.255c3.91,0,9.54-1.078,16.93-3.255,5.63-3.032,9.44-5.534,11.39-7.487s2.93-4.659,2.93-8.138l-1.3-10.417q-1.95-19.531-6.51-19.531-2.61,0-2.93,4.883c-0.23,3.255-.33,8.138-0.33,14.648a45.449,45.449,0,0,1,1.3,11.068c0,2.177-.43,3.255-1.3,3.255a9.875,9.875,0,0,0-3.58.977q-2.28.977-6.18,2.278-6.525,3.906-10.42,3.906-6.51,0-12.37-10.416a38.175,38.175,0,0,0-1.3-4.232,7.818,7.818,0,0,1-.65-2.93,2.555,2.555,0,0,1,1.95-2.6v-1.3q-2.61.657-2.93-3.255t-0.33-11.719q-1.305-10.406-1.95-12.37c-0.44-1.3-1.95-1.953-4.56-1.953-1.74,0-2.6-.427-2.6-1.3s0.86-1.516,2.6-1.953l19.54-3.255a53.608,53.608,0,0,0,7.16-.651,53.816,53.816,0,0,0,7.81-1.628q3.255-.976,3.25-2.93c0.87-1.3.66-2.492-.65-3.581s-3.48-1.628-6.51-1.628a14.548,14.548,0,0,0-4.55.651,41.822,41.822,0,0,1-16.28,3.255h-11.07l1.3-6.51V64.346a2.3,2.3,0,0,0-2.6-2.6,5.326,5.326,0,0,0-3.91,1.3h0Zm181.64-5.859q3.915,2.609,3.91,4.557A7.293,7.293,0,0,1,1349.6,65v5.208c-1.3.875-4.56,1.3-9.77,1.3a34.772,34.772,0,0,0-8.46.976,27.823,27.823,0,0,1-6.51.977l-6.51,1.3V65l1.95-9.766h9.77q13.02,0,16.27,1.953h0Zm-37.76-8.464c-1.74.875-2.6,1.739-2.6,2.6a9.882,9.882,0,0,0,1.3,3.906,3.951,3.951,0,0,0,.98,1.953q0.975,1.312,3.58,0,2.6-2.594,2.6-.977a39.59,39.59,0,0,1-.65,5.534,20.59,20.59,0,0,1-.97,5.859,20.4,20.4,0,0,0-.98,5.859l-4.56,17.578q0,5.218-5.21,22.787a72.607,72.607,0,0,1-2.93,10.091,19.967,19.967,0,0,0-1.62,6.185,6.235,6.235,0,0,0-1.63,2.278,1.456,1.456,0,0,0,.32,1.628c0.43,0.437.87,0.875,1.31,1.3l3.25,3.255q0.645,0,5.54-15.625,4.875-15.624,7.48-26.692,0-7.156,5.21-7.162a31.164,31.164,0,0,1,9.11,1.953q8.46,5.218,28,11.719a137.274,137.274,0,0,1,17.58,4.557,41.149,41.149,0,0,0,11.72,1.953q2.6-3.906,0-5.534c-1.74-1.078-6.09-2.492-13.02-4.231-5.21-1.729-9.67-3.143-13.35-4.232s-6.41-1.841-8.14-2.279a135.482,135.482,0,0,1-15.95-6.51q-8.145-3.906-8.14-5.208a4.447,4.447,0,0,1,3.26-1.3q17.58,0,19.53,1.3,2.6,2.609,4.88-.977,2.28-3.57,2.93-12.044l1.3-10.417a5.266,5.266,0,0,0-1.95-4.232,18.5,18.5,0,0,0-5.86-2.93,104.47,104.47,0,0,0-29.95-3.906q-9.12,0-12.37,1.953h0Zm24.74,71.615q0,4.563,6.51,8.464a44.654,44.654,0,0,1,4.56,2.6,28.219,28.219,0,0,0,3.26,1.953,30.981,30.981,0,0,0,8.46,3.255q4.545,2.61,7.16,2.6a1.146,1.146,0,0,0,1.3-1.3c0-1.3-1.09-2.93-3.25-4.883a62.9,62.9,0,0,0-8.47-6.185,20.38,20.38,0,0,1-7.16-3.255,39.8,39.8,0,0,1-5.86-4.557c-2.6-2.6-4.34-3.906-5.2-3.906-0.88,0-1.31,1.739-1.31,5.208h0Zm-6.51,21.484q0,3.908,4.56,6.511a160.9,160.9,0,0,0,16.93,9.114c5.63,2.605,9.33,3.907,11.06,3.907,1.73-.875,2.61-1.953,2.61-3.256s-0.88-2.39-2.61-3.255a30.147,30.147,0,0,0-6.18-3.906c-3.26-1.729-6.18-3.255-8.79-4.557q-11.07-6.5-14.97-6.511-2.61,0-2.61,1.953h0Zm192.06-85.937q-13.035,22.14-13.02,26.042t3.58,2.279c2.38-1.078,4.45-3.581,6.18-7.487l3.26-7.812,8.46,1.3a14.142,14.142,0,0,0,4.89,1.953c1.95,0.437,3.58.875,4.88,1.3a24.478,24.478,0,0,0,9.76,1.953q9.12,2.609,11.07,4.557t3.26,9.766q0,18.234,1.95,28,0,10.422-.32,15.625c-0.23,3.479-.77,5.208-1.63,5.208a55.176,55.176,0,0,1-9.77-5.859q-6.51-4.548-11.07-8.464a4.181,4.181,0,0,0-3.9-2.6,2.307,2.307,0,0,0-2.61,2.6q-2.61,2.61,6.51,10.742a61.809,61.809,0,0,0,19.54,12.045l5.86,1.3a4.041,4.041,0,0,0,4.23-2.93q0.975-2.93.97-11.393,0-57.282-3.25-60.547c-0.44-.427-2.93-1.3-7.49-2.6s-8.57-2.6-12.04-3.906a56.274,56.274,0,0,1-11.72-2.6q-5.865-1.953-7.81-1.953a14.766,14.766,0,0,1-1.31-5.208q0-5.2-2.6-5.208c-1.3,0-3.26,1.3-5.86,3.906h0Zm-43.62,66.406a39.792,39.792,0,0,1,11.07,1.953q0,1.953,1.95,8.138c1.3,4.13,1.95,6.836,1.95,8.138l-0.65,1.3a54.266,54.266,0,0,1-14.32,1.954h-14.97V130.753a60.694,60.694,0,0,1,.32-7.162c0.22-1.729.75-2.6,1.63-2.6a65.638,65.638,0,0,0,13.02,1.3h0Zm0-26.041q7.815,5.86,7.81,13.02l1.96,5.209-11.72-1.953a38.958,38.958,0,0,1-8.79-.977c-2.83-.651-4.23-1.4-4.23-2.279-0.44-.427-0.65-3.031-0.65-7.812,0-5.209.21-8.026,0.65-8.464,0.86-.865,2.93-0.977,6.18-0.326a24.3,24.3,0,0,1,8.79,3.581h0Zm-9.77-39.062q-12.375,3.906-14.32,6.836t-1.95,15.951a52.073,52.073,0,0,1,.65,8.464,63.394,63.394,0,0,0,.65,9.114q0,4.562.65,12.7t1.3,14q0,18.891.98,24.74t3.58,4.557q2.6-1.312,15.63-1.3,19.53,0,22.13,2.6c0.87,1.73,3.03.214,6.51-4.557q-3.9-16.266-5.21-26.042,0-8.452-1.3-11.718-1.95-1.3-1.95-6.511,0-3.251-3.58-9.115t-6.19-7.162a45.819,45.819,0,0,0-5.86-1.953,113.03,113.03,0,0,0-13.67-2.6q-4.56-1.3-5.53-2.6t-0.98-5.859V68.9l9.77-3.255,13.02-3.255a2.111,2.111,0,0,0,2.6-.651,4.4,4.4,0,0,0,1.3-3.255l-0.65-1.3c0-1.729-1.3-2.6-3.9-2.6s-7.16.875-13.68,2.6h0ZM1511.06,98.2a8.643,8.643,0,0,0,1.95,5.208,5.62,5.62,0,0,0,4.56,2.6l4.56,3.255a25.968,25.968,0,0,0,5.53,2.6q3.57,1.313,4.23,2.605a30.792,30.792,0,0,1,5.86.651,29.918,29.918,0,0,0,5.86.651,9.8,9.8,0,0,0,3.91,1.3,9.913,9.913,0,0,0,3.9-1.3,6.24,6.24,0,0,0,1.3-2.93c0-.651-0.87-1.19-2.6-1.628-2.18-2.166-4.34-3.255-6.51-3.255s-4.34-1.078-6.51-3.255c0-1.3-1.09-1.953-3.26-1.953a31.1,31.1,0,0,1-8.46-3.255q-6.51-3.906-10.42-3.906a4.162,4.162,0,0,0-3.9,2.6h0Zm131.51-74.219v6.51q-1.32,5.219-3.58,6.51c-1.53.875-5.11,1.3-10.74,1.3q-11.73,0-13.03,1.953c-2.6,2.177-2.93,3.8-.97,4.883s6.61,2.065,14,2.93c8.23,0,12.36.651,12.36,1.953l-1.3,1.3q-1.3,0-6.51,8.463a84.3,84.3,0,0,0-7.81,13.021c-2.6,2.6-3.91,4.13-3.91,4.557,0,0.875.65,1.953,1.96,3.255a1.142,1.142,0,0,0,1.3,1.3,2.085,2.085,0,0,0,1.95-1.3h5.21a1.15,1.15,0,0,0,1.3-1.3q-1.3-3.906,3.26-8.464a3.823,3.823,0,0,0,1.95-3.255,3.136,3.136,0,0,1,.98-2.279,3.1,3.1,0,0,1,2.28-.977c0.86-1.729,1.62-2.492,2.27-2.279s0.98,1.628.98,4.232q1.305,3.266,1.3,35.808c-0.87.875-1.3,0.875-1.3,0q-3.27,0,0,3.255c0.43,2.177,1.41,3.367,2.93,3.581s3.14-.539,4.88-2.279q2.6-6.5,2.61-24.74a65.922,65.922,0,0,0-.65-11.068,12.472,12.472,0,0,1-1.96-6.51,4.944,4.944,0,0,1,2.93,1.3,11.219,11.219,0,0,0,3.58,1.953c3.91,2.6,7.59,3.906,11.07,3.906q4.545,0,5.21-1.953,0-3.25-3.26-3.255l-1.3-1.953q-1.3,0-4.55-2.6c-2.18-1.729-3.91-3.031-5.21-3.906q-8.475-5.2-8.47-7.812a27.9,27.9,0,0,1,9.77-1.953q10.41,0,10.42-2.6a2.683,2.683,0,0,0-.66-1.953c0-1.3-1.08-1.953-3.25-1.953a3.961,3.961,0,0,1-2.28-.651,4.062,4.062,0,0,0-2.28-.651c0-.865-0.32-1.3-0.97-1.3a3.551,3.551,0,0,0-2.28,1.3c-2.18,0-3.26-.651-3.26-1.953q0-1.3-5.21-1.3c-2.17,0-3.48-.326-3.9-0.977-0.44-.651-0.65-2.492-0.65-5.534a47.118,47.118,0,0,0-.33-6.185c-0.22-1.516-.76-2.279-1.63-2.279-2.17,0-3.25.651-3.25,1.953h0Zm61.85,4.557a4.392,4.392,0,0,0-.33,2.93,13.679,13.679,0,0,1,.33,2.279c0,1.739-.65,2.716-1.96,2.93a37.769,37.769,0,0,1-5.86.326,45.174,45.174,0,0,0-8.46-.651q-5.865,0-7.81,1.953c-0.88,2.6-.65,4.13.65,4.557s5.42,1.088,12.37,1.953c7.37,0,11.07,1.088,11.07,3.255,0.86,0.875,1.08,1.628.65,2.279a2.207,2.207,0,0,1-1.96.977q-5.2,0-16.27,16.276-5.22,7.813-5.21,12.37c0,1.739.65,2.6,1.95,2.6q1.965-.641,5.86-3.906,3.915-3.25,3.91-4.557t13.02-17.578q0.645,0,.33,1.953a18.183,18.183,0,0,0-.33,2.6q-2.61,2.609,0,5.208,2.6,0.656,2.93,4.883c0.21,2.828.33,7.06,0.33,12.7q0,7.812.32,12.044c0.21,2.828,1.19,4.232,2.93,4.232,1.73,0.875,3.26,0,4.56-2.6s1.95-6.51,1.95-11.719q0-12.36,2.61-12.37c0.86,0,2.6,1.3,5.2,3.906q2.6,3.906,5.21,1.953c2.17-1.729,3.03-3.469,2.61-5.208q-0.66-2.594-5.86-6.51-8.475-5.2-10.75-8.464a13.251,13.251,0,0,1-2.27-7.812v-6.51h6.51a8.548,8.548,0,0,0,5.53.651q2.28-.641,2.28-1.953c0.86-1.729.43-3.255-1.3-4.557S1724.6,37,1720.69,37a12.034,12.034,0,0,0-3.25-.977,10.036,10.036,0,0,1-3.58-1.3,9.276,9.276,0,0,1-2.93-2.93c-0.44-3.031-2.18-4.557-5.21-4.557a1.146,1.146,0,0,0-1.3,1.3h0Zm-24.09,73.568a11.564,11.564,0,0,0-3.58,4.557q-1.635,3.265-2.93,6.511-4.56,7.812-6.51,9.765c-1.3,1.3-1.96,2.391-1.96,3.255,1.31,0,.87,1.089-1.3,3.256-1.74,4.343-2.6,7.161-2.6,8.463q0,4.563,3.9,4.557,1.965-1.3,6.84-9.44t4.88-11.393c0-2.6,2.38-3.906,7.16-3.906a24.589,24.589,0,0,1,5.86.651c1.31,0.437,2.61.875,3.91,1.3a12.183,12.183,0,0,0,3.91.651,2.654,2.654,0,0,0,1.95-.651c0.86,0,1.3.651,1.3,1.953l8.47,3.255a17.572,17.572,0,0,1,6.51,1.3q0,3.908-4.89,11.719-4.875,7.812-6.83,7.813-0.66,0-9.77-7.813-8.46-8.452-13.02-8.463c-3.04,0-4.56.874-4.56,2.6s2.17,4.781,6.51,9.114q7.815,5.86,7.82,7.813l3.25,3.255c1.73,0.865,2.71,1.729,2.93,2.6s-0.11,2.167-.98,3.906q-3.255,3.25-8.46,11.719-6.51,6.5-6.51,9.115a5.63,5.63,0,0,0,1.95,3.906q1.305,1.3,7.82-3.255,3.9-3.266,8.46-11.719c0.86-3.479,1.95-5.208,3.25-5.208l1.31,0.651a9.017,9.017,0,0,0,4.55-1.628c1.73-1.088,2.61-2.278,2.61-3.581l-0.65-1.3q0-3.265,5.21-11.718,9.765-16.923,9.76-22.787c0-1.3-1.95-2.706-5.86-4.232s-9.55-3.357-16.93-5.533q-5.2-1.3-11.71-3.256c-4.35-1.3-6.51-2.38-6.51-3.255,1.3-2.167,1.95-3.682,1.95-4.557a5.926,5.926,0,0,0,0-3.906,2.1,2.1,0,0,0-1.95-1.3,10.509,10.509,0,0,0-4.56,5.209h0Zm134.76-76.823c0,0.875,1.52,3.255,4.56,7.162,4.33,3.042,6.51,6.734,6.51,11.068,0,2.177-1.09,3.255-3.25,3.255-1.74,0-2.51,1.088-2.28,3.255a4.046,4.046,0,0,0,3.58,3.906q0.645,0.656,2.28,0a11.256,11.256,0,0,0,3.58-2.6,11.47,11.47,0,0,0,3.25-8.464,20.6,20.6,0,0,0-6.51-14.974q-3.255-3.25-9.11-3.255a3.822,3.822,0,0,0-2.61.651h0ZM1798.17,38.3a8.417,8.417,0,0,0,3.9,3.906,16.425,16.425,0,0,0,1.63,2.6c0.65,0.875.75,1.526,0.33,1.953q-2.61,1.312-2.61,5.859a5.816,5.816,0,0,0,.98,2.93c0.65,1.088,1.19,1.628,1.63,1.628q2.6,0.656,6.18-2.6c2.38-2.167,3.58-4.334,3.58-6.51a11.839,11.839,0,0,0-3.9-8.464c-2.61-2.6-5.21-3.906-7.82-3.906-2.17,0-3.48.875-3.9,2.6h0Z"/>
</svg>
