<svg xmlns="http://www.w3.org/2000/svg" width="208" height="60" viewBox="0 0 208 60">
  <defs>
    <style>
      .cls-1 {
        fill: #fff;
        fill-rule: evenodd;
      }
    </style>
  </defs>
  <path id="个影像" class="cls-1" d="M70.953,16.872a69.584,69.584,0,0,1-5.469,5.273A30.518,30.518,0,0,1,60.8,25.661a3.678,3.678,0,0,0-1.172,1.563c0,0.262.391,0.391,1.172,0.391q0.975,0,4.3-2.441a37.845,37.845,0,0,0,5.469-4.785q2.147-2.147,3.125-2.148a1.144,1.144,0,0,1,.781.2,8.1,8.1,0,0,1,2.441.488q1.465,0.49,1.465.879L85.6,21.364a6.878,6.878,0,0,0,2.539.391c1.3,0,1.953-.455,1.953-1.367,0-.65-0.848-0.977-2.539-0.977q-0.783-.192-5.957-1.562t-6.738-2.93a2.886,2.886,0,0,0-.977-1.367,26.008,26.008,0,0,0-2.93,3.32h0Zm3.906,4.492V32.106q0,10.158-.391,11.719a3.122,3.122,0,0,0-.391,1.367c0,0.391.128,0.586,0.391,0.586a1.327,1.327,0,0,1,.391.977c0,0.259.1,0.293,0.293,0.1a0.938,0.938,0,0,0,.293-0.684,2.8,2.8,0,0,1,.977-1.953,1.194,1.194,0,0,0,.879-0.293,1.513,1.513,0,0,0,.293-1.074,21.069,21.069,0,0,0-.2-2.93,82.066,82.066,0,0,0-.586-11.328q0-3.516-.1-5.469t-0.879-2.344a1.15,1.15,0,0,1-.977.586h0ZM119,15.505q0,1.369-3.906,1.367c-1.3,0-1.953-.128-1.953-0.391,0-.65.195-0.976,0.585-0.976h1.954a6.126,6.126,0,0,1,2.343-.586q0.975-.586.977,0.586h0Zm0-3.516c0,0.262-.522.488-1.563,0.684a18.012,18.012,0,0,1-3.32.293,4.146,4.146,0,0,1-1.758-.781q0-.389,1.465-0.684a35.152,35.152,0,0,1,3.809-.488c0.909,0,1.367.326,1.367,0.976h0Zm-2.93-3.32a8.288,8.288,0,0,1-2.929.391,3.865,3.865,0,0,0-1.465-.1,7.917,7.917,0,0,1-.879.1,1.436,1.436,0,0,0-.879.879,5.916,5.916,0,0,0,.293,2.051,12.95,12.95,0,0,0,.293,2.734,13.06,13.06,0,0,1,.293,2.734v2.93h1.953a6.16,6.16,0,0,0,2.344-.586,5.3,5.3,0,0,1,2.539-.391,6.054,6.054,0,0,0,2.734-1.074,4.517,4.517,0,0,0,1.172-2.441,33.829,33.829,0,0,0,.391-3.516,4.581,4.581,0,0,0-.782-3.027,3.535,3.535,0,0,0-2.734-.879,10.51,10.51,0,0,0-2.344.2h0Zm14.649,9.766a14.625,14.625,0,0,0-1.953,3.613q-0.783,2.051-.391,2.637c0,0.781.259,1.172,0.781,1.172a1.357,1.357,0,0,0,1.172-1.172,8.645,8.645,0,0,1,.684-1.758,13.206,13.206,0,0,0,.683-1.562,12.068,12.068,0,0,0,.977-3.516c0-.65-0.2-0.909-0.586-0.781a3.292,3.292,0,0,0-1.367,1.367h0Zm4.882,2.93a13.01,13.01,0,0,1-.781,1.367,9.011,9.011,0,0,0-.586.977,5.225,5.225,0,0,1-.976,2.539,7.32,7.32,0,0,1-.586,1.855,23.394,23.394,0,0,0-.977,3.027,21.98,21.98,0,0,0-.976,4.1c0,0.263.064,0.391,0.195,0.391a1.846,1.846,0,0,0,.781-0.586,15.277,15.277,0,0,0,2.149-3.711,13.2,13.2,0,0,0,1.367-3.711,5.581,5.581,0,0,1,.976-2.93,5.564,5.564,0,0,0,.977-3.32,1.383,1.383,0,0,0-.586-0.781,2.79,2.79,0,0,0-.977.781h0Zm-20.507,2.344c0,1.3-.132,2.051-0.391,2.246a5.973,5.973,0,0,1-2.539.293h-3.418c-0.586,0-.879.131-0.879,0.391q-0.2.783,1.27,1.367a11.061,11.061,0,0,0,4,.586,31.351,31.351,0,0,0,3.906-.391,19.645,19.645,0,0,0,3.418-.293,17.513,17.513,0,0,1,3.027-.293,5.653,5.653,0,0,0,2.734-.684,2.051,2.051,0,0,0,.586-1.66q0-.778-4.882,0a3.826,3.826,0,0,1-2.637-.1,4.687,4.687,0,0,1-1.66-1.855q-0.979-1.561-1.953-1.562a0.774,0.774,0,0,0-.879.391,3.466,3.466,0,0,0,.293,1.563h0Zm25,2.539a48.168,48.168,0,0,0-1.661,5.469,34.852,34.852,0,0,0-1.269,5.664,13.7,13.7,0,0,1-1.563,3.906A8.993,8.993,0,0,0,134.43,44.8a0.788,0.788,0,0,0,.781.977q1.171,0,2.93-4.492a41.855,41.855,0,0,0,2.05-7.715,61.018,61.018,0,0,0,1.27-7.324,0.4,0.4,0,0,0-.488-0.391,1.214,1.214,0,0,0-.879.391h0Zm-22.071,8.2a0.557,0.557,0,0,1-.39.391,1.07,1.07,0,0,1-.586-0.391,0.526,0.526,0,0,1,.293-0.391,0.653,0.653,0,0,0,.293-0.586h0.976c0,0.653-.195.977-0.586,0.977h0Zm-3.906-3.32a19.273,19.273,0,0,0,.293,3.125,27.777,27.777,0,0,0,.684,3.125q0.975,0.979,1.562.586c0.65,0,.977.131,0.977,0.391q0,1.566.293,4.688a11.474,11.474,0,0,0,.683,3.711q0.192,0.975-.586,1.074a4.678,4.678,0,0,1-2.343-.684q-0.783-1.172-1.563-.391T114.7,48.9a6.839,6.839,0,0,0,3.906,1.758q2.344,0.389,2.344-1.953a12.337,12.337,0,0,0-.2-1.562,18.072,18.072,0,0,1-.2-2.93,12.6,12.6,0,0,0-.293-2.832,9.493,9.493,0,0,0-.683-2.051,3.233,3.233,0,0,1-.195-1.855,6.088,6.088,0,0,1,1.562-2.051,6.125,6.125,0,0,0,1.367-2.93q0-1.172-1.758-1.367a10.854,10.854,0,0,0-2.05-.586,13.107,13.107,0,0,1-2.832-.977,1.092,1.092,0,0,0-1.075.586c-0.2.391-.36,0.717-0.488,0.977h0Zm9.375,8.2c-0.391,0-.586.653-0.586,1.953q0,1.758.195,1.758l0.391-.2a2.271,2.271,0,0,1,1.953,1.367q1.562,1.561,2.344,1.563a1.218,1.218,0,0,0,.586-1.465,5.09,5.09,0,0,0-1.563-2.441,6.1,6.1,0,0,0-.781-1.074,2.294,2.294,0,0,1-.586-0.879,0.779,0.779,0,0,0-.39-0.879,3.564,3.564,0,0,0-1.563.293h0ZM109.82,43.239q-2.343,1.758-2.344,2.539a3.415,3.415,0,0,0,.391.977q0.778,0.778,2.149-.1a6.073,6.073,0,0,0,2.148-2.441,25.5,25.5,0,0,0,.781-2.539,0.346,0.346,0,0,0-.39-0.391q-0.783,0-2.735,1.953h0ZM184.039,19.8c0.128,0.131.323,0.36,0.586,0.684a1.985,1.985,0,0,1,.391,1.27c0,1.044-.2,1.563-0.586,1.563a0.63,0.63,0,0,0-.586-0.391,0.345,0.345,0,0,0-.391.391,5.437,5.437,0,0,0-1.172.2,9.232,9.232,0,0,1-2.148.2c-1.563,0-2.344-.128-2.344-0.391l0.391-.586a2.811,2.811,0,0,0,.976-1.953c0-.781-0.326-1.007-0.976-0.684a5.277,5.277,0,0,0-1.954,2.246c-0.262.262-.683,0.653-1.269,1.172a2.581,2.581,0,0,1-1.66.781A1.858,1.858,0,0,1,171.93,24a3.956,3.956,0,0,1-.2-1.66,9.7,9.7,0,0,1,.1-1.562,1.413,1.413,0,0,1,.879-0.977,28.7,28.7,0,0,1,5.859-.391q4.688,0,5.469.391h0Zm-15.625-9.18q-2.541,3.126-2.539,4.883c0,0.653.226,0.912,0.683,0.781a4.719,4.719,0,0,0,1.856-1.758,3.709,3.709,0,0,1,1.074-1.269,3.42,3.42,0,0,1,1.66-.293q1.365,0,6.055.586h2.93l-0.977,1.953a2.466,2.466,0,0,1-1.172,1.172,5.883,5.883,0,0,1-1.758.2,14.527,14.527,0,0,0-4,.586q-2.052.586-2.442,1.367a15.734,15.734,0,0,0-.195,3.125,17.237,17.237,0,0,0,.195,3.32,10.116,10.116,0,0,0,1.563,1.953,1.909,1.909,0,0,1,.976.391,7.157,7.157,0,0,1-.879,2.051,10.4,10.4,0,0,1-1.66,2.441,11.67,11.67,0,0,0-1.367,2.344,8.259,8.259,0,0,1-1.953,2.93,1.568,1.568,0,0,0-.293,1.563,1.072,1.072,0,0,0,1.074.781,2.977,2.977,0,0,0,1.172-.391q1.364-2.147,2.344-3.906,2.343-3.9,3.515-3.906h0.391a11.313,11.313,0,0,1-.781,1.66,17.76,17.76,0,0,0-1.172,2.832,9.972,9.972,0,0,0-1.758,4.492c0,0.522.128,0.781,0.391,0.781h0.39q0.586,0,2.637-2.93a12.221,12.221,0,0,0,2.246-4.3Q177.2,32.3,178.375,32.3a6.5,6.5,0,0,1,5.664,3.027,10.59,10.59,0,0,1,1.172,5.566,32.845,32.845,0,0,1-.2,3.906v4.3l-1.563-.391a4.056,4.056,0,0,1-2.637-1.074,2.854,2.854,0,0,1-1.269-1.855c0-.912-0.263-1.236-0.781-0.977a2.789,2.789,0,0,0-1.172,1.953,4.425,4.425,0,0,0,1.367,3.027,8.824,8.824,0,0,0,3.515,2.246q2.536,0.778,3.614-1.074t1.855-8.105V40.9a3.967,3.967,0,0,1,1.953,1.367c0.391,0.262.846,0.586,1.368,0.977a2.822,2.822,0,0,0,.976.586,2.137,2.137,0,0,0,.586.391,0.63,0.63,0,0,1,.391.586c0,0.259.518,0.391,1.562,0.391a4.013,4.013,0,0,0,1.953-.684,3.618,3.618,0,0,0,.977-1.66c0-.65-0.2-0.977-0.586-0.977a10.359,10.359,0,0,1-3.711-1.465,12.227,12.227,0,0,1-3.516-2.441l-0.976-.977,2.344-1.562a4.825,4.825,0,0,1,1.464-.977,3.806,3.806,0,0,1,1.465-.391c0.391,0,.586-0.324.586-0.977a0.764,0.764,0,0,0-.488-0.781,2.917,2.917,0,0,0-1.074-.2,3.981,3.981,0,0,0-2.93.977,5.217,5.217,0,0,1-2.539.977,2.682,2.682,0,0,1-1.758-.977,6.863,6.863,0,0,0-3.125-2.148,20.951,20.951,0,0,0-5.273-1.367,6.434,6.434,0,0,1-1.758-.488,0.938,0.938,0,0,1-.586-0.879q0.587-1.758,4.492-1.758l3.32,0.2q2.536,0,3.809-.1a3.234,3.234,0,0,0,1.465-.293,2.782,2.782,0,0,0-.391-1.562v-2.93a4.289,4.289,0,0,0-.976-3.125,5.589,5.589,0,0,0-3.516-1.172,5.568,5.568,0,0,1-2.148-.781l0.195-.2a3.98,3.98,0,0,0,.976-2.93,8.306,8.306,0,0,0,.586-1.953q0-.778-2.539-0.976a49.7,49.7,0,0,1-5.664-.293c-1.693-.2-2.539-0.421-2.539-0.684a1.928,1.928,0,0,0-1.953-.488,3.285,3.285,0,0,0-1.953,1.465h0Zm-9.375.976q-2.151.783-5.859,4.59t-3.321,4.59q0,2.344,3.321-.977a39.1,39.1,0,0,1,3.808-4,8.257,8.257,0,0,1,3.028-1.855,2.9,2.9,0,0,0,1.367-.781,1.691,1.691,0,0,0,.586-1.172,1.334,1.334,0,0,0-.391-0.976,0.891,0.891,0,0,0-.977-0.2,8.613,8.613,0,0,0-1.562.781h0Zm-0.977,6.25a2.157,2.157,0,0,0-.879,1.953q-0.1,1.566-.1,4.492,0.388,3.323.39,13.086,0,8.6-.39,9.766-0.587,5.466,1.172,5.469h0.39q0.779-.394.879-3.906t0.1-10.352q0-9.375-.1-15.137t-0.488-5.762c0-.259-0.165-0.324-0.488-0.2a0.64,0.64,0,0,0-.489.586h0Zm20.508,16.6a3.377,3.377,0,0,1-.586,1.367,8.512,8.512,0,0,0-.781,1.563,11.8,11.8,0,0,1-1.367,2.344q-0.98,1.369-1.563,2.148a5.714,5.714,0,0,0-1.172,2.539c0,0.519.2,0.781,0.586,0.781q1.365,0,4.3-4.492t2.539-5.664q-0.393-1.172-1.953-.586h0Z"/>
  <path id="_11" data-name="11" class="cls-1" d="M13.11,16.537c0,0.175-.045.7-0.13,1.563s-0.13,2.258-.13,4.167a45.607,45.607,0,0,0,.26,5.469q0,5.212.26,8.2c0.171,2,.26,3.345.26,4.036,0,1.737.431,2.6,1.3,2.6a1.8,1.8,0,0,0,1.432-.911,4.2,4.2,0,0,0,.651-2.474V38.151a16.567,16.567,0,0,0-.391-2.995,21.95,21.95,0,0,1-.391-4.3,17.719,17.719,0,0,0-.26-3.516,8.777,8.777,0,0,1-.26-1.693V21.224q-0.781-4.944-1.823-4.948a1.064,1.064,0,0,0-.781.26h0Zm28.49,0c0,0.175-.045.7-0.13,1.563s-0.13,2.258-.13,4.167a45.631,45.631,0,0,0,.26,5.469q0,5.212.26,8.2c0.171,2,.261,3.345.261,4.036,0,1.737.431,2.6,1.3,2.6a1.8,1.8,0,0,0,1.432-.911,4.2,4.2,0,0,0,.651-2.474V38.151a16.567,16.567,0,0,0-.391-2.995,21.943,21.943,0,0,1-.391-4.3,17.719,17.719,0,0,0-.26-3.516,8.769,8.769,0,0,1-.26-1.693V21.224q-0.781-4.944-1.823-4.948a1.064,1.064,0,0,0-.781.26h0Z"/>
</svg>
