<svg xmlns="http://www.w3.org/2000/svg" width="228" height="60" viewBox="0 0 228 60">
  <defs>
    <style>
      .cls-1 {
        fill: #fff;
        fill-rule: evenodd;
      }
    </style>
  </defs>
  <path id="_24_07_05" data-name="24/07/05" class="cls-1" d="M10.63,21.149Q9.995,22,11.159,22.736a6.562,6.562,0,0,0,3.491.741,10,10,0,0,0,2.328-.212,12.055,12.055,0,0,1,4.761,1.164q2.643,1.165,2.645,2.01,0,1.7-2.856,4.655a20.38,20.38,0,0,1-6.03,4.443q-2.752.848-2.751,2.327,0,1.27,3.174,1.27a32.582,32.582,0,0,1,7.406.635,21.925,21.925,0,0,0,6.242,0c1.2-.281,1.8-0.846,1.8-1.693a1.024,1.024,0,0,0-.846-0.74,6.851,6.851,0,0,0-2.327-.317,35.2,35.2,0,0,1-6.242-.635,15.334,15.334,0,0,0-1.8-.423c-0.423,0-.073-0.35,1.058-1.058l2.856-2.856a16.181,16.181,0,0,0,3.068-3.914q0.421-2.539-.106-3.385a7.111,7.111,0,0,0-3.068-1.9,14.059,14.059,0,0,0-7.406-1.693H10.63Zm35.758-2.962q-2.118,1.483-5.924,7.406-0.426.635-1.693,2.645a6.773,6.773,0,0,0-1.27,2.856c0,0.565.562,0.919,1.693,1.058a37.055,37.055,0,0,0,4.443.212h5.924l0.423,2.116A7.314,7.314,0,0,0,50.3,36.6a7.347,7.347,0,0,1,.317,2.116A11.5,11.5,0,0,0,51.889,44q1.056,1.7,1.9,0a6.99,6.99,0,0,0,.423-2.116l-0.423-3.6A49.075,49.075,0,0,1,52.736,33a1.108,1.108,0,0,1,.423-0.952,4.3,4.3,0,0,1,1.693-.529,13.545,13.545,0,0,1,2.116-.212,32.7,32.7,0,0,0,3.809-.741A1.22,1.22,0,0,0,61.834,29.4a0.875,0.875,0,0,0-.212-0.635c0-.562-0.212-0.846-0.635-0.846a13.031,13.031,0,0,0-1.9.212,9.036,9.036,0,0,0-2.116.317,11.333,11.333,0,0,1-2.751.317L52.1,29.19V24.535q0-4.865-.423-5.29-0.848-.843-1.27.846a21.187,21.187,0,0,0-.423,4.866q0,2.966-.529,3.491T44.7,29.825a10,10,0,0,1-2.328.212c-1.131,0-1.693-.212-1.693-0.635a1.185,1.185,0,0,1,.423-0.635q1.056-1.691,1.481-1.693a3.093,3.093,0,0,0,1.058-1.481q0-.843,2.962-4.232t3.385-3.809a2.846,2.846,0,0,0,1.27-1.693c0-.562-0.423-0.846-1.27-0.846q-0.848,0-3.6,3.174h0Zm35.335-2.116c-0.284-.7-0.741-0.7-1.375,0A19.108,19.108,0,0,0,77.915,20.3q-0.848,2.331-1.481,3.914c-0.423,1.058-.707,1.8-0.846,2.222a3.383,3.383,0,0,0-.423,1.481A13.953,13.953,0,0,1,74,31.306q-1.165,2.752-2.645,5.5-1.7,3.387-2.645,5.819a24.025,24.025,0,0,0-1.164,3.491,2.065,2.065,0,0,0,1.481.423,1.324,1.324,0,0,0,.74-0.212A1.805,1.805,0,0,0,70.3,45.27a14.36,14.36,0,0,1,.952-2.01,8.636,8.636,0,0,0,.952-2.645q0.635-1.478,1.9-4.338a48.7,48.7,0,0,0,2.328-6.665,19.922,19.922,0,0,0,1.481-3.6q0.843-2.539,1.481-4.232,2.539-4.443,2.539-5.29Zm17.35,6.771a11.594,11.594,0,0,1,3.808,1.058,5.685,5.685,0,0,1,1.9,2.116,5.26,5.26,0,0,1,.635,2.328,16.645,16.645,0,0,1-1.692,5.078,12.564,12.564,0,0,1-2.857,3.174q-2.013,1.7-2.856,1.693L96.323,37.23a11.441,11.441,0,0,1-1.8-4.655,13.8,13.8,0,0,1-.317-5.5,4.067,4.067,0,0,1,.317-1.269,5.375,5.375,0,0,0,.317-1.9,4.019,4.019,0,0,1,.423-1.164,0.707,0.707,0,0,1,.635-0.317,9.06,9.06,0,0,1,3.174.423h0ZM93.149,20.3a3.4,3.4,0,0,0-.846,1.9,21.393,21.393,0,0,0-.212,3.385,19.671,19.671,0,0,1-.212,3.28,13.01,13.01,0,0,0-.212,1.375q-0.427.426,0.635,4.126a20.035,20.035,0,0,0,1.9,4.972,4.837,4.837,0,0,0,3.6,1.9q2.961,0,6.559-4.02a26.234,26.234,0,0,0,2.751-4.338,9.6,9.6,0,0,0,.846-4.126q0-3.809-1.481-5.607T100.555,20.3a10.9,10.9,0,0,0-4.444-.846,4.135,4.135,0,0,0-2.962.846h0Zm27.083-2.751a4.071,4.071,0,0,0-2.115.635v1.058a32.273,32.273,0,0,1,5.289.423,26.451,26.451,0,0,1,4.126.317,21.908,21.908,0,0,0,3.28.317q3.174,0,3.174.423,0.422,0.426-.106,4.655a42.322,42.322,0,0,1-1.375,6.982,13.765,13.765,0,0,0-1.058,4.867q-0.428,3.809-.635,5.713a10.427,10.427,0,0,0-.106,2.433,0.98,0.98,0,0,0,.741.741q1.691,1.269,1.692-.212l-0.211-1.27a62.408,62.408,0,0,1,.529-6.982,49.608,49.608,0,0,1,1.163-6.771l1.482-7.406a13.508,13.508,0,0,0,.846-3.809,1.694,1.694,0,0,0-.212-1.058,15.079,15.079,0,0,1-1.8-.212,29.894,29.894,0,0,0-4.126-.212A25.881,25.881,0,0,1,127,17.87q-2.117-.317-2.539-0.317a4.727,4.727,0,0,0-2.116-.423,7,7,0,0,0-2.116.423h0Zm39.779-1.481c-0.284-.7-0.74-0.7-1.375,0A19.127,19.127,0,0,0,156.2,20.3q-0.847,2.331-1.481,3.914c-0.423,1.058-.707,1.8-0.846,2.222a3.387,3.387,0,0,0-.423,1.481,13.939,13.939,0,0,1-1.164,3.385q-1.166,2.752-2.645,5.5-1.695,3.387-2.645,5.819a24,24,0,0,0-1.163,3.491,2.063,2.063,0,0,0,1.481.423,1.321,1.321,0,0,0,.74-0.212,1.8,1.8,0,0,0,.529-1.058,14.472,14.472,0,0,1,.952-2.01,8.653,8.653,0,0,0,.953-2.645q0.635-1.478,1.9-4.338a48.692,48.692,0,0,0,2.327-6.665,19.842,19.842,0,0,0,1.481-3.6q0.844-2.539,1.482-4.232,2.538-4.443,2.539-5.29Zm17.35,6.771A11.6,11.6,0,0,1,181.17,23.9a5.685,5.685,0,0,1,1.9,2.116,5.273,5.273,0,0,1,.635,2.328,16.628,16.628,0,0,1-1.693,5.078A12.538,12.538,0,0,1,179.16,36.6q-2.013,1.7-2.857,1.693l-1.692-1.058a11.439,11.439,0,0,1-1.8-4.655,13.782,13.782,0,0,1-.317-5.5,4.081,4.081,0,0,1,.317-1.269,5.365,5.365,0,0,0,.318-1.9,4,4,0,0,1,.423-1.164,0.707,0.707,0,0,1,.635-0.317,9.054,9.054,0,0,1,3.173.423h0ZM171.437,20.3a3.406,3.406,0,0,0-.847,1.9,21.416,21.416,0,0,0-.211,3.385,19.64,19.64,0,0,1-.212,3.28,12.984,12.984,0,0,0-.211,1.375q-0.427.426,0.634,4.126a20.033,20.033,0,0,0,1.905,4.972,4.836,4.836,0,0,0,3.6,1.9q2.961,0,6.559-4.02a26.3,26.3,0,0,0,2.751-4.338,9.6,9.6,0,0,0,.846-4.126q0-3.809-1.481-5.607T178.842,20.3a10.89,10.89,0,0,0-4.443-.846,4.134,4.134,0,0,0-2.962.846h0Zm26.872-4.443a15.106,15.106,0,0,1-.318,2.539,20.858,20.858,0,0,0-.317,3.809q-0.213,1.483-.423,3.809a7.722,7.722,0,0,1-.635,2.962,4.486,4.486,0,0,0,.529,2.222,1.56,1.56,0,0,0,1.375.952,3.226,3.226,0,0,0,1.27-.423h1.692a10.649,10.649,0,0,1,2.539-1.058,13.678,13.678,0,0,1,4.021-.846,2.226,2.226,0,0,1,1.269.212,8.391,8.391,0,0,1,2.539.212q0.422,0.213.635,1.9a5.576,5.576,0,0,1-.952,4.232,8.536,8.536,0,0,1-3.7,3.174,9.621,9.621,0,0,1-3.6,1.27,33.973,33.973,0,0,1-4.337.529q-2.014.109-1.587-.106a2.291,2.291,0,0,0-.635-1.693,0.936,0.936,0,0,0-1.058-1.058,4.253,4.253,0,0,0,.635,4.232A1.658,1.658,0,0,0,198.943,44a7.828,7.828,0,0,0,1.905-.212,32.912,32.912,0,0,0,6.03-1.058,8.473,8.473,0,0,0,3.491-2.116q5.079-3.809,5.078-7.829a7.518,7.518,0,0,0-.211-2.116q-0.849-3.382-5.713-3.385a35.261,35.261,0,0,0-8.041,1.27,2.535,2.535,0,0,1-1.8-.106q-0.318-.317-0.317-3.068,0.422-3.6.952-4.232t3.279-.635a18.093,18.093,0,0,1,3.068.317,21.268,21.268,0,0,0,3.7.317,24.81,24.81,0,0,0,4.867.423,1.914,1.914,0,0,0,.529-1.058,1.02,1.02,0,0,0-.529-1.058q-0.849-1.478-9.522-1.481h-4.866V15.86c0-1.408-.354-2.116-1.058-2.116a1.043,1.043,0,0,0-.952.529,5.089,5.089,0,0,0-.529,1.587h0Z"/>
</svg>
