<svg xmlns="http://www.w3.org/2000/svg" width="600" height="350" viewBox="0 0 600 350">
  <defs>
    <style>
      .cls-1 {
        fill: #fff;
        fill-rule: evenodd;
      }
    </style>
  </defs>
  <path id="珍典" class="cls-1" d="M59.4,152.2H30.6a65.3,65.3,0,0,1-15-1.5l5.4,12a36.251,36.251,0,0,1,12.6-2.1H59.4v73.2L9.3,244.9q5.1,8.7,10.2,16.35t5.7,8.4a2.171,2.171,0,0,0,1.8.75q1.2,0,4.05-2.1T71.1,249.4l62.1-27.9-2.1-4.5L84.9,227.8V160.6h34.8q-5.1,6-7.8,8.7l4.5,3.9q52.5-40.8,85.2-112.8,15,50.4,33.9,73.95t23.7,23.55a5.2,5.2,0,0,0,3-1.5q8.1-7.2,14.7-8.85a61.9,61.9,0,0,1,16.5-1.35l0.6-4.8q-31.2-12.3-51.3-32.7t-36.6-57q1.5-2.1,7.8-4.35t6.3-4.05q0-1.2-6.75-4.5T185.4,27.1q-4.5,27-21.45,62.85A342,342,0,0,1,124.5,154.6a72.72,72.72,0,0,0-5.85-9.15q-4.95-7.046-6.6-8.4a5.573,5.573,0,0,0-3.6-1.35q-1.954,0-4.05,2.7L94.2,152.2H84.9V78.7h51.6q4.2,0,4.2-2.55T129.6,61.6q-11.1-12-13.8-12-1.5,0-3.9,3.3L99,70.6H23.7a65.292,65.292,0,0,1-15-1.5l5.4,11.4q4.5-1.8,12.6-1.8H59.4v73.5Zm105.15,9.9Q151.2,177.4,128.1,196.9l2.7,3.9q18-9.9,34.2-20.7t33.6-28.2a50.469,50.469,0,0,1,8.4-7.2,13.726,13.726,0,0,1,7.2-1.8h4.2a6.713,6.713,0,0,0,3.75-.9,2.757,2.757,0,0,0,1.35-2.4q0-5.7-27.6-21.9Q177.9,146.8,164.55,162.1ZM132,241.6l2.1,4.5A180.428,180.428,0,0,0,175.95,229q19.646-11.1,51.75-40.5,5.4-4.8,8.1-6.9a8.8,8.8,0,0,1,5.4-2.1l2.1,0.3c2.4,0,3.6-.5,3.6-1.5q0-3.6-26.1-20.1-29.7,48.6-88.8,83.4h0Zm60.6,13.2q-31.2,21-89.7,46.8l1.2,5.4q39-9.3,83.55-31.2t64.95-39.6q8.1-6.6,10.95-8.1t8.7-1.5q5.85,0,5.85-1.95t-7.35-9.9A224.532,224.532,0,0,0,252.6,197.5Q223.8,233.8,192.6,254.8ZM360.3,65.2q0.9,12.9.9,25.5V206.8H321.9a65.3,65.3,0,0,1-15-1.5l6.3,12a48.661,48.661,0,0,1,12.9-1.5H587.4q6.6,0,6.6-2.1,0-3-11.25-14.7T568.5,187.3q-2.1,0-4.5,3.9l-10.5,15.6H542.1V99.1q14.1-7.5,14.1-10.95T542.85,75.1Q529.5,65.5,527.1,65.5t-4.5,3.3l-6.3,12H487.8V49q12.3-6.6,12.3-9.75T486.15,31q-13.95-5.1-22.05-7.2,0.6,11.7.6,26.7V80.8H436.5V49.9q10.8-6.6,10.8-9.6,0-5.1-34.5-15,0.6,11.7.6,26.7V80.8H393q-12.3-8.4-32.7-15.6h0Zm53.1,75.9H385.2V90.4h28.2v50.7Zm51.3,0H436.5V90.4h28.2v50.7Zm23.1,0V90.4h29.1v50.7H487.8Zm-23.1,65.7H436.5V150.1h28.2v56.7Zm-51.3-56.7v56.7H385.2V150.1h28.2Zm74.4,56.7V150.1h29.1v56.7H487.8Zm-174,91.8,2.4,5.1A525.278,525.278,0,0,0,372,277.9q28.8-15.3,46.5-27.9,7.8-5.7,12.45-5.7a32.932,32.932,0,0,0,5.85-.3,1.607,1.607,0,0,0,1.2-1.8q0-3.3-10.65-10.05T408.9,221.5q-30.3,37.8-95.1,77.1h0Zm145.5-69.9a243.8,243.8,0,0,1,41.25,29.25q19.35,16.945,31.05,33.15,4.8,6.6,7.05,8.25A10.219,10.219,0,0,0,544.8,301q3.9,0,7.35-5.55t3.45-13.95q0-19.5-26.7-32.7T462,223.6Z"/>
</svg>
