<svg xmlns="http://www.w3.org/2000/svg" width="168" height="60" viewBox="0 0 168 60">
  <defs>
    <style>
      .cls-1 {
        fill: #1f1f1f;
        fill-rule: evenodd;
      }
    </style>
  </defs>
  <path id="个内容" class="cls-1" d="M61.774,46.987V46.816a4.418,4.418,0,0,0,.732-2.148q0.147-1.343.2-2.832a16.621,16.621,0,0,1,.342-3.54,11.364,11.364,0,0,0,.2-2.173,10.446,10.446,0,0,1,.269-2.344A37.348,37.348,0,0,0,64.24,27.8a46.307,46.307,0,0,1,.513-5.2,4.513,4.513,0,0,0-1.245-.293,0.989,0.989,0,0,1-.562.122l-0.073.049q-0.684,3.711-1,7.08a74.153,74.153,0,0,1-1.343,8.618,11.868,11.868,0,0,0-.269,2.686,8.828,8.828,0,0,1-.537,3.735q0,0.708.024,1.331a4.684,4.684,0,0,0,.146,1.062l1.05,0.024ZM44.392,29.458a4.6,4.6,0,0,0,2.588-.708,11.535,11.535,0,0,0,2.612-2.417l1.587-1.807q4.858-5.273,9.351-11.011a12.367,12.367,0,0,1,2.124-2.1,12.009,12.009,0,0,0,3.052-3.394V7.681a7.852,7.852,0,0,0-1.758-.171,42.643,42.643,0,0,1-4.468,4.614,31.838,31.838,0,0,0-5.469,5.884,42.419,42.419,0,0,1-5.591,6.348l-1.733,1.709a12.949,12.949,0,0,1-3.467,2.808v0.513a10.258,10.258,0,0,0,1.172.073h0ZM66.218,17.5a32.155,32.155,0,0,0,7.031-1.025,19.91,19.91,0,0,1,3.54-.317h0.952a10.334,10.334,0,0,0,4.443-.928V14.932a8.54,8.54,0,0,0-1.294-.1,10.266,10.266,0,0,0-2.783.391H75.593a23.882,23.882,0,0,1-3.638.415,17.064,17.064,0,0,0-3.882.537q-0.562.123-1.147,0.22a3.746,3.746,0,0,0-1.831.537l-0.085.085a0.311,0.311,0,0,0-.061.147,1.324,1.324,0,0,0-.024.281q0.635,0.049,1.294.049h0Zm35.424,27.637a44.384,44.384,0,0,0,6.666-8.96,80,80,0,0,0,5.2-11.182q0.414-.976.927-2.393a11.759,11.759,0,0,0,.782-3.516,2.463,2.463,0,0,0-.367-1.416,1.889,1.889,0,0,0-1.452-1.392q-0.867-.049-0.94-0.049a11.224,11.224,0,0,0-3.162.5,27.07,27.07,0,0,0-2.8.964,4.349,4.349,0,0,1-1.172.366,3.419,3.419,0,0,0-1.343.561h-0.293a9.849,9.849,0,0,1,1.148-2.759,16.313,16.313,0,0,0,.732-1.514A8.53,8.53,0,0,0,105.915,13,4.383,4.383,0,0,1,106.5,11.2a5.286,5.286,0,0,0-.122-1.245,3.709,3.709,0,0,1-.476-0.024,1.038,1.038,0,0,1-.33-0.1,1.448,1.448,0,0,0-.83.366,2.186,2.186,0,0,0-.6.72,1.578,1.578,0,0,0-.183.671,1.13,1.13,0,0,0,.036.268,1.39,1.39,0,0,1,.037.342,5.759,5.759,0,0,1-.635,2.2q-0.83,1.709-1.758,3.394-0.635,1.123-.927,1.758a2.661,2.661,0,0,1-.489.122,5.436,5.436,0,0,0-1.269.208,3.22,3.22,0,0,0-.366.329l-0.244.293a0.819,0.819,0,0,1,.024.2,0.949,0.949,0,0,0,.024.207,0.778,0.778,0,0,0,.1.232,1.331,1.331,0,0,0,.684.171,1.52,1.52,0,0,0,.415-0.049v0.171h0.171a20.586,20.586,0,0,1-2.051,4.517q-1.758,3.076-1.758,4.272a1.683,1.683,0,0,0,.2.806l0.171,0.464a2.612,2.612,0,0,0,1.453-1.367,26.133,26.133,0,0,0,1.44-2.686q0.671-1.44,1.013-2.2V25.185l0.66-.024a11.543,11.543,0,0,1,2.441.293,12.518,12.518,0,0,1,3.87,1.233,4.18,4.18,0,0,0,1.989.72,2.86,2.86,0,0,0-1.672-1.77,16.19,16.19,0,0,0-3.369-1.343,12,12,0,0,0-3.137-.525l1.733-3.442,2.393-.83q5.322-1.88,5.883-2.026a3.781,3.781,0,0,1,.9-0.146,1.522,1.522,0,0,1,.732.171c0.114,0.049.216,0.094,0.3,0.134a0.74,0.74,0,0,1,.22.146c0.057,0.057.134,0.126,0.232,0.208a14.188,14.188,0,0,1-.9,5.127,48.741,48.741,0,0,1-2.515,5.225,14.168,14.168,0,0,0-.586,1.392,5.921,5.921,0,0,1-.683,1.587q-2.344,3.906-4.859,7.544-0.489.708-.952,1.465a12.993,12.993,0,0,1-1.9,2.637V43.13h-0.147q-0.146-.635-0.476-1.807t-0.647-2.2a5.792,5.792,0,0,0-.415-1.135,0.866,0.866,0,0,0-.561-0.11,0.6,0.6,0,0,0-.269.049H98.2q0,5.2,2.661,7.2h0.781ZM88,34.634a1.543,1.543,0,0,0,1.074-1,8.806,8.806,0,0,0,.44-1.685,10.163,10.163,0,0,1,.2-1.1,36.2,36.2,0,0,0,.952-4.773,30.794,30.794,0,0,0,.317-3.552,11.449,11.449,0,0,0-.464-3.442,5.115,5.115,0,0,0-1-.122l-0.44-.049a5.23,5.23,0,0,0-.244,1.514l0.1,1.05a5.117,5.117,0,0,1-.146,1.2,24.073,24.073,0,0,0-.488,3.54,23,23,0,0,1-.806,4.59,6.481,6.481,0,0,0-.415,1.977A1.878,1.878,0,0,0,87.531,34a0.607,0.607,0,0,0,.207.415,0.91,0.91,0,0,1,.256.22h0Zm58.3-11.645q0.953,0,.952-0.22a0.61,0.61,0,0,0-.1-0.244,1.306,1.306,0,0,0-.329-0.354,3.429,3.429,0,0,0-.4-0.281,7.176,7.176,0,0,1-.928-0.586,6.14,6.14,0,0,0-3.125-1.294l-0.171.342a1.893,1.893,0,0,0,.916,1.208,8.01,8.01,0,0,0,1.623.72,6.979,6.979,0,0,1,1.563.708h0Zm-21.07,10.84a2.748,2.748,0,0,0,1.246-.757,11.083,11.083,0,0,0,1.049-1.208,9.2,9.2,0,0,1,.855-1.013l1.172-1.172a31.257,31.257,0,0,0,5.176-5.981,16.442,16.442,0,0,1,1.977-2.588,4.723,4.723,0,0,0-.061-0.879,0.827,0.827,0,0,0-.4-0.513,31.376,31.376,0,0,0-2.71,3.32,45.584,45.584,0,0,1-3.1,3.711q-2.784,2.807-5.371,5.835a1.982,1.982,0,0,0,.17.952v0.293ZM132.6,20.644a9.048,9.048,0,0,0,.781-3.149,44.08,44.08,0,0,0,6.64-1.685q0.879-.244,1.648-0.476a5.515,5.515,0,0,1,1.6-.232,4.718,4.718,0,0,0,2.076-.415h1.074v0.122H146.3a2.156,2.156,0,0,1-.574.867q-0.354.306-.769,0.6a2.23,2.23,0,0,0-1.294,1.807,1.405,1.405,0,0,1-.049.391l0.293,0.415v0.024q1.855-.415,3.809-3.052l0.928-1.05a3.136,3.136,0,0,0-.135-0.464q-0.061-.147-0.207-0.464a9.927,9.927,0,0,0-2.417-.293,26.836,26.836,0,0,0-7.764,1.733q-0.732.171-1.538,0.293a6.866,6.866,0,0,0-2.563.781,1.5,1.5,0,0,1-.293-0.024l-0.074-.049H133.6l-0.048-.244a1.133,1.133,0,0,0,.268-0.708,1.154,1.154,0,0,0-.171-0.586,4.785,4.785,0,0,0-.927-1.2l-0.245-.317a1.034,1.034,0,0,0-.549.134,1.008,1.008,0,0,1-.256.159q-0.049.489-.049,2.051l0.049,1.074v1.929a2.906,2.906,0,0,0,.293,1.563l0.1,0.2a0.143,0.143,0,0,1,.1.024,0.585,0.585,0,0,0,.11.073,0.905,0.905,0,0,1,.1.061l0.036,0.037a0.07,0.07,0,0,0,.049.024,0.706,0.706,0,0,1,.147.049h0Zm7.861-8.472a5.39,5.39,0,0,0-.379-1.611,14.913,14.913,0,0,0-.793-1.782,8.576,8.576,0,0,0-.708-1.172V7.778h-1.074a1.5,1.5,0,0,0-.122.586,0.58,0.58,0,0,0,.122.342,5.728,5.728,0,0,0,1.538,2.637,9.689,9.689,0,0,1,.635.83h0.781Zm-15.064,30a2.381,2.381,0,0,0,1.331-.818,8.454,8.454,0,0,0,.964-1.4,22.981,22.981,0,0,1,3.272-3.98,27.821,27.821,0,0,0,3.686-4.663q9.643,0.806,20.288.806h1.075q0.879,0.049,2.368.232t2.368,0.232q0.879,0.049,1.1.049a3.285,3.285,0,0,0,1.709-.342H163.9c-0.032-.163-0.057-0.273-0.073-0.33a1.439,1.439,0,0,0-.061-0.171,0.383,0.383,0,0,1-.037-0.134q-1.709-.293-3.564-0.464a31.361,31.361,0,0,1-3.98-.488,20.454,20.454,0,0,0-2.685-.171l-1.636.024-1.123.049a9.762,9.762,0,0,1-1.294-.073,12.172,12.172,0,0,0-1.562-.1,23.478,23.478,0,0,0-2.71.171q-1.271.122-2.32,0.122a10.937,10.937,0,0,1-2.221-.2H135.6a14.507,14.507,0,0,1,3.028-3.686l0.879-1a3.738,3.738,0,0,0-.122-0.806h-0.806a5.412,5.412,0,0,1-.964.964,4.853,4.853,0,0,0-.916.916q-2.393,3.2-5.029,6.128a6.924,6.924,0,0,1-1,.9,6.631,6.631,0,0,0-1.05.977q-0.635.806-1.294,1.538a15.5,15.5,0,0,0-2.344,3.271,7.487,7.487,0,0,1-.927,1.465,3.281,3.281,0,0,0,.122.623c0.032,0.073.061,0.134,0.085,0.183a0.7,0.7,0,0,0,.134.171h0Zm10.2,6.738c0.033-.228.065-0.492,0.1-0.794s0.069-.578.11-0.83a0.89,0.89,0,0,1,.256-0.549,3.715,3.715,0,0,1,1.453-.6q0.939-.208,2.051-0.354t2.112-.354a4.888,4.888,0,0,0,1.586-.574l0.342-.171V44.228a5.341,5.341,0,0,0-.757-0.049,2.976,2.976,0,0,0-1.586.342H141.1a15.608,15.608,0,0,1,2.685-2.515,2.132,2.132,0,0,0-.183-1.05,2.015,2.015,0,0,0-.439-0.5,3.651,3.651,0,0,1-.5-0.5l-2.515-.122a10.34,10.34,0,0,0-1.171.317,11.277,11.277,0,0,1-1.807.439,13.355,13.355,0,0,1,.464-3.149V36.807l-0.293-.122a1.585,1.585,0,0,0-1.477.916,7.54,7.54,0,0,0-.55,1.941,12.783,12.783,0,0,1-.317,1.538,4.385,4.385,0,0,1-.464.635,1.427,1.427,0,0,0-.512.952,1.4,1.4,0,0,0,.085.427,1.436,1.436,0,0,1,.085.33q-0.171,1-.317,1.636a5.126,5.126,0,0,0-.146,1.147,3.07,3.07,0,0,0,.268,1.294,1.964,1.964,0,0,0,1.294,1.245,0.265,0.265,0,0,0,.049.073,0.186,0.186,0,0,0,.049.037,0.108,0.108,0,0,0,.049.012,0.984,0.984,0,0,1,.17.049h0Zm0.464-4.053a6.658,6.658,0,0,0,.305-1.221,7.184,7.184,0,0,1,.33-1.294l0.415-.122a9.024,9.024,0,0,0,3.027-1.025h1.246v0.171a7.762,7.762,0,0,0-1.087,1.05,5.637,5.637,0,0,1-1.086.989,6.1,6.1,0,0,1-1.294.671,5.69,5.69,0,0,0-1.392.781h-0.464Z"/>
  <path id="_2" data-name="2" class="cls-1" d="M9.751,40.221a14.676,14.676,0,0,0,5.157-1.64q1.772-.873,8.173-3.491l4.867-2.036a13.268,13.268,0,0,1,1.349-.5q3.941-1.27,4.576-2.539h0.185l-0.079-.238-0.106-.079a0.5,0.5,0,0,0-.264-0.053,16.213,16.213,0,0,0-3.491,1.164l-1.666.741q-3.227,1.508-12.087,5.263a16.706,16.706,0,0,1-1.666.582,8.16,8.16,0,0,0-2.909,1.27H11.1q0.9-2.672,5.078-7.67l0.5-.661a8.414,8.414,0,0,0,1.137-2.169,7.636,7.636,0,0,1,1.269-2.248q0-2.433-1.3-2.87a8.821,8.821,0,0,0-2.83-.436q-0.688,0-1.508.079a10.243,10.243,0,0,1-3.174.82,14.675,14.675,0,0,1-2.486.291,0.6,0.6,0,0,1-.45-0.106,10.085,10.085,0,0,1-1.19,1.058,2.39,2.39,0,0,1,.066.423,0.326,0.326,0,0,0,.159.291,0.872,0.872,0,0,1,.278.265q0.635-.132,1.825-0.5,2.063-.661,3.8-1.031a13.68,13.68,0,0,1,2.552-.37,3.6,3.6,0,0,1,1.719.37l0.5,0.185A9.188,9.188,0,0,1,15.5,28.637a35.579,35.579,0,0,1-2.9,3.861q-0.873,1.031-1.481,1.878A10.994,10.994,0,0,0,10.1,36.121a10.137,10.137,0,0,1-1.4,2.222,2.451,2.451,0,0,0,.185,1.137,2.6,2.6,0,0,0,.873.74h0Z"/>
</svg>
