<svg xmlns="http://www.w3.org/2000/svg" width="690" height="68" viewBox="0 0 690 68">
  <defs>
    <style>
      .cls-1 {
        fill: #1f1f1f;
        fill-rule: evenodd;
      }
    </style>
  </defs>
  <path id="如果顺路的话_咱们可以边走边聊" data-name="如果顺路的话,咱们可以边走边聊" class="cls-1" d="M15.316,48.271a41.927,41.927,0,0,0,5.151-7.08q0.244-.391.5-0.769t0.549-.745a6.187,6.187,0,0,0,1.025-1.807q0.9,0.22,1.672.427t1.465,0.354a7.039,7.039,0,0,0,1.453.147l0.9-.049a3.933,3.933,0,0,1,1.733.366h0.366a2.184,2.184,0,0,0,.879-0.122h0.171a1.014,1.014,0,0,0-.159-0.391q-0.086-.1-0.183-0.22l-4.468-1.172a15.183,15.183,0,0,0-2.905-.44,13.435,13.435,0,0,1,1.88-3.589,26.514,26.514,0,0,0,1.441-2.344,37.462,37.462,0,0,1,4.028-1.221,22.678,22.678,0,0,0,5.859-2.1,1.046,1.046,0,0,0-.049-0.366c-0.033-.081-0.061-0.15-0.085-0.208a1.744,1.744,0,0,0-.086-0.171,0.673,0.673,0,0,1-.073-0.208,8.281,8.281,0,0,0-1.44.464,8.735,8.735,0,0,1-3.149.708,7.887,7.887,0,0,0-3.3.879H28.207a4.052,4.052,0,0,1,.757-0.964,3.146,3.146,0,0,0,.635-0.769l0.024-.146a3.891,3.891,0,0,1,.024-0.4,3.035,3.035,0,0,1,.073-0.427,1.351,1.351,0,0,0,.049-0.269,0.621,0.621,0,0,0-.183-0.134,0.241,0.241,0,0,1-.11-0.207,2.943,2.943,0,0,0-.44.024,1.57,1.57,0,0,1-.256.024,0.807,0.807,0,0,0-.232.037,3.91,3.91,0,0,1-.513.085,5.694,5.694,0,0,1-.513,1.257,15.182,15.182,0,0,1-.879,1.465,6.312,6.312,0,0,1-.83,1.038,7.2,7.2,0,0,1-2.966.952,7.214,7.214,0,0,0-2.966.952H19.711a32.744,32.744,0,0,1,2.93-8.936,15.052,15.052,0,0,0,.708-1.782,7,7,0,0,0,.293-2.148,2.844,2.844,0,0,1-.6-0.134,1.135,1.135,0,0,0-.354-0.085l-0.146.049A3.21,3.21,0,0,0,21.3,20.39q-0.171.586-.342,1.025-2.71,6.275-2.93,8.276a4.824,4.824,0,0,1-.488,1.9,4.1,4.1,0,0,1-1.733.537,6.241,6.241,0,0,0-1.123.244q-1.221.39-2.612,0.708a25.357,25.357,0,0,0-4.932,1.636,2.337,2.337,0,0,0,.244.574,2.727,2.727,0,0,1,.22.4,22.126,22.126,0,0,0,4.785-1.1,13.893,13.893,0,0,1,1.453-.464,9.852,9.852,0,0,1,1.306-.244,4.308,4.308,0,0,0,1.88-.537,1.336,1.336,0,0,1,.635,1.123A2.864,2.864,0,0,0,19.2,36.442a6.224,6.224,0,0,0,1.587.794,18.379,18.379,0,0,1-3.247,5.249l-1.27,1.66a7.63,7.63,0,0,0-.708,1.221A6.278,6.278,0,0,1,14.511,47q0.049,0.342.061,0.586a0.772,0.772,0,0,0,.452.513,0.106,0.106,0,0,0,.012.049,0.062,0.062,0,0,0,.061.024,0.063,0.063,0,0,1,.061.024,0.4,0.4,0,0,0,.159.073h0Zm6.152-12.378a2.613,2.613,0,0,1-1.514-.83l-0.415-.342L19.467,34.4a2.805,2.805,0,0,1-.22-0.854,1.157,1.157,0,0,1,.183-0.562,1.5,1.5,0,0,1,.916-0.525q0.732-.208,1.611-0.378a7.09,7.09,0,0,0,2.148-.635h0.464a11.406,11.406,0,0,1-1.208,2.356,13.752,13.752,0,0,1-1.6,2.063,1.544,1.544,0,0,1-.293.024h0Zm15.674-.366q6.909-.416,9.595-1.709l0.147-.342a3.679,3.679,0,0,0-1.025-.122,3.271,3.271,0,0,0-1.636.293h-1.44V33.476A9.161,9.161,0,0,0,44.76,32.6q2.856-1.587,3.394-2.905a1.045,1.045,0,0,0,.073-0.366,0.9,0.9,0,0,0-.61-0.806,4.539,4.539,0,0,0-1.648-.391q-0.794-.024-1.038-0.024a13.082,13.082,0,0,0-2.148.171,5.216,5.216,0,0,0-1.709.513H40.78V28.4a2.53,2.53,0,0,1,.293-1.343,2.031,2.031,0,0,0-.171-0.61l-1.245-.171a20.9,20.9,0,0,0-2.344,5.176,7.51,7.51,0,0,0-.22,1.05,3.4,3.4,0,0,1-.415,1.465,2.8,2.8,0,0,0,.1.891,3.708,3.708,0,0,0,.269.549Zm1.88-2.344A9.473,9.473,0,0,1,40.267,30.2a2.146,2.146,0,0,1,1.025-.427,11.668,11.668,0,0,1,1.245-.11h0.22a4.158,4.158,0,0,0,1.929-.439H46.1V29.4q-1.343.732-2.637,1.611a10.634,10.634,0,0,1-2.637,1.465,4.373,4.373,0,0,0-1.465.708H39.022ZM54.11,53.618a5.346,5.346,0,0,0,2.344-.684,15.28,15.28,0,0,0,1.9-1.318q0.537-.464,1.074-0.855Q62,49,64.388,47.123q1.342-1.1,2.759-2.173a6.762,6.762,0,0,0,.94-0.928,9.718,9.718,0,0,1,.94-0.977l0.757-.537a10.367,10.367,0,0,0,2.686-2.417h0.171q0,0.61-.11,1.721T72.25,43.974a4.626,4.626,0,0,1-.415,1.465l-0.049.684a3.481,3.481,0,0,0,.147,1.05,1.078,1.078,0,0,0,.879.9l0.024,0.1h0.049a0.172,0.172,0,0,0,.061.049c0.008,0,.061.008,0.159,0.024a15.119,15.119,0,0,0,.83-4.81q0.122-1.807.391-3.442a4.881,4.881,0,0,1,1.147-2.588V36.772l-0.781.171V36.259a3.58,3.58,0,0,1,.171-1.489V33.5q4.981-1.245,9.717-2.832a20.06,20.06,0,0,1,2.1-.561,12.875,12.875,0,0,0,3.394-1.172,1.228,1.228,0,0,0-.977-0.464,5.414,5.414,0,0,0-1.392.2,12.988,12.988,0,0,0-1.245.391l-0.171.049a40.119,40.119,0,0,1-3.931,1.05A45.737,45.737,0,0,0,77.67,31.45l-0.635.244a5.554,5.554,0,0,1-2.051.562q0-.586.037-1.685t0.122-2.124a3.226,3.226,0,0,1,.33-1.392V25.468l0.439-.171a8.442,8.442,0,0,0,.952-0.354q0.537-.232.964-0.378a1.439,1.439,0,0,0,.452-0.2l0.171-.464a4.12,4.12,0,0,0-1.245-.171,2.043,2.043,0,0,0-1.1.342H75.619c0.016-.162.024-0.309,0.024-0.439a0.517,0.517,0,0,1,.122-0.342,1.87,1.87,0,0,1,.427-1.428,3.158,3.158,0,0,1,1.038-.6,5.851,5.851,0,0,0,.757-0.342V20.61a3.36,3.36,0,0,0-.879-0.171,1.968,1.968,0,0,0-.879.171H75.936a4.719,4.719,0,0,0,.342-1.855,1.6,1.6,0,0,0-.342-1.123V17.289A9.831,9.831,0,0,1,78.085,17h0.952q2.344,0,3.1,1.465a2.394,2.394,0,0,0,.562.708l0.146,2.222a7.363,7.363,0,0,1-.952,2.051A8.622,8.622,0,0,0,81.137,25H80.795a0.484,0.484,0,0,1-.305-0.085q-0.11-.085-0.305-0.207a0.637,0.637,0,0,1-.293.293,2.908,2.908,0,0,0,.1.916q0.1,0.256.2,0.5a3.314,3.314,0,0,0,3.064-2.283,10.814,10.814,0,0,0,.647-3.064,6.236,6.236,0,0,0-.757-2.979,3.825,3.825,0,0,0-2.82-1.917q-1.575-.11-2.063-0.11a16.285,16.285,0,0,0-4.443.635,16.74,16.74,0,0,0-4.321,1.709l-0.171.464,0.171,0.1a1.373,1.373,0,0,1,.464.2,12.391,12.391,0,0,0,1.636-.61,16.432,16.432,0,0,1,3.271-1.1v0.171h0.122l0.024,0.244v1.1a1.9,1.9,0,0,1-.147.83,5.49,5.49,0,0,1-.171,1.123q-0.855.22-1.636,0.464a9.673,9.673,0,0,1-2.856.684,3.175,3.175,0,0,1-1.514-.391,1.669,1.669,0,0,1-.757.806,1.789,1.789,0,0,0,.452.708,5.737,5.737,0,0,0,.647.537l2.515-.659a18.613,18.613,0,0,0,2.808-.879H74.52L74.349,24.54a29.741,29.741,0,0,0-4.907,1.245,9.58,9.58,0,0,1-2.551.537,3.575,3.575,0,0,0-1.453.268H65.1a1.855,1.855,0,0,1,.061.281,0.322,0.322,0,0,0,.061.171,0.642,0.642,0,0,1,.085.146,0.4,0.4,0,0,0,.134.159L66.391,27.4a11.066,11.066,0,0,0,3.931-.757,19.276,19.276,0,0,1,3.906-.855,16.523,16.523,0,0,0-.122,1.9q-0.123,4.053-.684,5.029a14.464,14.464,0,0,1-4.272,1.294q-1.416.293-2.344,0.586-2.1.659-4.321,1.221a54.058,54.058,0,0,0-5.4,1.587,32.11,32.11,0,0,1-4.565,1.587l0.171,0.464a11.629,11.629,0,0,0,3.979-.977,30.031,30.031,0,0,1,5.786-1.587,39.694,39.694,0,0,0,5.151-1.367l0.586-.22a20.516,20.516,0,0,1,5.225-1.343q0,0.879-.061,1.868a3.569,3.569,0,0,1-.4,1.575q-0.2,2.1-3.979,4.468-0.415.342-.732,0.562Q66.1,44.1,63.949,45.9,61.7,47.88,59.335,49.675a31.21,31.21,0,0,1-5.1,3.137q-0.073.39-.122,0.806h0Zm12.06-27.368a0.678,0.678,0,0,0,.342-0.171,3.363,3.363,0,0,0,.464-1.648,12.672,12.672,0,0,1,.757-3.064,16.124,16.124,0,0,0,1.123-5,1.256,1.256,0,0,0-1,.4,2.391,2.391,0,0,0-.354.842,7.546,7.546,0,0,1-.281.952q-0.586,1.489-1.111,3.271a13.424,13.424,0,0,0-.549,3.638,2.136,2.136,0,0,1,.488.781h0.122ZM94.882,44.316a1.631,1.631,0,0,0,.708-0.122h0.122a1.437,1.437,0,0,0-.134-0.427q-0.061-.086-0.159-0.207a15.275,15.275,0,0,0-3.98-.83,22.231,22.231,0,0,1-3.272-.586q-0.464-.22-4.687-1.27a23.3,23.3,0,0,0-4.565-.635l-0.171,1.1a8.523,8.523,0,0,1,2.344.537l0.806,0.269a30.558,30.558,0,0,0,3.467.708q1.465,0.2,2.747.488a11.523,11.523,0,0,0,2.576.293h0.806a7.5,7.5,0,0,1,3.3.684h0.1Zm11.523-13.33a3.049,3.049,0,0,0,.757-0.171,9.46,9.46,0,0,0,.146-1.172,4.8,4.8,0,0,1,.66-2.759,2.3,2.3,0,0,0-.721-0.574,3.179,3.179,0,0,0-.842-0.354l-0.146.171a3.551,3.551,0,0,1-.464.586,9.644,9.644,0,0,1,.366,2.979l0.1,1.123h0.146v0.171Zm14.917,21.021q1.148-.318,1.929-3.931l0.415-1.392,0.635-1.758q1.756-4.81,3.784-9.546l0.61-1.343a11.6,11.6,0,0,0,1.441-3.857,1.213,1.213,0,0,0-.232-0.024,0.34,0.34,0,0,1-.232-0.122,1.737,1.737,0,0,0-1.27.989,12.282,12.282,0,0,0-.757,1.794,4.481,4.481,0,0,1-.366.977q-2.05,4.809-3.906,9.717Q122.2,46.44,121.713,48a9.38,9.38,0,0,0-.586,2.759,2.022,2.022,0,0,0,.2.952v0.293Zm-9.253-6.567A53.142,53.142,0,0,0,113,36.931a50.326,50.326,0,0,1,.952-8.46,15.8,15.8,0,0,0,.244-2.441,14.7,14.7,0,0,1,.22-2.295l0.049-.708a4.678,4.678,0,0,0-.11-1.025,3.775,3.775,0,0,1-.11-0.781,2.541,2.541,0,0,0-.305-0.061,1.925,1.925,0,0,0-.208-0.012,0.6,0.6,0,0,1-.268-0.1l-0.073.073-0.037.037a0.051,0.051,0,0,1-.037.012,0.684,0.684,0,0,0-.146.049l-1.587,16.5a20.842,20.842,0,0,0-.562,4.785,6.56,6.56,0,0,0,.562,2.93h0.488Zm41.48,4.688a2.42,2.42,0,0,0,.927-0.171q-0.415-1-4.321-1.929a14.968,14.968,0,0,1-1.807-.586q-3.272-1.343-6.567-2.637a80.475,80.475,0,0,1-10.059-4.3q-3.222-1.9-4.443-1.978v0.293a0.414,0.414,0,0,0-.073.2,0.757,0.757,0,0,0,.037.22,1.386,1.386,0,0,1,.036.366q4.663,1.9,9.351,4.028,3.809,1.733,7.617,3.345,3.466,1.392,6.909,2.515a4.643,4.643,0,0,0,1,.22,3.648,3.648,0,0,1,1.392.415h0Zm-32.227-8.154a35.138,35.138,0,0,1,2.051-9.888l0.293-.928a9.7,9.7,0,0,0,.806-3.027,19.455,19.455,0,0,1,5.737-1.172,4.716,4.716,0,0,1,2.612.708c0.1,0.1.183,0.179,0.256,0.244a1.1,1.1,0,0,1,.184.561,1.456,1.456,0,0,1,.1.537,3.2,3.2,0,0,1-.512,1.563A11.764,11.764,0,0,1,131,32.951a12.651,12.651,0,0,1-1.672,1.477,1.039,1.039,0,0,1-.171.61c0.032,0.2.057,0.35,0.073,0.464a1.339,1.339,0,0,0,.1.342,5.475,5.475,0,0,0,3-1.929,14.263,14.263,0,0,0,2.026-2.93,3.957,3.957,0,0,0,.427-1.294,7.967,7.967,0,0,0,.086-0.855,2.063,2.063,0,0,0-.342-1.172,3.107,3.107,0,0,0-2.234-1.392q-1.257-.1-2.087-0.1a16.707,16.707,0,0,0-2.136.146,17.106,17.106,0,0,1-2.185.146l-0.782-.049,1.416-4.395a9.2,9.2,0,0,1,1.123-1.733q0.513-.659.9-1.245a3.27,3.27,0,0,0,.28-0.806,2.195,2.195,0,0,1,.33-0.781,1.745,1.745,0,0,0-.757-1.7,2.934,2.934,0,0,0-1.343-.4,4.061,4.061,0,0,0-.488.037,3.222,3.222,0,0,0-.5.1,1.09,1.09,0,0,0-.354.171,2.134,2.134,0,0,1-.44.232l0.122,0.757h0.171v0.171a8.067,8.067,0,0,0,2.222-.293v0.122h0.122a7.3,7.3,0,0,1-1.807,3.784q-2.1,2.417-3.467,9.375-0.561,2.515-1.318,5.078-0.074.147-.683,2.222a12.475,12.475,0,0,0-.611,3.345,1.453,1.453,0,0,0,.22.879,1.5,1.5,0,0,0,.122.464ZM102.767,33.5a0.48,0.48,0,0,1,.22-0.049,1.82,1.82,0,0,0,.22-0.012,0.186,0.186,0,0,0,.146-0.1,0.36,0.36,0,0,0,.049-0.183,2.177,2.177,0,0,0-.085-0.5,3.149,3.149,0,0,1-.086-0.793,3.8,3.8,0,0,1,.061-0.647q0.061-.354.159-0.891A25.117,25.117,0,0,1,104.989,25a4.658,4.658,0,0,0-.1-0.5,0.71,0.71,0,0,0-.073-0.134h-0.781a13.466,13.466,0,0,0-1.05,2.295,14.364,14.364,0,0,0-1.221,4.834,2.986,2.986,0,0,0,.184,1.16,1.13,1.13,0,0,0,.524.6Zm71.314,15.405a1.167,1.167,0,0,0,.757-0.513,0.586,0.586,0,0,1,.366-0.415l0.757,0.171,0.171-.513a2.794,2.794,0,0,1,1.269-.293l0.025,0.171a0.428,0.428,0,0,0,.085.305,0.892,0.892,0,0,0,.195.146,0.409,0.409,0,0,0,.183.061,2.287,2.287,0,0,0,1.05-.928,3.328,3.328,0,0,1,.513-0.537,9.828,9.828,0,0,1,2.686-.928,18.227,18.227,0,0,0,2.331-.708,2.391,2.391,0,0,0,1.428-1.172,0.138,0.138,0,0,1,.049-0.1l0.025-.024,0.048-.22-0.293-.171a9.256,9.256,0,0,0-1.928.464,13.752,13.752,0,0,0-2.173.806H181.5a3.887,3.887,0,0,1,.512-1.05q0.44-.708.928-1.4t0.733-.989a2.321,2.321,0,0,0-.086-0.757,3.966,3.966,0,0,0-.378-0.659,9.466,9.466,0,0,0-2.124-.22,5.079,5.079,0,0,0-2.735.659h-0.341a1.28,1.28,0,0,1,.17-0.732q-0.024-.342-0.048-0.549a1.537,1.537,0,0,0-.122-0.427,1.7,1.7,0,0,0-1.38.574,3.461,3.461,0,0,0-.549,1.282L175.5,41.9a14.736,14.736,0,0,0-1.538,5.713,6.787,6.787,0,0,0,.122,1.294h0Zm1.587-2.515,1.562-4.541q0.245-.025.354-0.024a0.162,0.162,0,0,0,.122-0.024,0.252,0.252,0,0,0,.013-0.1V41.362a10.621,10.621,0,0,1,3.906-.757A4.789,4.789,0,0,1,181,42.18a18.667,18.667,0,0,1-1.184,1.868,11.051,11.051,0,0,1-1,1.245,3.292,3.292,0,0,1-1.513.586,3.462,3.462,0,0,0-1.465.513h-0.171Zm-6.1-10.522a4.376,4.376,0,0,0,2-1.27,22.98,22.98,0,0,0,2.283-2.49,24.5,24.5,0,0,0,1.5-2.051q5.4,0,11.817.439,3.882,0.22,7.519.342,1.026,0.049,2.515.244a33.971,33.971,0,0,0,4.077.342,3.253,3.253,0,0,0,1.416-.244h0.293a0.862,0.862,0,0,0-.122-0.317c-0.049-.065-0.1-0.134-0.146-0.208s-0.114-.167-0.2-0.281a33.866,33.866,0,0,0-6.2-.537h-1.367a39.925,39.925,0,0,1-6.714-.537,12.1,12.1,0,0,0-1.758-.122l-1.245.024a6.458,6.458,0,0,1-1.135-.1,6.788,6.788,0,0,0-1.184-.1,7.6,7.6,0,0,0-1.2.1,6.769,6.769,0,0,1-1.049.1,3.385,3.385,0,0,1-1.392-.244h-2.808a9.694,9.694,0,0,1,1.465-1.685A16.621,16.621,0,0,0,179.7,25.2a24.185,24.185,0,0,1,2.1-2.515,0.836,0.836,0,0,0-.354-0.647,1.424,1.424,0,0,1-.452-0.281,9.4,9.4,0,0,0-1.453.256,5.359,5.359,0,0,0-1.355.5h-0.317a6.783,6.783,0,0,1,1.88-3.076,14.758,14.758,0,0,0,1.123-1.465,1.5,1.5,0,0,0,.146-0.561,1.488,1.488,0,0,1,.147-0.562,1.669,1.669,0,0,0-.171-0.757,2.923,2.923,0,0,0-1.782,1.367,25.321,25.321,0,0,0-1.734,2.771,12.212,12.212,0,0,1-1.513,2.283,1.42,1.42,0,0,0,.244.586,2.4,2.4,0,0,0,.33.317q0.183,0.147.4,0.342l2.051-.635h0.464V23.3h-0.171a10.265,10.265,0,0,1-2.637,3.369,14.257,14.257,0,0,0-2.05,2.295l-3.955-.293v0.928a6.95,6.95,0,0,1,2.685.317,0.547,0.547,0,0,0,.171.049c0.032,0,.049.008,0.049,0.024a0.085,0.085,0,0,0,.073.073,11.847,11.847,0,0,0-2.38,2.454,12.546,12.546,0,0,0-1.844,3.064,0.079,0.079,0,0,1,.074.049V35.7ZM154.94,44.047a6.427,6.427,0,0,0,3.223-1.514,16.031,16.031,0,0,1,4-2.026,16.06,16.06,0,0,0,4.2-2.2,5.089,5.089,0,0,1,.977-0.732l0.171-.44h-0.171V36.967a5.806,5.806,0,0,0-2.93,1.2,11.765,11.765,0,0,1-2.966,1.343A8.013,8.013,0,0,0,158.7,40.9h-0.317q0.072-.415.158-1.086t0.232-1.379a4.092,4.092,0,0,1,.391-1.148A3.664,3.664,0,0,1,161,34.99a28.178,28.178,0,0,1,3.247-1.831l1.367-.732V32.109h-0.146V31.938a11.53,11.53,0,0,0-3.04,1,11.815,11.815,0,0,0-2.624,1.514h-0.171a25.888,25.888,0,0,1,.683-3.491,7.08,7.08,0,0,0,.2-1.758V28.837a3.437,3.437,0,0,1,.1-0.976,4.521,4.521,0,0,1,1.88-1.465,1.855,1.855,0,0,1,.464-0.244,1.094,1.094,0,0,0-.049-0.427,0.234,0.234,0,0,0-.219-0.085h-0.2a4.62,4.62,0,0,1,.806-1.111,6.253,6.253,0,0,0,.928-1.282,2.321,2.321,0,0,0,.317-1,1.411,1.411,0,0,0-1.416-1.416,13.053,13.053,0,0,0-1.685-.122,5.314,5.314,0,0,0-2.734.537h-0.781a1.354,1.354,0,0,1,.171-0.464,4.277,4.277,0,0,0,.293-1.343,3.163,3.163,0,0,0-.293-1,1.3,1.3,0,0,0-1,.61,3.774,3.774,0,0,0-.391,1.148l-0.22.757a28.341,28.341,0,0,0-1.757,7.715q0,1.685,1.025,2a3.62,3.62,0,0,1,.879-1.086,4.589,4.589,0,0,1,.952-0.549,4.953,4.953,0,0,0,1.416-.879h0.171a42.064,42.064,0,0,1-.83,5.371,34.762,34.762,0,0,0-.879,7.2,0.374,0.374,0,0,0,.207.049,0.363,0.363,0,0,1,.257.122l0.317,0.171-0.586.244a6.491,6.491,0,0,0-1.782,1h-0.293l0.293-5.347c-0.033-.082-0.077-0.179-0.134-0.293a2.44,2.44,0,0,1-.159-0.635h-1.269q-0.05,1.123-.11,2.344T154.135,40.6V41.24a4.393,4.393,0,0,1-.122.915,4.147,4.147,0,0,0-.123.794,0.813,0.813,0,0,0,.635.879Zm1.416-15.894q0.123-.708.232-1.648t0.281-1.9a4.255,4.255,0,0,1,.586-1.6V22.685l0.781,0.146V22.392q0.513-.1,1.331-0.305a14.264,14.264,0,0,1,1.4-.293,6.666,6.666,0,0,1,.83-0.085,1.907,1.907,0,0,1,.854.171h0.293a14.727,14.727,0,0,1-2.2,3.638,7.356,7.356,0,0,0-.781.635,0.874,0.874,0,0,0-.123.427,0.368,0.368,0,0,1-.219.33,3.861,3.861,0,0,1-1.38.6,3.868,3.868,0,0,0-1.428.647h-0.464Zm46.924-5.4a15.7,15.7,0,0,0,5.383-1.44,15.009,15.009,0,0,1,5.579-1.367V19.78h0.171V19.316a7.4,7.4,0,0,0-1.709-.171,3.455,3.455,0,0,1-1.465.464,6.634,6.634,0,0,0-1.123.207q-0.587.159-1.514,0.427a17.286,17.286,0,0,0-5.322,2.051h-0.171a0.355,0.355,0,0,0,.037.183c0.024,0.041.044,0.073,0.061,0.1a1.055,1.055,0,0,1,.073.183h0Zm11.182,18.213a1.678,1.678,0,0,0,.757-0.171,1.324,1.324,0,0,0,.854-0.793,3.442,3.442,0,0,0,.195-1.16,3.866,3.866,0,0,1,.342-1.611,0.652,0.652,0,0,1,.391-0.33,0.725,0.725,0,0,0,.39-0.623h-0.463a21.706,21.706,0,0,1,.39-2.441,17.581,17.581,0,0,0,.464-3.809,6.065,6.065,0,0,0-.854-3.1,6.878,6.878,0,0,0-1.343-.122,12.832,12.832,0,0,0-3.394.513,7.243,7.243,0,0,0-3.76,1.953h-0.122q0.586-3.1,1.246-6.2a2.335,2.335,0,0,1-.464-0.757l-0.074-.024a0.847,0.847,0,0,1-.122-0.1h-0.048V22.172a0.078,0.078,0,0,1-.074-0.049,1.734,1.734,0,0,0-.61,1,9.437,9.437,0,0,0-.281,1.465,10.968,10.968,0,0,1-.207,1.269,44.1,44.1,0,0,0-1.05,4.712q-0.292,1.807-.708,3.54a11.312,11.312,0,0,0-.171,2v0.415a5.242,5.242,0,0,1-.464,2.27,5.221,5.221,0,0,0,.171,1.074,1.25,1.25,0,0,0,1.038-.732,3.95,3.95,0,0,0,.256-1.318,4.3,4.3,0,0,1,.415-1.66,0.935,0.935,0,0,1,.464-0.1,2.465,2.465,0,0,1,.549.049,1.526,1.526,0,0,0,.33.049h0.1a27.033,27.033,0,0,1,3.37-1.66,12.025,12.025,0,0,1,3.881-.977l-0.1.586a6.407,6.407,0,0,1-.537,2.661,19.188,19.188,0,0,1-5.616,1.855,15.883,15.883,0,0,1-2.563.464v0.244a1.154,1.154,0,0,0,.024.22c0.016,0.081.037,0.163,0.061,0.244a1.336,1.336,0,0,1,.037.366,9.08,9.08,0,0,0,1.709-.293q1.245-.293,2.478-0.684A5.448,5.448,0,0,0,213,38.456a1.236,1.236,0,0,1,.293.72,1.348,1.348,0,0,0,.183.659,2.189,2.189,0,0,0,.476.586,2.232,2.232,0,0,1,.464.549h0.049Zm0.415-1.758a1.666,1.666,0,0,1-.635-1.05,1.269,1.269,0,0,0,.464-0.342,0.8,0.8,0,0,1,.342.293,0.8,0.8,0,0,1-.171.342v0.757Zm-7.544-3.687a2.372,2.372,0,0,1-.073-0.659,18.288,18.288,0,0,1,.463-2.979q0.318-1.44.416-2.27a8.077,8.077,0,0,0,3.344-.952,9.342,9.342,0,0,1,2.173-.806,2.42,2.42,0,0,0,1.05-.293,3.566,3.566,0,0,1,1.611.342v2.759a4.048,4.048,0,0,1-.464,1.709,2.133,2.133,0,0,1-1.074.317,8.671,8.671,0,0,0-2.417.83,15.426,15.426,0,0,1-5.029,1.538v0.464Zm26.074,0.293a1.548,1.548,0,0,0,.781-0.171h0.171V35.478h-0.171a1.4,1.4,0,0,0-.769-0.488,8.554,8.554,0,0,0-1.05-.2,7.582,7.582,0,0,1-1.159-.244q-1.489-.415-3.1-0.781-2.051-.464-3.979-1.05l-0.733.293a2.88,2.88,0,0,0,1.99,1.172q1.549,0.366,3.406.635a13.5,13.5,0,0,1,4.321,1h0.293Zm0.024,10.107a2.355,2.355,0,0,0,1.648-1.16A10.73,10.73,0,0,0,236,42.729a27.47,27.47,0,0,1,1.514-3.516,53.565,53.565,0,0,0,2.636-6.226,19.055,19.055,0,0,0,1.123-6.348V26.176a5.448,5.448,0,0,0-.451-0.708,5.429,5.429,0,0,1-.452-0.708,10.875,10.875,0,0,0-4.163-1.514q-2.6-.464-4.846-0.659H231.21a9.146,9.146,0,0,1,1.44-1.855,12.494,12.494,0,0,0,1.184-1.477,3.147,3.147,0,0,0,.525-1.819,2.4,2.4,0,0,1-.415.024,3.014,3.014,0,0,1-.513-0.024A9.831,9.831,0,0,1,231.979,19a11.719,11.719,0,0,0-1.38,1.392,3.421,3.421,0,0,0-.451.769,3.43,3.43,0,0,1-.476.794,1.812,1.812,0,0,0,1.306,1.55,9.632,9.632,0,0,0,2.453.378,15.708,15.708,0,0,1,2.2.244q1.659,0.513,3.3.928a3.054,3.054,0,0,1,.6.561,4.647,4.647,0,0,0,.5.537,18.183,18.183,0,0,1-1.086,6.433,40.767,40.767,0,0,1-2.478,5.408,1.728,1.728,0,0,1-.22.464,14.283,14.283,0,0,0-.781,1.88,10.536,10.536,0,0,1-1.563,3.076V43.73a4.7,4.7,0,0,1-.427-0.806,2.892,2.892,0,0,0-.647-0.9l-0.342-.171-0.073.073-0.037.037a0.049,0.049,0,0,1-.036.012,0.662,0.662,0,0,0-.147.049,4.836,4.836,0,0,0,.232,1.636,8.71,8.71,0,0,0,.5,1.135,9.838,9.838,0,0,1,.512,1.135h0ZM266.049,23.3a3.521,3.521,0,0,0-1.136-1.88,15.677,15.677,0,0,0-2.087-1.636,13.365,13.365,0,0,1-2.124-1.807l-0.635-.024-0.464.024a1.7,1.7,0,0,0,.306.806,2.3,2.3,0,0,0,.537.452,10.568,10.568,0,0,1,1.257,1.111q0.927,0.9,2.124,1.868a4.517,4.517,0,0,0,2.222,1.086h0ZM282.235,36.5a24.529,24.529,0,0,0,.2-3.223q0.1-1.684.195-3.125a5.116,5.116,0,0,1,.39-1.953,6.435,6.435,0,0,1,2.906-.83,14.884,14.884,0,0,0,1.806-.293,58.439,58.439,0,0,0,9.742-3.271V23.3h-0.489a5.736,5.736,0,0,0-2.807.684,13.633,13.633,0,0,1-3.614,1,16.171,16.171,0,0,0-3.637.977,16.811,16.811,0,0,1-3.907,1V26.445q0.049-.635.049-1.294a2.445,2.445,0,0,0-.146-1,4,4,0,0,1-.22-0.513H281.43l-0.123,3.76a69.7,69.7,0,0,0-8.789,2.368,12.594,12.594,0,0,1-1.733.366,6.749,6.749,0,0,0-2.832.879l-0.171.171,0.073,0.073,0.1,0.22,0.757,0.049a21.306,21.306,0,0,0,6.4-1.44,24.351,24.351,0,0,1,6.031-1.416q0,4.493-.464,5.322V34.7a2.038,2.038,0,0,0,.293,1.221,2.794,2.794,0,0,0,.634.586h0.635Zm-20.9,3.467a3.393,3.393,0,0,0,2.038-1.013,20.236,20.236,0,0,0,1.892-2.014,15.508,15.508,0,0,1,1.587-1.709V34.77q-1.879.342-4.614,3.491a0.222,0.222,0,0,1-.122.122h-0.171L262.24,36.8a12.947,12.947,0,0,1,1.148-4.517,3.454,3.454,0,0,0-.11-1.013,3.025,3.025,0,0,0-.33-0.671,0.8,0.8,0,0,0-.415-0.049,12.824,12.824,0,0,0-3.088.354,24.685,24.685,0,0,0-2.893.916,9.574,9.574,0,0,1-2.43.659,3.208,3.208,0,0,0-1.428.415H252.4v0.464a6.587,6.587,0,0,0,1.245.122,12.19,12.19,0,0,0,4.2-1.05,12.417,12.417,0,0,1,4.272-1.074,29.737,29.737,0,0,1-1.245,6.1,2.072,2.072,0,0,1-.171.464,2.769,2.769,0,0,0-.269.977,1.106,1.106,0,0,0,.11.476,0.654,0.654,0,0,0,.22.293,1.161,1.161,0,0,0,.232.1,1.219,1.219,0,0,1,.342.208h0Zm16.7-18.628a18.711,18.711,0,0,0,4.785-.586,3.258,3.258,0,0,0,2.1-1.221h0.146V19.194h-1.123a2.7,2.7,0,0,1-1.44.671,15.269,15.269,0,0,1-1.905.207,6.474,6.474,0,0,0-3.222.708l-0.464.171v0.293a4.716,4.716,0,0,0,1.123.1h0ZM276.742,47.05a1.153,1.153,0,0,0,.537-0.269,0.858,0.858,0,0,0,.171-0.354,1.892,1.892,0,0,1,.22-0.5,5.5,5.5,0,0,1,2-.537,12.237,12.237,0,0,0,1.77-.391l1.574-.488a60.137,60.137,0,0,0,6.47-2.368,0.587,0.587,0,0,1,.037-0.183c0.024-.073.052-0.159,0.085-0.256V41.655l-0.1-.049-0.025-.073a10.107,10.107,0,0,0-1.465.2,17.083,17.083,0,0,0-1.721.427,5.459,5.459,0,0,0-1.233.5h-0.146q0.122-.244.366-0.635a5.148,5.148,0,0,0,1.294-2.759,1.848,1.848,0,0,0-.464-1.245,1.261,1.261,0,0,0-.269-0.244,1.466,1.466,0,0,1-.317-0.317h-0.488a21.226,21.226,0,0,0-2.637.171,5.183,5.183,0,0,0-2.685,1.1h-0.293q0.122-.342.232-0.781t0.231-.818a2.345,2.345,0,0,1,.293-0.622,5.551,5.551,0,0,0-.122-1.27h-0.976v0.049q-0.123.634-.415,1.611a12.761,12.761,0,0,1-.7,1.819,2.126,2.126,0,0,1-.94,1.087,3.33,3.33,0,0,1,.049.586,8.234,8.234,0,0,1-.354,2.185,14.149,14.149,0,0,0-.44,1.953q-0.086.7-.085,0.891a2.361,2.361,0,0,0,.366,1.318Zm1.245-2.392a16.369,16.369,0,0,1,.33-2.417,5.761,5.761,0,0,1,.769-2.1,2.159,2.159,0,0,1,1.184-.842,11.264,11.264,0,0,1,1.745-.4,7.089,7.089,0,0,0,2.271-.635h0.464v0.122h0.171a7.013,7.013,0,0,1-.708,2.686,9.537,9.537,0,0,1-1.343,2.051,5.308,5.308,0,0,1-2.148.659,4.908,4.908,0,0,0-2.442.879h-0.293Zm31.03,1.245a3.526,3.526,0,0,0,.806-0.171,4.784,4.784,0,0,0-1.428-2.344,29.1,29.1,0,0,0-2.576-2.307,13.4,13.4,0,0,1-1.489-1.27,1.127,1.127,0,0,1-.147-0.269,1.02,1.02,0,0,1-.024-0.256,2.632,2.632,0,0,0-.708.171,2.671,2.671,0,0,1-.708.171l-0.171.464q1,0.952,1.965,1.953t1.966,1.978a7.971,7.971,0,0,0,1.245.928,8.065,8.065,0,0,1,1.269.952h0Zm30.372,0.439a1.862,1.862,0,0,0,.891-0.22,1.2,1.2,0,0,0,.354-0.4,1.33,1.33,0,0,1,.4-0.44,6.732,6.732,0,0,1,1.917-.5q0.611-.122,1.135-0.232a4.75,4.75,0,0,1,.647-0.11,0.721,0.721,0,0,1,.4.171c0.155,0.114.309,0.236,0.464,0.366a1.7,1.7,0,0,0,.4.269,5.893,5.893,0,0,0,2.71.659,1.8,1.8,0,0,0,1.977-1.367,3.724,3.724,0,0,1,.342-0.879,2.074,2.074,0,0,1,1.587-1.343l0.415-.22V41.777a3.725,3.725,0,0,0-1.636-.293h-0.244a8.334,8.334,0,0,0,.293-2.148q0-.464-0.037-0.854t-0.036-.83a10.106,10.106,0,0,1,.122-1.55,20.125,20.125,0,0,0,.122-2.673,13.4,13.4,0,0,0-.757-5.322,2.637,2.637,0,0,0-.549-0.537,2.657,2.657,0,0,1-.55-0.537,17.687,17.687,0,0,0-2.221-.293l-0.733-.049a3.569,3.569,0,0,0-1.928.488h-0.147a22.794,22.794,0,0,1,.562-2.637,14.592,14.592,0,0,0,.537-2.71,2.526,2.526,0,0,1-.562-0.061,2.427,2.427,0,0,0-.537-0.061,0.922,0.922,0,0,0-.9.879,9.386,9.386,0,0,0-.281,1.123,7.461,7.461,0,0,1-.232.952,34.057,34.057,0,0,0-1.245,4.492q-0.269,1.27-.635,2.734a8.127,8.127,0,0,0-.342,2.075v0.269a0.6,0.6,0,0,1-.305.415,4.593,4.593,0,0,1-.525.232,1.728,1.728,0,0,0-.488.269,0.828,0.828,0,0,0-.256.305,1.723,1.723,0,0,0-.086.244l-0.048.122a3.5,3.5,0,0,1,.573.366,0.613,0.613,0,0,0,.305.171,1.008,1.008,0,0,0,.342-0.171l0.025-.073h0.171a29.508,29.508,0,0,1-.953,6.616l-0.219.659a3.917,3.917,0,0,0-.464,1.563,0.781,0.781,0,0,0,.049.293,5.693,5.693,0,0,0,.171,1.1h0Zm9.008-1.807a1.848,1.848,0,0,1-1.147-.391h-0.318a2.688,2.688,0,0,1,.953-0.33,3.206,3.206,0,0,0,.927-0.281,0.33,0.33,0,0,1,.2.244V44a2.524,2.524,0,0,0-.025.439,1.845,1.845,0,0,1-.586.1h0Zm-5.517-10.3a20.28,20.28,0,0,1,.61-3.027,16.818,16.818,0,0,0,.488-2.466,20.047,20.047,0,0,1,2.954-.9q0.611-.073.782-0.073a2.321,2.321,0,0,1,1.306.378,1.662,1.662,0,0,1,.72,1.111,7.8,7.8,0,0,1,.147,1.538v0.293a3.183,3.183,0,0,0,.268,1.416,0.546,0.546,0,0,0-.049.171c0,0.032-.012.049-0.036,0.049s-0.037.008-.037,0.024a0.051,0.051,0,0,1-.012.037c-0.009.008-.029,0.028-0.061,0.061a2.425,2.425,0,0,1-1.05.22h-0.2a9.831,9.831,0,0,0-1.172.073q-0.782.22-1.538,0.464a11.847,11.847,0,0,1-3.125.635h0ZM342.2,39.116l0.537-3.3a16.294,16.294,0,0,1,2.686-.635,14.734,14.734,0,0,0,4.053-1.245l0.537,0.171a15.224,15.224,0,0,0-.245,2.344l-0.1,1.074a17.9,17.9,0,0,1-3.052.586,14.767,14.767,0,0,0-4.224,1H342.2Zm-0.732,4.541a6.342,6.342,0,0,1,.317-1.575,7.122,7.122,0,0,0,.342-1.575,7.647,7.647,0,0,1,1.318-.232,6.431,6.431,0,0,0,1.258-.232q0.573-.171,1.135-0.366a15.132,15.132,0,0,1,3.32-.879v3.125l-2.051.464a10.085,10.085,0,0,1-2.124.391l-0.244-.049-0.171-.464a1.042,1.042,0,0,0-.366-0.073,1.6,1.6,0,0,0-.305.037,2.513,2.513,0,0,1-.476.037l-0.049.1-0.073.024a0.7,0.7,0,0,0,.085.391,1.827,1.827,0,0,0,.208.244,3.857,3.857,0,0,1-2.124.635h0Zm-16.529-6.909a1.742,1.742,0,0,0,.293-0.391,3.844,3.844,0,0,1,.953-0.879,13.412,13.412,0,0,1,1.977-.635,5.139,5.139,0,0,0,2.759-1.245h0.122V33.305a2.923,2.923,0,0,0-.757-0.1,2.488,2.488,0,0,0-1.587.562h-0.464V33.6a5.876,5.876,0,0,0,2.515-1.88,11.8,11.8,0,0,1,1.269-1.27,1.927,1.927,0,0,0-.17-0.928,1.62,1.62,0,0,0-1.563-.9,10.431,10.431,0,0,0-2.808.537,8.02,8.02,0,0,1-1.586.366v-3.1a4.1,4.1,0,0,1,.122-1.123,2.7,2.7,0,0,0-.452-0.1,0.7,0.7,0,0,1-.281-0.073,0.9,0.9,0,0,0-.635.171,2.933,2.933,0,0,0-.39,1.563v0.61a4.96,4.96,0,0,1-.122,1.1q-0.245,1.221-.452,2.564T323.2,33.6a3.605,3.605,0,0,0-.073.757,2.985,2.985,0,0,0,.232,1.465,1.907,1.907,0,0,0,.671.586,3.232,3.232,0,0,0,.9.342h0Zm-0.073-2.319,0.1-.659a2.628,2.628,0,0,1,.635-1.636,3,3,0,0,0,.8-1.147l3.247-1a0.847,0.847,0,0,1,.244.085c0.033,0.024.061,0.045,0.086,0.061a0.6,0.6,0,0,1,.085.073,4.865,4.865,0,0,0-1.892,1.99,5.67,5.67,0,0,1-3.161,2.234h-0.147Zm14.356-15.405a24.879,24.879,0,0,0,4.736-1.27,37.1,37.1,0,0,1,3.882-1.123,17.3,17.3,0,0,0,4.907-1.709c-0.033-.2-0.061-0.338-0.085-0.427a0.729,0.729,0,0,0-.086-0.207h-1.245a3,3,0,0,1-1.587.415,6.031,6.031,0,0,0-1.221.22l-7.08,2.222c-0.39.1-.753,0.171-1.086,0.22a4.82,4.82,0,0,0-.94.232,1.994,1.994,0,0,0-.83.622l0.1,0.1a1.328,1.328,0,0,1,.537.708h0Zm43.09,8.081a6.732,6.732,0,0,0-.732-2.441,6.2,6.2,0,0,1-.708-2.295h-0.146V22.2l-1.563.171V22.49a4.5,4.5,0,0,0,.439,1.66,7.711,7.711,0,0,0,1.172,1.9,2.827,2.827,0,0,0,1.538,1.05h0Zm-4.1,12.4a2.489,2.489,0,0,0,.952-0.171,21.267,21.267,0,0,0,.513-2.539q0.169-.977.415-2.148a6.016,6.016,0,0,0,.049-0.781l-0.049-.9a1.839,1.839,0,0,1,.171-0.83V31.791a5.144,5.144,0,0,0-.171-1.416h-0.806a7.669,7.669,0,0,0-.488,2.734l0.024,0.9a14.522,14.522,0,0,1-.293,2.808,6.337,6.337,0,0,0-.415,1.343l-0.049.513a0.79,0.79,0,0,0,.147.488v0.342Zm-17.774,1.27a4.909,4.909,0,0,0,2.442-2.734l0.708-1.221,2.295-3.1a57.774,57.774,0,0,0,3.857-5.347,5.729,5.729,0,0,1,.708,3.174q0,2.1-.195,4.443a32.575,32.575,0,0,0-.22,3.516V39.97l0.122,0.049a1.59,1.59,0,0,1,.684.415h0.293a21.577,21.577,0,0,0,.61-6.372,19.452,19.452,0,0,0-.293-3.979c-0.049-.309-0.089-0.639-0.122-0.989a5.9,5.9,0,0,0-.171-0.977,1.28,1.28,0,0,0-.488-0.72,4.756,4.756,0,0,1,1.367-2.124,4.154,4.154,0,0,0,.513-0.561,34.442,34.442,0,0,0,2.417-3.247q0.635-.928,1.343-1.9a1.855,1.855,0,0,0-.147-0.781h-0.635a117.1,117.1,0,0,0-7.3,9.5q-2.881,4.2-6.031,8.081a10.849,10.849,0,0,0-1.123,1.929,11.3,11.3,0,0,1-.928,1.685,1.065,1.065,0,0,0,.147.439,0.274,0.274,0,0,1,.085.146,1.67,1.67,0,0,0,.061.22h0Zm34.986,8.716a0.729,0.729,0,0,0,.366-0.1,2.529,2.529,0,0,0,1.5-1.5,14.625,14.625,0,0,0,.77-2.429,13.4,13.4,0,0,1,.415-1.562,27.556,27.556,0,0,0,1.184-5.139q0.378-2.771.573-5.7a68.823,68.823,0,0,1,1.05-8.35,7.921,7.921,0,0,0,.22-1.929,9.712,9.712,0,0,0-.1-1.318q-0.293-2.734-2.759-2.734l-0.512.049a10.379,10.379,0,0,0-1.978.281q-0.781.208-1.44,0.33a8.635,8.635,0,0,0-3.552,1.4,5.307,5.307,0,0,1-2.747,1.111l-0.464,1.27c0,0.033.008,0.049,0.024,0.049a0.2,0.2,0,0,1,.074.024l0.049,0.22a5.393,5.393,0,0,1,.83.049,8.072,8.072,0,0,0,1.049-.049,2.637,2.637,0,0,1,1.612-1.562,19.638,19.638,0,0,1,2.856-1,11.756,11.756,0,0,0,2.783-1.05h1.343a5.113,5.113,0,0,1,1,.171,7.724,7.724,0,0,1,.415,2.637l-0.049.806a22.3,22.3,0,0,1-.537,3.467q-0.219,2.051-.464,4.077-0.585,2.417-1.025,4.919T396.884,40.6q-0.245,1.074-.415,2.344a8.851,8.851,0,0,1-1.148,3.931,1.145,1.145,0,0,1-.586.586l-0.024.049v0.171H394.54a3.766,3.766,0,0,0-.928-0.867,6.172,6.172,0,0,1-1.318-1.379,14.451,14.451,0,0,0-1.892-2.014,4.348,4.348,0,0,0-2.6-1.111,1.4,1.4,0,0,0,.451.879,5.5,5.5,0,0,0,.818.61,6.02,6.02,0,0,1,.781.562,30.862,30.862,0,0,1,3,3.784l0.879,1.245ZM403.5,26.3a43.555,43.555,0,0,0,8.789-2.319l1.538-.488A12.506,12.506,0,0,1,415.866,23a13.882,13.882,0,0,0,2.087-.488q2.3-.756,4.761-1.465,4.248-1.245,7.934-2.588V18.29A4.279,4.279,0,0,0,428.964,18h-0.513a12.216,12.216,0,0,1-3.931,1.172,23.249,23.249,0,0,0-2.343.537q-3.053.977-6.324,1.88-4.248,1.172-8.13,2.515a10.67,10.67,0,0,1-1.928.415,5.939,5.939,0,0,0-2.637.854h-0.171v0.171a3.28,3.28,0,0,1,.513.757h0Zm2.807,12.427a2.058,2.058,0,0,0,.672-0.207,1.146,1.146,0,0,0,.4-0.427,1.817,1.817,0,0,1,.805.464,5.2,5.2,0,0,0,2.051-.952q0.195-.171,8.008-3.906V33.207l-0.44-.049a6.412,6.412,0,0,0-2.2.464,6.739,6.739,0,0,0-2.221,1.172h-0.342V34.623a2.289,2.289,0,0,0,1-.708,3.074,3.074,0,0,1,.586-0.537,1.814,1.814,0,0,0-.354-1.1,1.591,1.591,0,0,0-.891-0.464,0.845,0.845,0,0,0-.342-0.049,4.578,4.578,0,0,0-1.184.146,2.485,2.485,0,0,0-.843.366h-0.781a2.26,2.26,0,0,0,.1-0.4,0.711,0.711,0,0,1,.061-0.244,0.916,0.916,0,0,1,.134-0.159V31.181l-1.1-.171a4.414,4.414,0,0,1-.683,1.416,2.65,2.65,0,0,1-1.2.781,1.145,1.145,0,0,0,.183.366c0.04,0.032.134,0.114,0.28,0.244a14.992,14.992,0,0,1-1.123,2.954l-0.756,1.611,0.073,0.049v0.049a0.18,0.18,0,0,1,.049.061q0,0.012.048,0.183h0Zm2.222-2.392a4.765,4.765,0,0,1,1.074-2.344,3.194,3.194,0,0,1,1.27-.4,3.255,3.255,0,0,0,1.245-.378h0.464v0.171a4.564,4.564,0,0,0-.757.732,4.8,4.8,0,0,1-1.758,1.318,4.682,4.682,0,0,0-1.538.9h0Zm18.506,18.31a0.76,0.76,0,0,0,.464-0.2,10.158,10.158,0,0,0,.537-3.491V50.248a16.348,16.348,0,0,1,.244-2.881,23.082,23.082,0,0,0,.22-2.49A23.862,23.862,0,0,1,428.744,42a25.127,25.127,0,0,0,.439-4.639,18.922,18.922,0,0,0-.1-1.929q-0.05-.635-0.049-1.343,0-.757.073-1.624t0.073-1.526a5.85,5.85,0,0,0-.1-1.172A9.966,9.966,0,0,1,429,26.628a9.989,9.989,0,0,0,.086-1.257,8.293,8.293,0,0,0-.073-1.147,1.646,1.646,0,0,0-1.026-1.367l-0.439.293H427.5a21.63,21.63,0,0,0-.171,2.685,18.034,18.034,0,0,0,.183,2.6,18.943,18.943,0,0,1,.183,2.722,24.724,24.724,0,0,1-.183,2.942q-0.183,1.525-.256,4.285a52.73,52.73,0,0,1-.513,6.934,16.863,16.863,0,0,0-.244,2.808,9.012,9.012,0,0,1-.562,3.931V52.4H425.79a10.7,10.7,0,0,0-2.564-2.417,12.537,12.537,0,0,1-2.465-2.124,11.322,11.322,0,0,0-2.393-2.051,4.427,4.427,0,0,1-1.392-1.123h-0.341a4.9,4.9,0,0,0-1.368.171,2.179,2.179,0,0,0,.623.964,5.859,5.859,0,0,0,.928.671,5.976,5.976,0,0,1,.964.708,44.32,44.32,0,0,0,4.565,3.931l0.757,0.928,0.537,0.415a9.424,9.424,0,0,1,2.295,2.1l0.855,0.073h0.244Zm50.928-2.319a3.662,3.662,0,0,1-.049-0.61,0.731,0.731,0,0,1,.049-0.342,22.576,22.576,0,0,0-4.444-5.713A37.765,37.765,0,0,1,470,41.484a28.267,28.267,0,0,0-4.492-4.98L463.8,34.892l-1.1-1.2a17.211,17.211,0,0,0-2.075-2.148,5.08,5.08,0,0,0-2.661-1.221,14.758,14.758,0,0,1,2.758-4.3,16.1,16.1,0,0,0,2.051-2.966,6.243,6.243,0,0,1,1.489-1.99l0.147-.952-1.245-.464a13.518,13.518,0,0,0-1.856,2.686,17.287,17.287,0,0,1-1.123,1.88q-1.074,1.392-2.3,2.686t-2.27,2.637q-0.636.928-1.172,1.831a19.936,19.936,0,0,1-1.88,2.856,15.3,15.3,0,0,0-1.782,2.6,7.326,7.326,0,0,0-.83,3.381,1.754,1.754,0,0,1,.464.806,0.558,0.558,0,0,0,.171.049h0.048l0.049,0.024a0.4,0.4,0,0,0,.073.1,1.748,1.748,0,0,0,.953-0.574,3.607,3.607,0,0,0,.5-0.842,4.7,4.7,0,0,1,.427-0.806q0.39-.586.977-1.685,1-1.831,2.2-3.662a5.451,5.451,0,0,1,2.149-2.2h0.122q1.22,0,3.784,3.174l0.659,0.757a12.525,12.525,0,0,0,1.257,1.1,12.525,12.525,0,0,1,1.258,1.1,35.056,35.056,0,0,1,3.808,4.883q0.855,1.22,1.685,2.344l1.245,1.1q3.661,4.688,4.907,6.445h1.27ZM440.121,39.335a1.591,1.591,0,0,0,.757-0.2,9.461,9.461,0,0,1,.635-0.806,5.773,5.773,0,0,1,.952-0.488,13.806,13.806,0,0,0,3.222-2.148,19.94,19.94,0,0,1,1.929-1.416V33.769a7.9,7.9,0,0,0-2.466.83,22.692,22.692,0,0,0-2.832,1.624,8.367,8.367,0,0,0-1.782,1.477h-0.293a44.966,44.966,0,0,1,.635-5.054,36.467,36.467,0,0,0,.635-6.714V25.151l-0.123-.1-0.048-.073c-0.229.016-.412,0.033-0.55,0.049a1.5,1.5,0,0,0-.427.122l-1.538,13.355a1.278,1.278,0,0,0,1.294.83h0Zm8.3-9.009a12.649,12.649,0,0,0-.513-1.611,6.766,6.766,0,0,1-.61-2.783,3.6,3.6,0,0,1-.635-0.2,3.878,3.878,0,0,0-1.27-.269,0.374,0.374,0,0,1-.036.134,0.36,0.36,0,0,0-.037.122,0.131,0.131,0,0,1-.061.085c-0.041.033-.094,0.073-0.159,0.122a25.415,25.415,0,0,0,2.2,4.248,2.347,2.347,0,0,0,.781.146h0.342Zm40.918-7.056c0.276-.065.435-0.1,0.476-0.11a0.667,0.667,0,0,0,.158-0.061V22.563a10.128,10.128,0,0,0-.561-3.2,3.025,3.025,0,0,0-2.759-2.222,7.859,7.859,0,0,0,.806,2.319,9.655,9.655,0,0,1,.61,1.465c0.033,0.472.081,0.928,0.147,1.367q0.536,0.513,1.123.977h0Zm-7.422,23.706a29.158,29.158,0,0,0,7.715-1.587,3.98,3.98,0,0,0,.464-0.122A12.114,12.114,0,0,1,491.439,45a4.564,4.564,0,0,0,1.953-.537l0.562,1.27a1.725,1.725,0,0,0,.244.439,1.562,1.562,0,0,0,1.038-.818,4.293,4.293,0,0,0,.5-1.355q4.37-.928,8.936-1.709,6.541-1.1,12.768-2.686a42.285,42.285,0,0,1,5.323-.928,33.932,33.932,0,0,0,4.272-.659V37.553a12.716,12.716,0,0,0-1.758-.122,22.992,22.992,0,0,0-5.737.952,0.981,0.981,0,0,1-.366.122,11.788,11.788,0,0,1-2.381.317,11.006,11.006,0,0,0-2.331.317q-1.9.463-4,.879-2.345.463-4.492,1-1.71.415-3.369,0.647a29.567,29.567,0,0,0-3.2.623,4.322,4.322,0,0,1-1,.122,3.882,3.882,0,0,0-1.391.342h-0.464a10.5,10.5,0,0,1,1.135-2.612,46.446,46.446,0,0,0,2.185-4.395,36.064,36.064,0,0,1,2.368-4.907,7.06,7.06,0,0,0,1.05-2.246,24.124,24.124,0,0,0,3.784-.513,17.175,17.175,0,0,1,4.273-.513,18.489,18.489,0,0,1,1.88.1v0.171a5.273,5.273,0,0,0-.953.952,5.792,5.792,0,0,1-.634.757,16,16,0,0,1-3.955,2.808,1.156,1.156,0,0,1-.135-0.146,0.085,0.085,0,0,0-.061-0.037,0.936,0.936,0,0,1-.11-0.037,0.8,0.8,0,0,1-.134-0.073l-0.171-.952a3.609,3.609,0,0,0-.61.183,2.089,2.089,0,0,1-.659.134V31.6h-0.122a3.55,3.55,0,0,0,.464,1.147,5.5,5.5,0,0,1,.317.647A2.743,2.743,0,0,1,506.6,34.4h0.171v0.171l2.173-.342-0.049-.2a0.068,0.068,0,0,0-.048-0.049c-0.017,0-.025-0.016-0.025-0.049a1.366,1.366,0,0,1,.44-0.794,2.577,2.577,0,0,1,.695-0.4,3.87,3.87,0,0,0,.745-0.391,16,16,0,0,0,2.881-2.759q0.635-.756,1.343-1.465a2,2,0,0,0-.171-0.708,2.5,2.5,0,0,1-.147-0.391,19.546,19.546,0,0,0-4.321-.415,24.266,24.266,0,0,0-2.856.171,7.235,7.235,0,0,0-2.881.708h-0.635l0.513-1q2.514-5.566,3.759-6.714a2.38,2.38,0,0,0-.122-0.891c-0.081-.187-0.155-0.346-0.219-0.476q-1.2.2-1.954,2.124a6.985,6.985,0,0,1-1.147,1.929,10.049,10.049,0,0,0-1.453,2.686,8.53,8.53,0,0,1-1.379,2.515,2.3,2.3,0,0,1-1.221.342,5,5,0,0,1-1.465-.171c-0.032,0-.048.008-0.048,0.024l-0.074.049-0.219.049v0.806a8.334,8.334,0,0,0,1.709.146h0.683a14.083,14.083,0,0,1-1.416,2.954l-1.758,3.3q-2.148,4.077-4.077,8.2l-3.93.977q-0.513.073-2.637,0.635l-1.319.293-0.585.147h-0.782l0.2-1a17.288,17.288,0,0,0,.756-4.443,5.181,5.181,0,0,0-.659-2.588h-0.928a2.963,2.963,0,0,0-.805.244l-0.293.1a0.868,0.868,0,0,0,.244.513,1.482,1.482,0,0,0,.684.1l0.048,1.1a12.6,12.6,0,0,1-.341,2.857,9.828,9.828,0,0,0-.245,1.929,2.946,2.946,0,0,0,.074.708v0.806l-0.293.073a7.145,7.145,0,0,1-1.294.073,1.423,1.423,0,0,1-.037.427c-0.024.057-.053,0.126-0.085,0.207a3.742,3.742,0,0,0,.122.464h0ZM532.528,32.5a15.669,15.669,0,0,0,4.028-.659,39.032,39.032,0,0,0,3.736-1.343l2.637-.977q0.707-.2,1.538-0.366a8.065,8.065,0,0,0,2.856-1.05l0.049,0.049a0.572,0.572,0,0,1,.366.1,1.4,1.4,0,0,1,.086.146,2.226,2.226,0,0,0,.134.22,3.376,3.376,0,0,0,.891-0.72,2.963,2.963,0,0,1,.989-0.72,18.932,18.932,0,0,1,2.221-.647q1.05-.232,2.173-0.6,8.594-3.271,10.694-3.784a17.577,17.577,0,0,0,2.758-.83,3.888,3.888,0,0,0,1.929-1.514l0.073-.2-0.073-.415a17.287,17.287,0,0,0-4.175,1.477,36.247,36.247,0,0,1-6.4,2.161,45.561,45.561,0,0,0-5.322,1.66A15.4,15.4,0,0,1,549.2,26.1a50.869,50.869,0,0,1,1.05-5.615q0.537-2.344,1.05-2.441A1.993,1.993,0,0,1,551.779,18a4.128,4.128,0,0,0,.7-0.073,13.8,13.8,0,0,1,1.465-.366,25.105,25.105,0,0,0,3.565-1.05,0.043,0.043,0,0,0,.049-0.049,1.3,1.3,0,0,0,.122-0.586,25.064,25.064,0,0,0-2.942.342,7.793,7.793,0,0,0-2.552.757h-1.1a5.172,5.172,0,0,0,.39-1.929,2.312,2.312,0,0,0-.39-1.392l-0.171-.464a1.038,1.038,0,0,0-.61.171q-0.513.659-.806,4.053a55.77,55.77,0,0,0-5.664,1.27,5.805,5.805,0,0,1-1.709.342,1.6,1.6,0,0,1-.806-0.171,0.881,0.881,0,0,1-.244.061,0.106,0.106,0,0,0-.122.1,0.273,0.273,0,0,1-.037.146,0.872,0.872,0,0,1-.378.159,0.573,0.573,0,0,1,.049.183,1.045,1.045,0,0,0,.122.305,2.26,2.26,0,0,0,1.05.171q0.488,0,1.245-.073a28.149,28.149,0,0,0,3.625-.586,10.014,10.014,0,0,0,2.405-.757H549.2a22.9,22.9,0,0,1-.806,3.809,22.875,22.875,0,0,0-.781,4.346q-3.687,1.465-7.581,2.649t-7.678,2.673Zm53.247,19.434a2.271,2.271,0,0,0,.635-0.073h0.342V51.518a7.829,7.829,0,0,0-2.771-1.587A32.943,32.943,0,0,0,580.624,49q-1.416-.318-2.857-0.781-5.03-1.563-10.205-2.856-4.37-1.05-8.642-2.3-7.129-1.441-7.544-1.44a9.682,9.682,0,0,1,2.014-2.38q1.209-1.038,2.527-1.965a16.475,16.475,0,0,0,2.832-2.515,10.875,10.875,0,0,1,2.051-1.929V32.792a1.271,1.271,0,0,0-.171-0.757V31.743a2.32,2.32,0,0,0-.94.342,2.387,2.387,0,0,0-.6.586,2.948,2.948,0,0,1-.635.635,2,2,0,0,0-.366.293,46.136,46.136,0,0,0-5.445,4.565h-0.171q0.171-.806.586-2.271a19.429,19.429,0,0,0,1.05-4.858q0-1.123-.464-1.123a0.476,0.476,0,0,1-.219-0.049,2.371,2.371,0,0,0-.452.024,1.188,1.188,0,0,0-.33.269,7.8,7.8,0,0,0-.39,1.709,17.03,17.03,0,0,1-.611,2.979l-0.879,3.027-0.17,1.538a1.633,1.633,0,0,1-.464.757,2.188,2.188,0,0,0-.635,1.147,34.925,34.925,0,0,1-3.638-.342,15.466,15.466,0,0,1-4.077-.928,1.792,1.792,0,0,0-.9-0.342,1.94,1.94,0,0,0-.806.22,14.232,14.232,0,0,1,3.15-3.027,5.859,5.859,0,0,0,1.123-1.221,6.108,6.108,0,0,1,1.22-1.294,0.679,0.679,0,0,0-.586-0.317,2.782,2.782,0,0,0-1.513.708l-1.172.928-0.708.659q-0.636.708-1.294,1.392-0.977,1.049-2.149,2.124-2.221,2.1-4.345,4.443l-0.635.586q-1.808,1.392-1.807,2.222a0.861,0.861,0,0,0,.074.342,1.668,1.668,0,0,0,.17.757,1.883,1.883,0,0,0,1.075-.476,5.007,5.007,0,0,0,.683-0.818,16.588,16.588,0,0,1,2.32-2.393,26.419,26.419,0,0,0,4.1-4.492,0.69,0.69,0,0,1,.4.4,2.1,2.1,0,0,1,.061.525v0.342l0.781,0.317,0.147-.464a10.016,10.016,0,0,0,2.954.586,22.139,22.139,0,0,1,2.392.342,42.717,42.717,0,0,0,4.395.708,42.713,42.713,0,0,1,5.029.879Q567.709,46.537,575.6,49q1.879,0.634,3.686,1.147,2.271,0.61,4.492,1.367a4.35,4.35,0,0,0,1.123.317,6.938,6.938,0,0,0,.879.1h0Zm6.079-28.662,0.476-.11a0.655,0.655,0,0,0,.159-0.061V22.563a10.128,10.128,0,0,0-.561-3.2,3.026,3.026,0,0,0-2.759-2.222,7.856,7.856,0,0,0,.805,2.319,9.559,9.559,0,0,1,.611,1.465q0.048,0.708.146,1.367,0.537,0.513,1.123.977h0Zm-7.422,23.706a29.15,29.15,0,0,0,7.715-1.587,3.878,3.878,0,0,0,.464-0.122A12.178,12.178,0,0,1,593.954,45a4.568,4.568,0,0,0,1.953-.537l0.562,1.27a1.725,1.725,0,0,0,.244.439,1.56,1.56,0,0,0,1.037-.818,4.3,4.3,0,0,0,.5-1.355q4.37-.928,8.935-1.709,6.543-1.1,12.769-2.686a42.3,42.3,0,0,1,5.322-.928,33.92,33.92,0,0,0,4.273-.659V37.553a12.716,12.716,0,0,0-1.758-.122,22.985,22.985,0,0,0-5.737.952,0.986,0.986,0,0,1-.367.122,11.778,11.778,0,0,1-2.38.317,11.023,11.023,0,0,0-2.332.317q-1.9.463-4,.879-2.343.463-4.492,1-1.708.415-3.369,0.647a29.548,29.548,0,0,0-3.2.623,4.329,4.329,0,0,1-1,.122,3.882,3.882,0,0,0-1.392.342h-0.464a10.539,10.539,0,0,1,1.136-2.612,46.7,46.7,0,0,0,2.185-4.395,35.944,35.944,0,0,1,2.368-4.907,7.082,7.082,0,0,0,1.05-2.246,24.124,24.124,0,0,0,3.784-.513,17.166,17.166,0,0,1,4.272-.513,18.459,18.459,0,0,1,1.88.1v0.171a5.3,5.3,0,0,0-.952.952,5.72,5.72,0,0,1-.635.757,15.979,15.979,0,0,1-3.955,2.808,1.194,1.194,0,0,1-.134-0.146,0.088,0.088,0,0,0-.061-0.037,0.936,0.936,0,0,1-.11-0.037,0.759,0.759,0,0,1-.134-0.073l-0.171-.952a3.609,3.609,0,0,0-.61.183,2.1,2.1,0,0,1-.66.134V31.6h-0.122a3.6,3.6,0,0,0,.464,1.147,5.348,5.348,0,0,1,.318.647,2.764,2.764,0,0,1,.146,1.013h0.171v0.171l2.173-.342-0.049-.2a0.069,0.069,0,0,0-.049-0.049c-0.016,0-.024-0.016-0.024-0.049a1.37,1.37,0,0,1,.439-0.794,2.583,2.583,0,0,1,.7-0.4,3.9,3.9,0,0,0,.745-0.391,16,16,0,0,0,2.88-2.759q0.636-.756,1.343-1.465a1.957,1.957,0,0,0-.171-0.708,2.615,2.615,0,0,1-.146-0.391,19.552,19.552,0,0,0-4.321-.415,24.283,24.283,0,0,0-2.857.171,7.244,7.244,0,0,0-2.881.708H606.43l0.512-1q2.514-5.566,3.76-6.714a2.4,2.4,0,0,0-.122-0.891q-0.123-.28-0.22-0.476-1.2.2-1.953,2.124a6.985,6.985,0,0,1-1.147,1.929,10.021,10.021,0,0,0-1.453,2.686,8.553,8.553,0,0,1-1.379,2.515,2.306,2.306,0,0,1-1.221.342,5,5,0,0,1-1.465-.171c-0.033,0-.049.008-0.049,0.024l-0.073.049-0.22.049v0.806a8.348,8.348,0,0,0,1.709.146h0.684a14.083,14.083,0,0,1-1.416,2.954l-1.758,3.3q-2.148,4.077-4.077,8.2l-3.931.977q-0.513.073-2.637,0.635l-1.318.293-0.586.147h-0.781l0.2-1a17.3,17.3,0,0,0,.757-4.443,5.191,5.191,0,0,0-.659-2.588h-0.928a2.968,2.968,0,0,0-.806.244l-0.292.1a0.862,0.862,0,0,0,.244.513,1.477,1.477,0,0,0,.683.1l0.049,1.1a12.544,12.544,0,0,1-.342,2.857,9.815,9.815,0,0,0-.244,1.929,3,3,0,0,0,.073.708v0.806l-0.293.073a7.137,7.137,0,0,1-1.294.073,1.473,1.473,0,0,1-.036.427c-0.025.057-.053,0.126-0.086,0.207a4.131,4.131,0,0,0,.122.464h0Zm60.45,6.055a4.543,4.543,0,0,0,.476-0.1c0.04-.016.093-0.041,0.158-0.073a31.9,31.9,0,0,0,.367-4.15,36.909,36.909,0,0,1,.537-5.737,5.151,5.151,0,0,0,.146-1.245A5.833,5.833,0,0,0,646.517,41a7.037,7.037,0,0,1-.048-0.854,3.414,3.414,0,0,1,.293-1.562V37.333a1.248,1.248,0,0,1,.512-0.269q0.416-.147,1.538-0.537a16.389,16.389,0,0,0,2.735-1.587l1.172-.757V33.72a7.178,7.178,0,0,0-1.8.549q-1.233.5-2.356,1.086a12.65,12.65,0,0,0-1.513.879h-0.293l0.463-13.061q0-.586.037-1.282t0.037-1.355q0-.732-0.025-1.343a2.4,2.4,0,0,0-.854-1.807,2.09,2.09,0,0,1,1.22-.684,3.7,3.7,0,0,0,.77-0.22,0.981,0.981,0,0,0,.524-0.513l0.122-.146,0.049-.2-0.073-.049q0-.073-0.024-0.073h-0.074a14.609,14.609,0,0,0-3.051.708,18.234,18.234,0,0,1-3.614.879q-1.122.171-2.124,0.415a9.9,9.9,0,0,1-1.757.293,5.45,5.45,0,0,0-2.637.684l-0.293.146v0.293a4.245,4.245,0,0,0,1.123.146,1.778,1.778,0,0,0,1.05-.293,5.554,5.554,0,0,1,1.416.146l0.049,7.764-0.049,6.25q-0.073,1.587-.074,3.247a6.156,6.156,0,0,0,.245,2.222v1.44a9.251,9.251,0,0,1-1.88.757,22.66,22.66,0,0,0-3.736,1.709,36.934,36.934,0,0,1-3.344,1.587,1.72,1.72,0,0,0,.158.549,3.029,3.029,0,0,0,.183.256,8.678,8.678,0,0,0,2.881-1.172A11.624,11.624,0,0,1,634.9,42.8q0.734-.318,1.49-0.659a37.446,37.446,0,0,0,4.882-2.295,3.291,3.291,0,0,1,1.087-.415,6.583,6.583,0,0,0,1.184-.366,1.288,1.288,0,0,0,.708-0.659h0.171l-0.806,13.672ZM640.8,39.042q0-1.538-.074-3.149l-0.049-2.222q0-1.831.147-3.589t0.2-4.1a25.152,25.152,0,0,0-.219-3.735,8.088,8.088,0,0,1-.074-1.1q0-.415.037-0.793c0.024-.252.037-0.484,0.037-0.7a3.235,3.235,0,0,0-.147-1.025,4.993,4.993,0,0,1,2.5-.745,5.528,5.528,0,0,0,2.5-.671h0.171a6.865,6.865,0,0,0-.122,1.392v0.415q0,0.635-.049,1.172-0.2,2.588-.2,4.858v1a31.368,31.368,0,0,1-.586,5.908,9.726,9.726,0,0,0-.122,1.563q0,0.366.036,0.806t0.037,0.9a4.89,4.89,0,0,1-.415,2.1,0.732,0.732,0,0,0-.232.1,0.08,0.08,0,0,1-.073.024,0.376,0.376,0,0,0-.159.049,72.456,72.456,0,0,1,.293-9.18,5.945,5.945,0,0,0,.171-1.27,1.645,1.645,0,0,0-.513-1.245l-0.293-.244a1.987,1.987,0,0,0-.281.037c-0.138.024-.305,0.057-0.5,0.1a1.63,1.63,0,0,0-.464.159h-0.293q0.171,2.247.171,4.81l-0.049,2.1v2.588a4.863,4.863,0,0,0,.342,2.148,1.215,1.215,0,0,1-.305.818,1.8,1.8,0,0,1-.586.354,3.378,3.378,0,0,0-.7.366H640.8ZM665.145,55.2q1.026-.293,1.294-2.026a27.627,27.627,0,0,0,.305-3.723,16.047,16.047,0,0,1,.306-3.162,31.451,31.451,0,0,0,.561-4.541,33.57,33.57,0,0,1,.513-4.419V35.746a11.167,11.167,0,0,0,.268-2.1,14.611,14.611,0,0,1,.367-2.93A31.338,31.338,0,0,0,670,23.954l0.561-.122a16.128,16.128,0,0,1,3.467-.537,2.309,2.309,0,0,1,2.026.83l0.245,0.293a12.3,12.3,0,0,1-1.661,5.347,13.073,13.073,0,0,1-3.027,3.955v0.122h-0.171l-0.635-1.074h-0.952a4.024,4.024,0,0,0,.428,1.746,2.153,2.153,0,0,0,1.159,1.086,1.418,1.418,0,0,0,.781.147,2.505,2.505,0,0,0-.109-0.5,0.251,0.251,0,0,1-.037-0.134,11.453,11.453,0,0,0,3.662-4.468,13.963,13.963,0,0,0,1.807-6.519,4.9,4.9,0,0,1-.464-0.537,3.252,3.252,0,0,0-1.245-1.05,5.018,5.018,0,0,0-1.465-.171,18.86,18.86,0,0,0-3.638.415,6.324,6.324,0,0,0-1.806.562,2.59,2.59,0,0,0-.867.073,0.644,0.644,0,0,0-.171.159,1.025,1.025,0,0,1-.232.207,0.523,0.523,0,0,0,.244.2,0.592,0.592,0,0,1,.22.146l-0.171,1.88a21.9,21.9,0,0,0-.391,2.881q-0.1,1.441-.341,2.954a74.286,74.286,0,0,0-.977,7.544,57.675,57.675,0,0,1-1.1,8.447,14.265,14.265,0,0,0-.244,2.685v0.415a7.36,7.36,0,0,1-.708,3.369,1.349,1.349,0,0,0,.269.44,1.487,1.487,0,0,0,.317.244q0.171,0.1.366,0.22h0Zm-6.1-14.282a1.489,1.489,0,0,0,1.1-.854,6.864,6.864,0,0,0,.489-1.514,7.328,7.328,0,0,1,.293-1.221q0.243-.757.586-2.27,1.171-4.638,1.928-5.615V28.691a2.22,2.22,0,0,0-.952.293,1.547,1.547,0,0,0-.94.342,1.268,1.268,0,0,0-.268.647,2.514,2.514,0,0,1-.354.891,0.144,0.144,0,0,1-.122.1,3.42,3.42,0,0,0-1.416,1.172,4.746,4.746,0,0,1-1.734,1.416,4,4,0,0,0-.83.635h-0.293a31.359,31.359,0,0,1,.659-5.225,28.336,28.336,0,0,0,.586-5.713V22.88a12.634,12.634,0,0,0,4.077-1.733l0.171-.781a2.371,2.371,0,0,0-1.22.464,11.875,11.875,0,0,1-3.443,1.343,19.057,19.057,0,0,0-2.246.708,4.632,4.632,0,0,1-1.037.22,3.416,3.416,0,0,0-.708.11,1.352,1.352,0,0,0-.623.452l-0.073.049a0.173,0.173,0,0,0-.049.061c0,0.008-.008.012-0.024,0.012a1.422,1.422,0,0,1,.219.22,1.479,1.479,0,0,0,.391.293h0.1a2.656,2.656,0,0,0,.524-0.11q0.4-.11.965-0.269t1.025-.293a2.8,2.8,0,0,1,.708-0.134,39.287,39.287,0,0,1-1.416,8.008,5.432,5.432,0,0,0-.22,1.392v0.757a2.461,2.461,0,0,0,.22,1.172,1.037,1.037,0,0,0,.318.256,2.066,2.066,0,0,0,.4.146,2.14,2.14,0,0,1,.525.232,5.227,5.227,0,0,0,2.222-1.123,8.963,8.963,0,0,0,1.709-1.733h0.146a17.438,17.438,0,0,1-.329,2.185q-0.281,1.4-.647,2.734a6.179,6.179,0,0,1-.757,1.868,3.031,3.031,0,0,0,.342,1.538h0Z"/>
</svg>
