<svg xmlns="http://www.w3.org/2000/svg" width="258" height="60" viewBox="0 0 258 60">
  <defs>
    <style>
      .cls-1 {
        fill: #1f1f1f;
        fill-rule: evenodd;
      }
    </style>
  </defs>
  <path id="_25_03_05" data-name="25/03/05" class="cls-1" d="M15.441,42.286a18.065,18.065,0,0,0,6.348-2.018q2.181-1.074,10.059-4.3l5.99-2.507a16.352,16.352,0,0,1,1.66-.618q4.85-1.563,5.632-3.125h0.228l-0.1-.293-0.13-.1a0.612,0.612,0,0,0-.326-0.065,19.949,19.949,0,0,0-4.3,1.432l-2.051.911q-3.972,1.855-14.876,6.478a20.6,20.6,0,0,1-2.051.716,10.042,10.042,0,0,0-3.581,1.563H17.1q1.106-3.288,6.25-9.44l0.619-.814a10.354,10.354,0,0,0,1.4-2.669,9.4,9.4,0,0,1,1.563-2.767q0-2.994-1.6-3.532a10.855,10.855,0,0,0-3.483-.537q-0.847,0-1.855.1a12.612,12.612,0,0,1-3.906,1.009,18.076,18.076,0,0,1-3.06.358,0.742,0.742,0,0,1-.553-0.13,12.4,12.4,0,0,1-1.465,1.3,2.943,2.943,0,0,1,.081.521,0.4,0.4,0,0,0,.2.358,1.073,1.073,0,0,1,.342.326q0.781-.163,2.246-0.618,2.539-.813,4.671-1.27a16.84,16.84,0,0,1,3.141-.456,4.429,4.429,0,0,1,2.116.456l0.618,0.228a11.307,11.307,0,0,1-1.9,5.241,43.8,43.8,0,0,1-3.564,4.753q-1.074,1.269-1.823,2.311a13.541,13.541,0,0,0-1.27,2.148,12.476,12.476,0,0,1-1.725,2.734,3.018,3.018,0,0,0,.228,1.4,3.205,3.205,0,0,0,1.074.912h0Zm39.974,7.389A3.463,3.463,0,0,0,56.8,48.5a14.641,14.641,0,0,0,1.579-2.018l1.66-2.018a48.034,48.034,0,0,0,4.036-5.273,10.974,10.974,0,0,0,2.051-5.664q-0.423-.521-0.814-1.074a2.86,2.86,0,0,1-.846-0.326,3.8,3.8,0,0,0-2.246-.456,11.7,11.7,0,0,0-2.751.342,12.544,12.544,0,0,1-2.1.374q-0.684.032-.781,0.032a3.445,3.445,0,0,1-1.953-.586l-0.846-.423a12.215,12.215,0,0,1,1.79-5.664l0.716-1.432a13.325,13.325,0,0,1,2.311-.57,17.276,17.276,0,0,0,2.279-.5q8.594-2.637,11.068-3.516a35.526,35.526,0,0,0,6.152-2.8,1.546,1.546,0,0,0-.228-0.846H77.648a10.718,10.718,0,0,0-3.288,1.172A57.638,57.638,0,0,1,68.11,19.4a49.884,49.884,0,0,0-5.925,1.953,9.72,9.72,0,0,1-1.465.391,5.128,5.128,0,0,0-1.888.651h-1.3a16.79,16.79,0,0,1,2.734-5.013l0.065-.618a1.973,1.973,0,0,0-.293-1.27,0.6,0.6,0,0,0-.488-0.2l-0.1-.032a13.01,13.01,0,0,0-1.53,2.6,23.135,23.135,0,0,1-2.376,3.792,27.255,27.255,0,0,0-2.669,4.346,12.7,12.7,0,0,0-1.2,5.4l1.074,1.432,1.888,0.684a11.077,11.077,0,0,0,1.5.1,14.106,14.106,0,0,0,2.734-.277,15.913,15.913,0,0,1,2.051-.309q0.651-.033.749-0.032a2.854,2.854,0,0,1,1.725.521h0.456A10.1,10.1,0,0,1,61.86,38.64a51.148,51.148,0,0,1-3.874,4.883,33.348,33.348,0,0,0-2.734,3.418,10.692,10.692,0,0,1-1.237-3.353,6.212,6.212,0,0,1-.228-1.3l-0.1-.033-0.13-.2a4.469,4.469,0,0,1-.521.1,0.822,0.822,0,0,0-.423.163c-0.109.087-.2,0.152-0.26,0.2l-0.065.781a8.25,8.25,0,0,0,.716,3.288,6.43,6.43,0,0,0,2.246,3.027,0.221,0.221,0,0,0,.163.065h0Zm24.512,5.013a1.306,1.306,0,0,0,.96-0.667,4.43,4.43,0,0,0,.358-1.107,5.177,5.177,0,0,1,.342-1.123q2.181-4.98,6.087-15.43,3.027-7.975,6.25-15.788l0.781-1.725a15.16,15.16,0,0,0,2.018-6.283,5.936,5.936,0,0,0-.456-2.279,2.195,2.195,0,0,0-.83.228,1.925,1.925,0,0,1-.667.228,22.65,22.65,0,0,1-1.286,5.648,53.019,53.019,0,0,1-2.165,5.062,120.248,120.248,0,0,0-4.655,11.361q-1.335,3.548-2.8,7.031-0.977,2.441-1.872,4.883t-1.872,4.72q-0.261.781-.423,1.5a5.562,5.562,0,0,1-.846,2.083,3.99,3.99,0,0,0,.44,1.107,0.92,0.92,0,0,0,.391.456c0.076,0,.114.011,0.114,0.032a0.053,0.053,0,0,0,.033.049,0.229,0.229,0,0,0,.1.016h0Zm34.245-14.876a4.086,4.086,0,0,0,1.4-.26,21.345,21.345,0,0,0,5.99-3.483,11.567,11.567,0,0,0,2.946-3.174,6.55,6.55,0,0,0,1.057-3.4,6.3,6.3,0,0,0-.227-1.628q-0.879-3.059-2.523-3.792a9.679,9.679,0,0,0-3.955-.732h-0.326q-1.561-.065-3.45-0.293a3.4,3.4,0,0,1-1.172,1.465,4.2,4.2,0,0,0-.977,1.074,42.445,42.445,0,0,0-1.855,4.15,13.43,13.43,0,0,0-1.2,4.508v1.5a3.511,3.511,0,0,0,2.67,3.613,3.183,3.183,0,0,0,1.627.456h0Zm0.684-1.79a4.049,4.049,0,0,1-2.084-.553,12.192,12.192,0,0,1-.26-2.441,10.769,10.769,0,0,1,.781-4.036,16.521,16.521,0,0,1,3-5.013,1.153,1.153,0,0,1,.407-0.439,0.556,0.556,0,0,0,.195-0.114c0.011-.021.044-0.076,0.1-0.163a1.416,1.416,0,0,0,.146-0.358l0.293,0.065a20.61,20.61,0,0,1,3.158.716,3.818,3.818,0,0,1,2.767,3.971,6.184,6.184,0,0,1-.977,3.19,10.707,10.707,0,0,1-3.955,3.988,8.252,8.252,0,0,1-3.564,1.188h0Zm25.488,12.826q1.563-.326,3.06-3.06l0.684-1.107,1.855-2.539q3.775-4.851,4.3-7.031a5.949,5.949,0,0,1,.781-1.953V34.831a4.964,4.964,0,0,0-.749-3.19,3.955,3.955,0,0,0-2.115-1.172,10.664,10.664,0,0,1-2.181-.944h-3.939a13.068,13.068,0,0,1,3.157-3.027q0.976-.684,1.856-1.4a19.827,19.827,0,0,0,2.669-3.06q0.91-1.237,1.921-2.409V19.467q0-2.8-1.726-3.646a9.109,9.109,0,0,0-3.645-.619l-1.335.065a7.107,7.107,0,0,1-1.156.553,3.135,3.135,0,0,0-.862.456,2.344,2.344,0,0,0-.684,1.074,4.818,4.818,0,0,0,.635.244,0.92,0.92,0,0,1,.374.179,12.721,12.721,0,0,0,1.3-.423,6.169,6.169,0,0,1,2.181-.586,4.692,4.692,0,0,1,2.279.976,1.055,1.055,0,0,0,.325.2,6.866,6.866,0,0,1-2.278,3.646,45.107,45.107,0,0,1-4.427,3.516,11.547,11.547,0,0,0-1.66,1.676,10.748,10.748,0,0,1-1.693,1.677,4.5,4.5,0,0,0-.033.488,0.5,0.5,0,0,1-.162.358,2.673,2.673,0,0,0,.211.667,2.762,2.762,0,0,1,.212.57,24.624,24.624,0,0,0,2.8.26q3.418,0,4.753.912a3.721,3.721,0,0,0,1.074.488,11.093,11.093,0,0,1,.1,1.5q0,4.1-5.078,10.677-1.336,1.79-2.181,3.125a5.568,5.568,0,0,1-.944-1.579q-0.781-1.546-.944-2a6.026,6.026,0,0,0-.684.228l-0.781.228a25.4,25.4,0,0,0,2.734,6.478h0Zm24.219,3.841a1.306,1.306,0,0,0,.96-0.667,4.41,4.41,0,0,0,.358-1.107,5.194,5.194,0,0,1,.342-1.123q2.181-4.98,6.087-15.43,3.027-7.975,6.25-15.788l0.781-1.725a15.153,15.153,0,0,0,2.019-6.283,5.929,5.929,0,0,0-.456-2.279,2.2,2.2,0,0,0-.83.228,1.929,1.929,0,0,1-.667.228,22.668,22.668,0,0,1-1.286,5.648,53.019,53.019,0,0,1-2.165,5.062A120.435,120.435,0,0,0,171.3,32.813q-1.335,3.548-2.8,7.031-0.977,2.441-1.872,4.883t-1.872,4.72q-0.261.781-.423,1.5a5.56,5.56,0,0,1-.846,2.083,3.969,3.969,0,0,0,.439,1.107,0.916,0.916,0,0,0,.391.456c0.075,0,.114.011,0.114,0.032a0.052,0.052,0,0,0,.032.049,0.232,0.232,0,0,0,.1.016h0Zm34.245-14.876a4.081,4.081,0,0,0,1.4-.26,21.318,21.318,0,0,0,5.99-3.483,11.567,11.567,0,0,0,2.946-3.174,6.543,6.543,0,0,0,1.058-3.4,6.255,6.255,0,0,0-.228-1.628q-0.879-3.059-2.523-3.792a9.676,9.676,0,0,0-3.955-.732h-0.325q-1.563-.065-3.451-0.293a3.388,3.388,0,0,1-1.172,1.465,4.192,4.192,0,0,0-.976,1.074,42.385,42.385,0,0,0-1.856,4.15,13.423,13.423,0,0,0-1.2,4.508v1.5a3.51,3.51,0,0,0,2.669,3.613,3.187,3.187,0,0,0,1.628.456h0Zm0.683-1.79a4.043,4.043,0,0,1-2.083-.553,12.123,12.123,0,0,1-.261-2.441,10.77,10.77,0,0,1,.782-4.036,16.5,16.5,0,0,1,3-5.013,1.152,1.152,0,0,1,.406-0.439,0.566,0.566,0,0,0,.2-0.114c0.01-.021.043-0.076,0.1-0.163a1.451,1.451,0,0,0,.147-0.358l0.293,0.065a20.6,20.6,0,0,1,3.157.716,3.817,3.817,0,0,1,2.767,3.971,6.183,6.183,0,0,1-.976,3.19,10.714,10.714,0,0,1-3.955,3.988,8.255,8.255,0,0,1-3.565,1.188h0Zm25.293,11.654a3.464,3.464,0,0,0,1.384-1.172,14.587,14.587,0,0,0,1.578-2.018l1.661-2.018a48.094,48.094,0,0,0,4.036-5.273,10.974,10.974,0,0,0,2.051-5.664q-0.423-.521-0.814-1.074a2.855,2.855,0,0,1-.846-0.326,3.8,3.8,0,0,0-2.246-.456,11.706,11.706,0,0,0-2.751.342,12.543,12.543,0,0,1-2.1.374c-0.455.021-.716,0.032-0.781,0.032A3.445,3.445,0,0,1,224,31.836l-0.846-.423a12.217,12.217,0,0,1,1.79-5.664l0.716-1.432a13.318,13.318,0,0,1,2.311-.57,17.252,17.252,0,0,0,2.279-.5q8.593-2.637,11.068-3.516a35.533,35.533,0,0,0,6.152-2.8,1.542,1.542,0,0,0-.228-0.846h-0.228a10.706,10.706,0,0,0-3.287,1.172,57.763,57.763,0,0,1-6.25,2.148,49.886,49.886,0,0,0-5.925,1.953,9.713,9.713,0,0,1-1.465.391,5.127,5.127,0,0,0-1.888.651h-1.3a16.806,16.806,0,0,1,2.734-5.013l0.066-.618a1.975,1.975,0,0,0-.293-1.27,0.6,0.6,0,0,0-.489-0.2l-0.1-.032a13,13,0,0,0-1.53,2.6,23.157,23.157,0,0,1-2.377,3.792,27.326,27.326,0,0,0-2.669,4.346,12.69,12.69,0,0,0-1.2,5.4l1.074,1.432L224,33.529a11.08,11.08,0,0,0,1.5.1,14.115,14.115,0,0,0,2.735-.277,15.9,15.9,0,0,1,2.051-.309c0.433-.022.683-0.032,0.748-0.032a2.85,2.85,0,0,1,1.725.521h0.456a10.1,10.1,0,0,1-1.985,5.111,51.245,51.245,0,0,1-3.874,4.883,33.419,33.419,0,0,0-2.735,3.418,10.719,10.719,0,0,1-1.237-3.353,6.2,6.2,0,0,1-.227-1.3l-0.1-.033-0.13-.2a4.5,4.5,0,0,1-.521.1,0.819,0.819,0,0,0-.423.163q-0.164.13-.261,0.2l-0.065.781a8.26,8.26,0,0,0,.716,3.288,6.432,6.432,0,0,0,2.246,3.027,0.223,0.223,0,0,0,.163.065h0Z"/>
</svg>
