<svg xmlns="http://www.w3.org/2000/svg" width="720" height="208" viewBox="0 0 720 208">
  <defs>
    <style>
      .cls-1 {
        fill: #1f1f1f;
        fill-rule: evenodd;
      }
    </style>
  </defs>
  <path id="漂光流影" class="cls-1" d="M37.73,92.006a10.1,10.1,0,0,0,2.295-.391,5.145,5.145,0,0,1,1.416-.293l6.543,0.2a35.9,35.9,0,0,0,8.5-.684l0.684-1.269A18.489,18.489,0,0,0,51.3,88.49a18.734,18.734,0,0,1-7.324-1.465,3.652,3.652,0,0,1-2-.879,4.321,4.321,0,0,0-1.025-.977,11.206,11.206,0,0,1-5.078,3.223,2.458,2.458,0,0,0,.586,1.172ZM15.171,158.021a73.719,73.719,0,0,1,17.188-16.406l4.688-3.711a39.08,39.08,0,0,0,5.078-5.273,34.5,34.5,0,0,1,7.52-7.227,34.282,34.282,0,0,0,4.98-4.1,13.03,13.03,0,0,0,3.223-5.274l0.684-1.367a1.708,1.708,0,0,0-.537-0.342,2.423,2.423,0,0,1-.83-0.83H54.722a41.713,41.713,0,0,1-5.859,4.2A46.6,46.6,0,0,0,38.8,125.6a79.331,79.331,0,0,1-6.055,5.469,65.3,65.3,0,0,0-10.5,10.3,70.195,70.195,0,0,1-10.3,10.3,9.818,9.818,0,0,0,.684,4.2,4.718,4.718,0,0,0,2.539,2.148h0Zm43.164-87.89a6.4,6.4,0,0,0,3.223-.684l0.293-.391,0.391-.781q-5.372-2.538-11.23-4.883Q48.96,62.71,47.3,62.025a10.171,10.171,0,0,0-3.223-.781,9,9,0,0,1-3.809-1.172,2.241,2.241,0,0,0-.342-0.537,1.239,1.239,0,0,1-.244-0.586,3.462,3.462,0,0,1-.1-0.732,4.624,4.624,0,0,0-2.734.977,8.807,8.807,0,0,1-2.93,1.465,7.155,7.155,0,0,0,1.855,3.711l0.977,0.2a5.446,5.446,0,0,0,1.27-.2,6.437,6.437,0,0,1,1.563-.2q1.854,0,2.148.391,10.448,1.955,15.43,5.566h1.172ZM134.41,46.3a8.941,8.941,0,0,0,3.906-.684h1.172V44.252A75.539,75.539,0,0,0,117.71,41.42h-5.175a98.369,98.369,0,0,1-13.282-.781,17.584,17.584,0,0,0-.488,4.98l10.352,0.2q8.4,0.293,17.285.293Zm-22.559,48.73A138.551,138.551,0,0,1,126.6,91.224a45.693,45.693,0,0,0,17.481-6.2q7.126-4.541,7.324-18.115l-0.879-.684a43.57,43.57,0,0,1-4.2-4.395l-10.059-.586a19.767,19.767,0,0,0,2.246-9.473l-0.195-3.125-5.664.684a61.98,61.98,0,0,1-.391,7.031q-0.783,6.349-6.054,7.813a8.84,8.84,0,0,0-3.028,1.563H121.91l0.1-4.687a65.9,65.9,0,0,0-.781-11.035h-4.394a2.068,2.068,0,0,1-1.172,1.172l0.39,2.637a27.469,27.469,0,0,1,.782,5.664,3.984,3.984,0,0,1-.684,2.344v6.445a2.675,2.675,0,0,1-1.465.977q-0.977.293-2.344,0.586a7.624,7.624,0,0,0-2.343.879,32.155,32.155,0,0,0-6.543,5.078l-2.832,2.539v0.488q-1.369-1.854-1.368-7.91V68.275q-0.879-.389-1.514-0.732a3.158,3.158,0,0,0-1.514-.342,7.823,7.823,0,0,0-1.709.684,4.333,4.333,0,0,0-1.172.781,2.183,2.183,0,0,0-.244,1.27,102.949,102.949,0,0,0,.781,11.328q1.367,12.11,4.2,13.281A5.371,5.371,0,0,1,96.031,96.4a3.073,3.073,0,0,1,.439,1.123,2.243,2.243,0,0,0,1.611,1.416Zm17.09-7.324q3.025-11.133,6.152-21.973,1.074-.195,2.051-0.342a14.516,14.516,0,0,1,2.148-.147,6.594,6.594,0,0,1,4,.977h1.172l0.391,0.879a0.8,0.8,0,0,0,.244.293c0.032,0,.049.066,0.049,0.2q-0.1,6.837-3.467,10.6a31.523,31.523,0,0,1-7.764,6.3q-2.343,1.563-4.492,3.223h-0.488Zm-9.57,1.856a36.855,36.855,0,0,0,.293-5.078q0.389-10.84,2.246-14.355a9.388,9.388,0,0,1,2.588-1.367,9.614,9.614,0,0,0,2.392-1.172h2.051l-0.684,2.637q-3.713,17.091-6.543,18.652l-0.976.684h-1.367Zm-20.118,4.3,0.684-1.172V81.264a6.537,6.537,0,0,1,1.855,2.051,9.894,9.894,0,0,0,3.711-3.809,8.953,8.953,0,0,1,5.86-4.687,10.147,10.147,0,0,0,3.613-2.246h1.367q-0.293,3.028-.488,6.055t-0.439,6.055q-0.246,3.028-.44,6.152a40.79,40.79,0,0,0-5.078,1.221,43.28,43.28,0,0,1-4.59,1.172,17.336,17.336,0,0,1-3.027.342l-2.344-.2v0.488H99.253Zm3.223,24.024a16,16,0,0,0,5.859-2.247q3.125-1.856,10.84-3.613a48.11,48.11,0,0,0,12.3-4.2v-1.855A56.543,56.543,0,0,0,117.515,109l-4.394,1.269-6.836.684-4.493,3.711-0.488,1.855a6.359,6.359,0,0,1,1.172,1.368h0Zm-23.34,55.273a14.436,14.436,0,0,0,6.543-4.395q1.854-2.148,9.863-7.226a56.51,56.51,0,0,0,15.624-12.4h0.684l-0.488,5.273a44.431,44.431,0,0,0-.586,7.129v1.758a6.194,6.194,0,0,0,3.515,5.468c0.13,0,.2.033,0.2,0.1a1.276,1.276,0,0,0,.683.293l0.489,0.1a2.532,2.532,0,0,1,1.172-1.172,96.091,96.091,0,0,1,3.418-19.727,81.216,81.216,0,0,0,2.929-20.8v-0.977a78.811,78.811,0,0,1,13.477-3.516,83.094,83.094,0,0,0,16.406-4.589,42.156,42.156,0,0,1,7.91-2.442l0.488-3.223a96.189,96.189,0,0,0-25.488,5.665,107.7,107.7,0,0,1-17.627,4.394,102.453,102.453,0,0,0-18.8,5.078q-10.352,4.491-16.406,4.492l-2.148-.195v0.684H80.5v2.539l2.344,0.1q7.91,0,22.461-3.808,6.834-1.662,8.984-3.223h2.54l-3.125,11.914a93.968,93.968,0,0,0-17.774,12.6q-7.423,6.541-11.426,8.691-6.349,3.9-6.348,7.52a9.553,9.553,0,0,0,.977,3.906h0Zm129.2,10.059a5.613,5.613,0,0,0,2.149-.684h0.683q-1.464-3.028-6.689-5.518a106.573,106.573,0,0,0-10.5-4.345q-9.082-3.224-25.684-12.11-10.938-5.664-22.07-10.693a116.771,116.771,0,0,0-22.363-7.568c-0.066.259-.163,0.586-0.293,0.976s-0.278.781-.44,1.172a8.209,8.209,0,0,1-.537,1.074q0.487,1.269,4.346,2.784t8.545,3.125a70.178,70.178,0,0,1,7.129,2.783q19.822,10.35,40.234,19.629,3.9,1.464,8.2,3.027a47.033,47.033,0,0,1,14.453,6.348h2.832Zm37.891-97.95a4.719,4.719,0,0,0,1.953-.488h1.172q-1.662-3.026-3.613-5.957a39.562,39.562,0,0,1-7.031-14.16h-2.54l-1.855,1.172H233.14a32.511,32.511,0,0,0,5.078,10.938,58.872,58.872,0,0,0,7.52,8.5h0.488Zm6.348,3.223a62.365,62.365,0,0,1,11.035-8.4A95.617,95.617,0,0,0,278.355,68.08q4.2-4.2,8.691-7.91a281.642,281.642,0,0,0,23.34-19.434V38.881a5.917,5.917,0,0,0-.244-1.758,2.592,2.592,0,0,0-1.611-1.367A85.385,85.385,0,0,1,297.5,44.74a101.331,101.331,0,0,0-12.6,10.449,74.948,74.948,0,0,1-13.086,10.644,42.52,42.52,0,0,0-10.547,8.887h-1.172q2.344-14.159,3.223-17.871a30.431,30.431,0,0,1,3.027-8.594,14.47,14.47,0,0,0-.537-4.541,16.913,16.913,0,0,0-2-3.662h-1.172q-3.222,7.423-5.175,20.313-2.833,18.75-6.739,23.145l-0.195.293q0,3.321,1.074,4.395c0.064,0,.1.017,0.1,0.049s0.064,0.049.195,0.049a2.27,2.27,0,0,1,.684.2h0Zm36.816,80.469a57.236,57.236,0,0,0,11.621-1.172,35.314,35.314,0,0,1,7.764-.977,41.468,41.468,0,0,0,8.447-1.074l17.09-3.808q11.229-2.248,21.484-5.079a71.8,71.8,0,0,0,18.653-8.007,4.293,4.293,0,0,0-.586-2.051V146.3a24.3,24.3,0,0,0-10.352,2.832,46.2,46.2,0,0,1-12.6,4.2q-3.516.879-6.641,1.855l-42.09,8.008a58.817,58.817,0,0,1-12.6,1.367,68.1,68.1,0,0,1-10.156-.781q-11.622-2.05-16.113-8.1-3.42-5.665-3.418-14.747a72.081,72.081,0,0,1,2.051-17.871,62.685,62.685,0,0,0,.879-6.25l0.488-4.394-0.195-.293a12.12,12.12,0,0,0-.1-1.66,1.832,1.832,0,0,0-.684-1.172,1.739,1.739,0,0,0-1.074-.488,3.141,3.141,0,0,0-1.074.146,7.814,7.814,0,0,0-.781.342,55.069,55.069,0,0,1,7.617-10.059,7.018,7.018,0,0,0-.293-1.758q-0.292-1.073-2.246-1.562l-1.856-1.074q-6.348,1.369-15.234,6.25Q233.336,108.8,226.89,108.8a11.281,11.281,0,0,1-4.492-.879l-0.293.39v0.1l-0.391.195a7.922,7.922,0,0,0,.684,3.809,5.52,5.52,0,0,0,1.855.976,7.029,7.029,0,0,1,1.856.879q2.637-.684,8.594-2.734t11.67-4.59q5.712-2.541,7.373-4h2.05a127.648,127.648,0,0,1-14.16,17.774,145.249,145.249,0,0,0-10.547,12.4l-4.687,6.348q-7.716,9.862-10.059,14.55a22.977,22.977,0,0,1-3.32,5.567l0.488,5.664,2.051,0.488a176.041,176.041,0,0,0,15.723-21.387q3.9-6.055,8.007-11.816a50.731,50.731,0,0,1,6.055-6.543,32.541,32.541,0,0,0,9.082-11.719h2.539l-0.879,8.594a111.017,111.017,0,0,0-1.367,17.285l0.195,5.176q0.683,11.034,8.4,17.383,8.885,6.248,26.074,6.25h0Zm132.52-19.141q7.713-14.552,8.593-20.215a10.266,10.266,0,0,1,1.661-4.59,10.693,10.693,0,0,0-.245-2.587q-0.245-.93-0.488-1.612a15.219,15.219,0,0,1-.439-1.465l-3.125-.683a208.163,208.163,0,0,0-11.231,30.371l-0.683,2.344,0.683,0.293a9.025,9.025,0,0,0,2.344.976,0.544,0.544,0,0,1,.293.2,0.54,0.54,0,0,0,.342.195,2.345,2.345,0,0,1,.635.195Zm-50.2-60.156-0.488.684h0.586Zm95.02-39.746a8.241,8.241,0,0,0-1.611-5.322,16.574,16.574,0,0,0-4.2-3.613,22.635,22.635,0,0,1-4.736-3.955q-1.075-.1-2.148-0.293a11.548,11.548,0,0,0-2.051-.2,2.624,2.624,0,0,0-1.563.488,15.627,15.627,0,0,0-1.855.488,15.02,15.02,0,0,0,6.738,4.785,19.016,19.016,0,0,1,5.859,3.516,27.477,27.477,0,0,1,3.028,5.664h2.539V49.916Zm-0.488,54.98q4.1-1.267,8.886-8.008t8.692-13.281l3.613-5.859a7,7,0,0,0-.049-0.732,2.463,2.463,0,0,0-.244-0.83,3.987,3.987,0,0,0-2.051-.879l-1.269-.586q-1.662.586-11.817,6.592T460.484,88.49h-1.856a46.278,46.278,0,0,1,2.686-7.373q2-4.541,4.346-8.691a26.051,26.051,0,0,1,4.2-5.908,7.856,7.856,0,0,0-.244-2.344,4.775,4.775,0,0,0-.928-1.465,5.473,5.473,0,0,1,2.979-2.49,34.1,34.1,0,0,1,4.248-1.367,38.564,38.564,0,0,0,4-1.221A176.248,176.248,0,0,0,505.7,46.4c0-.2-0.017-0.455-0.049-0.781a8.259,8.259,0,0,0-.147-0.928,1.458,1.458,0,0,0-.39-0.732,21.528,21.528,0,0,0-3.028.781q-10.743,3.223-25.488,8.691Q452.476,62.22,429.625,71.6a27.716,27.716,0,0,1-5.665,1.416,16.341,16.341,0,0,0-5.468,1.758q-2.442,1.318-3.223,5.517a7.045,7.045,0,0,1,1.758.635q0.585,0.343.976,0.537a2.16,2.16,0,0,0,.977.2,11.158,11.158,0,0,0,4-2.783,12.5,12.5,0,0,1,7.226-2.979,20.572,20.572,0,0,0,4.737-1.318q2.586-1.025,5.81-2.49,8.886-4,13.233-4.932a22.684,22.684,0,0,0,7.666-3.076h1.367a49.2,49.2,0,0,1-5.859,12.207l-3.028,5.371L451.6,88.49q0.39,1.369.635,2.1a4.582,4.582,0,0,0,.635,1.27q0.388,0.538.781,1.025A32.048,32.048,0,0,0,465.806,90.2a29.879,29.879,0,0,0,9.131-6.006h1.27L464.878,99.232a11.041,11.041,0,0,0,1.368,5.664h0ZM373.179,81.654a59.045,59.045,0,0,0,8.692-1.367,78.355,78.355,0,0,1,15.136-1.855V77.748h0.684V75.892a47.71,47.71,0,0,0-6.738-.488,32.832,32.832,0,0,0-3.614.2,30.688,30.688,0,0,1-3.418.2,32.973,32.973,0,0,1-8.2-1.074,18.778,18.778,0,0,1-4.492,3.027,7.441,7.441,0,0,0,.537,1.611q0.243,0.439.44,0.781a7.481,7.481,0,0,0,.439.683c0.162,0.229.342,0.505,0.537,0.83h0Zm4.4,12.4q13.377-.879,18.261-4.2a2.118,2.118,0,0,1,.733-0.439,1.29,1.29,0,0,0,.586-0.391,2.528,2.528,0,0,1,1.221-.537V86.635q-4.591,0-19.532,2.734a42.657,42.657,0,0,0-6.738,1.465q-1.076.49-2.051,0.879a4.353,4.353,0,0,1-.293.635,1.614,1.614,0,0,1-.2.244,0.281,0.281,0,0,0-.1.2,0.086,0.086,0,0,1-.1.1v0.684a31.178,31.178,0,0,0,6.152.488h2.051Zm110.449,61.816a97.52,97.52,0,0,0,24.609-3.223,29.572,29.572,0,0,1,5.03-.537,32.668,32.668,0,0,0,4.589-.391,7.533,7.533,0,0,0,3.565-1.513H526.5v-0.684h-0.684q-1.758-1.855-5.664-1.855a32.866,32.866,0,0,0-8.692,1.172,71.774,71.774,0,0,1-14.453,1.855h-6.64a72.544,72.544,0,0,1-17.285-1.855,51.118,51.118,0,0,1-.977-10.059,49.277,49.277,0,0,1,1.465-12.695,20.612,20.612,0,0,0,1.367-7.129,5.533,5.533,0,0,0-.684-2.832v-1.66q-0.684-.978-3.027-0.977l-3.223.2v0.1a9.856,9.856,0,0,1-1.757,2.344,4.267,4.267,0,0,1,.293.781,0.418,0.418,0,0,0,.341.195q0.342,0.1.489,0.147T468,117.494q-0.489,5.859-1.269,11.035a64.4,64.4,0,0,0-1.367,13.77l0.195,5.859q8.5,7.713,15.234,7.715h7.227Zm-46.484-8.2q2.244-.978,4.882-6.592a54.954,54.954,0,0,0,3.76-10.254,32.651,32.651,0,0,0,1.123-6.787,7.885,7.885,0,0,0-.683-3.516,4.658,4.658,0,0,0-1.27-1.758,4.953,4.953,0,0,0-1.953-.585l-0.1-.2a58,58,0,0,0-3.174,7.569,93.51,93.51,0,0,0-3.173,10.156,31.171,31.171,0,0,0-1.075,6.592,7.739,7.739,0,0,0,.342,2.588c0.228,0.618.391,1.04,0.488,1.269a2.747,2.747,0,0,0,.44.684,1.79,1.79,0,0,1,.391.83h0Zm-93.457,9.375a15.733,15.733,0,0,0,6.982-4,72.529,72.529,0,0,0,5.908-6.348q3.125-4.4,5.42-5.664t8.643-7.91a96.329,96.329,0,0,1,11.23-10.645,26.169,26.169,0,0,0,4.639-4.638A26.564,26.564,0,0,1,395.835,113q0.195-2.834.489-5.567a11.1,11.1,0,0,0-6.446,2.1,21.216,21.216,0,0,0-4.2,4.346,21.145,21.145,0,0,1-3.808,4.1q-12.99,11.229-25.293,23.34l-9.864,9.375v1.367a7.252,7.252,0,0,0,.489,2.881q0.488,1.122.879,2.1h0Zm310.742,25.683a10.462,10.462,0,0,0,6.494-3.076,29.365,29.365,0,0,0,4.248-5.615q1.758-3.029,9.424-11.377a176.979,176.979,0,0,0,14.6-18.262q6.933-9.912,7.422-20.166a8.08,8.08,0,0,1-1.953-2.441,41.187,41.187,0,0,0-13.769-2.051l-4.395.2a22.418,22.418,0,0,1,7.422-8.886,29.64,29.64,0,0,0,5.176-5.078l1.855-2.442a40.354,40.354,0,0,1,9.375-10.644v-1.27a6.406,6.406,0,0,1,.684-3.223l-0.2-2.637a3.047,3.047,0,0,0-1.171-1.66,6.81,6.81,0,0,1-2.637.293,1.75,1.75,0,0,0-1.074.293v0.684a23.781,23.781,0,0,0-3.809,5.762,41.216,41.216,0,0,1-3.027,4.785,53.8,53.8,0,0,1-6.836,6.445A36.12,36.12,0,0,0,676.6,113.685a23.661,23.661,0,0,1-3.222,4.883,6.187,6.187,0,0,0,.976,2.979,6.654,6.654,0,0,0,1.514,1.367q0.828,0.535,1.9,1.318l10.059-.1a22.8,22.8,0,0,1,5.664.781,32.43,32.43,0,0,1-8.008,15.234l-2.734,3.516-5.86,8.4q-8.692,13.28-18.555,25.684a20.229,20.229,0,0,0,.489,4.98h0ZM534.605,122.767a2.415,2.415,0,0,0,.879-0.195,4.141,4.141,0,0,1,1.465-.2,4.479,4.479,0,0,0,.39-1.465,3.156,3.156,0,0,0-.2-1.172,3.143,3.143,0,0,1-.2-1.172A86.566,86.566,0,0,0,551.7,113.2q8.691-4.4,28.515-10.351l9.571-3.028q10.35-3.417,21.094-6.055a168.718,168.718,0,0,0,37.89-12.891V78.822q0-.488-1.172-0.977l-1.074-.2q-1.662,0-5.273,2.051a101.408,101.408,0,0,1-14.942,4q-13.966,2.541-18.262,5.371h-0.683a50.273,50.273,0,0,1,.83-6.543,24.774,24.774,0,0,0,.586-4.053q0.048-1.513.049-2a34.926,34.926,0,0,0-.293-4.3l1.66-.684a13.387,13.387,0,0,0,4-1.856,16.7,16.7,0,0,1,1.074,2.148,5.18,5.18,0,0,0,1.465,2.832l1.367,0.684a31.713,31.713,0,0,1,4.981-4.492,27.853,27.853,0,0,1,.39-4,148.341,148.341,0,0,0,1.27-18.457q0-10.936-4.492-14.258l-1.661-1.465a31.728,31.728,0,0,0-5.371-.488,21.211,21.211,0,0,0-14.746,5.469,7.892,7.892,0,0,1-1.318-2.93,7,7,0,0,0-1.221-2.734,9.313,9.313,0,0,0-4.3-1.855,2.073,2.073,0,0,1-1.172,1.172v6.543q0,2.541-.2,4.688a9.774,9.774,0,0,1-2.344,5.664,5.156,5.156,0,0,0,.489,2.734,4.052,4.052,0,0,0,1.367,1.172,2.971,2.971,0,0,1-1.074.293h-0.1a0.848,0.848,0,0,0-.684.391,3.825,3.825,0,0,0-1.318,2.051,5.42,5.42,0,0,1-1.221,2.246q0,2.834,1.563,2.832a8.59,8.59,0,0,1,1.465.879,4.98,4.98,0,0,1,.2,1.66,28.369,28.369,0,0,1-.879,5.176l-0.488,3.223H584.7l0.683,4.98a14.006,14.006,0,0,1,7.52,3.223,14.472,14.472,0,0,0,7.617-4.394H601.7a25.826,25.826,0,0,0-1.074,6.543,23.5,23.5,0,0,1-2.149,9.277q-1.464,2.344-11.914,4.492a51.15,51.15,0,0,0-6.152,1.66l-11.914,4.882q-25.686,10.35-29.2,11.426a42.486,42.486,0,0,0-4.98,1.807,18.051,18.051,0,0,0-4.883,3.369,3.439,3.439,0,0,0,.1.732,1.231,1.231,0,0,0,.244.586,2.2,2.2,0,0,1,.342.537,5.238,5.238,0,0,0,3.711,2.442,1.44,1.44,0,0,0,.781.39h0ZM597.3,52.748a3.481,3.481,0,0,0,.2-0.732c0-.1.015-0.147,0.048-0.147s0.049-.064.049-0.2l0.391-.293V50.5q0-5.175,1.9-7.178a12.494,12.494,0,0,1,4.834-3.076,22.308,22.308,0,0,0,5.86-3.32q3.514,0.391,3.808,3.027a11.408,11.408,0,0,0,1.172,2.734v4.98a72.519,72.519,0,0,0-9.766,2.148,17.515,17.515,0,0,0-5.957,2.93H597.3Zm-4.98,17.578a9.679,9.679,0,0,1,.732-2.2q0.734-1.806,1.758-4.1t1.66-3.955a9.046,9.046,0,0,1,.83-1.855,23.891,23.891,0,0,1,8.4-2.978,22.424,22.424,0,0,0,8.5-3.174q1.56,1.172,1.562,7.715a14.187,14.187,0,0,1-.195,3.027,7.49,7.49,0,0,1-4.346,3.32,37.081,37.081,0,0,1-6.591,1.465,23.167,23.167,0,0,0-8.692,2.734H592.32ZM668.882,100.5a8.231,8.231,0,0,0,4.639-2.442,17.29,17.29,0,0,0,2.588-4.1q2.146-4.589,8.008-11.426a60.5,60.5,0,0,0,8.008-11.719,13.744,13.744,0,0,0,1.074-5.371,5.808,5.808,0,0,1,.293-2.149,2.14,2.14,0,0,0-.342-1.172h-0.244a0.533,0.533,0,0,1-.293-0.2l0.195-1.172-4.394-.488-4.786,7.324A96.507,96.507,0,0,0,673.375,85.56a51.846,51.846,0,0,1-4.981,9.863,22.318,22.318,0,0,0,.488,5.078h0ZM547.691,193.959a7.4,7.4,0,0,0,4.639-2.246,41.07,41.07,0,0,0,3.662-4.346,22.631,22.631,0,0,1,3.613-3.955q7.031-5.859,13.867-11.914,10.058-8.986,20.606-17.09,1.367-.978,3.027-1.953,7.713-5.079,9.57-9.277,2.345,1.56,2.344,10.449a17.475,17.475,0,0,1-.488,4.687,3.419,3.419,0,0,1,1.367.537,7.933,7.933,0,0,0,1.66.782,12.866,12.866,0,0,0,2.637.537,30.105,30.105,0,0,0,.195-3.955q0-2.589.147-5.274a8.433,8.433,0,0,1,1.025-4.053v-3.222a35.974,35.974,0,0,0,11.23,1.758q9.862,0.487,12.6,2.148a9.961,9.961,0,0,0,3.809-.684,5.365,5.365,0,0,0-4-4.541,27.341,27.341,0,0,0-6.836-.83h-1.172q-8.107,0-10.742-2.636-0.879-1.563-1.856-1.563a3.534,3.534,0,0,0-1.855.879h-1.172v-4a75.753,75.753,0,0,0-.684-10.644q3.516-1.466,6.641-3.125t5.957-3.028v-2.539q-5.372,0-8.2,2.539h-0.684l8.2-8.886a7.663,7.663,0,0,0-.683-3.711q-1.954-4-5.859-4-4.007,0-10.352,2.539-5.763,1.854-7.617,1.855a3.89,3.89,0,0,1-1.758-.39h-1.367v-1.856H597.3q-3.222.587-4.98,7.422a34.575,34.575,0,0,0-1.563,8.691v3.516q0,4.882,1.563,6.738v1.368a5.18,5.18,0,0,0,3.174-1.026,5.088,5.088,0,0,0,1.123-2.881,7.032,7.032,0,0,1,2.343.879,7.866,7.866,0,0,1,1.563,1.66,12.353,12.353,0,0,0,3.418-.341,4.555,4.555,0,0,0,2.051-1.514h1.367q-0.2,6.054-3.027,9.228a28.911,28.911,0,0,1-6.739,5.518,29.3,29.3,0,0,0-4.687,3.516q-16.017,14.063-33.3,26.953a42.493,42.493,0,0,0-6.982,7.324,37.268,37.268,0,0,1-6.983,7.129,13.919,13.919,0,0,0,2.051,6.836h0Zm50.781-73.34L601.011,113q2.148-3.516,9.375-4.688a22.376,22.376,0,0,0,7.031-2.343,2.759,2.759,0,0,1,.684,1.66q0,2.343-5.859,6.054-3.42,2.052-6.543,3.711a27.31,27.31,0,0,0-5.176,3.223h-2.051Z"/>
</svg>
