<svg xmlns="http://www.w3.org/2000/svg" width="650" height="350" viewBox="0 0 650 350">
  <defs>
    <style>
      .cls-1 {
        fill: #fff;
        fill-rule: evenodd;
      }
    </style>
  </defs>
  <path id="奇事" class="cls-1" d="M204.7,304.9q-2.4-8.4-7.5-13.2a38.412,38.412,0,0,0-10.5-7.8l-4.5-1.8H184q3.3,0.3,9,.6t6,0.3q2.7,0,6.15.3c2.3,0.2,3.647.3,4.05,0.3a18.708,18.708,0,0,0,6.3-1.5l1.5-1.5a12.291,12.291,0,0,0,1.2-6v-114a7.577,7.577,0,0,0-1.8-5.1,5.694,5.694,0,0,0-4.5-2.1H32.8l-0.3-1.8h9.3a5.994,5.994,0,0,0,5.1-2.4,6.894,6.894,0,0,0,4.8,2.4H229.9q5.4,0,6.6-4.5,2.1,4.5,6,4.5h6a6.548,6.548,0,0,0,5.4-2.7l3.9-5.4a6.186,6.186,0,0,0,1.2-5.4q2.7,0,5.4-2.7l8.4-12c1,0.4,1.5.8,1.5,1.2q9,6.9,10.5,8.1,2.1,1.8,6.45,5.4t6.45,5.4q7.2,6,10.5,9a12.88,12.88,0,0,1-4.5.9H263.5a7.17,7.17,0,0,0-7.2,7.2V275.2a69.76,69.76,0,0,1-3.6,22.2q-3.3,8.7-13.8,13.8-11.4,5.1-32.4,7.2-0.9-8.1-1.8-13.5h0ZM70.9,174.7l36.9,14.7a7.76,7.76,0,0,0,2.4.3h27q3.9,0,5.1-2.1l15.6-17.4,32.4,25.5a0.616,0.616,0,0,1-.15.45l-0.45.45a14.91,14.91,0,0,1-2.1.75,9.069,9.069,0,0,0-2.4,1.05q-4.8.9-4.8,6.6v58.5a3.7,3.7,0,0,1-.9.6,12.616,12.616,0,0,1-1.5.6,7.353,7.353,0,0,0-1.8.9,26.653,26.653,0,0,1-4.8,1.8q-4.8,2.1-3.9,7.8a11.086,11.086,0,0,0-2.1-2.7,7.671,7.671,0,0,0-4.5-1.8,3.307,3.307,0,0,0-1.5.3,43.427,43.427,0,0,1-10.5,1.2H145v-9.3a7.561,7.561,0,0,0-1.8-5.1,6,6,0,0,0-4.8-2.1H111.7a6.4,6.4,0,0,0-4.8,2.25,7.1,7.1,0,0,0-2.1,4.95v13.5a39.78,39.78,0,0,1-3.6,2.7,48.053,48.053,0,0,1-12.3,5.4A55.874,55.874,0,0,1,73,286.9H70.9V174.7Zm36.15,19.05A7.2,7.2,0,0,0,104.8,199v47.7a7.1,7.1,0,0,0,2.1,4.95,6.4,6.4,0,0,0,4.8,2.25h26.7a6.018,6.018,0,0,0,4.8-2.1,7.572,7.572,0,0,0,1.8-5.1V199a7.783,7.783,0,0,0-1.95-5.25,5.967,5.967,0,0,0-4.65-2.25H111.7A6.6,6.6,0,0,0,107.05,193.745ZM167.8,277a1.206,1.206,0,0,0,.6,1.2h-0.6V277Zm63.9-139.8a17.613,17.613,0,0,1-3-.6q-1.2-1.5-14.7-15-6.6-6-22.8-19.2h-0.3q-6.3-4.5-17.7-11.7a7.52,7.52,0,0,0-3.3-.6q-3.3,0-4.5,1.8-3.6,3-10.2,9-16.5,12.3-43.2,22.2a324.989,324.989,0,0,1-49.5,12.3,179.5,179.5,0,0,0,35.4-16.5q20.7-12.9,31.8-28.2a73.2,73.2,0,0,0,5.7-9.3,6.006,6.006,0,0,0,0-7.2q-2.1-3.6-5.7-3.6H44.8l-0.6-2.1h92.1q5.4,0,6.9-5.1a12.767,12.767,0,0,1,.3-2.4,12.912,12.912,0,0,0,.3-2.1,146.978,146.978,0,0,0,3.6-29.7l51.3,5.7a14.787,14.787,0,0,1-4.5,1.5q-3.9.9-5.4,6a71.433,71.433,0,0,1-3.9,16.5,6.474,6.474,0,0,0,.6,6.6,6.874,6.874,0,0,0,6,3h36.9a7.16,7.16,0,0,0,5.1-2.4l20.4-26.7a5.948,5.948,0,0,0,1.8,1.5,254.1,254.1,0,0,1,24.6,19.8q8.4,6,11.1,9a8.608,8.608,0,0,1-3.9.9H184q-3.6,0-5.7,3.6a1.725,1.725,0,0,0-.6,1.2q-2.7,3,0,7.2a6.283,6.283,0,0,0,6,3.3,151.221,151.221,0,0,1,28.5,2.7q18.6,3.6,29.1,11.1,9.6,7.5,11.7,15a21.057,21.057,0,0,1-.6,13.2,8.2,8.2,0,0,0-.9,4.2,6.08,6.08,0,0,0-3.6,1.8,24.767,24.767,0,0,1-5.4,3,2.665,2.665,0,0,1-1.2.3,14.131,14.131,0,0,0-4.8,4.5q-0.9-2.7-4.8-4.5h0Zm210,167.4a30.706,30.706,0,0,0-7.2-13.2q-6.6-6-11.1-8.1-0.6-.3-4.5-2.4a2.929,2.929,0,0,0,2.1.6q2.7,0,7.65.15t7.65,0.45q3,0,6.15.15c2.1,0.1,3.347.15,3.75,0.15a13.472,13.472,0,0,0,5.7-.9q1.8-.9,3.3-4.2a17.009,17.009,0,0,0,.6-3.9V259a7.774,7.774,0,0,0-1.95-5.25,5.967,5.967,0,0,0-4.65-2.25H370l-0.6-2.1h79.8a6.341,6.341,0,0,0,4.65-1.95,6.71,6.71,0,0,0,1.95-4.95V222.1a7.783,7.783,0,0,0-1.95-5.25,5.967,5.967,0,0,0-4.65-2.25H340.3l-0.3-1.8H449.2a6.134,6.134,0,0,0,4.65-2.1,7.225,7.225,0,0,0,1.95-5.1V184.9a7.783,7.783,0,0,0-1.95-5.25,5.967,5.967,0,0,0-4.65-2.25H371.8l-0.3-1.8h77.7a6.134,6.134,0,0,0,4.65-2.1,7.225,7.225,0,0,0,1.95-5.1V148a7.239,7.239,0,0,0-1.95-5.1,6.147,6.147,0,0,0-4.65-2.1H418.9a6.465,6.465,0,0,0-4.95,2.1A7.217,7.217,0,0,0,412,148v1.8a1.223,1.223,0,0,0-.75.45,9.059,9.059,0,0,1-1.35,1.05,19.233,19.233,0,0,1-2.1,1.2,57.685,57.685,0,0,1-13.5,5.1,48.409,48.409,0,0,1-16.5,2.7h-2.4v-77.7l41.1,15.9a5.618,5.618,0,0,0,1.8.3h30.9a6.132,6.132,0,0,0,4.65-2.1,7.224,7.224,0,0,0,1.95-5.1v-16.8a7.24,7.24,0,0,0-1.95-5.1,6.148,6.148,0,0,0-4.65-2.1H375.7a5.379,5.379,0,0,0-3.3.9,4.4,4.4,0,0,0-2.7-.9H341.5l-0.3-1.8h108a6.132,6.132,0,0,0,4.65-2.1,7.224,7.224,0,0,0,1.95-5.1v-29.1l46.5,4.5H502a6.012,6.012,0,0,1-3.3,1.8q-5.4,2.1-5.4,7.2v15.6a7.2,7.2,0,0,0,1.95,5.1,6.45,6.45,0,0,0,4.95,2.1h49.2q2.4,0,4.5-2.7l19.5-24.6,1.5,1.5a82.541,82.541,0,0,1,10.5,7.8q10.5,7.5,13.5,10.5,1.2,0.9,3.45,2.7t4.05,3.3q1.8,1.5,3,2.7a10.257,10.257,0,0,1-4.2.6H559a6.885,6.885,0,0,0-6,3q-2.4-3-5.1-3H500.2a6.466,6.466,0,0,0-4.95,2.1,7.218,7.218,0,0,0-1.95,5.1v16.8a7.2,7.2,0,0,0,1.95,5.1,6.45,6.45,0,0,0,4.95,2.1H532a6.311,6.311,0,0,0,5.4-2.4l15-16.8,0.6-.6a1.188,1.188,0,0,0,.6.75,3.033,3.033,0,0,1,.9,1.05l31.2,23.7a0.266,0.266,0,0,1-.3.3,20.176,20.176,0,0,1-3,1.5q-5.4,2.1-5.4,7.2v28.8a18.315,18.315,0,0,1-3.6,2.1q-5.4,2.1-14.1,4.5-4.5,1.5-5.1,5.7-1.5,4.5,2.7,7.2l24.6,19.5-0.3.3a4.593,4.593,0,0,0-1.8.6,15.75,15.75,0,0,1-2.1.9q-3.9,1.2-3.9,6.9v5.1q0,5.7,3.9,7.2h2.4a6.605,6.605,0,0,0,5.7-3l5.1-7.5a6.578,6.578,0,0,0,1.2-4.2l3.6,3.3q7.5,7.5,12.6,12L619,214a11.317,11.317,0,0,1-4.5.6H579.7q-6.3,0-6.3,7.5V262a19.151,19.151,0,0,0-4.2,2.1,111.5,111.5,0,0,1-13.2,4.8,50.759,50.759,0,0,1-14.1,2.4h-4.2V259a7.62,7.62,0,0,0-1.95-5.4,6.463,6.463,0,0,0-4.95-2.1H500.2a6.448,6.448,0,0,0-4.95,2.1,7.6,7.6,0,0,0-1.95,5.4v15.6a61.968,61.968,0,0,1-3.9,22.8q-3,8.4-13.5,14.1-9.9,4.5-32.1,6.9,0-.3-2.1-13.8h0Zm53.55-87.9a7.611,7.611,0,0,0-1.95,5.4v20.4a6.672,6.672,0,0,0,6.9,6.9h30.6a6.672,6.672,0,0,0,6.9-6.9V222.1a7.633,7.633,0,0,0-1.95-5.4,6.48,6.48,0,0,0-4.95-2.1H500.2A6.465,6.465,0,0,0,495.25,216.7Zm0-37.05a7.759,7.759,0,0,0-1.95,5.25v20.7a7.2,7.2,0,0,0,1.95,5.1,6.452,6.452,0,0,0,4.95,2.1h30.6q6.9,0,6.9-7.2V184.9a7.783,7.783,0,0,0-1.95-5.25,6.273,6.273,0,0,0-4.95-2.25H500.2A6.259,6.259,0,0,0,495.25,179.645Zm0-36.75a7.217,7.217,0,0,0-1.95,5.1v20.4a7.6,7.6,0,0,0,1.95,5.4,6.452,6.452,0,0,0,4.95,2.1h30a8.474,8.474,0,0,0,5.1-2.1l9-10.5q3.6-2.7,1.5-7.8-1.5-3.6-6-4.2V148q0-7.2-6.6-7.2h-33A6.465,6.465,0,0,0,495.25,142.9Zm0-40.2a7.217,7.217,0,0,0-1.95,5.1v24a7.2,7.2,0,0,0,1.95,5.1,6.452,6.452,0,0,0,4.95,2.1h33q6.6,0,6.6-7.2v-24q0-7.2-6.6-7.2h-33A6.465,6.465,0,0,0,495.25,102.7Zm-81.3,0a7.217,7.217,0,0,0-1.95,5.1v24a7.2,7.2,0,0,0,1.95,5.1,6.452,6.452,0,0,0,4.95,2.1h30.3a6.134,6.134,0,0,0,4.65-2.1,7.225,7.225,0,0,0,1.95-5.1v-24a7.239,7.239,0,0,0-1.95-5.1,6.147,6.147,0,0,0-4.65-2.1H418.9A6.465,6.465,0,0,0,413.95,102.7Z"/>
</svg>
