<svg xmlns="http://www.w3.org/2000/svg" width="4588" height="200" viewBox="0 0 4588 200">
  <defs>
    <style>
      .cls-1 {
        fill: #fff;
        fill-rule: evenodd;
      }
    </style>
  </defs>
  <path id="即便向往着天边的那座花园_也别忘记就开在窗口的那朵玫瑰" data-name="即便向往着天边的那座花园, 也别忘记就开在窗口的那朵玫瑰" class="cls-1" d="M96.273,22l16.833,7.333a3.276,3.276,0,0,0,1.5.333h20.5a3.534,3.534,0,0,0,3.167-1.5l6.833-7.833,15.5,12H160.44a3.558,3.558,0,0,1-1.167.667c-0.557.224-.945,0.391-1.167,0.5a3.427,3.427,0,0,0-2.25,1.25,3.649,3.649,0,0,0-.916,2.417v85.167a46.2,46.2,0,0,1-1.167,11.333,11.789,11.789,0,0,1-5.667,6.667q-3.835,2.5-12.666,3.5,0-.669-0.334-3.25t-0.5-3.584a15.048,15.048,0,0,0-2.5-6.5,14.329,14.329,0,0,0-4.833-4.833c-0.224-.109-0.445-0.221-0.667-0.333a3.481,3.481,0,0,0-.666-0.25,1.026,1.026,0,0,1-.5-0.25c0.666,0,1.583.057,2.75,0.166s2.026,0.167,2.583.167h3.833a4.5,4.5,0,0,0,2.167-.333,3.161,3.161,0,0,0,2.5-2.167,5.846,5.846,0,0,0,.5-2.833v-85a4.151,4.151,0,0,0-1.167-2.917,3.735,3.735,0,0,0-2.833-1.25H115.44a3.729,3.729,0,0,0-2.834,1.25,4.141,4.141,0,0,0-1.166,2.917V168.666l-1.334,1.5a20.788,20.788,0,0,1-5.166,2.667A19.536,19.536,0,0,1,97.606,174H96.273V22ZM15.44,144.333a13.251,13.251,0,0,0,1.167-6.167V22L34.94,29a2.712,2.712,0,0,0,1.5.333h24a4.144,4.144,0,0,0,3-1.333l7.333-8.167L86.606,32.166H86.273a0.481,0.481,0,0,1-.333.167,19.491,19.491,0,0,1-2.5,1.167q-2.836.5-2.833,3.667V99q-0.168.168-1.667,1.167a21.672,21.672,0,0,0-2.833.917q-2,.75-3.167,1.083a23.747,23.747,0,0,1-6.5,1h-1.5V97a3.983,3.983,0,0,0-4-4H35.606a4.013,4.013,0,0,0-2.833,1.083A3.789,3.789,0,0,0,31.606,97v39.334a4.1,4.1,0,0,0,1.667,3.333,4.675,4.675,0,0,0,2.333.667,5.126,5.126,0,0,0,1.5-.167q5-2.167,11.167-4.667l0.167-.166q8-3.333,12.167-5a4.252,4.252,0,0,0,2-2.167,3.554,3.554,0,0,0,0-3q-0.168-.665-0.583-1.833t-0.583-1.5A143.675,143.675,0,0,0,54.94,109a67.989,67.989,0,0,1,16.833,12.834,42.074,42.074,0,0,1,10,14.333q3,7,2.833,12.333a15.773,15.773,0,0,1-2.833,8.334,6.223,6.223,0,0,1-5.333,2.833H76.273q-3,0-6.333-2.833a75.109,75.109,0,0,0-2.5-17.334q-0.168-.667-0.5-1.916t-0.5-1.917A4.525,4.525,0,0,0,63.773,133a4.408,4.408,0,0,0-1.333-.166,3.391,3.391,0,0,0-2.5,1q-3.836,3.667-8.333,7.333-10.5,9.332-24.833,20a5.564,5.564,0,0,0-1.333,1.5c-0.112.221-.25,0.526-0.417,0.917a2.779,2.779,0,0,1-.417.75q-0.836,1-2.333,2.5L11.606,148a11.135,11.135,0,0,0,3.833-3.666h0ZM32.773,62.5a3.858,3.858,0,0,0-1.167,2.833V87.666a4.135,4.135,0,0,0,1.167,2.917,3.728,3.728,0,0,0,2.833,1.25H60.94a3.735,3.735,0,0,0,2.833-1.25,4.146,4.146,0,0,0,1.167-2.917V65.333a3.983,3.983,0,0,0-4-4H35.606A3.86,3.86,0,0,0,32.773,62.5Zm0-30.667a3.859,3.859,0,0,0-1.167,2.833v21.5a4.052,4.052,0,0,0,1.167,3,3.85,3.85,0,0,0,2.833,1.167H60.94a3.858,3.858,0,0,0,2.833-1.167,4.062,4.062,0,0,0,1.167-3v-21.5a3.8,3.8,0,0,0-1.167-2.917,4.021,4.021,0,0,0-2.833-1.083H35.606A3.86,3.86,0,0,0,32.773,31.833ZM198.44,91.666A3.671,3.671,0,0,0,195.773,88a4.193,4.193,0,0,0-1.5-.167A3.859,3.859,0,0,0,191.44,89a105.8,105.8,0,0,1-14,13.167,169.653,169.653,0,0,0,11.833-21.833,279.2,279.2,0,0,0,12.5-31.167,295.316,295.316,0,0,0,8.667-31.333l23.333,7a1.475,1.475,0,0,1-.667.167q-3.336,1.668-2.5,4.667a3.706,3.706,0,0,0,4,3.333h72.5a3.056,3.056,0,0,0,3-1.667l9.667-12.667L320.44,19v0.167a22.931,22.931,0,0,0,2.5,2q1.832,1.336,2.833,2.167,1.164,0.836,3.417,2.833T332.606,29q1.332,1,5.5,4.333a4.428,4.428,0,0,1-2.5.5H292.44a3.822,3.822,0,0,0-2.75,1.25A4,4,0,0,0,288.44,38V53a4.3,4.3,0,0,0,4,4h15.166a4.322,4.322,0,0,0,3-1.5l7.667-8.333,16.5,12.5a1.913,1.913,0,0,1-.5.333,18.5,18.5,0,0,1-2.5,1.167q-2.837.5-2.833,3.833v50.334l-1.667.833a54.768,54.768,0,0,1-6.5,2,26.732,26.732,0,0,1-6.833.833h-1.667v-5.666a3.681,3.681,0,0,0-1.167-2.667,3.868,3.868,0,0,0-2.833-1.167h-16.5a3.526,3.526,0,0,0-2.583,1.084,4.2,4.2,0,0,0-1.25,2.583q-0.168,1.337-.417,4.167t-0.417,4.166a76.432,76.432,0,0,1-5.5,18.167,16.4,16.4,0,0,0-.916,1.667,12.526,12.526,0,0,1-1.084,1.833,3.828,3.828,0,0,0-.333,3.5,3.632,3.632,0,0,0,2.833,2.5h0.167a172.552,172.552,0,0,0,28.5,5.667q15.332,1.5,26.5,1.5a23.3,23.3,0,0,0-7.167,6.166,28.984,28.984,0,0,0-5.833,12.334,211.436,211.436,0,0,1-36.667-8.667,82.886,82.886,0,0,1-16.833-8.667,21.977,21.977,0,0,0-2.333-.833,4.434,4.434,0,0,0-2.167.833,87.47,87.47,0,0,1-17.167,9.667,181.074,181.074,0,0,1-22.833,7.333q12.164-5.667,18.667-10.5a55.5,55.5,0,0,0,13.166-12q2.332-2.335,0-5.333a77.453,77.453,0,0,1-12.666-18.833,54.309,54.309,0,0,0,12.833,11L258.44,139a3.578,3.578,0,0,0,1.166.667,4.682,4.682,0,0,0,1,.333,3.109,3.109,0,0,0,2,.667,4.379,4.379,0,0,0,1.334-.167,7.022,7.022,0,0,0,2.5-2.333,75.181,75.181,0,0,0,3.333-11.833q0.664-4.332,1.667-12.5a6.2,6.2,0,0,0-1-3.167,4.289,4.289,0,0,0-3.167-1.167H253.106a4.229,4.229,0,0,0-3,1.084,3.592,3.592,0,0,0-1.166,2.75v2.5a5.516,5.516,0,0,1-1.5,1.166,21.086,21.086,0,0,1-2.834,1.334,3.64,3.64,0,0,0-2.5,2.833A4.722,4.722,0,0,0,239.273,120H238.44a17.815,17.815,0,0,1-4.334.5h-1v-71l17.834,7,1.5,0.5h15.5a3.56,3.56,0,0,0,2.666-1.25A3.958,3.958,0,0,0,271.773,53V38a4.151,4.151,0,0,0-1.167-2.917,3.56,3.56,0,0,0-2.666-1.25h-35q-0.669-2.164-3.667-2.5h-0.167a3.737,3.737,0,0,0-3.5,2.5A212.275,212.275,0,0,1,213.773,58a8.3,8.3,0,0,0-.667,1.25,3.712,3.712,0,0,1-.666,1.083,4.046,4.046,0,0,0-.334,3.333,3.161,3.161,0,0,0,2.5,2.167l4.334,2h-0.334a2.7,2.7,0,0,1-.666.167,4.074,4.074,0,0,0-2.834,4V172a1.724,1.724,0,0,0-.166,1,1.321,1.321,0,0,0-.834-0.166,5.418,5.418,0,0,0-1.666.333A23.388,23.388,0,0,1,207.606,175a24.761,24.761,0,0,1-7.166,1.167h-2v-84.5Zm91.25-6.833a3.56,3.56,0,0,0-1.25,2.667V104a3.213,3.213,0,0,0,1.166,3,3.85,3.85,0,0,0,2.834,1.167h15.833a3.984,3.984,0,0,0,4-4V87.5a3.68,3.68,0,0,0-1.167-2.667,3.867,3.867,0,0,0-2.833-1.167H292.44A3.957,3.957,0,0,0,289.69,84.833Zm-39.5,0a3.56,3.56,0,0,0-1.25,2.667v16.667A3.725,3.725,0,0,0,250.19,107a4.132,4.132,0,0,0,2.916,1.167h14.5q3.832,0,4.167-4V87.5a3.994,3.994,0,0,0-3.833-3.833H253.106A4.144,4.144,0,0,0,250.19,84.833Zm39.5-25.667A3.733,3.733,0,0,0,288.44,62V78.333a3.726,3.726,0,0,0,1.25,2.833,3.945,3.945,0,0,0,2.75,1.167h15.833a3.984,3.984,0,0,0,4-4V62a3.984,3.984,0,0,0-4-4H292.44A3.956,3.956,0,0,0,289.69,59.166Zm-39.5,0A3.733,3.733,0,0,0,248.94,62V78.333a3.726,3.726,0,0,0,1.25,2.833,4.133,4.133,0,0,0,2.916,1.167H267.94a3.666,3.666,0,0,0,2.666-1.167,3.861,3.861,0,0,0,1.167-2.833V62a3.869,3.869,0,0,0-1.167-2.833A3.676,3.676,0,0,0,267.94,58H253.106A4.144,4.144,0,0,0,250.19,59.166ZM357.273,42.833l18.5,8a5.023,5.023,0,0,0,1.5.167H402.44a3.773,3.773,0,0,0,3.833-2.667q0.332-1.332,1-3.583t0.833-2.917h0.167q0.664-2.164,1.667-6.667t1.666-6.667q0.333-1.664,1.167-5.25T413.94,18l25.5,5.833a5.084,5.084,0,0,1-2.834.667,3.84,3.84,0,0,0-2.666,1.333q-3.5,3.836-12,12.667l-2.917,2.917-2.75,2.75a3.833,3.833,0,0,0-.833,4.333,3.651,3.651,0,0,0,3.666,2.5h55.5a4.324,4.324,0,0,0,3.167-1.333L484.94,41l16.666,12.667-0.5.5-2.5,1q-3.168.5-3.166,4v94.667a37.857,37.857,0,0,1-1.667,11.333q-1.5,4.164-6.667,6.833-5.5,2.832-15.666,3.834a32,32,0,0,0-1.5-7,13.988,13.988,0,0,0-3.5-6.334,0.482,0.482,0,0,1-.167-0.333,0.148,0.148,0,0,1-.167-0.167,46.068,46.068,0,0,0-6.666-4.166,21.924,21.924,0,0,0-3-1h1.666q5.664,0.332,9,.666h6q3,0,4.167-1.166a5.442,5.442,0,0,0,.667-0.5,7.106,7.106,0,0,0,1.166-4.167v-95.5a4.242,4.242,0,0,0-1.083-3A3.6,3.6,0,0,0,475.273,52H377.44a3.592,3.592,0,0,0-2.75,1.167,4.229,4.229,0,0,0-1.084,3v114l-0.666.667a7.012,7.012,0,0,1-1.334,1,18.691,18.691,0,0,1-5.5,2.833,21.814,21.814,0,0,1-7.5,1.333h-1.333V42.833ZM394.94,74.166l16.333,6.667a4.109,4.109,0,0,0,1.5.167h24.333a3.98,3.98,0,0,0,2.834-1.333l7.333-7.833,15.5,11.833a0.653,0.653,0,0,0-.667.5,1.491,1.491,0,0,0-.666.167,5.362,5.362,0,0,1-.917.333,5.654,5.654,0,0,0-.917.333,3.667,3.667,0,0,0-3,3.833v45a2.954,2.954,0,0,1-1.333.833A35.609,35.609,0,0,1,449.106,137a19.371,19.371,0,0,1-6.166,1h-1.334V127.166a3.991,3.991,0,0,0-3.833-3.833h-24a3.859,3.859,0,0,0-2.833,1.166,3.669,3.669,0,0,0-1.167,2.667V138.5l-0.167.167c-0.224.109-.445,0.221-0.666,0.333a2.5,2.5,0,0,0-.667.5,26.9,26.9,0,0,1-5.333,2.334,24.847,24.847,0,0,1-6.834,1H394.94V74.166Zm16,9.167a3.857,3.857,0,0,0-1.167,2.833V118a4.134,4.134,0,0,0,1.167,2.917,3.728,3.728,0,0,0,2.833,1.25h24a3.564,3.564,0,0,0,2.667-1.25A4.146,4.146,0,0,0,441.606,118V86.166a3.868,3.868,0,0,0-1.166-2.833,3.68,3.68,0,0,0-2.667-1.167h-24A3.859,3.859,0,0,0,410.94,83.333Zm131.166,22.5a3.855,3.855,0,0,0-2.333-3.667,13.31,13.31,0,0,0-1.667-.5,4.581,4.581,0,0,0-2.666,1.167A157.268,157.268,0,0,1,521.273,113a189.217,189.217,0,0,0,12.333-17.166Q540.107,86,546.94,73q5.163-10.664,8.333-18.833l13.667,7a4.6,4.6,0,0,0,2,.333,3.765,3.765,0,0,0,2.5-.833A5.083,5.083,0,0,0,574.773,58H620.94a3.68,3.68,0,0,0,2.583-1,3.753,3.753,0,0,0,1.25-2.333q0.832-3.5-2.5-4.667a5.949,5.949,0,0,1-2-.833A52.141,52.141,0,0,0,614.44,37.5a81.768,81.768,0,0,0-9.334-11.167,69.382,69.382,0,0,0-7.833-6.5Q609.6,20.169,617.106,22.5q8.664,3,12.667,7.333,4.332,4.336,4.833,8.833a12.255,12.255,0,0,1-1.166,7.667,8.973,8.973,0,0,1-4.667,4q-3.168.836-2.5,4.333,0.832,3.336,4,3.333h19.833a4.105,4.105,0,0,0,3.334-1.667l8.333-11.5,0.333,0.5a41.6,41.6,0,0,1,5,3.833q2,1.668,6,5.333,0.664,0.668,2.334,2.083t2.333,2.083a8.225,8.225,0,0,1-2.5.5h-41.5a3.792,3.792,0,0,0-2.917,1.167,4.009,4.009,0,0,0-1.083,2.833v42.667a3.984,3.984,0,0,0,4,4h14a4.1,4.1,0,0,0,3.333-1.667L659.44,97l0.166,0.333q1.833,1.336,4.834,3.833a37.865,37.865,0,0,0,2.916,2.5,40.094,40.094,0,0,1,3.084,2.667q3.331,3,4.666,4.333a8.007,8.007,0,0,1-2.333.5h-39a4.013,4.013,0,0,0-2.833,1.083,3.591,3.591,0,0,0-1.167,2.75v50.5a4.057,4.057,0,0,0,1.167,3,3.86,3.86,0,0,0,2.833,1.167h19A3.675,3.675,0,0,0,655.94,168l8.666-11.666,0.5,0.166q0.333,0.333,1.25,1.084t1.75,1.5q0.832,0.75,1.667,1.416,2.664,2.5,6.333,5.334,3.333,3,4.834,4.5a8.047,8.047,0,0,1-2.5.333H570.273l-0.5-1H608.94a3.737,3.737,0,0,0,2.833-1.25,4.15,4.15,0,0,0,1.167-2.917V115a3.6,3.6,0,0,0-1.167-2.75,4.023,4.023,0,0,0-2.833-1.083h-30l-0.167-1.333H608.94a3.984,3.984,0,0,0,4-4V63.166a3.984,3.984,0,0,0-4-4H581.106a3.445,3.445,0,0,0-3.333,2,3.337,3.337,0,0,0-.5,2.667,2.991,2.991,0,0,1-.833.833h-0.167a6.164,6.164,0,0,1-1.5.167h-1.167a4.108,4.108,0,0,0-3.333,1.667,110.59,110.59,0,0,1-13,15.5,4.26,4.26,0,0,0-1,3.667,5.143,5.143,0,0,0,2.5,3l3.167,1a1.127,1.127,0,0,1-.834.333,3.774,3.774,0,0,0-2.666,3.833v77.333a0.8,0.8,0,0,0-.417.167c-0.167.109-.391,0.25-0.667,0.416s-0.583.36-.916,0.584a13.275,13.275,0,0,1-5.334,2.5,20.916,20.916,0,0,1-7.166,1.333h-1.834V105.833ZM533.44,49.5A183.123,183.123,0,0,0,545.106,32q5.164-9.164,7.667-14l19.833,10.667a2.854,2.854,0,0,1-1.166.167h-1.167a4.062,4.062,0,0,0-3,1.167,113.372,113.372,0,0,1-12.5,11.333q-6.5,5.336-16.833,12.333-9.336,5.5-15.334,8.5A114.269,114.269,0,0,0,533.44,49.5h0Zm202.166,71.334a3.536,3.536,0,0,0-2.333-3.5,0.951,0.951,0,0,1-.667-0.334,4.688,4.688,0,0,0-1-.166,6.391,6.391,0,0,0-2.5.833,163.455,163.455,0,0,1-30.833,19.167,139.674,139.674,0,0,0,24-23.334A189.653,189.653,0,0,0,737.94,92.166a3.042,3.042,0,0,0,0-4A3.643,3.643,0,0,0,734.606,86H696.273l-0.5-1.167h44a4.133,4.133,0,0,0,3.5-1.833,27.171,27.171,0,0,1,1.667-3.167A93.093,93.093,0,0,0,749.106,71a3.256,3.256,0,0,0-.166-3.833,3.583,3.583,0,0,0-3.334-1.667H708.773l-0.5-1.333h41a3.96,3.96,0,0,0,3.833-2.5q1.164-2.664,4.167-11.5a3.888,3.888,0,0,0-.667-3.5A4.11,4.11,0,0,0,753.273,45H702.94l-0.334-1H738.94a3.532,3.532,0,0,0,3.166-1.5,3.671,3.671,0,0,0,.834-3.333,41.978,41.978,0,0,0-4.834-12.5,56.849,56.849,0,0,0-5.5-8.333Q743.271,19.5,747.94,21.5q6.163,2.5,8,5.333,2.163,3.5,1.666,6.167a8.858,8.858,0,0,1-2,4.5,4.382,4.382,0,0,0-.5,4.167A3.653,3.653,0,0,0,758.773,44h24.333a3.484,3.484,0,0,0,3.667-2.5,57.04,57.04,0,0,0,2.083-5.75q1.251-3.914,1.75-5.083,2.332-7.5,3.5-13.167l22.5,5.833a8.84,8.84,0,0,1-2,.167,4.716,4.716,0,0,0-2.833,1.167q-2.837,2.5-12,8.833a15.863,15.863,0,0,1-2.5,1.917q-1.668,1.086-1.833,1.25a3.869,3.869,0,0,0-1.667,4.667Q794.273,44,797.44,44h18.5a4.107,4.107,0,0,0,3.166-1.5L828.273,31l0.5,0.5q0.5,0.5,2.167,1.833t2.833,2.167a44.889,44.889,0,0,1,6.333,5,33.112,33.112,0,0,1,5,4.167A5.135,5.135,0,0,1,842.94,45H825.773a4.248,4.248,0,0,0-2.5,1,5.7,5.7,0,0,0-2.667-1h-37.5a3.775,3.775,0,0,0-3.833,2.667Q778.1,51.5,775.106,58.833a3.643,3.643,0,0,0,.334,3.667,4.1,4.1,0,0,0,3.333,1.667h33.333a3.364,3.364,0,0,0,3-1.5l8.167-10.5a0.147,0.147,0,0,0,.167.167l0.333,0.167q0.5,0.336,2,1.583a30.367,30.367,0,0,0,2.5,1.917q1.164,0.836,6,4.833a27.984,27.984,0,0,0,2.417,2.083,29.074,29.074,0,0,1,2.25,1.917c-0.667.224-1.391,0.445-2.167,0.667a3.4,3.4,0,0,0-3.5,2.667l-0.167.167V68.5a1.4,1.4,0,0,0-.083-0.417,1.8,1.8,0,0,1-.083-0.583,3.942,3.942,0,0,0-3.667-2h-55a4.325,4.325,0,0,0-3.5,2q-1.5,3-6.5,11.333a3.082,3.082,0,0,0,0,3.833,3.422,3.422,0,0,0,3.333,2.167h53a4.109,4.109,0,0,0,3.167-1.5l8.667-11.667a1.761,1.761,0,0,0,.666-1.5,4.758,4.758,0,0,0,1.5,2.333,30.737,30.737,0,0,1,3.834,3.167q0.831,0.668,3.083,2.5T845.106,81q1.665,1.668,5,4.667a6.282,6.282,0,0,1-2.5.333H818.44a5.272,5.272,0,0,0-1.834.667,5.16,5.16,0,0,0-2-.667H761.44a3.671,3.671,0,0,0-3.167,1.667,109.616,109.616,0,0,1-7.333,9,4.1,4.1,0,0,0-.834,3.5,4.58,4.58,0,0,0,2.5,2.833l1.334,0.5a3.914,3.914,0,0,0,1.666.5h50.167a4.465,4.465,0,0,0,3.167-1.5l7.666-8.666,17.334,13a1.8,1.8,0,0,1-.834.666q-1,.5-3,1.334-2.835.5-2.833,3.666v59.334a5.714,5.714,0,0,1-1.833.833,56.248,56.248,0,0,1-6.5,2.167,27.475,27.475,0,0,1-6.834,1h-1.5v-7.667a4.148,4.148,0,0,0-1.166-2.917,3.738,3.738,0,0,0-2.834-1.25H755.94a3.559,3.559,0,0,0-2.667,1.25,4.136,4.136,0,0,0-1.167,2.917V171.5c0,0.334-.557.722-1.666,1.167a21.659,21.659,0,0,1-6.167,2.833,42.326,42.326,0,0,1-7.667,1h-1V120.833Zm17.667,24.333A3.848,3.848,0,0,0,752.106,148v11a3.858,3.858,0,0,0,1.167,2.834A3.675,3.675,0,0,0,755.94,163h50.666a3.981,3.981,0,0,0,4-4V148a3.983,3.983,0,0,0-4-4H755.94A3.664,3.664,0,0,0,753.273,145.166Zm0-19.583a3.944,3.944,0,0,0-1.167,2.75v10.5a4,4,0,0,0,3.834,3.833h50.666a3.87,3.87,0,0,0,2.834-1.167,3.676,3.676,0,0,0,1.166-2.666v-10.5a3.956,3.956,0,0,0-1.166-2.75,3.735,3.735,0,0,0-2.834-1.25H755.94A3.556,3.556,0,0,0,753.273,125.583Zm0-19.417A3.858,3.858,0,0,0,752.106,109v10.167A3.848,3.848,0,0,0,753.273,122a3.664,3.664,0,0,0,2.667,1.167h50.666a3.983,3.983,0,0,0,4-4V109a3.983,3.983,0,0,0-4-4H755.94A3.676,3.676,0,0,0,753.273,106.166Zm228,50a122.588,122.588,0,0,1-17.333-22.833,120.664,120.664,0,0,1-10.167-24.5q-0.336-1-.917-3.334T951.94,102a3.767,3.767,0,0,0-4-3,3.428,3.428,0,0,0-3.667,3,93.576,93.576,0,0,1-6.167,17.167,73.32,73.32,0,0,1-14.5,21.667A105.223,105.223,0,0,1,899.273,159.5,212.271,212.271,0,0,1,867.106,173q17.664-9,29.334-19.333,13.332-12,20.5-25a109.125,109.125,0,0,0,9.833-28.167q1-6,1.333-9.833a3.051,3.051,0,0,0-1-3.167,3.534,3.534,0,0,0-2.833-1.167H868.94l-0.334-1h56.667q3.332,0,4-3.833,0.5-6.332.5-12.667,0.5-13.664.5-29a3.172,3.172,0,0,0-1.333-2.667,2.916,2.916,0,0,0-2.667-1.333H878.94l-0.167-1h99.333a3.8,3.8,0,0,0,3.167-1.5L991.44,20.5l0.833,0.667q0.664,0.5,1.5,1.083t2,1.583q1.164,1,2,1.667,0.5,0.336,3.087,2.333a44.706,44.706,0,0,0,4.25,3q2.16,2,5.33,4.5-0.5.5-2.67,0.5H953.44a3.982,3.982,0,0,0-4,4q-0.168,9.668-.834,26-0.168,5-.833,15a3.162,3.162,0,0,0,1,3,3.63,3.63,0,0,0,3,1.5h36.833a3.957,3.957,0,0,0,3.167-1.667l10.167-13,0.67,0.5c0.66,0.557,2.5,2,5.5,4.333l7.33,5.833q0.33,0.168,5.67,4.5a4.444,4.444,0,0,1-2.5.5H952.94A3.671,3.671,0,0,0,949.773,88a3.146,3.146,0,0,0-.5,3.5,89.349,89.349,0,0,0,5.5,14.167A91.872,91.872,0,0,0,969.44,125.5q8.664,9.5,22.833,17.667a147.8,147.8,0,0,0,29.837,13.167A21.631,21.631,0,0,0,1011.77,162q-4.335,4-5.83,11.334a88.181,88.181,0,0,1-24.667-17.167h0Zm66-4.333q1.665-.837,5.59-3.084t5.91-3.25c0.11,0,.17-0.112.17-0.333,0.22-.112.47-0.224,0.75-0.333s0.58-.25.92-0.417a2.818,2.818,0,0,0,.66-0.417,3.75,3.75,0,0,0,2.17-3.5V84a4.057,4.057,0,0,0-1.17-3,3.862,3.862,0,0,0-2.83-1.167h-19.33l-0.34-1h18a3.964,3.964,0,0,0,3.17-1.667l8-10.833,17.83,14.333a6.917,6.917,0,0,0-1.16.333c-0.45.224-1.62,0.667-3.5,1.333A3.35,3.35,0,0,0,1078.94,86v52a3.978,3.978,0,0,0,1.33,2.834c0.34,0.333.81,0.75,1.42,1.25s1.17,0.971,1.67,1.416,0.97,0.888,1.41,1.334a10.1,10.1,0,0,0,2.5.833,3.38,3.38,0,0,0,2.5-1,0.519,0.519,0,0,0,.34-0.167l0.16-.166-0.5,1.5a3.537,3.537,0,0,0,2.34,3.5,16.393,16.393,0,0,0,3.83,1.666q9,4.164,22,5.5a263.483,263.483,0,0,0,30.67,1.5q17.82,0,25.83-.333,10,0,20.17-.5a15.834,15.834,0,0,0-5.34,5.167,25.475,25.475,0,0,0-4.5,11h-42.83q-17.34,0-28.33-3.167a47.3,47.3,0,0,1-19-9.167,77.126,77.126,0,0,1-14.5-16.833,19.731,19.731,0,0,0-2.5-2.667,4.417,4.417,0,0,0-2.17-.666,5.022,5.022,0,0,0-.83.083,5.387,5.387,0,0,1-.67.083,10.5,10.5,0,0,0-3.5,3,0.151,0.151,0,0,1-.17.167c-0.11.221-.8,1.221-2.08,3s-2.42,3.333-3.42,4.667q-1.5,2.163-7.66,10.666-4.5,6.333-6.84,10a2.914,2.914,0,0,0-.66,2.667l-11.67-18.333a81.571,81.571,0,0,0,9.33-5h0Zm107.5-14.5a14.01,14.01,0,0,0-3-6.667l-0.33-.167a21.215,21.215,0,0,0-6.67-4.5,17.992,17.992,0,0,1-2.16-.833c1.11,0.112,2.63.224,4.58,0.333s2.97,0.167,3.08.167q2.34,0.168,5.34.167a9.3,9.3,0,0,0,4-.667,10.338,10.338,0,0,0,3-1.333,0.143,0.143,0,0,0,.16-0.167,0.151,0.151,0,0,1,.17-0.167q2.67-3,4.33-11.166a210.5,210.5,0,0,0,2.84-22.667q0.165-2.5.41-7.667t0.42-10q0.165-4.832.33-9.5a3.886,3.886,0,0,0-1.16-2.833,3.354,3.354,0,0,0-2.84-1.333h-23.5q-3.33,0-4,3.833A147.752,147.752,0,0,1,1136.27,84a100.2,100.2,0,0,1-8.66,23.167,79.789,79.789,0,0,1-15.5,20.333q-6.84,7.336-19.17,14.167,10.83-10.663,16.33-20.833A110.826,110.826,0,0,0,1120.11,93a195.562,195.562,0,0,0,4.33-28.833v-1.5a3.917,3.917,0,0,0-.83-2.833,4.47,4.47,0,0,0-3.17-1.5h-26.17l-0.33-1h27q3.495,0,4.17-3.833,0.165-5.5.16-16.333V18.833l21.17,2a3.326,3.326,0,0,1-2,.833,3.807,3.807,0,0,0-3.17,4V37.333q-0.33,11-.66,15.833A3.234,3.234,0,0,0,1141.77,56a3.991,3.991,0,0,0,2.84,1.333h22.33a4.441,4.441,0,0,0,2.67-1l8.83-8.667L1193.77,60.5l-0.33.333q-0.5.168-1.5,0.417a7.657,7.657,0,0,0-1.33.417,4.125,4.125,0,0,0-3,3.833q-0.84,22.336-2,36.334-1.68,16.5-4.17,23.666-2.505,8.337-6.33,11.667a36.573,36.573,0,0,1-9,5,33.1,33.1,0,0,1-10.5,1.667,38.965,38.965,0,0,0-.84-6.5h0Zm-85.5-80.5A66.491,66.491,0,0,0,1064.61,44a134.824,134.824,0,0,0-7-13.167,59.206,59.206,0,0,0-6.17-8.5,57.215,57.215,0,0,1,18.67,7.5q7.665,5.168,10.83,10a22.657,22.657,0,0,1,3.33,9.5q0,4.668-2.16,7a7.822,7.822,0,0,1-5.67,2.833h-0.83a11.169,11.169,0,0,1-6.34-2.333h0Zm252,111.833a12.47,12.47,0,0,0-3.66-6.833,24.664,24.664,0,0,0-7.67-4.834c-0.22-.112-0.7-0.307-1.42-0.583a14.711,14.711,0,0,0-1.75-.583h0.5q6.33,0.663,9.17.666,2.67,0.165,6.67.167a11.089,11.089,0,0,0,4.33-.667,7.616,7.616,0,0,0,3.17-2q3.825-3.5,5.83-17.166,1.5-10.665,2.83-35.334,0.165-3.663,1.34-46.166a4.481,4.481,0,0,0-1-2.667,4.075,4.075,0,0,0-3-1.167h-28.67a4.454,4.454,0,0,0-3.67,2q-0.825,1.668-5,8.333a131.4,131.4,0,0,1-13.5,17.333,2.326,2.326,0,0,0-.83,1.5,3.371,3.371,0,0,0-1.67,1q-3.165,3.168-6.66,6.167a4.022,4.022,0,0,0-2.34.833,3.955,3.955,0,0,0-1.66,3.167v67.5a5.534,5.534,0,0,1-1.67,1,46.026,46.026,0,0,1-5.83,2.333,19.161,19.161,0,0,1-6.67,1h-1.17v-9.333a4.081,4.081,0,0,0-1.16-3,3.873,3.873,0,0,0-2.84-1.167h-22a3.731,3.731,0,0,0-2.83,1.25,4.133,4.133,0,0,0-1.17,2.917v10.5a7.26,7.26,0,0,0-1.5,1.166,12.818,12.818,0,0,1-5,2.5,18.645,18.645,0,0,1-7,1h-1.33V43.5l15,6.333a9.718,9.718,0,0,0,1.67.333,2.487,2.487,0,0,0,1.83-.667,3.607,3.607,0,0,0,2.17-2.833q0.5-3.832.66-5.167c0.11-1.109.34-3.138,0.67-6.083s0.55-5.25.67-6.917q0.33-2.5,1.16-10.167L1259.77,24a5.874,5.874,0,0,1-3.33,1,3.536,3.536,0,0,0-3,1.667,86.729,86.729,0,0,0-5.5,7.333q-4.665,6-7.17,9.167h-0.16a0.715,0.715,0,0,1-.25.417,2.151,2.151,0,0,0-.42.583,3.283,3.283,0,0,0-.33,4.167,3.351,3.351,0,0,0,3.5,2.333h9.83a3.97,3.97,0,0,0,2.83-1.333l7.5-8.167,15.5,12.167a2.029,2.029,0,0,0-.5.333c-1.11.445-2,.833-2.66,1.167a3.429,3.429,0,0,0-3,3.667V80.666q0,3,3.16,3.667a3.167,3.167,0,0,0,1,.167,3.682,3.682,0,0,0,3.67-2.167q2.67-6.164,5.83-14.167,4.17-11.664,8-25.333,3-11,5.84-24.5l22.5,6.5c-0.23.112-1.06,0.391-2.5,0.833a3.276,3.276,0,0,0-3.34,2.5,131.9,131.9,0,0,1-7.5,16.167,3.893,3.893,0,0,0,.34,3.833,3.241,3.241,0,0,0,3.33,2h22.83A2.808,2.808,0,0,0,1338.44,49l9.5-9.5,15.33,13.833a1.128,1.128,0,0,0-.83.333,5.919,5.919,0,0,1-2.67.667,3.951,3.951,0,0,0-3.16,4q0,1.336-1.17,43.5-0.675,16.335-2.17,32.666a178.268,178.268,0,0,1-3.66,21.334Q1347.27,164,1343.94,167a21.059,21.059,0,0,1-9.83,6.667,35.817,35.817,0,0,1-12,2,31.337,31.337,0,0,0-.84-7h0Zm-92.83-67.583a4.135,4.135,0,0,0-1.17,2.916v41.167a3.99,3.99,0,0,0,4,4h22a3.8,3.8,0,0,0,2.92-1.167,4.023,4.023,0,0,0,1.08-2.833V104a4.091,4.091,0,0,0-1.16-3,3.884,3.884,0,0,0-2.84-1.166h-22A3.728,3.728,0,0,0,1228.44,101.083Zm0-48.084a3.856,3.856,0,0,0-1.17,2.833V94.5a4.133,4.133,0,0,0,1.17,2.917,3.73,3.73,0,0,0,2.83,1.25h22a3.875,3.875,0,0,0,2.84-1.167,4.081,4.081,0,0,0,1.16-3V55.833a3.972,3.972,0,0,0-4-4h-22A3.862,3.862,0,0,0,1228.44,53Zm76.5,66.5a46.49,46.49,0,0,0-2.67-12.166,69.161,69.161,0,0,0-5.5-12.834,95.684,95.684,0,0,0-5.16-8.5q11,3.668,17.16,8,7.005,5.336,9.5,10,2.67,5.337,2.17,9.167-0.5,4.337-3,6.333a9.245,9.245,0,0,1-5.67,2.834h-0.16q-2.67,0-6.67-2.834h0Zm173-97.666,18.67,8.667a13.358,13.358,0,0,0,1.66.5h13.84a3.84,3.84,0,0,0,2.66-1.333l8.67-8.5L1540.77,37l-0.33.167a21.273,21.273,0,0,1-3.83.5,3.646,3.646,0,0,0-2.84,2q-3.99,6.668-5.33,8.5-1.335,2.668-6.67,11.333-3.33,5.336-7.5,11.167a68.4,68.4,0,0,1-5.83,7.833,5.27,5.27,0,0,0-.83,3.333,5.637,5.637,0,0,0,2,2.667,56.993,56.993,0,0,1,14.5,12q6.66,8,9.16,15.334a38.974,38.974,0,0,1,.67,29.166,20.292,20.292,0,0,1-8.17,9.167c-3.55,1.888-8.28,3-14.16,3.333,0-2.112-.06-3.666-0.17-4.666q0-1.168-.83-6.667a14.051,14.051,0,0,0-1.84-4.833,17.742,17.742,0,0,0-3.83-3.334,2.516,2.516,0,0,1-1-.333h6.83a9.059,9.059,0,0,0,4.84-1.333,7.256,7.256,0,0,0,3.66-4.334,17.988,17.988,0,0,0,1.34-7.333,62.49,62.49,0,0,0-3.34-20.167q-3-9.5-11.33-19,2.325-8.332,2.83-10.833,1.005-4.5,3-14.5,1.83-7.664,3-14.667a20.373,20.373,0,0,1,.84-4.667,4.63,4.63,0,0,0-1-3.333,3.641,3.641,0,0,0-3-1.5h-14a4.134,4.134,0,0,0-2.92,1.167A3.747,3.747,0,0,0,1493.44,36v93.834a4.134,4.134,0,0,0,1.33,3,4.925,4.925,0,0,0-1.33,2.833V169.5a2.468,2.468,0,0,1-1,1.167,17.369,17.369,0,0,1-5,2.333,21.262,21.262,0,0,1-8.17,1.334h-1.33V21.833Zm-81.67,121.833a141.194,141.194,0,0,0,8-29.833,3.157,3.157,0,0,0-.83-3.167c-0.45-.888-1.39-1.333-2.83-1.333h-17.5l-0.5-1.167h19.16q3.675,0,4-3.5,1.5-11,2.17-30.167a4.182,4.182,0,0,0-1.33-3,3.885,3.885,0,0,0-2.84-1.167h-19.66l-0.34-1h20.17a4.017,4.017,0,0,0,2.92-1.25,3.836,3.836,0,0,0,1.25-2.75V35.666a5.888,5.888,0,0,0-1-2.833,4.88,4.88,0,0,0-3-1h-20.34l-0.33-1.167h57.17a3.852,3.852,0,0,0,2.83-1.167l9.17-9.833,15.5,14a29.216,29.216,0,0,1-3.84,1.5,3.3,3.3,0,0,0-3,3.667q-0.165,11.836-.66,45-0.18,18.668-1.34,34-0.33,9-1.83,23.333A83.66,83.66,0,0,1,1454.27,156a29.028,29.028,0,0,1-4.5,8.5h-0.16a20.8,20.8,0,0,1-9.5,7,35.449,35.449,0,0,1-10.5,2.167q0-.835-0.5-7.333a11.335,11.335,0,0,0-2.5-6.667,16.56,16.56,0,0,0-5.67-4.5l-3-1.5q4,0.332,6,.333a31.2,31.2,0,0,0,5,.334,15.034,15.034,0,0,0,4-.667,15.286,15.286,0,0,0,3.33-2.333q3-3,4.5-11.667a228.47,228.47,0,0,0,2.5-23.167l0.17-3a4.062,4.062,0,0,0-1-3,3.862,3.862,0,0,0-2.83-1.166h-17c-2.23,0-3.5,1-3.84,3a92.256,92.256,0,0,1-4.5,14.666,105.39,105.39,0,0,1-13.83,25.834,108.808,108.808,0,0,1-22.17,21,118.288,118.288,0,0,0,18-30.167h0Zm25.17-36.833a3.989,3.989,0,0,0,3.17,1.333h15.33a4,4,0,0,0,2.83-1.083,3.4,3.4,0,0,0,1.17-2.584q0-3,.33-11.166t0.5-13V74.5a3.178,3.178,0,0,0-1-3,4.075,4.075,0,0,0-3-1.167h-13.16a3.824,3.824,0,0,0-2.67,1.083A3.405,3.405,0,0,0,1423.77,74q-0.66,9.668-2.16,23.833l-1,5.833A3.562,3.562,0,0,0,1421.44,106.833Zm4.5-73.917a3.405,3.405,0,0,0-1.17,2.583q-0.165,5.336-.41,15.167t-0.25,14.167v0.5a3.932,3.932,0,0,0,1.16,2.75,3.736,3.736,0,0,0,2.84,1.25h12.83a3.989,3.989,0,0,0,4-4q0.495-27,.5-29.667a4.7,4.7,0,0,0-1.17-2.833,4.2,4.2,0,0,0-2.83-1h-12.67A4.014,4.014,0,0,0,1425.94,32.916ZM1560.27,150.5a196.42,196.42,0,0,0,4.17-31q0.825-17.163.83-30.333V40l20.67,7.5a1.978,1.978,0,0,1,.58.167,1.865,1.865,0,0,0,.59.167h44a4.1,4.1,0,0,0,3.33-1.667,4.571,4.571,0,0,0,.67-3.667,68.63,68.63,0,0,0-3.5-8.667A66.583,66.583,0,0,0,1625.77,24q-3.825-5-4.5-5.833,11.175,1,17,3.833,6.84,3,10,7,2.835,3.836,2.5,7.333a8.959,8.959,0,0,1-1.66,5,4.483,4.483,0,0,0-.34,4.167,3.658,3.658,0,0,0,3.67,2.333h28.83a4.107,4.107,0,0,0,3.34-1.667L1693.44,34l0.33,0.5,0.34,0.167c1.11,1,2.77,2.333,5,4,0.66,0.667,1.72,1.612,3.16,2.833s2.45,2.057,3,2.5c2.22,2,3.84,3.445,4.84,4.333a4.072,4.072,0,0,1-2.34.5h-47.5a3.466,3.466,0,0,0-3.66,2.333,3.854,3.854,0,0,0,0,3.5,1.894,1.894,0,0,1-.67,1,6.392,6.392,0,0,1-2.17.833,3.736,3.736,0,0,0-2.83,4v53.334q0,3.168,3.33,4h0.67a3.849,3.849,0,0,0,3.67-2.5A176.475,176.475,0,0,0,1665.94,93a201.252,201.252,0,0,0,5.17-30.5l20.66,4.667a6.505,6.505,0,0,1-2.33.833,3.815,3.815,0,0,0-3.33,2.667q-2.34,7-5,13.5a5.04,5.04,0,0,0,0,3.167,6.617,6.617,0,0,0,2.16,2.167,52.476,52.476,0,0,1,10.84,5.5q6.165,4.836,8.33,9a13.5,13.5,0,0,1,2,8,8.407,8.407,0,0,1-1.83,5.334,6.537,6.537,0,0,1-4.67,2.166h-0.17a8.454,8.454,0,0,1-5.33-2.166,59.053,59.053,0,0,0-2.83-10.834q-2.01-4.831-5.5-11.5l-0.84-1.167A3.279,3.279,0,0,0,1679.94,92h-0.33a3.673,3.673,0,0,0-3.34,2q-2.16,4-2.66,4.667a86.04,86.04,0,0,1-16.84,20.167,1.9,1.9,0,0,1-.58-0.167,6.835,6.835,0,0,0-.75-0.25,2.3,2.3,0,0,0-.5-0.083,2.794,2.794,0,0,0-.67.083,6.835,6.835,0,0,0-.75.25,1.9,1.9,0,0,1-.58.167,4.332,4.332,0,0,0-2,3.5V130.5a3.988,3.988,0,0,0,4,4h14.67a4.449,4.449,0,0,0,3.16-1.5l8.5-11.333,0.5,0.5q3.33,2.837,5,4a50.073,50.073,0,0,1,6,5c0.67,0.557,1.59,1.362,2.75,2.417s1.81,1.64,1.92,1.75a7.971,7.971,0,0,1-2.5.333h-40a3.716,3.716,0,0,0-2.83,1.25,4.133,4.133,0,0,0-1.17,2.917v25.5a3.665,3.665,0,0,0,1.17,2.666,3.847,3.847,0,0,0,2.83,1.167h27a3.685,3.685,0,0,0,3.17-1.667l9.33-12.166,0.17,0.166,0.33,0.167q1.995,1.5,5,4,1.17,1,3.58,3.083t3.09,2.584q0.825,0.831,2.58,2.333c1.17,1,1.97,1.721,2.42,2.167a4.076,4.076,0,0,1-2.34.5h-133.5l-0.5-1.167h55.5a3.594,3.594,0,0,0,2.75-1.167,3.824,3.824,0,0,0,1.09-2.666v-25.5a4.246,4.246,0,0,0-1.09-3,3.594,3.594,0,0,0-2.75-1.167h-39.66l-0.34-1.167h40a3.586,3.586,0,0,0,2.75-1.166,4.025,4.025,0,0,0,1.09-2.834V112.833a3.638,3.638,0,0,0-2.84-3.834,3.158,3.158,0,0,0-1-.166,3.928,3.928,0,0,0-3.66,2,7.584,7.584,0,0,1-1.67,2.166,5.56,5.56,0,0,1-3.83,1.5h-0.67a14.856,14.856,0,0,1-5-2.5,40.212,40.212,0,0,0-1-9.666,72.977,72.977,0,0,0-2.33-7.5,3.935,3.935,0,0,0-3.5-2.667h-0.34a3.747,3.747,0,0,0-3.5,2.5q-1.335,3-3.16,6.5a81.682,81.682,0,0,1-16.84,23.333l-0.33-.333a4.8,4.8,0,0,0-2.17-.5,7.021,7.021,0,0,0-1.66.167,6.621,6.621,0,0,0-2.34,2.833,63.519,63.519,0,0,1-1.83,8.667,73.553,73.553,0,0,1-10,22.666,71.015,71.015,0,0,1-15.83,17.667,97.855,97.855,0,0,0,9.16-25.167h0ZM1583.02,50a3.747,3.747,0,0,0-1.25,2.833V89.166q0,12.5-.83,22.333a24.879,24.879,0,0,1-.5,4.834c-0.22,2.112.83,3.557,3.17,4.333h0.83a3.953,3.953,0,0,0,3.83-2.5,218.565,218.565,0,0,0,6.67-22.667,261.6,261.6,0,0,0,4.5-33.833l19.33,3.833a4.487,4.487,0,0,1-2.16.833,3.9,3.9,0,0,0-3.17,3.167,116.135,116.135,0,0,1-3.83,13,4.065,4.065,0,0,0,2.16,5,40.235,40.235,0,0,1,9,5.833q4.83,4.5,6.17,8a3.955,3.955,0,0,0,3.83,2.5,2.8,2.8,0,0,0,.84-0.167,3.665,3.665,0,0,0,3-3.833v-47A4.033,4.033,0,0,0,1633.52,50a3.594,3.594,0,0,0-2.75-1.167h-44.83A4.169,4.169,0,0,0,1583.02,50Zm171.75,65.834a4.167,4.167,0,0,0-2.5-3.834,4.917,4.917,0,0,0-1.66-.166,3.048,3.048,0,0,0-2.5,1,144.883,144.883,0,0,1-24.34,17.5,187.429,187.429,0,0,0,13-16.167A260.794,260.794,0,0,0,1752.11,88.5a218.282,218.282,0,0,0,11.33-26.667h0.5a3.374,3.374,0,0,0,2.17-.667,3.5,3.5,0,0,0,1.83-3.333V45.166a3.989,3.989,0,0,0-4-4h-40L1723.77,40h40.17a3.73,3.73,0,0,0,2.83-1.25,3.944,3.944,0,0,0,1.17-2.75V17.833l21,1.833a2.174,2.174,0,0,1-1.83.833c-2.12.667-3.17,1.945-3.17,3.833V36a4.3,4.3,0,0,0,4,4h27.5a3.73,3.73,0,0,0,2.83-1.25,3.944,3.944,0,0,0,1.17-2.75V17.833l21.67,1.833a3.138,3.138,0,0,1-1.84.833q-3.165.836-3.16,3.833V36a3.932,3.932,0,0,0,1.16,2.75,3.736,3.736,0,0,0,2.84,1.25h12.83a3.68,3.68,0,0,0,3.17-1.667l9-12a1.878,1.878,0,0,0,.33.5A43.753,43.753,0,0,1,1870.27,31a40.556,40.556,0,0,0,3.34,2.833c1.55,1.224,2.5,2,2.83,2.333q1.995,2,4.67,4.333c-0.12.445-.89,0.667-2.34,0.667h-38.66a3.972,3.972,0,0,0-4,4V56.333a4.027,4.027,0,0,1-1.5.833,24.946,24.946,0,0,1-5.17,1.667q-3.5.836-3.17,4.167a3.578,3.578,0,0,0,1.84,3.167l-0.17.167a0.485,0.485,0,0,1-.17.333,5.6,5.6,0,0,1-1.83.833,3.574,3.574,0,0,0-3.17,3.833V99.666a3.771,3.771,0,0,0,2.67,3.833,4.994,4.994,0,0,0,1.5.167,3.851,3.851,0,0,0,2.83-1.167l1.5-1.5a242.477,242.477,0,0,0,22.5-28.833l18,13.667h-0.33a5.865,5.865,0,0,1-1.42-.25,5.881,5.881,0,0,0-1.25-.25,1.26,1.26,0,0,1-.5-0.167h-0.33a4.47,4.47,0,0,0-3.17,1.5,199.9,199.9,0,0,1-26.66,25,138.814,138.814,0,0,1-13.5,9.5,4.281,4.281,0,0,0-1.84,3.333v26c0,2.555.84,4.334,2.5,5.334a18,18,0,0,0,6.84,1.166h23.83a51.041,51.041,0,0,0,5.33-.166,7.35,7.35,0,0,0,6.5-3.167V153.5a66,66,0,0,0,4-9.666q0.51-1.5,1.42-4.667t1.42-4.667l0.5,17.667a3.681,3.681,0,0,0,2.16,3.667,11.7,11.7,0,0,1,4,2.5,5.236,5.236,0,0,1,1,3.5,5.671,5.671,0,0,1-2.66,5.166q-2.5,2-10.67,3.334a154.433,154.433,0,0,1-22.83,1.333h-18.34q-8.49,0-13.33-1.5-4.335-1.5-5.83-4.667-1.845-3.5-1.84-10.166v-17a3.93,3.93,0,0,0-2-3.667,3.8,3.8,0,0,0-2-.5,3.7,3.7,0,0,0-1.66.333,177.817,177.817,0,0,1-19,8,250.838,250.838,0,0,0,21.83-15.833h0.33a8.331,8.331,0,0,1,1-1.167,2.765,2.765,0,0,0,1.5-2.833V64.5l8.34,0.833h0.16a3.619,3.619,0,0,0,2.67-1,4.322,4.322,0,0,0,1.5-3V45.166a3.748,3.748,0,0,0-1.25-2.833,4.152,4.152,0,0,0-2.92-1.167h-27.33a3.951,3.951,0,0,0-2.75,1.167,3.748,3.748,0,0,0-1.25,2.833V57.5l-0.33.333a8.442,8.442,0,0,1-.84.5A42.112,42.112,0,0,1,1777.11,60q-2.5.336-3.17,3.333c-0.22,2.112.55,3.5,2.33,4.167l9,3.667a3.936,3.936,0,0,1-2.5.667h-0.5a3.5,3.5,0,0,0-3.33,1.833,138.925,138.925,0,0,1-9.33,14.833,3.033,3.033,0,0,0-.34,3.333,3.2,3.2,0,0,0,2.17,2.667l3.17,1a8.08,8.08,0,0,1-1,.667,3.61,3.61,0,0,0-2.67,3.833v42.167a4.828,4.828,0,0,0,.5,2.167,4.185,4.185,0,0,0-.5,1.833v26c-0.11.109-.61,0.5-1.5,1.167a24.941,24.941,0,0,0-2.58.916,28.65,28.65,0,0,1-3.25,1.084,28.341,28.341,0,0,1-7.17.833h-1.67V115.833Zm146.67-94.5,18.5,7.5a5.274,5.274,0,0,0,1.5.333h99.83a3.991,3.991,0,0,0,2.84-1.333l7.83-8.667,16,12.833a1.01,1.01,0,0,1-.42.25,1.257,1.257,0,0,1-.41.083,4.582,4.582,0,0,1-2.5,1,3.667,3.667,0,0,0-3,3.833V168a5.232,5.232,0,0,1-1.67,1.167l-2.33,1.167q-2.5,1.164-3.84,1.666a22.534,22.534,0,0,1-7.16,1.167h-1v-8.333a3.943,3.943,0,0,0-1.17-2.75,3.728,3.728,0,0,0-2.83-1.25H1921.44a3.713,3.713,0,0,0-2.83,1.25,3.943,3.943,0,0,0-1.17,2.75v4l-1.67,1.666a14.933,14.933,0,0,1-5.33,2.834,21.856,21.856,0,0,1-7.5,1.333h-1.5V21.333Zm17.5,125a3.8,3.8,0,0,0-1.5,3.166v6.334a4.025,4.025,0,0,0,1.08,2.833,3.8,3.8,0,0,0,2.92,1.167h100.17a3.99,3.99,0,0,0,4-4V136.666q0-3.163-2.84-3.667a2.874,2.874,0,0,0-1.16-.166,3.506,3.506,0,0,0-3.34,1.833,4.723,4.723,0,0,1-.83,1q-1.665,2-6.17,3a55.09,55.09,0,0,1-13,1.167h-8.66q-6.51,0-9-1.167a4.587,4.587,0,0,1-2.84-3.333,32.269,32.269,0,0,1-.83-8.667v-39.5a3.748,3.748,0,0,0-1.25-2.833,3.951,3.951,0,0,0-2.75-1.167h-4.83a3.951,3.951,0,0,0-2.75,1.167A3.539,3.539,0,0,0,1964.11,87a97.907,97.907,0,0,1-4.5,22.5,51.212,51.212,0,0,1-13.17,21.167,63.475,63.475,0,0,1-19.83,12.667,52.051,52.051,0,0,0,12.83-15,63.051,63.051,0,0,0,7.17-21.834,141.587,141.587,0,0,0,1.5-19.166q0-2.164-1.17-2.833a3.336,3.336,0,0,0-2.83-1.333h-17.67L1926.27,82h64.5a4.47,4.47,0,0,0,3.17-1.5l8.83-11.333,0.34,0.5q2,1.5,5,4a70.463,70.463,0,0,1,6.33,5q0.825,0.668,2.25,1.917,1.41,1.25,2.25,1.917c0.11,0,.17.112,0.17,0.333a6.3,6.3,0,0,1-2.5.333h-21.67a4.169,4.169,0,0,0-2.92,1.167,3.748,3.748,0,0,0-1.25,2.833v35.167a1.313,1.313,0,0,0,.17.5l0.17,0.333a3.485,3.485,0,0,0,3.33,3.5h11a1.455,1.455,0,0,1,.75-0.25,7.322,7.322,0,0,1,.75-0.083,2.832,2.832,0,0,0,1.17-.834l1.33-1.333q2.67-7,2.67-7.167c0.22-.666.5-1.638,0.83-2.916s0.61-2.25.83-2.917l0.34,11.333q0.66,2.837,2.16,3.334a12.832,12.832,0,0,1,2,1.666,3.92,3.92,0,0,0,3.34,2,2.349,2.349,0,0,0,1.33-.333q2.67-.5,2.67-3.667V85.833q0-2.332-1.5-3a3.53,3.53,0,0,0,1.5-3.167V34.5a4.057,4.057,0,0,0-1.17-3,3.862,3.862,0,0,0-2.83-1.167H1921.44a3.846,3.846,0,0,0-2.83,1.167,4.057,4.057,0,0,0-1.17,3v108c0,1.776.67,2.888,2,3.334v0.333Zm14.83-91.5h50.34a4.449,4.449,0,0,0,3.16-1.5l8.5-10.5,0.5,0.167a0.15,0.15,0,0,0,.17.167c0.55,0.333,1.42.945,2.58,1.833s1.92,1.445,2.25,1.667a32.2,32.2,0,0,0,2.75,2.25c1.39,1.057,2.47,1.917,3.25,2.583q4.17,3.5,4.84,4a7.97,7.97,0,0,1-2.5.333h-75.67Zm149.84,117.5a25.259,25.259,0,0,0,6-10,3.771,3.771,0,0,0-1.84-5.167l-6.5-3.333q-5.16-3-6.5-5.834a10.882,10.882,0,0,1-1.83-6,11.963,11.963,0,0,1,12.17-12.5,22.352,22.352,0,0,1,6,.834,13.439,13.439,0,0,1,4.66,2.833q1.5,5.5,1.67,6,0.495,5,.5,6.333,0,14.5-7.83,24.667a42.146,42.146,0,0,1-20,13.833l-0.5-1.5h-0.34q9.33-4.668,14.34-10.166h0ZM2227.94,172q-7.83-1.5-11.17-5.833-3.495-4.668-3.5-14v-60.5a4.1,4.1,0,0,0-1.66-3.333,4.022,4.022,0,0,0-2.34-.833,2.728,2.728,0,0,0-.66.083,2.741,2.741,0,0,1-.67.083l-22,7.333-0.67-.833,25.17-8.667q2.835-.5,2.83-3.667v-48.5l21.34,2.167a4.84,4.84,0,0,1-2,1.167c-2.12.557-3.17,1.833-3.17,3.833V73.833a4.082,4.082,0,0,0,1.67,3.333,4.925,4.925,0,0,0,2.5.667,4.3,4.3,0,0,0,1.33-.167l21.17-7.167a3.5,3.5,0,0,0,2.66-3.667V20.166l22.17,2c-0.22.445-1.06,0.833-2.5,1.167a3.574,3.574,0,0,0-3.17,3.833V58.5a3.673,3.673,0,0,0,1.67,3.167,4.75,4.75,0,0,0,2.5.833,2.349,2.349,0,0,0,1.33-.333l25.84-8.5a4.069,4.069,0,0,0,1.33-1l8.83-8.333,15,12.667c-0.33,0-.5.057-0.5,0.167a6.928,6.928,0,0,1-2.16.667c-2.12.557-3.17,1.833-3.17,3.833q-0.165,14-1.33,26.167a185.4,185.4,0,0,1-2,19.166,50.136,50.136,0,0,1-3.17,11.834,13.693,13.693,0,0,1-4.83,6.666h-0.17q-2.34,2.337-7.83,4.5a28.342,28.342,0,0,1-9,1.334c-0.12-.888-0.25-2.084-0.42-3.584s-0.25-2.526-.25-3.083a14.9,14.9,0,0,0-2-6.167,0.443,0.443,0,0,0-.5-0.5,20.792,20.792,0,0,0-5-4.166,6.458,6.458,0,0,1-1.83-.834c0.55,0,1.36.058,2.41,0.167s1.86,0.167,2.42.167c1.22,0.112,2.67.166,4.33,0.166a10.128,10.128,0,0,0,3.5-.5,6.775,6.775,0,0,0,2.67-1.666q3.66-3,5-17.667,1.005-11.5,2-34.167a3.833,3.833,0,0,0-1.67-3.333,3.765,3.765,0,0,0-2.5-.833,4.375,4.375,0,0,0-1.33.167l-26.17,8.833q-3,1.168-3,3.667v41.5a6.442,6.442,0,0,0,.84,2.334,9.835,9.835,0,0,0-.84,2.5v17.833a5,5,0,0,1-1.5,1.167,29.226,29.226,0,0,1-5.83,2.5,22.493,22.493,0,0,1-7.17,1.166h-2V76.333A3.825,3.825,0,0,0,2257.11,73a19.019,19.019,0,0,0-2.17-.833,2.773,2.773,0,0,0-.83.167,2.78,2.78,0,0,1-.67.167l-21.33,7.167a4.165,4.165,0,0,0-2.67,3.833V147a9.949,9.949,0,0,0,2.17,6.5q1.5,2.333,6.16,3.334a46.245,46.245,0,0,0,10.5.833h36c8.34,0,14.11-.057,17.34-0.167q3.33,0,11.33-.5h0.33a17.3,17.3,0,0,0,5.5-1.166,18.421,18.421,0,0,0,4-2.5,4.076,4.076,0,0,1,.34-0.584,5.511,5.511,0,0,0,.33-0.583q1.17-1.5,4.83-10,4.005-10.663,5.17-14.167l0.33,22.834q0.51,3.164,3,3.666,4.5,1.665,5.84,3a4.576,4.576,0,0,1,1.66,3.5,7.677,7.677,0,0,1-2.16,5.667q-1.845,2.165-8.5,3.833-5.67,1.665-19,2.5-11.175.665-32,.667h-33.5A119.534,119.534,0,0,1,2227.94,172h0Zm180.75-.416a27.8,27.8,0,0,1-.25-2.917,10.619,10.619,0,0,0-2.5-6,17.388,17.388,0,0,0-5.33-4.167,1.644,1.644,0,0,1-.84-0.333,7.4,7.4,0,0,0-.83-0.5c2.44,0.221,4.17.333,5.17,0.333a27.5,27.5,0,0,0,4.5.334,10.268,10.268,0,0,0,7-2.334q3.495-3.5,5.5-17.166,1.665-9.165,3-31.834a3.99,3.99,0,0,0-1.34-2.833,3.07,3.07,0,0,0-2.83-1.333h-15c-2.11,0-3.45,1.112-4,3.333a28.1,28.1,0,0,1-.67,3.5V110a120.481,120.481,0,0,1-6.33,25.5,78.6,78.6,0,0,1-13.83,22.834q-7.68,9-20.84,16.333a66.113,66.113,0,0,0,14-18.333,97.452,97.452,0,0,0,9.34-24.667,179.336,179.336,0,0,0,3.83-24.5,3.6,3.6,0,0,0-1.17-3,3.07,3.07,0,0,0-2.83-1.333h-21l-0.5-1.167h22.33c2.22,0,3.56-1.276,4-3.833q0-2.5.17-7.167t0.33-7.167c0-1.776-.66-2.943-2-3.5a3.506,3.506,0,0,0-4.33.167,17.3,17.3,0,0,1-4,1.833,18,18,0,0,1-7.33,1.333h-1.5V22.666l17.83,6.833a3.444,3.444,0,0,0,1.33.167h30a4.065,4.065,0,0,0,3-1.167l7-7.667L2443.44,32.5l-0.33.333a8.764,8.764,0,0,1-2.5,1,3.667,3.667,0,0,0-3,3.833V77.833a4.544,4.544,0,0,1-1.5.667,26.655,26.655,0,0,1-6.17,2,29.161,29.161,0,0,1-6.33.833h-1.17v-4.5A3.747,3.747,0,0,0,2421.19,74a4.152,4.152,0,0,0-2.92-1.167h-6.5a4.079,4.079,0,0,0-2.58,1,3.632,3.632,0,0,0-1.42,2.5,4.066,4.066,0,0,0,1.34,3.333,3.933,3.933,0,0,1-.67.833,3.352,3.352,0,0,1-2,.833,3.575,3.575,0,0,0-3,3.667c-0.11,1.333-.31,3.362-0.58,6.083s-0.48,4.75-.59,6.083a3.058,3.058,0,0,0,1,3.167,3.993,3.993,0,0,0,2.84,1.333h13.33a4.874,4.874,0,0,0,3-1.167l8.17-7.833,14.66,12-0.16.167-0.17.166c-0.45.112-1.22,0.279-2.33,0.5q-3.345.837-3.34,3.834-0.825,17-2.33,30.666a93.214,93.214,0,0,1-4.17,19.5q-2.67,6.833-6.33,9.667a22.644,22.644,0,0,1-8.33,4.167,45.9,45.9,0,0,1-9,1.333C2408.99,174,2408.86,172.971,2408.69,171.583ZM2384.27,32.166A3.847,3.847,0,0,0,2383.11,35V67.666a3.839,3.839,0,0,0,1.16,2.833,4.065,4.065,0,0,0,3,1.167h31a4.065,4.065,0,0,0,3-1.167,3.848,3.848,0,0,0,1.17-2.833V35a3.747,3.747,0,0,0-1.25-2.833A4.151,4.151,0,0,0,2418.27,31h-31A4.075,4.075,0,0,0,2384.27,32.166Zm100.5,139.917c-0.11-.834-0.25-1.7-0.41-2.584s-0.31-1.557-.42-2a15.8,15.8,0,0,0-3.67-6.666,18.461,18.461,0,0,0-6.33-4.834,18.908,18.908,0,0,1-2.17-.833h1q5.67,0.332,7.84.333a40.3,40.3,0,0,0,5.33.334,7.258,7.258,0,0,0,3.83-.834,6.064,6.064,0,0,0,1.34-1.666,5.892,5.892,0,0,0,.5-2.834V19.333l22,2.333h-0.17a10.858,10.858,0,0,1-2,.833,3.445,3.445,0,0,0-3.17,3.833V152.166a39.472,39.472,0,0,1-1.66,11.5q-1.335,4-6.67,7.167-4.5,2.664-15,3.666h0.17C2484.99,173.721,2484.88,172.916,2484.77,172.083Zm-27.33-140.75,20.17,2.167a4.622,4.622,0,0,1-2.34,1,3.767,3.767,0,0,0-3,4v93.334a0.733,0.733,0,0,0-.33.083,1.948,1.948,0,0,0-.42.333,2.086,2.086,0,0,1-.58.417,18.906,18.906,0,0,1-5.33,2,23.388,23.388,0,0,1-6.67,1.167h-1.5V31.333Zm120.83,140.833q-4.665-1-6.33-4.167-1.83-3.336-1.83-9.666v-44L2590.94,116a2.321,2.321,0,0,1-1.33.667,3.636,3.636,0,0,0-2.84,3.833v33.667q0,3,2,4.167c0.22,0,.34.054,0.34,0.166,0.88,0.555,3.22.834,7,.834h38.83a6.515,6.515,0,0,0,3.83-1.167,10.135,10.135,0,0,0,2.84-2.333v-0.167a43.166,43.166,0,0,0,3.83-8.167,63.1,63.1,0,0,0,3.17-8.333l0.5,14.833a3.481,3.481,0,0,0,2.5,3.667q3.33,1.5,3.83,2.333a5.511,5.511,0,0,1,1.33,3.5,8.354,8.354,0,0,1-1.5,4.5q-1.335,1.665-5.83,3a75.881,75.881,0,0,1-12.67,2q-8.49.5-21.33,0.5h-22.5q-10.17,0-14.67-1.333h0Zm-44.83-8.833a8.592,8.592,0,0,1-3.5-3.667c-1.11-2.779-1.06-5.167.17-7.167a15.33,15.33,0,0,1,5.66-5.666,26.112,26.112,0,0,0,7.5-6.667A41.294,41.294,0,0,0,2549.11,130a25.068,25.068,0,0,0,2.16-8.166,52.665,52.665,0,0,1,3.17,16.666q0,9-2.67,15-2.835,6-6.66,8.667a12.52,12.52,0,0,1-5.84,2.167,1.44,1.44,0,0,0-.66.166l-0.34.167a9.616,9.616,0,0,1-4.83-1.333h0Zm136.83-3.5a61.88,61.88,0,0,0-4-15,70.257,70.257,0,0,0-7.83-15.5,103.2,103.2,0,0,0-7.5-10.167q12.33,3.668,20.17,9,8.655,5.668,12.16,11.833a21.258,21.258,0,0,1,3.67,11.334,12.078,12.078,0,0,1-2.5,8,8.387,8.387,0,0,1-6.17,3.666h-0.66c-2.23,0-4.67-1.057-7.34-3.166h0Zm-55.66-22.667A55.63,55.63,0,0,0,2611.94,126q-1.995-5.5-5-11.833-3.495-6.665-4.17-7.667,11.01,3.168,16.67,7.334,6.495,4.5,9,9.333a13.564,13.564,0,0,1,2,8.5c-0.33,2.779-1.28,4.779-2.83,6a7.928,7.928,0,0,1-5.84,2.333,12.291,12.291,0,0,1-7.16-2.833h0Zm-60.75-42.417a6.582,6.582,0,0,1,1.58-1.25,1.357,1.357,0,0,1,.83-0.5,4.438,4.438,0,0,0,2-3.667v-35.5A3.713,3.713,0,0,0,2557.02,51a4.128,4.128,0,0,0-2.91-1.167h-23.67l-0.17-1.333h71.34a3.805,3.805,0,0,0,3-1.333,3.557,3.557,0,0,0,.83-3.333,44.634,44.634,0,0,0-2.83-9.167q-3.345-6.664-4.84-9c-0.44-.667-1.14-1.638-2.08-2.917a26.34,26.34,0,0,1-1.58-2.25q9.66,0.668,15.83,3.667,6.33,2.836,8.67,6.5a10.881,10.881,0,0,1,2.16,6.833,7.5,7.5,0,0,1-1.66,4.667q-1.845,1.5-.67,4.167a4.114,4.114,0,0,0,3.67,2.167h33.33a4.332,4.332,0,0,0,3.17-1.333l9.33-12,0.5,0.5a0.146,0.146,0,0,0,.17.167q1.995,1.5,5,4,1.155,1,3.33,2.75c1.44,1.167,2.5,1.974,3.17,2.417q0.825,0.668,2.58,2.167t2.58,2.167a5.117,5.117,0,0,1-2.33.5H2578.61A3.951,3.951,0,0,0,2575.86,51a3.713,3.713,0,0,0-1.25,2.833v37a3.705,3.705,0,0,0,1.25,2.833,3.94,3.94,0,0,0,2.75,1.167h63.33a3.812,3.812,0,0,0,3.17-1.5l9.5-11.667,0.66,0.5a26.2,26.2,0,0,1,2.59,1.917q1.74,1.418,2.91,2.25,3.675,2.5,6.67,5,1.83,1.336,5.17,4.333a7.973,7.973,0,0,1-2.5.333h-91.34a4.109,4.109,0,0,0-3.33,1.667l-4.67,7.167-18-9.167A4.04,4.04,0,0,0,2553.86,94.749Zm166.41,55.584a8.324,8.324,0,0,0,2.17-6.167V75a3.59,3.59,0,0,0-1.17-2.75,4.014,4.014,0,0,0-2.83-1.083h-17.83l-0.5-1.333h19.66a3.874,3.874,0,0,0,2.84-1.167l7.33-7.333,13.67,11.5c-0.23,0-.34.057-0.34,0.167-0.33,0-.5.057-0.5,0.167a8.374,8.374,0,0,1-1.66.667q-3,.5-3,4V138a3.294,3.294,0,0,0,1.83,3.334,5.133,5.133,0,0,0,2,.666,2.857,2.857,0,0,0,.67-0.083,6.835,6.835,0,0,0,.75-0.25,1.829,1.829,0,0,1,.58-0.167q2.16-1.335,6.5-3.666c2.89-1.555,5.05-2.776,6.5-3.667a68.844,68.844,0,0,1-5.17,6.667q-3.66,5.163-11.5,14.5-5.835,7.164-9.5,11.166a1.856,1.856,0,0,0-.66,1,7.007,7.007,0,0,0-.34.75c-0.11.276-.25,0.584-0.41,0.917a2.971,2.971,0,0,1-.42.667l-0.33.166a6.656,6.656,0,0,1-1.84,2.834l-12-18.167c3.11-2,4.95-3.445,5.5-4.333h0Zm55,20.333a11.145,11.145,0,0,1-6.83-4.333q-1.995-3.168-2-10V133.666a4.035,4.035,0,0,0-.83-2.333,4.026,4.026,0,0,0,.83-2.334V83l18.83,7.5a5.516,5.516,0,0,1,.84.083,4.721,4.721,0,0,0,.66.083h35.17a3.989,3.989,0,0,0,4-4V40.833a4.137,4.137,0,0,0-1.17-2.917,3.73,3.73,0,0,0-2.83-1.25h-62.83l-0.5-1h62.33a3.373,3.373,0,0,0,3-1.5l8-9.167,18,13.833a3.847,3.847,0,0,0-1.33.833l-3.5,1.167c-2.12.779-3.17,2.112-3.17,4v57.5a1.723,1.723,0,0,1-.67.333,5.285,5.285,0,0,0-.66.5,38.011,38.011,0,0,1-6.67,1.833,24.7,24.7,0,0,1-6.67,1.167h-1.33V95.833a3.59,3.59,0,0,0-1.17-2.75A4.014,4.014,0,0,0,2821.94,92h-35.5a4,4,0,0,0-2.83,1.083,3.59,3.59,0,0,0-1.17,2.75v57a5.765,5.765,0,0,0,2.5,5.166q1.665,1.164,8.5,1.167h35q1.335,0,4.08-.083c1.84-.058,3.14-0.141,3.92-0.25a13.232,13.232,0,0,0,3.83-.834,12.945,12.945,0,0,0,2.84-2.166,2.239,2.239,0,0,0,.5-0.834,44.375,44.375,0,0,0,3.83-8.333c0.33-.779.86-2.141,1.58-4.083s1.31-3.529,1.75-4.75l0.34,15.833a3.841,3.841,0,0,0,2.5,3.667,13.47,13.47,0,0,1,4.5,2.333,4.3,4.3,0,0,1,1.16,3.167,6.442,6.442,0,0,1-1.66,4.166q-1.5,1.5-6,2.834a71.894,71.894,0,0,1-13.5,1.666q-6.18.5-23,.5h-24.34a75.2,75.2,0,0,1-15.5-1.333h0ZM2734.11,52.5a70.264,70.264,0,0,0-5.5-11.667q-4.5-6.832-8-11.833-0.675-.832-6.5-7.667a71.127,71.127,0,0,1,18.66,5.333q8.34,4.5,11.5,8.667,3.675,4.5,4,8.667a11.836,11.836,0,0,1-1.66,6.833,7.181,7.181,0,0,1-5.17,3.333,2.773,2.773,0,0,0-.83.167,2.78,2.78,0,0,1-.67.167,10.521,10.521,0,0,1-5.83-2h0Zm168,117.834a18.5,18.5,0,0,0-2.5-6.334,15.9,15.9,0,0,0-4.67-4.166,9.48,9.48,0,0,0-1.5-.834,25.2,25.2,0,0,0,4.67.334q3.33,0.332,3.66.333a9.889,9.889,0,0,0,2.34-.333,5.459,5.459,0,0,0,1.83-1.667,4.635,4.635,0,0,0,.83-3v-27.5a3.073,3.073,0,0,0-1.33-2.833,3.169,3.169,0,0,0-2.5-1.167h-0.83a3.316,3.316,0,0,0-3.17,2.167,83.2,83.2,0,0,1-13.17,18.5,95.321,95.321,0,0,1-15,13,123.912,123.912,0,0,0,8.17-18,173.852,173.852,0,0,0,6.5-22.5l16.17,5.166h1a6.306,6.306,0,0,0,2.5-.5,3.818,3.818,0,0,0,1.66-3.333V102.833a3.885,3.885,0,0,0-1.16-2.834,4.075,4.075,0,0,0-3-1.167h-2.5a3.689,3.689,0,0,0-2.67,1.167,3.856,3.856,0,0,0-1.17,2.834v0.333a1.3,1.3,0,0,0-.58.333,2.842,2.842,0,0,1-.92.5,24.59,24.59,0,0,1-5.16,2.334,26.264,26.264,0,0,1-7,.833h-0.5v-47.5l15.83,6.5a4.3,4.3,0,0,0,1.33.167h28a3.874,3.874,0,0,0,2.84-1.167l7.16-7.833,13.5,10.333a4.75,4.75,0,0,0,2.5.833,5.176,5.176,0,0,0,2.17-.667h10.17a3.958,3.958,0,0,0,2.75-1.167,3.74,3.74,0,0,0,1.25-2.833v-46l21.66,2v0.333a0.689,0.689,0,0,0-.5.167c-1,.445-1.66.724-2,0.833a3.429,3.429,0,0,0-3,3.667q-0.33,25.168-.66,37.833v1a4.042,4.042,0,0,0,1.16,3,3.859,3.859,0,0,0,2.84,1.167h14.66a3.823,3.823,0,0,0,3-1.667l6.5-8.333a4.745,4.745,0,0,0,.67-4c-0.89-1.555-1.95-2.388-3.17-2.5a9.227,9.227,0,0,1-5-2.333,22.817,22.817,0,0,0-1.5-8.667,44.618,44.618,0,0,0-3.5-9.167q-0.495-1-1.41-2.833c-0.62-1.221-1.03-2-1.25-2.333a41.828,41.828,0,0,1,13.33,5.5q5.16,3.5,7,7.333a10.915,10.915,0,0,1,1.17,6.5,8.043,8.043,0,0,1-2.84,4.333,0.47,0.47,0,0,1-.33.167v0.333a3.133,3.133,0,0,0-1.5,3,4.015,4.015,0,0,0,1.67,3l1.5,1.167a26.6,26.6,0,0,1,2.33,2c1.78,1.557,3.83,3.279,6.17,5.167a28.15,28.15,0,0,0,2.41,2.083,26.908,26.908,0,0,1,2.25,1.917,4.014,4.014,0,0,1-2.33.5h-23.17a3.743,3.743,0,0,0-4,4v78.5a5.575,5.575,0,0,0,.34,2.334,3.36,3.36,0,0,0,2.83,2.666,4.124,4.124,0,0,0,1.83.334h7.84a10.666,10.666,0,0,1,1.33-.334l0.67-.166a5,5,0,0,0,2.5-.667,7.116,7.116,0,0,0,1.83-2.5,15.339,15.339,0,0,0,2.17-5.5q0.33-1,2.33-9.167a14.767,14.767,0,0,1,.83-3.333l0.34,17.167a3.24,3.24,0,0,0,2.16,3.333,25.373,25.373,0,0,1,2.5,2.333,8.4,8.4,0,0,1,.84,3.834,7.171,7.171,0,0,1-2,5q-1.68,2.163-6.34,3a59.615,59.615,0,0,1-14,1.333h-9.16c-4.12,0-7.17-.445-9.17-1.333a5.917,5.917,0,0,1-3.5-3.834,26.181,26.181,0,0,1-1.17-9V119.666a3.636,3.636,0,0,0-3.5-4h-0.33c-2.22,0-3.56,1-4,3q-1.335,5-3,9.5a96.21,96.21,0,0,1-14.5,26.5q-8.67,11.165-23.17,20.667a93.272,93.272,0,0,0,16-23.834,28.969,28.969,0,0,0,1.67-3,4.21,4.21,0,0,0-.33-4,3.049,3.049,0,0,0,2.83-2.333A126.848,126.848,0,0,0,2964.27,123a244.28,244.28,0,0,0,4.5-32l0.5-18a4.193,4.193,0,0,0-1-2.833A4.708,4.708,0,0,0,2965.44,69h-8.67a3.8,3.8,0,0,0-2-.5,5.867,5.867,0,0,0-2.33.5l-0.17.333-2.5,1a3.429,3.429,0,0,0-3,3.667v27.834a11.446,11.446,0,0,1-1.33.5,26.761,26.761,0,0,1-6.17,2,28.57,28.57,0,0,1-6.16.833h-1.34v-2.333a3.885,3.885,0,0,0-1.16-2.834,4.075,4.075,0,0,0-3-1.167h-1.34a4.075,4.075,0,0,0-3,1.167,3.847,3.847,0,0,0-1.16,2.834v12a2.724,2.724,0,0,0,.16.833v0.5a6.073,6.073,0,0,1-.08.667,4.719,4.719,0,0,0-.08.833v37.667a34.834,34.834,0,0,1-1.5,10.666,11.143,11.143,0,0,1-5.67,6.667q-4.005,2.5-12.5,3.5,0-2.5-.33-5.833h0Zm-4.67-101.75a3.944,3.944,0,0,0-1.17,2.75V93.5a4.133,4.133,0,0,0,1.17,2.917,3.571,3.571,0,0,0,2.67,1.25h27.5a3.73,3.73,0,0,0,2.83-1.25,4.133,4.133,0,0,0,1.17-2.917V71.333a3.944,3.944,0,0,0-1.17-2.75,3.73,3.73,0,0,0-2.83-1.25h-27.5A3.571,3.571,0,0,0,2897.44,68.583ZM2942.94,147q-2.505,0-5.5-2.666a38.957,38.957,0,0,0-1-9.667,79.909,79.909,0,0,0-3-10.333q-0.33-.665-2.67-6.5,8.505,3.668,12.67,7.5,4.995,4.167,6.5,8.333,1.5,4,.83,6.5a4.3,4.3,0,0,0,.67,2.667,4.69,4.69,0,0,0-2.33,1.5,3.03,3.03,0,0,1-1.17,1.166,7.3,7.3,0,0,1-4.5,1.5h-0.5Zm-70.5-100h36.83a4.1,4.1,0,0,0,4-3,3.573,3.573,0,0,0-1.5-4.333A45.429,45.429,0,0,0,2906.61,27a98.591,98.591,0,0,0-6.17-9,45.448,45.448,0,0,1,15,3.333,20.7,20.7,0,0,1,8.33,6,11.5,11.5,0,0,1,2,6.333,7.824,7.824,0,0,1-2.5,5.167,4.608,4.608,0,0,1-1,.833,4.266,4.266,0,0,0-1.5,4.667,3.889,3.889,0,0,0,4,2.667h7.67a4.1,4.1,0,0,0,3.33-1.667l8.5-11.667,0.67,0.167a48.73,48.73,0,0,0,5,4.167q1.335,1.168,6.33,5.5a43.857,43.857,0,0,1,4.5,4.167c-0.11.333-.89,0.5-2.33,0.5h-85.83Zm267,49.5a3.59,3.59,0,0,0-1.17-2.75,4.014,4.014,0,0,0-2.83-1.083h-26.17a3.727,3.727,0,0,0-2.75,1.083,4.227,4.227,0,0,0-1.25,2.583q-0.33,7.335-.83,11.5a87.8,87.8,0,0,1-4.83,19.833,61.836,61.836,0,0,1-10.34,18A77.2,77.2,0,0,1,3070.94,162a131.509,131.509,0,0,1-22.17,10.667,91.991,91.991,0,0,0,17.34-15,76.249,76.249,0,0,0,13.5-21.5,84.726,84.726,0,0,0,6.5-23.5,113.1,113.1,0,0,0,1.5-15.833,2.882,2.882,0,0,0-1-3,4.075,4.075,0,0,0-3-1.167h-39l-0.17-1.167h39.33a3.874,3.874,0,0,0,2.84-1.167,3.691,3.691,0,0,0,1.16-2.667V38a3.972,3.972,0,0,0-4-4h-32l-0.16-1.167h114.5a3.793,3.793,0,0,0,3.16-1.5l8.67-11.5,0.67,0.5q0.66,0.5,2.16,1.833a32.048,32.048,0,0,0,2.67,2.167q1.83,1.336,6,5.167a23.658,23.658,0,0,0,2.5,2.083,23.624,23.624,0,0,1,2.33,1.917,4.524,4.524,0,0,1-2.33.5h-30.33a3.729,3.729,0,0,0-4,4V87.666a3.652,3.652,0,0,0,1.16,2.667,3.858,3.858,0,0,0,2.84,1.167h12.66a3.3,3.3,0,0,0,3.34-1.833l8.5-13.167,0.16,0.333a64.751,64.751,0,0,1,5,4.667q1.005,0.836,3.09,2.833c1.38,1.333,2.47,2.333,3.25,3q3.165,3.168,4.5,4.667a3.557,3.557,0,0,1-2.5.667h-38a4.021,4.021,0,0,0-2.84,1.083,3.581,3.581,0,0,0-1.16,2.75v73a4.6,4.6,0,0,1-1.5,1,24.4,24.4,0,0,1-5.34,2.5,31.041,31.041,0,0,1-9.16,1h-2.17V96.5Zm-32.58-61.333A3.989,3.989,0,0,0,3105.77,38V87.666a3.779,3.779,0,0,0,1.09,2.667,3.57,3.57,0,0,0,2.75,1.167h25.83a3.852,3.852,0,0,0,2.83-1.167,3.663,3.663,0,0,0,1.17-2.667V38a3.786,3.786,0,0,0-1.17-2.917A4.014,4.014,0,0,0,3135.44,34h-25.83A3.579,3.579,0,0,0,3106.86,35.166Zm135.58,80a3.541,3.541,0,0,0-2.33-3.5,13.265,13.265,0,0,0-1.67-.5,6.393,6.393,0,0,0-2.5.833,109.378,109.378,0,0,1-18.5,12.5,148.559,148.559,0,0,0,18.5-20.333,211.153,211.153,0,0,0,18-29q3.825-7.5,7-15a4.327,4.327,0,0,0-.33-4,3.836,3.836,0,0,0-3.34-1.667h-38.5l-0.5-1.167h42.67a3.954,3.954,0,0,0,3.83-2.5q1.665-4.5,2-5.833,4.83-14.332,7.84-27.167l24.66,6.5a7.352,7.352,0,0,1-2.5.667,3.183,3.183,0,0,0-3,2.5q-3,8.168-8.33,20.167a3.62,3.62,0,0,0,.17,3.833,3.476,3.476,0,0,0,3.33,1.833h48.5a3.812,3.812,0,0,0,3.17-1.5l10.33-13.167,0.83,0.667a67.84,67.84,0,0,0,5.67,4.333q0.825,0.5,7.17,5.667,1.83,1.5,5.5,4.833a5.172,5.172,0,0,1-2.17.333h-83.67a3.559,3.559,0,0,0-3.5,2.167,236.554,236.554,0,0,1-15.66,25q-1.335,2-4.34,5.667a3.981,3.981,0,0,0-.66,3.5,4.548,4.548,0,0,0,2.5,2.667l0.66,0.167a6.67,6.67,0,0,1-1,.667,3.6,3.6,0,0,0-2.66,3.833v62.5a3.8,3.8,0,0,0,1.33,3,3.391,3.391,0,0,0,2.5.833h37.33a3.884,3.884,0,0,0,2.84-1.166,3.7,3.7,0,0,0,1.16-2.667v-49a3.973,3.973,0,0,0-4-4h-27.83l-0.5-1h28.33a4.026,4.026,0,0,0,2.84-1.083,3.808,3.808,0,0,0,1.16-2.917v-36.5l21.5,1.667a2.888,2.888,0,0,1-1.66.667,4.1,4.1,0,0,0-3,4v30.167a3.973,3.973,0,0,0,4,4h6.66a4.47,4.47,0,0,0,3.17-1.5l8.83-11.5,0.67,0.5a42.823,42.823,0,0,1,5,4,71.209,71.209,0,0,1,6.5,5q1.5,1.168,4.83,4.167a7.282,7.282,0,0,1-2.33.333h-33.33a3.973,3.973,0,0,0-4,4v49a3.657,3.657,0,0,0,1.16,2.667,3.868,3.868,0,0,0,2.84,1.166h15.33a4.342,4.342,0,0,0,3.17-1.333l10-12.5,0.66,0.333c1.34,1.11,3.11,2.555,5.34,4.334q1.995,1.832,7,5.5,2.325,2.163,5.16,4.333a3.245,3.245,0,0,1-2.33.667H3266.27a3.316,3.316,0,0,0-2.83-1.334,1.78,1.78,0,0,0-1,.334q-3.165.663-3.17,3.666V172a5.05,5.05,0,0,1-1.33,1.167c-0.33.109-1.2,0.417-2.58,0.917a30.692,30.692,0,0,1-3.59,1.083,20.885,20.885,0,0,1-7.16,1h-2.17v-61Zm164.33-35a4.322,4.322,0,0,0-1.5-3,4.774,4.774,0,0,0-2.5-.833,2.354,2.354,0,0,0-1,.167c-0.55.112-1.39,0.307-2.5,0.583s-1.94.474-2.5,0.583q3.165-1.664,7.67-4.5,2.16-1.332,4.67-3,2.49-1.664,5.58-3.75c2.05-1.388,3.64-2.471,4.75-3.25q3.825-2.664,14-10.5,1.335-1.164,3.58-3c1.5-1.221,2.47-2,2.92-2.333A3.462,3.462,0,0,0,3441.11,43q-0.51-2.832-3.67-2.833h-23.33a4.119,4.119,0,0,0-3,1.333,3.856,3.856,0,0,0-1.17,2.833q0,7.168-2.33,11.333a13.918,13.918,0,0,1-5.84,6.5h-0.16a10.056,10.056,0,0,1-4.84,1.167,14.915,14.915,0,0,1-2.66-.167,7.483,7.483,0,0,1-5-4.833,6.55,6.55,0,0,1,1-6.167,10.147,10.147,0,0,1,5.33-4.667h0.33a22.723,22.723,0,0,0,8.34-8.5,22.408,22.408,0,0,0,2.66-9.167q0.33,0.836.84,2.167c0.33,0.891.61,1.667,0.83,2.333s0.44,1.333.67,2q0.495,2.836,3.66,2.833h43.5a4.065,4.065,0,0,0,3-1.167,4.424,4.424,0,0,0,1-3,26.59,26.59,0,0,0-2.83-10.833,42.4,42.4,0,0,0-4.67-7q9.84,0.336,15.17,2.167,5.835,2.168,8,5.333a6.467,6.467,0,0,1,1,5.5,22.975,22.975,0,0,1-1,3,3.5,3.5,0,0,0-.17,4c0.45,1.333,1.61,2,3.5,2h37.84a3.833,3.833,0,0,0,2.83-1l8.67-9,15.66,14.667a20.618,20.618,0,0,1-3.16.5,2.506,2.506,0,0,0-1.84.667q-0.99.836-10.5,6.667a6.355,6.355,0,0,0-1.08.5,2.053,2.053,0,0,1-.92.333,4,4,0,0,0-2.16,3.5,3.926,3.926,0,0,0,2,3.667,27.522,27.522,0,0,1,7,6q3.165,4.168,3.16,7.5A5.733,5.733,0,0,1,3534.61,78a8.4,8.4,0,0,1-2.67,1.167c-1.45.112-2.5,1.112-3.17,3a4.365,4.365,0,0,0,1.5,4.167l1.84,1.333-0.17.167-0.17.167a8.1,8.1,0,0,1-1.16.417,5.139,5.139,0,0,0-1.34.583,3.349,3.349,0,0,0-3.16,3.667v79a11.7,11.7,0,0,1-3.34,1.833c-2.55,1.443-6.28,2.167-11.16,2.167h-1.67v-6.333a3.581,3.581,0,0,0-1.17-2.75,4,4,0,0,0-2.83-1.084h-79.83a3.939,3.939,0,0,0-2.75,1.167,3.535,3.535,0,0,0-1.25,2.667V173.5c-0.12.334-1.06,0.888-2.84,1.667q-3.33,1.663-10.83,1.667h-1.67V80.166Zm31,84.167h68.17a3.818,3.818,0,0,0,2.75-1.25,4.016,4.016,0,0,0,1.25-2.917v-68.5a3.748,3.748,0,0,0-1.25-2.833,3.951,3.951,0,0,0-2.75-1.167h-41.5a3.709,3.709,0,0,0-4,3.333q-0.495,3.5,3,4.5l2,0.5a6.181,6.181,0,0,0-2.67,1.667,19.982,19.982,0,0,1-1.16,1.917,18.925,18.925,0,0,0-1.17,1.916q-1.5,1.5-.33,4a3.972,3.972,0,0,0,3.5,2.167h13.16a3.345,3.345,0,0,0,2.67-1.167l7.67-7.166,12.83,10.833a6.9,6.9,0,0,0-1.33.25,7.184,7.184,0,0,1-1.67.25c-1.56.224-2.5,0.891-2.83,2A81.921,81.921,0,0,1,3482.61,129c-1,1-1.34,1.946-1,2.834a3.271,3.271,0,0,0,1.66,3c0.22,0.224.89,0.778,2,1.666q4.665,4.164,5.67,7.834a7.529,7.529,0,0,1,0,5.833,6.166,6.166,0,0,1-3.33,3,5.128,5.128,0,0,0-.84.083,5.16,5.16,0,0,1-.66.084,10.446,10.446,0,0,1-4-1,38.858,38.858,0,0,0-6.84-8.834l-1.83-1.833a3.345,3.345,0,0,0-2.67-1.167,6.288,6.288,0,0,0-2.5.5,100.271,100.271,0,0,1-29.66,14.834,96.573,96.573,0,0,0,24-18.667,3.2,3.2,0,0,0,1-3,4.209,4.209,0,0,0-1.5-2.833q-2.01-1.665-11.67-8.667V123a130.187,130.187,0,0,1,17,3.834,1.617,1.617,0,0,0,1.17.333,4.1,4.1,0,0,0,3.33-1.667,88.682,88.682,0,0,0,6-11.166c0.67-1,.61-2.222-0.17-3.667a4.294,4.294,0,0,0-3.33-1.833h-17.67a4.3,4.3,0,0,0-3.16,1.333,59.639,59.639,0,0,1-5.17,5.833c-1.22,1.446-1.56,2.779-1,4q0.165,0.336.33,0.75a2,2,0,0,1,.17.584h-0.17a3.14,3.14,0,0,0-2.33-.834,4.446,4.446,0,0,0-2.67,1,0.472,0.472,0,0,1-.16.334,2.864,2.864,0,0,1-.42.333,2.736,2.736,0,0,0-.42.333,59.137,59.137,0,0,1-10.66,8.167,73.753,73.753,0,0,0,6.5-9.333q3.165-5.5,7.83-15.334a91.384,91.384,0,0,0,4.83-13.333,4.732,4.732,0,0,0-.66-3.5,4.114,4.114,0,0,0-3.34-1.667h-20.16a3.817,3.817,0,0,0-2.75,1.25,3.975,3.975,0,0,0-1.25,2.917V130.5a3.856,3.856,0,0,0,.66,2.167,5.422,5.422,0,0,0-.66,2.333v25.167a3.977,3.977,0,0,0,1.25,2.917,3.818,3.818,0,0,0,2.75,1.25h5.16a3.837,3.837,0,0,0,3.34-1.667,3.412,3.412,0,0,0,3.16,1.667h0Zm36-95.334a2.665,2.665,0,0,0-2.16,1q-1.335,1.168-4.34,3.75t-4,3.583a12.686,12.686,0,0,1-1.08.833,11.892,11.892,0,0,0-1.25,1,4.2,4.2,0,0,0-1.33,4.667,3.759,3.759,0,0,0,3.83,2.5h42.67a3.515,3.515,0,0,0,3-1.333l8.5-9.5a3.62,3.62,0,0,0,.83-3.167,2.794,2.794,0,0,0-1.67-2.667q-3.825-2.832-12.5-8.167-4.17-2.5-15.16-8-1.845-.832-10.67-4.333h2.5A136.284,136.284,0,0,1,3504.27,51a85.808,85.808,0,0,1,10,2.833,2.842,2.842,0,0,0,1.17.167,3.374,3.374,0,0,0,2.17-.667,2.836,2.836,0,0,0,1.83-2.5c0.11-.555.3-1.526,0.58-2.917a19.5,19.5,0,0,1,.75-2.917,4.6,4.6,0,0,0-1.16-3.333,2.982,2.982,0,0,0-2.84-1.5h-69.16q-2.505,0-3.84,2.833a3.769,3.769,0,0,0,1.5,4.5l14.67,11a3.674,3.674,0,0,0-.83,3.667,3.072,3.072,0,0,0,3,2.833l15,3.167a6.177,6.177,0,0,1-3.34.833h0Zm-24.33-9.167q-2.835,1.168-14.83,5.833-8.505,3.168-21.67,7.5a2.322,2.322,0,0,0-.5.083,1.1,1.1,0,0,0-.5.25,3.61,3.61,0,0,0-2.67,3.833,3.487,3.487,0,0,0,2.5,3.667l13.34,5a3.259,3.259,0,0,0,1.5.333h19.16a3.64,3.64,0,0,0,3.84-2.833,21.584,21.584,0,0,0,.75-2.5,13.959,13.959,0,0,1,.58-2c0.33-1,.78-2.471,1.33-4.417s0.95-3.417,1.17-4.417c0.22-.776.5-1.776,0.83-3s0.56-2.055.67-2.5q0.66-2.832-1.33-4a3.076,3.076,0,0,0-2.5-1,7.092,7.092,0,0,0-1.67.167h0Zm123.5-28.167L3593.44,40a3.444,3.444,0,0,0,1.33.167h77a3.348,3.348,0,0,0,2.84-1.333L3683.77,28l19.84,15.667c-0.23.112-.53,0.279-0.92,0.5a4.249,4.249,0,0,0-.75.5,14.332,14.332,0,0,1-4.17,1.667,3.667,3.667,0,0,0-3,3.833V157a9.958,9.958,0,0,1-2,1.334,38.01,38.01,0,0,1-7.16,2.666,25.219,25.219,0,0,1-7.67,1.167h-1.17V146.333a3.535,3.535,0,0,0-1.25-2.667,3.939,3.939,0,0,0-2.75-1.167h-78a3.773,3.773,0,0,0-2.66,1.084,3.581,3.581,0,0,0-1.17,2.75v13.333l-2,1.667a15.058,15.058,0,0,1-6.17,3.166,25.655,25.655,0,0,1-8.16,1.334h-1.67V31.666Zm19.17,10.917a3.944,3.944,0,0,0-1.17,2.75V137.5a4,4,0,0,0,3.83,3.834h78a3.952,3.952,0,0,0,2.75-1.167,3.54,3.54,0,0,0,1.25-2.667V45.333a4.3,4.3,0,0,0-4-4h-78A3.535,3.535,0,0,0,3592.11,42.583Zm251.16,126.083a12.47,12.47,0,0,0-3.66-6.833,24.664,24.664,0,0,0-7.67-4.834c-0.22-.112-0.7-0.307-1.42-0.583a14.711,14.711,0,0,0-1.75-.583h0.5q6.33,0.663,9.17.666,2.67,0.165,6.67.167a11.089,11.089,0,0,0,4.33-.667,7.616,7.616,0,0,0,3.17-2q3.825-3.5,5.83-17.166,1.5-10.665,2.83-35.334,0.165-3.663,1.34-46.166a4.481,4.481,0,0,0-1-2.667,4.075,4.075,0,0,0-3-1.167h-28.67a4.454,4.454,0,0,0-3.67,2q-0.825,1.668-5,8.333a131.4,131.4,0,0,1-13.5,17.333,2.326,2.326,0,0,0-.83,1.5,3.371,3.371,0,0,0-1.67,1q-3.165,3.168-6.66,6.167a4.022,4.022,0,0,0-2.34.833,3.955,3.955,0,0,0-1.66,3.167v67.5a5.534,5.534,0,0,1-1.67,1,46.026,46.026,0,0,1-5.83,2.333,19.161,19.161,0,0,1-6.67,1h-1.17v-9.333a4.081,4.081,0,0,0-1.16-3,3.873,3.873,0,0,0-2.84-1.167h-22a3.731,3.731,0,0,0-2.83,1.25,4.133,4.133,0,0,0-1.17,2.917v10.5a7.26,7.26,0,0,0-1.5,1.166,12.818,12.818,0,0,1-5,2.5,18.645,18.645,0,0,1-7,1h-1.33V43.5l15,6.333a9.718,9.718,0,0,0,1.67.333,2.487,2.487,0,0,0,1.83-.667,3.607,3.607,0,0,0,2.17-2.833q0.495-3.832.66-5.167c0.11-1.109.34-3.138,0.67-6.083s0.55-5.25.67-6.917q0.33-2.5,1.16-10.167L3781.77,24a5.874,5.874,0,0,1-3.33,1,3.536,3.536,0,0,0-3,1.667,86.729,86.729,0,0,0-5.5,7.333q-4.665,6-7.17,9.167h-0.16a0.715,0.715,0,0,1-.25.417,2.151,2.151,0,0,0-.42.583,3.283,3.283,0,0,0-.33,4.167,3.351,3.351,0,0,0,3.5,2.333h9.83a3.97,3.97,0,0,0,2.83-1.333l7.5-8.167,15.5,12.167a2.029,2.029,0,0,0-.5.333c-1.11.445-2,.833-2.66,1.167a3.429,3.429,0,0,0-3,3.667V80.666q0,3,3.16,3.667a3.167,3.167,0,0,0,1,.167,3.682,3.682,0,0,0,3.67-2.167q2.67-6.164,5.83-14.167,4.17-11.664,8-25.333,3-11,5.84-24.5l22.5,6.5c-0.23.112-1.06,0.391-2.5,0.833a3.276,3.276,0,0,0-3.34,2.5,131.9,131.9,0,0,1-7.5,16.167,3.893,3.893,0,0,0,.34,3.833,3.241,3.241,0,0,0,3.33,2h22.83A2.808,2.808,0,0,0,3860.44,49l9.5-9.5,15.33,13.833a1.128,1.128,0,0,0-.83.333,5.919,5.919,0,0,1-2.67.667,3.951,3.951,0,0,0-3.16,4q0,1.336-1.17,43.5-0.675,16.335-2.17,32.666a178.268,178.268,0,0,1-3.66,21.334Q3869.27,164,3865.94,167a21.059,21.059,0,0,1-9.83,6.667,35.817,35.817,0,0,1-12,2,31.337,31.337,0,0,0-.84-7h0Zm-92.83-67.583a4.135,4.135,0,0,0-1.17,2.916v41.167a3.99,3.99,0,0,0,4,4h22a3.8,3.8,0,0,0,2.92-1.167,4.023,4.023,0,0,0,1.08-2.833V104a4.091,4.091,0,0,0-1.16-3,3.884,3.884,0,0,0-2.84-1.166h-22A3.728,3.728,0,0,0,3750.44,101.083Zm0-48.084a3.856,3.856,0,0,0-1.17,2.833V94.5a4.133,4.133,0,0,0,1.17,2.917,3.73,3.73,0,0,0,2.83,1.25h22a3.875,3.875,0,0,0,2.84-1.167,4.081,4.081,0,0,0,1.16-3V55.833a3.972,3.972,0,0,0-4-4h-22A3.862,3.862,0,0,0,3750.44,53Zm76.5,66.5a46.49,46.49,0,0,0-2.67-12.166,69.161,69.161,0,0,0-5.5-12.834,95.684,95.684,0,0,0-5.16-8.5q10.995,3.668,17.16,8,7.005,5.336,9.5,10,2.67,5.337,2.17,9.167-0.495,4.337-3,6.333a9.245,9.245,0,0,1-5.67,2.834h-0.16q-2.67,0-6.67-2.834h0Zm173-97.666,18.67,8.667a13.358,13.358,0,0,0,1.66.5h13.84a3.84,3.84,0,0,0,2.66-1.333l8.67-8.5L4062.77,37l-0.33.167a21.273,21.273,0,0,1-3.83.5,3.646,3.646,0,0,0-2.84,2q-3.99,6.668-5.33,8.5-1.335,2.668-6.67,11.333-3.33,5.336-7.5,11.167a68.4,68.4,0,0,1-5.83,7.833,5.27,5.27,0,0,0-.83,3.333,5.637,5.637,0,0,0,2,2.667,56.993,56.993,0,0,1,14.5,12q6.66,8,9.16,15.334a38.974,38.974,0,0,1,.67,29.166,20.292,20.292,0,0,1-8.17,9.167c-3.55,1.888-8.28,3-14.16,3.333,0-2.112-.06-3.666-0.17-4.666q0-1.168-.83-6.667a14.051,14.051,0,0,0-1.84-4.833,17.742,17.742,0,0,0-3.83-3.334,2.516,2.516,0,0,1-1-.333h6.83a9.059,9.059,0,0,0,4.84-1.333,7.256,7.256,0,0,0,3.66-4.334,17.988,17.988,0,0,0,1.34-7.333,62.49,62.49,0,0,0-3.34-20.167q-3-9.5-11.33-19,2.325-8.332,2.83-10.833,1.005-4.5,3-14.5,1.83-7.664,3-14.667a20.373,20.373,0,0,1,.84-4.667,4.63,4.63,0,0,0-1-3.333,3.641,3.641,0,0,0-3-1.5h-14a4.134,4.134,0,0,0-2.92,1.167A3.747,3.747,0,0,0,4015.44,36v93.834a4.134,4.134,0,0,0,1.33,3,4.925,4.925,0,0,0-1.33,2.833V169.5a2.468,2.468,0,0,1-1,1.167,17.369,17.369,0,0,1-5,2.333,21.262,21.262,0,0,1-8.17,1.334h-1.33V21.833Zm-81.67,121.833a141.194,141.194,0,0,0,8-29.833,3.157,3.157,0,0,0-.83-3.167c-0.45-.888-1.39-1.333-2.83-1.333h-17.5l-0.5-1.167h19.16q3.675,0,4-3.5,1.5-11,2.17-30.167a4.182,4.182,0,0,0-1.33-3,3.885,3.885,0,0,0-2.84-1.167h-19.66l-0.34-1h20.17a4.017,4.017,0,0,0,2.92-1.25,3.836,3.836,0,0,0,1.25-2.75V35.666a5.888,5.888,0,0,0-1-2.833,4.88,4.88,0,0,0-3-1h-20.34l-0.33-1.167h57.17a3.852,3.852,0,0,0,2.83-1.167l9.17-9.833,15.5,14a29.216,29.216,0,0,1-3.84,1.5,3.3,3.3,0,0,0-3,3.667q-0.165,11.836-.66,45-0.18,18.668-1.34,34-0.33,9-1.83,23.333A83.66,83.66,0,0,1,3976.27,156a29.028,29.028,0,0,1-4.5,8.5h-0.16a20.8,20.8,0,0,1-9.5,7,35.449,35.449,0,0,1-10.5,2.167q0-.835-0.5-7.333a11.335,11.335,0,0,0-2.5-6.667,16.56,16.56,0,0,0-5.67-4.5l-3-1.5q4.005,0.332,6,.333a31.2,31.2,0,0,0,5,.334,15.034,15.034,0,0,0,4-.667,15.286,15.286,0,0,0,3.33-2.333q3-3,4.5-11.667a228.47,228.47,0,0,0,2.5-23.167l0.17-3a4.062,4.062,0,0,0-1-3,3.862,3.862,0,0,0-2.83-1.166h-17c-2.23,0-3.5,1-3.84,3a92.256,92.256,0,0,1-4.5,14.666,105.39,105.39,0,0,1-13.83,25.834,108.808,108.808,0,0,1-22.17,21,118.288,118.288,0,0,0,18-30.167h0Zm25.17-36.833a3.989,3.989,0,0,0,3.17,1.333h15.33a4,4,0,0,0,2.83-1.083,3.4,3.4,0,0,0,1.17-2.584q0-3,.33-11.166t0.5-13V74.5a3.178,3.178,0,0,0-1-3,4.075,4.075,0,0,0-3-1.167h-13.16a3.824,3.824,0,0,0-2.67,1.083A3.405,3.405,0,0,0,3945.77,74q-0.66,9.668-2.16,23.833l-1,5.833A3.562,3.562,0,0,0,3943.44,106.833Zm4.5-73.917a3.405,3.405,0,0,0-1.17,2.583q-0.165,5.336-.41,15.167t-0.25,14.167v0.5a3.932,3.932,0,0,0,1.16,2.75,3.736,3.736,0,0,0,2.84,1.25h12.83a3.989,3.989,0,0,0,4-4q0.495-27,.5-29.667a4.7,4.7,0,0,0-1.17-2.833,4.2,4.2,0,0,0-2.83-1h-12.67A4.014,4.014,0,0,0,3947.94,32.916ZM4143.77,131a4.167,4.167,0,0,0-2.5-3.833,5.1,5.1,0,0,0-1.5-.167,4.075,4.075,0,0,0-3,1.167,126,126,0,0,1-15.16,14A183.289,183.289,0,0,1,4077.11,166a191.6,191.6,0,0,0,19.16-15,152.541,152.541,0,0,0,20-23.166q6-9,10-16.334a4.581,4.581,0,0,0,0-3.833,3.94,3.94,0,0,0-3.66-2h-47.17l-0.5-1.167h3.5a3.375,3.375,0,0,0,2.17-.666,2.838,2.838,0,0,0,1.83.666h57.33a3.876,3.876,0,0,0,2.84-1.166,4.081,4.081,0,0,0,1.16-3V79.666l22.67,2.167h-0.17a17.886,17.886,0,0,1-2.33,1q-3.165.5-3.17,4v13.5a4.13,4.13,0,0,0,1.17,2.916,3.728,3.728,0,0,0,2.83,1.25h35.84a4.449,4.449,0,0,0,3.16-1.5l9.17-11.5,0.33,0.5a52.17,52.17,0,0,1,5.17,4q5.325,4.168,6.5,5.167a45.025,45.025,0,0,1,5.17,4.167,5.171,5.171,0,0,1-2.17.333h-56.67a3.641,3.641,0,0,0-3.66,2.333,4.279,4.279,0,0,0,.66,4.334,70.058,70.058,0,0,0,6.84,6.666,114.14,114.14,0,0,0,18.16,12.834,220.224,220.224,0,0,0,20.67,10,133.809,133.809,0,0,0,17.67,5.5,23.1,23.1,0,0,0-8.34,5.833A29.8,29.8,0,0,0,4217.11,164a98.007,98.007,0,0,1-21.67-13.833,126.926,126.926,0,0,1-19-20.833,143.858,143.858,0,0,1-8.17-13.834,3.53,3.53,0,0,0-3.5-2.333,0.85,0.85,0,0,0-.83.333,3.358,3.358,0,0,0-3.17,3.667V171.5a3.074,3.074,0,0,1-1.66,1.167,28.237,28.237,0,0,1-6,2.5,38.7,38.7,0,0,1-7.5.833h-1.84V131Zm-42-48.833a44.784,44.784,0,0,0,9.84-18.5,72.383,72.383,0,0,0,2.33-18.5v-24.5L4134.27,28a5.255,5.255,0,0,1,.67.083,4.639,4.639,0,0,0,.67.083h34.83A3.852,3.852,0,0,0,4173.27,27l8.34-9,15,12.167a9.064,9.064,0,0,1-2,.333,3.8,3.8,0,0,0-3.17,4V64.333a6.322,6.322,0,0,0,.17,1.833,4.548,4.548,0,0,0,2.5,2.5,15.3,15.3,0,0,0,3,.333h8.66c0.56,0,1.31-.026,2.25-0.083s1.64-.083,2.09-0.083h3.33a15.544,15.544,0,0,0,2.5-.167,10.746,10.746,0,0,0,2.5-.167h0.33a2.615,2.615,0,0,1,1.84-.5,14.017,14.017,0,0,1,2.33-.333h1.67a14.066,14.066,0,0,1,4.33,2.833,5.382,5.382,0,0,1,1,3.333,7.766,7.766,0,0,1-2,5.167q-1.995,2-8,3.333a42.756,42.756,0,0,1-6.5.833,1.729,1.729,0,0,1-.67.333l-0.5.167a4.721,4.721,0,0,1-.66-0.083,5.471,5.471,0,0,0-.67-0.083h-0.17c-1.55.112-4.11,0.167-7.66,0.167h-12.17q-7.335,0-10.5-1.333a6.524,6.524,0,0,1-4-3.833,28.254,28.254,0,0,1-1.33-9.5V33.5a3.856,3.856,0,0,0-1.17-2.833,3.688,3.688,0,0,0-2.67-1.167h-37a4.128,4.128,0,0,0-2.91,1.167,3.713,3.713,0,0,0-1.25,2.833V44.833a67.8,67.8,0,0,1-1.34,13.667,42.189,42.189,0,0,1-6.5,14.167,50.444,50.444,0,0,1-15.16,13.5q-7.845,5-20.34,8.667,9.84-5.832,15-12.667h0ZM4357.11,150.5v-0.166q-4.005-5.169-5.5-7.334a2.9,2.9,0,0,0-2.84-1.833h-0.5a4.391,4.391,0,0,0-2.66,1,142.471,142.471,0,0,1-18.67,14.5q-14.835,9.5-36.17,17,23.34-12.5,38.34-28.167a182.3,182.3,0,0,0,13.16-15.5,3.7,3.7,0,0,0,.5-3.833,124.088,124.088,0,0,1-5.33-14.333,236.709,236.709,0,0,1-6.83-30,3.73,3.73,0,0,0-3.17-3.333h-0.83a3.836,3.836,0,0,0-3.34,1.667,120.215,120.215,0,0,1-21,23.5q3.84-7.332,6.84-14.333a3.766,3.766,0,0,0-.34-4,3.831,3.831,0,0,0-3.33-1.667h-18.5a3.989,3.989,0,0,0-4,4V125.5a4.082,4.082,0,0,0,1.67,3.334,3.622,3.622,0,0,0,2.33.666h1.17q0.825-.332,18.83-5.333-10.335,6.836-18.83,12-17.34,10.664-33.34,19.333a4.278,4.278,0,0,0-1.83,2.167,3.4,3.4,0,0,1-1,1.667,0.151,0.151,0,0,1-.17.166,0.143,0.143,0,0,0-.16.167l-7.67-18.833c1.33-.334,3.67-0.862,7-1.584s5.94-1.3,7.83-1.75l5-1.5q3.165-.831,3.17-3.833v-44.5a3.748,3.748,0,0,0-1.25-2.833,4.152,4.152,0,0,0-2.92-1.167h-14.5l-0.16-1.167h14.66a4.14,4.14,0,0,0,2.92-1.167,3.739,3.739,0,0,0,1.25-2.833v-39a3.836,3.836,0,0,0-1.25-2.75,4,4,0,0,0-2.92-1.25h-15.66l-0.17-1.167h34.33a3.982,3.982,0,0,0,3.34-1.5l8.5-11.667,0.16,0.167h0.34a16.77,16.77,0,0,0,2.41,2.25q1.755,1.418,2.25,1.917,1.17,1,3.25,2.75c1.39,1.167,2.36,2.029,2.92,2.583q0.825,0.668,4.5,4.333a4.4,4.4,0,0,1-2.33.333h-19.67a3.715,3.715,0,0,0-2.83,1.25,3.944,3.944,0,0,0-1.17,2.75v36a3.627,3.627,0,0,0,2.83,3.833,2.809,2.809,0,0,1,.67.083,2.168,2.168,0,0,0,.5.083,4.427,4.427,0,0,0,3.5-1.833l4.5-7.5L4296.11,71q3.495,3.836,6,6.167a23.945,23.945,0,0,0,1.75,2.083q1.41,1.586,2.25,2.417A3.609,3.609,0,0,0,4308.94,83h0.83a3.636,3.636,0,0,0,3-2.5,303.137,303.137,0,0,0,10-30.833,285.929,285.929,0,0,0,6.17-31.167l24,5.667c-0.22.112-1,.391-2.33,0.833a3.313,3.313,0,0,0-3.34,2.667q-3.825,12.668-8.16,23.167a3.633,3.633,0,0,0,.33,3.667,4.1,4.1,0,0,0,3.33,1.667h32.84a3.793,3.793,0,0,0,3.16-1.5l9.17-12.5,0.67,0.5q0.99,1,5,4.333,0.495,0.5,2.91,2.417t3.75,3.083a42.811,42.811,0,0,1,5,4.333,7.927,7.927,0,0,1-2.5.333h-12a3.666,3.666,0,0,0-2.58,1,3.755,3.755,0,0,0-1.25,2.333,184.61,184.61,0,0,1-9.67,34,130.789,130.789,0,0,1-17.83,32.5,3.666,3.666,0,0,0-.92,2.667,3.433,3.433,0,0,0,1.25,2.5A109.421,109.421,0,0,0,4375.61,145h0.16a141.2,141.2,0,0,0,30.34,14.167,23.712,23.712,0,0,0-10.5,5.833,28.183,28.183,0,0,0-6.67,10.5,88.22,88.22,0,0,1-31.83-25h0Zm-22.17-91a109.108,109.108,0,0,1-5.5,10.833,5.015,5.015,0,0,0-.5,3,188.041,188.041,0,0,0,6.5,20.5,110.74,110.74,0,0,0,9.83,20,3.807,3.807,0,0,0,3.5,2h0.17a3.638,3.638,0,0,0,3.33-2.167q1.665-3.332,4.67-10a173.581,173.581,0,0,0,11.33-41.833,3.039,3.039,0,0,0-1-3.167,3.484,3.484,0,0,0-2.83-1.5h-25.83a3.662,3.662,0,0,0-3.67,2.333h0Zm150.33,93.334q11.835-14.668,17.34-28.334a155.768,155.768,0,0,0,5.33-16.166,3.161,3.161,0,0,0-.5-3.5,4.47,4.47,0,0,0-3.17-1.5h-6a4.074,4.074,0,0,0-3,1.166,3.848,3.848,0,0,0-1.16,2.834v4a14.151,14.151,0,0,1-3,1.666,29.053,29.053,0,0,1-10.67,1.667h-1.33V90.833A3.99,3.99,0,0,0,4477.77,88a3.512,3.512,0,0,0,1.34-3V42a3.676,3.676,0,0,0-1.67-3.167,3.157,3.157,0,0,0-2.33-.833,4.446,4.446,0,0,0-1.34.167,6.626,6.626,0,0,1-1.83.167h-17.5a3.715,3.715,0,0,0-2.83,1.25,3.944,3.944,0,0,0-1.17,2.75V79.5a3.427,3.427,0,0,0,3,3.667,2.286,2.286,0,0,0,1,.167,3.275,3.275,0,0,0,3.33-1.833l3.34-5.333,0.83,0.5q1.5,1.668,5.67,5.833a30.233,30.233,0,0,0,2.16,2.75c1,1.167,1.72,2.029,2.17,2.583h0.17a0.47,0.47,0,0,0,.33.167l-0.33.167a2.907,2.907,0,0,1-2,.5h-15.67a3.846,3.846,0,0,0-2.83,1.167,4.058,4.058,0,0,0-1.17,3V130a4.082,4.082,0,0,0,1.67,3.334,3.622,3.622,0,0,0,2.33.666h1.33q11.67-3.663,17.67-5.666-6.33,4.836-16,11.666-12,8.832-29,19.667a2.578,2.578,0,0,0-1.67,2,4.73,4.73,0,0,1-1.5,2.333l-9.16-18.5q5.325-1.335,13.33-3.833a6.863,6.863,0,0,0,2.67-.833,3.43,3.43,0,0,0,3-3.667V92.833a4.137,4.137,0,0,0-1.17-2.917,3.73,3.73,0,0,0-2.83-1.25h-12.34l-0.33-1.333h12.67a3.989,3.989,0,0,0,4-4v-41a3.944,3.944,0,0,0-1.17-2.75,3.73,3.73,0,0,0-2.83-1.25h-14l-0.34-1.167h30.84a4.1,4.1,0,0,0,3.33-1.667l8.17-10.833,0.16,0.167q3.51,3,4.5,4c0.56,0.445,1.5,1.25,2.84,2.417a27.269,27.269,0,0,0,3.33,2.583c0.22,0.224.61,0.583,1.17,1.083s1,0.917,1.33,1.25a3.6,3.6,0,0,0,2.67,1,3.9,3.9,0,0,0,1.66-.5,2.42,2.42,0,0,0,1.5-1.167l18.34,7a2.186,2.186,0,0,0,1.33.5h4.5q3.165,0,3.83-3.333c0.22-1,.45-2.388.67-4.167l0.17-.167q0.66-6.332,1.33-9.667c0.11-.776.28-1.917,0.5-3.417a25.427,25.427,0,0,0,.33-3.25l24,5.5a15.067,15.067,0,0,1-3.66,1,3.765,3.765,0,0,0-2.5.833q-2.835,2.5-8.67,7.333l-2.67,2.167c-1.55,1.333-2,2.833-1.33,4.5A3.77,3.77,0,0,0,4518.27,43h25a4.322,4.322,0,0,0,3-1.5l7.5-8.667,14.84,11.333-0.17.167-0.17.167a7.934,7.934,0,0,1-2.16.5q-3.345.836-3.34,4v59.667a1.962,1.962,0,0,0-.58.167q-0.42.168-1.17,0.5t-1.41.666a4.284,4.284,0,0,1-2,.834,3.5,3.5,0,0,0-2.67,3.666,3.072,3.072,0,0,0,2,3.667v0.167h-1.17a4.109,4.109,0,0,0-3.33,1.666l-0.33.5a3.667,3.667,0,0,0-.5,3.167,10.127,10.127,0,0,0,.5,1.333l-0.17-.166h-1.17a3.373,3.373,0,0,0-3,1.5c-0.55.557-1.36,1.39-2.41,2.5s-1.87,1.945-2.42,2.5a3.926,3.926,0,0,0-.5,4.5,3.476,3.476,0,0,0,3.67,2.333h0.16q4.665-.332,6.5-0.667a3.765,3.765,0,0,0,2.67-1.666,3.192,3.192,0,0,0,.67-3.334,30.031,30.031,0,0,0-1.67-5.166,0.5,0.5,0,0,0-.17-0.334,1.277,1.277,0,0,0-.16-0.5q6.66,3.5,9.5,7.167a14.257,14.257,0,0,1,3.16,6c0.22,2.109,1.56,3.167,4,3.167l0.5,12.166a3.878,3.878,0,0,0,2.17,3.667,24.029,24.029,0,0,1,3.17,2,6.228,6.228,0,0,1,.83,3.333,6.412,6.412,0,0,1-2,4.667q-2.175,1.832-8.5,2.833-5.34,1-19.5,1h-15.5a44.872,44.872,0,0,1-11-1q-3.33-1.335-4.17-3.666a21.862,21.862,0,0,1-1.5-8.334V141.166a3.612,3.612,0,0,0-2.66-3.833,4.426,4.426,0,0,0-1.34-.167,3.065,3.065,0,0,0-3,1.667,121.469,121.469,0,0,1-20.66,20.666q-10.68,8.5-26.84,15.5a133.69,133.69,0,0,0,24.5-22.166h0Zm50.67,7h20c0.89,0,1.86-.029,2.92-0.084s1.75-.083,2.08-0.083c0.33-.112.8-0.25,1.42-0.417a5.807,5.807,0,0,1,1.25-.25,6.044,6.044,0,0,0,2.16-1.166,3.49,3.49,0,0,1,.84-0.667c0.11-.333.41-1.029,0.91-2.083s0.92-2.029,1.25-2.917a3.326,3.326,0,0,0-1-4.333,3.656,3.656,0,0,0-2.66-1.167,2.7,2.7,0,0,0-1.67.5,5.925,5.925,0,0,1-1.67.167h-0.16a6.34,6.34,0,0,1-3.84-1.834v-0.666a4.132,4.132,0,0,0-1.83-3.5,3.37,3.37,0,0,0-2.17-.667,2.453,2.453,0,0,0-1.83.667l-5,2.5-7,3.5a3.08,3.08,0,0,0-1.67,1.5,4.7,4.7,0,0,0-.83,1L4536.11,147a3.849,3.849,0,0,0-3.67-2.5,0.974,0.974,0,0,0-.67.167,3.726,3.726,0,0,0-2.33,1.25,3.46,3.46,0,0,0-1,2.417v6.333a4.748,4.748,0,0,0,1.17,3.5,2.048,2.048,0,0,0,1.5,1V159.5a29.877,29.877,0,0,0,4.83.334h0Zm-6.33-55.25a3.943,3.943,0,0,0-1.17,2.75V133q0,3.168,2.83,3.667a2.053,2.053,0,0,0,1.17.333,3.824,3.824,0,0,0,3.33-1.666,41.548,41.548,0,0,0,3-6.667,70.444,70.444,0,0,0,2.84-10.5q0.99-5.332,1.16-6.667h0.5a3.084,3.084,0,0,0,2-.666,3.5,3.5,0,0,0,1.84-3.334v-0.166a3.943,3.943,0,0,0-1.17-2.75,3.568,3.568,0,0,0-2.67-1.25h-0.66a2.408,2.408,0,0,0-1.34.333,1.619,1.619,0,0,0-1.16-.333h-7.67A3.713,3.713,0,0,0,4529.61,104.583Zm-0.42-30.25A3.574,3.574,0,0,0,4527.94,77c-0.11,1.224-.31,3.362-0.58,6.417s-0.48,5.474-.59,7.25a37.21,37.21,0,0,0-.66,3.917c-0.23,1.724-.34,2.7-0.34,2.917a3.414,3.414,0,0,0,.84,3.334,4.322,4.322,0,0,0,3,1.5h13.66a3.572,3.572,0,0,0,2.67-1.25,4.134,4.134,0,0,0,1.17-2.917v-21a3.856,3.856,0,0,0-1.17-2.833,3.688,3.688,0,0,0-2.67-1.167h-11.33A3.951,3.951,0,0,0,4529.19,74.333Zm-33.83,0a3.713,3.713,0,0,0-1.25,2.833v21a4.272,4.272,0,0,0,4.16,4.167h7.84q3.165,0,4-3.334,0.495-2.164.66-2.833V95.833q0.84-5.664,1.84-18.5a3.99,3.99,0,0,0-1.34-2.833,2.9,2.9,0,0,0-2.66-1.333h-10.34A4.128,4.128,0,0,0,4495.36,74.333Zm34.08-29.167A3.856,3.856,0,0,0,4528.27,48V68a3.98,3.98,0,0,0,1.09,2.833A3.57,3.57,0,0,0,4532.11,72h11.16a3.678,3.678,0,0,0,2.67-1.167A3.848,3.848,0,0,0,4547.11,68V48a3.856,3.856,0,0,0-1.17-2.833A3.688,3.688,0,0,0,4543.27,44h-11.16A3.688,3.688,0,0,0,4529.44,45.166Zm-34.17,0A3.847,3.847,0,0,0,4494.11,48V68a3.839,3.839,0,0,0,1.16,2.833,4.064,4.064,0,0,0,3,1.167h10.5a3.972,3.972,0,0,0,4-4V48a3.972,3.972,0,0,0-4-4h-10.5A4.075,4.075,0,0,0,4495.27,45.166Z"/>
</svg>
