<svg xmlns="http://www.w3.org/2000/svg" width="258" height="60" viewBox="0 0 258 60">
  <defs>
    <style>
      .cls-1 {
        fill: #fff;
        fill-rule: evenodd;
      }
    </style>
  </defs>
  <path id="_20_09_25" data-name="20/09/25" class="cls-1" d="M7.525,49.269q4.225-4.442,4.983-5.254,0.541-.541,2.167-2.329t2.492-2.654q3.413-3.628,5.254-6.013a24.029,24.029,0,0,0,3.033-5.525,16.327,16.327,0,0,0,1.029-5.742q0-4.441-2.221-6.825a7.472,7.472,0,0,0-6.012-2.546,17.425,17.425,0,0,0-2.708.325,1.122,1.122,0,0,0-1.029,1.029L13.321,18.99q-0.488,2.438-1.354,3.033a2.871,2.871,0,0,1-1.842.65,3.039,3.039,0,0,1-1.679-.488,3.139,3.139,0,0,1-1.029-1.192,9.258,9.258,0,0,1,2.113-4.983,13.148,13.148,0,0,1,4.821-3.25,21.458,21.458,0,0,1,6.5-.975q6.445,0,9.317,2.871a9.875,9.875,0,0,1,2.979,7.529,10.509,10.509,0,0,1-1.463,5.308,23.34,23.34,0,0,1-4.712,5.85,75.928,75.928,0,0,1-8.4,6.933q-2.492,1.95-2.708,2.112-0.6.488-1.815,1.517T12.671,45.1a2.884,2.884,0,0,0-.758.6,1.24,1.24,0,0,0-.433,1.517,1.173,1.173,0,0,0,1.246.867H34.392v4.929H7.525V49.269Zm39.433,1.625a15.247,15.247,0,0,1-5.092-6.771q-1.95-4.55-1.95-12.187t1.95-12.187a14.958,14.958,0,0,1,5.092-6.771,11.994,11.994,0,0,1,13.6,0,15.436,15.436,0,0,1,5.2,6.771A33.287,33.287,0,0,1,67.7,31.936a33.28,33.28,0,0,1-1.95,12.187,15.773,15.773,0,0,1-5.2,6.771,11.994,11.994,0,0,1-13.6,0h0Zm3.792-38.35A8.1,8.1,0,0,0,48.313,15.9a28.428,28.428,0,0,0-1.625,6.283,80.178,80.178,0,0,0-.6,9.75,77.981,77.981,0,0,0,.6,9.7,24.845,24.845,0,0,0,1.625,6.229,8.1,8.1,0,0,0,2.438,3.358A4.523,4.523,0,0,0,53.729,52.3a4.6,4.6,0,0,0,3.033-1.083A8.11,8.11,0,0,0,59.2,47.861a23.386,23.386,0,0,0,1.625-6.283,60.841,60.841,0,0,0,.6-9.642,63.029,63.029,0,0,0-.6-9.75A22.249,22.249,0,0,0,59.2,15.9a7.523,7.523,0,0,0-2.437-3.358,4.6,4.6,0,0,0-3.033-1.083,4.523,4.523,0,0,0-2.979,1.083h0ZM90.129,2.9H92.3L75.288,58.369H73.013Zm15.329,47.992a15.248,15.248,0,0,1-5.091-6.771q-1.95-4.55-1.95-12.187t1.95-12.187a14.954,14.954,0,0,1,5.091-6.771,11.994,11.994,0,0,1,13.6,0,15.428,15.428,0,0,1,5.2,6.771,33.287,33.287,0,0,1,1.95,12.188,33.28,33.28,0,0,1-1.95,12.187,15.773,15.773,0,0,1-5.2,6.771,11.994,11.994,0,0,1-13.6,0h0Zm3.792-38.35a8.1,8.1,0,0,0-2.438,3.358,28.415,28.415,0,0,0-1.624,6.283,80.138,80.138,0,0,0-.6,9.75,77.943,77.943,0,0,0,.6,9.7,24.882,24.882,0,0,0,1.624,6.229,8.1,8.1,0,0,0,2.438,3.358,4.522,4.522,0,0,0,2.979,1.083,4.6,4.6,0,0,0,3.034-1.083,8.111,8.111,0,0,0,2.437-3.358,23.4,23.4,0,0,0,1.625-6.283,60.825,60.825,0,0,0,.6-9.642,63.012,63.012,0,0,0-.6-9.75A22.229,22.229,0,0,0,117.7,15.9a7.523,7.523,0,0,0-2.437-3.358,4.6,4.6,0,0,0-3.034-1.083,4.522,4.522,0,0,0-2.979,1.083h0Zm35.371,34.4a20.432,20.432,0,0,0,6.175-8.45q0.326-.975.867-2.817a1.367,1.367,0,0,0-.542-1.354,1,1,0,0,0-.813-0.325,0.967,0.967,0,0,0-.595.162,1.276,1.276,0,0,1-.271.163h-0.054a12.048,12.048,0,0,1-6.013,1.354,13.919,13.919,0,0,1-6.392-1.354,11.064,11.064,0,0,1-4.279-4.062,11.885,11.885,0,0,1-1.625-6.5,12.374,12.374,0,0,1,7.042-11.429,15.645,15.645,0,0,1,6.987-1.517q6.879,0,10.617,4.225,3.683,4.334,3.683,12.35a23.044,23.044,0,0,1-3.087,11.7,26.306,26.306,0,0,1-8.721,8.775,43.507,43.507,0,0,1-12.946,5.146l-0.108-.487a33.037,33.037,0,0,0,10.075-5.579h0Zm-3.3-34.287a8.49,8.49,0,0,0-2.6,3.792,17.324,17.324,0,0,0-1.029,6.446q0,5.417,2.275,8.45a7.746,7.746,0,0,0,6.337,3.142,8.03,8.03,0,0,0,3.9-.812,15.948,15.948,0,0,0,1.625-.975,0.966,0.966,0,0,0,.487-0.921,31.9,31.9,0,0,0,.326-5.146,36.284,36.284,0,0,0-.813-8.829,9.442,9.442,0,0,0-2.654-4.875,5.852,5.852,0,0,0-4.063-1.517,6.357,6.357,0,0,0-3.791,1.246h0ZM181.508,2.9h2.167L166.667,58.369h-2.275Zm8.775,46.367q4.226-4.442,4.984-5.254,0.54-.541,2.166-2.329t2.492-2.654q3.412-3.628,5.254-6.013a24.005,24.005,0,0,0,3.033-5.525,16.316,16.316,0,0,0,1.03-5.742q0-4.441-2.221-6.825a7.473,7.473,0,0,0-6.013-2.546,17.421,17.421,0,0,0-2.708.325,1.121,1.121,0,0,0-1.029,1.029l-1.192,5.254q-0.488,2.438-1.354,3.033a2.871,2.871,0,0,1-1.842.65,3.039,3.039,0,0,1-1.679-.488,3.142,3.142,0,0,1-1.029-1.192,9.259,9.259,0,0,1,2.113-4.983,13.145,13.145,0,0,1,4.82-3.25,21.461,21.461,0,0,1,6.5-.975q6.445,0,9.317,2.871a9.873,9.873,0,0,1,2.979,7.529,10.509,10.509,0,0,1-1.462,5.308,23.361,23.361,0,0,1-4.713,5.85,75.894,75.894,0,0,1-8.4,6.933q-2.492,1.95-2.708,2.112-0.6.488-1.815,1.517T195.429,45.1a2.877,2.877,0,0,0-.758.6,1.24,1.24,0,0,0-.433,1.517,1.172,1.172,0,0,0,1.245.867H217.15v4.929H190.283V49.269Zm35.859,1.3a9.061,9.061,0,0,1-3.63-6.554,2.619,2.619,0,0,1,1.03-1.246,2.991,2.991,0,0,1,1.679-.542,2.429,2.429,0,0,1,1.95.758A4.869,4.869,0,0,1,228.2,45.8v0.108l0.975,4.983a1.217,1.217,0,0,0,.975.921l0.325,0.163a10.03,10.03,0,0,0,3.033.325,9.212,9.212,0,0,0,7.313-3.033q2.763-2.925,2.762-8.288,0-5.525-2.545-8.233a9.347,9.347,0,0,0-6.988-2.708,19.288,19.288,0,0,0-6.717,1.138l-1.029-.7,1.354-18.687h21.505v4.821H229.879a1.25,1.25,0,0,0-1.354,1.246l-0.7,9.913a1.2,1.2,0,0,0,.542,1.192,1.047,1.047,0,0,0,1,.3,1.149,1.149,0,0,1,.189-0.027,5.719,5.719,0,0,1,1.517-.325,21.976,21.976,0,0,1,4.983-.542q6.771,0,10.725,3.033,3.846,3.088,3.846,8.829a11.853,11.853,0,0,1-1.95,6.825,13.139,13.139,0,0,1-5.525,4.442,21.5,21.5,0,0,1-8.342,1.517,14.244,14.244,0,0,1-8.666-2.437h0Z"/>
</svg>
