<svg xmlns="http://www.w3.org/2000/svg" width="188" height="60" viewBox="0 0 188 60">
  <defs>
    <style>
      .cls-1 {
        fill: #fff;
        fill-rule: evenodd;
      }
    </style>
  </defs>
  <path id="个影像" class="cls-1" d="M54.475,20.317l7.2,0.65c0,0.034-.034.05-0.1,0.05a0.831,0.831,0,0,1-.6.3,1.113,1.113,0,0,0-.95,1.15v28.55a1.756,1.756,0,0,1-.55.35,16.356,16.356,0,0,1-1.95.75,10.313,10.313,0,0,1-2.45.35h-0.6V20.317Zm-14.7,5.15a60.141,60.141,0,0,0,5.7-6.85,48.782,48.782,0,0,0,4.5-7.25,42.721,42.721,0,0,0,2.8-6.6l8,2.2h-0.05q-0.3.1-.7,0.25a0.925,0.925,0,0,0-.85.75,1.017,1.017,0,0,0,.15,1.1,33.282,33.282,0,0,0,5.4,5.7,42.329,42.329,0,0,0,8,5.35,53.438,53.438,0,0,0,8.85,3.75,6.419,6.419,0,0,0-3,2.5,18.726,18.726,0,0,0-1.5,3.1,39.049,39.049,0,0,1-10.65-8.65,42.12,42.12,0,0,1-7-11.3,1.3,1.3,0,0,0-1.1-.75h-0.05a1.3,1.3,0,0,0-1.05.6,40.428,40.428,0,0,1-3.4,5.15,53.479,53.479,0,0,1-5.65,6.25,57.788,57.788,0,0,1-7.1,5.7,54.528,54.528,0,0,1-6.3,3.55,64.522,64.522,0,0,0,5-4.55h0ZM96.95,51.442a4.442,4.442,0,0,0-.075-0.725,3.611,3.611,0,0,0-.55-1.75h-0.1a3.45,3.45,0,0,0-1.1-1.1l-0.3-.15c0.1,0,.241.008,0.425,0.025s0.308,0.025.375,0.025h0.95a1.777,1.777,0,0,0,.5-0.05,2.727,2.727,0,0,0,.75-0.6,2.142,2.142,0,0,0,.1-0.75v-3.55a1.2,1.2,0,0,0-.55-1h0.05a1.283,1.283,0,0,0,.5-1.05v-2.95a1.139,1.139,0,0,0-.35-0.875,1.206,1.206,0,0,0-.85-0.325h-2.35a1.12,1.12,0,0,0-1.2,1.2v0.4l-0.3.15a1.259,1.259,0,0,0-.55,1.15,1.232,1.232,0,0,0,.75,1l3,1.3h-0.5a1.2,1.2,0,0,0-1,.55,24.594,24.594,0,0,1-2.6,3.15,0.523,0.523,0,0,1-.1.2,2.216,2.216,0,0,0-.15.25,0.825,0.825,0,0,0-.35.25,1.167,1.167,0,0,0-.3.3l-0.2.2a21.4,21.4,0,0,1-4.65,3.4,19.1,19.1,0,0,0,1.95-3.05,27.876,27.876,0,0,0,1.75-4.25q0.3-.7.7-2a1.166,1.166,0,0,0-.2-1.05,1.233,1.233,0,0,0-.95-0.45h-0.3v-11.5a0.2,0.2,0,0,0,.15.05l4.4,1.75a0.814,0.814,0,0,0,.45.1h10.9a1.193,1.193,0,0,0,.85-0.4l1.65-1.7a0.954,0.954,0,0,0,.125-0.175,0.963,0.963,0,0,1,.125-0.175,0.739,0.739,0,0,0,.35.5l3.65,2.7c-0.067.034-.167,0.075-0.3,0.125s-0.234.092-.3,0.125a0.976,0.976,0,0,0-.85,1.1v5.9a0.838,0.838,0,0,0-.2.05,0.809,0.809,0,0,1-.2.05,15.719,15.719,0,0,1-1.65.55,5.177,5.177,0,0,1-1.65.25,0.406,0.406,0,0,0-.3.1v-0.9a1.12,1.12,0,0,0-1.2-1.2h-1.95a1.1,1.1,0,0,0-.8.35,1.156,1.156,0,0,0-.35.85v1.45a1.109,1.109,0,0,0,.4.95,1.244,1.244,0,0,0-.4.9v5.35a11.262,11.262,0,0,1-.4,3,3.04,3.04,0,0,1-1.45,1.8,9.025,9.025,0,0,1-3.25.95C96.975,52.049,96.966,51.792,96.95,51.442Zm-3.45-21a1.182,1.182,0,0,0-.325.875v3.75a1.2,1.2,0,0,0,.325.85,1.134,1.134,0,0,0,.875.35h10.8a1.137,1.137,0,0,0,.875-0.35,1.205,1.205,0,0,0,.325-0.85v-3.75a1.12,1.12,0,0,0-1.2-1.2h-10.8A1.182,1.182,0,0,0,93.5,30.442Zm25.625,13.925a53.153,53.153,0,0,0,8.2-11.35l6.1,3.3c0,0.034-.034.05-0.1,0.05a1.43,1.43,0,0,1-.2-0.025,1.611,1.611,0,0,0-.25-0.025l-0.1-.05h-0.15a1.058,1.058,0,0,0-.9.5,46.628,46.628,0,0,1-10.5,9.5,58.54,58.54,0,0,1-11.4,5.6,48.848,48.848,0,0,0,9.3-7.5h0Zm-11.65,3.15a6.985,6.985,0,0,0-.75-2.75,17.054,17.054,0,0,0-1.35-2.7q-0.651-.95-1.15-1.6,0.5,0.1.7,0.15h0.3a1.238,1.238,0,0,0,.45-0.05,5.308,5.308,0,0,0,.65.45,13.012,13.012,0,0,1,2.1.85,6.3,6.3,0,0,1,2.3,2.15,3.465,3.465,0,0,1,.6,2,2.585,2.585,0,0,1-.7,1.45,2.314,2.314,0,0,1-1.45.65h-0.1a2.657,2.657,0,0,1-1.6-.6h0Zm12.85-20.25a66.622,66.622,0,0,0,6.05-8.55l6,3.65h-0.2a1.842,1.842,0,0,1-.45-0.05h-0.15a1.391,1.391,0,0,0-.85.3,60.1,60.1,0,0,1-5.35,4.45,65.107,65.107,0,0,1-6.25,4.15,55.093,55.093,0,0,1-5.45,2.8,53.41,53.41,0,0,0,6.65-6.75h0Zm-13.65-1.7H89.725a1.48,1.48,0,0,0-.85.4,1.246,1.246,0,0,0-.9-0.4h-1.9l-0.15-.35h11.25a1.008,1.008,0,0,0,1.05-.7,0.907,0.907,0,0,0,0-1,5.829,5.829,0,0,0,0-2.4,4.709,4.709,0,0,0-.65-1.75,1.1,1.1,0,0,0-1-.6h-1.95a1.244,1.244,0,0,0-.875.35,1.121,1.121,0,0,0-.375.85v0.65a0.887,0.887,0,0,1-.4.25,5.959,5.959,0,0,1-1.55.7,6.489,6.489,0,0,1-2,.25h-0.1V5.566l4.55,1.9a2.934,2.934,0,0,0,.5.1h10.85a1.092,1.092,0,0,0,.9-0.45l2-2.1,4.35,3.25a0.279,0.279,0,0,1-.15.1,2.254,2.254,0,0,1-.75.35,1.1,1.1,0,0,0-.9,1.15v10.1a1.1,1.1,0,0,0-.35.65,1.2,1.2,0,0,0-.7-0.25,0.712,0.712,0,0,0-.4.1,1.922,1.922,0,0,1-.6.15,7.392,7.392,0,0,1-1.7.2h-0.3v-0.85a1.2,1.2,0,0,0-1.2-1.2h-2.95a0.976,0.976,0,0,0-1.1.85,1.049,1.049,0,0,0,.5,1.4,2.257,2.257,0,0,1,1.1,1.05,1.184,1.184,0,0,1-.1,1.15l-0.05.1a1.315,1.315,0,0,0-.15,1.25,1.2,1.2,0,0,0,1.05.65h3.95a1.14,1.14,0,0,0,.95-0.45l1.95-2.45,0.25-.5,0.5,0.45q0.3,0.2,1,.75t1.1,0.85q0.7,0.6,1.8,1.6a1.389,1.389,0,0,1-.6.1h-5.75a1.01,1.01,0,0,0-1.05.75,1.188,1.188,0,0,0-1.15-.75h0ZM93.75,13.617a1.121,1.121,0,0,0-.375.85v2.75a1.075,1.075,0,0,0,.35.825,1.266,1.266,0,0,0,.9.325h10.8a1.2,1.2,0,0,0,.85-0.325,1.077,1.077,0,0,0,.35-0.825v-2.75a1.2,1.2,0,0,0-1.2-1.2h-10.8A1.244,1.244,0,0,0,93.75,13.617Zm0-5.375a1.2,1.2,0,0,0-.375.875v2.65a1.155,1.155,0,0,0,.35.85,1.216,1.216,0,0,0,.9.35h10.8a1.2,1.2,0,0,0,1.2-1.2V9.116a1.244,1.244,0,0,0-.35-0.875,1.121,1.121,0,0,0-.85-0.375h-10.8A1.2,1.2,0,0,0,93.75,8.241Zm26.425,5.225a74.558,74.558,0,0,0,5.75-7.95l5.75,3.5h-0.75a1.018,1.018,0,0,0-.75.25,75.42,75.42,0,0,1-8.1,6.1,57.572,57.572,0,0,1-8.35,4.5,46.852,46.852,0,0,0,6.45-6.4h0Zm22.3,14.5a1.154,1.154,0,0,0-.75-1.1,1.052,1.052,0,0,0-.4-0.05,1.2,1.2,0,0,0-.95.4,39.121,39.121,0,0,1-3.2,3.45q1.1-2.1,3.15-6.85,1.8-4.549,3.35-9.5,1.35-4.549,2.4-9.45l6.9,2a1.321,1.321,0,0,1-.75.2,1.154,1.154,0,0,0-1.05.8,72.028,72.028,0,0,1-3.95,8.95c0,0.034-.009.05-0.025,0.05s-0.025.017-.025,0.05a1.7,1.7,0,0,0,0,1,1.206,1.206,0,0,0,.7.65l0.55,0.25a0.769,0.769,0,0,0-.3.1,1.113,1.113,0,0,0-.95,1.15v31a1.22,1.22,0,0,1-.45.3,5.838,5.838,0,0,1-1.6.7,5.923,5.923,0,0,1-2.05.3h-0.6v-24.4Zm21.9,22.5a3.866,3.866,0,0,0-.95-1.6,4.043,4.043,0,0,0-1.75-1.05,1.137,1.137,0,0,0-.45-0.2q1.7,0.1,2.4.1a14.2,14.2,0,0,0,1.75.1,2.539,2.539,0,0,0,.85-0.1,1.4,1.4,0,0,0,.9-0.65,9.037,9.037,0,0,0,.95-3.45,6.317,6.317,0,0,1,.05-0.95,1.234,1.234,0,0,0-.65-1.1,1.05,1.05,0,0,0-.55-0.15,1.091,1.091,0,0,0-.7.2,23.839,23.839,0,0,1-2.55,1.55q-1,.6-4.1,2.15a1.033,1.033,0,0,0-.65.65,2.966,2.966,0,0,0-.5-0.1,1.568,1.568,0,0,0-.45.1,2.208,2.208,0,0,1-.475.2,5.729,5.729,0,0,0-.625.25,30.744,30.744,0,0,1-5.4,1.55,29.032,29.032,0,0,0,5.25-2.75,43.9,43.9,0,0,0,6.6-4.85q1.149-1.05,3.15-3.2a1.034,1.034,0,0,0,0-1.55,1.092,1.092,0,0,0-.9-0.45,1.331,1.331,0,0,0-.6.15l-1.65.9a45.829,45.829,0,0,1-6.2,2.85q-3.2,1.05-4.45,1.4a38.476,38.476,0,0,0,3.75-2.15,48.029,48.029,0,0,0,5.4-4.1,35.149,35.149,0,0,0,3.6-3.8,1.257,1.257,0,0,0,.15-1.25,1.351,1.351,0,0,1-.15-0.2,0.882,0.882,0,0,0-.8-0.6h-0.25a1.133,1.133,0,0,0-.75.25,34.9,34.9,0,0,1-11,5.6,25.988,25.988,0,0,0,8.6-6.85,0.894,0.894,0,0,0,.25-0.25,1.173,1.173,0,0,0,.15-1.25,1.061,1.061,0,0,0-1.05-.7h-0.7a1.041,1.041,0,0,0-1.2,1,2.97,2.97,0,0,1-.95.65,6.3,6.3,0,0,1-3,.6h-0.5v-7.3a1.3,1.3,0,0,0-.6-1.05,1.247,1.247,0,0,0-.55-0.15,1.4,1.4,0,0,0-.7.2q-0.7.5-1.55,1a36.864,36.864,0,0,0,2.85-3.7,51.635,51.635,0,0,0,3.5-6,33.84,33.84,0,0,0,2.3-5.55l6,1.7a1.147,1.147,0,0,0-1,.5c-0.067.1-.175,0.267-0.325,0.5s-0.259.4-.325,0.5a1.134,1.134,0,0,0-.15,1.25,1.379,1.379,0,0,0,1.15.6h4.55a1.158,1.158,0,0,0,.85-0.35l2.4-2.45,4.45,3.8a3.828,3.828,0,0,0-1,.15,1.709,1.709,0,0,0-.6.25q-0.851.65-3.75,2.55a2.98,2.98,0,0,0-.4.3,1.016,1.016,0,0,0-.5,1.3,0.989,0.989,0,0,0,1.1.9h4.2a1.193,1.193,0,0,0,.85-0.4l2-2.1,4.35,3.25a0.673,0.673,0,0,0-.225.1,0.613,0.613,0,0,1-.275.1,1.089,1.089,0,0,0-.85,1.15v7.45l-0.4.2a3.266,3.266,0,0,1-.45.15c-0.234.067-.4,0.117-0.5,0.15a1.36,1.36,0,0,0-.9.95,1.154,1.154,0,0,0,.5,1.2l3.1,2.3a1.1,1.1,0,0,1-.35-0.05l-0.1-.05a0.454,0.454,0,0,0-.2-0.05,0.975,0.975,0,0,0-.5.2q-1.6.75-3.25,1.45-0.9.35-3.7,1.3a1.208,1.208,0,0,0-.65.7,1.061,1.061,0,0,0,0,1,12.921,12.921,0,0,0,1.8,2.85,18.008,18.008,0,0,0,4.3,3.95,29.6,29.6,0,0,0,4.45,2.3,6.378,6.378,0,0,0-3.75,4.25,20.73,20.73,0,0,1-3.25-3.6,21.634,21.634,0,0,1-2.55-5.3,31.77,31.77,0,0,1-1.2-4.4,1.182,1.182,0,0,0-.5-0.8,1.014,1.014,0,0,0-.65-0.2,0.864,0.864,0,0,0-.35.05,4.316,4.316,0,0,1-1.05.25,1.244,1.244,0,0,0-.75.65,1.317,1.317,0,0,0-.1,1c0.066,0.134.15,0.334,0.25,0.6a25.782,25.782,0,0,1,1.2,5.35,17.026,17.026,0,0,1-.25,4.75,8.4,8.4,0,0,1-1.25,3.25,3.915,3.915,0,0,1-2.35,1.4,17.749,17.749,0,0,1-3.9.45q-0.051-.35-0.3-1.7h0Zm2.45-24.9a8.957,8.957,0,0,1-.625.675,8.842,8.842,0,0,0-.625.675,1.244,1.244,0,0,0-.4.9,1.044,1.044,0,0,0,.45.85,18.823,18.823,0,0,1,2.8,3.15,17.744,17.744,0,0,1,1.45,2.15,1.324,1.324,0,0,0,.8.65h0.25a1.017,1.017,0,0,0,.75-0.25l0.75-.6a9.532,9.532,0,0,0,.75-0.65v-0.05q2.1-1.849,3.45-3.2c0.1-.1.25-0.258,0.45-0.475s0.333-.358.4-0.425a1.439,1.439,0,0,0,.35-1.05,2.173,2.173,0,0,0-.4-0.7v-0.85a1.2,1.2,0,0,0-1.2-1.2h-8.55a1.2,1.2,0,0,0-.85.4h0Zm4.75-8.1a28.221,28.221,0,0,1-2.75,5.5,1.207,1.207,0,0,0-.1,1.25,1.233,1.233,0,0,0,1.1.65h6.4a1.2,1.2,0,0,0,1.2-1.2v-5.8a1.2,1.2,0,0,0-1.2-1.2h-3.55a1.05,1.05,0,0,0-1.1.8h0Zm-12.55-.45a1.156,1.156,0,0,0-.35.85v5.8a1.2,1.2,0,0,0,1.2,1.2h2.55a1.327,1.327,0,0,0,1.05-.55,32.377,32.377,0,0,0,2.7-6,1.41,1.41,0,0,0-.1-1.15,1.233,1.233,0,0,0-1-.5h-5.2A1.158,1.158,0,0,0,159.025,17.017Zm0.575-3.975q-0.675.725-1.025,1.075a1.146,1.146,0,0,0-.35,1.05,1.215,1.215,0,0,0,.75.9l0.65,0.25a1.23,1.23,0,0,0,.45.05h7.05a1.06,1.06,0,0,0,1.05-.7l0.5-1,0.05-.05q0.2-.45.575-1.325t0.575-1.325a1.011,1.011,0,0,0-.15-1.15,0.951,0.951,0,0,0-1-.5h-6.1a1.2,1.2,0,0,0-.95.4q-0.25.35-1.05,1.25Q160.274,12.317,159.6,13.042Z"/>
  <path id="_9" data-name="9" class="cls-1" d="M17.916,45.346a20.429,20.429,0,0,0,6.175-8.45q0.325-.975.867-2.817a1.365,1.365,0,0,0-.542-1.354A1,1,0,0,0,23.6,32.4a0.972,0.972,0,0,0-.6.163,1.25,1.25,0,0,1-.271.163H22.683a12.043,12.043,0,0,1-6.012,1.354,13.917,13.917,0,0,1-6.392-1.354A11.063,11.063,0,0,1,6,28.662a11.881,11.881,0,0,1-1.625-6.5,12.375,12.375,0,0,1,7.042-11.429A15.649,15.649,0,0,1,18.4,9.216q6.878,0,10.617,4.225Q32.7,17.776,32.7,25.792a23.04,23.04,0,0,1-3.087,11.7A26.3,26.3,0,0,1,20.9,46.267,43.511,43.511,0,0,1,7.95,51.412l-0.108-.488a33.03,33.03,0,0,0,10.075-5.579h0Zm-3.3-34.287a8.492,8.492,0,0,0-2.6,3.792A17.335,17.335,0,0,0,10.983,21.3q0,5.417,2.275,8.45A7.747,7.747,0,0,0,19.6,32.887a8.029,8.029,0,0,0,3.9-.812A15.915,15.915,0,0,0,25.12,31.1a0.966,0.966,0,0,0,.488-0.921,31.951,31.951,0,0,0,.325-5.146A36.3,36.3,0,0,0,25.12,16.2a9.443,9.443,0,0,0-2.654-4.875A5.85,5.85,0,0,0,18.4,9.812a6.358,6.358,0,0,0-3.792,1.246h0Z"/>
</svg>
