<svg xmlns="http://www.w3.org/2000/svg" width="2500" height="368" viewBox="0 0 2500 368">
  <defs>
    <style>
      .cls-1 {
        fill: #fff;
        fill-rule: evenodd;
      }
    </style>
  </defs>
  <path id="即便向往着天边的那座花园_也别忘记就开在窗口的那朵玫瑰" data-name="即便向往着天边的那座花园,  也别忘记就开在窗口的那朵玫瑰" class="cls-1" d="M96.419,24l16.833,7.333a3.276,3.276,0,0,0,1.5.333h20.5a3.534,3.534,0,0,0,3.167-1.5l6.833-7.833,15.5,12h-0.167a3.562,3.562,0,0,1-1.166.667c-0.558.224-.946,0.391-1.167,0.5a3.423,3.423,0,0,0-2.25,1.25,3.65,3.65,0,0,0-.917,2.417v85.167a46.2,46.2,0,0,1-1.166,11.333,11.789,11.789,0,0,1-5.667,6.667q-3.836,2.5-12.667,3.5,0-.669-0.333-3.25t-0.5-3.584a15.06,15.06,0,0,0-2.5-6.5,14.329,14.329,0,0,0-4.833-4.833c-0.224-.109-0.446-0.221-0.667-0.333a3.464,3.464,0,0,0-.667-0.25,1.03,1.03,0,0,1-.5-0.25c0.667,0,1.584.057,2.75,0.166s2.026,0.167,2.584.167h3.833a4.5,4.5,0,0,0,2.167-.333,3.162,3.162,0,0,0,2.5-2.167,5.846,5.846,0,0,0,.5-2.833v-85a4.151,4.151,0,0,0-1.167-2.917,3.736,3.736,0,0,0-2.833-1.25H115.585a3.727,3.727,0,0,0-2.833,1.25,4.138,4.138,0,0,0-1.167,2.917V170.666l-1.333,1.5a20.794,20.794,0,0,1-5.167,2.667A19.527,19.527,0,0,1,97.752,176H96.419V24ZM15.585,146.333a13.252,13.252,0,0,0,1.167-6.167V24l18.333,7a2.712,2.712,0,0,0,1.5.333h24a4.144,4.144,0,0,0,3-1.333l7.333-8.167L86.752,34.166H86.419a0.482,0.482,0,0,1-.333.167,19.491,19.491,0,0,1-2.5,1.167q-2.836.5-2.833,3.667V101q-0.168.168-1.667,1.167a21.677,21.677,0,0,0-2.833.917q-2,.75-3.167,1.083a23.748,23.748,0,0,1-6.5,1h-1.5V99a3.983,3.983,0,0,0-4-4H35.752a4.012,4.012,0,0,0-2.833,1.083A3.788,3.788,0,0,0,31.752,99v39.334a4.1,4.1,0,0,0,1.667,3.333,4.675,4.675,0,0,0,2.333.667,5.126,5.126,0,0,0,1.5-.167q5-2.167,11.167-4.667l0.167-.166q8-3.333,12.167-5a4.252,4.252,0,0,0,2-2.167,3.554,3.554,0,0,0,0-3q-0.168-.665-0.583-1.833t-0.583-1.5A143.73,143.73,0,0,0,55.085,111a67.989,67.989,0,0,1,16.833,12.834,42.074,42.074,0,0,1,10,14.333q3,7,2.833,12.333a15.772,15.772,0,0,1-2.833,8.334,6.223,6.223,0,0,1-5.333,2.833H76.419q-3,0-6.333-2.833a75.109,75.109,0,0,0-2.5-17.334q-0.168-.667-0.5-1.916t-0.5-1.917A4.525,4.525,0,0,0,63.919,135a4.408,4.408,0,0,0-1.333-.166,3.391,3.391,0,0,0-2.5,1q-3.836,3.667-8.333,7.333-10.5,9.332-24.833,20a5.564,5.564,0,0,0-1.333,1.5c-0.112.221-.25,0.526-0.417,0.917a2.779,2.779,0,0,1-.417.75q-0.836,1-2.333,2.5L11.752,150a11.135,11.135,0,0,0,3.833-3.666h0ZM32.919,64.5a3.858,3.858,0,0,0-1.167,2.833V89.666a4.135,4.135,0,0,0,1.167,2.917,3.728,3.728,0,0,0,2.833,1.25H61.085a3.736,3.736,0,0,0,2.833-1.25,4.146,4.146,0,0,0,1.167-2.917V67.333a3.983,3.983,0,0,0-4-4H35.752A3.86,3.86,0,0,0,32.919,64.5Zm0-30.667a3.858,3.858,0,0,0-1.167,2.833v21.5a4.052,4.052,0,0,0,1.167,3,3.85,3.85,0,0,0,2.833,1.167H61.085a3.859,3.859,0,0,0,2.833-1.167,4.063,4.063,0,0,0,1.167-3v-21.5a3.8,3.8,0,0,0-1.167-2.917,4.021,4.021,0,0,0-2.833-1.083H35.752A3.86,3.86,0,0,0,32.919,33.833ZM198.585,93.666A3.67,3.67,0,0,0,195.919,90a4.193,4.193,0,0,0-1.5-.167A3.862,3.862,0,0,0,191.585,91a105.717,105.717,0,0,1-14,13.167,169.65,169.65,0,0,0,11.834-21.833,279.2,279.2,0,0,0,12.5-31.167,295.1,295.1,0,0,0,8.666-31.333l23.334,7a1.479,1.479,0,0,1-.667.167q-3.336,1.668-2.5,4.667a3.706,3.706,0,0,0,4,3.333h72.5a3.056,3.056,0,0,0,3-1.667l9.667-12.667L320.585,21v0.167a23.033,23.033,0,0,0,2.5,2q1.833,1.336,2.834,2.167,1.164,0.836,3.416,2.833T332.752,31q1.332,1,5.5,4.333a4.43,4.43,0,0,1-2.5.5H292.585a3.824,3.824,0,0,0-2.75,1.25A4,4,0,0,0,288.585,40V55a4.3,4.3,0,0,0,4,4h15.167a4.322,4.322,0,0,0,3-1.5l7.667-8.333,16.5,12.5a1.913,1.913,0,0,1-.5.333,18.56,18.56,0,0,1-2.5,1.167q-2.836.5-2.834,3.833v50.334l-1.666.833a54.768,54.768,0,0,1-6.5,2,26.734,26.734,0,0,1-6.834.833h-1.666v-5.666a3.681,3.681,0,0,0-1.167-2.667,3.869,3.869,0,0,0-2.833-1.167h-16.5a3.529,3.529,0,0,0-2.584,1.084,4.205,4.205,0,0,0-1.25,2.583q-0.168,1.337-.416,4.167t-0.417,4.166a76.479,76.479,0,0,1-5.5,18.167,16.364,16.364,0,0,0-.917,1.667,12.533,12.533,0,0,1-1.083,1.833,3.822,3.822,0,0,0-.333,3.5,3.631,3.631,0,0,0,2.833,2.5h0.167a172.552,172.552,0,0,0,28.5,5.667q15.332,1.5,26.5,1.5a23.287,23.287,0,0,0-7.167,6.166,28.972,28.972,0,0,0-5.833,12.334,211.392,211.392,0,0,1-36.667-8.667,82.886,82.886,0,0,1-16.833-8.667,21.941,21.941,0,0,0-2.334-.833,4.434,4.434,0,0,0-2.166.833,87.5,87.5,0,0,1-17.167,9.667,181.128,181.128,0,0,1-22.833,7.333q12.163-5.667,18.666-10.5a55.483,55.483,0,0,0,13.167-12q2.333-2.335,0-5.333a77.455,77.455,0,0,1-12.667-18.833,54.335,54.335,0,0,0,12.834,11L258.585,141a3.6,3.6,0,0,0,1.167.667,4.682,4.682,0,0,0,1,.333,3.107,3.107,0,0,0,2,.667,4.367,4.367,0,0,0,1.333-.167,7.014,7.014,0,0,0,2.5-2.333,75.063,75.063,0,0,0,3.334-11.833q0.663-4.332,1.666-12.5a6.189,6.189,0,0,0-1-3.167,4.285,4.285,0,0,0-3.166-1.167H253.252a4.229,4.229,0,0,0-3,1.084,3.59,3.59,0,0,0-1.167,2.75v2.5a5.516,5.516,0,0,1-1.5,1.166,21.077,21.077,0,0,1-2.833,1.334,3.638,3.638,0,0,0-2.5,2.833A4.722,4.722,0,0,0,239.419,122h-0.834a17.8,17.8,0,0,1-4.333.5h-1v-71l17.833,7,1.5,0.5h15.5a3.563,3.563,0,0,0,2.667-1.25A3.958,3.958,0,0,0,271.919,55V40a4.151,4.151,0,0,0-1.167-2.917,3.563,3.563,0,0,0-2.667-1.25h-35q-0.668-2.164-3.666-2.5h-0.167a3.737,3.737,0,0,0-3.5,2.5A212.275,212.275,0,0,1,213.919,60a8.215,8.215,0,0,0-.667,1.25,3.69,3.69,0,0,1-.667,1.083,4.051,4.051,0,0,0-.333,3.333,3.16,3.16,0,0,0,2.5,2.167l4.333,2h-0.333a2.694,2.694,0,0,1-.667.167,4.075,4.075,0,0,0-2.833,4V174a1.721,1.721,0,0,0-.167,1,1.317,1.317,0,0,0-.833-0.166,5.429,5.429,0,0,0-1.667.333A23.405,23.405,0,0,1,207.752,177a24.762,24.762,0,0,1-7.167,1.167h-2v-84.5Zm91.25-6.833a3.563,3.563,0,0,0-1.25,2.667V106a3.214,3.214,0,0,0,1.167,3,3.848,3.848,0,0,0,2.833,1.167h15.834a3.984,3.984,0,0,0,4-4V89.5a3.68,3.68,0,0,0-1.167-2.667,3.869,3.869,0,0,0-2.833-1.167H292.585A3.958,3.958,0,0,0,289.835,86.833Zm-39.5,0a3.563,3.563,0,0,0-1.25,2.667v16.667a3.728,3.728,0,0,0,1.25,2.833,4.136,4.136,0,0,0,2.917,1.167h14.5q3.833,0,4.167-4V89.5a3.994,3.994,0,0,0-3.834-3.833H253.252A4.148,4.148,0,0,0,250.335,86.833Zm39.5-25.667A3.737,3.737,0,0,0,288.585,64V80.333a3.729,3.729,0,0,0,1.25,2.833,3.947,3.947,0,0,0,2.75,1.167h15.834a3.984,3.984,0,0,0,4-4V64a3.984,3.984,0,0,0-4-4H292.585A3.958,3.958,0,0,0,289.835,61.166Zm-39.5,0A3.737,3.737,0,0,0,249.085,64V80.333a3.729,3.729,0,0,0,1.25,2.833,4.137,4.137,0,0,0,2.917,1.167h14.833a3.67,3.67,0,0,0,2.667-1.167,3.861,3.861,0,0,0,1.167-2.833V64a3.869,3.869,0,0,0-1.167-2.833A3.68,3.68,0,0,0,268.085,60H253.252A4.148,4.148,0,0,0,250.335,61.166ZM357.419,44.833l18.5,8a5.023,5.023,0,0,0,1.5.167h25.166a3.774,3.774,0,0,0,3.834-2.667q0.332-1.332,1-3.583t0.833-2.917h0.167q0.663-2.164,1.666-6.667t1.667-6.667q0.332-1.664,1.167-5.25T414.085,20l25.5,5.833a5.08,5.08,0,0,1-2.833.667,3.84,3.84,0,0,0-2.667,1.333q-3.5,3.836-12,12.667l-2.916,2.917-2.75,2.75a3.836,3.836,0,0,0-.834,4.333,3.653,3.653,0,0,0,3.667,2.5h55.5a4.326,4.326,0,0,0,3.167-1.333L485.085,43l16.667,12.667-0.5.5-2.5,1q-3.168.5-3.167,4v94.667a37.857,37.857,0,0,1-1.666,11.333q-1.5,4.164-6.667,6.833-5.5,2.832-15.667,3.834a32,32,0,0,0-1.5-7,13.978,13.978,0,0,0-3.5-6.334,0.48,0.48,0,0,1-.166-0.333,0.148,0.148,0,0,1-.167-0.167,46.082,46.082,0,0,0-6.667-4.166,21.834,21.834,0,0,0-3-1h1.667q5.664,0.332,9,.666h6q3,0,4.167-1.166a5.408,5.408,0,0,0,.666-0.5,7.106,7.106,0,0,0,1.167-4.167v-95.5a4.242,4.242,0,0,0-1.083-3A3.6,3.6,0,0,0,475.419,54H377.585a3.594,3.594,0,0,0-2.75,1.167,4.229,4.229,0,0,0-1.083,3v114l-0.667.667a6.97,6.97,0,0,1-1.333,1,18.691,18.691,0,0,1-5.5,2.833,21.814,21.814,0,0,1-7.5,1.333h-1.333V44.833Zm37.666,31.333,16.334,6.667a4.109,4.109,0,0,0,1.5.167h24.333a3.977,3.977,0,0,0,2.833-1.333l7.334-7.833,15.5,11.833a0.652,0.652,0,0,0-.667.5,1.5,1.5,0,0,0-.667.167,5.347,5.347,0,0,1-.916.333,5.619,5.619,0,0,0-.917.333,3.667,3.667,0,0,0-3,3.833v45a2.954,2.954,0,0,1-1.333.833A35.64,35.64,0,0,1,449.252,139a19.373,19.373,0,0,1-6.167,1h-1.333V129.166a3.993,3.993,0,0,0-3.833-3.833h-24a3.861,3.861,0,0,0-2.834,1.166,3.672,3.672,0,0,0-1.166,2.667V140.5l-0.167.167c-0.224.109-.445,0.221-0.667,0.333a2.5,2.5,0,0,0-.666.5,26.922,26.922,0,0,1-5.334,2.334,24.84,24.84,0,0,1-6.833,1h-1.167V76.166Zm16,9.167a3.86,3.86,0,0,0-1.166,2.833V120a4.137,4.137,0,0,0,1.166,2.917,3.73,3.73,0,0,0,2.834,1.25h24a3.561,3.561,0,0,0,2.666-1.25A4.147,4.147,0,0,0,441.752,120V88.166a3.869,3.869,0,0,0-1.167-2.833,3.676,3.676,0,0,0-2.666-1.167h-24A3.862,3.862,0,0,0,411.085,85.333Zm131.167,22.5a3.857,3.857,0,0,0-2.333-3.667,13.365,13.365,0,0,0-1.667-.5,4.581,4.581,0,0,0-2.667,1.167A157.112,157.112,0,0,1,521.419,115a189.608,189.608,0,0,0,12.333-17.166Q540.252,88,547.085,75q5.164-10.664,8.334-18.833l13.666,7a4.609,4.609,0,0,0,2,.333,3.763,3.763,0,0,0,2.5-.833A5.077,5.077,0,0,0,574.919,60h46.166a3.683,3.683,0,0,0,2.584-1,3.753,3.753,0,0,0,1.25-2.333q0.831-3.5-2.5-4.667a5.949,5.949,0,0,1-2-.833A52.143,52.143,0,0,0,614.585,39.5a81.689,81.689,0,0,0-9.333-11.167,69.473,69.473,0,0,0-7.833-6.5q12.332,0.336,19.833,2.667,8.664,3,12.667,7.333,4.332,4.336,4.833,8.833a12.249,12.249,0,0,1-1.167,7.667,8.971,8.971,0,0,1-4.666,4q-3.168.836-2.5,4.333,0.831,3.336,4,3.333h19.833a4.1,4.1,0,0,0,3.333-1.667l8.334-11.5,0.333,0.5a41.6,41.6,0,0,1,5,3.833q2,1.668,6,5.333,0.665,0.668,2.333,2.083t2.334,2.083a8.231,8.231,0,0,1-2.5.5h-41.5A3.79,3.79,0,0,0,631,62.333a4.009,4.009,0,0,0-1.083,2.833v42.667a3.983,3.983,0,0,0,4,4h14a4.1,4.1,0,0,0,3.333-1.667L659.585,99l0.167,0.333q1.832,1.335,4.833,3.833a37.932,37.932,0,0,0,2.917,2.5,39.845,39.845,0,0,1,3.083,2.667q3.333,3,4.667,4.333a8.013,8.013,0,0,1-2.333.5h-39a4.015,4.015,0,0,0-2.834,1.083,3.594,3.594,0,0,0-1.166,2.75v50.5a4.06,4.06,0,0,0,1.166,3,3.862,3.862,0,0,0,2.834,1.167h19A3.672,3.672,0,0,0,656.085,170l8.667-11.666,0.5,0.166q0.332,0.333,1.25,1.084t1.75,1.5q0.833,0.75,1.667,1.416,2.664,2.5,6.333,5.334,3.332,3,4.833,4.5a8.042,8.042,0,0,1-2.5.333H570.419l-0.5-1h39.166a3.738,3.738,0,0,0,2.834-1.25,4.149,4.149,0,0,0,1.166-2.917V117a3.6,3.6,0,0,0-1.166-2.75,4.023,4.023,0,0,0-2.834-1.083h-30l-0.166-1.333h30.166a3.983,3.983,0,0,0,4-4V65.166a3.982,3.982,0,0,0-4-4H581.252a3.444,3.444,0,0,0-3.333,2,3.333,3.333,0,0,0-.5,2.667,2.981,2.981,0,0,1-.834.833h-0.166a6.175,6.175,0,0,1-1.5.167h-1.167a4.108,4.108,0,0,0-3.333,1.667,110.59,110.59,0,0,1-13,15.5,4.26,4.26,0,0,0-1,3.667,5.14,5.14,0,0,0,2.5,3l3.166,1a1.127,1.127,0,0,1-.833.333,3.773,3.773,0,0,0-2.667,3.833v77.333a0.8,0.8,0,0,0-.416.167c-0.167.109-.391,0.25-0.667,0.416s-0.583.36-.917,0.584a13.269,13.269,0,0,1-5.333,2.5,20.917,20.917,0,0,1-7.167,1.333h-1.833V107.833ZM533.585,51.5A183.151,183.151,0,0,0,545.252,34q5.165-9.164,7.667-14l19.833,10.667a2.856,2.856,0,0,1-1.167.167h-1.166a4.062,4.062,0,0,0-3,1.167,113.463,113.463,0,0,1-12.5,11.333q-6.5,5.336-16.834,12.333-9.336,5.5-15.333,8.5A114.252,114.252,0,0,0,533.585,51.5h0Zm202.167,71.334a3.537,3.537,0,0,0-2.333-3.5,0.95,0.95,0,0,1-.667-0.334,4.7,4.7,0,0,0-1-.166,6.386,6.386,0,0,0-2.5.833,163.519,163.519,0,0,1-30.833,19.167,139.746,139.746,0,0,0,24-23.334,189.651,189.651,0,0,0,15.666-21.333,3.042,3.042,0,0,0,0-4A3.64,3.64,0,0,0,734.752,88H696.419l-0.5-1.167h44a4.134,4.134,0,0,0,3.5-1.833,27.176,27.176,0,0,1,1.666-3.167A92.925,92.925,0,0,0,749.252,73a3.256,3.256,0,0,0-.167-3.833,3.581,3.581,0,0,0-3.333-1.667H708.919l-0.5-1.333h41a3.961,3.961,0,0,0,3.833-2.5q1.164-2.664,4.167-11.5a3.888,3.888,0,0,0-.667-3.5A4.112,4.112,0,0,0,753.419,47H703.085l-0.333-1h36.333a3.534,3.534,0,0,0,3.167-1.5,3.668,3.668,0,0,0,.833-3.333,41.947,41.947,0,0,0-4.833-12.5,56.849,56.849,0,0,0-5.5-8.333Q743.416,21.5,748.085,23.5q6.165,2.5,8,5.333,2.164,3.5,1.667,6.167a8.858,8.858,0,0,1-2,4.5,4.379,4.379,0,0,0-.5,4.167A3.653,3.653,0,0,0,758.919,46h24.333a3.485,3.485,0,0,0,3.667-2.5A57.293,57.293,0,0,0,789,37.749q1.25-3.914,1.75-5.083,2.333-7.5,3.5-13.167l22.5,5.833a8.84,8.84,0,0,1-2,.167,4.713,4.713,0,0,0-2.833,1.167q-2.837,2.5-12,8.833a15.91,15.91,0,0,1-2.5,1.917q-1.668,1.086-1.834,1.25a3.868,3.868,0,0,0-1.666,4.667Q794.419,46,797.585,46h18.5a4.109,4.109,0,0,0,3.167-1.5L828.419,33l0.5,0.5q0.5,0.5,2.166,1.833t2.834,2.167a44.889,44.889,0,0,1,6.333,5,33.161,33.161,0,0,1,5,4.167,5.141,5.141,0,0,1-2.167.333H825.919a4.248,4.248,0,0,0-2.5,1,5.7,5.7,0,0,0-2.667-1h-37.5a3.773,3.773,0,0,0-3.833,2.667q-1.168,3.836-4.167,11.167a3.646,3.646,0,0,0,.333,3.667,4.1,4.1,0,0,0,3.334,1.667h33.333a3.366,3.366,0,0,0,3-1.5l8.167-10.5a0.146,0.146,0,0,0,.166.167l0.334,0.167q0.5,0.336,2,1.583a30.367,30.367,0,0,0,2.5,1.917q1.164,0.836,6,4.833a27.943,27.943,0,0,0,2.416,2.083,28.686,28.686,0,0,1,2.25,1.917c-0.666.224-1.39,0.445-2.166,0.667a3.4,3.4,0,0,0-3.5,2.667l-0.167.167V70.5a1.429,1.429,0,0,0-.083-0.417,1.771,1.771,0,0,1-.084-0.583,3.94,3.94,0,0,0-3.666-2h-55a4.324,4.324,0,0,0-3.5,2q-1.5,3-6.5,11.333a3.082,3.082,0,0,0,0,3.833,3.422,3.422,0,0,0,3.333,2.167h53a4.11,4.11,0,0,0,3.167-1.5l8.666-11.667a1.76,1.76,0,0,0,.667-1.5,4.744,4.744,0,0,0,1.5,2.333,30.72,30.72,0,0,1,3.833,3.167q0.832,0.668,3.084,2.5T845.252,83q1.664,1.668,5,4.667a6.285,6.285,0,0,1-2.5.333H818.585a5.276,5.276,0,0,0-1.833.667,5.165,5.165,0,0,0-2-.667H761.585a3.671,3.671,0,0,0-3.166,1.667,109.644,109.644,0,0,1-7.334,9,4.105,4.105,0,0,0-.833,3.5,4.58,4.58,0,0,0,2.5,2.833l1.333,0.5a3.922,3.922,0,0,0,1.667.5h50.167a4.463,4.463,0,0,0,3.166-1.5l7.667-8.666,17.333,13a1.8,1.8,0,0,1-.833.666q-1,.5-3,1.334-2.836.5-2.833,3.666v59.334a5.731,5.731,0,0,1-1.834.833,56.119,56.119,0,0,1-6.5,2.167,27.461,27.461,0,0,1-6.833,1h-1.5v-7.667a4.149,4.149,0,0,0-1.167-2.917,3.736,3.736,0,0,0-2.833-1.25H756.085a3.557,3.557,0,0,0-2.666,1.25,4.136,4.136,0,0,0-1.167,2.917V173.5q0,0.5-1.667,1.167a21.649,21.649,0,0,1-6.166,2.833,42.337,42.337,0,0,1-7.667,1h-1V122.833Zm17.667,24.333A3.848,3.848,0,0,0,752.252,150v11a3.858,3.858,0,0,0,1.167,2.834A3.672,3.672,0,0,0,756.085,165h50.667a3.983,3.983,0,0,0,4-4V150a3.984,3.984,0,0,0-4-4H756.085A3.662,3.662,0,0,0,753.419,147.166Zm0-19.583a3.944,3.944,0,0,0-1.167,2.75v10.5a4,4,0,0,0,3.833,3.833h50.667a3.868,3.868,0,0,0,2.833-1.167,3.677,3.677,0,0,0,1.167-2.666v-10.5a3.957,3.957,0,0,0-1.167-2.75,3.732,3.732,0,0,0-2.833-1.25H756.085A3.554,3.554,0,0,0,753.419,127.583Zm0-19.417A3.858,3.858,0,0,0,752.252,111v10.167A3.848,3.848,0,0,0,753.419,124a3.662,3.662,0,0,0,2.666,1.167h50.667a3.984,3.984,0,0,0,4-4V111a3.984,3.984,0,0,0-4-4H756.085A3.674,3.674,0,0,0,753.419,108.166Zm228,50a122.637,122.637,0,0,1-17.334-22.833,120.715,120.715,0,0,1-10.166-24.5q-0.336-1-.917-3.334t-0.917-3.5a3.766,3.766,0,0,0-4-3,3.426,3.426,0,0,0-3.666,3,93.65,93.65,0,0,1-6.167,17.167,73.32,73.32,0,0,1-14.5,21.667A105.266,105.266,0,0,1,899.419,161.5,212.315,212.315,0,0,1,867.252,175q17.664-9,29.333-19.333,13.332-12,20.5-25a109.091,109.091,0,0,0,9.834-28.167q1-6,1.333-9.833a3.053,3.053,0,0,0-1-3.167,3.536,3.536,0,0,0-2.833-1.167H869.085l-0.333-1h56.667q3.332,0,4-3.833,0.5-6.332.5-12.667,0.5-13.664.5-29a3.173,3.173,0,0,0-1.334-2.667,2.913,2.913,0,0,0-2.666-1.333H879.085l-0.166-1h99.333a3.8,3.8,0,0,0,3.167-1.5L991.585,22.5l0.834,0.667q0.663,0.5,1.5,1.083t2,1.583q1.164,1,2,1.667,0.5,0.336,3.081,2.333a46.026,46.026,0,0,0,4.25,3q2.16,2,5.34,4.5-0.51.5-2.67,0.5H953.585a3.984,3.984,0,0,0-4,4q-0.168,9.668-.833,26-0.168,5-.833,15a3.162,3.162,0,0,0,1,3,3.63,3.63,0,0,0,3,1.5h36.833a3.958,3.958,0,0,0,3.167-1.667l10.171-13,0.66,0.5q1,0.836,5.5,4.333l7.34,5.833c0.22,0.112,2.1,1.612,5.66,4.5a4.421,4.421,0,0,1-2.5.5H953.085A3.671,3.671,0,0,0,949.919,90a3.145,3.145,0,0,0-.5,3.5,89.252,89.252,0,0,0,5.5,14.167A91.833,91.833,0,0,0,969.585,127.5q8.664,9.5,22.834,17.667a147.836,147.836,0,0,0,29.831,13.167A21.6,21.6,0,0,0,1011.92,164q-4.335,4-5.83,11.334a88.144,88.144,0,0,1-24.671-17.167h0Zm66-4.333q1.665-.837,5.58-3.084c2.61-1.5,4.59-2.583,5.92-3.25,0.11,0,.17-0.112.17-0.333,0.22-.112.47-0.224,0.75-0.333s0.58-.25.91-0.417a2.723,2.723,0,0,0,.67-0.417,3.766,3.766,0,0,0,2.17-3.5V86a4.1,4.1,0,0,0-1.17-3,3.878,3.878,0,0,0-2.83-1.167h-19.34l-0.33-1h18a3.978,3.978,0,0,0,3.17-1.667l8-10.833,17.83,14.333a7.174,7.174,0,0,0-1.17.333c-0.44.224-1.61,0.667-3.5,1.333A3.349,3.349,0,0,0,1079.09,88v52a3.978,3.978,0,0,0,1.33,2.834,17.711,17.711,0,0,0,1.42,1.25c0.6,0.5,1.16.971,1.66,1.416s0.97,0.888,1.42,1.334a9.967,9.967,0,0,0,2.5.833,3.4,3.4,0,0,0,2.5-1,0.479,0.479,0,0,0,.33-0.167l0.17-.166-0.5,1.5a3.529,3.529,0,0,0,2.33,3.5,16.584,16.584,0,0,0,3.84,1.666q9,4.164,22,5.5a263.417,263.417,0,0,0,30.66,1.5q17.835,0,25.84-.333,9.99,0,20.16-.5a15.8,15.8,0,0,0-5.33,5.167,25.475,25.475,0,0,0-4.5,11h-42.83q-17.34,0-28.34-3.167a47.424,47.424,0,0,1-19-9.167,77.668,77.668,0,0,1-14.5-16.833,19.118,19.118,0,0,0-2.5-2.667,4.413,4.413,0,0,0-2.16-.666,5.128,5.128,0,0,0-.84.083,5.306,5.306,0,0,1-.66.083,10.405,10.405,0,0,0-3.5,3,0.151,0.151,0,0,1-.17.167c-0.11.221-.81,1.221-2.08,3s-2.42,3.333-3.42,4.667q-1.5,2.163-7.67,10.666-4.5,6.333-6.83,10a2.919,2.919,0,0,0-.67,2.667l-11.66-18.333a82.418,82.418,0,0,0,9.33-5h0Zm107.5-14.5a14.2,14.2,0,0,0-3-6.667l-0.33-.167a21.215,21.215,0,0,0-6.67-4.5,18.459,18.459,0,0,1-2.17-.833q1.665,0.168,4.59.333c1.94,0.112,2.97.167,3.08,0.167,1.55,0.112,3.33.167,5.33,0.167a9.272,9.272,0,0,0,4-.667,10.114,10.114,0,0,0,3-1.333,0.15,0.15,0,0,0,.17-0.167,0.147,0.147,0,0,1,.17-0.167q2.655-3,4.33-11.166a211.118,211.118,0,0,0,2.83-22.667q0.165-2.5.42-7.667c0.17-3.443.3-6.776,0.42-10,0.1-3.221.22-6.388,0.33-9.5a3.856,3.856,0,0,0-1.17-2.833,3.323,3.323,0,0,0-2.83-1.333h-23.5q-3.345,0-4,3.833A149.09,149.09,0,0,1,1136.42,86a100.247,100.247,0,0,1-8.67,23.167,79.561,79.561,0,0,1-15.5,20.333q-6.84,7.336-19.16,14.167,10.83-10.663,16.33-20.833A110.805,110.805,0,0,0,1120.25,95a195.618,195.618,0,0,0,4.34-28.833v-1.5a3.926,3.926,0,0,0-.84-2.833,4.467,4.467,0,0,0-3.16-1.5h-26.17l-0.33-1h27q3.5,0,4.16-3.833,0.165-5.5.17-16.333V20.833l21.17,2a3.354,3.354,0,0,1-2,.833,3.8,3.8,0,0,0-3.17,4V39.333q-0.345,11-.67,15.833A3.238,3.238,0,0,0,1141.92,58a3.97,3.97,0,0,0,2.83,1.333h22.34a4.437,4.437,0,0,0,2.66-1l8.84-8.667L1193.92,62.5l-0.33.333q-0.51.168-1.5,0.417a7.861,7.861,0,0,0-1.34.417,4.125,4.125,0,0,0-3,3.833q-0.84,22.336-2,36.334-1.665,16.5-4.16,23.666-2.5,8.337-6.34,11.667a36.573,36.573,0,0,1-9,5,33.013,33.013,0,0,1-10.5,1.667,39.262,39.262,0,0,0-.83-6.5h0Zm-85.5-80.5A66.432,66.432,0,0,0,1064.75,46a132.7,132.7,0,0,0-7-13.167,58.458,58.458,0,0,0-6.16-8.5,57.066,57.066,0,0,1,18.66,7.5q7.665,5.168,10.84,10a22.8,22.8,0,0,1,3.33,9.5c0,3.112-.73,5.445-2.17,7a7.8,7.8,0,0,1-5.66,2.833h-0.84a11.141,11.141,0,0,1-6.33-2.333h0Zm252,111.833a12.482,12.482,0,0,0-3.67-6.833,24.6,24.6,0,0,0-7.66-4.834c-0.23-.112-0.7-0.307-1.42-0.583a16.011,16.011,0,0,0-1.75-.583h0.5c4.22,0.442,7.27.666,9.17,0.666,1.77,0.11,4,.167,6.66.167a11.111,11.111,0,0,0,4.34-.667,7.649,7.649,0,0,0,3.16-2q3.84-3.5,5.84-17.166,1.5-10.665,2.83-35.334,0.165-3.663,1.33-46.166a4.417,4.417,0,0,0-1-2.667,4.075,4.075,0,0,0-3-1.167h-28.66a4.454,4.454,0,0,0-3.67,2q-0.84,1.668-5,8.333a131.4,131.4,0,0,1-13.5,17.333,2.281,2.281,0,0,0-.83,1.5,3.33,3.33,0,0,0-1.67,1q-3.165,3.168-6.67,6.167a4.186,4.186,0,0,0-4,4v67.5a5.461,5.461,0,0,1-1.66,1,46.117,46.117,0,0,1-5.84,2.333,19.14,19.14,0,0,1-6.66,1h-1.17v-9.333a4.049,4.049,0,0,0-1.17-3,3.851,3.851,0,0,0-2.83-1.167h-22a3.716,3.716,0,0,0-2.83,1.25,4.133,4.133,0,0,0-1.17,2.917v10.5a7.26,7.26,0,0,0-1.5,1.166,12.894,12.894,0,0,1-5,2.5,18.681,18.681,0,0,1-7,1h-1.33V45.5l15,6.333a9.68,9.68,0,0,0,1.66.333,2.5,2.5,0,0,0,1.84-.667,3.576,3.576,0,0,0,2.16-2.833c0.34-2.555.56-4.276,0.67-5.167q0.165-1.664.67-6.083t0.66-6.917q0.33-2.5,1.17-10.167L1259.92,26a5.9,5.9,0,0,1-3.33,1,3.511,3.511,0,0,0-3,1.667,86.729,86.729,0,0,0-5.5,7.333c-3.12,4-5.5,7.057-7.17,9.167h-0.17a0.664,0.664,0,0,1-.25.417,2.119,2.119,0,0,0-.41.583,3.272,3.272,0,0,0-.34,4.167,3.358,3.358,0,0,0,3.5,2.333h9.84a3.97,3.97,0,0,0,2.83-1.333l7.5-8.167,15.5,12.167a1.852,1.852,0,0,0-.5.333q-1.665.668-2.67,1.167a3.429,3.429,0,0,0-3,3.667V82.666q0,3,3.17,3.667a3.121,3.121,0,0,0,1,.167,3.691,3.691,0,0,0,3.67-2.167q2.655-6.164,5.83-14.167,4.155-11.664,8-25.333,3-11,5.83-24.5l22.5,6.5c-0.22.112-1.06,0.391-2.5,0.833a3.265,3.265,0,0,0-3.33,2.5,134.957,134.957,0,0,1-7.5,16.167,3.868,3.868,0,0,0,.33,3.833,3.262,3.262,0,0,0,3.34,2h22.83A2.818,2.818,0,0,0,1338.59,51l9.5-9.5,15.33,13.833a1.128,1.128,0,0,0-.83.333,5.951,5.951,0,0,1-2.67.667q-3.165,1-3.17,4,0,1.336-1.16,43.5-0.675,16.335-2.17,32.666a176.208,176.208,0,0,1-3.67,21.334Q1347.41,166,1344.09,169a21.089,21.089,0,0,1-9.84,6.667,35.817,35.817,0,0,1-12,2,31.9,31.9,0,0,0-.83-7h0Zm-92.83-67.583a4.135,4.135,0,0,0-1.17,2.916v41.167a3.99,3.99,0,0,0,4,4h22a3.816,3.816,0,0,0,2.92-1.167,4.023,4.023,0,0,0,1.08-2.833V106a4.059,4.059,0,0,0-1.17-3,3.862,3.862,0,0,0-2.83-1.166h-22A3.713,3.713,0,0,0,1228.59,103.083Zm0-48.084a3.856,3.856,0,0,0-1.17,2.833V96.5a4.133,4.133,0,0,0,1.17,2.917,3.716,3.716,0,0,0,2.83,1.25h22a3.852,3.852,0,0,0,2.83-1.167,4.049,4.049,0,0,0,1.17-3V57.833a3.989,3.989,0,0,0-4-4h-22A3.846,3.846,0,0,0,1228.59,55Zm76.5,66.5a47.31,47.31,0,0,0-2.67-12.166,69.161,69.161,0,0,0-5.5-12.834,93.181,93.181,0,0,0-5.17-8.5q11.01,3.668,17.17,8,7,5.336,9.5,10,2.655,5.337,2.17,9.167-0.51,4.337-3,6.333a9.271,9.271,0,0,1-5.67,2.834h-0.17q-2.67,0-6.66-2.834h0Zm173-97.666,18.66,8.667a13.205,13.205,0,0,0,1.67.5h13.83a3.841,3.841,0,0,0,2.67-1.333l8.67-8.5L1540.92,39l-0.33.167a21.253,21.253,0,0,1-3.84.5,3.629,3.629,0,0,0-2.83,2q-4.005,6.668-5.33,8.5-1.35,2.668-6.67,11.333-3.345,5.336-7.5,11.167a69.592,69.592,0,0,1-5.83,7.833,5.345,5.345,0,0,0-.84,3.333,5.7,5.7,0,0,0,2,2.667,56.821,56.821,0,0,1,14.5,12,49.645,49.645,0,0,1,9.17,15.334,38.974,38.974,0,0,1,.67,29.166,20.35,20.35,0,0,1-8.17,9.167q-5.34,2.832-14.17,3.333c0-2.112-.06-3.666-0.16-4.666q0-1.168-.84-6.667a14.084,14.084,0,0,0-1.83-4.833,18.26,18.26,0,0,0-3.83-3.334,2.469,2.469,0,0,1-1-.333h6.83a9.025,9.025,0,0,0,4.83-1.333,7.237,7.237,0,0,0,3.67-4.334,18,18,0,0,0,1.33-7.333,62.479,62.479,0,0,0-3.33-20.167q-3-9.5-11.33-19,2.325-8.332,2.83-10.833,1-4.5,3-14.5,1.83-7.664,3-14.667a21.1,21.1,0,0,1,.83-4.667,4.585,4.585,0,0,0-1-3.333,3.641,3.641,0,0,0-3-1.5h-14a4.128,4.128,0,0,0-2.91,1.167A3.713,3.713,0,0,0,1493.59,38v93.834a4.134,4.134,0,0,0,1.33,3,4.925,4.925,0,0,0-1.33,2.833V171.5a2.537,2.537,0,0,1-1,1.167,17.494,17.494,0,0,1-5,2.333,21.332,21.332,0,0,1-8.17,1.334h-1.33V23.833Zm-81.67,121.833a141.8,141.8,0,0,0,8-29.833,3.2,3.2,0,0,0-.83-3.167c-0.45-.888-1.4-1.333-2.84-1.333h-17.5l-0.5-1.167h19.17q3.66,0,4-3.5,1.5-11,2.17-30.167a4.154,4.154,0,0,0-1.34-3,3.862,3.862,0,0,0-2.83-1.167h-19.67l-0.33-1h20.17a4,4,0,0,0,2.91-1.25,3.8,3.8,0,0,0,1.25-2.75V37.666a5.783,5.783,0,0,0-1-2.833,4.88,4.88,0,0,0-3-1h-20.33l-0.33-1.167h57.16a3.875,3.875,0,0,0,2.84-1.167l9.16-9.833,15.5,14a28.138,28.138,0,0,1-3.83,1.5,3.3,3.3,0,0,0-3,3.667q-0.165,11.836-.67,45-0.165,18.668-1.33,34-0.345,9-1.83,23.333A84.57,84.57,0,0,1,1454.42,158a29.509,29.509,0,0,1-4.5,8.5h-0.17a20.691,20.691,0,0,1-9.5,7,35.317,35.317,0,0,1-10.5,2.167c0-.557-0.16-3-0.5-7.333a11.269,11.269,0,0,0-2.5-6.667,16.509,16.509,0,0,0-5.66-4.5l-3-1.5q3.99,0.332,6,.333a31.2,31.2,0,0,0,5,.334,15.1,15.1,0,0,0,4-.667,15.783,15.783,0,0,0,3.33-2.333q3-3,4.5-11.667a231.417,231.417,0,0,0,2.5-23.167l0.17-3a4.1,4.1,0,0,0-1-3,3.884,3.884,0,0,0-2.84-1.166h-17q-3.33,0-3.83,3a92.256,92.256,0,0,1-4.5,14.666,105.728,105.728,0,0,1-13.83,25.834,109.069,109.069,0,0,1-22.17,21,118.288,118.288,0,0,0,18-30.167h0Zm25.17-36.833a3.968,3.968,0,0,0,3.16,1.333h15.34a4.019,4.019,0,0,0,2.83-1.083,3.438,3.438,0,0,0,1.17-2.584c0-2,.1-5.721.33-11.166s0.39-9.776.5-13V76.5a3.178,3.178,0,0,0-1-3,4.075,4.075,0,0,0-3-1.167h-13.17a3.783,3.783,0,0,0-2.66,1.083A3.405,3.405,0,0,0,1423.92,76q-0.675,9.668-2.17,23.833l-1,5.833A3.6,3.6,0,0,0,1421.59,108.833Zm4.5-73.917a3.405,3.405,0,0,0-1.17,2.583q-0.165,5.336-.42,15.167t-0.25,14.167v0.5a3.944,3.944,0,0,0,1.17,2.75,3.715,3.715,0,0,0,2.83,1.25h12.84a3.989,3.989,0,0,0,4-4q0.5-27,.5-29.667a4.766,4.766,0,0,0-1.17-2.833,4.221,4.221,0,0,0-2.83-1h-12.67A4,4,0,0,0,1426.09,34.916ZM1560.42,152.5a196.42,196.42,0,0,0,4.17-31q0.825-17.163.83-30.333V42l20.67,7.5a2.062,2.062,0,0,1,.58.167,1.828,1.828,0,0,0,.58.167h44a4.12,4.12,0,0,0,3.34-1.667,4.562,4.562,0,0,0,.66-3.667,65.71,65.71,0,0,0-3.5-8.667A66.425,66.425,0,0,0,1625.92,26q-3.84-5-4.5-5.833,11.16,1,17,3.833,6.825,3,10,7,2.835,3.836,2.5,7.333a8.974,8.974,0,0,1-1.67,5,4.456,4.456,0,0,0-.33,4.167,3.658,3.658,0,0,0,3.67,2.333h28.83a4.1,4.1,0,0,0,3.33-1.667L1693.59,36l0.33,0.5,0.33,0.167q1.665,1.5,5,4c0.67,0.667,1.72,1.612,3.17,2.833s2.44,2.057,3,2.5q3.33,3,4.83,4.333a4.013,4.013,0,0,1-2.33.5h-47.5a3.486,3.486,0,0,0-3.67,2.333,3.854,3.854,0,0,0,0,3.5,1.856,1.856,0,0,1-.66,1,6.494,6.494,0,0,1-2.17.833,3.736,3.736,0,0,0-2.83,4v53.334c0,2.112,1.1,3.445,3.33,4h0.67a3.845,3.845,0,0,0,3.66-2.5A176.449,176.449,0,0,0,1666.09,95a201.26,201.26,0,0,0,5.16-30.5l20.67,4.667a6.573,6.573,0,0,1-2.33.833,3.839,3.839,0,0,0-3.34,2.667q-2.34,7-5,13.5a5.185,5.185,0,0,0,0,3.167,6.744,6.744,0,0,0,2.17,2.167,52.135,52.135,0,0,1,10.83,5.5q6.165,4.835,8.34,9a13.5,13.5,0,0,1,2,8,8.417,8.417,0,0,1-1.84,5.334,6.516,6.516,0,0,1-4.66,2.166h-0.17a8.433,8.433,0,0,1-5.33-2.166,59.168,59.168,0,0,0-2.84-10.834q-1.995-4.831-5.5-11.5l-0.83-1.167A3.3,3.3,0,0,0,1680.09,94h-0.34a3.658,3.658,0,0,0-3.33,2c-1.45,2.667-2.33,4.224-2.67,4.667a85.771,85.771,0,0,1-16.83,20.167,1.829,1.829,0,0,1-.58-0.167,6.835,6.835,0,0,0-.75-0.25,2.5,2.5,0,0,0-.5-0.083,2.733,2.733,0,0,0-.67.083,5.671,5.671,0,0,0-.75.25,1.977,1.977,0,0,1-.58.167,4.307,4.307,0,0,0-2,3.5V132.5a3.971,3.971,0,0,0,4,4h14.66a4.47,4.47,0,0,0,3.17-1.5l8.5-11.333,0.5,0.5q3.33,2.837,5,4a51.719,51.719,0,0,1,6,5c0.67,0.557,1.58,1.362,2.75,2.417s1.8,1.64,1.92,1.75a7.971,7.971,0,0,1-2.5.333h-40a3.737,3.737,0,0,0-2.84,1.25,4.123,4.123,0,0,0-1.16,2.917v25.5a3.654,3.654,0,0,0,1.16,2.666,3.869,3.869,0,0,0,2.84,1.167h27a3.668,3.668,0,0,0,3.16-1.667l9.34-12.166,0.16,0.166,0.34,0.167q2,1.5,5,4c0.77,0.667,1.97,1.693,3.58,3.083s2.64,2.25,3.08,2.584c0.56,0.554,1.42,1.333,2.59,2.333s1.97,1.721,2.41,2.167a4.016,4.016,0,0,1-2.33.5h-133.5l-0.5-1.167h55.5a3.609,3.609,0,0,0,2.75-1.167,3.814,3.814,0,0,0,1.08-2.666v-25.5a4.239,4.239,0,0,0-1.08-3,3.609,3.609,0,0,0-2.75-1.167h-39.67l-0.33-1.167h40a3.6,3.6,0,0,0,2.75-1.166,4.017,4.017,0,0,0,1.08-2.834V114.833a3.63,3.63,0,0,0-2.83-3.834,3.2,3.2,0,0,0-1-.166,3.943,3.943,0,0,0-3.67,2,7.505,7.505,0,0,1-1.66,2.166,5.6,5.6,0,0,1-3.84,1.5h-0.66a14.767,14.767,0,0,1-5-2.5,40.726,40.726,0,0,0-1-9.666,72.471,72.471,0,0,0-2.34-7.5,3.924,3.924,0,0,0-3.5-2.667h-0.33a3.728,3.728,0,0,0-3.5,2.5q-1.335,3-3.17,6.5a81.656,81.656,0,0,1-16.83,23.333l-0.33-.333a4.829,4.829,0,0,0-2.17-.5,7.053,7.053,0,0,0-1.67.167,6.532,6.532,0,0,0-2.33,2.833,65.068,65.068,0,0,1-1.83,8.667,73.791,73.791,0,0,1-10,22.666,71.064,71.064,0,0,1-15.84,17.667,97.881,97.881,0,0,0,9.17-25.167h0ZM1583.17,52a3.747,3.747,0,0,0-1.25,2.833V91.166q0,12.5-.83,22.333a24.879,24.879,0,0,1-.5,4.834c-0.23,2.112.83,3.557,3.16,4.333h0.84a3.962,3.962,0,0,0,3.83-2.5,223.61,223.61,0,0,0,6.67-22.667,261.6,261.6,0,0,0,4.5-33.833l19.33,3.833a4.537,4.537,0,0,1-2.17.833,3.883,3.883,0,0,0-3.16,3.167,114.136,114.136,0,0,1-3.84,13,4.07,4.07,0,0,0,2.17,5,40.235,40.235,0,0,1,9,5.833q4.83,4.5,6.17,8a3.946,3.946,0,0,0,3.83,2.5,2.693,2.693,0,0,0,.83-0.167,3.665,3.665,0,0,0,3-3.833v-47A4.024,4.024,0,0,0,1633.67,52a3.609,3.609,0,0,0-2.75-1.167h-44.83A4.135,4.135,0,0,0,1583.17,52Zm171.75,65.834a4.167,4.167,0,0,0-2.5-3.834,4.991,4.991,0,0,0-1.67-.166,3.075,3.075,0,0,0-2.5,1,144.422,144.422,0,0,1-24.33,17.5,189.368,189.368,0,0,0,13-16.167A260.962,260.962,0,0,0,1752.25,90.5a218.331,218.331,0,0,0,11.34-26.667h0.5a3.364,3.364,0,0,0,2.16-.667,3.5,3.5,0,0,0,1.84-3.333V47.166a3.989,3.989,0,0,0-4-4h-40L1723.92,42h40.17a3.745,3.745,0,0,0,2.83-1.25,3.988,3.988,0,0,0,1.17-2.75V19.833l21,1.833a2.213,2.213,0,0,1-1.84.833q-3.165,1-3.16,3.833V38a4.3,4.3,0,0,0,4,4h27.5a3.745,3.745,0,0,0,2.83-1.25,3.988,3.988,0,0,0,1.17-2.75V19.833l21.66,1.833a3.066,3.066,0,0,1-1.83.833q-3.165.836-3.17,3.833V38a3.944,3.944,0,0,0,1.17,2.75,3.715,3.715,0,0,0,2.83,1.25h12.84a3.663,3.663,0,0,0,3.16-1.667l9-12a1.668,1.668,0,0,0,.34.5A44.721,44.721,0,0,1,1870.42,33a40.01,40.01,0,0,0,3.33,2.833c1.56,1.224,2.5,2,2.84,2.333q2,2,4.66,4.333c-0.11.445-.89,0.667-2.33,0.667h-38.67a3.989,3.989,0,0,0-4,4V58.333a4.027,4.027,0,0,1-1.5.833,25.007,25.007,0,0,1-5.16,1.667q-3.51.836-3.17,4.167a3.588,3.588,0,0,0,1.83,3.167l-0.16.167a0.485,0.485,0,0,1-.17.333,5.712,5.712,0,0,1-1.83.833,3.566,3.566,0,0,0-3.17,3.833v28.333a3.771,3.771,0,0,0,2.67,3.833,4.994,4.994,0,0,0,1.5.167,3.867,3.867,0,0,0,2.83-1.167l1.5-1.5a244.567,244.567,0,0,0,22.5-28.833l18,13.667h-0.33a5.789,5.789,0,0,1-1.42-.25,5.881,5.881,0,0,0-1.25-.25,1.26,1.26,0,0,1-.5-0.167h-0.33a4.452,4.452,0,0,0-3.17,1.5,199.966,199.966,0,0,1-26.67,25,136.42,136.42,0,0,1-13.5,9.5,4.3,4.3,0,0,0-1.83,3.333v26q0,3.833,2.5,5.334a17.977,17.977,0,0,0,6.83,1.166h23.84a51.177,51.177,0,0,0,5.33-.166,7.362,7.362,0,0,0,6.5-3.167V155.5a68.27,68.27,0,0,0,4-9.666q0.495-1.5,1.42-4.667c0.6-2.109,1.08-3.667,1.41-4.667l0.5,17.667a3.675,3.675,0,0,0,2.17,3.667,11.7,11.7,0,0,1,4,2.5,5.236,5.236,0,0,1,1,3.5,5.659,5.659,0,0,1-2.67,5.166q-2.49,2-10.66,3.334a154.489,154.489,0,0,1-22.84,1.333h-18.33q-8.505,0-13.33-1.5c-2.9-1-4.84-2.557-5.84-4.667q-1.83-3.5-1.83-10.166v-17a3.948,3.948,0,0,0-2-3.667,3.851,3.851,0,0,0-2-.5,3.719,3.719,0,0,0-1.67.333,176.961,176.961,0,0,1-19,8,250.817,250.817,0,0,0,21.84-15.833h0.33a7.7,7.7,0,0,1,1-1.167,2.765,2.765,0,0,0,1.5-2.833V66.5l8.33,0.833h0.17a3.619,3.619,0,0,0,2.67-1,4.322,4.322,0,0,0,1.5-3V47.166a3.748,3.748,0,0,0-1.25-2.833,4.169,4.169,0,0,0-2.92-1.167h-27.33a3.951,3.951,0,0,0-2.75,1.167,3.713,3.713,0,0,0-1.25,2.833V59.5l-0.34.333a7.445,7.445,0,0,1-.83.5A42.572,42.572,0,0,1,1777.25,62c-1.66.224-2.72,1.333-3.16,3.333q-0.345,3.168,2.33,4.167l9,3.667a3.955,3.955,0,0,1-2.5.667h-0.5a3.48,3.48,0,0,0-3.33,1.833,139.016,139.016,0,0,1-9.34,14.833,3.013,3.013,0,0,0-.33,3.333,3.18,3.18,0,0,0,2.17,2.667l3.16,1a6.667,6.667,0,0,1-1,.667,3.6,3.6,0,0,0-2.66,3.833v42.167a4.7,4.7,0,0,0,.5,2.167,4.053,4.053,0,0,0-.5,1.833v26c-0.12.109-.62,0.5-1.5,1.167a25.7,25.7,0,0,0-2.59.916,25.86,25.86,0,0,1-10.41,1.917h-1.67V117.833Zm146.67-94.5,18.5,7.5a5.14,5.14,0,0,0,1.5.333h99.83a3.97,3.97,0,0,0,2.83-1.333l7.84-8.667,16,12.833a1.078,1.078,0,0,1-.42.25,1.36,1.36,0,0,1-.42.083,4.551,4.551,0,0,1-2.5,1,3.667,3.667,0,0,0-3,3.833V170a5.2,5.2,0,0,1-1.66,1.167l-2.34,1.167c-1.66.776-2.94,1.333-3.83,1.666a22.6,22.6,0,0,1-7.17,1.167h-1v-8.333a3.975,3.975,0,0,0-1.16-2.75,3.749,3.749,0,0,0-2.84-1.25H1921.59a3.733,3.733,0,0,0-2.84,1.25,3.931,3.931,0,0,0-1.16,2.75v4l-1.67,1.666a15.021,15.021,0,0,1-5.33,2.834,21.856,21.856,0,0,1-7.5,1.333h-1.5V23.333Zm17.5,125a3.8,3.8,0,0,0-1.5,3.166v6.334a3.981,3.981,0,0,0,1.08,2.833,3.787,3.787,0,0,0,2.92,1.167h100.16a3.973,3.973,0,0,0,4-4V138.666q0-3.163-2.83-3.667a2.931,2.931,0,0,0-1.17-.166,3.491,3.491,0,0,0-3.33,1.833,4.723,4.723,0,0,1-.83,1c-1.12,1.333-3.17,2.333-6.17,3a55.09,55.09,0,0,1-13,1.167h-8.67q-6.495,0-9-1.167a4.575,4.575,0,0,1-2.83-3.333,31.856,31.856,0,0,1-.83-8.667v-39.5a3.748,3.748,0,0,0-1.25-2.833,3.969,3.969,0,0,0-2.75-1.167h-4.84a3.969,3.969,0,0,0-2.75,1.167A3.574,3.574,0,0,0,1964.25,89a97.907,97.907,0,0,1-4.5,22.5,51.189,51.189,0,0,1-13.16,21.167,63.645,63.645,0,0,1-19.84,12.667,51.938,51.938,0,0,0,12.84-15,63.241,63.241,0,0,0,7.16-21.834,141.587,141.587,0,0,0,1.5-19.166c0-1.443-.39-2.388-1.16-2.833a3.355,3.355,0,0,0-2.84-1.333h-17.66L1926.42,84h64.5a4.47,4.47,0,0,0,3.17-1.5l8.83-11.333,0.33,0.5c1.34,1,3,2.333,5,4a70.607,70.607,0,0,1,6.34,5q0.825,0.668,2.25,1.917t2.25,1.917c0.1,0,.16.112,0.16,0.333a6.27,6.27,0,0,1-2.5.333h-21.66a4.135,4.135,0,0,0-2.92,1.167,3.748,3.748,0,0,0-1.25,2.833v35.167a1.156,1.156,0,0,0,.17.5l0.16,0.333a3.494,3.494,0,0,0,3.34,3.5h11a1.382,1.382,0,0,1,.75-0.25,6.783,6.783,0,0,1,.75-0.083,2.775,2.775,0,0,0,1.16-.834l1.34-1.333q2.655-7,2.66-7.167,0.33-1,.84-2.916c0.33-1.276.6-2.25,0.83-2.917l0.33,11.333c0.44,1.891,1.17,3,2.17,3.334a13.311,13.311,0,0,1,2,1.666,3.916,3.916,0,0,0,3.33,2,2.384,2.384,0,0,0,1.34-.333q2.655-.5,2.66-3.667V87.833q0-2.332-1.5-3a3.53,3.53,0,0,0,1.5-3.167V36.5a4.089,4.089,0,0,0-1.16-3,3.885,3.885,0,0,0-2.84-1.167H1921.59a3.869,3.869,0,0,0-2.84,1.167,4.05,4.05,0,0,0-1.16,3v108c0,1.776.66,2.888,2,3.334v0.333Zm14.83-91.5h50.33a4.47,4.47,0,0,0,3.17-1.5l8.5-10.5,0.5,0.167a0.146,0.146,0,0,0,.17.167q0.825,0.5,2.58,1.833t2.25,1.667a30.6,30.6,0,0,0,2.75,2.25c1.39,1.057,2.47,1.917,3.25,2.583,2.77,2.333,4.39,3.667,4.83,4a7.927,7.927,0,0,1-2.5.333h-75.66Zm149.83,117.5a25.03,25.03,0,0,0,6-10,3.76,3.76,0,0,0-1.83-5.167l-6.5-3.333q-5.175-3-6.5-5.834a10.8,10.8,0,0,1-1.83-6,11.911,11.911,0,0,1,3.33-8.833,12.039,12.039,0,0,1,8.83-3.667,22.352,22.352,0,0,1,6,.834,13.559,13.559,0,0,1,4.67,2.833c1,3.667,1.55,5.667,1.67,6q0.495,5,.5,6.333,0,14.5-7.84,24.667a42.1,42.1,0,0,1-20,13.833l-0.5-1.5h-0.33q9.33-4.668,14.33-10.166h0ZM49.419,349q-7.836-1.5-11.167-5.833-3.5-4.668-3.5-14v-60.5a4.111,4.111,0,0,0-1.667-3.333,4.009,4.009,0,0,0-2.333-.834,2.751,2.751,0,0,0-.667.084,2.686,2.686,0,0,1-.667.083L7.419,272l-0.667-.833L31.919,262.5q2.832-.5,2.833-3.666v-48.5L56.085,212.5a4.8,4.8,0,0,1-2,1.167q-3.168.836-3.167,3.833v33.334a4.1,4.1,0,0,0,1.667,3.333,4.943,4.943,0,0,0,2.5.667,4.311,4.311,0,0,0,1.333-.167L77.585,247.5a3.5,3.5,0,0,0,2.667-3.666V197.166l22.167,2q-0.336.667-2.5,1.167a3.569,3.569,0,0,0-3.167,3.833V235.5a3.665,3.665,0,0,0,1.667,3.167,4.751,4.751,0,0,0,2.5.833,2.357,2.357,0,0,0,1.333-.333l25.833-8.5a4.012,4.012,0,0,0,1.334-1l8.833-8.333,15,12.666c-0.333,0-.5.058-0.5,0.167a7.035,7.035,0,0,1-2.167.667q-3.168.835-3.166,3.833-0.168,14-1.334,26.167a183.5,183.5,0,0,1-2,19.166,50.117,50.117,0,0,1-3.166,11.834,13.723,13.723,0,0,1-4.834,6.666h-0.166q-2.337,2.337-7.834,4.5a28.307,28.307,0,0,1-9,1.334q-0.168-1.332-.416-3.584t-0.25-3.083a14.957,14.957,0,0,0-2-6.167,0.442,0.442,0,0,0-.5-0.5,20.87,20.87,0,0,0-5-4.166,6.409,6.409,0,0,1-1.834-.834c0.555,0,1.36.058,2.417,0.167s1.859,0.167,2.417.167q1.832,0.168,4.333.166a10.159,10.159,0,0,0,3.5-.5,6.757,6.757,0,0,0,2.667-1.666q3.663-3,5-17.667,1-11.5,2-34.167a3.833,3.833,0,0,0-1.667-3.333,3.776,3.776,0,0,0-2.5-.833,4.394,4.394,0,0,0-1.333.166l-26.167,8.834q-3,1.167-3,3.666v41.5a6.442,6.442,0,0,0,.833,2.334,9.816,9.816,0,0,0-.833,2.5v17.833a5.06,5.06,0,0,1-1.5,1.167,29.336,29.336,0,0,1-5.833,2.5A22.521,22.521,0,0,1,82.252,314h-2V253.333A3.833,3.833,0,0,0,78.585,250a18.756,18.756,0,0,0-2.167-.833,2.768,2.768,0,0,0-.833.167,2.69,2.69,0,0,1-.667.166l-21.333,7.167a4.165,4.165,0,0,0-2.667,3.833V324a9.972,9.972,0,0,0,2.167,6.5q1.5,2.332,6.167,3.334a46.238,46.238,0,0,0,10.5.833h36q12.5,0,17.333-.167,3.333,0,11.334-.5h0.333a17.345,17.345,0,0,0,5.5-1.166,18.688,18.688,0,0,0,4-2.5,4.877,4.877,0,0,1,.333-0.584,5.864,5.864,0,0,0,.334-0.583q1.164-1.5,4.833-10,4-10.663,5.167-14.167l0.333,22.834q0.5,3.163,3,3.666,4.5,1.665,5.833,3a4.584,4.584,0,0,1,1.667,3.5,7.67,7.67,0,0,1-2.167,5.667q-1.836,2.164-8.5,3.833-5.667,1.665-19,2.5-11.168.664-32,.667h-33.5A119.49,119.49,0,0,1,49.419,349h0Zm180.75-.416a28.677,28.677,0,0,1-.25-2.917,10.626,10.626,0,0,0-2.5-6,17.351,17.351,0,0,0-5.334-4.167,1.622,1.622,0,0,1-.833-0.333,7.579,7.579,0,0,0-.833-0.5q3.663,0.332,5.166.333a27.565,27.565,0,0,0,4.5.334,10.25,10.25,0,0,0,7-2.334q3.5-3.5,5.5-17.166,1.665-9.165,3-31.834a3.988,3.988,0,0,0-1.333-2.833,3.079,3.079,0,0,0-2.833-1.333h-15q-3.168,0-4,3.333a28.8,28.8,0,0,1-.667,3.5V287a120.674,120.674,0,0,1-6.333,25.5,78.567,78.567,0,0,1-13.834,22.834q-7.668,9-20.833,16.333a66.209,66.209,0,0,0,14-18.333,97.4,97.4,0,0,0,9.333-24.667,177.673,177.673,0,0,0,3.834-24.5,3.611,3.611,0,0,0-1.167-3,3.079,3.079,0,0,0-2.833-1.333h-21l-0.5-1.167h22.333q3.332,0,4-3.833,0-2.5.167-7.167t0.333-7.167a4.306,4.306,0,0,0-4.167-4.166,3.318,3.318,0,0,0-2.166.833,17.343,17.343,0,0,1-4,1.833,17.991,17.991,0,0,1-7.334,1.334h-1.5V199.666l17.834,6.833a3.44,3.44,0,0,0,1.333.167h30a4.06,4.06,0,0,0,3-1.167l7-7.666L264.919,209.5l-0.334.334a8.643,8.643,0,0,1-2.5,1,3.666,3.666,0,0,0-3,3.833v40.167a4.508,4.508,0,0,1-1.5.666,26.555,26.555,0,0,1-6.166,2,29.08,29.08,0,0,1-6.334.834h-1.166v-4.5a3.738,3.738,0,0,0-1.25-2.834,4.153,4.153,0,0,0-2.917-1.166h-6.5a4.088,4.088,0,0,0-2.583,1,3.609,3.609,0,0,0-1.417,2.5,4.053,4.053,0,0,0,1.333,3.333,3.558,3.558,0,0,1-.666.833,3.368,3.368,0,0,1-2,.834,3.574,3.574,0,0,0-3,3.666q-0.168,2-.584,6.084t-0.583,6.083a3.052,3.052,0,0,0,1,3.167,3.975,3.975,0,0,0,2.833,1.333h13.334a4.874,4.874,0,0,0,3-1.167l8.166-7.833,14.667,12-0.167.167-0.166.166q-0.669.168-2.334,0.5-3.336.837-3.333,3.834-0.836,17-2.333,30.666a93.418,93.418,0,0,1-4.167,19.5q-2.668,6.832-6.333,9.667a22.678,22.678,0,0,1-8.334,4.167,45.778,45.778,0,0,1-9,1.333Q230.417,350.666,230.169,348.583ZM205.752,209.166A3.858,3.858,0,0,0,204.585,212v32.667a3.848,3.848,0,0,0,1.167,2.833,4.051,4.051,0,0,0,3,1.167h31a4.06,4.06,0,0,0,3-1.167,3.86,3.86,0,0,0,1.167-2.833V212a3.737,3.737,0,0,0-1.25-2.833A4.154,4.154,0,0,0,239.752,208h-31A4.062,4.062,0,0,0,205.752,209.166Zm100.5,139.917q-0.168-1.251-.417-2.584c-0.166-.89-0.307-1.557-0.416-2a15.863,15.863,0,0,0-3.667-6.666A18.5,18.5,0,0,0,295.419,333a18.291,18.291,0,0,1-2.167-.833h1q5.664,0.332,7.833.333a40.427,40.427,0,0,0,5.334.334,7.282,7.282,0,0,0,3.833-.834,5.91,5.91,0,0,0,1.333-1.666,5.844,5.844,0,0,0,.5-2.834V196.333l22,2.333h-0.166a10.843,10.843,0,0,1-2,.833,3.442,3.442,0,0,0-3.167,3.834V329.166a39.476,39.476,0,0,1-1.667,11.5q-1.335,4-6.666,7.167-4.5,2.664-15,3.666h0.166Q306.417,350.332,306.252,349.083Zm-27.333-140.75,20.166,2.166a4.568,4.568,0,0,1-2.333,1,3.767,3.767,0,0,0-3,4v93.334a0.736,0.736,0,0,0-.333.083,1.831,1.831,0,0,0-.417.333,2.194,2.194,0,0,1-.583.417,18.91,18.91,0,0,1-5.334,2,23.358,23.358,0,0,1-6.666,1.167h-1.5v-104.5ZM399.752,349.166q-4.668-1-6.333-4.167-1.836-3.336-1.834-9.666v-44L412.419,293a2.322,2.322,0,0,1-1.334.667,3.631,3.631,0,0,0-2.833,3.833v33.667q0,3,2,4.167c0.221,0,.333.054,0.333,0.166q1.332,0.832,7,.834h38.834a6.533,6.533,0,0,0,3.833-1.167,10.147,10.147,0,0,0,2.833-2.333v-0.167a43.105,43.105,0,0,0,3.834-8.167,63.274,63.274,0,0,0,3.166-8.333l0.5,14.833a3.485,3.485,0,0,0,2.5,3.667q3.333,1.5,3.834,2.333a5.526,5.526,0,0,1,1.333,3.5,8.354,8.354,0,0,1-1.5,4.5q-1.337,1.665-5.833,3a75.851,75.851,0,0,1-12.667,2q-8.5.5-21.333,0.5h-22.5q-10.168,0-14.667-1.333h0Zm-44.833-8.833a8.6,8.6,0,0,1-3.5-3.667q-1.668-4.168.166-7.167a15.3,15.3,0,0,1,5.667-5.666,26.3,26.3,0,0,0,7.5-6.667A41.2,41.2,0,0,0,370.585,307a25.143,25.143,0,0,0,2.167-8.166,52.681,52.681,0,0,1,3.167,16.666q0,9-2.667,15-2.837,6-6.667,8.667a12.49,12.49,0,0,1-5.833,2.167,1.462,1.462,0,0,0-.667.166l-0.333.167a9.618,9.618,0,0,1-4.833-1.333h0Zm136.833-3.5a61.925,61.925,0,0,0-4-15,70.184,70.184,0,0,0-7.833-15.5,104.5,104.5,0,0,0-7.5-10.167q12.332,3.667,20.166,9,8.664,5.668,12.167,11.833a21.313,21.313,0,0,1,3.667,11.334,12.1,12.1,0,0,1-2.5,8A8.38,8.38,0,0,1,499.752,340h-0.667q-3.336,0-7.333-3.166h0Zm-55.667-22.667A54.976,54.976,0,0,0,433.419,303q-2-5.5-5-11.833-3.5-6.664-4.167-7.667,11,3.168,16.667,7.334,6.5,4.5,9,9.333a13.571,13.571,0,0,1,2,8.5q-0.5,4.168-2.834,6A7.918,7.918,0,0,1,443.252,317q-3.336,0-7.167-2.833h0Zm-60.75-42.417a6.678,6.678,0,0,1,1.584-1.25,1.361,1.361,0,0,1,.833-0.5,4.454,4.454,0,0,0,2-3.666v-35.5A3.738,3.738,0,0,0,378.5,228a4.149,4.149,0,0,0-2.917-1.166H351.919l-0.167-1.334h71.333a3.8,3.8,0,0,0,3-1.333,3.53,3.53,0,0,0,.834-3.333,44.629,44.629,0,0,0-2.834-9.167q-3.336-6.664-4.833-9-0.667-1-2.083-2.917t-1.584-2.25q9.665,0.669,15.834,3.667,6.332,2.837,8.666,6.5a10.865,10.865,0,0,1,2.167,6.833,7.511,7.511,0,0,1-1.667,4.667q-1.836,1.5-.666,4.167a4.109,4.109,0,0,0,3.666,2.166h33.334a4.32,4.32,0,0,0,3.166-1.333l9.334-12,0.5,0.5a0.146,0.146,0,0,0,.166.167q2,1.5,5,4,1.164,1,3.334,2.75T501.585,222q0.833,0.669,2.584,2.167t2.583,2.167a5.162,5.162,0,0,1-2.333.5H400.085a3.958,3.958,0,0,0-2.75,1.166,3.738,3.738,0,0,0-1.25,2.834v37a3.728,3.728,0,0,0,1.25,2.833,3.946,3.946,0,0,0,2.75,1.167h63.334a3.8,3.8,0,0,0,3.166-1.5l9.5-11.667,0.667,0.5a26.374,26.374,0,0,1,2.583,1.917q1.751,1.417,2.917,2.25,3.664,2.5,6.667,5,1.832,1.335,5.166,4.333a7.954,7.954,0,0,1-2.5.333H400.252a4.109,4.109,0,0,0-3.333,1.667l-4.667,7.167-18-9.167A3.962,3.962,0,0,0,375.335,271.749Zm166.417,55.584a8.351,8.351,0,0,0,2.167-6.167V252a3.6,3.6,0,0,0-1.167-2.75,4.023,4.023,0,0,0-2.833-1.083H522.085l-0.5-1.333h19.667a3.856,3.856,0,0,0,2.833-1.167l7.334-7.333,13.666,11.5c-0.224,0-.333.057-0.333,0.166-0.333,0-.5.058-0.5,0.167a8.574,8.574,0,0,1-1.667.667q-3,.5-3,4V315a3.291,3.291,0,0,0,1.834,3.334,5.143,5.143,0,0,0,2,.666,2.78,2.78,0,0,0,.666-0.083,6.565,6.565,0,0,0,.75-0.25,1.871,1.871,0,0,1,.584-0.167q2.163-1.335,6.5-3.666t6.5-3.667a69.57,69.57,0,0,1-5.167,6.667q-3.667,5.163-11.5,14.5-5.836,7.164-9.5,11.166a1.852,1.852,0,0,0-.667,1c-0.112.222-.224,0.472-0.333,0.75s-0.25.584-.417,0.917a2.888,2.888,0,0,1-.416.667l-0.334.166a6.637,6.637,0,0,1-1.833,2.834l-12-18.167q4.664-3,5.5-4.333h0Zm55,20.333a11.152,11.152,0,0,1-6.833-4.333q-2-3.168-2-10V310.666a4.006,4.006,0,0,0-.834-2.333,4,4,0,0,0,.834-2.334V260l18.833,7.5a5.322,5.322,0,0,1,.833.084,4.84,4.84,0,0,0,.667.083h35.167a3.984,3.984,0,0,0,4-4V217.833a4.15,4.15,0,0,0-1.167-2.917,3.737,3.737,0,0,0-2.833-1.25H580.585l-0.5-1h62.334a3.366,3.366,0,0,0,3-1.5l8-9.167,18,13.834a3.93,3.93,0,0,0-1.334.833l-3.5,1.167q-3.168,1.167-3.166,4v57.5a1.776,1.776,0,0,1-.667.333,5.283,5.283,0,0,0-.667.5A37.86,37.86,0,0,1,655.419,282a24.687,24.687,0,0,1-6.667,1.167h-1.333V272.833a3.6,3.6,0,0,0-1.167-2.75A4.019,4.019,0,0,0,643.419,269h-35.5a4.011,4.011,0,0,0-2.834,1.084,3.592,3.592,0,0,0-1.166,2.75v57a5.772,5.772,0,0,0,2.5,5.166q1.663,1.164,8.5,1.167h35q1.332,0,4.083-.083t3.917-.25a13.306,13.306,0,0,0,3.833-.834,12.91,12.91,0,0,0,2.833-2.166,2.115,2.115,0,0,0,.5-0.834,44.185,44.185,0,0,0,3.834-8.333q0.5-1.168,1.583-4.083t1.75-4.75l0.333,15.833a3.847,3.847,0,0,0,2.5,3.667,13.377,13.377,0,0,1,4.5,2.333,4.283,4.283,0,0,1,1.167,3.167A6.451,6.451,0,0,1,679.085,344q-1.5,1.5-6,2.834a71.894,71.894,0,0,1-13.5,1.666q-6.168.5-23,.5H612.252a75.162,75.162,0,0,1-15.5-1.333h0ZM555.585,229.5a69.675,69.675,0,0,0-5.5-11.666q-4.5-6.833-8-11.834-0.668-.831-6.5-7.666a71.2,71.2,0,0,1,18.667,5.333q8.333,4.5,11.5,8.667,3.665,4.5,4,8.666a11.833,11.833,0,0,1-1.667,6.834,7.161,7.161,0,0,1-5.166,3.333,2.776,2.776,0,0,0-.834.167,2.688,2.688,0,0,1-.666.166,10.525,10.525,0,0,1-5.834-2h0Zm168,117.834a18.44,18.44,0,0,0-2.5-6.334,15.891,15.891,0,0,0-4.666-4.166,9.7,9.7,0,0,0-1.5-.834,25.144,25.144,0,0,0,4.666.334q3.333,0.331,3.667.333a9.857,9.857,0,0,0,2.333-.333,5.379,5.379,0,0,0,1.834-1.667,4.611,4.611,0,0,0,.833-3v-27.5a3.079,3.079,0,0,0-1.333-2.833,3.164,3.164,0,0,0-2.5-1.167h-0.834a3.312,3.312,0,0,0-3.166,2.167,83.359,83.359,0,0,1-13.167,18.5,95.593,95.593,0,0,1-15,13,123.487,123.487,0,0,0,8.167-18,174.01,174.01,0,0,0,6.5-22.5l16.166,5.166h1a6.271,6.271,0,0,0,2.5-.5,3.824,3.824,0,0,0,1.667-3.333V279.833A3.87,3.87,0,0,0,727.085,277a4.068,4.068,0,0,0-3-1.166h-2.5A3.672,3.672,0,0,0,718.919,277a3.858,3.858,0,0,0-1.167,2.834v0.333a1.276,1.276,0,0,0-.583.333,2.891,2.891,0,0,1-.917.5,24.776,24.776,0,0,1-5.167,2.334,26.227,26.227,0,0,1-7,.833h-0.5v-47.5l15.834,6.5a4.3,4.3,0,0,0,1.333.167h28a3.856,3.856,0,0,0,2.833-1.167l7.167-7.833,13.5,10.333a4.75,4.75,0,0,0,2.5.833,5.191,5.191,0,0,0,2.167-.666h10.166a3.944,3.944,0,0,0,2.75-1.167,3.725,3.725,0,0,0,1.25-2.833v-46l21.667,2v0.333a0.678,0.678,0,0,0-.5.167q-1.5.667-2,.833a3.429,3.429,0,0,0-3,3.667q-0.336,25.167-.667,37.833v1a4.051,4.051,0,0,0,1.167,3,3.848,3.848,0,0,0,2.833,1.167h14.667a3.826,3.826,0,0,0,3-1.667l6.5-8.333a4.749,4.749,0,0,0,.667-4q-1.337-2.333-3.167-2.5a9.2,9.2,0,0,1-5-2.334,22.813,22.813,0,0,0-1.5-8.666,45.079,45.079,0,0,0-3.5-9.167q-0.5-1-1.417-2.833T819.585,203a41.79,41.79,0,0,1,13.334,5.5q5.163,3.5,7,7.334a10.887,10.887,0,0,1,1.166,6.5,8.057,8.057,0,0,1-2.833,4.333,0.482,0.482,0,0,1-.333.167v0.333a3.133,3.133,0,0,0-1.5,3,4.016,4.016,0,0,0,1.666,3l1.5,1.167a26.284,26.284,0,0,1,2.334,2q2.664,2.335,6.166,5.166a28.109,28.109,0,0,0,2.417,2.084,28.8,28.8,0,0,1,2.25,1.916,4.033,4.033,0,0,1-2.333.5H827.252a3.734,3.734,0,0,0-4,4v78.5a5.7,5.7,0,0,0,.333,2.334,3.372,3.372,0,0,0,2.834,2.666,4.147,4.147,0,0,0,1.833.334h7.833a11.042,11.042,0,0,1,1.334-.334l0.666-.166a4.975,4.975,0,0,0,2.5-.667,7.005,7.005,0,0,0,1.834-2.5,15.325,15.325,0,0,0,2.166-5.5q0.333-1,2.334-9.167a14.472,14.472,0,0,1,.833-3.333l0.333,17.167a3.24,3.24,0,0,0,2.167,3.333,26.663,26.663,0,0,1,2.5,2.333,8.463,8.463,0,0,1,.833,3.834,7.153,7.153,0,0,1-2,5q-1.668,2.163-6.333,3a59.68,59.68,0,0,1-14,1.333h-9.167q-6.168,0-9.166-1.333a5.919,5.919,0,0,1-3.5-3.834,26.219,26.219,0,0,1-1.167-9V296.666a3.641,3.641,0,0,0-3.5-4h-0.333q-3.336,0-4,3-1.337,5-3,9.5a96.157,96.157,0,0,1-14.5,26.5q-8.668,11.164-23.167,20.667a93.455,93.455,0,0,0,16-23.834,29.843,29.843,0,0,0,1.667-3,4.183,4.183,0,0,0-.334-4,3.053,3.053,0,0,0,2.834-2.333A127.6,127.6,0,0,0,785.752,300a244.616,244.616,0,0,0,4.5-32l0.5-18a4.209,4.209,0,0,0-1-2.833A4.722,4.722,0,0,0,786.919,246h-8.667a3.828,3.828,0,0,0-2-.5,5.875,5.875,0,0,0-2.333.5l-0.167.334-2.5,1a3.428,3.428,0,0,0-3,3.666v27.834a12.21,12.21,0,0,1-1.333.5,26.78,26.78,0,0,1-6.167,2,28.61,28.61,0,0,1-6.167.833h-1.333v-2.333A3.87,3.87,0,0,0,752.085,277a4.068,4.068,0,0,0-3-1.166h-1.333a4.062,4.062,0,0,0-3,1.166,3.858,3.858,0,0,0-1.167,2.834v12a2.7,2.7,0,0,0,.167.833v0.5a5.39,5.39,0,0,1-.083.667,4.981,4.981,0,0,0-.084.833v37.667a34.834,34.834,0,0,1-1.5,10.666,11.143,11.143,0,0,1-5.666,6.667q-4,2.5-12.5,3.5,0-2.5-.334-5.833h0Zm-4.666-101.75a3.944,3.944,0,0,0-1.167,2.75V270.5a4.134,4.134,0,0,0,1.167,2.917,3.557,3.557,0,0,0,2.666,1.25h27.5a3.738,3.738,0,0,0,2.834-1.25,4.146,4.146,0,0,0,1.166-2.917V248.333a3.956,3.956,0,0,0-1.166-2.75,3.735,3.735,0,0,0-2.834-1.25h-27.5A3.554,3.554,0,0,0,718.919,245.583ZM764.419,324q-2.5,0-5.5-2.666a39.149,39.149,0,0,0-1-9.667,80.564,80.564,0,0,0-3-10.333q-0.336-.665-2.667-6.5,8.5,3.667,12.667,7.5,5,4.167,6.5,8.333,1.5,4,.833,6.5a4.3,4.3,0,0,0,.667,2.667,4.743,4.743,0,0,0-2.334,1.5,2.964,2.964,0,0,1-1.166,1.166,7.316,7.316,0,0,1-4.5,1.5h-0.5Zm-70.5-100h36.833a4.1,4.1,0,0,0,4-3,3.584,3.584,0,0,0-1.5-4.333A45.387,45.387,0,0,0,728.085,204a97.209,97.209,0,0,0-6.166-9,45.464,45.464,0,0,1,15,3.334,20.725,20.725,0,0,1,8.333,6,11.568,11.568,0,0,1,2,6.333,7.857,7.857,0,0,1-2.5,5.167,4.7,4.7,0,0,1-1,.833,4.251,4.251,0,0,0-1.5,4.667,3.887,3.887,0,0,0,4,2.666h7.667a4.1,4.1,0,0,0,3.333-1.666l8.5-11.667,0.667,0.167a48.1,48.1,0,0,0,5,4.166q1.332,1.168,6.333,5.5a44.409,44.409,0,0,1,4.5,4.167q-0.168.5-2.333,0.5H694.085Zm267,49.5a3.6,3.6,0,0,0-1.167-2.75,4.023,4.023,0,0,0-2.833-1.083H930.752a3.727,3.727,0,0,0-2.75,1.083,4.2,4.2,0,0,0-1.25,2.584q-0.336,7.335-.833,11.5a87.6,87.6,0,0,1-4.834,19.833,61.741,61.741,0,0,1-10.333,18A77.181,77.181,0,0,1,892.419,339a131.628,131.628,0,0,1-22.167,10.667,91.805,91.805,0,0,0,17.333-15,76.249,76.249,0,0,0,13.5-21.5,84.384,84.384,0,0,0,6.5-23.5,110.742,110.742,0,0,0,1.5-15.833,2.864,2.864,0,0,0-1-3,4.069,4.069,0,0,0-3-1.167h-39l-0.166-1.167h39.333a3.859,3.859,0,0,0,2.833-1.166,3.676,3.676,0,0,0,1.167-2.667V215a3.984,3.984,0,0,0-4-4h-32l-0.167-1.166h114.5a3.8,3.8,0,0,0,3.167-1.5l8.667-11.5,0.671,0.5q0.66,0.5,2.16,1.833a32.041,32.041,0,0,0,2.67,2.167q1.83,1.335,6,5.166a23.648,23.648,0,0,0,2.5,2.084,23.687,23.687,0,0,1,2.33,1.916,4.542,4.542,0,0,1-2.33.5H983.085a3.736,3.736,0,0,0-4,4v49.667a3.664,3.664,0,0,0,1.167,2.667,3.851,3.851,0,0,0,2.833,1.166h12.667a3.288,3.288,0,0,0,3.333-1.833l8.5-13.167,0.16,0.334a64.616,64.616,0,0,1,5,4.666c0.67,0.558,1.69,1.5,3.09,2.834,1.38,1.333,2.47,2.333,3.25,3q3.15,3.168,4.5,4.666a3.554,3.554,0,0,1-2.5.667h-38a4.013,4.013,0,0,0-2.833,1.083,3.591,3.591,0,0,0-1.167,2.75v73a4.5,4.5,0,0,1-1.5,1,24.366,24.366,0,0,1-5.333,2.5,31.1,31.1,0,0,1-9.167,1h-2.166V273.5Zm-32.584-61.333A4.01,4.01,0,0,0,927.252,215v49.667a3.8,3.8,0,0,0,1.083,2.667,3.586,3.586,0,0,0,2.75,1.166h25.834a3.861,3.861,0,0,0,2.833-1.166,3.676,3.676,0,0,0,1.167-2.667V215a3.8,3.8,0,0,0-1.167-2.916A4.019,4.019,0,0,0,956.919,211H931.085A3.594,3.594,0,0,0,928.335,212.166Zm135.585,80a3.541,3.541,0,0,0-2.33-3.5,13.265,13.265,0,0,0-1.67-.5,6.393,6.393,0,0,0-2.5.833,109.782,109.782,0,0,1-18.5,12.5,149.207,149.207,0,0,0,18.5-20.333,211.172,211.172,0,0,0,18-29q3.825-7.5,7-15a4.327,4.327,0,0,0-.33-4,3.849,3.849,0,0,0-3.34-1.667h-38.5l-0.5-1.166h42.67a3.964,3.964,0,0,0,3.83-2.5q1.665-4.5,2-5.834,4.83-14.331,7.84-27.166l24.66,6.5a7.352,7.352,0,0,1-2.5.666,3.184,3.184,0,0,0-3,2.5q-3,8.169-8.33,20.167a3.619,3.619,0,0,0,.17,3.833,3.477,3.477,0,0,0,3.33,1.834h48.5a3.812,3.812,0,0,0,3.17-1.5l10.33-13.167,0.83,0.667a67.835,67.835,0,0,0,5.67,4.333q0.825,0.5,7.17,5.667,1.83,1.5,5.5,4.833a5.171,5.171,0,0,1-2.17.333h-83.67a3.559,3.559,0,0,0-3.5,2.167,236.5,236.5,0,0,1-15.66,25c-0.9,1.333-2.34,3.224-4.34,5.667a3.981,3.981,0,0,0-.66,3.5,4.546,4.546,0,0,0,2.5,2.666l0.66,0.167a6.709,6.709,0,0,1-1,.667,3.6,3.6,0,0,0-2.66,3.833v62.5a3.8,3.8,0,0,0,1.33,3,3.391,3.391,0,0,0,2.5.833h37.33a3.884,3.884,0,0,0,2.84-1.166,3.7,3.7,0,0,0,1.16-2.667v-49a3.973,3.973,0,0,0-4-4h-27.83l-0.5-1h28.33a4.026,4.026,0,0,0,2.84-1.083,3.808,3.808,0,0,0,1.16-2.917v-36.5l21.5,1.667a2.888,2.888,0,0,1-1.66.666,4.1,4.1,0,0,0-3,4v30.167a3.973,3.973,0,0,0,4,4h6.66a4.47,4.47,0,0,0,3.17-1.5l8.83-11.5,0.67,0.5a42.866,42.866,0,0,1,5,4,71.215,71.215,0,0,1,6.5,5q1.5,1.168,4.83,4.167a7.282,7.282,0,0,1-2.33.333h-33.33a3.973,3.973,0,0,0-4,4v49a3.657,3.657,0,0,0,1.16,2.667,3.868,3.868,0,0,0,2.84,1.166h15.33a4.358,4.358,0,0,0,3.17-1.333l10-12.5,0.66,0.333c1.34,1.11,3.11,2.555,5.34,4.334q2,1.831,7,5.5,2.325,2.163,5.16,4.333a3.245,3.245,0,0,1-2.33.667H1087.75a3.316,3.316,0,0,0-2.83-1.334,1.78,1.78,0,0,0-1,.334q-3.165.663-3.17,3.666V349a5.05,5.05,0,0,1-1.33,1.167c-0.33.109-1.2,0.417-2.58,0.917a31.276,31.276,0,0,1-3.59,1.083,20.885,20.885,0,0,1-7.16,1h-2.17v-61Zm164.33-35a4.322,4.322,0,0,0-1.5-3,4.77,4.77,0,0,0-2.5-.833,2.362,2.362,0,0,0-1,.166c-0.56.112-1.39,0.308-2.5,0.584s-1.94.474-2.5,0.583q3.165-1.663,7.67-4.5,2.16-1.332,4.67-3,2.49-1.663,5.58-3.75c2.05-1.388,3.64-2.471,4.75-3.25q3.825-2.664,14-10.5,1.335-1.164,3.58-3c1.5-1.221,2.47-2,2.92-2.333a3.463,3.463,0,0,0,1.17-4.334q-0.51-2.832-3.67-2.833h-23.33a4.119,4.119,0,0,0-3,1.333,3.857,3.857,0,0,0-1.17,2.834q0,7.167-2.33,11.333a13.918,13.918,0,0,1-5.84,6.5h-0.16a10.052,10.052,0,0,1-4.84,1.167,14.9,14.9,0,0,1-2.66-.167,7.483,7.483,0,0,1-5-4.833,6.551,6.551,0,0,1,1-6.167,10.148,10.148,0,0,1,5.33-4.667h0.33a22.718,22.718,0,0,0,8.34-8.5,22.4,22.4,0,0,0,2.66-9.166q0.33,0.835.84,2.166c0.33,0.891.6,1.667,0.83,2.334s0.44,1.333.67,2q0.5,2.835,3.66,2.833h43.5a4.063,4.063,0,0,0,3-1.167,4.424,4.424,0,0,0,1-3,26.752,26.752,0,0,0-2.83-10.833,43.047,43.047,0,0,0-4.67-7q9.84,0.336,15.17,2.167,5.835,2.167,8,5.333a6.467,6.467,0,0,1,1,5.5,23.005,23.005,0,0,1-1,3,3.5,3.5,0,0,0-.17,4c0.44,1.333,1.61,2,3.5,2h37.84a3.831,3.831,0,0,0,2.83-1l8.67-9,15.66,14.667a20.7,20.7,0,0,1-3.16.5,2.493,2.493,0,0,0-1.84.666q-0.99.837-10.5,6.667a6.394,6.394,0,0,0-1.08.5,2.051,2.051,0,0,1-.92.333,4,4,0,0,0-2.16,3.5,3.927,3.927,0,0,0,2,3.667,27.538,27.538,0,0,1,7,6c2.1,2.779,3.16,5.279,3.16,7.5a5.731,5.731,0,0,1-2.16,4.833,8.385,8.385,0,0,1-2.67,1.167c-1.45.112-2.5,1.112-3.17,3a4.366,4.366,0,0,0,1.5,4.167l1.84,1.333-0.17.167-0.17.166a8.132,8.132,0,0,1-1.16.417,5.167,5.167,0,0,0-1.34.583,3.35,3.35,0,0,0-3.16,3.667v79a11.7,11.7,0,0,1-3.34,1.833q-3.84,2.164-11.16,2.167h-1.67v-6.333a3.581,3.581,0,0,0-1.17-2.75,4,4,0,0,0-2.83-1.084h-79.83a3.939,3.939,0,0,0-2.75,1.167,3.535,3.535,0,0,0-1.25,2.667V350.5c-0.12.334-1.06,0.888-2.84,1.667q-3.33,1.663-10.83,1.667h-1.67V257.166Zm31,84.167h68.17a3.818,3.818,0,0,0,2.75-1.25,4.016,4.016,0,0,0,1.25-2.917v-68.5a3.746,3.746,0,0,0-1.25-2.833,3.952,3.952,0,0,0-2.75-1.167h-41.5a3.7,3.7,0,0,0-4,3.333q-0.5,3.5,3,4.5l2,0.5a6.124,6.124,0,0,0-2.67,1.667,20.1,20.1,0,0,1-1.16,1.917,18.9,18.9,0,0,0-1.17,1.916q-1.5,1.5-.33,4a3.972,3.972,0,0,0,3.5,2.167h13.16a3.345,3.345,0,0,0,2.67-1.167l7.67-7.166,12.83,10.833a6.771,6.771,0,0,0-1.33.25,7.184,7.184,0,0,1-1.67.25c-1.56.224-2.5,0.891-2.83,2A81.921,81.921,0,0,1,1304.09,306c-1,1-1.34,1.946-1,2.834a3.271,3.271,0,0,0,1.66,3c0.22,0.224.89,0.778,2,1.666q4.665,4.164,5.67,7.834a7.619,7.619,0,0,1,0,5.833,6.166,6.166,0,0,1-3.33,3,5.128,5.128,0,0,0-.84.083,5.381,5.381,0,0,1-.66.084,10.446,10.446,0,0,1-4-1,38.858,38.858,0,0,0-6.84-8.834l-1.83-1.833a3.345,3.345,0,0,0-2.67-1.167,6.288,6.288,0,0,0-2.5.5,100.271,100.271,0,0,1-29.66,14.834,96.573,96.573,0,0,0,24-18.667,3.2,3.2,0,0,0,1-3,4.209,4.209,0,0,0-1.5-2.833q-2.01-1.665-11.67-8.667V300a130.187,130.187,0,0,1,17,3.834,1.617,1.617,0,0,0,1.17.333,4.1,4.1,0,0,0,3.33-1.667,88.682,88.682,0,0,0,6-11.166c0.67-1,.61-2.222-0.17-3.667a4.294,4.294,0,0,0-3.33-1.833h-17.67a4.3,4.3,0,0,0-3.16,1.333,59.639,59.639,0,0,1-5.17,5.833q-1.845,2.169-1,4,0.165,0.336.33,0.75a2,2,0,0,1,.17.584h-0.17a3.156,3.156,0,0,0-2.33-.834,4.446,4.446,0,0,0-2.67,1,0.516,0.516,0,0,1-.16.334,2.864,2.864,0,0,1-.42.333,2.736,2.736,0,0,0-.42.333,59.137,59.137,0,0,1-10.66,8.167,73.753,73.753,0,0,0,6.5-9.333q3.15-5.5,7.83-15.334a91.4,91.4,0,0,0,4.83-13.333,4.733,4.733,0,0,0-.66-3.5,4.129,4.129,0,0,0-3.34-1.667h-20.16a3.818,3.818,0,0,0-2.75,1.25,3.977,3.977,0,0,0-1.25,2.917V307.5a3.856,3.856,0,0,0,.66,2.167,5.422,5.422,0,0,0-.66,2.333v25.167a3.977,3.977,0,0,0,1.25,2.917,3.818,3.818,0,0,0,2.75,1.25h5.16a3.849,3.849,0,0,0,3.34-1.667,3.412,3.412,0,0,0,3.16,1.667h0Zm36-95.334a2.667,2.667,0,0,0-2.16,1c-0.9.779-2.34,2.029-4.34,3.75s-3.33,2.917-4,3.584a12.79,12.79,0,0,1-1.08.833,11.905,11.905,0,0,0-1.25,1,4.2,4.2,0,0,0-1.33,4.667,3.759,3.759,0,0,0,3.83,2.5h42.67a3.514,3.514,0,0,0,3-1.334l8.5-9.5a3.619,3.619,0,0,0,.83-3.166,2.794,2.794,0,0,0-1.67-2.667q-3.84-2.832-12.5-8.167-4.17-2.5-15.16-8-1.845-.831-10.67-4.333h2.5A136.326,136.326,0,0,1,1325.75,228a85.775,85.775,0,0,1,10,2.834,2.845,2.845,0,0,0,1.17.166,3.375,3.375,0,0,0,2.17-.666,2.852,2.852,0,0,0,1.83-2.5c0.11-.555.3-1.526,0.58-2.917a19.537,19.537,0,0,1,.75-2.917,4.6,4.6,0,0,0-1.16-3.333,2.982,2.982,0,0,0-2.84-1.5h-69.16q-2.5,0-3.84,2.833a3.744,3.744,0,0,0,1.5,4.5l14.67,11a3.675,3.675,0,0,0-.83,3.667,3.071,3.071,0,0,0,3,2.833l15,3.167a6.2,6.2,0,0,1-3.34.833h0Zm-24.33-9.166q-2.835,1.167-14.83,5.833-8.5,3.168-21.67,7.5a2.362,2.362,0,0,0-.5.083,1.055,1.055,0,0,0-.5.25,3.611,3.611,0,0,0-2.67,3.834,3.486,3.486,0,0,0,2.5,3.666l13.34,5a3.259,3.259,0,0,0,1.5.334h19.16a3.64,3.64,0,0,0,3.84-2.834,21.54,21.54,0,0,0,.75-2.5,13.977,13.977,0,0,1,.58-2c0.33-1,.77-2.471,1.33-4.416s0.94-3.417,1.17-4.417c0.22-.776.5-1.776,0.83-3s0.56-2.055.67-2.5q0.66-2.832-1.33-4a3.088,3.088,0,0,0-2.5-1,7.053,7.053,0,0,0-1.67.167h0Zm123.5-28.167,20.5,8.333a3.442,3.442,0,0,0,1.33.167h77a3.349,3.349,0,0,0,2.84-1.333L1505.25,205l19.84,15.667c-0.23.112-.53,0.279-0.92,0.5a4.278,4.278,0,0,0-.75.5,14.347,14.347,0,0,1-4.17,1.667,3.666,3.666,0,0,0-3,3.833V334a9.958,9.958,0,0,1-2,1.334,38.283,38.283,0,0,1-7.16,2.666,25.219,25.219,0,0,1-7.67,1.167h-1.17V323.333a3.535,3.535,0,0,0-1.25-2.667,3.939,3.939,0,0,0-2.75-1.167h-78a3.773,3.773,0,0,0-2.66,1.084,3.581,3.581,0,0,0-1.17,2.75v13.333l-2,1.667a15.126,15.126,0,0,1-6.17,3.166,25.655,25.655,0,0,1-8.16,1.334h-1.67V208.666Zm19.17,10.917a3.943,3.943,0,0,0-1.17,2.75V314.5a4,4,0,0,0,3.83,3.834h78a3.952,3.952,0,0,0,2.75-1.167,3.54,3.54,0,0,0,1.25-2.667V222.333a4.3,4.3,0,0,0-4-4h-78A3.533,3.533,0,0,0,1413.59,219.583Zm251.16,126.083a12.533,12.533,0,0,0-3.66-6.833,24.664,24.664,0,0,0-7.67-4.834c-0.23-.112-0.7-0.307-1.42-0.583a15.333,15.333,0,0,0-1.75-.583h0.5q6.33,0.663,9.17.666c1.77,0.11,4,.167,6.67.167a11.089,11.089,0,0,0,4.33-.667,7.616,7.616,0,0,0,3.17-2q3.825-3.5,5.83-17.166,1.5-10.665,2.83-35.334,0.165-3.663,1.34-46.166a4.483,4.483,0,0,0-1-2.667,4.075,4.075,0,0,0-3-1.167h-28.67a4.455,4.455,0,0,0-3.67,2q-0.84,1.668-5,8.334a131.416,131.416,0,0,1-13.5,17.333,2.28,2.28,0,0,0-.83,1.5,3.37,3.37,0,0,0-1.67,1q-3.165,3.168-6.66,6.167a4.019,4.019,0,0,0-2.34.833,3.955,3.955,0,0,0-1.66,3.167v67.5a5.666,5.666,0,0,1-1.67,1,46.026,46.026,0,0,1-5.83,2.333,19.161,19.161,0,0,1-6.67,1h-1.17v-9.333a4.081,4.081,0,0,0-1.16-3,3.873,3.873,0,0,0-2.84-1.167h-22a3.716,3.716,0,0,0-2.83,1.25,4.133,4.133,0,0,0-1.17,2.917v10.5a7.26,7.26,0,0,0-1.5,1.166,12.894,12.894,0,0,1-5,2.5,18.681,18.681,0,0,1-7,1h-1.33v-126l15,6.334a9.7,9.7,0,0,0,1.67.333,2.484,2.484,0,0,0,1.83-.667,3.606,3.606,0,0,0,2.17-2.833q0.5-3.833.66-5.167c0.11-1.109.34-3.138,0.67-6.083s0.55-5.25.67-6.917c0.22-1.666.6-5.054,1.16-10.166l23.5,5.666a5.866,5.866,0,0,1-3.33,1,3.513,3.513,0,0,0-3,1.667,86.848,86.848,0,0,0-5.5,7.333q-4.665,6-7.17,9.167h-0.16a0.716,0.716,0,0,1-.25.417,2.144,2.144,0,0,0-.42.583,3.271,3.271,0,0,0-.33,4.167,3.351,3.351,0,0,0,3.5,2.333h9.83a3.972,3.972,0,0,0,2.83-1.333l7.5-8.167,15.5,12.167a2.041,2.041,0,0,0-.5.333c-1.11.445-2,.833-2.66,1.167a3.428,3.428,0,0,0-3,3.666v22.167q0,3,3.16,3.667a3.166,3.166,0,0,0,1,.166,3.682,3.682,0,0,0,3.67-2.166q2.655-6.165,5.83-14.167,4.17-11.664,8-25.333,3-11,5.84-24.5l22.5,6.5c-0.23.112-1.06,0.39-2.5,0.833a3.275,3.275,0,0,0-3.34,2.5,135.039,135.039,0,0,1-7.5,16.167,3.868,3.868,0,0,0,.34,3.833,3.241,3.241,0,0,0,3.33,2h22.83a2.807,2.807,0,0,0,2.67-1.167l9.5-9.5,15.33,13.834a1.129,1.129,0,0,0-.83.333,5.924,5.924,0,0,1-2.67.667,3.951,3.951,0,0,0-3.16,4q0,1.335-1.17,43.5-0.675,16.335-2.17,32.666a178.268,178.268,0,0,1-3.66,21.334Q1690.75,341,1687.42,344a21.059,21.059,0,0,1-9.83,6.667,35.817,35.817,0,0,1-12,2,31.337,31.337,0,0,0-.84-7h0Zm-92.83-67.583a4.135,4.135,0,0,0-1.17,2.916v41.167a3.99,3.99,0,0,0,4,4h22a3.816,3.816,0,0,0,2.92-1.167,4.023,4.023,0,0,0,1.08-2.833V281a4.091,4.091,0,0,0-1.16-3,3.884,3.884,0,0,0-2.84-1.166h-22A3.713,3.713,0,0,0,1571.92,278.083Zm0-48.084a3.857,3.857,0,0,0-1.17,2.834V271.5a4.133,4.133,0,0,0,1.17,2.917,3.716,3.716,0,0,0,2.83,1.25h22a3.873,3.873,0,0,0,2.84-1.167,4.081,4.081,0,0,0,1.16-3V232.833a3.971,3.971,0,0,0-4-4h-22A3.846,3.846,0,0,0,1571.92,230Zm76.5,66.5a46.9,46.9,0,0,0-2.67-12.166,69.166,69.166,0,0,0-5.5-12.834,95.787,95.787,0,0,0-5.16-8.5q11,3.669,17.16,8,7.005,5.337,9.5,10,2.67,5.337,2.17,9.167-0.5,4.337-3,6.333a9.245,9.245,0,0,1-5.67,2.834h-0.16q-2.67,0-6.67-2.834h0Zm173-97.666,18.67,8.666a13.215,13.215,0,0,0,1.66.5h13.84a3.837,3.837,0,0,0,2.66-1.333l8.67-8.5L1884.25,214l-0.33.167a21.3,21.3,0,0,1-3.83.5,3.647,3.647,0,0,0-2.84,2q-3.99,6.667-5.33,8.5-1.335,2.668-6.67,11.333-3.33,5.337-7.5,11.167a68.3,68.3,0,0,1-5.83,7.833,5.271,5.271,0,0,0-.83,3.334,5.635,5.635,0,0,0,2,2.666,57.022,57.022,0,0,1,14.5,12q6.66,8,9.16,15.334a38.974,38.974,0,0,1,.67,29.166,20.292,20.292,0,0,1-8.17,9.167q-5.34,2.832-14.16,3.333c0-2.112-.06-3.666-0.17-4.666q0-1.169-.83-6.667a14.051,14.051,0,0,0-1.84-4.833,17.742,17.742,0,0,0-3.83-3.334,2.469,2.469,0,0,1-1-.333h6.83a9.059,9.059,0,0,0,4.84-1.333,7.256,7.256,0,0,0,3.66-4.334,17.988,17.988,0,0,0,1.34-7.333,62.49,62.49,0,0,0-3.34-20.167q-3-9.5-11.33-19,2.325-8.331,2.83-10.833,1.005-4.5,3-14.5,1.83-7.663,3-14.667a20.362,20.362,0,0,1,.84-4.666,4.632,4.632,0,0,0-1-3.334,3.641,3.641,0,0,0-3-1.5h-14a4.135,4.135,0,0,0-2.92,1.167,3.748,3.748,0,0,0-1.25,2.833v93.834a4.134,4.134,0,0,0,1.33,3,4.925,4.925,0,0,0-1.33,2.833V346.5a2.468,2.468,0,0,1-1,1.167,17.369,17.369,0,0,1-5,2.333,21.262,21.262,0,0,1-8.17,1.334h-1.33v-152.5Zm-81.67,121.833a141.194,141.194,0,0,0,8-29.833,3.157,3.157,0,0,0-.83-3.167c-0.45-.888-1.39-1.333-2.83-1.333h-17.5l-0.5-1.167h19.16c2.44,0,3.78-1.167,4-3.5q1.5-11,2.17-30.167a4.183,4.183,0,0,0-1.33-3,3.884,3.884,0,0,0-2.84-1.166h-19.66l-0.34-1h20.17a4.019,4.019,0,0,0,2.92-1.25,3.837,3.837,0,0,0,1.25-2.75V212.666a5.887,5.887,0,0,0-1-2.833,4.92,4.92,0,0,0-3-1h-20.34l-0.33-1.167h57.17a3.867,3.867,0,0,0,2.83-1.167l9.17-9.833,15.5,14a29.185,29.185,0,0,1-3.84,1.5,3.3,3.3,0,0,0-3,3.667q-0.165,11.835-.66,45-0.18,18.667-1.34,34-0.33,9-1.83,23.333A83.66,83.66,0,0,1,1797.75,333a29.028,29.028,0,0,1-4.5,8.5h-0.16a20.8,20.8,0,0,1-9.5,7,35.449,35.449,0,0,1-10.5,2.167q0-.836-0.5-7.333a11.335,11.335,0,0,0-2.5-6.667,16.56,16.56,0,0,0-5.67-4.5l-3-1.5q4,0.332,6,.333a31.2,31.2,0,0,0,5,.334,15.034,15.034,0,0,0,4-.667,15.531,15.531,0,0,0,3.33-2.333q3-3,4.5-11.667a228.47,228.47,0,0,0,2.5-23.167l0.17-3a4.062,4.062,0,0,0-1-3,3.878,3.878,0,0,0-2.83-1.166h-17c-2.23,0-3.5,1-3.84,3a92.256,92.256,0,0,1-4.5,14.666,105.39,105.39,0,0,1-13.83,25.834,108.808,108.808,0,0,1-22.17,21,118.288,118.288,0,0,0,18-30.167h0Zm25.17-36.833a3.975,3.975,0,0,0,3.17,1.333h15.33a4,4,0,0,0,2.83-1.083,3.4,3.4,0,0,0,1.17-2.584q0-3,.33-11.166t0.5-13V251.5a3.178,3.178,0,0,0-1-3,4.074,4.074,0,0,0-3-1.166h-13.16a3.808,3.808,0,0,0-2.67,1.083,3.4,3.4,0,0,0-1.17,2.583q-0.66,9.669-2.16,23.834l-1,5.833A3.562,3.562,0,0,0,1764.92,283.833Zm4.5-73.917a3.4,3.4,0,0,0-1.17,2.583q-0.165,5.337-.41,15.167t-0.25,14.167v0.5a3.933,3.933,0,0,0,1.16,2.75,3.737,3.737,0,0,0,2.84,1.25h12.83a3.99,3.99,0,0,0,4-4q0.495-27,.5-29.667a4.7,4.7,0,0,0-1.17-2.833,4.2,4.2,0,0,0-2.83-1h-12.67A4,4,0,0,0,1769.42,209.916ZM1965.25,308a4.167,4.167,0,0,0-2.5-3.833,5.1,5.1,0,0,0-1.5-.167,4.075,4.075,0,0,0-3,1.167,126,126,0,0,1-15.16,14A183.289,183.289,0,0,1,1898.59,343a192.755,192.755,0,0,0,19.16-15,153.1,153.1,0,0,0,20-23.166q6-9,10-16.334a4.581,4.581,0,0,0,0-3.833,3.94,3.94,0,0,0-3.66-2h-47.17l-0.5-1.167h3.5a3.375,3.375,0,0,0,2.17-.666,2.838,2.838,0,0,0,1.83.666h57.33a3.876,3.876,0,0,0,2.84-1.166,4.081,4.081,0,0,0,1.16-3V256.666l22.67,2.167h-0.17a18.026,18.026,0,0,1-2.33,1q-3.165.5-3.17,4v13.5a4.13,4.13,0,0,0,1.17,2.916,3.713,3.713,0,0,0,2.83,1.25h35.84a4.467,4.467,0,0,0,3.16-1.5l9.17-11.5,0.33,0.5a53.447,53.447,0,0,1,5.17,4q5.325,4.168,6.5,5.167a45.025,45.025,0,0,1,5.17,4.167,5.171,5.171,0,0,1-2.17.333h-56.67a3.641,3.641,0,0,0-3.66,2.333,4.279,4.279,0,0,0,.66,4.334,70.058,70.058,0,0,0,6.84,6.666,114.14,114.14,0,0,0,18.16,12.834,220.224,220.224,0,0,0,20.67,10,133.351,133.351,0,0,0,17.67,5.5,23.1,23.1,0,0,0-8.34,5.833A29.8,29.8,0,0,0,2038.59,341a97.777,97.777,0,0,1-21.67-13.833,126.483,126.483,0,0,1-19-20.833,143.858,143.858,0,0,1-8.17-13.834,3.53,3.53,0,0,0-3.5-2.333,0.85,0.85,0,0,0-.83.333,3.358,3.358,0,0,0-3.17,3.667V348.5a3.074,3.074,0,0,1-1.66,1.167,28.237,28.237,0,0,1-6,2.5,38.7,38.7,0,0,1-7.5.833h-1.84V308Zm-42-48.833a44.783,44.783,0,0,0,9.84-18.5,72.384,72.384,0,0,0,2.33-18.5v-24.5L1955.75,205a5.243,5.243,0,0,1,.67.084,4.664,4.664,0,0,0,.67.083h34.83a3.851,3.851,0,0,0,2.83-1.167l8.34-9,15,12.167a9.143,9.143,0,0,1-2,.333,3.8,3.8,0,0,0-3.17,4v29.834a6.32,6.32,0,0,0,.17,1.833,4.548,4.548,0,0,0,2.5,2.5,15.133,15.133,0,0,0,3,.333h8.66c0.56,0,1.31-.026,2.25-0.083s1.64-.083,2.09-0.083h3.33a15.527,15.527,0,0,0,2.5-.167,10.739,10.739,0,0,0,2.5-.167h0.33a2.6,2.6,0,0,1,1.84-.5,13.914,13.914,0,0,1,2.33-.333h1.67a14.08,14.08,0,0,1,4.33,2.833,5.383,5.383,0,0,1,1,3.334,7.764,7.764,0,0,1-2,5.166q-1.995,2-8,3.334a42.768,42.768,0,0,1-6.5.833,1.723,1.723,0,0,1-.67.333l-0.5.167a4.747,4.747,0,0,1-.66-0.083,5.461,5.461,0,0,0-.67-0.084h-0.17q-2.34.168-7.66,0.167h-12.17q-7.335,0-10.5-1.333a6.524,6.524,0,0,1-4-3.834,28.25,28.25,0,0,1-1.33-9.5V210.5a3.9,3.9,0,0,0-1.17-2.833,3.689,3.689,0,0,0-2.67-1.167h-37a4.129,4.129,0,0,0-2.91,1.167,3.713,3.713,0,0,0-1.25,2.833v11.334a67.791,67.791,0,0,1-1.34,13.666,42.187,42.187,0,0,1-6.5,14.167,50.565,50.565,0,0,1-15.16,13.5q-7.845,5-20.34,8.667,9.84-5.832,15-12.667h0ZM2178.59,327.5v-0.166q-4.005-5.169-5.5-7.334a2.9,2.9,0,0,0-2.84-1.833h-0.5a4.391,4.391,0,0,0-2.66,1,142.471,142.471,0,0,1-18.67,14.5q-14.835,9.5-36.17,17,23.34-12.5,38.34-28.167a182.3,182.3,0,0,0,13.16-15.5,3.7,3.7,0,0,0,.5-3.833,124.088,124.088,0,0,1-5.33-14.333,236.72,236.72,0,0,1-6.83-30,3.742,3.742,0,0,0-3.17-3.334h-0.83a3.837,3.837,0,0,0-3.34,1.667,120.207,120.207,0,0,1-21,23.5q3.84-7.332,6.84-14.333a3.766,3.766,0,0,0-.34-4,3.829,3.829,0,0,0-3.33-1.667h-18.5a3.99,3.99,0,0,0-4,4V302.5a4.082,4.082,0,0,0,1.67,3.334,3.622,3.622,0,0,0,2.33.666h1.17q0.825-.332,18.83-5.333-10.335,6.836-18.83,12-17.34,10.663-33.34,19.333a4.278,4.278,0,0,0-1.83,2.167,3.4,3.4,0,0,1-1,1.667,0.151,0.151,0,0,1-.17.166,0.143,0.143,0,0,0-.16.167l-7.67-18.833c1.33-.334,3.67-0.862,7-1.584s5.94-1.3,7.83-1.75l5-1.5q3.165-.831,3.17-3.833v-44.5a3.746,3.746,0,0,0-1.25-2.833,4.152,4.152,0,0,0-2.92-1.167h-14.5l-0.16-1.167h14.66a4.143,4.143,0,0,0,2.92-1.166,3.741,3.741,0,0,0,1.25-2.834v-39a3.837,3.837,0,0,0-1.25-2.75,4,4,0,0,0-2.92-1.25h-15.66l-0.17-1.166h34.33a4,4,0,0,0,3.34-1.5l8.5-11.667,0.16,0.167h0.34a16.8,16.8,0,0,0,2.41,2.25q1.755,1.417,2.25,1.916,1.17,1,3.25,2.75c1.39,1.167,2.36,2.029,2.92,2.584q0.825,0.667,4.5,4.333a4.426,4.426,0,0,1-2.33.333h-19.67a3.716,3.716,0,0,0-2.83,1.25,3.945,3.945,0,0,0-1.17,2.75v36a3.628,3.628,0,0,0,2.83,3.834,2.857,2.857,0,0,1,.67.083,2.18,2.18,0,0,0,.5.083,4.427,4.427,0,0,0,3.5-1.833l4.5-7.5,1.17,0.833q3.495,3.837,6,6.167a23.9,23.9,0,0,0,1.75,2.083q1.41,1.587,2.25,2.417a3.608,3.608,0,0,0,2.83,1.333h0.83a3.66,3.66,0,0,0,3-2.5,303.1,303.1,0,0,0,10-30.833,288.283,288.283,0,0,0,6.17-31.167l24,5.667c-0.23.112-1,.391-2.33,0.833a3.313,3.313,0,0,0-3.34,2.667q-3.84,12.667-8.16,23.167a3.632,3.632,0,0,0,.33,3.666,4.1,4.1,0,0,0,3.33,1.667h32.84a3.793,3.793,0,0,0,3.16-1.5l9.17-12.5,0.67,0.5q0.99,1,5,4.333,0.495,0.5,2.91,2.417t3.75,3.083a42.782,42.782,0,0,1,5,4.334,7.928,7.928,0,0,1-2.5.333h-12a3.665,3.665,0,0,0-2.58,1,3.707,3.707,0,0,0-1.25,2.333,184.587,184.587,0,0,1-9.67,34,130.784,130.784,0,0,1-17.83,32.5,3.624,3.624,0,0,0-.92,2.667,3.433,3.433,0,0,0,1.25,2.5A109.421,109.421,0,0,0,2197.09,322h0.16a141.2,141.2,0,0,0,30.34,14.167,23.712,23.712,0,0,0-10.5,5.833,28.183,28.183,0,0,0-6.67,10.5,88.22,88.22,0,0,1-31.83-25h0Zm-22.17-91a109.2,109.2,0,0,1-5.5,10.834,5.013,5.013,0,0,0-.5,3,188.09,188.09,0,0,0,6.5,20.5,110.747,110.747,0,0,0,9.83,20,3.8,3.8,0,0,0,3.5,2h0.17a3.638,3.638,0,0,0,3.33-2.167q1.665-3.332,4.67-10a173.589,173.589,0,0,0,11.33-41.833,3.04,3.04,0,0,0-1-3.167,3.484,3.484,0,0,0-2.83-1.5h-25.83a3.663,3.663,0,0,0-3.67,2.333h0Zm150.33,93.334q11.835-14.669,17.34-28.334a155.768,155.768,0,0,0,5.33-16.166,3.161,3.161,0,0,0-.5-3.5,4.47,4.47,0,0,0-3.17-1.5h-6a4.074,4.074,0,0,0-3,1.166,3.848,3.848,0,0,0-1.16,2.834v4a14.151,14.151,0,0,1-3,1.666,29.053,29.053,0,0,1-10.67,1.667h-1.33V267.833a3.992,3.992,0,0,0-1.34-2.834,3.511,3.511,0,0,0,1.34-3V219a3.675,3.675,0,0,0-1.67-3.166,3.156,3.156,0,0,0-2.33-.834,4.458,4.458,0,0,0-1.34.167,6.617,6.617,0,0,1-1.83.167h-17.5a3.713,3.713,0,0,0-2.83,1.25,3.943,3.943,0,0,0-1.17,2.75V256.5a3.428,3.428,0,0,0,3,3.667,2.284,2.284,0,0,0,1,.167,3.284,3.284,0,0,0,3.33-1.834l3.34-5.333,0.83,0.5q1.5,1.668,5.67,5.833a30.093,30.093,0,0,0,2.16,2.75c1,1.167,1.72,2.029,2.17,2.584h0.17a0.452,0.452,0,0,0,.33.166l-0.33.167a2.909,2.909,0,0,1-2,.5h-15.67a3.847,3.847,0,0,0-2.83,1.167,4.055,4.055,0,0,0-1.17,3V307a4.082,4.082,0,0,0,1.67,3.334,3.622,3.622,0,0,0,2.33.666h1.33q11.67-3.663,17.67-5.666-6.345,4.836-16,11.666-12,8.832-29,19.667a2.578,2.578,0,0,0-1.67,2,4.874,4.874,0,0,1-1.5,2.333l-9.16-18.5q5.325-1.335,13.33-3.833a6.863,6.863,0,0,0,2.67-.833,3.43,3.43,0,0,0,3-3.667V269.833a4.179,4.179,0,0,0-1.17-2.917,3.746,3.746,0,0,0-2.83-1.25h-12.34l-0.33-1.333h12.67a3.99,3.99,0,0,0,4-4v-41a3.987,3.987,0,0,0-1.17-2.75,3.743,3.743,0,0,0-2.83-1.25h-14l-0.34-1.167h30.84a4.1,4.1,0,0,0,3.33-1.667l8.17-10.833,0.16,0.167q3.51,3,4.5,4c0.56,0.445,1.5,1.25,2.84,2.416a27.287,27.287,0,0,0,3.33,2.584c0.22,0.224.61,0.583,1.17,1.083s1,0.917,1.33,1.25a3.6,3.6,0,0,0,2.67,1,3.9,3.9,0,0,0,1.66-.5,2.418,2.418,0,0,0,1.5-1.167l18.34,7a2.181,2.181,0,0,0,1.33.5h4.5q3.165,0,3.83-3.333c0.22-1,.44-2.388.67-4.167l0.17-.166q0.66-6.333,1.33-9.667c0.11-.776.27-1.917,0.5-3.417a25.422,25.422,0,0,0,.33-3.25l24,5.5a15.017,15.017,0,0,1-3.66,1,3.764,3.764,0,0,0-2.5.834c-1.9,1.666-4.78,4.112-8.67,7.333l-2.67,2.167q-2.34,2-1.33,4.5a3.771,3.771,0,0,0,3.83,2.666h25a4.322,4.322,0,0,0,3-1.5l7.5-8.666,14.84,11.333-0.17.167-0.17.166a7.907,7.907,0,0,1-2.16.5q-3.345.837-3.34,4v59.667a1.886,1.886,0,0,0-.58.167q-0.42.168-1.17,0.5t-1.41.666a4.284,4.284,0,0,1-2,.834,3.5,3.5,0,0,0-2.67,3.666,3.072,3.072,0,0,0,2,3.667v0.167h-1.17a4.109,4.109,0,0,0-3.33,1.666l-0.33.5a3.667,3.667,0,0,0-.5,3.167,10.127,10.127,0,0,0,.5,1.333l-0.17-.166h-1.17a3.373,3.373,0,0,0-3,1.5c-0.56.557-1.36,1.39-2.41,2.5s-1.87,1.945-2.42,2.5a3.926,3.926,0,0,0-.5,4.5,3.468,3.468,0,0,0,3.67,2.333h0.16q4.665-.332,6.5-0.667a3.765,3.765,0,0,0,2.67-1.666,3.192,3.192,0,0,0,.67-3.334,30.031,30.031,0,0,0-1.67-5.166,0.5,0.5,0,0,0-.17-0.334,1.477,1.477,0,0,0-.16-0.5q6.66,3.5,9.5,7.167a14.37,14.37,0,0,1,3.16,6c0.22,2.109,1.56,3.167,4,3.167l0.5,12.166a3.878,3.878,0,0,0,2.17,3.667,24.029,24.029,0,0,1,3.17,2,6.228,6.228,0,0,1,.83,3.333,6.412,6.412,0,0,1-2,4.667q-2.175,1.832-8.5,2.833-5.34,1-19.5,1h-15.5a44.872,44.872,0,0,1-11-1c-2.23-.89-3.61-2.112-4.17-3.666a21.862,21.862,0,0,1-1.5-8.334V318.166a3.612,3.612,0,0,0-2.66-3.833,4.426,4.426,0,0,0-1.34-.167,3.065,3.065,0,0,0-3,1.667,121.469,121.469,0,0,1-20.66,20.666q-10.68,8.5-26.84,15.5a133.69,133.69,0,0,0,24.5-22.166h0Zm50.67,7h20c0.89,0,1.86-.029,2.92-0.084s1.75-.083,2.08-0.083c0.33-.112.8-0.25,1.42-0.417a5.7,5.7,0,0,1,1.25-.25,6.044,6.044,0,0,0,2.16-1.166,3.49,3.49,0,0,1,.84-0.667,20.5,20.5,0,0,1,.91-2.083c0.5-1.058.92-2.029,1.25-2.917a3.336,3.336,0,0,0-1-4.333,3.656,3.656,0,0,0-2.66-1.167,2.7,2.7,0,0,0-1.67.5,5.925,5.925,0,0,1-1.67.167h-0.16a6.316,6.316,0,0,1-3.84-1.834v-0.666a4.132,4.132,0,0,0-1.83-3.5,3.37,3.37,0,0,0-2.17-.667,2.453,2.453,0,0,0-1.83.667l-5,2.5-7,3.5a3.047,3.047,0,0,0-1.67,1.5,4.7,4.7,0,0,0-.83,1L2357.59,324a3.849,3.849,0,0,0-3.67-2.5,0.974,0.974,0,0,0-.67.167,3.726,3.726,0,0,0-2.33,1.25,3.46,3.46,0,0,0-1,2.417v6.333a4.748,4.748,0,0,0,1.17,3.5,2.048,2.048,0,0,0,1.5,1V336.5a29.877,29.877,0,0,0,4.83.334h0Zm-6.33-55.25a3.943,3.943,0,0,0-1.17,2.75V310q0,3.168,2.83,3.667a2.053,2.053,0,0,0,1.17.333,3.824,3.824,0,0,0,3.33-1.666,41.548,41.548,0,0,0,3-6.667,70.444,70.444,0,0,0,2.84-10.5q0.99-5.333,1.16-6.667h0.5a3.1,3.1,0,0,0,2-.666,3.5,3.5,0,0,0,1.84-3.334v-0.166a3.987,3.987,0,0,0-1.17-2.75,3.568,3.568,0,0,0-2.67-1.25h-0.66a2.408,2.408,0,0,0-1.34.333,1.619,1.619,0,0,0-1.16-.333h-7.67A3.713,3.713,0,0,0,2351.09,281.583Zm-0.42-30.25a3.571,3.571,0,0,0-1.25,2.666c-0.11,1.224-.31,3.362-0.58,6.417s-0.48,5.474-.59,7.25a37.207,37.207,0,0,0-.66,3.917c-0.23,1.724-.34,2.695-0.34,2.916a3.392,3.392,0,0,0,.84,3.334,4.322,4.322,0,0,0,3,1.5h13.66a3.572,3.572,0,0,0,2.67-1.25,4.178,4.178,0,0,0,1.17-2.917v-21a3.894,3.894,0,0,0-1.17-2.833,3.689,3.689,0,0,0-2.67-1.167h-11.33A3.952,3.952,0,0,0,2350.67,251.333Zm-33.83,0a3.712,3.712,0,0,0-1.25,2.833v21a4.272,4.272,0,0,0,4.16,4.167h7.84c2.1,0,3.44-1.11,4-3.334q0.495-2.163.66-2.833v-0.333q0.84-5.664,1.84-18.5a3.992,3.992,0,0,0-1.34-2.834,2.907,2.907,0,0,0-2.66-1.333h-10.34A4.129,4.129,0,0,0,2316.84,251.333Zm34.08-29.167a3.856,3.856,0,0,0-1.17,2.833v20a3.982,3.982,0,0,0,1.09,2.834,3.572,3.572,0,0,0,2.75,1.166h11.16a3.68,3.68,0,0,0,2.67-1.166,3.888,3.888,0,0,0,1.17-2.834V225a3.9,3.9,0,0,0-1.17-2.833,3.689,3.689,0,0,0-2.67-1.167h-11.16A3.672,3.672,0,0,0,2350.92,222.166Zm-34.17,0a3.847,3.847,0,0,0-1.16,2.833v20a3.84,3.84,0,0,0,1.16,2.834,4.067,4.067,0,0,0,3,1.166h10.5a3.971,3.971,0,0,0,4-4V225a3.973,3.973,0,0,0-4-4h-10.5A4.075,4.075,0,0,0,2316.75,222.166Z"/>
</svg>
