<svg xmlns="http://www.w3.org/2000/svg" width="720" height="258" viewBox="0 0 720 258">
  <defs>
    <style>
      .cls-1 {
        fill: #fff;
        fill-rule: evenodd;
      }
    </style>
  </defs>
  <path id="帧间映画" class="cls-1" d="M89.707,169.608v-75h52.8v73.2q0,4,4,4h1.8q4,0,4-4v-68.6l3.8-3.2a3.328,3.328,0,0,0,1.6-2.6q0-2.4-7-9.4a4.489,4.489,0,0,0-3-1.6q-1.4,0-3,2.2l-3.4,5h-23.4v-24.2h38.4a3.4,3.4,0,0,0,3.2-1.8,3.487,3.487,0,0,0-.4-3.6q-3-4.6-6-8.4-1.4-2-3-2t-3,2.4l-5.6,8.6h-23.6v-17.2q6.6-2.8,6.6-5.2a2.648,2.648,0,0,0-1.7-2.3,19.1,19.1,0,0,0-3.9-1.5,25.687,25.687,0,0,0-4.3-.8c-1.4-.131-2.435-0.2-3.1-0.2q-3.6,0-3.6,3.8v52.4h-15.8q-1.8-1-3.4-2t-3-1.8a6.842,6.842,0,0,0-3.2-1.2q-2.6,0-2.6,4.6v80.4q0,4,4,4h1.8q4,0,4-4h0Zm-45,39.6v-44q5.8,2,7.2,6.8a6.165,6.165,0,0,0,1.6,2.7,3.43,3.43,0,0,0,2.8.7q10-1.6,10-12.4v-81.4l4.2-3.2a2.348,2.348,0,0,0,1.2-2q0-2.2-6-8.8a3.887,3.887,0,0,0-3-1.8q-1.6,0-3,2.2l-3.8,5.4h-11.2v-29q6.8-3.2,6.8-5.6a2.458,2.458,0,0,0-1.7-2.2,24.285,24.285,0,0,0-3.9-1.4,25.692,25.692,0,0,0-4.3-.8c-1.4-.131-2.369-0.2-2.9-0.2q-3.6,0-3.6,3.8v35.4h-9.6q-2-1-3.6-2t-3.2-1.8l-3.8-2.2q-0.8-.4-0.8.6v104q0,4,4,4h1.2q4,0,4-4v-93.6h11.8v130.8q0,4,4,4h1.6q4,0,4-4h0Zm0-48.8v-82h12.8v77.8q0,4.6-5,4.6-2.6,0-7.8-.4h0Zm19.8,51.8q56.2-14.2,56.2-71v-20.4q6.6-2.6,6.6-5a2.86,2.86,0,0,0-1.6-2.4,14.284,14.284,0,0,0-3.8-1.6,20.34,20.34,0,0,0-4.4-.7q-2.2-.1-3.2-0.1-3.6,0-3.6,3.8v26.2q0,50.4-48.4,66.4-2.4.8-1.4,3.2a2.929,2.929,0,0,0,3.6,1.6h0Zm100-9.8q0-13.4-41.2-28.8a6.376,6.376,0,0,0-1-.2,2.057,2.057,0,0,0-2,1.4,2.436,2.436,0,0,0,1,3.4q22.2,14.2,31.8,27,3.2,4.4,5.8,4.4,5.6,0,5.6-7.2h0Zm82.6-39.6v-33.8h37.4v33.8h-37.4Zm0-38.8v-31.8h37.4v31.8h-37.4Zm0,53.8v-10h37.4v6.8q0,4,4,4h1.6q4,0,4-4v-78.2l3.8-3a2.905,2.905,0,0,0,1.4-2.4,5.343,5.343,0,0,0-1.2-2.5,31.921,31.921,0,0,0-2.8-3.4,33.964,33.964,0,0,0-3.2-3,4.756,4.756,0,0,0-2.8-1.3q-1.6,0-3,2l-3,4.4h-35l-5.4-2.6a5.633,5.633,0,0,0-2.8-.8q-2.4,0-2.4,4v90q0,4,4,4h1.4q4,0,4-4h0Zm66.3,32.7a3.469,3.469,0,0,0,2.9.7q14.6-1.6,14.6-15V58.808l4.4-3.2a2.981,2.981,0,0,0,1.6-2.6q0-2.4-7.4-10a4.489,4.489,0,0,0-3-1.6q-1.6,0-3,2.2l-4,5.6h-68.4q-2.6,0-1.6,2.6a3.746,3.746,0,0,0,3.8,2.4h67.4v134.6q0,6.6-6.8,6.6a207.763,207.763,0,0,1-24.8-1.8q-2.6-.2-2.6,2.4a2.737,2.737,0,0,0,2.6,3q12,2,16.6,3.8a10.943,10.943,0,0,1,6,5A8.938,8.938,0,0,0,313.407,210.508Zm-74.5-145.1q0-15.4-24-28.6a2.473,2.473,0,0,0-1.4-.6,2.348,2.348,0,0,0-2,1.2,2.176,2.176,0,0,0,0,3.2q11.4,12,15.2,25.8,1.8,7,6,7,6.2,0,6.2-8h0Zm-28.4,142.6V84.408q7-3.2,7-5.6a2.855,2.855,0,0,0-1.7-2.4,15.751,15.751,0,0,0-4-1.6,27.963,27.963,0,0,0-4.5-.8c-1.469-.131-2.535-0.2-3.2-0.2q-3.6,0-3.6,3.8v130.4q0,4,4,4h2q4,0,4-4h0Zm202.4,4.6a6.01,6.01,0,0,0,1.4-.2q44.2-18.2,54.6-68.4,9,40.2,41.8,63.8a4.792,4.792,0,0,0,2.8,1q1.8,0,3.2-2.2c0.4-.534.8-1.069,1.2-1.6s0.8-1.069,1.2-1.6q2-2.2,1.8-3.9t-3-3.1q-33.6-19-45.2-56.4h46a3.346,3.346,0,0,0,3.2-2v-0.4a3.413,3.413,0,0,0,0-3.2,33.983,33.983,0,0,0-1.8-3.8q-1-1.8-2.2-3.8-1.8-3-3.4-3-1.8,0-3.4,3.4l-3.8,7.8h-4v-54.4l3.6-3.2a3.773,3.773,0,0,0,1.8-2.8,5.608,5.608,0,0,0-1.1-2.5,24.513,24.513,0,0,0-2.7-3.4,33.964,33.964,0,0,0-3.2-3,4.688,4.688,0,0,0-2.6-1.3q-1.6,0-3,2l-3.8,5.6h-20.6v-27.4q7-3.4,7-5.8a2.648,2.648,0,0,0-1.7-2.3,19.1,19.1,0,0,0-3.9-1.5,25.629,25.629,0,0,0-4.4-.8c-1.469-.131-2.535-0.2-3.2-0.2q-3.6,0-3.6,4v34h-19.8q-1.4-1-2.6-1.8c-0.8-.531-1.669-1.066-2.6-1.6a5.77,5.77,0,0,0-2.8-1.2q-2.4,0-2.4,4.2v63.4h-14.4v-71.6l3.8-3a3.866,3.866,0,0,0,1.6-2.8,5.913,5.913,0,0,0-1-2.5,22.438,22.438,0,0,0-2.5-3.4,26.55,26.55,0,0,0-3.1-3,4.688,4.688,0,0,0-2.6-1.3q-1.6,0-3.2,2.2l-3.6,5.6h-19.8q-1.4-.8-2.7-1.7t-2.7-1.7a5.992,5.992,0,0,0-3.2-1.2q-2.4,0-2.4,4.2v132.2q0,4,4,4h1.6q4,0,4-4v-17.2h22.4v9.2q0,4,4,4h1.4q4,0,4-4v-39h42.4q-9.2,46.8-48,67.2a2.592,2.592,0,0,0-1.2,3.8,2.559,2.559,0,0,0,2.4,1.6h0Zm-27.4-104.6v-47.8h22.4v47.8h-22.4Zm56,27v-58h20.4v38.8a133.214,133.214,0,0,1-1.4,19.2h-19Zm29,0a161.236,161.236,0,0,0,1.2-19.2v-38.8h21.8v58h-23Zm-85,29.8v-51.8h22.4v51.8h-22.4Zm315.2-109.4a3.105,3.105,0,0,0-.4-3.4q-1.8-2.4-3.7-4.8t-3.9-4.6a4.443,4.443,0,0,0-3.2-1.8q-1.6,0-3,2.2l-6,9.4h-127.4q-2.6,0-1.8,2.4a3.115,3.115,0,0,0,3.4,2.6h143.2a2.634,2.634,0,0,0,2.8-2h0Zm-103.8,66v-30.8h23v30.8h-23Zm0,41v-36h23v36h-23Zm32.8,0v-36h24v36h-24Zm0-41v-30.8h24v30.8h-24Zm-32.8,54.2v-8.2h56.8v7.6q0,4,4,4h1.6q4,0,4-4v-80.4l4.2-3.4a2.905,2.905,0,0,0,1.4-2.4q0-2-6.8-8.6a4.4,4.4,0,0,0-2.8-1.6q-1.6,0-3.2,2l-3.6,5h-53.8a20.574,20.574,0,0,1-1.9-1.1,26.131,26.131,0,0,0-2.3-1.3q-1.2-.6-2.5-1.1a6.287,6.287,0,0,0-2.1-.5q-2.6,0-2.6,4.4v89.6q0,4,4,4h1.6q4,0,4-4h0Zm94.6,32.6V89.008q6.4-2.8,6.4-5.2a2.86,2.86,0,0,0-1.6-2.4,14.261,14.261,0,0,0-3.8-1.6q-2.2-.6-4.3-1a18.619,18.619,0,0,0-3.1-.4q-3.6,0-3.6,4v109.4h-112.4V91.008q6.6-2.6,6.6-5a2.86,2.86,0,0,0-1.6-2.4,14.264,14.264,0,0,0-3.8-1.6,25.687,25.687,0,0,0-4.3-.8c-1.4-.131-2.435-0.2-3.1-0.2q-3.6,0-3.6,3.8v102.8l-3.6,2.8a2.749,2.749,0,0,0-1.6,2.2q0,2.4,7.6,10a4.722,4.722,0,0,0,3,1.4q1.6,0,3.2-2.2l3.2-5h110.4v11.4q0,4,4,4h2q4,0,4-4h0Z"/>
</svg>
